<svg xmlns="http://www.w3.org/2000/svg" width="141.065" height="115.215" viewBox="0 0 141.065 115.215">
  <g id="Group_3945" data-name="Group 3945" transform="translate(-421.386 -4710.758)">
    <path id="Path_3357" data-name="Path 3357" d="M197.9,549.5a4.758,4.758,0,0,0,.245-3.476q-.731-2.308-1.463-4.616a5.158,5.158,0,0,0-4.4-3.5,17.388,17.388,0,0,0-6.416.453,13.048,13.048,0,0,0-4.992,2.512,5.411,5.411,0,0,0-2.551-.038q-4.948,1.116-9.933,1.982a5.046,5.046,0,0,1-1.392.236q-5.885.979-11.807,1.613a5.55,5.55,0,0,0-.688.12,5.283,5.283,0,0,0-.7.024q-2.483.248-4.969.435a5.343,5.343,0,0,0-3.011,1.209,5.355,5.355,0,0,0-3.132-.842q-2.514.113-5.031.162a5.323,5.323,0,0,0-3.322,1.242,5.341,5.341,0,0,0-3.331-1.218q-2.8-.036-5.59-.148a5.329,5.329,0,0,0-2.467.491,5.322,5.322,0,0,0-2.405-.745q-5.032-.323-10.05-.9a5.469,5.469,0,0,0-1.149-.008,5.354,5.354,0,0,0-1.118-.264q-5.01-.629-9.995-1.509a5.363,5.363,0,0,0-2.937.3,5.375,5.375,0,0,0-2.621-1.363q-2.452-.5-4.9-1.069a5.466,5.466,0,0,0-1.146-.139,5.4,5.4,0,0,0-1.087-.391q-4.932-1.2-9.816-2.649a5.26,5.26,0,0,0-6.535,3.275q-3.34,10.281-6.681,20.561c-.877,2.656.985,5.658,4.18,6.6q5.663,1.681,11.386,3.071a6.777,6.777,0,0,0,1.3.186c.18.08.365.154.555.219q-2.755,5.293-5.649,10.534a4.3,4.3,0,0,0,.216,4.431,7,7,0,0,0,4.436,2.963q1.025.226,2.051.446a7.7,7.7,0,0,0,2.348.138,7.719,7.719,0,0,0,2.215.79q1.041.2,2.085.394a7.867,7.867,0,0,0,.926.114,7.956,7.956,0,0,0,.923.222q1.083.193,2.169.375a7.791,7.791,0,0,0,1.375.11,7.817,7.817,0,0,0,1.333.331q1.127.177,2.255.344a7.826,7.826,0,0,0,1.516.076,7.952,7.952,0,0,0,1.48.35q1.09.148,2.178.286a7.723,7.723,0,0,0,2.058-.013,7.677,7.677,0,0,0,2,.495q2.926.324,5.855.577a7.8,7.8,0,0,0,1.305,0,12.92,12.92,0,0,0,2.547.452,11.2,11.2,0,0,0,7.043-1.664,6.885,6.885,0,0,0,4.92,2.083q1.1.027,2.193.043a7.13,7.13,0,0,0,4.348-1.325,7.131,7.131,0,0,0,4.353,1.308q2.937-.055,5.874-.18a8,8,0,0,0,.977-.1,8,8,0,0,0,.982.012q2.935-.146,5.868-.363a7.756,7.756,0,0,0,1.7-.316,7.78,7.78,0,0,0,1.723.042q1.094-.1,2.185-.2a7.683,7.683,0,0,0,1.979-.456,7.7,7.7,0,0,0,2.03.04q1.092-.122,2.181-.254a7.863,7.863,0,0,0,1.347-.284,7.986,7.986,0,0,0,1.372-.059q1.13-.149,2.259-.309c.2-.028.4-.067.592-.109.2-.013.4-.034.607-.063q1.034-.151,2.069-.31a7.662,7.662,0,0,0,2.24-.7,7.717,7.717,0,0,0,2.348-.047q1.045-.182,2.089-.37a7.985,7.985,0,0,0,1.264-.343,13.137,13.137,0,0,0,2.6-.236,11.106,11.106,0,0,0,6.786-3.945,7.3,7.3,0,0,0,1.431-6.345,7.88,7.88,0,0,0-2.547-4.159c-.131-.114-.267-.229-.41-.346a4.5,4.5,0,0,0,.5-3.274l-.319-1.336a17.87,17.87,0,0,0,4.583-.572,14.849,14.849,0,0,0,8.712-5.791,10.185,10.185,0,0,0,1.412-9.184A11.2,11.2,0,0,0,197.9,549.5Z" transform="translate(359.084 4230.768)"/>
    <g id="Group_1318" data-name="Group 1318" transform="translate(427.223 4773.036)">
      <path id="Path_3358" data-name="Path 3358" d="M108,571.63q5,1.486,10.061,2.715-.543,2.235-1.087,4.469-2.614-.635-5.214-1.338-.52,1.922-1.04,3.846,2.3.621,4.607,1.19-.538,2.178-1.075,4.356-2.357-.58-4.7-1.215-.514,1.9-1.026,3.8,2.769.748,5.552,1.425l-1.09,4.484q-5.6-1.36-11.141-3L108,571.633Z" transform="translate(-101.85 -571.63)" fill="#fff"/>
      <path id="Path_3359" data-name="Path 3359" d="M199.041,593.69q2.5.578,5.017,1.1-1.672,8.138-3.343,16.275,2.151.441,4.306.842-.456,2.461-.911,4.92-4.988-.924-9.94-2.069Q196.606,604.222,199.041,593.69Z" transform="translate(-180.538 -590.433)" fill="#fff"/>
      <path id="Path_3360" data-name="Path 3360" d="M278.038,608.471q5.107.9,10.244,1.548-.288,2.281-.574,4.562-2.654-.334-5.3-.734-.3,1.969-.6,3.94,2.341.354,4.687.657-.288,2.224-.575,4.449-2.394-.31-4.783-.67-.295,1.944-.589,3.891,2.819.427,5.648.781-.288,2.29-.574,4.579-5.688-.713-11.343-1.713,1.88-10.644,3.759-21.291Z" transform="translate(-248.819 -603.03)" fill="#fff"/>
      <path id="Path_3361" data-name="Path 3361" d="M370.665,620.841q5.141.586,10.3.92-.148,2.31-.3,4.621-2.666-.17-5.329-.41-.177,1.967-.353,3.935,2.387.215,4.78.375l-.3,4.476q-2.441-.164-4.879-.383-.381,4.259-.762,8.517-2.81-.252-5.615-.573,1.227-10.74,2.455-21.48Z" transform="translate(-328.88 -613.574)" fill="#fff"/>
      <path id="Path_3362" data-name="Path 3362" d="M457.477,650.6q-2.93.046-5.86.019-.456-1.809-.9-3.622-2.93-.039-5.858-.156-.556,1.785-1.128,3.567-2.873-.126-5.742-.323,4.031-10.559,7.448-21.243,2.864.115,5.729.152Q454.013,639.838,457.477,650.6Zm-7.75-7.507a76.377,76.377,0,0,1-1.592-9.22h-.069A81.718,81.718,0,0,1,446,642.993q1.863.066,3.724.1Z" transform="translate(-388.357 -620.392)" fill="#fff"/>
      <path id="Path_3363" data-name="Path 3363" d="M573.41,623.981q2.578-.051,5.156-.167,3.522,6.084,7.426,12.042-.186-1.156-.371-2.311-.381-5.055-.76-10.109,2.547-.19,5.093-.446,1.074,10.755,2.15,21.512-2.882.288-5.769.5-3.956-5.86-7.542-11.849.128,1.34.26,2.68.213,4.789.427,9.577-2.817.127-5.635.182-.217-10.809-.432-21.616Z" transform="translate(-503.781 -615.406)" fill="#fff"/>
      <path id="Path_3364" data-name="Path 3364" d="M695.07,612.462q6.067-.649,12.1-1.652.406,2.436.812,4.873-1.786.3-3.573.564,1.231,8.248,2.461,16.5-2.832.423-5.671.774-1.025-8.277-2.049-16.554-1.776.219-3.554.41-.261-2.456-.524-4.911Z" transform="translate(-607.477 -605.025)" fill="#fff"/>
      <path id="Path_3365" data-name="Path 3365" d="M786.671,597.44q5.108-.888,10.181-2.03.5,2.243,1.012,4.486-2.62.591-5.253,1.115.39,1.954.779,3.907,2.325-.463,4.643-.978.485,2.191.972,4.38-2.365.525-4.74,1,.386,1.929.769,3.86,2.8-.558,5.593-1.189.507,2.251,1.016,4.5-5.614,1.267-11.273,2.25-1.849-10.651-3.7-21.3Z" transform="translate(-685.552 -591.899)" fill="#fff"/>
      <path id="Path_3366" data-name="Path 3366" d="M877.555,598.771q-.583-2.449-1.164-4.9a9.764,9.764,0,0,0,4.638.252,2.467,2.467,0,0,0,1.472-.914,1.67,1.67,0,0,0,.235-1.463,1.856,1.856,0,0,0-.781-1.048,9.186,9.186,0,0,0-1.953-.909,16.31,16.31,0,0,1-4.825-2.528,6.387,6.387,0,0,1-1.291-8.225,6.871,6.871,0,0,1,4.213-2.894,11.77,11.77,0,0,1,4.4-.3q.674,2.326,1.345,4.651a9.414,9.414,0,0,0-3.988-.13,2.44,2.44,0,0,0-1.369.826,1.479,1.479,0,0,0-.239,1.326c.227.877,1.333,1.649,3.352,2.275a17.119,17.119,0,0,1,3.9,1.841,6.143,6.143,0,0,1,2.8,3.578,5.659,5.659,0,0,1-.851,5.081,8.544,8.544,0,0,1-5.066,3.287,11.62,11.62,0,0,1-4.819.195Z" transform="translate(-759.063 -575.15)" fill="#fff"/>
    </g>
    <g id="Group_1319" data-name="Group 1319" transform="translate(439.121 4803.114)">
      <path id="Path_3367" data-name="Path 3367" d="M190.956,789.518q-1.023-.189-2.043-.387-.044-1.3-.084-2.609-1.643-.321-3.284-.668-.549,1.185-1.1,2.367-1.006-.215-2.01-.437,3.079-5.907,5.985-11.874.822.17,1.645.334.359,6.631.9,13.273Zm-2.156-4.329q-.089-3.127-.142-6.253c-.016,0-.033-.006-.049-.01q-1.234,2.863-2.5,5.717,1.342.281,2.687.546Z" transform="translate(-182.43 -775.825)" fill="#fff"/>
      <path id="Path_3368" data-name="Path 3368" d="M259.427,798.294q-1.105-.163-2.209-.337-.766-3.176-1.471-6.356l-.18-.031q-.5,2.977-1,5.955-1.063-.179-2.125-.368,1.123-6.334,2.244-12.667,1.393.246,2.788.477c2.271.372,3.248,1.62,2.927,3.793a3.955,3.955,0,0,1-.85,2.148,3.133,3.133,0,0,1-1.86.865q.835,3.262,1.739,6.519Zm-3.665-7.889a2.747,2.747,0,0,0,1.81-.187,2.107,2.107,0,0,0,.794-1.565,2.318,2.318,0,0,0-.22-1.711,2.284,2.284,0,0,0-1.555-.756l-.118-.019-.713,4.242Z" transform="translate(-242.103 -783.138)" fill="#fff"/>
      <path id="Path_3369" data-name="Path 3369" d="M321.122,794.6q-1.156-.135-2.311-.282-.717,5.654-1.434,11.31-1.068-.135-2.135-.281.767-5.648,1.533-11.3-1.147-.155-2.294-.323c.071-.483.14-.966.211-1.449q3.3.481,6.6.867C321.235,793.631,321.178,794.117,321.122,794.6Z" transform="translate(-294.982 -789.777)" fill="#fff"/>
      <path id="Path_3370" data-name="Path 3370" d="M366.748,812.643q-2.87-.25-5.738-.566.707-6.394,1.412-12.787,2.671.3,5.345.529c-.043.486-.086.973-.127,1.459q-1.681-.145-3.361-.317-.206,2.028-.413,4.059,1.581.162,3.166.3c-.043.486-.086.973-.129,1.459q-1.593-.142-3.185-.3-.224,2.206-.449,4.41,1.8.184,3.6.34l-.124,1.419Z" transform="translate(-334.641 -795.752)" fill="#fff"/>
      <path id="Path_3371" data-name="Path 3371" d="M416.175,805.86a4.522,4.522,0,0,0-1.769-.565,2.044,2.044,0,0,0-1.4.39,1.5,1.5,0,0,0-.652,1.126,1.984,1.984,0,0,0,.263,1.057,11.776,11.776,0,0,0,1.416,1.863,19.465,19.465,0,0,1,1.714,2.211,3.413,3.413,0,0,1,.527,2.075,2.881,2.881,0,0,1-1.193,2.264,4.128,4.128,0,0,1-2.842.708,7.443,7.443,0,0,1-2.283-.629q.062-.771.124-1.54a.314.314,0,0,1,.072.037,6.023,6.023,0,0,0,.753.4,3.232,3.232,0,0,0,1.149.314,2.286,2.286,0,0,0,1.565-.4,1.61,1.61,0,0,0,.684-1.25,1.814,1.814,0,0,0-.239-1.028,9.262,9.262,0,0,0-1.012-1.334q-.651-.76-1.293-1.524a7.4,7.4,0,0,1-1.076-1.6,3.281,3.281,0,0,1-.251-1.663,2.96,2.96,0,0,1,1.147-2.2,3.6,3.6,0,0,1,2.549-.7,5.671,5.671,0,0,1,2.123.589c-.026.466-.055.934-.081,1.4Z" transform="translate(-376.363 -799.649)" fill="#fff"/>
      <path id="Path_3372" data-name="Path 3372" d="M495.369,807.995q-1.479,3.685-3.05,7.353-.042,2.742-.084,5.482-1.074-.015-2.148-.043.064-2.7.13-5.4-1.389-3.765-2.686-7.546c.673.025,1.345.045,2.018.065q.857,2.924,1.762,5.84l.046-.016q1.03-2.87,2.011-5.748,1,.011,2,.015Z" transform="translate(-442.48 -803.04)" fill="#fff"/>
      <path id="Path_3373" data-name="Path 3373" d="M581.472,821.023q-2.877.121-5.757.177-.122-6.432-.245-12.862,1.019-.02,2.036-.047.159,5.707.317,11.417,1.794-.049,3.587-.125.031.722.061,1.442Z" transform="translate(-517.435 -803.424)" fill="#fff"/>
      <path id="Path_3374" data-name="Path 3374" d="M631.154,817.492q-2.873.21-5.75.356-.321-6.425-.644-12.849,2.68-.135,5.357-.329c.035.487.071.973.106,1.46q-1.683.124-3.367.221.119,2.035.239,4.072,1.586-.093,3.17-.207c.035.488.069.973.1,1.461q-1.595.114-3.191.208.131,2.213.26,4.425,1.805-.106,3.609-.239C631.084,816.546,631.118,817.018,631.154,817.492Z" transform="translate(-559.447 -800.338)" fill="#fff"/>
      <path id="Path_3375" data-name="Path 3375" d="M674.446,801.518q-1.156.122-2.315.233.544,5.674,1.088,11.349c-.713.068-1.428.134-2.141.2q-.494-5.679-.989-11.358-1.152.1-2.307.189c-.037-.487-.075-.973-.112-1.46q3.313-.257,6.623-.607.077.728.153,1.456Z" transform="translate(-596.021 -796.409)" fill="#fff"/>
      <path id="Path_3376" data-name="Path 3376" d="M730.607,808.716c-.737.1-1.475.205-2.214.3q-1.632-2.831-3.207-5.68l-.182.022q.364,3,.725,6-1.068.129-2.138.25-.715-6.392-1.432-12.784,1.4-.157,2.8-.331c2.279-.284,3.572.635,3.877,2.81a3.966,3.966,0,0,1-.207,2.3,3.132,3.132,0,0,1-1.539,1.357q1.723,2.893,3.512,5.76Zm-5.744-6.53a2.743,2.743,0,0,0,1.682-.692,2.113,2.113,0,0,0,.319-1.726,2.329,2.329,0,0,0-.694-1.58,2.284,2.284,0,0,0-1.7-.286l-.118.015q.257,2.135.515,4.27Z" transform="translate(-642.465 -793.322)" fill="#fff"/>
      <path id="Path_3377" data-name="Path 3377" d="M795.908,799.142q-1.023.186-2.046.364-.505-1.2-1-2.41-1.648.281-3.3.54-.093,1.3-.19,2.6c-.674.105-1.351.205-2.027.3q.775-6.613,1.37-13.224c.551-.089,1.1-.179,1.653-.27q2.687,6.073,5.546,12.09Zm-3.55-3.282q-1.191-2.893-2.349-5.8c-.016,0-.032.006-.049.007q-.135,3.114-.3,6.232Q791.008,796.087,792.359,795.859Z" transform="translate(-698.021 -785.32)" fill="#fff"/>
      <path id="Path_3378" data-name="Path 3378" d="M845.845,776.814a4.57,4.57,0,0,0-1.863-.077,2.061,2.061,0,0,0-1.249.744,1.486,1.486,0,0,0-.334,1.26,1.964,1.964,0,0,0,.535.949,11.686,11.686,0,0,0,1.863,1.422,19.721,19.721,0,0,1,2.246,1.677,3.408,3.408,0,0,1,1.059,1.862,2.871,2.871,0,0,1-.56,2.5,4.165,4.165,0,0,1-2.568,1.437,7.442,7.442,0,0,1-2.378,0c-.094-.506-.19-1.013-.285-1.518a.317.317,0,0,1,.08.017,5.9,5.9,0,0,0,.834.186,3.245,3.245,0,0,0,1.195,0,2.3,2.3,0,0,0,1.411-.8,1.608,1.608,0,0,0,.332-1.388,1.806,1.806,0,0,0-.5-.927,9.272,9.272,0,0,0-1.332-1.02q-.831-.561-1.655-1.128a7.412,7.412,0,0,1-1.466-1.264,3.265,3.265,0,0,1-.682-1.537,2.964,2.964,0,0,1,.53-2.425,3.614,3.614,0,0,1,2.284-1.345,5.755,5.755,0,0,1,2.213.006c.1.458.193.915.291,1.373Z" transform="translate(-743.3 -775.332)" fill="#fff"/>
    </g>
    <path id="Path_3379" data-name="Path 3379" d="M913.928,649.751q-2.04.563-4.089,1.084.875.408,1.945.795a10.44,10.44,0,0,1,2.281,1.072,3.07,3.07,0,0,1,1.282,1.723,2.887,2.887,0,0,1-.421,2.494,4,4,0,0,1-2.38,1.53,8.789,8.789,0,0,1-3.036.18q.248,1.01.495,2.022a9.806,9.806,0,0,0,3.233-.272,6.935,6.935,0,0,0,4.148-2.659,4.475,4.475,0,0,0,.684-4.031,4.874,4.874,0,0,0-2.23-2.889,19.573,19.573,0,0,0-1.911-1.048Z" transform="translate(-363.031 4134.821)" fill="#d7d8d8"/>
    <path id="Path_3380" data-name="Path 3380" d="M812.409,676.917q-.372-1.932-.743-3.864a1.384,1.384,0,0,1,1.166-1.556q1.654-.33,3.3-.685-.1-.476-.2-.951-3.582.771-7.183,1.421.846,4.686,1.691,9.372,4.148-.749,8.276-1.652l-.43-1.963q-2.087.456-4.177.873a1.394,1.394,0,0,1-1.7-1Z" transform="translate(-277.148 4117.681)" fill="#d7d8d8"/>
    <path id="Path_3381" data-name="Path 3381" d="M737.152,688.581l1.231,9.443q1.343-.175,2.683-.366-.671-4.713-1.343-9.428-1.285.184-2.572.351Z" transform="translate(-216.119 4102.023)" fill="#d7d8d8"/>
    <g id="Group_1320" data-name="Group 1320" transform="translate(498.496 4791.498)">
      <path id="Path_3382" data-name="Path 3382" d="M584.53,702.108q.126,4.759.253,9.519,1.313-.036,2.627-.084-.157-4.124-.313-8.246-.058-.633-.115-1.267Q585.756,702.076,584.53,702.108Z" transform="translate(-584.53 -701.237)" fill="#d7d8d8"/>
      <path id="Path_3383" data-name="Path 3383" d="M632.318,696.874q.13.78.261,1.561a1.314,1.314,0,0,1-.942,1.435,1.5,1.5,0,0,1-1.722-.548q-.7-1.083-1.393-2.17-1.061.069-2.123.127,2.851,4.611,5.923,9.149,1.667-.131,3.332-.287-.443-4.74-.885-9.481-1.225.115-2.452.216Z" transform="translate(-620.218 -696.66)" fill="#d7d8d8"/>
    </g>
    <path id="Path_3384" data-name="Path 3384" d="M462.14,701.606c.2,1,.422,2.018.671,3.048a1.2,1.2,0,0,1-.294,1.1,1.509,1.509,0,0,1-1.146.473q-1.874-.036-3.746-.1a1.507,1.507,0,0,1-1.116-.532,1.2,1.2,0,0,1-.238-1.11q.443-1.511.821-3.012-1.038-.04-2.076-.09-1.608,4.691-3.336,9.356,1.3.08,2.6.142.419-1.287.828-2.574a1.451,1.451,0,0,1,1.471-.939q2.91.115,5.825.155a1.449,1.449,0,0,1,1.42,1.027q.326,1.3.66,2.6,1.353.006,2.706,0-1.477-4.751-2.835-9.52-1.107-.006-2.215-.022Z" transform="translate(27.201 4090.814)" fill="#d7d8d8"/>
    <path id="Path_3385" data-name="Path 3385" d="M380.26,694.532q-.509,4.733-1.02,9.468,1.309.142,2.618.267.348-3.608.694-7.214a1.383,1.383,0,0,1,1.553-1.165q1.71.153,3.42.279l.071-.97q-3.672-.27-7.336-.666Z" transform="translate(88.945 4096.654)" fill="#d7d8d8"/>
    <path id="Path_3386" data-name="Path 3386" d="M288.88,688.671q.308-1.942.614-3.887a1.384,1.384,0,0,1,1.623-1.067q1.663.252,3.331.478c.044-.32.087-.642.131-.963q-3.619-.492-7.225-1.1l-1.595,9.388q4.155.706,8.328,1.256.131-1,.263-1.992-2.109-.279-4.214-.6a1.393,1.393,0,0,1-1.26-1.513Z" transform="translate(168.619 4107.223)" fill="#d7d8d8"/>
    <path id="Path_3387" data-name="Path 3387" d="M209.4,673.305l1.209-5.7q-1.238-.263-2.475-.54-1.043,4.646-2.085,9.292,3.468.778,6.955,1.447.226-1.178.452-2.355-1.44-.277-2.878-.572A1.391,1.391,0,0,1,209.4,673.305Z" transform="translate(236.561 4120.059)" fill="#d7d8d8"/>
    <path id="Path_3388" data-name="Path 3388" d="M117.569,651.137q.525-1.9,1.051-3.792a1.388,1.388,0,0,1,1.742-.874q1.635.44,3.274.858l.239-.942q-3.559-.9-7.095-1.927-1.325,4.574-2.65,9.147,4.073,1.18,8.18,2.206l.487-1.95q-2.075-.518-4.142-1.076a1.4,1.4,0,0,1-1.088-1.648Z" transform="translate(314.906 4139.33)" fill="#d7d8d8"/>
    <path id="Path_3389" data-name="Path 3389" d="M187.532,211.232a14.73,14.73,0,0,1-14.284-.532,11.528,11.528,0,0,1-3.7-3.551,9.1,9.1,0,0,1-1.265-3.874,22.52,22.52,0,0,0,5.765,2.509,7.127,7.127,0,0,0,2.962.318,3.052,3.052,0,0,0,2.367-1.635,23.342,23.342,0,0,0-2.64-2.98c2.357.644,4.8,1.093,7.157,1.736a15.849,15.849,0,0,0,5.32-4.378,6.64,6.64,0,0,1-.608-4.2,7.171,7.171,0,0,1,.474-7.359,6.74,6.74,0,0,1,1.5-7.138,27.585,27.585,0,0,1,1.345-5.493,9.039,9.039,0,0,1,3.415-4.335,12.53,12.53,0,0,1,1.824-4.5A6.551,6.551,0,0,1,200.955,163a6.614,6.614,0,0,1,1.826-2.822,13.267,13.267,0,0,1,2.654-2.03,29.027,29.027,0,0,1,6.749-3.033,14.248,14.248,0,0,1,8.14-4.9,19.24,19.24,0,0,1,9.58.574,29.666,29.666,0,0,1,8.579,4.436c3.727-.126,6.41-3.418,9.956-4.57a10.871,10.871,0,0,1,7.1.384,24.429,24.429,0,0,1,6.2,3.708,66.616,66.616,0,0,1,21.4,28.676,5.878,5.878,0,0,0-5.012,1.192,16.965,16.965,0,0,0-3.774,4.075c-4.427,6.088-8.223,12.681-13.393,18.152s-12.1,9.84-19.627,9.84c-.57.025-1.392-.072-1.962-.047a5.24,5.24,0,0,1-4.214,3.031,4.9,4.9,0,0,1-4.449-2.3,12.689,12.689,0,0,1-6.194-.192,12.72,12.72,0,0,1-5.39,2.066,3.027,3.027,0,0,1-2.346-.4,13.806,13.806,0,0,1-7.815-1.054,11.693,11.693,0,0,1-8.1-3.02,11.225,11.225,0,0,1-4.583-1.79,10.65,10.65,0,0,1-8.749-1.745Z" transform="translate(268.756 4560.906)"/>
    <path id="Path_3390" data-name="Path 3390" d="M384.146,165.846c-2.776-2.064-5.927-3.966-9.387-3.994-2.67-.022-5.208,1.079-7.61,2.243s-4.822,2.432-7.468,2.786-5.587-.25-7.113-2.441a15.047,15.047,0,0,0,7.5.647c-1.446-.766-2.723-1.666-4.168-2.432-2.61-1.385-5.345-2.8-8.3-2.869-3.22-.072-6.25,1.48-8.941,3.253,2.211-.372,4.574-.747,6.7-.044a7.022,7.022,0,0,1,4.126,3.684c-1.841-1.629-4.539-1.776-7-1.784a26.729,26.729,0,0,0-8.068,1.034,14.191,14.191,0,0,0-6.778,4.347,12.271,12.271,0,0,1,7.21-.224,4.951,4.951,0,0,1,1.844.814,2.28,2.28,0,0,1,.935,1.725,10.434,10.434,0,0,0-5.169-1.153,16.962,16.962,0,0,0-5.111,1.087,12.526,12.526,0,0,0-4.134,2.277,6.194,6.194,0,0,0-2.176,4.087,10.053,10.053,0,0,1,11.094.462,37.459,37.459,0,0,0-6.32.216,13.075,13.075,0,0,0-5.939,2.364,7.91,7.91,0,0,0-3.173,5.415,12.354,12.354,0,0,1,3.752-1.739,9.659,9.659,0,0,1,4.224-.2,6.741,6.741,0,0,1,3.691,1.986,22.085,22.085,0,0,0-9.942,1.329,7.349,7.349,0,0,0-2.362,1.366,4.487,4.487,0,0,0-1.153,4.592,18.389,18.389,0,0,1,3.622-1.8,7.642,7.642,0,0,1,4.077-.338,4.807,4.807,0,0,1,3.249,2.352,11.784,11.784,0,0,0-10.528,1.914,4.415,4.415,0,0,0-1.537,1.958,5.425,5.425,0,0,0,.124,2.863,15.141,15.141,0,0,1,5.456-1.964,7.4,7.4,0,0,1,5.422,1.457,16.07,16.07,0,0,0-7.325,1.168,6.521,6.521,0,0,0-1.828,1.05,2.987,2.987,0,0,0-1.044,1.79,1.96,1.96,0,0,0,.749,1.866,23.866,23.866,0,0,1,4.7-1.891,7.721,7.721,0,0,1,4.883.122,26.82,26.82,0,0,0-6.68,2.839,4.73,4.73,0,0,0-1.88,1.751,1.84,1.84,0,0,0,.443,2.334c.741.477,1.8-.3,2.565-.744a13.187,13.187,0,0,0,2.085-1.618l6.116-5.441a4.948,4.948,0,0,0-1.305-2.7,4.6,4.6,0,0,0,.966-2.682c.093-.691.338-1.322.474-2a.445.445,0,0,1,.056-.329c-.015.111-.034.221-.056.329a.6.6,0,0,0,.315.419.9.9,0,0,0,.853-.1,2.616,2.616,0,0,0,.624-.638c.464-.594.911-1.248,1.376-1.843a12.143,12.143,0,0,0,.455,2.271c.344-.39.7-.765,1.066-1.136a9.861,9.861,0,0,1,9.26-3.6q2.926.1,5.837.425a20.36,20.36,0,0,1-6.2,1.62,4.712,4.712,0,0,1,2.284,2.9c-1.66-1.3-3.9-2.271-5.922-1.661-1.812.548-3.105,2.1-4.289,3.578a7.035,7.035,0,0,1,5.174,1.76,16.641,16.641,0,0,1,3.437,4.445,5.6,5.6,0,0,1,.7,1.586,2.038,2.038,0,0,1-.284,1.664,2.129,2.129,0,0,0,2.119-1.031,4.8,4.8,0,0,0,.676-2.473,11.055,11.055,0,0,0-.91-4.923,5.314,5.314,0,0,1,2.621,3.937,14.718,14.718,0,0,0,4.047-7.076,16.31,16.31,0,0,1-1.586,8.019,3.748,3.748,0,0,0,2.721-1.84,8.974,8.974,0,0,0,1.007-3.141,40.892,40.892,0,0,0,.558-9.037c.357.089.449.39.6.726a34.841,34.841,0,0,1,1.35,3.529c.594-1.472,1.521-3.048,2.114-4.521q1.269-3.15,2.541-6.3a17.153,17.153,0,0,1-.22,7.591,9.619,9.619,0,0,1,5.6-5.375,12.208,12.208,0,0,1,1.611,2.589,4.15,4.15,0,0,1,.04,2.994,8.634,8.634,0,0,1-1.5,2.018,10.953,10.953,0,0,0-2.482,7.909,17.528,17.528,0,0,0,2.165,7.318c.915,1.556,2.1,2.944,2.956,4.537a6.591,6.591,0,0,1,.737,5.208c-.588-.893-1.187-1.837-1.76-2.742q-2.368-3.745-4.533-7.613a26.664,26.664,0,0,1-1.936-4.024,10.1,10.1,0,0,1-.629-4.388c.373-3.6,1.063-7.424,2.856-10.574a29.176,29.176,0,0,0-3.488,7.619,20.248,20.248,0,0,0-.833,5.4,12.463,12.463,0,0,0,1.093,5.323,41.205,41.205,0,0,0,5.063,8.083c1.571,1.993,3.367,3.978,3.876,6.463a26.923,26.923,0,0,0,10.569-5.717c5.205-4.5,8.527-10.736,12.489-16.365,3.011-4.276,6.59-8.377,11.33-10.587-4.442-9.441-10.752-18.125-19.126-24.35Z" transform="translate(144.854 4552.441)" fill="#542104"/>
    <path id="Path_3391" data-name="Path 3391" d="M384.146,165.846c-2.776-2.064-5.927-3.966-9.387-3.994-2.67-.022-5.208,1.079-7.61,2.243s-4.822,2.432-7.468,2.786-5.587-.25-7.113-2.441a15.047,15.047,0,0,0,7.5.647c-1.446-.766-2.723-1.666-4.168-2.432-2.61-1.385-5.345-2.8-8.3-2.869-3.22-.072-6.25,1.48-8.941,3.253,2.211-.372,4.574-.747,6.7-.044a7.022,7.022,0,0,1,4.126,3.684c-1.841-1.629-4.539-1.776-7-1.784a26.729,26.729,0,0,0-8.068,1.034,14.191,14.191,0,0,0-6.778,4.347,12.271,12.271,0,0,1,7.21-.224,4.951,4.951,0,0,1,1.844.814,2.28,2.28,0,0,1,.935,1.725,10.434,10.434,0,0,0-5.169-1.153,16.962,16.962,0,0,0-5.111,1.087,12.526,12.526,0,0,0-4.134,2.277,6.194,6.194,0,0,0-2.176,4.087,10.053,10.053,0,0,1,11.094.462,37.459,37.459,0,0,0-6.32.216,13.075,13.075,0,0,0-5.939,2.364,7.91,7.91,0,0,0-3.173,5.415,12.354,12.354,0,0,1,3.752-1.739,9.659,9.659,0,0,1,4.224-.2,6.741,6.741,0,0,1,3.691,1.986,22.085,22.085,0,0,0-9.942,1.329,7.349,7.349,0,0,0-2.362,1.366,4.487,4.487,0,0,0-1.153,4.592,18.389,18.389,0,0,1,3.622-1.8,7.642,7.642,0,0,1,4.077-.338,4.807,4.807,0,0,1,3.249,2.352,11.784,11.784,0,0,0-10.528,1.914,4.415,4.415,0,0,0-1.537,1.958,5.425,5.425,0,0,0,.124,2.863,15.141,15.141,0,0,1,5.456-1.964,7.4,7.4,0,0,1,5.422,1.457,16.07,16.07,0,0,0-7.325,1.168,6.521,6.521,0,0,0-1.828,1.05,2.987,2.987,0,0,0-1.044,1.79,1.96,1.96,0,0,0,.749,1.866,23.866,23.866,0,0,1,4.7-1.891,7.721,7.721,0,0,1,4.883.122,26.82,26.82,0,0,0-6.68,2.839,4.73,4.73,0,0,0-1.88,1.751,1.84,1.84,0,0,0,.443,2.334c.741.477,1.8-.3,2.565-.744a13.187,13.187,0,0,0,2.085-1.618l6.116-5.441a4.948,4.948,0,0,0-1.305-2.7,4.6,4.6,0,0,0,.966-2.682c.093-.691.338-1.322.474-2a.445.445,0,0,1,.056-.329c-.015.111-.034.221-.056.329a.6.6,0,0,0,.315.419.9.9,0,0,0,.853-.1,2.616,2.616,0,0,0,.624-.638c.464-.594.911-1.248,1.376-1.843a12.143,12.143,0,0,0,.455,2.271c.344-.39.7-.765,1.066-1.136a9.861,9.861,0,0,1,9.26-3.6q2.926.1,5.837.425-.326.135-.659.263a.542.542,0,0,1,.226.266c.126.353-.2.7-.505.91a6.552,6.552,0,0,1-1.409.735,6.811,6.811,0,0,1-2.611.425,5.166,5.166,0,0,1,1.042,1.921c-1.66-1.3-3.9-2.271-5.922-1.661-1.812.548-3.105,2.1-4.289,3.578a7.035,7.035,0,0,1,5.174,1.76,16.645,16.645,0,0,1,3.438,4.445,5.6,5.6,0,0,1,.7,1.586c0,.018.006.036.009.053a5.148,5.148,0,0,0,2.436-3.685,11.065,11.065,0,0,0-.843-3.129,5.088,5.088,0,0,1,1.584,1.4,5.364,5.364,0,0,0,.79-.328,12.294,12.294,0,0,0,3.928-2.965c.14-.409.264-.824.368-1.242.012.263.015.526.016.787a9.26,9.26,0,0,0,1.8-7.745,4.335,4.335,0,0,0,3.613-2.585,3.914,3.914,0,0,0-.876-4.112,19.771,19.771,0,0,0,1.042-5.271,10.709,10.709,0,0,0-9.4-5.564,12.283,12.283,0,0,1,7.61-.9,12.49,12.49,0,0,1,6.606,4.01,3.11,3.11,0,0,1,2.138,1.632,9.768,9.768,0,0,1,.647,3.262,3.434,3.434,0,0,0,1.589,2.785c0,1.144.009,2.339.015,3.517a10.8,10.8,0,0,1,1.5,2.431,5.11,5.11,0,0,1,.272,1.131,8.461,8.461,0,0,1,.859,3.039,34.729,34.729,0,0,1-.273,5.679,21.61,21.61,0,0,0,5.121,15.17,4.97,4.97,0,0,0,2.425,1.772c1.394.343,2.8-.412,4.034-1.14l4.091-2.407c2.971-3.7,5.41-7.9,8.157-11.8,3.011-4.276,6.59-8.376,11.33-10.587-4.442-9.441-10.752-18.125-19.126-24.35Z" transform="translate(144.854 4552.441)" fill="#542104"/>
    <path id="Path_3392" data-name="Path 3392" d="M392.77,199.643q1-2.3,2-4.6c1.2-2.764,2.429-5.658,2.247-8.666a16.973,16.973,0,0,0-1.773-5.923,70.86,70.86,0,0,0-5.367-9.677,53.458,53.458,0,0,0-5.722-4.933c-2.776-2.064-5.927-3.966-9.387-3.994-2.67-.022-5.208,1.079-7.61,2.243s-4.823,2.432-7.469,2.786-5.587-.25-7.113-2.441a15.045,15.045,0,0,0,7.5.647c-1.446-.766-2.723-1.666-4.168-2.432-2.611-1.385-5.345-2.8-8.3-2.869-3.22-.072-6.25,1.479-8.941,3.253,2.21-.372,4.574-.747,6.7-.044a7.023,7.023,0,0,1,4.126,3.684c-1.841-1.629-4.539-1.776-7-1.784a26.731,26.731,0,0,0-8.068,1.034,14.192,14.192,0,0,0-6.777,4.347,12.271,12.271,0,0,1,7.21-.224,4.95,4.95,0,0,1,1.844.814,2.28,2.28,0,0,1,.935,1.725,10.434,10.434,0,0,0-5.169-1.153,16.96,16.96,0,0,0-5.11,1.087,12.523,12.523,0,0,0-4.134,2.277,6.194,6.194,0,0,0-2.176,4.087,10.053,10.053,0,0,1,11.093.462,37.445,37.445,0,0,0-6.32.216,13.073,13.073,0,0,0-5.939,2.364,7.91,7.91,0,0,0-3.173,5.415,12.357,12.357,0,0,1,3.752-1.739,9.657,9.657,0,0,1,4.224-.2,6.74,6.74,0,0,1,3.691,1.986,22.083,22.083,0,0,0-9.942,1.329,7.346,7.346,0,0,0-2.362,1.366,4.487,4.487,0,0,0-1.153,4.592,18.38,18.38,0,0,1,3.622-1.8,7.64,7.64,0,0,1,4.077-.338,4.808,4.808,0,0,1,3.249,2.352,11.784,11.784,0,0,0-10.528,1.914,4.412,4.412,0,0,0-1.537,1.958,5.425,5.425,0,0,0,.124,2.863,15.138,15.138,0,0,1,5.456-1.964,7.4,7.4,0,0,1,5.422,1.457,16.069,16.069,0,0,0-7.325,1.168,6.52,6.52,0,0,0-1.828,1.05,2.985,2.985,0,0,0-1.044,1.79,1.96,1.96,0,0,0,.749,1.866,23.871,23.871,0,0,1,4.7-1.892,7.722,7.722,0,0,1,4.883.123,26.818,26.818,0,0,0-6.68,2.839,4.729,4.729,0,0,0-1.88,1.751,1.84,1.84,0,0,0,.443,2.334c.741.477,1.8-.3,2.565-.744a13.191,13.191,0,0,0,2.085-1.618l6.116-5.441a4.948,4.948,0,0,0-1.305-2.7,4.6,4.6,0,0,0,.966-2.681c.093-.691.338-1.322.474-2a.444.444,0,0,1,.056-.329c-.015.111-.034.221-.056.329a.6.6,0,0,0,.315.419.9.9,0,0,0,.854-.1,2.616,2.616,0,0,0,.624-.638c.464-.594.911-1.248,1.376-1.843a12.142,12.142,0,0,0,.455,2.271c.344-.39.7-.765,1.066-1.136a9.861,9.861,0,0,1,9.26-3.6q2.926.1,5.837.425-.326.135-.658.263a.543.543,0,0,1,.226.266c.126.353-.2.7-.5.91a6.557,6.557,0,0,1-1.409.735,6.81,6.81,0,0,1-2.611.425,5.165,5.165,0,0,1,1.042,1.921c-1.66-1.3-3.9-2.271-5.922-1.661-1.812.548-3.105,2.1-4.289,3.578a7.035,7.035,0,0,1,5.174,1.76A16.641,16.641,0,0,1,342,205.4a5.6,5.6,0,0,1,.7,1.586c0,.018.006.035.009.053a5.149,5.149,0,0,0,2.436-3.685,11.066,11.066,0,0,0-.843-3.129,5.092,5.092,0,0,1,1.584,1.4,5.376,5.376,0,0,0,.79-.328,12.293,12.293,0,0,0,3.927-2.965c.14-.409.264-.824.368-1.242.012.263.015.526.016.787a9.259,9.259,0,0,0,1.8-7.745,4.334,4.334,0,0,0,3.613-2.585,3.913,3.913,0,0,0-.876-4.112,19.763,19.763,0,0,0,1.043-5.271,10.709,10.709,0,0,0-9.4-5.564,12.284,12.284,0,0,1,7.61-.9,12.493,12.493,0,0,1,6.606,4.01,3.11,3.11,0,0,1,2.138,1.632,9.765,9.765,0,0,1,.647,3.262,3.435,3.435,0,0,0,1.589,2.785c0,1.144.009,2.339.015,3.517a10.806,10.806,0,0,1,1.5,2.43,5.108,5.108,0,0,1,.272,1.131,8.461,8.461,0,0,1,.86,3.039,34.733,34.733,0,0,1-.273,5.679,21.61,21.61,0,0,0,5.121,15.17,4.969,4.969,0,0,0,2.424,1.772c1.394.343,2.8-.412,4.034-1.14l4.091-2.407c2.971-3.7,5.41-7.9,8.157-11.8.269-.381.542-.762.82-1.138Z" transform="translate(144.846 4552.441)" fill="#542104"/>
    <path id="Path_3393" data-name="Path 3393" d="M352.578,164.44a15.045,15.045,0,0,0,7.5.647c-1.446-.766-2.723-1.666-4.168-2.432-2.611-1.385-5.345-2.8-8.3-2.869-3.22-.072-6.25,1.479-8.941,3.253,2.21-.372,4.574-.747,6.7-.044a7.023,7.023,0,0,1,4.126,3.684c-1.841-1.629-4.539-1.776-7-1.784a26.731,26.731,0,0,0-8.068,1.034,14.192,14.192,0,0,0-6.777,4.347,12.271,12.271,0,0,1,7.21-.224,4.95,4.95,0,0,1,1.844.814,2.28,2.28,0,0,1,.935,1.725,10.434,10.434,0,0,0-5.169-1.153,16.96,16.96,0,0,0-5.11,1.087,12.523,12.523,0,0,0-4.134,2.277,6.194,6.194,0,0,0-2.176,4.087,10.053,10.053,0,0,1,11.093.462,37.445,37.445,0,0,0-6.32.216,13.073,13.073,0,0,0-5.939,2.364,7.91,7.91,0,0,0-3.173,5.415,12.357,12.357,0,0,1,3.752-1.739,9.657,9.657,0,0,1,4.224-.2,6.74,6.74,0,0,1,3.691,1.986,22.083,22.083,0,0,0-9.942,1.329,7.346,7.346,0,0,0-2.362,1.366,4.487,4.487,0,0,0-1.153,4.592,18.46,18.46,0,0,1,3.622-1.8,7.64,7.64,0,0,1,4.077-.338,4.808,4.808,0,0,1,3.249,2.352,11.784,11.784,0,0,0-10.528,1.914,4.412,4.412,0,0,0-1.537,1.958,5.425,5.425,0,0,0,.124,2.863,15.138,15.138,0,0,1,5.456-1.964,7.4,7.4,0,0,1,5.422,1.457,16.069,16.069,0,0,0-7.325,1.168,6.52,6.52,0,0,0-1.828,1.05,2.979,2.979,0,0,0-1.044,1.79,1.96,1.96,0,0,0,.749,1.866,23.871,23.871,0,0,1,4.7-1.892,7.722,7.722,0,0,1,4.883.123,26.818,26.818,0,0,0-6.68,2.839,4.729,4.729,0,0,0-1.88,1.751,1.84,1.84,0,0,0,.443,2.334c.741.477,1.8-.3,2.565-.744a13.191,13.191,0,0,0,2.085-1.618l7.486-6.659a6.535,6.535,0,0,1,.9-4.012,15.69,15.69,0,0,1,2.556-3.173,9.86,9.86,0,0,1,9.259-3.6q2.926.1,5.837.425a20.357,20.357,0,0,1-6.2,1.62,4.712,4.712,0,0,1,2.284,2.9c-1.66-1.3-3.9-2.271-5.923-1.661-1.812.548-3.105,2.1-4.289,3.578a7.035,7.035,0,0,1,5.174,1.76,16.644,16.644,0,0,1,3.438,4.445,5.607,5.607,0,0,1,.7,1.586,2.046,2.046,0,0,1-.284,1.664,2.129,2.129,0,0,0,2.119-1.031,4.8,4.8,0,0,0,.676-2.473,11.051,11.051,0,0,0-.909-4.923,5.313,5.313,0,0,1,2.621,3.937,14.716,14.716,0,0,0,4.047-7.076,16.3,16.3,0,0,1-1.586,8.019,3.748,3.748,0,0,0,2.721-1.84,9,9,0,0,0,1.007-3.141,40.889,40.889,0,0,0,.558-9.037c.357.089.449.39.6.726a34.813,34.813,0,0,1,1.35,3.529c.593-1.472,1.521-3.048,2.114-4.521q1.269-3.15,2.541-6.3a17.152,17.152,0,0,1-.22,7.591,9.619,9.619,0,0,1,5.6-5.375,12.21,12.21,0,0,1,1.611,2.588,4.151,4.151,0,0,1,.04,2.994,8.629,8.629,0,0,1-1.5,2.018,10.953,10.953,0,0,0-2.482,7.908,17.527,17.527,0,0,0,2.165,7.318c.915,1.556,2.1,2.944,2.956,4.537a6.591,6.591,0,0,1,.737,5.208c-.588-.893-1.187-1.837-1.76-2.742q-2.368-3.745-4.533-7.613a26.642,26.642,0,0,1-1.936-4.024,10.092,10.092,0,0,1-.629-4.388c.374-3.6,1.063-7.424,2.856-10.574a29.175,29.175,0,0,0-3.488,7.619,20.253,20.253,0,0,0-.833,5.4,12.461,12.461,0,0,0,1.093,5.323,41.2,41.2,0,0,0,5.063,8.083c1.571,1.993,3.367,3.978,3.876,6.463a26.92,26.92,0,0,0,10.569-5.717c5.205-4.505,8.527-10.736,12.489-16.365,3.011-4.276,6.59-8.377,11.33-10.587-4.441-9.441-10.752-18.125-19.126-24.35-2.776-2.064-5.927-3.966-9.387-3.994-2.669-.022-5.208,1.079-7.61,2.243s-4.822,2.432-7.469,2.786-5.587-.25-7.113-2.441Z" transform="translate(144.846 4552.441)" fill="#542104"/>
    <path id="Path_3394" data-name="Path 3394" d="M384.146,165.846c-2.776-2.064-5.927-3.966-9.387-3.994-2.67-.022-5.208,1.079-7.61,2.243s-4.822,2.432-7.468,2.786-5.587-.25-7.113-2.441a15.047,15.047,0,0,0,7.5.647c-1.446-.766-2.723-1.666-4.168-2.432-2.61-1.385-5.345-2.8-8.3-2.869-3.22-.072-6.25,1.48-8.941,3.253,2.211-.372,4.574-.747,6.7-.044a7.022,7.022,0,0,1,4.126,3.684c-1.841-1.629-4.539-1.776-7-1.784a26.729,26.729,0,0,0-8.068,1.034,14.191,14.191,0,0,0-6.778,4.347,12.271,12.271,0,0,1,7.21-.224,4.951,4.951,0,0,1,1.844.814,2.28,2.28,0,0,1,.935,1.725,10.434,10.434,0,0,0-5.169-1.153,16.962,16.962,0,0,0-5.111,1.087,12.526,12.526,0,0,0-4.134,2.277,6.194,6.194,0,0,0-2.176,4.087,10.053,10.053,0,0,1,11.094.462,37.459,37.459,0,0,0-6.32.216,13.075,13.075,0,0,0-5.939,2.364,7.91,7.91,0,0,0-3.173,5.415,12.354,12.354,0,0,1,3.752-1.739,9.659,9.659,0,0,1,4.224-.2,6.741,6.741,0,0,1,3.691,1.986,22.085,22.085,0,0,0-9.942,1.329,7.349,7.349,0,0,0-2.362,1.366,4.487,4.487,0,0,0-1.153,4.592,18.389,18.389,0,0,1,3.622-1.8,7.642,7.642,0,0,1,4.077-.338,4.807,4.807,0,0,1,3.249,2.352,11.784,11.784,0,0,0-10.528,1.914,4.415,4.415,0,0,0-1.537,1.958,5.425,5.425,0,0,0,.124,2.863,15.141,15.141,0,0,1,5.456-1.964,7.4,7.4,0,0,1,5.422,1.457,16.07,16.07,0,0,0-7.325,1.168,6.521,6.521,0,0,0-1.828,1.05,2.987,2.987,0,0,0-1.044,1.79,1.96,1.96,0,0,0,.749,1.866,23.866,23.866,0,0,1,4.7-1.891,7.721,7.721,0,0,1,4.883.122,26.82,26.82,0,0,0-6.68,2.839,4.73,4.73,0,0,0-1.88,1.751,1.84,1.84,0,0,0,.443,2.334c.741.477,1.8-.3,2.565-.744a13.187,13.187,0,0,0,2.085-1.618l6.116-5.441a4.948,4.948,0,0,0-1.305-2.7,4.6,4.6,0,0,0,.966-2.682c.093-.691.338-1.322.474-2a.445.445,0,0,1,.056-.329c-.015.111-.034.221-.056.329a.6.6,0,0,0,.315.419.9.9,0,0,0,.853-.1,2.616,2.616,0,0,0,.624-.638c.464-.594.911-1.248,1.376-1.843a12.143,12.143,0,0,0,.455,2.271c.344-.39.7-.765,1.066-1.136a9.861,9.861,0,0,1,9.26-3.6q2.926.1,5.837.425-.326.135-.659.263a.542.542,0,0,1,.226.266c.126.353-.2.7-.505.91a6.552,6.552,0,0,1-1.409.735,6.811,6.811,0,0,1-2.611.425,5.166,5.166,0,0,1,1.042,1.921c-1.66-1.3-3.9-2.271-5.922-1.661-1.812.548-3.105,2.1-4.289,3.578a7.035,7.035,0,0,1,5.174,1.76,16.645,16.645,0,0,1,3.438,4.445,5.6,5.6,0,0,1,.7,1.586,2.038,2.038,0,0,1-.284,1.664,2.129,2.129,0,0,0,2.119-1.031,4.8,4.8,0,0,0,.676-2.473,11.055,11.055,0,0,0-.91-4.923,5.314,5.314,0,0,1,2.621,3.937,14.718,14.718,0,0,0,4.047-7.076,16.31,16.31,0,0,1-1.586,8.019,3.748,3.748,0,0,0,2.721-1.84,8.973,8.973,0,0,0,1.007-3.141,40.885,40.885,0,0,0,.558-9.037c.357.089.449.39.6.726a34.841,34.841,0,0,1,1.35,3.529c.594-1.472,1.521-3.048,2.114-4.521q1.269-3.15,2.541-6.3a17.151,17.151,0,0,1-.22,7.591,9.619,9.619,0,0,1,5.6-5.375,12.208,12.208,0,0,1,1.611,2.589,4.149,4.149,0,0,1,.04,2.994,8.634,8.634,0,0,1-1.5,2.018,10.953,10.953,0,0,0-2.482,7.909,17.528,17.528,0,0,0,2.165,7.318c.915,1.556,2.1,2.944,2.956,4.537a6.591,6.591,0,0,1,.737,5.208c-.588-.893-1.187-1.837-1.76-2.742q-2.368-3.745-4.533-7.613a26.664,26.664,0,0,1-1.936-4.024,10.1,10.1,0,0,1-.629-4.388c.373-3.6,1.063-7.424,2.856-10.574a29.176,29.176,0,0,0-3.488,7.619,20.248,20.248,0,0,0-.833,5.4,12.463,12.463,0,0,0,1.093,5.323,41.205,41.205,0,0,0,5.063,8.083c1.571,1.993,3.367,3.978,3.876,6.463a26.922,26.922,0,0,0,10.569-5.717c5.205-4.5,8.527-10.736,12.489-16.365,3.011-4.276,6.59-8.377,11.33-10.587-4.442-9.441-10.752-18.125-19.126-24.35Z" transform="translate(144.854 4552.441)" fill="#542104"/>
    <path id="Path_3395" data-name="Path 3395" d="M397.018,186.369a16.974,16.974,0,0,0-1.773-5.923,70.858,70.858,0,0,0-5.367-9.677,53.46,53.46,0,0,0-5.722-4.933c-2.776-2.064-5.927-3.966-9.387-3.994-2.67-.022-5.208,1.079-7.61,2.243s-4.823,2.432-7.469,2.786-5.587-.25-7.113-2.441a15.046,15.046,0,0,0,4.329.839,4.786,4.786,0,0,0-.741-.825l-3.752-3.513a13.168,13.168,0,0,0-4.808-1.155c-3.22-.072-6.25,1.48-8.941,3.253,2.21-.372,4.574-.747,6.7-.044a7.023,7.023,0,0,1,4.126,3.684c-1.841-1.629-4.539-1.776-7-1.784a26.728,26.728,0,0,0-8.068,1.034,14.193,14.193,0,0,0-6.777,4.347,12.271,12.271,0,0,1,7.21-.224,4.952,4.952,0,0,1,1.844.814,2.28,2.28,0,0,1,.935,1.725,10.433,10.433,0,0,0-5.169-1.153,16.964,16.964,0,0,0-5.11,1.087,12.527,12.527,0,0,0-4.134,2.277,6.2,6.2,0,0,0-2.176,4.087,10.053,10.053,0,0,1,11.093.462,37.448,37.448,0,0,0-6.32.216,13.073,13.073,0,0,0-5.939,2.364,7.91,7.91,0,0,0-3.173,5.415,12.355,12.355,0,0,1,3.752-1.739,9.657,9.657,0,0,1,4.224-.2,6.74,6.74,0,0,1,3.691,1.986,22.083,22.083,0,0,0-9.942,1.329,7.343,7.343,0,0,0-2.362,1.366,4.487,4.487,0,0,0-1.153,4.592,18.378,18.378,0,0,1,3.622-1.8,7.643,7.643,0,0,1,4.077-.338,4.808,4.808,0,0,1,3.249,2.352,11.784,11.784,0,0,0-10.528,1.914,4.412,4.412,0,0,0-1.537,1.958,5.425,5.425,0,0,0,.124,2.863,15.138,15.138,0,0,1,5.456-1.964,7.4,7.4,0,0,1,5.422,1.457,16.069,16.069,0,0,0-7.325,1.168,6.521,6.521,0,0,0-1.828,1.05,2.985,2.985,0,0,0-1.044,1.79,1.96,1.96,0,0,0,.749,1.866,23.867,23.867,0,0,1,4.7-1.892,7.722,7.722,0,0,1,4.883.123,26.817,26.817,0,0,0-6.68,2.839,4.729,4.729,0,0,0-1.88,1.751,1.84,1.84,0,0,0,.443,2.334c.741.477,1.8-.3,2.565-.744a13.189,13.189,0,0,0,2.085-1.618l6.116-5.441a4.949,4.949,0,0,0-1.305-2.7,4.6,4.6,0,0,0,.966-2.681c.093-.691.338-1.322.474-2a.444.444,0,0,1,.056-.329c-.015.111-.034.221-.056.329a.6.6,0,0,0,.315.419.9.9,0,0,0,.854-.1,2.615,2.615,0,0,0,.624-.638c.464-.594.911-1.248,1.376-1.843a12.141,12.141,0,0,0,.455,2.271c.344-.39.7-.765,1.066-1.136a9.861,9.861,0,0,1,9.26-3.6q2.926.1,5.837.425c-.217.09-.437.177-.658.263a.543.543,0,0,1,.226.266c.126.353-.2.7-.5.91a6.556,6.556,0,0,1-1.409.735,6.811,6.811,0,0,1-2.611.425,5.165,5.165,0,0,1,1.042,1.921c-1.66-1.3-3.9-2.271-5.922-1.661-1.812.548-3.105,2.1-4.289,3.578a7.035,7.035,0,0,1,5.174,1.76A16.642,16.642,0,0,1,342,205.389a5.606,5.606,0,0,1,.7,1.586c0,.018.006.035.009.053a5.149,5.149,0,0,0,2.436-3.686,11.067,11.067,0,0,0-.843-3.129,5.092,5.092,0,0,1,1.584,1.4,5.371,5.371,0,0,0,.79-.328,12.292,12.292,0,0,0,3.927-2.965c.14-.409.264-.824.368-1.242.012.263.015.526.016.787a9.259,9.259,0,0,0,1.8-7.745,4.335,4.335,0,0,0,3.613-2.586,3.913,3.913,0,0,0-.876-4.112,19.763,19.763,0,0,0,1.043-5.271,10.709,10.709,0,0,0-9.4-5.564,12.284,12.284,0,0,1,7.61-.9,12.492,12.492,0,0,1,6.606,4.01,3.11,3.11,0,0,1,2.138,1.632,9.766,9.766,0,0,1,.647,3.262,3.435,3.435,0,0,0,1.589,2.785c0,1.144.009,2.339.015,3.517a10.806,10.806,0,0,1,1.5,2.43,5.108,5.108,0,0,1,.272,1.131,8.46,8.46,0,0,1,.86,3.039,34.734,34.734,0,0,1-.273,5.679,21.61,21.61,0,0,0,5.121,15.17,4.969,4.969,0,0,0,2.424,1.772c1.394.343,2.8-.412,4.034-1.14l4.091-2.407c2.971-3.7,5.41-7.9,8.157-11.8.269-.381.542-.762.82-1.138q1-2.3,2-4.6c1.2-2.764,2.429-5.658,2.247-8.666Z" transform="translate(144.846 4552.449)" fill="#a04f18"/>
    <path id="Path_3396" data-name="Path 3396" d="M426.347,298.82c-2.371.183-4.777.363-7.148.546,1.76.606,3.542,1.263,5.3,1.868a55.5,55.5,0,0,0-5.651,9.354q1.843-1.8,3.684-3.6c1.44-1.407,3.076-2.839,4.514-4.246a12.268,12.268,0,0,0,4.862,1.392,11.523,11.523,0,0,0,3.188-.592c2.125-.616,4.31-1.3,6.395-2.039a9.1,9.1,0,0,0-6.135-.337,8.849,8.849,0,0,1-2.627.644,6.048,6.048,0,0,1-3.25-1.369,17.539,17.539,0,0,0,3.161.016,5.927,5.927,0,0,0,2.934-1.084,3.588,3.588,0,0,0,1.469-2.686,17.136,17.136,0,0,0,3.727.75c-.623-.79-1.121-1.59-1.745-2.38a2.444,2.444,0,0,1,1.587-.053,3.977,3.977,0,0,1,2.305,1.707,4.21,4.21,0,0,0-2.184-3.059,7.449,7.449,0,0,0-3.805-.846,11.9,11.9,0,0,0-5.552,1.469,20.611,20.611,0,0,0-5.035,4.549Z" transform="translate(55.182 4439.063)"/>
    <path id="Path_3397" data-name="Path 3397" d="M451.26,247.961c2.131-.709,3.816-2.321,5.451-3.858s3.39-3.1,5.564-3.662a10.309,10.309,0,0,1,4.451,0,9.946,9.946,0,0,1,4.781,2.054,5.078,5.078,0,0,1,1.816,4.682,4.494,4.494,0,0,0,1.187-5.19,7.211,7.211,0,0,0-4.14-3.841c-3.635-1.453-7.907-.628-11.219,1.462a23.5,23.5,0,0,0-7.888,8.356Z" transform="translate(27.559 4486.273)"/>
    <path id="Path_3398" data-name="Path 3398" d="M632.184,206.447a4.068,4.068,0,0,0-1.754-6.309c.964-2.559,2.068-5.165,3.034-7.724,2.714-.994,5.36-2.061,8.074-3.054a11.761,11.761,0,0,1,5.066-1.04,10.271,10.271,0,0,1,4.933,2.277,40.453,40.453,0,0,1,13.943,18.63c-2.638-3.427-5.559-6.543-8.329-9.866a33.369,33.369,0,0,0-5.005-5.161,12,12,0,0,0-6.56-2.7,18.056,18.056,0,0,0-5.629.887,10.431,10.431,0,0,0-3.913,1.651,3.563,3.563,0,0,0-1.375,3.768,3.643,3.643,0,0,0,2.13,2.015,15.165,15.165,0,0,0,2.929.712,24.956,24.956,0,0,1,15.206,9.658,51.971,51.971,0,0,0-6.37-3.807,24.8,24.8,0,0,0-13.767-2.377A21.515,21.515,0,0,1,645.9,222.682c-.868-2.041-1.922-4.056-2.853-6.07a15.375,15.375,0,0,0-2.7-4.408,8.064,8.064,0,0,0-5.971-2.407c-.731-1.056-1.463-2.295-2.194-3.352Z" transform="translate(-125.156 4528.141)"/>
    <path id="Path_3399" data-name="Path 3399" d="M284.866,453l1.01-.586a5.43,5.43,0,0,0-1.511-3.393,4.86,4.86,0,0,0-3.2-1.452c-3.325,2.9-6.888,5.643-10.444,8.257a21.357,21.357,0,0,1-5.045,2.994,15.294,15.294,0,0,1-7.566.585,45.7,45.7,0,0,1-7.4-1.962,25.084,25.084,0,0,0,7.036,5.423,16.786,16.786,0,0,0,8.768,1.79,19.007,19.007,0,0,0,9.078-3.591,37.878,37.878,0,0,0,3.827-3.1c1.211-1.1,2.4-2.289,3.555-3.436-.037-.388.007-.716-.03-1.106a81.988,81.988,0,0,1-11.02,8.141,15.688,15.688,0,0,1-4.669,2.088,11.256,11.256,0,0,1-5.31-.27,27.193,27.193,0,0,1-4.958-2.032,14.64,14.64,0,0,0,14.2-1.112,29.469,29.469,0,0,0,3.327-2.658l7.566-6.671c-.117-.375-.143-.85-.261-1.226a5.579,5.579,0,0,1,1.335.462,3.709,3.709,0,0,1,1.255,1.075,2.747,2.747,0,0,1,.449,1.785Z" transform="translate(198.494 4307.148)" fill="#e7e7e9"/>
    <path id="Path_3400" data-name="Path 3400" d="M291.87,500.37a4.063,4.063,0,0,0,.75,2.391,16.044,16.044,0,0,1-4.65-.36,16.54,16.54,0,0,0,3.9-2.029Z" transform="translate(166.738 4262.145)" fill="#e7e7e9"/>
    <path id="Path_3401" data-name="Path 3401" d="M202.07,530.45a12.315,12.315,0,0,0,7.687-2.09,9.056,9.056,0,0,0,2.392,2.185,16.921,16.921,0,0,1-5.921,1.2,10.239,10.239,0,0,0,6.856.05,9.144,9.144,0,0,1-5.677,1.09,9.429,9.429,0,0,1-5.336-2.436Z" transform="translate(239.953 4238.287)" fill="#e7e7e9"/>
    <path id="Path_3402" data-name="Path 3402" d="M399.333,511.55a53.074,53.074,0,0,1-14.2,9.1,7.983,7.983,0,0,0,4.837-.334,22.827,22.827,0,0,0,4.26-2.272,2.529,2.529,0,0,1-.895,1.829,13.538,13.538,0,0,1-4.387,2.854c1.035,1.462,3.24,1.7,4.973,1.246a13.127,13.127,0,0,0,4.614-2.677,7.008,7.008,0,0,1-2.873,4.092,8.855,8.855,0,0,0,9.468-2.938,6.781,6.781,0,0,1-1.246,3.138,53.106,53.106,0,0,0,8.1-3.9c-.331.75-.638,1.5-.967,2.253a11.7,11.7,0,0,0,3.979-.261,5.946,5.946,0,0,0,4.06-3.751,7.729,7.729,0,0,1-1.719,4.7,4.042,4.042,0,0,0,1.618,1.713,1.424,1.424,0,0,0,1.267.062,1.723,1.723,0,0,0,.543-.611l1.129-1.781a4.584,4.584,0,0,1-.477-3.578c.236-1.178.694-2.312.818-3.507a3.552,3.552,0,0,0-1.128-3.253c-1.045-.777-2.494-.583-3.776-.353.1.572.041,1.168.139,1.74a8.809,8.809,0,0,0-8.111-1.77,5.212,5.212,0,0,1,1.228,4.926,15.178,15.178,0,0,0-3.715-3.858,11.207,11.207,0,0,1-.92,5.859,11.42,11.42,0,0,0-3.554-7.874c-.32.854-.754,1.753-1.122,2.587a5.258,5.258,0,0,1-.843,1.448,1.9,1.9,0,0,1-1.477.682,13.146,13.146,0,0,0,.376-5.506Z" transform="translate(83.922 4252.615)" fill="#a04f18"/>
    <path id="Path_3403" data-name="Path 3403" d="M285.876,455.263a5.429,5.429,0,0,0-1.511-3.393,4.825,4.825,0,0,0-1.33-.96q-5.823,5.242-12.139,9.9a18.046,18.046,0,0,1-5.415,3.048c-3.2.947-6.651.156-9.81-.923a11.857,11.857,0,0,1-3.04-1.41,5.657,5.657,0,0,1-1.041-.945q-.441-.142-.88-.286a25.076,25.076,0,0,0,7.036,5.423,16.785,16.785,0,0,0,8.768,1.79,19.006,19.006,0,0,0,9.078-3.591,37.814,37.814,0,0,0,3.827-3.1c1.211-1.1,2.4-2.289,3.556-3.436-.037-.388.007-.716-.03-1.106a81.991,81.991,0,0,1-11.019,8.14,15.691,15.691,0,0,1-4.669,2.088,11.256,11.256,0,0,1-5.31-.27,27.2,27.2,0,0,1-4.958-2.032,14.641,14.641,0,0,0,14.2-1.112,29.473,29.473,0,0,0,3.327-2.658l7.566-6.671c-.117-.375-.143-.85-.261-1.226a5.573,5.573,0,0,1,1.335.462,3.708,3.708,0,0,1,1.255,1.075,2.747,2.747,0,0,1,.449,1.785l1.01-.586Z" transform="translate(198.494 4304.301)" fill="#bbbcc0"/>
    <path id="Path_3404" data-name="Path 3404" d="M206.235,539.833a16.991,16.991,0,0,0,5.921-1.2,6.558,6.558,0,0,1-1.073-.784,2.732,2.732,0,0,1-.91.44,12.906,12.906,0,0,1-3.427.85,6.63,6.63,0,0,1-3.835-.577c-.279,0-.558-.006-.831-.025a9.424,9.424,0,0,0,5.336,2.437,9.16,9.16,0,0,0,5.677-1.091,10.252,10.252,0,0,1-6.856-.05Z" transform="translate(239.943 4230.199)" fill="#bbbcc0"/>
    <g id="Group_1322" data-name="Group 1322" transform="translate(472.871 4764.168)">
      <path id="Path_3405" data-name="Path 3405" d="M411.927,584.35c-.31.154-.625.3-.946.428,1.035,1.462,3.239,1.7,4.973,1.246a7.171,7.171,0,0,0,.7-.223,7.389,7.389,0,0,1-4.728-1.451Z" transform="translate(-410.98 -573.603)" fill="#542104"/>
      <path id="Path_3406" data-name="Path 3406" d="M458.164,594.32a6.444,6.444,0,0,1-1.694,1.615,8.888,8.888,0,0,0,7.133-.885,12.151,12.151,0,0,1-5.438-.73Z" transform="translate(-449.753 -582.102)" fill="#542104"/>
      <path id="Path_3407" data-name="Path 3407" d="M478.394,516.943a3.552,3.552,0,0,0-1.128-3.253c-1.045-.777-2.494-.584-3.775-.353.1.571.041,1.168.139,1.739a8.809,8.809,0,0,0-8.111-1.771,5.213,5.213,0,0,1,1.229,4.926,15.177,15.177,0,0,0-3.715-3.858,11.209,11.209,0,0,1-.92,5.859,11.42,11.42,0,0,0-3.554-7.874c-.32.854-.755,1.753-1.122,2.587a5.263,5.263,0,0,1-.843,1.449,1.9,1.9,0,0,1-1.477.682,13.15,13.15,0,0,0,.376-5.506,52.979,52.979,0,0,1-4.472,3.579,3.843,3.843,0,0,1,2.328,1.722c.359.614.6,1.391,1.259,1.668a2.191,2.191,0,0,0,1.759-.267,3.026,3.026,0,0,1,1.739-.483c.775.126,1.277.863,1.664,1.547s.824,1.441,1.577,1.664a2.4,2.4,0,0,0,1.915-.451,10.988,10.988,0,0,1,1.71-1.089,5.987,5.987,0,0,1,3.316-.111,4.366,4.366,0,0,1,1.773-2.2,2.844,2.844,0,0,1,1.561-.211,1.677,1.677,0,0,1,1.271.662,1.992,1.992,0,0,1-.053,1.688,7.043,7.043,0,0,1-.93,1.877,3.183,3.183,0,0,1-1.669,1.215,4.96,4.96,0,0,1-.979.13l-1.512.1c-.19.449-.381.9-.577,1.345a11.691,11.691,0,0,0,3.979-.261,5.944,5.944,0,0,0,4.06-3.751,7.73,7.73,0,0,1-1.718,4.7,4.042,4.042,0,0,0,1.618,1.713,1.424,1.424,0,0,0,1.267.062,1.722,1.722,0,0,0,.543-.611l1.13-1.781a4.585,4.585,0,0,1-.477-3.578c.236-1.178.694-2.312.818-3.507Z" transform="translate(-445.108 -511.57)" fill="#542104"/>
      <path id="Path_3408" data-name="Path 3408" d="M512.887,596.753a5.2,5.2,0,0,1-.747,1.308c1.168-.48,2.33-.964,3.476-1.481C514.7,596.642,513.8,596.67,512.887,596.753Z" transform="translate(-497.203 -584.028)" fill="#542104"/>
    </g>
    <g id="Group_1323" data-name="Group 1323" transform="translate(484.664 4733.958)">
      <path id="Path_3409" data-name="Path 3409" d="M500.607,319.833c.066-.057.136-.111.2-.165a16.011,16.011,0,0,1-2.4-.577,3.589,3.589,0,0,1-1.469,2.686,5.926,5.926,0,0,1-2.934,1.084,17.521,17.521,0,0,1-3.161-.016,6.036,6.036,0,0,0,3.25,1.369,8.893,8.893,0,0,0,2.627-.644,8.992,8.992,0,0,1,2.65-.376,2.482,2.482,0,0,1-.028-1.556,4.025,4.025,0,0,1,1.257-1.8Z" transform="translate(-490.85 -317.301)" fill="#542104"/>
      <path id="Path_3410" data-name="Path 3410" d="M557.107,307.081a2.454,2.454,0,0,0-1.587.053c.436.551.809,1.108,1.208,1.663a6.446,6.446,0,0,1,2.062-.762A3.955,3.955,0,0,0,557.107,307.081Z" transform="translate(-545.971 -306.976)" fill="#542104"/>
    </g>
    <path id="Path_3411" data-name="Path 3411" d="M340.8,481.4a10.376,10.376,0,0,1-2.054,2.571,12.3,12.3,0,0,1-2.094,1.317,1.151,1.151,0,0,1-1.019.214.767.767,0,0,1-.308-.945,2,2,0,0,1,.69-.828A13.265,13.265,0,0,1,340.8,481.4Z" transform="translate(126.418 4278.313)" fill="#ed892e"/>
    <path id="Path_3412" data-name="Path 3412" d="M330.266,444.971a1.942,1.942,0,0,0-1.627,2.407,26.279,26.279,0,0,0-3.916,1.835,2.085,2.085,0,0,1,.238-2.524,4.116,4.116,0,0,1,1.487-.806l1.886-.707a5.223,5.223,0,0,1,.979-.3,1.564,1.564,0,0,1,.954.093Z" transform="translate(135.68 4309.467)" fill="#ed892e"/>
    <path id="Path_3413" data-name="Path 3413" d="M318.629,405.237a9.9,9.9,0,0,1,4.743-1.46,3.089,3.089,0,0,1,3.17-3.51,9.62,9.62,0,0,0-5.959,1.392,5.144,5.144,0,0,0-1.549,1.441,2.921,2.921,0,0,0-.406,2.135Z" transform="translate(140.656 4347.494)" fill="#ed892e"/>
    <path id="Path_3414" data-name="Path 3414" d="M334.375,352.68a4.217,4.217,0,0,0-1.906,3.26,25.163,25.163,0,0,0-4.383.893,4.174,4.174,0,0,0-1.9,1.006,6.29,6.29,0,0,1,.613-1.933,5.14,5.14,0,0,1,2.166-1.813A14.032,14.032,0,0,1,334.375,352.68Z" transform="translate(134.162 4388.027)" fill="#ed892e"/>
    <path id="Path_3415" data-name="Path 3415" d="M352.483,299.119a4.829,4.829,0,0,0-3.721,4.029,12.131,12.131,0,0,0-7.052,1.651,6.51,6.51,0,0,1,2.275-3.387,11.349,11.349,0,0,1,8.5-2.293Z" transform="translate(120.932 4433.76)" fill="#ed892e"/>
    <path id="Path_3416" data-name="Path 3416" d="M383.374,243.2a5.7,5.7,0,0,0-4.233,4.927,11.038,11.038,0,0,0-8.021.34,12.438,12.438,0,0,1,5.394-4.47A12.111,12.111,0,0,1,383.374,243.2Z" transform="translate(95.867 4481.496)" fill="#ed892e"/>
    <path id="Path_3417" data-name="Path 3417" d="M423.98,203.282a10.181,10.181,0,0,1,5.668-2.872,30.231,30.231,0,0,1,6.447-.27,20.742,20.742,0,0,1,3.3.273,7.561,7.561,0,0,1,3.087,1.482,17.929,17.929,0,0,0-6.32-.282,9.433,9.433,0,0,0-5.552,2.844,13.206,13.206,0,0,0-6.631-1.175Z" transform="translate(50.809 4518.083)" fill="#ed892e"/>
    <path id="Path_3418" data-name="Path 3418" d="M513.849,166.915l-2.744,1.853a9.259,9.259,0,0,0-5.345-.989A9.636,9.636,0,0,1,513.849,166.915Z" transform="translate(-18.895 4546.795)" fill="#ed892e"/>
    <path id="Path_3419" data-name="Path 3419" d="M494.27,317.931a13.313,13.313,0,0,1,3.451-2.584c.235-.123.633.114.747.353a.859.859,0,0,1-.058.762,2.238,2.238,0,0,1-.523.591,5.127,5.127,0,0,1-1.685,1.056,2.385,2.385,0,0,1-1.933-.177Z" transform="translate(-9.102 4419.876)" fill="#e7e7e9"/>
    <path id="Path_3420" data-name="Path 3420" d="M611.264,183.045a16.515,16.515,0,0,0-2.584,5.31l-.685-3.7a5.288,5.288,0,0,1-2.965-1.924,15.813,15.813,0,0,0,6.706-.669,43.352,43.352,0,0,0,6.156-2.711,14.873,14.873,0,0,1,4.489-1.7,4.919,4.919,0,0,1,4.418,1.361,8.672,8.672,0,0,0-4.673-.239,26.872,26.872,0,0,0-4.554,1.6c-2.073.87-4.236,1.8-6.309,2.673Z" transform="translate(-103.506 4537.266)" fill="#ed892e"/>
    <path id="Path_3421" data-name="Path 3421" d="M713.223,240.606a56.96,56.96,0,0,0-10.8-13.756,22.391,22.391,0,0,0-3.039-2.464,13.813,13.813,0,0,0-12.568-1.209,18.087,18.087,0,0,1,12.028,2.088,18.3,18.3,0,0,1,7.813,9.475q-1.112-1.515-2.354-2.931a22.769,22.769,0,0,0-4.179-3.861,11.607,11.607,0,0,0-5.316-1.872,19.554,19.554,0,0,1,11.324,19.836c-.191,1.813-.772,3.869-2.426,4.638a16.911,16.911,0,0,0-7.981-10.673c2.333,4.083,4.551,8.34,5.342,12.975s-.036,9.763-3.191,13.248a24.783,24.783,0,0,0,10.525-13.751c.611-2.011.961-4.095,1.592-6.1a12.694,12.694,0,0,1,3.223-5.642Z" transform="translate(-173.219 4499.24)" fill="#ed892e"/>
    <path id="Path_3422" data-name="Path 3422" d="M435.51,269.55a12.667,12.667,0,0,0,6.289-3.03c1.214-1.087,2.212-2.405,3.492-3.412a9.475,9.475,0,0,1,12.749.944,11.261,11.261,0,0,0-8.182-.133,22.443,22.443,0,0,0-7.02,4.332,19.559,19.559,0,0,1-2.289,1.8,5.178,5.178,0,0,1-2.739.875,2.772,2.772,0,0,1-2.3-1.375Z" transform="translate(40.98 4466.101)" fill="#ed892e"/>
    <path id="Path_3423" data-name="Path 3423" d="M444.29,372.761q1.349-1.141,2.7-2.28a6.268,6.268,0,0,1,2.1-1.342c1.45-.446,2.989.2,4.366.839a13.663,13.663,0,0,0-9.167,2.785Z" transform="translate(33.498 4374.125)" fill="#ed892e"/>
    <path id="Path_3424" data-name="Path 3424" d="M463.993,407.67a5.261,5.261,0,0,0-7.783.915,9.205,9.205,0,0,1,4.819,2.671,2.685,2.685,0,0,0-.6-1.579,3.533,3.533,0,0,1,1.376-1.618,3.866,3.866,0,0,1,2.188-.39Z" transform="translate(23.338 4342.277)" fill="#ed892e"/>
    <g id="Group_1324" data-name="Group 1324" transform="translate(509.641 4731.986)">
      <path id="Path_3425" data-name="Path 3425" d="M659.992,293.786A21.541,21.541,0,0,1,671.065,311.3a30.926,30.926,0,0,0-4.773-17.435,24.6,24.6,0,0,0-6.3-.083Z" transform="translate(-659.99 -293.622)" fill="#542104"/>
      <path id="Path_3426" data-name="Path 3426" d="M733.85,418.07c.038.134.078.267.117.4,0-.039,0-.077.007-.115C733.933,418.259,733.891,418.165,733.85,418.07Z" transform="translate(-722.944 -399.694)" fill="#542104"/>
    </g>
    <path id="Path_3427" data-name="Path 3427" d="M673.963,235.137a36.454,36.454,0,0,0-6.881-4.059l-4.914-2.432a6.69,6.69,0,0,1-1.5-.913,2.273,2.273,0,0,1-.824-1.5,1.511,1.511,0,0,1,.177-.8c-.123.083-.244.168-.36.261a3.563,3.563,0,0,0-1.375,3.768,3.645,3.645,0,0,0,2.129,2.016,15.183,15.183,0,0,0,2.93.712,24.97,24.97,0,0,1,15.036,9.432A12.239,12.239,0,0,0,673.963,235.137Z" transform="translate(-148.775 4496.487)" fill="#542104"/>
  </g>
</svg>
