<svg xmlns="http://www.w3.org/2000/svg" width="92.732" height="156.674" viewBox="0 0 92.732 156.674">
  <g id="Group_3857" data-name="Group 3857" transform="translate(-627.527 -2107)">
    <path id="Path_3" data-name="Path 3" d="M617.9,246.948a8.163,8.163,0,0,1-1.9,5.767,8.07,8.07,0,0,1-6.127,2.339l-.674-5.573a3.745,3.745,0,1,1,3.134-3.244Z" transform="translate(85.957 1880.988)" fill="#5a1024"/>
    <path id="Path_4" data-name="Path 4" d="M582.078,249.8c1.549-4.852,5.332-8.48,8.56-8.48a3.952,3.952,0,0,1,1.1.151,4.684,4.684,0,0,1,2.727,2.41c1.3,2.428,1.419,5.933.321,9.371-1.727,5.419-6.241,9.311-9.661,8.33a4.683,4.683,0,0,1-2.728-2.41c-1.3-2.428-1.419-5.932-.322-9.373m62.852,95.819c-9.291-7.551-19.81-9.648-27.123-10.066a98.545,98.545,0,0,0,.132-31.592c5.186,1.847,12.91,3.776,20.456,1.89,9.878-2.466,17.834-9.206,21.281-18.028l-6.021-2.353c-2.686,6.875-8.975,12.15-16.825,14.111-8.22,2.052-17.447-1.893-20.921-3.378-.435-.187-.791-.339-1.057-.442l-2.147-.849-1.542,1.808c-2.791,3.275-7.011,8.221-12.455,9.077-9.512,1.494-17.689-4.722-19.45-14.78a18.19,18.19,0,0,1-.251-2.28l7.859-20.561c5.9-.326,11.675-5.407,14.083-12.958,1.642-5.147,1.356-10.389-.781-14.386a11.06,11.06,0,0,0-6.642-5.573c-6.983-2.005-14.716,3.519-17.606,12.577-1.642,5.146-1.357,10.391.781,14.386a11.624,11.624,0,0,0,3.879,4.3l-8.063,21.089.009.618a24.317,24.317,0,0,0,.365,3.9c2.125,12.145,11.714,20.347,23.066,20.347a24.118,24.118,0,0,0,3.754-.3c4.941-.775,8.9-3.58,11.953-6.485a91.038,91.038,0,0,1-.426,29.886l-.036,0,.009.143a74.863,74.863,0,0,1-3.544,12.662c-7.115,18.691-21.433,32.478-38.3,36.879L571,391.527c18.887-4.927,34.853-20.192,42.711-40.833a80.226,80.226,0,0,0,2.747-8.735c6.36.225,16.006,1.861,24.4,8.682,10.023,8.147,15.52,21.515,14.7,35.763l6.453.371c.939-16.315-5.444-31.7-17.076-41.151" transform="translate(58.161 1872.147)" fill="#5a1024"/>
    <path id="Path_5" data-name="Path 5" d="M599.128,259.289a7.1,7.1,0,1,1,6.958,12.386c-3.166,1.779-11.209,1.859-17.486,1.676,3.109-5.455,7.362-12.283,10.528-14.062m-18.657,15.377-2.574,4.7,5.353.244c3.3.152,6.612.276,9.771.276,6.667,0,12.635-.554,16.231-2.574a13.567,13.567,0,1,0-13.29-23.656c-5.3,2.977-10.558,12.013-15.491,21.012" transform="translate(64.836 1885.504)" fill="#5a1024"/>
  </g>
</svg>
