<svg xmlns="http://www.w3.org/2000/svg" width="97.033" height="173.64" viewBox="0 0 97.033 173.64">
  <g id="Group_3936" data-name="Group 3936" transform="translate(-1743.127 -2865.515)">
    <path id="Path_111" data-name="Path 111" d="M534.643,369.454a5.892,5.892,0,1,0,5.806,6.1,5.971,5.971,0,0,0-5.806-6.1" transform="translate(1299.207 2496.565)" fill="#5a1024" stroke="rgba(0,0,0,0)" stroke-width="1"/>
    <path id="Path_112" data-name="Path 112" d="M534.084,386.208a7.645,7.645,0,0,1-6.8,8.171c-3.775.387-11.432-2.9-17.3-5.707,5.329-3.944,12.344-8.74,16.121-9.125a7.228,7.228,0,0,1,7.977,6.661m-32.374.327-4.5,3.446,4.963,2.474c9.507,4.743,19.322,9.322,25.643,8.674a14.613,14.613,0,0,0,12.99-15.608l0,0A13.814,13.814,0,0,0,525.57,372.8c-6.322.647-15.252,7.142-23.86,13.738" transform="translate(1269.678 2519.37)" fill="#5a1024" stroke="rgba(0,0,0,0)" stroke-width="1"/>
    <path id="Path_113" data-name="Path 113" d="M544.507,362l-53.748,8.066-.82,1.394a33.223,33.223,0,0,0,3.405,38.711c7.3,8.393,20.126,13.562,30.964,15.488-5.7,7.959-10.827,17.7-11.594,30.372-.171,2.839-.2,5.615-.1,8.333a75.294,75.294,0,0,0-8.158,14.259c-8.179,18.854-6.795,37.07-4.192,49.028l6.69-1.39c-2.4-11.022-3.683-27.777,3.8-45.027q1.32-3.04,2.954-5.963c4.379,26.716,20.206,45.981,27.884,53.975l4.988-4.581c-8.816-9.17-29.093-34.177-27.033-68.239.81-13.416,7.369-23.358,13.679-31.309l3.927-4.945-6.388-.436c-10.634-.732-25.114-5.739-32.208-13.9a26.609,26.609,0,0,1-3.452-29.658l50.85-7.63" transform="translate(1258.365 2509.213)" fill="#5a1024" stroke="rgba(0,0,0,0)" stroke-width="1"/>
    <path id="Path_114" data-name="Path 114" d="M24.605,37.841a13.881,13.881,0,0,1-1.035,5.464,11.947,11.947,0,0,1-2.948,4.2,13.2,13.2,0,0,1-4.616,2.7,18.052,18.052,0,0,1-6.011.949q-5.752,0-8.542-1.726v-5a15.706,15.706,0,0,0,8.6,2.7,11.637,11.637,0,0,0,4.041-.661,8.979,8.979,0,0,0,3.063-1.841A7.881,7.881,0,0,0,19.1,41.781a9.638,9.638,0,0,0,.676-3.653,7.824,7.824,0,0,0-2.7-6.313q-2.7-2.286-7.852-2.286-.834,0-1.754.029t-1.841.072q-.92.043-1.8.1t-1.6.144L3.639,9.2H22.707v4.257H7.723L6.889,25.56q.92-.058,1.956-.1t1.841-.043a18.51,18.51,0,0,1,5.867.863,12.431,12.431,0,0,1,4.386,2.459,10.31,10.31,0,0,1,2.732,3.911A13.758,13.758,0,0,1,24.605,37.841Z" transform="translate(1813.24 2928.169)" fill="#5a1024" stroke="rgba(0,0,0,0)" stroke-width="1"/>
  </g>
</svg>
