<svg xmlns="http://www.w3.org/2000/svg" width="97.033" height="173.64" viewBox="0 0 97.033 173.64">
  <g id="Group_3935" data-name="Group 3935" transform="translate(-1467.246 -2865.515)">
    <path id="Path_111" data-name="Path 111" d="M534.643,369.454a5.892,5.892,0,1,0,5.806,6.1,5.971,5.971,0,0,0-5.806-6.1" transform="translate(1023.326 2496.565)" fill="#5a1024" stroke="rgba(0,0,0,0)" stroke-width="1"/>
    <path id="Path_112" data-name="Path 112" d="M534.083,386.208a7.645,7.645,0,0,1-6.8,8.171c-3.775.387-11.432-2.9-17.3-5.707,5.329-3.944,12.344-8.74,16.121-9.125a7.227,7.227,0,0,1,7.977,6.66m-32.374.327-4.5,3.446,4.963,2.475c9.507,4.743,19.322,9.322,25.643,8.674a14.613,14.613,0,0,0,12.99-15.609l0,0A13.814,13.814,0,0,0,525.569,372.8c-6.322.646-15.252,7.141-23.86,13.738" transform="translate(993.793 2519.37)" fill="#5a1024" stroke="rgba(0,0,0,0)" stroke-width="1"/>
    <path id="Path_113" data-name="Path 113" d="M544.507,362l-53.748,8.066-.82,1.394a33.223,33.223,0,0,0,3.405,38.711c7.3,8.393,20.126,13.562,30.964,15.488-5.7,7.959-10.827,17.7-11.594,30.372-.171,2.839-.2,5.615-.1,8.333a75.3,75.3,0,0,0-8.158,14.259c-8.179,18.854-6.8,37.07-4.192,49.028l6.69-1.39c-2.4-11.022-3.683-27.777,3.8-45.027q1.32-3.04,2.954-5.964c4.379,26.716,20.206,45.981,27.884,53.975l4.988-4.581c-8.816-9.17-29.093-34.177-27.033-68.239.81-13.416,7.369-23.358,13.679-31.309l3.927-4.945-6.388-.436c-10.634-.732-25.114-5.74-32.208-13.9a26.609,26.609,0,0,1-3.452-29.658l50.85-7.63" transform="translate(982.484 2509.213)" fill="#5a1024" stroke="rgba(0,0,0,0)" stroke-width="1"/>
  </g>
</svg>
