<svg xmlns="http://www.w3.org/2000/svg" width="112.65" height="149.097" viewBox="0 0 112.65 149.097">
  <g id="Group_2783" data-name="Group 2783" transform="translate(0.651 0.502)">
    <path id="Path_20" data-name="Path 20" d="M218.465,151.087c7.1,2.131,16.295,4.507,20.447,3.449a8.384,8.384,0,1,0-4.134-16.251c-4.154,1.057-11.1,7.537-16.313,12.8m17.965,11.321c-7,0-16.589-2.835-25.98-5.827l-6.027-1.92,4.375-4.566c8.381-8.746,17.144-17.434,24.1-19.2a16.014,16.014,0,0,1,7.9,31.039,17.857,17.857,0,0,1-4.364.478" transform="translate(-191.605 -125.188)" fill="#5a1024" stroke="rgba(0,0,0,0)" stroke-width="1"/>
    <path id="Path_21" data-name="Path 21" d="M299.745,146.362a6.733,6.733,0,0,1-4.693,2.245,6.806,6.806,0,0,1-.7-13.594h.358a6.792,6.792,0,0,1,5.037,11.348m9.182-5.285a14.244,14.244,0,1,0-23.384,11.646c-8.326,13.187-18.6,18.27-26.891,21.217a45.453,45.453,0,0,1-8.98,1.839c-1.45.2-2.931.4-4.428.669a66.109,66.109,0,0,0-20.343,6.938c-9.494,5.222-17.43,13.266-23.6,23.883a60.363,60.363,0,0,0-3.851,7.809l6.891,2.822a55.208,55.208,0,0,1,3.4-6.89c5.47-9.432,12.454-16.541,20.763-21.092a58.442,58.442,0,0,1,18.038-6.143c1.356-.233,2.712-.421,4.145-.623.531-.079,1.06-.142,1.606-.219a89.536,89.536,0,0,1-36.135,86.49l4.349,6.032a96.471,96.471,0,0,0,37.571-55.826l1.777-2.681a13.727,13.727,0,1,1,11.442,21.326h-3.725v7.436h3.725a21.162,21.162,0,1,0-10.99-39.268c.156-1.529.281-3.056.358-4.583a96.838,96.838,0,0,0-1.06-20.407c.514-.14,1.029-.312,1.543-.5,9.65-3.429,21.655-9.384,31.209-25.1a12.981,12.981,0,0,0,2.339.2c.25,0,.483-.015.733-.031a14.227,14.227,0,0,0,13.5-14.95" transform="translate(-197.448 -127.559)" fill="#5a1024" stroke="rgba(0,0,0,0)" stroke-width="1"/>
  </g>
</svg>
