<svg xmlns="http://www.w3.org/2000/svg" width="121.683" height="145.71" viewBox="0 0 121.683 145.71">
  <g id="Group_3933" data-name="Group 3933" transform="translate(-894.869 -2868.901)">
    <path id="Path_20" data-name="Path 20" d="M218.143,150.613c6.936,2.083,15.921,4.4,19.979,3.37a8.192,8.192,0,1,0-4.04-15.878c-4.059,1.032-10.842,7.365-15.939,12.509M235.7,161.674c-6.835,0-16.209-2.77-25.385-5.693l-5.889-1.876,4.275-4.462c8.189-8.546,16.751-17.035,23.547-18.764a15.647,15.647,0,0,1,7.716,30.328,17.448,17.448,0,0,1-4.264.467" transform="translate(703.619 2744.095)" fill="#5a1024" stroke="rgba(0,0,0,0)" stroke-width="1"/>
    <path id="Path_21" data-name="Path 21" d="M297.4,145.931a6.579,6.579,0,0,1-4.585,2.194,6.65,6.65,0,0,1-.686-13.282h.35a6.637,6.637,0,0,1,4.921,11.088m8.972-5.164a13.918,13.918,0,1,0-22.848,11.379c-8.135,12.886-18.173,17.852-26.276,20.731a44.415,44.415,0,0,1-8.774,1.8c-1.417.2-2.864.395-4.327.654a64.6,64.6,0,0,0-19.877,6.779c-9.277,5.1-17.031,12.963-23.062,23.336a58.986,58.986,0,0,0-3.763,7.63l6.733,2.758A53.953,53.953,0,0,1,207.5,209.1c5.345-9.216,12.169-16.162,20.288-20.609a57.106,57.106,0,0,1,17.625-6c1.325-.228,2.65-.411,4.05-.609.519-.077,1.036-.138,1.569-.214a87.485,87.485,0,0,1-35.308,84.509l4.25,5.894a94.261,94.261,0,0,0,36.71-54.547l1.736-2.62A13.413,13.413,0,1,1,269.6,235.74h-3.639v7.266H269.6a20.677,20.677,0,1,0-10.738-38.369c.153-1.494.275-2.986.35-4.478a94.62,94.62,0,0,0-1.036-19.94c.5-.136,1.005-.305,1.508-.488,9.429-3.35,21.159-9.169,30.495-24.523a12.684,12.684,0,0,0,2.286.2c.244,0,.472-.014.716-.031a13.9,13.9,0,0,0,13.191-14.607" transform="translate(698.072 2741.844)" fill="#5a1024" stroke="rgba(0,0,0,0)" stroke-width="1"/>
    <path id="Path_48" data-name="Path 48" d="M3.039,43.355V38.524a10.978,10.978,0,0,0,7,2.46,8.161,8.161,0,0,0,5.064-1.44A4.642,4.642,0,0,0,17,35.643q0-5.407-8.266-5.407H6.275V26.114H8.624q7.335,0,7.335-5.1,0-4.7-5.718-4.7A9.375,9.375,0,0,0,4.236,18.6V14.036a15.364,15.364,0,0,1,7.646-1.817,10.24,10.24,0,0,1,6.781,2.127A6.783,6.783,0,0,1,21.211,19.8q0,6.272-6.382,8.067v.089a8.362,8.362,0,0,1,5.43,2.4,7.167,7.167,0,0,1,1.995,5.175,8.481,8.481,0,0,1-3.213,6.9,12.959,12.959,0,0,1-8.466,2.626A14.445,14.445,0,0,1,3.039,43.355Z" transform="translate(994.299 2896.596)" fill="#5a1024"/>
  </g>
</svg>
