<svg xmlns="http://www.w3.org/2000/svg" width="141.213" height="132.216" viewBox="0 0 141.213 132.216">
  <g id="Group_3858" data-name="Group 3858" transform="translate(-871.687 -2119.229)">
    <path id="Path_32" data-name="Path 32" d="M138.482,600.516c-6.834,8.583-10.471,19.419-8.521,30.271.161.9.367,1.792.591,2.675a37.919,37.919,0,0,1-2.2-4.591,40.312,40.312,0,0,1,3.3-35.325,22.352,22.352,0,0,1,6.831,6.969M74.187,569.991A58.372,58.372,0,0,0,88.38,584.146a62.393,62.393,0,0,0,8.981,5.241,33.664,33.664,0,0,1-4.078.7,50.749,50.749,0,0,1-19.077-2.006c-17.871-5.124-27.845-19.208-31.3-25.023l-6,3.558a66.943,66.943,0,0,0,18.47,20.023,56.21,56.21,0,0,0,16.909,8.145,57.733,57.733,0,0,0,21.7,2.241c5.35-.543,10.173-2.23,14.834-3.862,2.118-.741,4.307-1.51,6.474-2.136a19.65,19.65,0,0,1,9.91-.3,46.851,46.851,0,0,0-3.34,40.706,45.059,45.059,0,0,0,26.674,25.792l3.138-6.075a31.827,31.827,0,0,1-14.855-21.594c-1.807-10.054,2.609-20.351,9.734-27.673-1.807-7.078-8.035-12.643-13.259-15.49a26.2,26.2,0,0,0-19.948-2.066c-1.873.543-3.689,1.162-5.47,1.782l0-.009c-11.363-3.814-21.535-10.941-28-20.12-10.932-15.544-9.827-33.134-8.844-39.974l-6.9-1c-1.1,7.664-2.327,27.391,10.043,44.978" transform="translate(834.779 1594.216)" fill="#5a1024"/>
    <path id="Path_33" data-name="Path 33" d="M122.293,587.688a7.651,7.651,0,0,1-15.267-1.027c.262-3.9,4.933-11.2,8.8-16.752,3.085,6.019,6.733,13.878,6.471,17.778m-18.639,9.1a14.745,14.745,0,0,0,2.611,2.354,14.622,14.622,0,0,0,22.974-10.989c.44-6.531-4.6-16.6-9.809-26.348l-2.719-5.092-3.375,4.681c-6.465,8.966-12.816,18.265-13.255,24.8a14.508,14.508,0,0,0,3.574,10.6" transform="translate(883.634 1618.747)" fill="#5a1024"/>
  </g>
</svg>
