<svg xmlns="http://www.w3.org/2000/svg" width="175" height="175" viewBox="0 0 175 175">
  <g id="Group_3947" data-name="Group 3947" transform="translate(-1807 -4682)">
    <rect id="Rectangle_178" data-name="Rectangle 178" width="175" height="175" transform="translate(1807 4682)" fill="none"/>
    <path id="Path_1672" data-name="Path 1672" d="M253.885,546.358a15.259,15.259,0,0,0-1.516-4.116h0a17.292,17.292,0,0,0-1.888-2.88,9.6,9.6,0,0,0-2.846-2.352,10.2,10.2,0,0,0-1.826-.766,3.236,3.236,0,0,0,.894-4.073,14.57,14.57,0,0,0-1.951-2.82,10.143,10.143,0,0,0-3.083-2.388,9.464,9.464,0,0,0-4-.985,10.324,10.324,0,0,0-4.657,1.07,11.242,11.242,0,0,0-3.644,2.532,9.363,9.363,0,0,0-2.1,3.556c-.024.075-.039.154-.06.23-2.347-1.545-5.3-1.854-8.648-.816a11.667,11.667,0,0,0-3.492,1.712,8.884,8.884,0,0,0-3.2,4.2c-.193-.185-.391-.367-.6-.536a9.09,9.09,0,0,0-3.508-1.708,10.6,10.6,0,0,0-4.329-.1,10.3,10.3,0,0,0-5.983,2.992,3.227,3.227,0,0,0-3.081-1.6c-1.831.161-3.688.281-5.519.357a3.235,3.235,0,0,0-1.849.675,3.17,3.17,0,0,0-1.88-.581c-1.68.016-3.386,0-5.071-.06a3.232,3.232,0,0,0-1.485.312,3.245,3.245,0,0,0-1.456-.447c-1.907-.112-3.839-.271-5.741-.476a3.27,3.27,0,0,0-1.183.093,3.245,3.245,0,0,0-1.127-.365c-1.995-.255-4.013-.565-6-.922a3.242,3.242,0,0,0-1.74.166,3.238,3.238,0,0,0-1.549-.807c-1.883-.4-3.78-.843-5.639-1.328a3.249,3.249,0,0,0-1.549-.021,3.223,3.223,0,0,0-1.313-.766c-1.852-.534-3.719-1.123-5.551-1.752a3.287,3.287,0,0,0-1-.173,3.268,3.268,0,0,0-.881-.489c-1.909-.692-3.826-1.441-5.7-2.232a3.23,3.23,0,0,0-2.217-.109,3.226,3.226,0,0,0-1.571-1.57c-1.868-.867-3.74-1.8-5.564-2.761a3.234,3.234,0,0,0-4.592,1.867c-2.8,8.714-5.313,17.677-7.46,26.642a3.233,3.233,0,0,0,1.745,3.668c2.771,1.331,5.618,2.594,8.463,3.751a3.231,3.231,0,0,0,3.626-.838,15.923,15.923,0,0,0,2.131.734,3.235,3.235,0,0,0,2.182,3.079c2.341.8,4.736,1.56,7.121,2.248a3.192,3.192,0,0,0,1.993-.07,3.227,3.227,0,0,0,1.206.912,5.673,5.673,0,0,0-.454.412,7.078,7.078,0,0,0-1.339,1.964,12.255,12.255,0,0,0-.677,1.82l-1.829,6.465a6.738,6.738,0,0,0,.216,4.761,5.807,5.807,0,0,0,4.024,3.181,7.038,7.038,0,0,0,1.789.242,5.588,5.588,0,0,0,2.009-.365,6.216,6.216,0,0,0,3.388,1.829,7.381,7.381,0,0,0,1.531.167,5.814,5.814,0,0,0,1.669-.242,3.23,3.23,0,0,0,1.714.9c.493.088.987.176,1.48.26a3.234,3.234,0,0,0,3.066-1.165,3.237,3.237,0,0,0,2.583,2.021c.5.067.995.13,1.492.192a3.336,3.336,0,0,0,.4.024,3.205,3.205,0,0,0,1.5-.383,6.452,6.452,0,0,0,3.065,1.027c.248.023.485.033.714.033a6.092,6.092,0,0,0,2.43-.476,3.218,3.218,0,0,0,1.792.677c.5.029,1,.057,1.5.083a3.223,3.223,0,0,0,1.889-.5,3.24,3.24,0,0,0,1.847.64c.469.011.937.023,1.406.031h.057a3.212,3.212,0,0,0,.956-.144,3.248,3.248,0,0,0,1,.165h1.5a3.229,3.229,0,0,0,1.842-.589,6.2,6.2,0,0,0,2.828.628c.1,0,.193,0,.294,0a6.589,6.589,0,0,0,2.367-.5,3.247,3.247,0,0,0,1.1.195c.063,0,.128,0,.192-.006q.721-.044,1.44-.093a3.23,3.23,0,0,0,2.008-.883,3.222,3.222,0,0,0,2.122.544q.74-.071,1.477-.148a3.246,3.246,0,0,0,1.415-.5,6.094,6.094,0,0,0,1.664.227,7.524,7.524,0,0,0,.982-.067,6.4,6.4,0,0,0,2.73-.974,3.183,3.183,0,0,0,1.695.19q.743-.119,1.485-.245a3.233,3.233,0,0,0,1.732-.891,5.85,5.85,0,0,0,1.747.26,7.406,7.406,0,0,0,1.48-.156,6.436,6.436,0,0,0,2.891-1.323,3.217,3.217,0,0,0,1.148.219,3.177,3.177,0,0,0,.745-.088q.735-.173,1.469-.354a3.245,3.245,0,0,0,1.68-1.032,3.244,3.244,0,0,0,1.967.088c.456-.125.914-.25,1.37-.378A3.234,3.234,0,0,0,230.016,580l-3.683-13.086a3.229,3.229,0,0,0-.836-1.4,15.763,15.763,0,0,0,2.985-.62,11.673,11.673,0,0,0,7.038-5.139,8.761,8.761,0,0,0,.875-2.133,9.763,9.763,0,0,0,1.091.607,10,10,0,0,0,4.258.9h.135a12.4,12.4,0,0,0,4.977-1.212,14.507,14.507,0,0,0,4.4-2.967,9.7,9.7,0,0,0,2.451-4.071,9.444,9.444,0,0,0,.164-4.524Z" transform="translate(1708.559 4242.809)" fill="#020303"/>
    <g id="Group_1092" data-name="Group 1092" transform="translate(1828.443 4769.926)">
      <g id="Group_1090" data-name="Group 1090" transform="translate(23.933 40.677)">
        <path id="Path_1673" data-name="Path 1673" d="M289.7,797.138a2.354,2.354,0,0,1,1.737,1.33,3.755,3.755,0,0,1,.08,2.333c-.467-.02-.937-.042-1.4-.067a2.769,2.769,0,0,0,.073-1.453,1.1,1.1,0,0,0-.863-.769,1.024,1.024,0,0,0-.706.035,1.5,1.5,0,0,0-.532.412,2.508,2.508,0,0,0-.38.636,5.513,5.513,0,0,0-.245.7q-.9,3.306-1.8,6.615a3.942,3.942,0,0,0-.114.627,1.854,1.854,0,0,0,.042.659,1.458,1.458,0,0,0,.287.573,1.178,1.178,0,0,0,.641.372,1.223,1.223,0,0,0,1.151-.187,2.623,2.623,0,0,0,.714-1.351q.687.314,1.377.623a3.477,3.477,0,0,1-1.271,2.042,3.2,3.2,0,0,1-4.206-1.144,3.611,3.611,0,0,1-.042-2.527q.915-3.233,1.829-6.465a8.888,8.888,0,0,1,.5-1.333,3.882,3.882,0,0,1,.724-1.075,2.352,2.352,0,0,1,1.026-.618,2.558,2.558,0,0,1,1.391.028Z" transform="translate(-284.034 -796.601)" fill="#fff"/>
        <path id="Path_1674" data-name="Path 1674" d="M332.472,817.105a4.879,4.879,0,0,1-1.2,2.623,2.579,2.579,0,0,1-2.472.5,2.623,2.623,0,0,1-2.036-1.389,3.94,3.94,0,0,1-.112-2.511q.76-3.263,1.521-6.525a8.711,8.711,0,0,1,.428-1.344,3.744,3.744,0,0,1,.678-1.1,2.342,2.342,0,0,1,1-.656,2.672,2.672,0,0,1,1.419-.021,3.116,3.116,0,0,1,1.336.567,2.036,2.036,0,0,1,.659.938,3.311,3.311,0,0,1,.153,1.243,10.963,10.963,0,0,1-.192,1.5q-.594,3.087-1.19,6.176Zm-.117-6.681a6.13,6.13,0,0,0,.1-.714,2.266,2.266,0,0,0-.044-.695,1.281,1.281,0,0,0-.312-.581,1.257,1.257,0,0,0-.692-.354,1.066,1.066,0,0,0-.834.109,1.816,1.816,0,0,0-.55.566,3.035,3.035,0,0,0-.341.771q-.122.421-.185.706-.716,3.211-1.433,6.421a3.771,3.771,0,0,0-.081.62,1.876,1.876,0,0,0,.081.656,1.464,1.464,0,0,0,1.82.868,1.367,1.367,0,0,0,.552-.393,2.138,2.138,0,0,0,.364-.632,4.886,4.886,0,0,0,.222-.769q.667-3.292,1.333-6.582Z" transform="translate(-319.613 -804.623)" fill="#fff"/>
        <path id="Path_1675" data-name="Path 1675" d="M378.44,818.207q-.665,1.329-1.346,2.656-.867,1.546-1.76,3.081l-.667-.1q-.4-1.731-.768-3.464-.258-1.468-.5-2.935l-.07-.011q-.789,4.641-1.579,9.281-.728-.124-1.453-.255,1.205-6.691,2.41-13.38.67.121,1.341.236.341,2.208.724,4.415.292,1.729.609,3.456l.054.008q.84-1.6,1.656-3.212,1-1.95,1.951-3.91c.455.06.911.119,1.365.175l-1.665,13.494q-.73-.09-1.461-.187l1.242-9.333-.088-.012Z" transform="translate(-356.297 -810.049)" fill="#fff"/>
        <path id="Path_1676" data-name="Path 1676" d="M442.6,822.133q-.355,4.95-.711,9.9a4.941,4.941,0,0,1-.865,2.747,2.542,2.542,0,0,1-2.378.791,2.631,2.631,0,0,1-2.185-1.138,3.923,3.923,0,0,1-.416-2.482q.572-5.155,1.143-10.309.667.074,1.334.141-.521,5.162-1.044,10.324a3.8,3.8,0,0,0-.008.626,1.87,1.87,0,0,0,.157.643,1.452,1.452,0,0,0,1.9.648,1.364,1.364,0,0,0,.5-.456,2.183,2.183,0,0,0,.286-.672,4.85,4.85,0,0,0,.128-.792q.409-5.035.82-10.069.667.054,1.337.1Z" transform="translate(-411.343 -817.22)" fill="#fff"/>
        <path id="Path_1677" data-name="Path 1677" d="M484,829.606q-.234,4.643-.466,9.286c-.488-.024-.979-.052-1.467-.081q.4-6.786.81-13.571c.424.026.847.048,1.271.07q1.047,3.506,2.212,6.994.385,1.254.786,2.506l.073-.018q.127-4.677.251-9.353.67.017,1.339.029-.119,6.8-.237,13.594c-.459-.008-.917-.018-1.376-.031q-1.249-3.453-2.38-6.925-.389-1.249-.766-2.5c-.018,0-.036,0-.052,0Z" transform="translate(-449.925 -820.236)" fill="#fff"/>
        <path id="Path_1678" data-name="Path 1678" d="M534.3,840.366q.031-6.8.062-13.6.669,0,1.339,0,.034,6.8.066,13.6c-.49,0-.98,0-1.469,0Z" transform="translate(-493.677 -821.517)" fill="#fff"/>
        <path id="Path_1679" data-name="Path 1679" d="M556.789,825.464a2.333,2.333,0,0,1,2.034.771,3.765,3.765,0,0,1,.745,2.211q-.677.176-1.355.343a2.784,2.784,0,0,0-.349-1.412,1.084,1.084,0,0,0-1.041-.487,1.007,1.007,0,0,0-.661.239,1.5,1.5,0,0,0-.388.548,2.555,2.555,0,0,0-.179.719,5.958,5.958,0,0,0-.032.744q.093,3.428.185,6.855a4.05,4.05,0,0,0,.071.633,1.862,1.862,0,0,0,.229.618,1.443,1.443,0,0,0,.436.466,1.16,1.16,0,0,0,.716.17,1.216,1.216,0,0,0,1.04-.51,2.628,2.628,0,0,0,.291-1.5q.742.1,1.488.2a3.485,3.485,0,0,1-.623,2.321,3.16,3.16,0,0,1-4.323.117,3.641,3.641,0,0,1-.765-2.407q-.058-3.36-.117-6.718a8.913,8.913,0,0,1,.088-1.419,3.891,3.891,0,0,1,.38-1.239,2.36,2.36,0,0,1,.8-.889,2.526,2.526,0,0,1,1.329-.375Z" transform="translate(-510.34 -820.421)" fill="#fff"/>
        <path id="Path_1680" data-name="Path 1680" d="M600.817,836.98q-.441-1.477-.87-2.959-1.41.129-2.82.232-.173,1.531-.355,3.061-.706.048-1.412.091.969-6.869,1.694-13.744.626-.049,1.252-.1,1.855,6.662,3.956,13.278-.723.076-1.444.145ZM597.858,826.4q-.122,1.6-.253,3.195-.166,1.609-.346,3.219,1.154-.085,2.307-.19-.45-1.578-.888-3.157-.38-1.536-.75-3.073l-.07.005Z" transform="translate(-544.825 -818.828)" fill="#fff"/>
        <path id="Path_1681" data-name="Path 1681" d="M639.541,818.52a2.336,2.336,0,0,1,2.1.576,3.769,3.769,0,0,1,.951,2.13c-.438.157-.878.315-1.32.468a2.765,2.765,0,0,0-.481-1.373,1.085,1.085,0,0,0-1.084-.386,1.014,1.014,0,0,0-.636.3,1.488,1.488,0,0,0-.334.583,2.566,2.566,0,0,0-.11.732,5.7,5.7,0,0,0,.037.744l.828,6.806a3.981,3.981,0,0,0,.131.624,1.87,1.87,0,0,0,.286.594,1.453,1.453,0,0,0,.48.422,1.167,1.167,0,0,0,.73.1,1.219,1.219,0,0,0,.99-.606,2.625,2.625,0,0,0,.149-1.519q.75.031,1.5.058a3.479,3.479,0,0,1-.4,2.37,3.17,3.17,0,0,1-4.3.524,3.628,3.628,0,0,1-.989-2.325q-.375-3.338-.748-6.678a8.9,8.9,0,0,1-.045-1.42,3.9,3.9,0,0,1,.261-1.268,2.327,2.327,0,0,1,.711-.96,2.53,2.53,0,0,1,1.29-.5Z" transform="translate(-579.929 -814.577)" fill="#fff"/>
        <path id="Path_1682" data-name="Path 1682" d="M677.994,828.153q-1.076-6.713-2.154-13.424c.442-.072.885-.145,1.326-.219q1.141,6.7,2.282,13.4Q678.723,828.037,677.994,828.153Z" transform="translate(-612.242 -811.247)" fill="#fff"/>
        <path id="Path_1683" data-name="Path 1683" d="M704.966,817.5a4.892,4.892,0,0,1-.05,2.883,2.585,2.585,0,0,1-2.068,1.445,2.614,2.614,0,0,1-2.417-.463,3.944,3.944,0,0,1-1.1-2.26l-1.207-6.59a8.665,8.665,0,0,1-.143-1.4,3.791,3.791,0,0,1,.183-1.276,2.326,2.326,0,0,1,.654-1,2.664,2.664,0,0,1,1.292-.585,3.125,3.125,0,0,1,1.451-.013,2.049,2.049,0,0,1,.979.6,3.3,3.3,0,0,1,.636,1.079,10.977,10.977,0,0,1,.42,1.448l1.373,6.139Zm-2.774-6.081a6.261,6.261,0,0,0-.193-.7,2.184,2.184,0,0,0-.318-.618,1.206,1.206,0,0,0-1.292-.456,1.057,1.057,0,0,0-.721.433,1.808,1.808,0,0,0-.278.739,3.043,3.043,0,0,0,0,.842c.037.291.076.531.112.722q.623,3.231,1.248,6.46a3.845,3.845,0,0,0,.172.6,1.867,1.867,0,0,0,.336.57,1.265,1.265,0,0,0,1.307.414,1.355,1.355,0,0,0,.7-.342,1.372,1.372,0,0,0,.351-.581,2.127,2.127,0,0,0,.081-.724,4.778,4.778,0,0,0-.1-.794q-.7-3.284-1.4-6.567Z" transform="translate(-630.785 -805.924)" fill="#fff"/>
        <path id="Path_1684" data-name="Path 1684" d="M739.949,799.765q1.111,4.514,2.222,9.028-.718.178-1.438.347-1.561-6.615-3.123-13.232.623-.146,1.245-.3,2.016,3.056,4.146,6.059.733,1.089,1.478,2.172l.065-.038q-1.225-4.516-2.448-9.031c.435-.119.868-.237,1.3-.361q1.84,6.545,3.683,13.088-.667.188-1.338.37-2.2-2.944-4.288-5.943-.735-1.083-1.458-2.173Z" transform="translate(-663.985 -794.41)" fill="#fff"/>
      </g>
      <g id="Group_1091" data-name="Group 1091">
        <path id="Path_1685" data-name="Path 1685" d="M153.591,548.37q2.9,1.225,5.855,2.294-6.808,11.846-14.573,23.221-4.183-1.7-8.283-3.67,3.2-13.387,7.394-26.4,2.829,1.5,5.717,2.837-1.5,4.546-2.923,9.122-1.337,4.212-2.61,8.447l.18.08q2.259-3.8,4.461-7.629Q151.238,552.538,153.591,548.37Z" transform="translate(-136.59 -543.81)" fill="#fff"/>
        <path id="Path_1686" data-name="Path 1686" d="M235.49,615.674q4.366-12.727,8.73-25.453,2.834.971,5.7,1.8-3.733,12.926-7.463,25.852Q238.955,616.86,235.49,615.674Z" transform="translate(-219.436 -582.687)" fill="#fff"/>
        <path id="Path_1687" data-name="Path 1687" d="M315.406,619.342q1.816,8.359,4.413,16.677-3.818-.472-7.614-1.145-1.074-4.687-1.922-9.377-.567.655-1.146,1.3-.755,3.593-1.508,7.189-3.555-.745-7.079-1.667,3.406-13.016,6.811-26.033,2.883.755,5.793,1.365-.713,3.406-1.428,6.811c.081.018.162.034.245.05q2.369-3.063,4.563-6.2,3.07.553,6.162.948Q319.289,614.4,315.406,619.342Z" transform="translate(-273.936 -596.148)" fill="#fff"/>
        <path id="Path_1688" data-name="Path 1688" d="M433.86,653.064q1.439-13.377,2.88-26.754,2.944.317,5.9.488-.784,13.43-1.569,26.863-3.608-.212-7.209-.6Z" transform="translate(-385.607 -612.919)" fill="#fff"/>
        <path id="Path_1689" data-name="Path 1689" d="M511.417,638.96q-.224-5.446-.448-10.893,2.839-.117,5.67-.367l2.366,26.8q-3.111.275-6.231.417-1.281-2.8-2.472-5.631-1.147-2.673-2.216-5.363c-.063,0-.127,0-.19,0q.078,5.566.156,11.134-3.511.049-7.022-.068.45-13.447.9-26.893,2.6.087,5.209.061.847,2.486,1.763,4.959,1.117,2.932,2.334,5.845l.184-.008Z" transform="translate(-441.874 -614.083)" fill="#fff"/>
        <path id="Path_1690" data-name="Path 1690" d="M628.353,645.263c-2.635.439-4.743.1-6.267-.941a6.5,6.5,0,0,1-2.638-4.964q-.728-6.571-1.454-13.143a7.467,7.467,0,0,1,1.2-5.319,6.768,6.768,0,0,1,4.683-2.638,7.362,7.362,0,0,1,3.008.044,5.819,5.819,0,0,1,2.269,1.091,6.309,6.309,0,0,1,1.576,1.9,9.254,9.254,0,0,1,.922,2.459c.027.127.06.271.1.433a2.535,2.535,0,0,1,.062.441q-2.758.989-5.571,1.854a5.157,5.157,0,0,0-.516-1.893.907.907,0,0,0-.972-.56.738.738,0,0,0-.656.56,2.543,2.543,0,0,0-.034,1.047q1.018,6.389,2.034,12.778a1.529,1.529,0,0,0,.4.86.937.937,0,0,0,.876.231.966.966,0,0,0,.68-.448,1.4,1.4,0,0,0,.128-1.023l-.6-3.428c-.378.067-.755.13-1.133.193q-.423-2.557-.849-5.111,3.691-.611,7.353-1.435.988,4.315,1.979,8.629a6.61,6.61,0,0,1,.037,3.009,6.241,6.241,0,0,1-1.226,2.5,7.213,7.213,0,0,1-2.287,1.844,10.223,10.223,0,0,1-3.1,1.021Z" transform="translate(-539.799 -606.063)" fill="#fff"/>
        <path id="Path_1691" data-name="Path 1691" d="M737.521,610.546a6.606,6.606,0,0,1-.164,5.814,8.594,8.594,0,0,1-5.189,3.665,8.508,8.508,0,0,1-6.375-.115,6.687,6.687,0,0,1-3.345-4.733l-3.087-12.5a8.982,8.982,0,0,1-.258-3.164,6.536,6.536,0,0,1,.8-2.54,6.064,6.064,0,0,1,1.7-1.888,8.439,8.439,0,0,1,2.529-1.229c4.278-1.328,7.224.086,8.926,4.612Q735.289,604.507,737.521,610.546Zm-10.507-10.175c-.131-.417-.308-.665-.532-.745a.954.954,0,0,0-.607-.034,1.112,1.112,0,0,0-.516.38.979.979,0,0,0-.057.925l3.789,12.669c.133.445.331.695.6.748a1.4,1.4,0,0,0,.7-.013,1.214,1.214,0,0,0,.554-.373c.166-.187.177-.5.037-.943q-1.982-6.306-3.965-12.614Z" transform="translate(-624.51 -585.334)" fill="#fff"/>
        <path id="Path_1692" data-name="Path 1692" d="M834.661,571.237a11.975,11.975,0,0,1,1.2,3.233,6.231,6.231,0,0,1-.1,2.992,6.481,6.481,0,0,1-1.659,2.712,11.289,11.289,0,0,1-3.431,2.285,9.184,9.184,0,0,1-3.67.922,6.81,6.81,0,0,1-2.99-.6,6.269,6.269,0,0,1-2.238-1.75,9.389,9.389,0,0,1-1.471-2.538q3.07-1.512,6.069-3.172a5.547,5.547,0,0,0,.534,1.1,1.741,1.741,0,0,0,.5.519.828.828,0,0,0,.44.141.954.954,0,0,0,.381-.088.881.881,0,0,0,.579-.862,3.891,3.891,0,0,0-.433-1.5,3.46,3.46,0,0,0-1.235-1.537,3.673,3.673,0,0,0-2.032-.414,14.56,14.56,0,0,1-3.8-.294,7.892,7.892,0,0,1-2.558-1.042,5.758,5.758,0,0,1-1.665-1.669,12.025,12.025,0,0,1-1.123-2.217,11.078,11.078,0,0,1-.743-3.073,7.071,7.071,0,0,1,.286-2.781,6.127,6.127,0,0,1,1.386-2.337,8.161,8.161,0,0,1,2.623-1.8,7.3,7.3,0,0,1,3.216-.778,6.215,6.215,0,0,1,2.644.643,6.918,6.918,0,0,1,2.105,1.631,11.308,11.308,0,0,1,1.519,2.193q-2.671,1.777-5.423,3.42a5.593,5.593,0,0,0-.817-1.454.776.776,0,0,0-1.347.575,3.6,3.6,0,0,0,.325,1.167,3.48,3.48,0,0,0,.367.639,1.785,1.785,0,0,0,.588.5,3.176,3.176,0,0,0,.979.318,6.778,6.778,0,0,0,1.524.058,16.335,16.335,0,0,1,3.51.122,8.145,8.145,0,0,1,2.545.829,6.387,6.387,0,0,1,1.891,1.563,13.918,13.918,0,0,1,1.527,2.341Z" transform="translate(-705.034 -554.597)" fill="#fff"/>
      </g>
    </g>
    <g id="Group_1097" data-name="Group 1097" transform="translate(1830.637 4783.805)">
      <path id="Path_1693" data-name="Path 1693" d="M287.645,841.735a2.424,2.424,0,0,0,2.073-.222,3.1,3.1,0,0,0,1.1-1.67q-.443-.2-.883-.4a2.518,2.518,0,0,1-.711,1.185,1.485,1.485,0,0,1-1.391.239,1.44,1.44,0,0,1-.782-.463,1.705,1.705,0,0,1-.339-.678,2.146,2.146,0,0,1-.049-.752,4.33,4.33,0,0,1,.122-.67l.945-3.467c-.279-.088-.558-.177-.838-.266l-1.008,3.564a3.376,3.376,0,0,0,.027,2.343A2.449,2.449,0,0,0,287.645,841.735Z" transform="translate(-263.685 -801.252)" fill="#cccbcb"/>
      <path id="Path_1694" data-name="Path 1694" d="M330.251,853.27a2.339,2.339,0,0,0,2.228-.429,4.657,4.657,0,0,0,1.12-2.482l.537-2.79c-.284-.063-.57-.122-.856-.187l-.6,2.982a5.171,5.171,0,0,1-.234.811,2.385,2.385,0,0,1-.411.71,1.659,1.659,0,0,1-.659.469,1.414,1.414,0,0,1-.518.094,2.048,2.048,0,0,1-.42-.047,1.537,1.537,0,0,1-1.237-1.086,2.138,2.138,0,0,1-.093-.75,4.079,4.079,0,0,1,.088-.664l.743-3.331c-.284-.072-.566-.146-.849-.221l-.779,3.34a3.7,3.7,0,0,0,.1,2.342,2.378,2.378,0,0,0,1.844,1.234Z" transform="translate(-299.268 -811.12)" fill="#cccbcb"/>
      <g id="Group_1093" data-name="Group 1093" transform="translate(36.055 36.934)">
        <path id="Path_1695" data-name="Path 1695" d="M395.229,862.826l.305.047q.74-1.276,1.459-2.558c-.265-.044-.528-.089-.791-.135-.063.12-.123.24-.187.36a.272.272,0,0,1-.278.141.346.346,0,0,1-.279-.226c-.026-.141-.049-.281-.075-.422-.27-.049-.537-.094-.805-.144Q394.894,861.353,395.229,862.826Z" transform="translate(-390.952 -859.397)" fill="#cccbcb"/>
        <path id="Path_1696" data-name="Path 1696" d="M374.181,857.02c-.286-.057-.573-.112-.859-.17l-1.092,6.067c.307.055.612.109.919.161l1.031-6.058Z" transform="translate(-372.23 -856.85)" fill="#cccbcb"/>
        <path id="Path_1697" data-name="Path 1697" d="M416.856,864.332c-.287-.042-.576-.088-.864-.132l-.792,5.952c.308.041.615.08.924.118l.734-5.939Z" transform="translate(-408.225 -863.007)" fill="#cccbcb"/>
      </g>
      <path id="Path_1698" data-name="Path 1698" d="M440.066,873.35a2.29,2.29,0,0,0,2.141-.69,4.719,4.719,0,0,0,.808-2.6l.174-2.431c-.291-.028-.579-.06-.868-.089l-.214,2.631a5.1,5.1,0,0,1-.136.834,2.4,2.4,0,0,1-.323.755,1.655,1.655,0,0,1-.6.545,1.631,1.631,0,0,1-2.274-.774,2.191,2.191,0,0,1-.18-.734,4.159,4.159,0,0,1,.01-.672l.3-2.971c-.289-.036-.578-.068-.867-.106l-.33,2.977a3.673,3.673,0,0,0,.378,2.313,2.382,2.382,0,0,0,1.977,1.008Z" transform="translate(-390.996 -828.46)" fill="#cccbcb"/>
      <g id="Group_1094" data-name="Group 1094" transform="translate(54.169 39.366)">
        <path id="Path_1699" data-name="Path 1699" d="M485.046,871.895q-.436-.032-.872-.065l-.344,5.766c.31.018.618.034.927.05l.287-5.751Z" transform="translate(-483.83 -871.83)" fill="#cccbcb"/>
        <path id="Path_1700" data-name="Path 1700" d="M504.573,878.777c.307.008.614.014.92.021l.1-5.66c-.29-.011-.583-.027-.873-.041l-.045,1.713a.27.27,0,0,1-.206.255.354.354,0,0,1-.393-.162c-.2-.622-.391-1.242-.584-1.864-.3-.016-.607-.03-.911-.049.638,1.93,1.3,3.871,1.995,5.789Z" transform="translate(-499.536 -872.802)" fill="#cccbcb"/>
      </g>
      <path id="Path_1701" data-name="Path 1701" d="M536.871,874.361c-.292-.005-.583-.005-.875-.011l-.026,5.615h.928Z" transform="translate(-473.337 -834.575)" fill="#cccbcb"/>
      <path id="Path_1702" data-name="Path 1702" d="M556.374,877.163a3.386,3.386,0,0,0,.7,2.233,2.9,2.9,0,0,0,3.908-.107,3.1,3.1,0,0,0,.568-1.919l-.951-.126a2.54,2.54,0,0,1-.336,1.339,1.471,1.471,0,0,1-1.255.63,1.41,1.41,0,0,1-.878-.219,1.7,1.7,0,0,1-.516-.55,2.166,2.166,0,0,1-.261-.706,4.147,4.147,0,0,1-.076-.675l-.07-2.592-.875.006.047,2.683Z" transform="translate(-490.392 -834.676)" fill="#cccbcb"/>
      <path id="Path_1703" data-name="Path 1703" d="M601.432,872.784a.276.276,0,0,1-.037.227.266.266,0,0,1-.2.115q-1.154.1-2.312.19h-.019a.264.264,0,0,1-.193-.083.272.272,0,0,1-.075-.218c.045-.4.086-.806.13-1.209-.242.015-.482.033-.724.045-.232,1.836-.467,3.674-.724,5.5.285-.018.571-.036.857-.055q.17-1.417.33-2.837a.271.271,0,0,1,.248-.239q1.407-.1,2.815-.23a.274.274,0,0,1,.284.193q.4,1.374.8,2.745l.894-.089q-.825-2.612-1.618-5.256l-.782.065C601.22,872.025,601.323,872.4,601.432,872.784Z" transform="translate(-524.695 -832.255)" fill="#cccbcb"/>
      <path id="Path_1704" data-name="Path 1704" d="M642.473,872.058a3.393,3.393,0,0,0,.906,2.159,2.912,2.912,0,0,0,3.891-.473,3.1,3.1,0,0,0,.386-1.962c-.321-.011-.641-.024-.963-.037a2.522,2.522,0,0,1-.209,1.365,1.477,1.477,0,0,1-1.191.745,1.432,1.432,0,0,1-.9-.135,1.7,1.7,0,0,1-.567-.5,2.172,2.172,0,0,1-.326-.678,4.336,4.336,0,0,1-.14-.666l-.289-2.376c-.291.032-.583.058-.875.089l.276,2.471Z" transform="translate(-562.324 -830.512)" fill="#cccbcb"/>
      <path id="Path_1705" data-name="Path 1705" d="M686.141,868.909l.92-.153-.891-5.237c-.289.049-.579.094-.87.141l.842,5.248Z" transform="translate(-598.428 -825.503)" fill="#cccbcb"/>
      <path id="Path_1706" data-name="Path 1706" d="M709.986,856.6a5.1,5.1,0,0,1,.109.837,2.438,2.438,0,0,1-.092.815,1.656,1.656,0,0,1-.417.693,1.614,1.614,0,0,1-.842.417,2.088,2.088,0,0,1-.412.044,1.39,1.39,0,0,1-.511-.091,1.617,1.617,0,0,1-.641-.456,2.155,2.155,0,0,1-.385-.651,3.977,3.977,0,0,1-.184-.644l-.451-2.339c-.289.057-.58.107-.868.161l.429,2.339a3.7,3.7,0,0,0,1.023,2.11,2.365,2.365,0,0,0,2.18.4,2.334,2.334,0,0,0,1.873-1.282,4.64,4.64,0,0,0,.037-2.722l-.429-1.915-.862.2.446,2.091Z" transform="translate(-615.173 -817.788)" fill="#cccbcb"/>
      <g id="Group_1095" data-name="Group 1095" transform="translate(97.452 34.407)">
        <path id="Path_1707" data-name="Path 1707" d="M769.743,843a.271.271,0,0,1-.123.3.353.353,0,0,1-.424-.042c-.32-.464-.635-.93-.951-1.4-.289.085-.576.169-.865.252,1.113,1.579,2.253,3.159,3.41,4.712.3-.083.6-.164.9-.248l-1.492-5.3c-.282.088-.567.172-.851.26Z" transform="translate(-764.637 -841.28)" fill="#cccbcb"/>
        <path id="Path_1708" data-name="Path 1708" d="M752.626,854.863l-1.287-5.233c-.286.075-.573.146-.859.219l1.235,5.233c.3-.071.609-.144.912-.219Z" transform="translate(-750.48 -848.275)" fill="#cccbcb"/>
      </g>
      <path id="Path_1709" data-name="Path 1709" d="M159.8,632.639c-.829,1.422-1.665,2.844-2.5,4.254a1.885,1.885,0,0,1-2.388.758l-.18-.08a1.887,1.887,0,0,1-1.039-2.266c.49-1.631.993-3.269,1.5-4.9q-1.042-.535-2.07-1.094-1.6,5.719-3.006,11.489c1.776.829,3.581,1.63,5.392,2.389q3.221-4.76,6.3-9.651c-.672-.292-1.339-.593-2-.895Z" transform="translate(-150.11 -629.31)" fill="#cccbcb"/>
      <path id="Path_1710" data-name="Path 1710" d="M253.888,674.962l-3.608,10.522c1.088.357,2.185.7,3.284,1.036l3.071-10.635q-1.381-.448-2.745-.924Z" transform="translate(-234.02 -667.55)" fill="#cccbcb"/>
      <path id="Path_1711" data-name="Path 1711" d="M319.2,699.168a1.9,1.9,0,0,1,.437-.867q.57-.641,1.131-1.287a1.886,1.886,0,0,1,3.279.9c.484,2.675,1.029,5.382,1.628,8.067q1.69.285,3.392.531c-1.12-3.784-2.123-7.606-3.008-11.424q-4.3-.848-8.525-1.961l-2.771,10.588q1.653.409,3.318.782l1.118-5.331Z" transform="translate(-288.034 -682.771)" fill="#cccbcb"/>
      <path id="Path_1712" data-name="Path 1712" d="M450.642,716.3c-.946-.089-1.893-.191-2.839-.3l-1.133,10.518c1.118.105,2.24.2,3.357.279l.614-10.5Z" transform="translate(-398.532 -701.929)" fill="#cccbcb"/>
      <g id="Group_1096" data-name="Group 1096" transform="translate(58.911 14.867)">
        <path id="Path_1713" data-name="Path 1713" d="M554.622,721.331c.7,1.773,1.441,3.561,2.194,5.315.624,1.477,1.268,2.959,1.928,4.428,1-.055,2-.12,3-.195l-.88-9.958q-3.17.144-6.371.146a1.667,1.667,0,0,1,.13.265Z" transform="translate(-547.762 -720.917)" fill="#cccbcb"/>
        <path id="Path_1714" data-name="Path 1714" d="M516.071,722.038a1.87,1.87,0,0,1,.294-1.032q-1.488-.037-2.979-.105l-.346,10.341c1.053.021,2.1.029,3.16.031Z" transform="translate(-513.04 -720.9)" fill="#cccbcb"/>
      </g>
      <path id="Path_1715" data-name="Path 1715" d="M644.2,709.806l.6,3.428a3.216,3.216,0,0,1-.4,2.37,2.861,2.861,0,0,1-1.956,1.286,2.8,2.8,0,0,1-2.532-.771,3.375,3.375,0,0,1-.917-1.885l-.744-4.672q-1.344.156-2.7.286l.534,4.823a4.7,4.7,0,0,0,1.828,3.615,6.662,6.662,0,0,0,4.891.638,8.4,8.4,0,0,0,2.537-.831,5.379,5.379,0,0,0,1.7-1.362,4.35,4.35,0,0,0,.859-1.755,4.8,4.8,0,0,0-.042-2.156l-1.044-4.55q-1.551.29-3.12.541a1.879,1.879,0,0,1,.511.993Z" transform="translate(-556.753 -695.453)" fill="#cccbcb"/>
      <path id="Path_1716" data-name="Path 1716" d="M754.52,684.144a2.7,2.7,0,0,1-.425,2.761,3.019,3.019,0,0,1-2.316,1.058,3.643,3.643,0,0,1-.736-.078,2.677,2.677,0,0,1-2.019-2.053l-1.258-4.209q-1.369.375-2.756.717l1.014,4.109a4.88,4.88,0,0,0,2.359,3.5,8.432,8.432,0,0,0,9.085-2.8,4.794,4.794,0,0,0,.028-4.216h0l-1.454-3.936q-1.4.514-2.828.99l1.31,4.167Z" transform="translate(-648.446 -670.926)" fill="#cccbcb"/>
      <path id="Path_1717" data-name="Path 1717" d="M867.725,635.045a5.3,5.3,0,0,1,1.95,2.342,5.654,5.654,0,0,1,.61,2.274,2.764,2.764,0,0,1-1.682,2.6,2.854,2.854,0,0,1-1.135.258,2.679,2.679,0,0,1-1.445-.412,3.157,3.157,0,0,1-.786-.682q-1.385.742-2.789,1.458.18.265.38.511a4.391,4.391,0,0,0,1.575,1.234,4.754,4.754,0,0,0,2.172.422,7.349,7.349,0,0,0,2.911-.752,9.483,9.483,0,0,0,2.862-1.886,4.654,4.654,0,0,0,1.2-1.922,4.311,4.311,0,0,0,.06-2.1,10.149,10.149,0,0,0-1.019-2.72,12.251,12.251,0,0,0-1.318-2.027,4.46,4.46,0,0,0-1.328-1.1q-1.653,1.039-3.384,2.008a4.337,4.337,0,0,1,1.167.485Z" transform="translate(-746.823 -632.024)" fill="#cccbcb"/>
    </g>
    <g id="Group_1098" data-name="Group 1098" transform="translate(1852.369 4705.893)">
      <path id="Path_1718" data-name="Path 1718" d="M361.889,209.839c1.3-.146,2.569-.112,3.873-.258-.352.45-.7.891-1.053,1.341A33.859,33.859,0,0,0,376.12,206.4a12.439,12.439,0,0,1-2.261,6.71,6.194,6.194,0,0,0,2.881-.519c-3.162,5.053-8.794,8.265-14.667,9.281s-12.008-.162-17.617-2.183a25.442,25.442,0,0,1-6.751-1.058,8.527,8.527,0,0,0-3.548,3.279A54.205,54.205,0,0,0,318,228.344a12.589,12.589,0,0,0-7.9-7.438,29.891,29.891,0,0,0,2.831,7.386,11.688,11.688,0,0,0,5.8,5.144,11.3,11.3,0,0,1-7.683,1.183,16.108,16.108,0,0,1-7.077-3.417,15.656,15.656,0,0,1-5.717-8.993,13.854,13.854,0,0,0-2.992-1.732,4.07,4.07,0,0,0-2.67-.372,3.171,3.171,0,0,0-1.781,1.539,9.342,9.342,0,0,0-.927,2.216,11.06,11.06,0,0,1-5.792-11.3,7.652,7.652,0,0,1,1.149-3.238,4.9,4.9,0,0,1,2.625-2.219c.125-.625.042-1.333.166-1.958a4.139,4.139,0,0,1,.807-4.456,1.422,1.422,0,0,1-1.269-1.219,3.8,3.8,0,0,1,.263-1.872,29.208,29.208,0,0,1,6.1-10.4,8.553,8.553,0,0,1,.131-5.972c.435.385.878.739,1.313,1.125a12.881,12.881,0,0,1,1.364-5.525c.368-.1.6-.094.972-.2a15.779,15.779,0,0,1,4.3-9.575c3.329-3.475,8.038-5.217,12.622-6.684s9.356-3.019,13.141-5.99a9.239,9.239,0,0,0,3.914,5.777,56.975,56.975,0,0,0,6.209,3.556c2.081,1.17,4.423,2.618,5.616,4.688a24.254,24.254,0,0,0,13.239-19.081,21.687,21.687,0,0,1,.339,32.74,36.5,36.5,0,0,1-9.686,5.915c.864.213,1.675.432,2.539.644q2.367,4.295,4.735,8.592a3.593,3.593,0,0,1-2.217,2.063,40.875,40.875,0,0,0,9.424,10.569Z" transform="translate(-283.996 -149.32)" fill="#020303"/>
      <path id="Path_1719" data-name="Path 1719" d="M497.31,199.777a6.311,6.311,0,0,1,.482-.667l.059-.073.117-.132.083-.092.117-.12.093-.094.12-.114.1-.091.123-.107.1-.088.127-.1.107-.084.13-.1.112-.081.133-.091.115-.076.136-.086.12-.075.138-.081.123-.07.141-.076.128-.068.143-.071.13-.065.146-.068.133-.062.148-.065.136-.058.149-.062.138-.055.151-.058.141-.052.153-.055.144-.05.153-.052.146-.047.154-.049.149-.045.153-.045.154-.044.153-.044.154-.042.151-.041.157-.041L503.6,196l.158-.039.151-.037.159-.037.149-.036.166-.037.143-.032.174-.037.136-.029.183-.039.125-.026.2-.041.109-.023c.075-.016.151-.031.226-.045l.081-.016.235-.047.07-.013c1.212-.239,2.425-.489,3.634-.763q1.21-.273,2.41-.579t2.388-.654c1.623-.477,3.219-1.024,4.78-1.654.3-.12.6-.245.893-.372.169-.073.338-.146.5-.221.3-.131.588-.268.88-.407.164-.078.328-.154.49-.234.305-.151.609-.308.911-.469.141-.075.284-.146.424-.222.437-.239.87-.485,1.3-.745.346-.209.685-.424,1.023-.648a27.524,27.524,0,0,0,5.477-4.743c.266-.3.526-.612.777-.929A22.756,22.756,0,0,0,534,179.8c.2-.354.388-.713.565-1.079a8.782,8.782,0,0,0,.357-.849c.036-.1.07-.195.1-.294a12.161,12.161,0,0,0,.325-1.195c.021-.1.042-.2.062-.3.078-.394.135-.782.173-1.151.02-.183.036-.364.047-.536,0-.086.009-.17.015-.253l.185.141.01.008a11.64,11.64,0,0,1,2.258,3.461,25.934,25.934,0,0,1,1.362,4q.131.523.239,1.055c.016.081.029.164.045.245.054.274.1.55.146.826.014.089.024.18.037.269.039.269.076.541.105.812.01.094.017.188.026.281.024.266.048.531.063.8,0,.028,0,.055.006.083,0,0,0,0,0,.008a20.138,20.138,0,0,1-.158,3.9,17.729,17.729,0,0,1-1.263,4.534,22.726,22.726,0,0,1-9.459,10.126,56.532,56.532,0,0,1-13.033,5.241,31.658,31.658,0,0,1-9.16,1.7,11.764,11.764,0,0,1-8.494-3.266,7.912,7.912,0,0,1-1.672-2.732c-.044-.122-.084-.245-.123-.368l-.023-.078c-.034-.115-.067-.23-.1-.347l-.007-.024c-.032-.13-.06-.261-.086-.393l-.007-.037c-.024-.128-.045-.258-.062-.388V204a6.351,6.351,0,0,1,.829-4.227Z" transform="translate(-461.938 -170.12)" fill="#cccbcb"/>
      <path id="Path_1720" data-name="Path 1720" d="M497.294,199.777a6.329,6.329,0,0,1,.482-.667l.059-.073.117-.132.083-.092.117-.12.093-.094.12-.114.1-.091.123-.107.1-.088.127-.1.107-.084.13-.1.112-.081.133-.091.115-.076.136-.086.12-.075.138-.081.123-.07.141-.076.128-.068.143-.071.13-.065.146-.068.133-.062.148-.065.136-.058.149-.062.138-.055.151-.058.141-.052.153-.055.144-.05.153-.052.146-.047.154-.049.149-.045.153-.045.154-.044.153-.044.154-.042.151-.041.157-.041.151-.039.158-.039.151-.037.159-.037.149-.036.166-.037.143-.032.174-.037.136-.029.183-.039.125-.026.2-.041.109-.023c.075-.016.151-.031.226-.045l.081-.016.235-.047.07-.013c1.213-.239,2.425-.489,3.634-.763q1.21-.273,2.41-.579t2.388-.654c1.623-.477,3.219-1.024,4.78-1.654.3-.12.6-.245.893-.372.169-.073.338-.146.5-.221.3-.131.588-.268.88-.407.164-.078.328-.154.49-.234.305-.151.609-.308.911-.469.141-.075.284-.146.424-.222.437-.239.87-.485,1.3-.745.346-.209.685-.424,1.023-.648a27.526,27.526,0,0,0,5.477-4.743c.266-.3.526-.612.778-.929a22.767,22.767,0,0,0,2.044-3.024c.2-.354.388-.713.565-1.079a8.767,8.767,0,0,0,.357-.849c.036-.1.07-.195.1-.294a12.146,12.146,0,0,0,.325-1.195c.021-.1.042-.2.062-.3.078-.394.135-.782.174-1.151.019-.183.036-.364.047-.536l.015-.253.185.141.01.008c.018.015.034.036.052.05a11.87,11.87,0,0,1,.958,3.03,20.6,20.6,0,0,1-.938,9.928,31.43,31.43,0,0,1-22.082,20.4,34.413,34.413,0,0,1-15.9-.1,8.1,8.1,0,0,1-1.047-1.964c-.044-.122-.084-.245-.123-.368l-.023-.078c-.034-.115-.067-.23-.1-.347l-.006-.024c-.032-.13-.06-.261-.086-.393l-.007-.037c-.024-.128-.045-.258-.062-.388V204a6.352,6.352,0,0,1,.83-4.227Z" transform="translate(-461.922 -170.12)" fill="#fff"/>
      <path id="Path_1721" data-name="Path 1721" d="M470.55,544.781a9.583,9.583,0,0,0-3.91,5.012,11.989,11.989,0,0,1,6.219,7.186c.82-5.991.347-9.726-2.307-12.2Z" transform="translate(-436.993 -480.589)" fill="#cccbcb"/>
      <path id="Path_1722" data-name="Path 1722" d="M323.89,503.072a6.616,6.616,0,0,0-3.066-4.089,2.024,2.024,0,0,1,.437-1.623,7.982,7.982,0,0,1,5.493,3.131,5.6,5.6,0,0,1-2.865,2.581Z" transform="translate(-314.817 -440.866)" fill="#fff"/>
      <path id="Path_1723" data-name="Path 1723" d="M382.786,390.44a9.447,9.447,0,0,1-3.313,3.363,4.257,4.257,0,0,1-1.563-1.433,21.081,21.081,0,0,1,4.876-1.928Z" transform="translate(-362.666 -351.301)" fill="#fff"/>
      <path id="Path_1724" data-name="Path 1724" d="M327.6,405.7a16.282,16.282,0,0,1-2.354-1.738,5.723,5.723,0,0,1-1.607-2.414,4.346,4.346,0,0,1,.248-3.175,2.088,2.088,0,0,0-1.378-1.151,1.974,1.974,0,0,0-1.7.377,3.685,3.685,0,0,0-.713.867,33.942,33.942,0,0,0-3.787,7.775c.472.352.924.765,1.4,1.119a10.485,10.485,0,0,1,6.48.415,2.445,2.445,0,0,0,.359-1.49,2.259,2.259,0,0,0-.626-1.333,3.032,3.032,0,0,1,1.828,2.23,7.482,7.482,0,0,1,2.138,1.263,14.11,14.11,0,0,1,2.987,3.707q.65,1.028,1.3,2.052a15.038,15.038,0,0,0-1.143-4.292,12.506,12.506,0,0,1,2.873,4.939c.2.667.339,1.349.481,2.029l1.753,8.455c1.534-1.372,3.027-2.753,4.561-4.124a24.473,24.473,0,0,0,2.808-2.8,8.185,8.185,0,0,0,1.753-3.519,13.518,13.518,0,0,1-2.683-8.707,8.364,8.364,0,0,1-1.518-1.674,8.512,8.512,0,0,0-3.6,3.147,25.489,25.489,0,0,0-2.118,4.358,10.905,10.905,0,0,1,.5-4.638,22.48,22.48,0,0,1,1.211-2.764q.82-1.665,1.643-3.332a12.3,12.3,0,0,1-2.143-3.948,3.687,3.687,0,0,0-3.117,1.573,3.544,3.544,0,0,0-.369,3.4,14.805,14.805,0,0,1-7.647-1.7,4.31,4.31,0,0,0,.573,2.8,12.014,12.014,0,0,0,1.617,2.3Z" transform="translate(-311.065 -356.938)" fill="#cccbcb"/>
      <path id="Path_1725" data-name="Path 1725" d="M303.8,482.113a4.946,4.946,0,0,0-5.027,4.259,10.453,10.453,0,0,1-2.214-4.29,8.156,8.156,0,0,1,.424-4.844,4.185,4.185,0,0,1,.924-1.411,2.289,2.289,0,0,1,1.519-.665,2.45,2.45,0,0,1,2.146,1.649,5.917,5.917,0,0,1,.2,2.842,4.869,4.869,0,0,0,4.1-1.347,3.16,3.16,0,0,0,1,2.732,5.73,5.73,0,0,1,.875-4.087,21.687,21.687,0,0,1,3.232,4.732,17.958,17.958,0,0,0-3.482-7.389,10.476,10.476,0,0,0-7.126-3.709,2.632,2.632,0,0,1,1.367-2.842,5.331,5.331,0,0,1,3.389-.424c3.8.58,7.01,3.287,9.053,6.54a35.348,35.348,0,0,1,3.962,10.76c.17.716.214,1.508.346,2.233a42.173,42.173,0,0,0,1.474,6.321,14.118,14.118,0,0,0,3.292,5.534,10.973,10.973,0,0,1-7.413-3,19.78,19.78,0,0,1-6.436-13.5,5.53,5.53,0,0,0-.805,3.3,10.69,10.69,0,0,0-7.265-1.36,3.989,3.989,0,0,1,2.464-2.027Z" transform="translate(-294.364 -415.623)" fill="#ac8414"/>
      <path id="Path_1726" data-name="Path 1726" d="M356.284,366a4.543,4.543,0,0,0,2.477,4.478,5.756,5.756,0,0,1,3.216-1.687,23.456,23.456,0,0,1,6.616-.656,7.813,7.813,0,0,0-3.573-1.479,24.664,24.664,0,0,0-4.431.032,8.392,8.392,0,0,1-4.3-.69Z" transform="translate(-344.531 -330.828)" fill="#e2b21b"/>
      <path id="Path_1727" data-name="Path 1727" d="M494.05,447.1a23.413,23.413,0,0,0,8.325,9.952,38.45,38.45,0,0,0,11.948,5.337,29.859,29.859,0,0,0,11.823,1.165,15.418,15.418,0,0,0,10.254-5.542,36.149,36.149,0,0,1-18.48-2.378c3.639.307,7.444.578,11.083.885a30.757,30.757,0,0,1-13.955-13.564,10.408,10.408,0,0,0-5.688,2.234,12.458,12.458,0,0,0,3.381,4.647,36.558,36.558,0,0,0,4.712,3.294,13.5,13.5,0,0,1-9.816-6.254c-.375.44-.617.883-.99,1.323a19.517,19.517,0,0,0,4.008,5.469,9.211,9.211,0,0,1-4.943-3.12c-.177.651-.307,1.333-.484,1.984A19.33,19.33,0,0,1,494.05,447.1Z" transform="translate(-459.954 -395.296)" fill="#ac8414"/>
      <path id="Path_1728" data-name="Path 1728" d="M633.69,440.364a33.9,33.9,0,0,0,15.872,13.825c.677.028,1.284.021,1.961.049a30.86,30.86,0,0,1-9.394-12.455,11.758,11.758,0,0,0-3.788-1.2,31.162,31.162,0,0,0,4.912,7.47,12.537,12.537,0,0,1-6.706-7.53c-.909.034-1.946-.192-2.855-.158Z" transform="translate(-576.928 -393.117)" fill="#ac8414"/>
      <path id="Path_1729" data-name="Path 1729" d="M712.407,531.749a21.371,21.371,0,0,1-9.9,5.571,28.739,28.739,0,0,0,7.985.237,18.164,18.164,0,0,0,7.244-2.232,10.677,10.677,0,0,0,4.813-5.715A33.369,33.369,0,0,1,712.407,531.749Z" transform="translate(-634.577 -467.881)" fill="#e2b21b"/>
      <path id="Path_1730" data-name="Path 1730" d="M418.36,311.892a17.526,17.526,0,0,0-16.078-1.583,2.328,2.328,0,0,0,.078-1.76,19.062,19.062,0,0,0-4.55,3.04,12.082,12.082,0,0,0-2.917,5.073,22.549,22.549,0,0,1-14-17.565c.232.313.964.287,1.334.165a1.556,1.556,0,0,0,.846-.769,4.269,4.269,0,0,0,.362-1.11,6.26,6.26,0,0,0,.2-1.547,2.331,2.331,0,0,0-.5-1.449,1.448,1.448,0,0,0-1.4-.51,11.4,11.4,0,0,1,6-4.685,11.056,11.056,0,0,1,7.493.182,11.056,11.056,0,0,0-8.95-1.523,11.536,11.536,0,0,0-7.128,5.941c-4.123.276-8.236.419-12.357.695-.49.033-.391.859-.422,1.349q-.112,1.768-.225,3.532c2.522.151,5.021.278,7.543.429,1.456.088,3.049.234,4.086,1.26a7.42,7.42,0,0,1,1.471,3.12,17.39,17.39,0,0,0,4.264,6.9c3.836,3.8,7.942,7.467,13.055,9.194,1.346-2.735,2.834-5.533,5.262-7.376a13.82,13.82,0,0,1,4.336-2.091,17.141,17.141,0,0,1,6.232-.8,11.539,11.539,0,0,1,5.957,1.889Z" transform="translate(-352.815 -265.051)" fill="#2770b6"/>
      <path id="Path_1731" data-name="Path 1731" d="M407.243,200.242c1.2,2.384,3.577,3.927,5.933,5.18s4.863,2.38,6.692,4.323c-.372.122-.721.1-1.092.222-1.643-1.635-3.844-2.544-5.938-3.535a15.1,15.1,0,0,1-5.657-3.93,26.778,26.778,0,0,1,.537,10.513,16.321,16.321,0,0,0-9.927-.261,12.084,12.084,0,0,0-7.813,6.4,6.226,6.226,0,0,1-2.716.088,14.288,14.288,0,0,1,4.569-8.262,28.255,28.255,0,0,1,4.688-3.128,18.9,18.9,0,0,0-10.736,4.918,13.38,13.38,0,0,0-1.956,2.3,10.392,10.392,0,0,0-1.612,4.4c-.765.115-1.414.164-2.177.279a16.149,16.149,0,0,1,5.555-9.837c3.048-2.548,6.931-3.832,10.739-4.967a38.861,38.861,0,0,0,10.908-4.7Z" transform="translate(-364.45 -191.975)" fill="#2770b6"/>
      <path id="Path_1732" data-name="Path 1732" d="M490.909,328.547a8.578,8.578,0,0,1-3.73-.748,2.924,2.924,0,0,1-1.615-3.16,2.969,2.969,0,0,1,2.2-1.87,11,11,0,0,1,3.013-.14,28.875,28.875,0,0,0,20.491-7.871,39.473,39.473,0,0,1-22.528,5.04,5.52,5.52,0,0,1-3.551-1.211,2.932,2.932,0,0,1,1.191-4.881c-1.774-.335-3.352.709-4.48,2.118a8.542,8.542,0,0,0-.4,9.84C483.468,328.576,487.544,329.557,490.909,328.547Z" transform="translate(-448.297 -286.97)" fill="#020303"/>
      <path id="Path_1733" data-name="Path 1733" d="M320.1,398.48a3.716,3.716,0,0,1,.713-.867,1.974,1.974,0,0,1,1.7-.377,2.089,2.089,0,0,1,1.378,1.151,4.338,4.338,0,0,0-.248,3.175,5.733,5.733,0,0,0,1.607,2.414,16.37,16.37,0,0,0,2.354,1.738,11.881,11.881,0,0,1-1.617-2.3,4.3,4.3,0,0,1-.571-2.8,14.811,14.811,0,0,0,7.647,1.7,3.544,3.544,0,0,1,.369-3.4,3.921,3.921,0,0,1,.774-.792,14.394,14.394,0,0,0,2.545,7.106,18.334,18.334,0,0,0-.914,2.157,10.878,10.878,0,0,0-.5,4.637,25.491,25.491,0,0,1,2.118-4.358,9.509,9.509,0,0,1,.6-.815,13.551,13.551,0,0,0,2.079,1.811A10.614,10.614,0,0,1,335.4,421.81q-.509-2.459-1.019-4.917c-.141-.68-.282-1.362-.48-2.029a12.508,12.508,0,0,0-2.873-4.939,15.043,15.043,0,0,1,1.143,4.292l-1.3-2.052a14.113,14.113,0,0,0-2.987-3.707,7.483,7.483,0,0,0-2.138-1.263,3.035,3.035,0,0,0-1.828-2.23,2.254,2.254,0,0,1,.626,1.333,2.447,2.447,0,0,1-.359,1.49,10.487,10.487,0,0,0-6.48-.416c-.472-.352-.923-.765-1.4-1.119a33.931,33.931,0,0,1,3.787-7.775Z" transform="translate(-311.065 -356.947)" fill="#fff"/>
      <path id="Path_1734" data-name="Path 1734" d="M676.653,485.556c.159.078.32.156.482.226-.073-.084-.145-.172-.216-.258a20.736,20.736,0,0,1,2.333-.123,28.9,28.9,0,0,0,6.154,6.569c-.677-.027-1.284-.021-1.961-.049a33.711,33.711,0,0,1-9.3-5.894,20.6,20.6,0,0,1,2.511-.471Z" transform="translate(-610.812 -430.847)" fill="#e2b21b"/>
      <path id="Path_1735" data-name="Path 1735" d="M531.963,473.895a11.444,11.444,0,0,1-3.232-3.54,8.279,8.279,0,0,1,.745-1.222,13.572,13.572,0,0,0,6.538,2.66A36.534,36.534,0,0,1,531.3,468.5c-.239-.208-.469-.427-.693-.652a10.109,10.109,0,0,1,5.227-2.617,30.053,30.053,0,0,0,11.728,9.952c-3.638-.307-7.444-.578-11.083-.885a36.151,36.151,0,0,0,18.48,2.378,15.419,15.419,0,0,1-10.254,5.542,29.859,29.859,0,0,1-11.823-1.165,38.462,38.462,0,0,1-11.948-5.337,26.014,26.014,0,0,1-4.725-4.23,32.972,32.972,0,0,0,15.752,2.412Z" transform="translate(-478.517 -413.952)" fill="#e2b21b"/>
      <path id="Path_1736" data-name="Path 1736" d="M296.983,477.238a4.187,4.187,0,0,1,.924-1.41,2.287,2.287,0,0,1,1.519-.666,2.45,2.45,0,0,1,2.146,1.649,5.917,5.917,0,0,1,.2,2.842,4.869,4.869,0,0,0,4.1-1.347,3.161,3.161,0,0,0,1,2.732,5.729,5.729,0,0,1,.875-4.087,21.7,21.7,0,0,1,3.232,4.732,17.96,17.96,0,0,0-3.482-7.389,10.476,10.476,0,0,0-7.126-3.709,2.632,2.632,0,0,1,1.367-2.842,5.33,5.33,0,0,1,3.389-.424,10.746,10.746,0,0,1,2.923.9c.521.7,1.357,1.3,1.816,1.831a17.959,17.959,0,0,1,2.459,3.759,26.126,26.126,0,0,1,1.808,4.855c1.172,4.342,1.516,8.867,2.571,13.24a12.575,12.575,0,0,0,2.669,5.765c.144.154.3.3.454.438a12.055,12.055,0,0,1-3.99-2.405,19.78,19.78,0,0,1-6.436-13.5,5.53,5.53,0,0,0-.805,3.3,10.69,10.69,0,0,0-7.265-1.36,3.989,3.989,0,0,1,2.464-2.027,4.945,4.945,0,0,0-5.027,4.259,10.456,10.456,0,0,1-2.214-4.29,8.158,8.158,0,0,1,.424-4.844Z" transform="translate(-294.364 -415.623)" fill="#e2b21b"/>
    </g>
    <path id="Path_1737" data-name="Path 1737" d="M334.782,579.784a4.474,4.474,0,0,0-2.948-.482,1.606,1.606,0,0,0-.645.237.712.712,0,0,0-.321.581c.015.37.38.615.714.776a8.375,8.375,0,0,0,3.928.92c1.813-.105.028-1.615-.727-2.034Z" transform="translate(1529.109 4196.445)" fill="#020303"/>
    <path id="Path_1738" data-name="Path 1738" d="M445.633,583.64a5.569,5.569,0,0,0-3.118-1.953,1.607,1.607,0,0,0-1.459.221,1.878,1.878,0,0,0-.305,1.633,4.955,4.955,0,0,0,.924,2.74,3.306,3.306,0,0,0,2.281.994c.667.042,2.321.1,2.72-.626.451-.818-.558-2.4-1.044-3.008Z" transform="translate(1437.104 4194.448)" fill="#020303"/>
    <path id="Path_1739" data-name="Path 1739" d="M544.088,572.3c-2.881-1.013-5.935-1.849-8.96-1.432a22.355,22.355,0,0,0-6.049,2.06l-9.4,4.241c2.563,1.644,5.777,1.776,8.82,1.859l6.516.175a12.514,12.514,0,0,0,2.959-.156c.935-.2,1.812-.615,2.725-.894a9.965,9.965,0,0,1,6.037.076c1.2.4,2.432,1.04,3.659.737,1.646-.408,3.75-3.247,1.44-4.18-1.187-.48-2.54-.657-3.763-1.065-1.339-.448-2.655-.955-3.986-1.422Z" transform="translate(1370.945 4203.545)" fill="#020303"/>
  </g>
</svg>
