<svg id="Group_142" data-name="Group 142" xmlns="http://www.w3.org/2000/svg" width="42.647" height="48.664" viewBox="0 0 42.647 48.664">
  <path id="Path_739" data-name="Path 739" d="M274.192,72.636l-6.742,12.679-4.185-6.888H254.9l7.039-12.7a18.01,18.01,0,0,0,12.25,6.906" transform="translate(-254.903 -36.651)" fill="#e81c1b"/>
  <path id="Path_740" data-name="Path 740" d="M326.992,78.427h-8.357l-4.185,6.888L307.7,72.636a18.02,18.02,0,0,0,12.255-6.906Z" transform="translate(-284.344 -36.651)" fill="#e81c1b"/>
  <path id="Path_741" data-name="Path 741" d="M280.353,0A18.051,18.051,0,1,0,298.4,18.05,18.052,18.052,0,0,0,280.353,0M267.966,18.05a12.387,12.387,0,1,1,12.387,12.387A12.389,12.389,0,0,1,267.966,18.05" transform="translate(-259.029)" fill="#ea7c47"/>
  <path id="Path_742" data-name="Path 742" d="M299.877,25.187A12.387,12.387,0,1,1,287.49,12.8a12.384,12.384,0,0,1,12.387,12.387" transform="translate(-266.167 -7.137)" fill="#fec001"/>
  <path id="Path_743" data-name="Path 743" d="M299.877,25.187A12.387,12.387,0,1,1,287.49,12.8a12.384,12.384,0,0,1,12.387,12.387" transform="translate(-266.167 -7.137)" fill="#d67142"/>
  <ellipse id="Ellipse_62" data-name="Ellipse 62" cx="12.387" cy="12.387" rx="12.387" ry="12.387" transform="translate(8.937 5.663)" fill="none" stroke="#bd643a" stroke-miterlimit="10" stroke-width="1"/>
</svg>
