<svg xmlns="http://www.w3.org/2000/svg" width="110.265" height="144.51" viewBox="0 0 110.265 144.51">
  <g id="Group_3932" data-name="Group 3932" transform="translate(-349.835 -2869.403)">
    <path id="Path_107" data-name="Path 107" d="M400.177,472.138l-1.535-.688-.515-.661c-21.271-27.346-19.63-61.137-18.318-72.6H357.064c1.314,11.459,2.954,45.25-18.316,72.6l-.515.661-1.537.688Z" transform="translate(36.527 2516.656)" fill="none"/>
    <path id="Path_108" data-name="Path 108" d="M354.936,410.038h30.634c2.416-9.845,8.258-24.525,11.348-31.994h-5.771v8.39H371.191v-8.39h-7.624v8.39H343.613v-8.39h-5.769c3.09,7.47,8.932,22.149,11.348,31.994h5.744Z" transform="translate(37.584 2498.085)" fill="none"/>
    <path id="Path_109" data-name="Path 109" d="M331.016,440.172l-2.251,11.667h93.968l-2.253-11.667Z" transform="translate(29.219 2555.349)" fill="none"/>
    <path id="Path_110" data-name="Path 110" d="M430.135,494.94,414.148,487.8C394.66,462.148,396.7,429.56,397.823,419.99h5.5l.526-2.727c2.323-12.076,13.389-37.765,13.5-38.023l2.029-4.7H396.7v8.39h-6.5v-8.39H369.119v8.39h-6.5v-8.39H339.94l2.029,4.7c.11.258,11.175,25.945,13.5,38.021l.525,2.729h5.5c1.119,9.57,3.161,42.158-16.325,67.809l-15.988,7.143-4.652,24.112H434.789Zm-68.666-81.676c-2.416-9.845-8.257-24.525-11.348-31.994h5.769v8.39h19.955v-8.39h7.623v8.39h19.955v-8.39h5.771c-3.09,7.47-8.932,22.149-11.348,31.994H361.469Zm-11.5,79.322c21.269-27.346,19.63-61.137,18.316-72.6h22.745c-1.313,11.459-2.954,45.25,18.318,72.6l.515.661,1.536.688H347.915l1.537-.688Zm-17.293,19.742,2.25-11.667h89.465l2.252,11.667Z" transform="translate(25.311 2494.859)" fill="#5a1024"/>
  </g>
</svg>
