<svg xmlns="http://www.w3.org/2000/svg" width="172" height="174" viewBox="0 0 172 174">
  <g id="Group_3948" data-name="Group 3948" transform="translate(-2508 -4676)">
    <rect id="Rectangle_175" data-name="Rectangle 175" width="172" height="174" transform="translate(2508 4676)" fill="none"/>
    <g id="Group_1066" data-name="Group 1066" transform="translate(2532.533 4766.857)">
      <path id="Path_1450" data-name="Path 1450" d="M277.5,599.061a17.133,17.133,0,0,0-3.31-10.026,3.781,3.781,0,0,0,2.561-3.686V575.93a5.59,5.59,0,0,0-4.364-5.268q-2.306-.432-4.62-.83a3.968,3.968,0,0,0-1.437.008,11.364,11.364,0,0,0-3.413-1.081,8.525,8.525,0,0,0-7.95,2.75,10,10,0,0,0-1.378,2.008c-2.691-4.368-6.6-7.091-11.084-7.487-4.663-.416-8.738,1.827-11.461,6.256q-.238.386-.461.793a12.612,12.612,0,0,0-3.833-4.808A15.289,15.289,0,0,0,217.5,565.4q-5.411-.031-10.82.128a4.74,4.74,0,0,0-4.3,3.932,11.482,11.482,0,0,0-9.444-3.756c-4.667.352-8.721,3.246-11.42,7.938a29.355,29.355,0,0,0-3.5,12.612q-2.167.18-4.332.381a4.277,4.277,0,0,0-.822.158q0-2.1-.008-4.208a5.265,5.265,0,0,0,3.4-4.94q0-2.491-.011-4.982a3.886,3.886,0,0,0-4.406-4.115q-6.76.976-13.484,2.254a5.6,5.6,0,0,0-4.363,5.266v4.653a3.675,3.675,0,0,0,2.726,3.673q0,6.887.006,13.774a4.981,4.981,0,0,0-2.734,4.348v4.652a4.172,4.172,0,0,0,4.395,4.2l1.206-.052a17.4,17.4,0,0,0-.362,3.825,12.231,12.231,0,0,0,.9,5.158,6.01,6.01,0,0,0,5.5,3.686,5.625,5.625,0,0,0,2.357-.522,5.7,5.7,0,0,0,2.395.522,5.636,5.636,0,0,0,1.761-.278,4.228,4.228,0,0,0,1.04.131h2.169a4.157,4.157,0,0,1,1.229,0h.941a4.121,4.121,0,0,0,1.085-.145,4.119,4.119,0,0,0,1.085.145h2.526a4.024,4.024,0,0,1,1.149,0h2.262c.058,0,.115,0,.173,0l.173,0h2.262c.1,0,.192,0,.286-.011s.19.011.286.011h1.872a7,7,0,0,0,1.8-.229,4.056,4.056,0,0,0,1.337.229H196.3c.106,0,.211-.006.315-.014.1.008.21.014.315.014h3.857c.091,0,.181,0,.27-.009s.179.009.27.009h2.491c.13,0,.257-.008.384-.019a3.8,3.8,0,0,0,.384.019h1.561a6.84,6.84,0,0,0,1.725-.216,3.972,3.972,0,0,0,1.294.216h2.262c.058,0,.115,0,.173,0l.173,0h2.262c.122,0,.242-.006.362-.017.12.011.24.017.362.017h1.561a6.368,6.368,0,0,0,4.014-1.358,4.151,4.151,0,0,0,3.033,1.358h2.389a4.127,4.127,0,0,0,2.79-1.11,4.112,4.112,0,0,0,2.789,1.11h2.5a4,4,0,0,1,1.905,0h2.491c.11,0,.219-.006.326-.014q.163.014.326.014h2.169a4.134,4.134,0,0,1,1.229,0h.941a3.948,3.948,0,0,1,1,0h2.262c.058,0,.115,0,.173,0s.115,0,.173,0H249.1c.1,0,.2,0,.3-.013.1.008.2.013.3.013h2.169a4.134,4.134,0,0,1,1.229,0h.941a4.064,4.064,0,0,1,1.262,0h3.387c.1,0,.2,0,.293-.011s.194.011.293.011h2.262c.058,0,.115,0,.173,0l.173,0h2.261c.144,0,.285-.008.424-.02a4.149,4.149,0,0,0,.424.022h.685a5.454,5.454,0,0,0,1.243.144c3.307-.013,5.9-2.891,5.9-6.548a8.216,8.216,0,0,0-.49-2.795,4.5,4.5,0,0,0,.2-1.315q0-1.286,0-2.573a4.656,4.656,0,0,0-.149-1.169,12.359,12.359,0,0,0,5.113-10.52Z" transform="translate(-153.99 -565.398)"/>
      <g id="Group_1064" data-name="Group 1064" transform="translate(4.371 4.93)">
        <path id="Path_1451" data-name="Path 1451" d="M181.331,643.2l2.737-.208q-.012-11.183-.026-22.366-1.365.2-2.729.418,0-2.364,0-4.728,6.727-1.171,13.49-2.064,0,2.465.01,4.929-1.7.2-3.4.422.022,11.44.043,22.881,2.609-.166,5.222-.315-.01-4.9-.021-9.809,2.765-.223,5.534-.419.017,7.476.032,14.949-10.453.4-20.883,1.037,0-2.364,0-4.728Z" transform="translate(-181.31 -611.365)" fill="#fff"/>
        <path id="Path_1452" data-name="Path 1452" d="M341.773,597.588c6.487-.457,10.68,6.451,10.689,17.323s-4.153,17.941-10.626,18.075-10.653-6.548-10.676-17.093,4.128-17.826,10.613-18.3Zm.01,5.769c-2,.126-2.528,1.921-2.509,12.053s.555,11.868,2.55,11.807,2.526-1.836,2.509-12.039-.554-11.941-2.552-11.82Z" transform="translate(-307.186 -597.35)" fill="#fff"/>
        <path id="Path_1453" data-name="Path 1453" d="M483.4,625.884q1.109-.014,2.219-.024-.007-12.189-.014-24.376c-.741.015-1.483.029-2.224.048q0-2.6,0-5.2,5.406-.147,10.815-.118c4.808.016,10.057,2.184,10.049,9.3,0,3.608-1.516,6.082-4.318,7.129a8.686,8.686,0,0,1,4.88,8.3c-.008,6.419-4.093,10.1-11.1,10.1q-5.148-.007-10.3.042,0-2.6,0-5.2Zm9.634-15.037c2.579,0,3.779-.624,3.78-4.64,0-4.46-1.333-5.078-3.78-5.033v9.674Zm0,14.981c2.709,0,4.084-.283,4.086-5.043,0-4.807-1.6-5.223-4.086-5.177Z" transform="translate(-435.053 -596.214)" fill="#fff"/>
        <path id="Path_1454" data-name="Path 1454" d="M651.088,599.385c6.483.562,10.626,7.847,10.6,18.291s-4.2,17.056-10.673,16.909-10.632-7.209-10.62-18.062,4.2-17.678,10.688-17.139Zm-.011,5.737c-2-.144-2.534,1.582-2.552,11.733s.51,11.924,2.505,11.994,2.531-1.649,2.552-11.72S653.075,605.27,651.077,605.123Z" transform="translate(-566.952 -598.852)" fill="#fff"/>
        <path id="Path_1455" data-name="Path 1455" d="M794.873,636.854q2.322.16,4.646.341c-.141,4.059.829,6.033,2.731,6.151,1.547.1,2.345-1.136,2.349-3.067.011-5.689-9.977-9.095-9.959-18.2.01-4.646,2.673-7.644,6.425-7.1,2.427.351,3.44,1.437,4.848,3.024,0-.672,0-1.346,0-2.017q2.313.365,4.622.76,0,4.785-.008,9.572-2.313-.319-4.628-.611c.093-3.836-.918-5.313-2.638-5.55-1.235-.168-2.032.66-2.035,2.148a5.653,5.653,0,0,0,1.539,3.758c1.1,1.285,2.468,2.461,4.232,4.489,3.084,3.55,4.271,6.316,4.27,9.692,0,4.889-2.966,8.31-6.991,8.119a6.426,6.426,0,0,1-4.774-2.574c0,.685,0,1.371-.005,2.056q-2.323-.113-4.648-.213Q794.863,642.244,794.873,636.854Z" transform="translate(-696.516 -611.924)" fill="#fff"/>
      </g>
      <g id="Group_1065" data-name="Group 1065" transform="translate(9.644 44.036)">
        <path id="Path_1456" data-name="Path 1456" d="M218.023,852.28c-.008,1.768-.614,3-1.762,3.015-1.342.016-1.987-1.411-1.992-4.39,0-2.789.475-4.627,1.713-4.681a.939.939,0,0,1,.918.538h.022v-.43l1.021-.041q0,1.435,0,2.87l-1.021.032c0-1.15-.256-1.835-.76-1.816s-.6.416-.59,3.337c0,2.766.131,3.432.705,3.422.4-.006.71-.443.7-2.131.349.091.7.184,1.045.277Z" transform="translate(-214.27 -845.332)" fill="#fff"/>
        <path id="Path_1457" data-name="Path 1457" d="M244.09,849.695c-.006-3.744,1.035-4.665,1.953-4.7s1.952.84,1.96,4.6c0,2.68-.507,4.586-1.942,4.6C244.821,854.214,244.1,852.958,244.09,849.695Zm2.6,0c0-2.573-.1-3.541-.65-3.521-.528.019-.653.881-.646,3.54,0,2.576.155,3.323.661,3.315s.641-.762.637-3.334Z" transform="translate(-239.319 -844.298)" fill="#fff"/>
        <path id="Path_1458" data-name="Path 1458" d="M273.816,852.325c.192,0,.382-.007.574-.008q-.007-3.41-.014-6.819c-.192.007-.382.013-.574.018,0-.361,0-.724,0-1.086l1.87-.064q.509,1.695,1.017,3.395.267,1.24.533,2.485h.035q-.067-1.365-.133-2.728c0-.7,0-1.4,0-2.1l-.574.018c0-.365,0-.73,0-1.093q1.085-.036,2.169-.069c0,.366,0,.733,0,1.1l-.574.016q.009,3.988.018,7.977c-.314,0-.627.006-.941.011q-.607-2.011-1.214-4.009-.331-1.41-.661-2.816h-.034q.048,1.371.1,2.741,0,1.507.006,3.014l.574-.008c0,.363,0,.728,0,1.091l-2.169.025c0-.362,0-.725,0-1.086Z" transform="translate(-264.276 -843.691)" fill="#fff"/>
        <path id="Path_1459" data-name="Path 1459" d="M312.97,846.74l-.9.019q0-1.188,0-2.378c-.237.007-.475.013-.712.018q.007,3.538.016,7.075l.665-.008q0,.554,0,1.109-1.262.011-2.526.025c0-.368,0-.734,0-1.1l.665-.008q-.007-3.528-.016-7.057l-.712.02q0,1.183,0,2.366l-.9.021q0-1.663-.008-3.324,2.2-.067,4.409-.125,0,1.677.008,3.355Z" transform="translate(-293.467 -842.952)" fill="#fff"/>
        <path id="Path_1460" data-name="Path 1460" d="M339.253,850.863c.179,0,.36,0,.539-.006,0,.372,0,.744,0,1.115l-2.262.021c0-.369,0-.74,0-1.11l.528-.006q.458-3.49.915-6.992l-.586.014c0-.371,0-.74,0-1.112q1.562-.041,3.123-.077,0,.559,0,1.118l-.585.013q.473,3.492.944,6.995l.528,0c0,.373,0,.747,0,1.12l-2.262.019c0-.371,0-.744,0-1.115l.539,0q-.105-1.047-.211-2.093l-1.011.015q-.1,1.047-.2,2.093Zm1.129-3.222q-.182-2.053-.365-4.1c-.047,0-.091,0-.138,0q-.173,2.059-.347,4.116l.85-.013Z" transform="translate(-317.81 -842.381)" fill="#fff"/>
        <path id="Path_1461" data-name="Path 1461" d="M372.1,843.4l-.643.013c0-.374,0-.747,0-1.121q.941-.022,1.883-.04a2.109,2.109,0,0,1,2.256,2.363c0,1.128-.491,1.882-1.283,1.981v.026c.907.164,1.483,1.058,1.486,2.286a2.34,2.34,0,0,1-2.453,2.64l-1.872.014c0-.374,0-.747,0-1.121l.643-.006q-.007-3.518-.015-7.035Zm1.2,2.729c.563-.021,1.091-.054,1.088-1.37,0-1.15-.325-1.4-1.094-1.384q0,1.377,0,2.753Zm.008,4.294c.872-.008,1.251-.466,1.25-1.566,0-1.619-.784-1.622-1.254-1.6q0,1.584.006,3.169Z" transform="translate(-346.312 -841.99)" fill="#fff"/>
        <path id="Path_1462" data-name="Path 1462" d="M402.773,849.866l.643,0q0-3.542-.011-7.083c-.214,0-.429.006-.643.011q0-.564,0-1.128,1.245-.022,2.492-.042,0,.566,0,1.133l-.654.01q0,3.547.011,7.092c.218,0,.437,0,.654-.005q0,.566,0,1.133l-2.491.014q0-.564,0-1.128Z" transform="translate(-372.605 -841.465)" fill="#fff"/>
        <path id="Path_1463" data-name="Path 1463" d="M422.295,849.61c.2,0,.406,0,.608,0q0-3.554-.011-7.107l-.609.008q0-.567,0-1.133,1.224-.019,2.448-.035v1.136l-.643.008q0,3.556.01,7.114l1.033-.006c0-.983,0-1.966,0-2.948l1.022-.008q0,2.044,0,4.087-1.929.008-3.859.019,0-.566,0-1.133Z" transform="translate(-389.002 -841.23)" fill="#fff"/>
        <path id="Path_1464" data-name="Path 1464" d="M449.818,849.307c.214,0,.429,0,.643,0q0-3.568-.008-7.135l-.643.006v-1.137q1.248-.015,2.494-.027v1.139c-.218,0-.437,0-.654.007q0,3.571.008,7.142c.217,0,.437,0,.654,0v1.139l-2.492.009v-1.137Z" transform="translate(-412.127 -840.952)" fill="#fff"/>
        <path id="Path_1465" data-name="Path 1465" d="M470.216,849.181c.206,0,.413,0,.621,0q0-3.576-.006-7.151l-.621,0v-1.141l1.528-.012c1.747-.014,2.76,1.176,2.761,4.743,0,3.235-.893,4.688-2.718,4.692-.52,0-1.042,0-1.561,0v-1.141Zm1.814-.006c.861-.016,1.16-.877,1.158-3.392,0-2.888-.278-3.784-1.163-3.764q0,3.577.006,7.156Z" transform="translate(-429.263 -840.842)" fill="#fff"/>
        <path id="Path_1466" data-name="Path 1466" d="M500.613,849h.539v1.144q-1.13,0-2.262,0V849h.528q.463-3.583.928-7.169c-.2,0-.39,0-.586,0v-1.142q1.562-.007,3.126-.011v1.144H502.3q.466,3.585.933,7.17h.528v1.144q-1.13,0-2.262,0V849h.539q-.1-1.072-.208-2.145c-.338,0-.673,0-1.011,0L500.613,849Zm1.136-3.291q-.178-2.107-.358-4.214h-.138q-.177,2.106-.355,4.215c.283,0,.566,0,.85,0Z" transform="translate(-453.355 -840.675)" fill="#fff"/>
        <path id="Path_1467" data-name="Path 1467" d="M533.85,848.968h.621v-7.174h-.621V840.65h1.529c1.747,0,2.758,1.2,2.757,4.772,0,3.238-.9,4.69-2.723,4.69h-1.561v-1.144Zm1.814,0c.861-.013,1.16-.873,1.16-3.393,0-2.893-.275-3.792-1.16-3.78Z" transform="translate(-482.722 -840.65)" fill="#fff"/>
        <path id="Path_1468" data-name="Path 1468" d="M580.827,849.061c.2,0,.4,0,.6,0q0-1.515,0-3.029-.681-2.069-1.365-4.139c-.181,0-.36,0-.541,0V840.75c.763,0,1.524.008,2.288.014v1.142c-.184,0-.368,0-.552,0q.389,1.272.779,2.545h.022q.363-1.267.726-2.534c-.181,0-.36,0-.541,0v-1.141q1.087.007,2.173.017v1.141c-.181,0-.36,0-.541,0q-.629,2-1.256,4,0,1.572,0,3.142c.2,0,.4,0,.6,0v1.141l-2.389-.006v-1.142Z" transform="translate(-521.086 -840.734)" fill="#fff"/>
        <path id="Path_1469" data-name="Path 1469" d="M637.485,849.522c.2,0,.406,0,.608,0q0-3.562.01-7.121l-.609-.008V841.26q1.953.024,3.907.056c0,.912,0,1.822,0,2.734l-1.022-.013c0-.534,0-1.071,0-1.6l-1.08-.014q0,1.42,0,2.843l.885.009q0,.567,0,1.133c-.294,0-.59-.007-.885-.008,0,1.045,0,2.091,0,3.136.234,0,.467,0,.7,0,0,.378,0,.755,0,1.134l-2.5-.013v-1.136Z" transform="translate(-569.773 -841.163)" fill="#fff"/>
        <path id="Path_1470" data-name="Path 1470" d="M665.063,849.9c.214,0,.429,0,.643,0q0-3.545.011-7.088l-.643-.01c0-.378,0-.753,0-1.131q1.245.019,2.493.043,0,.564,0,1.128l-.654-.011q-.007,3.54-.012,7.078l.654,0q0,.565,0,1.128l-2.493-.014c0-.378,0-.753,0-1.131Z" transform="translate(-592.941 -841.515)" fill="#fff"/>
        <path id="Path_1471" data-name="Path 1471" d="M684.732,850.211c.192,0,.383,0,.574.005q.008-3.53.013-7.06l-.574-.01c0-.376,0-.752,0-1.126q.936.017,1.872.037.5,1.771,1,3.539.262,1.284.523,2.566h.035q-.06-1.4-.122-2.8c0-.718,0-1.437.005-2.155l-.575-.011c0-.374,0-.748,0-1.123.723.016,1.448.03,2.171.048q0,.559,0,1.118l-.574-.011q-.007,4.07-.016,8.142l-.941-.008q-.6-2.071-1.2-4.15-.323-1.461-.649-2.928h-.035q.043,1.416.086,2.832,0,1.555-.006,3.109l.574,0c0,.374,0,.749,0,1.123l-2.169-.015C684.73,850.962,684.73,850.585,684.732,850.211Z" transform="translate(-609.464 -841.801)" fill="#fff"/>
        <path id="Path_1472" data-name="Path 1472" d="M719.825,850.976c.179,0,.36,0,.539.007,0,.371,0,.742,0,1.113l-2.262-.019q0-.559,0-1.118l.528,0q.473-3.5.944-6.983l-.585-.013c0-.373,0-.744,0-1.117q1.563.038,3.123.078c0,.37,0,.741,0,1.11l-.586-.014q.458,3.5.915,6.979l.528.006c0,.37,0,.739,0,1.109L720.7,852.1q0-.557,0-1.114c.179,0,.36,0,.539.006q-.1-1.044-.2-2.089l-1.011-.014q-.106,1.044-.211,2.089Zm1.144-3.188q-.173-2.054-.347-4.109c-.046,0-.091,0-.138,0q-.183,2.047-.365,4.1l.849.014Z" transform="translate(-637.495 -842.498)" fill="#fff"/>
        <path id="Path_1473" data-name="Path 1473" d="M752.34,851.639l.574.006q.007-3.468.014-6.934l-.574-.014c0-.37,0-.737,0-1.107l1.872.053q.5,1.742,1,3.48.262,1.26.523,2.52h.035q-.06-1.373-.12-2.745c0-.7,0-1.408,0-2.112-.192,0-.382-.011-.574-.016,0-.366,0-.734,0-1.1.723.022,1.446.043,2.169.067,0,.365,0,.731,0,1.1l-.574-.016q-.009,3.989-.017,7.975l-.941-.01q-.6-2.032-1.2-4.075-.324-1.437-.648-2.876h-.033q.043,1.389.086,2.779,0,1.526-.006,3.051l.575.006c0,.368,0,.734,0,1.1l-2.17-.022c0-.369,0-.738,0-1.107Z" transform="translate(-666.257 -843.12)" fill="#fff"/>
        <path id="Path_1474" data-name="Path 1474" d="M787.333,852.679q1.08-3.447,2.161-6.854l-1.045-.032c0,.634,0,1.267,0,1.9-.341-.01-.681-.017-1.021-.025q0-1.5.007-3,1.646.053,3.292.11,0,.542,0,1.085-1.085,3.368-2.172,6.771l1.147.016c0-.635,0-1.27,0-1.907.341.006.682.013,1.021.021q0,1.492-.007,2.987-1.692-.022-3.385-.04,0-.516,0-1.032Z" transform="translate(-695.649 -844.027)" fill="#fff"/>
        <path id="Path_1475" data-name="Path 1475" d="M813.893,853.551l.539.008c0,.358,0,.718,0,1.077l-2.261-.029c0-.362,0-.722,0-1.083l.528.008q.473-3.384.942-6.752l-.586-.019c0-.36,0-.72,0-1.082q1.56.057,3.12.117c0,.357,0,.715,0,1.072l-.586-.021q.458,3.382.917,6.745l.528.009c0,.357,0,.712,0,1.068l-2.261-.03q0-.538,0-1.075c.179,0,.36.006.539.008q-.1-1.01-.2-2.02l-1.01-.022q-.106,1.008-.211,2.019Zm1.142-3.073q-.175-1.984-.348-3.974l-.138,0q-.183,1.977-.363,3.958Z" transform="translate(-716.515 -844.875)" fill="#fff"/>
        <path id="Path_1476" data-name="Path 1476" d="M847.534,852.151l1.021.024v.813c0,.931.158,1.281.629,1.29.355.006.6-.323.6-.847a3.114,3.114,0,0,0-.629-1.753l-.573-.766a4.013,4.013,0,0,1-1.12-2.726c0-1.15.554-1.944,1.333-1.91a1.131,1.131,0,0,1,.848.44v-.262l1.021.043c0,.87,0,1.741,0,2.611l-1.021-.035V848.4c0-.654-.136-1.029-.56-1.047-.366-.014-.493.3-.495.626a2.685,2.685,0,0,0,.616,1.6l.561.744a4.821,4.821,0,0,1,1.189,2.952c0,1.208-.633,2.088-1.494,2.076a1.2,1.2,0,0,1-.905-.43v.275l-1.021-.014Q847.531,853.666,847.534,852.151Z" transform="translate(-746.159 -845.374)" fill="#fff"/>
      </g>
      <path id="Path_1477" data-name="Path 1477" d="M808.944,713.16c2.353,2.51,4.574,4.84,4.569,7.935-.005,2.731-1.416,4.4-3.6,4.277a3.556,3.556,0,0,1-2.528-1.248c-.907-1.048-1.385-2.688-1.452-4.984q-1.076-.077-2.149-.15-.01,4.044-.018,8.089,1.075.05,2.151.106v-.741a1.237,1.237,0,0,1,.773-1.177,1.145,1.145,0,0,1,.477-.074,1.3,1.3,0,0,1,.881.435c1.362,1.513,2.379,2.072,3.892,2.157,3.326.174,5.742-2.729,5.745-6.931,0-3.1-1.092-5.534-3.907-8.767-.125-.144-.248-.283-.37-.419q-3.206-.35-6.42-.658c.625.739,1.289,1.448,1.948,2.15Z" transform="translate(-699.815 -687.714)" fill="#bab9cf"/>
      <path id="Path_1478" data-name="Path 1478" d="M661.4,701.3c-.011,5.433-.173,8.224-.573,9.965-.31,1.345-.982,3.124-3.231,3.049s-2.917-1.915-3.221-3.3c-.393-1.788-.544-4.628-.534-10.124q0-.616,0-1.188-2.8-.135-5.606-.237-.019.588-.02,1.2c-.013,9.991,3.667,16.5,9.37,16.648s9.4-5.964,9.422-15.632c0-.394-.005-.781-.016-1.165q-2.8-.211-5.595-.39v1.176Z" transform="translate(-569.151 -678.012)" fill="#bab9cf"/>
      <path id="Path_1479" data-name="Path 1479" d="M493.572,697.555q0,6.7.006,13.4a1.345,1.345,0,0,1-1.251,1.408l-.968.01c0,.8,0,1.6,0,2.408q4.521-.041,9.046-.034c3.145,0,5.7-.8,7.383-2.325a8.237,8.237,0,0,0,2.469-6.4,7.209,7.209,0,0,0-4.124-7,1.438,1.438,0,0,1-.757-1.342c0-.04.008-.077.011-.115q-5.908-.077-11.818-.008Zm10.052,13.7c-1.029,1-2.368,1.08-3.883,1.078a1.33,1.33,0,0,1-1.251-1.4v-10.22a1.334,1.334,0,0,1,1.23-1.4,4.84,4.84,0,0,1,3.969,1.272c.95,1.05,1.392,2.739,1.39,5.313,0,2.76-.437,4.36-1.456,5.351Z" transform="translate(-437.386 -676.387)" fill="#bab9cf"/>
      <path id="Path_1480" data-name="Path 1480" d="M352.137,700.047c.008,5.523-.142,8.374-.536,10.169-.306,1.389-.971,3.237-3.222,3.3s-2.923-1.729-3.233-3.086c-.4-1.754-.561-4.566-.571-10.034V699.21q-2.8.156-5.6.344c-.011.385-.018.776-.016,1.173.021,9.746,3.718,15.92,9.425,15.8s9.388-6.642,9.377-16.664c0-.406-.008-.806-.021-1.2q-2.805.079-5.607.191c0,.384,0,.781,0,1.195Z" transform="translate(-309.366 -677.34)" fill="#bab9cf"/>
      <path id="Path_1481" data-name="Path 1481" d="M191.951,713.453q.007,6.17.016,12.34a1.377,1.377,0,0,1-1.245,1.373l-1.493.106q0,1.1,0,2.2,9.181-.586,18.387-.981-.014-6.112-.027-12.223-1.519.106-3.038.221.01,4.252.018,8.5a1.376,1.376,0,0,1-1.245,1.4q-2.611.139-5.222.3a1.192,1.192,0,0,1-1.249-1.23q-.012-6.263-.022-12.527-2.443.249-4.883.525Z" transform="translate(-183.592 -689.327)" fill="#bab9cf"/>
    </g>
    <g id="Group_1067" data-name="Group 1067" transform="translate(2535.549 4700.147)">
      <path id="Path_1482" data-name="Path 1482" d="M231.563,222.4a7.921,7.921,0,0,0,2.157-4.291,15.71,15.71,0,0,1-9.777,1.945,6.181,6.181,0,0,0,3.049-3.577,20.506,20.506,0,0,1-14.3,4.084,8.961,8.961,0,0,0,3.665-2.816c-2.846.643-5.849,1.366-7.94,3.4a10.738,10.738,0,0,0-2.9,7.185,33.221,33.221,0,0,0,.734,8.038,31.4,31.4,0,0,1-5.776-5.382,26.715,26.715,0,0,0-1,6.116,41.772,41.772,0,0,1-8.434-4.313,6.394,6.394,0,0,0-.515,2.851,18.584,18.584,0,0,1-7.4-16.931,6.685,6.685,0,0,1-.056-6.891c-.048-1.265-.045-2.649-.093-3.915a16.379,16.379,0,0,1-6.052-8.953,14.263,14.263,0,0,1-4.03-10.7,13.312,13.312,0,0,1,16.4-11.781,31.921,31.921,0,0,1,17.918-14.479c8.8-2.664,18.241-1.451,27.348-.214A70.819,70.819,0,0,0,249.4,148.42a23.037,23.037,0,0,1,6.137,16.957,87.85,87.85,0,0,1,28.026,6.644,21.926,21.926,0,0,0-4.108,4.184c1.6.691,3.179,1.232,4.74,2.011a22.271,22.271,0,0,1,4.644,2.881,45.955,45.955,0,0,1-2.449,29.1,44.874,44.874,0,0,1-19.364,21.374c2.291-2.924,2.016-7.734-.106-10.783a12.987,12.987,0,0,0-9.508-5.115,23.853,23.853,0,0,0-10.871,1.937c-3.454,1.369-6.705,3.2-10.057,4.8a8.215,8.215,0,0,1-2.253.806,4.188,4.188,0,0,1-2.672-.808Z" transform="translate(-172.852 -148.42)"/>
      <path id="Path_1483" data-name="Path 1483" d="M405.91,339.719a52.017,52.017,0,0,0,6.249-4.339,2.62,2.62,0,0,1,.526,2.595,3.568,3.568,0,0,1-1.75,1.949A5.227,5.227,0,0,1,405.91,339.719Z" transform="translate(-368.624 -305.469)" fill="#fff"/>
      <path id="Path_1484" data-name="Path 1484" d="M266.916,264.767a8.594,8.594,0,0,0-3.044,2.734,4.026,4.026,0,0,0-.293,3.934,4.067,4.067,0,0,0,4.209,1.777,8.823,8.823,0,0,0,4.236-2.275,40.562,40.562,0,0,1,3.691-3.174,10.638,10.638,0,0,1,14.317,2.245,11.284,11.284,0,0,0-6.059-.953,5.848,5.848,0,0,1-.2,4.865,5.92,5.92,0,0,1-3.788,3.11c.774.89,1.539,1.571,2.315,2.461a32.206,32.206,0,0,0-18.465-3.424,7.919,7.919,0,0,0-2.265.5,3.163,3.163,0,0,0-1.688,1.525,6.49,6.49,0,0,1,1.585-3.409c-2.644-.08-5.288-.08-7.932-.16a3.972,3.972,0,0,1-.208,3.582,5.4,5.4,0,0,1-2.8,2.366,8.364,8.364,0,0,1-3.683.469,4.147,4.147,0,0,0,1,2.885c1.363,1.541,3.884,1.373,5.937,1.229s4.06-.653,6.1-.886a10.6,10.6,0,0,1,6.031.768,2.033,2.033,0,0,0-.582-1.243,6.341,6.341,0,0,0-1.081-.93,3.317,3.317,0,0,0-1.57-.768A13.845,13.845,0,0,1,277.3,292.3a13.194,13.194,0,0,1-1.242,9.492,12.093,12.093,0,0,0-2.782-9.729,13.014,13.014,0,0,1-.957,7.31,12.512,12.512,0,0,1-4.7,5.489,14.707,14.707,0,0,1-2.651,1.315,18.111,18.111,0,0,1-14.6-.827,4.627,4.627,0,0,0-.438,2.9,2.99,2.99,0,0,0,1.787,1.705,8.886,8.886,0,0,0,2.5.469,17.357,17.357,0,0,1-3.976.288,12.542,12.542,0,0,0,1.451,6.826,5.969,5.969,0,0,1,.819-3.083,9.664,9.664,0,0,0,5.551,7.316,21.094,21.094,0,0,1,1.269-7.122,6.369,6.369,0,0,1,1.466-2.435,7.6,7.6,0,0,0,2.7,5.288A10.257,10.257,0,0,1,268,309.5c2.825-1.854,6.361-2.153,9.572-3.206a20.86,20.86,0,0,0,7.4-4.27,6.7,6.7,0,0,1-2.035,5.15,17.023,17.023,0,0,0,9.79-8.356,13.987,13.987,0,0,1-.587,9.494,18.921,18.921,0,0,0,7.943-6.994,12.075,12.075,0,0,1-.8,9.383c1.763-.442,2.893-1.957,4.038-3.368a20.1,20.1,0,0,0,2.209-3.145,10.9,10.9,0,0,0,.962-7.571,28.666,28.666,0,0,1,6.5,5.379,16.735,16.735,0,0,0-4.924-14.176,32.878,32.878,0,0,0-3.192-2.629l-2.505-1.893a27.7,27.7,0,0,0,7.313-2.581,20.164,20.164,0,0,1-11.639-6.93,18.343,18.343,0,0,0,7.194-1.561,7.992,7.992,0,0,1-4.528-1.4,39.447,39.447,0,0,1-3.894-2.889,13.648,13.648,0,0,0-4.184-2.406,17.364,17.364,0,0,1,6.71-1.307,9.743,9.743,0,0,0-8.353-1.686,12.94,12.94,0,0,0,2.948-4.308,8.369,8.369,0,0,1-4.558,1.065c-1.541-.048-3.064-.339-4.6-.466a21.786,21.786,0,0,0-13.212,3.192,10.641,10.641,0,0,1,1.126-2.189q.874-1.142,1.745-2.285a32.4,32.4,0,0,0-16.973,10.7c-.664.81-1.325,1.838-1,2.835a2.257,2.257,0,0,0,1.771,1.386,6.623,6.623,0,0,0,2.344-.114,5.631,5.631,0,0,1,1.851-4.988,14.57,14.57,0,0,1,4.488-2.593Z" transform="translate(-235.007 -240.083)" fill="#bab9cf"/>
      <path id="Path_1485" data-name="Path 1485" d="M209.988,375.95a8.8,8.8,0,0,0,.942,2.446,3.123,3.123,0,0,0,2.045,1.609,5.394,5.394,0,0,0,.854,3.363,25.455,25.455,0,0,1-2.905,2.772,9.376,9.376,0,0,1-2.329-5.064,8.556,8.556,0,0,1,1.392-5.127Z" transform="translate(-202.845 -339.549)" fill="#bab9cf"/>
      <path id="Path_1486" data-name="Path 1486" d="M226.53,363.314a2.874,2.874,0,0,1,0-3.086,2.513,2.513,0,0,0,.371,1.961,2.411,2.411,0,0,0,1.625,1.086,4.207,4.207,0,0,1,1.361-1.816,1.113,1.113,0,0,1,.9-.277.9.9,0,0,1,.587.781,1.463,1.463,0,0,1-.837,1.491,4.712,4.712,0,0,0,2.475-1.878,2.492,2.492,0,0,0-.32-3,3.292,3.292,0,0,0-1.387-.649,11.491,11.491,0,0,0-4.171-.318,3.373,3.373,0,0,0-2.829,1.52,2.616,2.616,0,0,0,.275,2.445,8.122,8.122,0,0,0,1.942,1.744Z" transform="translate(-215.917 -324.084)" fill="#37363a"/>
      <path id="Path_1487" data-name="Path 1487" d="M249.56,436.454c-.226.942-.464,1.955-.689,2.9a5.661,5.661,0,0,0-1.662-1.237,3.726,3.726,0,0,0-.635,2.176,5.473,5.473,0,0,1-2.009-1.648,41.782,41.782,0,0,0-.934,6.623A16.374,16.374,0,0,1,239.9,439.4a19.916,19.916,0,0,1-6.134-.109,16.6,16.6,0,0,0,.507,5.679,9.739,9.739,0,0,1-4.5-6.619l2.988-2.373a21.243,21.243,0,0,0,7.14,1.109c1.336-.029,2.665-.182,3.993-.334,1.864-.214,3.806-.086,5.67-.3Z" transform="translate(-220.664 -389.975)" fill="#fff"/>
      <path id="Path_1488" data-name="Path 1488" d="M273.937,508.814a46.583,46.583,0,0,1-2.355-4.545,21.882,21.882,0,0,0-.477,5.779,34.555,34.555,0,0,0,6.024,1.467,19.66,19.66,0,0,0,5.415-.325,14.133,14.133,0,0,0,6.983-4.235c-.9-.477-1.821-1.2-2.721-1.682,0,.675-.062,1.437-.062,2.112-.669-.381-1.408-.826-2.077-1.206-.109.634-.363,1.329-.472,1.963a20.4,20.4,0,0,1-4.332-4.862,17.849,17.849,0,0,0-.179,5.875,13.308,13.308,0,0,1-5.744-.337Z" transform="translate(-255.355 -446.508)" fill="#fff"/>
      <path id="Path_1489" data-name="Path 1489" d="M299.362,502.442a26.885,26.885,0,0,0-.216,4.334,7.371,7.371,0,0,1-3.476-.4,8.509,8.509,0,0,1,3.691-3.936Z" transform="translate(-276.021 -445.802)" fill="#5d1719"/>
      <path id="Path_1490" data-name="Path 1490" d="M327.88,480.618l1.307-.851a3.352,3.352,0,0,1,1.1-.538,1.14,1.14,0,0,1,1.125.32c-.429.953-.832,1.907-1.261,2.859.813-.8,1.6-1.7,2.416-2.5a5.8,5.8,0,0,1,1.529-1.193,1.976,1.976,0,0,1,1.869.016,2.2,2.2,0,0,1,.846,1.837,4.246,4.246,0,0,1-1.107,2.94c-.49-.323-1-.693-1.485-1.016a2.4,2.4,0,0,0-.909-.429c.072.722.126,1.477.2,2.2-.585-.527-1.248-1.034-1.857-1.534-.088.72-.275,1.491-.362,2.211a17.025,17.025,0,0,1-3.408-4.328Z" transform="translate(-303.078 -425.686)" fill="#5d1719"/>
      <path id="Path_1491" data-name="Path 1491" d="M553.55,212.766a16.931,16.931,0,0,0,5.833-3.534c2.971-2.4,5.988-4.859,8.1-8.042a13.72,13.72,0,0,1,.078,6.655,16.071,16.071,0,0,0,3.046-5.145,43.277,43.277,0,0,1-.038,10.482,22.518,22.518,0,0,1-3.686,9.588,8.966,8.966,0,0,1-3.939-.721,27.643,27.643,0,0,0,4.246-9.921c-.926.541-1.912,1.189-2.838,1.731.223-1.686.445-3.345.546-5.043a3.245,3.245,0,0,1-1.406,1.507,73.434,73.434,0,0,1-6.216,4.035,9.927,9.927,0,0,0-3.726-1.59Z" transform="translate(-492.644 -192.748)" fill="#bab9cf"/>
      <path id="Path_1492" data-name="Path 1492" d="M614.442,299.034a11.169,11.169,0,0,0,6.487-4.63,33.2,33.2,0,0,0,3.606-7.291c1.789-.6,3.443-1.117,5.232-1.713-.667,1.552-1.187,3.08-1.854,4.632a23.6,23.6,0,0,1,15.33-.414c-2.406.923-4.916,1.953-7.321,2.876a44.756,44.756,0,0,1,18.336,6.745,41.894,41.894,0,0,1-8.916,35.05,44.029,44.029,0,0,0-1.664-14.837,5.484,5.484,0,0,1,2.1,1.893,16.753,16.753,0,0,1,1.441,2.513,32.09,32.09,0,0,0,.912-14.7,53.284,53.284,0,0,0-19.086-6.671c1.8-.48,3.472-1,5.27-1.475a55.34,55.34,0,0,0-19.875-1.974Z" transform="translate(-543.792 -263.485)" fill="#57566c"/>
      <path id="Path_1493" data-name="Path 1493" d="M676.239,299.864c-1.517.242-3.231.833-4.748,1.075,3.4,1.293,6.865,2.667,10.268,3.96a55.65,55.65,0,0,1,1.374,16.47,41.707,41.707,0,0,0,1.566-22.14,44.771,44.771,0,0,0-18.336-6.745c2.406-.923,4.916-1.953,7.321-2.876a23.6,23.6,0,0,0-15.33.414c.667-1.552,1.187-3.08,1.854-4.631-1.789.6-3.443,1.117-5.231,1.713a33.172,33.172,0,0,1-3.606,7.29c-.217.3-.449.6-.691.888a61.239,61.239,0,0,1,25.558,4.58Z" transform="translate(-574.235 -263.477)" fill="#bab9cf"/>
      <path id="Path_1494" data-name="Path 1494" d="M690.282,289.849l.6-.232a23.6,23.6,0,0,0-15.33.414c.667-1.552,1.187-3.08,1.854-4.632-1.789.6-3.443,1.117-5.232,1.713-.333.84-.667,1.682-1.024,2.513l2.157-.718c-.554,1.414-.869,2.72-1.422,4.132a45.436,45.436,0,0,1,18.4-3.193Z" transform="translate(-591.43 -263.485)" fill="#fff"/>
      <path id="Path_1495" data-name="Path 1495" d="M620.206,239.553a9.025,9.025,0,0,0-.349,2.085c-.321,2.659-1.839,5-3.316,7.234a18.446,18.446,0,0,1-1.992,2.651,7.442,7.442,0,0,1-1.217,1.037c-.339.581-.7,1.152-1.081,1.709a8.942,8.942,0,0,0,3.939.722,22.519,22.519,0,0,0,3.686-9.588,33.238,33.238,0,0,0,.328-5.852Z" transform="translate(-541.953 -224.971)" fill="#57566c"/>
      <path id="Path_1496" data-name="Path 1496" d="M560.022,212.293a43.968,43.968,0,0,0,4.969-5.42,13.19,13.19,0,0,0,2.595-5.115c-.027-.123-.056-.246-.086-.368a.22.22,0,0,0-.032,0c-2.11,3.166-5.116,5.614-8.075,8.007a16.965,16.965,0,0,1-5.833,3.534,9.788,9.788,0,0,1,3.576,1.493,8.93,8.93,0,0,0,2.887-2.134Z" transform="translate(-492.653 -192.916)" fill="#fff"/>
      <path id="Path_1497" data-name="Path 1497" d="M308.309,272.452a3.873,3.873,0,0,0,.757.066,2.268,2.268,0,0,1-.526-.862,3.335,3.335,0,0,1,.307-2.521,8.627,8.627,0,0,1,1.613-2.035,44.437,44.437,0,0,1,14.019-9.521l.037-.048a32.394,32.394,0,0,0-16.973,10.7c-.664.81-1.325,1.838-1,2.835a2.257,2.257,0,0,0,1.771,1.385Z" transform="translate(-285.081 -240.074)" fill="#fff"/>
      <path id="Path_1498" data-name="Path 1498" d="M391.473,283.025a19.51,19.51,0,0,1-7.606-5.673,18.343,18.343,0,0,0,7.194-1.562,7.988,7.988,0,0,1-4.527-1.4,39.413,39.413,0,0,1-3.894-2.889,13.65,13.65,0,0,0-4.184-2.406,17.368,17.368,0,0,1,6.71-1.307,9.744,9.744,0,0,0-8.353-1.686,12.935,12.935,0,0,0,2.948-4.308,8.367,8.367,0,0,1-4.558,1.065c-1.541-.046-3.064-.339-4.6-.466a21.788,21.788,0,0,0-13.212,3.192c.03-.07.063-.144.093-.216a45.8,45.8,0,0,1-5.288,3.2c.179-.077.358-.152.541-.227a8.6,8.6,0,0,0-3.045,2.734,4.026,4.026,0,0,0-.293,3.934,3.907,3.907,0,0,0,3.5,1.833l-.093-.024a2.75,2.75,0,0,1-2.054-2.053,3.672,3.672,0,0,1,1.313-2.881,21.036,21.036,0,0,1,10.554-5.7,38.294,38.294,0,0,1,12.1-.547,4.214,4.214,0,0,1-2.28,2.059c1.557,0,2.992.035,4.548.035a4.614,4.614,0,0,0-2.269,1.846,15.971,15.971,0,0,1,6.531,3.376l3.141,2.387a9.311,9.311,0,0,1-3.577.306,16.051,16.051,0,0,0,7.924,6.836,7.775,7.775,0,0,0,2.726.549Z" transform="translate(-320.829 -243.652)" fill="#fff"/>
      <path id="Path_1499" data-name="Path 1499" d="M209.994,375.95a7.333,7.333,0,0,0-1.067,6.641,9.35,9.35,0,0,1,.947-3.371,7,7,0,0,1,.832-1.235,10.816,10.816,0,0,1-.71-2.033Z" transform="translate(-202.851 -339.549)" fill="#fff"/>
      <path id="Path_1500" data-name="Path 1500" d="M220.794,406.879a4.654,4.654,0,0,0-.093,2.8c.091.111.184.218.28.32a25.574,25.574,0,0,0,2.905-2.773,5.384,5.384,0,0,1-.87-2.875,4.672,4.672,0,0,0-2.221,2.529Z" transform="translate(-212.902 -363.405)" fill="#57566c"/>
      <path id="Path_1501" data-name="Path 1501" d="M251.924,406.516a4.452,4.452,0,0,1-1.961-4.476,8.759,8.759,0,0,1-3.107.274,4.148,4.148,0,0,0,1,2.885,5.2,5.2,0,0,0,4.07,1.318Z" transform="translate(-235.015 -361.465)" fill="#57566c"/>
      <path id="Path_1502" data-name="Path 1502" d="M233.366,360.36a2.2,2.2,0,0,0-.667-1.787,3.292,3.292,0,0,0-1.387-.649,11.488,11.488,0,0,0-4.171-.318,3.372,3.372,0,0,0-2.829,1.52,2.436,2.436,0,0,0,.029,1.965,1.894,1.894,0,0,1,.384-1.352,2.493,2.493,0,0,1,1.158-.76,7.424,7.424,0,0,1,1.373-.283,3.593,3.593,0,0,0-.886,1.819,2.5,2.5,0,0,1,.162-.285,2.512,2.512,0,0,0,.371,1.961s0,0,0,0a3.451,3.451,0,0,1-.019-.934,2.691,2.691,0,0,1,1.065-1.877,4.446,4.446,0,0,1,2.669-.5,4.4,4.4,0,0,1,1.5.21,2.238,2.238,0,0,1,1.24,1.269Z" transform="translate(-215.916 -324.084)" fill="#fff"/>
      <path id="Path_1503" data-name="Path 1503" d="M286.051,389.384a4.3,4.3,0,0,1-1.881,2.245,18.361,18.361,0,0,0,6.516-1c.232-.082.5-.222.509-.467.008-.278-.323-.426-.6-.488a14.163,14.163,0,0,0-4.55-.291Z" transform="translate(-266.361 -350.778)" fill="#fff"/>
      <path id="Path_1504" data-name="Path 1504" d="M289.012,365.573l6.361.386a5.642,5.642,0,0,1,1.259-2.149c-2.645-.08-5.287-.08-7.932-.16a3.541,3.541,0,0,1,.312,1.925Z" transform="translate(-270.166 -329.216)" fill="#fff"/>
      <path id="Path_1505" data-name="Path 1505" d="M353.829,380.13a8.9,8.9,0,0,1,1.355,7.151c.034.125.061.249.083.373a8.744,8.744,0,0,0-.454-9.687,15.752,15.752,0,0,1,7.594,5.743,7.58,7.58,0,0,0-1.729-3.253,13.768,13.768,0,0,0-4.563-3.169c-1.506-.706-2.69-.851-4.2-1.533-.034-.037-.072-.08,0,0a32.208,32.208,0,0,0-18.466-3.424,7.915,7.915,0,0,0-2.265.5,3.389,3.389,0,0,0-1.475,1.149,37.432,37.432,0,0,1,19.379,2.872,11.774,11.774,0,0,1,4.75,3.281Z" transform="translate(-304.607 -336.35)" fill="#fff"/>
      <path id="Path_1506" data-name="Path 1506" d="M414.8,420.04a12.245,12.245,0,0,1,5.492,8.855c.811-1.438,1.5-2.921,1.149-4.534a5.033,5.033,0,0,0-2.587-3.161,15.155,15.155,0,0,0-4.054-1.158Z" transform="translate(-376.092 -376.585)" fill="#fff"/>
      <path id="Path_1507" data-name="Path 1507" d="M468.1,337.736a10.13,10.13,0,0,0-1.908-2.185q-1.6-1.5-3.261-2.931c-.6-.515-1.2-1.022-1.8-1.531.91-.379,1.792-.79,2.7-1.17a11.278,11.278,0,0,0-5.82-.851,5.849,5.849,0,0,1-.2,4.865,5.92,5.92,0,0,1-3.788,3.11c.7.8,1.393,1.44,2.093,2.213l.041.011a2.828,2.828,0,0,0,1.57-.305,8.075,8.075,0,0,0,3.649-3.251,19.527,19.527,0,0,1,3.571,1.12,31.734,31.734,0,0,0,3.148.907Z" transform="translate(-409.046 -300.098)" fill="#57566c"/>
      <path id="Path_1508" data-name="Path 1508" d="M534.97,422.956a32.877,32.877,0,0,0-3.192-2.629l-2.505-1.893.067-.014-2.609.033a10.294,10.294,0,0,1,2.94,2.349,19.069,19.069,0,0,1,2.043,2.417,7.025,7.025,0,0,1,1.2,2.9,31.592,31.592,0,0,0-6.83-2.05l-3.675-.785a17.336,17.336,0,0,1,.13,3.233,2.065,2.065,0,0,1-.389,1.3l.029.11a12.1,12.1,0,0,0-5.219-3.966,24.368,24.368,0,0,1,1.784,2.832,9.617,9.617,0,0,1,1.19,3.982,14.66,14.66,0,0,1-.094,2.035c-.045.467-.088.936-.133,1.4a14.059,14.059,0,0,1-.665,9.231,18.922,18.922,0,0,0,7.943-6.994,12.075,12.075,0,0,1-.8,9.383c1.763-.442,2.893-1.957,4.038-3.368a20.115,20.115,0,0,0,2.21-3.145,10.9,10.9,0,0,0,.961-7.571,28.66,28.66,0,0,1,6.5,5.379,16.735,16.735,0,0,0-4.924-14.176Z" transform="translate(-461.908 -375.224)" fill="#57566c"/>
      <path id="Path_1509" data-name="Path 1509" d="M273.673,558.908a14.727,14.727,0,0,0,5.795-1.189,10.237,10.237,0,0,0,3.139-2.179,15.4,15.4,0,0,1-2.057.958,18.112,18.112,0,0,1-14.6-.827,4.628,4.628,0,0,0-.438,2.9,2.99,2.99,0,0,0,1.787,1.705c.107.043.216.08.326.115a3.517,3.517,0,0,1-1.043-2.651,20.061,20.061,0,0,0,7.092,1.165Z" transform="translate(-250.593 -490.407)" fill="#fff"/>
      <path id="Path_1510" data-name="Path 1510" d="M307.986,588.973a21.161,21.161,0,0,0-.962,6.251,10.114,10.114,0,0,0,1.349,4.636c.074.035.146.072.221.105a21.086,21.086,0,0,1,1.269-7.122,6.567,6.567,0,0,1,1.382-2.354,6.693,6.693,0,0,1,.288-1.769,13.614,13.614,0,0,1-3.547.253Z" transform="translate(-285.546 -518.279)" fill="#57566c"/>
      <path id="Path_1511" data-name="Path 1511" d="M369.767,475.18a24.3,24.3,0,0,1-7.041,6.478,14.826,14.826,0,0,0,2.593-6.055,11.53,11.53,0,0,1-5.6,4.489,12.791,12.791,0,0,1-1.181,2.947,12.094,12.094,0,0,0-2.782-9.729,13.014,13.014,0,0,1-.957,7.31,11.922,11.922,0,0,1-.573,1.136,7.051,7.051,0,0,1-.389,2.646,8.871,8.871,0,0,1-1.552,2.483c-1.859,2.256-4.347,4.409-7.251,4.734a3.5,3.5,0,0,0,1.037,1.277,6.4,6.4,0,0,0-.077,5.467,10.272,10.272,0,0,1,4.492-7.619c2.825-1.854,6.361-2.153,9.572-3.206a20.864,20.864,0,0,0,7.4-4.27,6.364,6.364,0,0,1-.419,2.684,12.347,12.347,0,0,0,1.992-3.006,12.576,12.576,0,0,0,.81-2.3,19.853,19.853,0,0,0-.074-5.464Z" transform="translate(-317.492 -421.332)" fill="#57566c"/>
      <path id="Path_1512" data-name="Path 1512" d="M343.283,478.579a2.143,2.143,0,0,0-1.518.146,5.83,5.83,0,0,0-1.529,1.193c-.813.8-1.6,1.7-2.416,2.5.026-.056.05-.112.075-.168q-.086.05-.173.091a1.855,1.855,0,0,0-.712.5c.331.413.683.811,1.046,1.195a2.993,2.993,0,0,0,.741-.189c.125-.046.247-.1.37-.147.059-.325.117-.648.155-.961.224.184.454.368.685.554a8.957,8.957,0,0,0,1.026-.662c-.016-.187-.034-.373-.053-.555a1.592,1.592,0,0,1,.513.186,8.845,8.845,0,0,0,1.013-1.024,3.921,3.921,0,0,0,.811-1.392,2,2,0,0,0-.032-1.265Z" transform="translate(-310.747 -425.691)" fill="#bc2a2d"/>
      <path id="Path_1513" data-name="Path 1513" d="M232.31,438.12q-1.279,1.015-2.56,2.032a9.746,9.746,0,0,0,4.5,6.619c-.048-.189-.093-.379-.136-.57a17.362,17.362,0,0,1-1.81-8.081Z" transform="translate(-220.647 -391.772)" fill="#fff"/>
      <path id="Path_1514" data-name="Path 1514" d="M271.6,509.5c-.006-.013-.011-.026-.018-.038a21.875,21.875,0,0,0-.477,5.779c.936.253,1.75.512,2.552.747A13.25,13.25,0,0,1,271.6,509.5Z" transform="translate(-255.355 -451.699)" fill="#fff"/>
      <path id="Path_1515" data-name="Path 1515" d="M301.9,441.837c.225-.942.464-1.955.69-2.9-1.864.214-3.806.086-5.67.3-1.288.149-2.577.3-3.872.331a8.478,8.478,0,0,0-.117,2.32,16.4,16.4,0,0,0,3.728,5.86,41.782,41.782,0,0,1,.934-6.623,5.47,5.47,0,0,0,2.009,1.648,3.728,3.728,0,0,1,.635-2.176,5.639,5.639,0,0,1,1.662,1.236Z" transform="translate(-273.694 -392.461)" fill="#fff"/>
      <path id="Path_1516" data-name="Path 1516" d="M331.1,507.375c-.669-.381-1.409-.825-2.076-1.206-.109.633-.363,1.329-.472,1.963a20.4,20.4,0,0,1-4.332-4.862,17.925,17.925,0,0,0-.187,5.823,13.365,13.365,0,0,0,.885,2.379,18.172,18.172,0,0,0,1.985-.294,14.131,14.131,0,0,0,6.983-4.235c-.9-.477-1.821-1.2-2.721-1.681,0,.675-.062,1.437-.062,2.112Z" transform="translate(-299.711 -446.5)" fill="#fff"/>
    </g>
    <path id="Path_1517" data-name="Path 1517" d="M276.419,661.04l-1.464,5.356-7.055.493V659.01Z" transform="translate(2282.857 4122.823)"/>
    <path id="Path_1518" data-name="Path 1518" d="M606.24,557.084l4.193,6.042,7.61-6.042,7.831-1.638-.531-3.846Z" transform="translate(1998.645 4213.049)"/>
  </g>
</svg>
