<svg xmlns="http://www.w3.org/2000/svg" width="173" height="174" viewBox="0 0 173 174">
  <g id="Group_3949" data-name="Group 3949" transform="translate(-3190 -4679)">
    <rect id="Rectangle_212" data-name="Rectangle 212" width="173" height="174" transform="translate(3190 4679)" fill="none"/>
    <g id="Group_1316" data-name="Group 1316" transform="translate(3210.588 4780.092)">
      <path id="Path_3318" data-name="Path 3318" d="M255.014,648.423a5.612,5.612,0,0,0,3.128-2.529c.915-1.859,1.806-3.729,2.629-5.615.861-1.928-.623-4.321-3.207-5.235q-1.195-.4-2.393-.79A5.124,5.124,0,0,0,253.4,634a13.035,13.035,0,0,0-3.717-1.763,10.76,10.76,0,0,0-9.148,1.222,12.509,12.509,0,0,0-1.522,1.148,12.344,12.344,0,0,0-9.072-7.086,11.589,11.589,0,0,0-11.263,4.1,9.856,9.856,0,0,0-1.782-2.65c-2.108-2.211-5.644-3.611-11.04-3.916q-4.376-.246-8.756-.294a4.518,4.518,0,0,0-3.855,2.548c-2.36-1.691-5.839-2.479-10.741-2.166q-4.374.279-8.737.753a4.661,4.661,0,0,0-3.7,3.226,11.03,11.03,0,0,0-8.512-1.9,12.314,12.314,0,0,0-7.577,4.384,4.666,4.666,0,0,0-4.522-1.5q-8.565,2.045-16.976,4.87c-2.585.912-4.069,3.31-3.208,5.246.88,2.031,1.839,4.038,2.821,6.034a6.451,6.451,0,0,0,5.493,3c-.153,3.192-.238,6.184-.382,9.122a4.352,4.352,0,0,0,1.745,3.289,6.026,6.026,0,0,0,3.9,1.508q7.5-.152,14.913-.26a3.206,3.206,0,0,0,3.04-1.943,12.958,12.958,0,0,0,3.855,1.67c.006.068.011.133.021.2q.063.39.12.78a4.4,4.4,0,0,0,.875,2.023q.2,1.609.35,3.2a3.628,3.628,0,0,0-.421,2c.016.249.032.5.047.748a3.956,3.956,0,0,0,3.891,3.764h2.987a8.4,8.4,0,0,0,3.027-.522,3.776,3.776,0,0,0,1.912.522h5.667a3.5,3.5,0,0,1,1.251,0h3.485c.095,0,.188,0,.281-.01s.186.01.281.01h2.821a4.028,4.028,0,0,0,.5-.037,3.731,3.731,0,0,0,.5.037h5.667a3.75,3.75,0,0,0,1.688-.4,6.894,6.894,0,0,0,2.653.516,6.472,6.472,0,0,0,2.3-.411,3.756,3.756,0,0,0,1.469.3h3.319c.064,0,.128,0,.191,0s.127,0,.191,0h3.281a3.762,3.762,0,0,0,1.675-.395,7.1,7.1,0,0,0,2.64.5,6.649,6.649,0,0,0,5.313-2.479A13.054,13.054,0,0,0,224.484,663a13.186,13.186,0,0,0,6.224-2.169,3.153,3.153,0,0,0,3.088,2.11l2.4.037a4.63,4.63,0,0,0,1.225-.151,9.014,9.014,0,0,0,2.919.463,15.29,15.29,0,0,0,8.284-2.312,15.617,15.617,0,0,0,6.079-6.266,7.511,7.511,0,0,0,.313-6.294Z" transform="translate(-129.032 -624.768)" fill="#060809"/>
      <g id="Group_1313" data-name="Group 1313" transform="translate(4.91 6.295)">
        <path id="Path_3319" data-name="Path 3319" d="M176.4,689.693c-1.222,8.941-1.953,15.9-2.816,22.359q2.377-.1,4.745-.188c-.466-1.622-.968-3.266-1.5-4.946q1.97-.128,3.934-.244c.663,2.373,1.278,4.668,1.818,6.914q-7.611.2-15.32.49c.546-6.16.825-12.544,1.641-20.547q-2.124.419-4.249.87c.615,1.676,1.245,3.316,1.874,4.926q-2.1.318-4.2.658c-.933-2.136-1.853-4.308-2.719-6.531q8.372-2.185,16.786-3.765Z" transform="translate(-159.61 -685.56)" fill="#fff"/>
        <path id="Path_3320" data-name="Path 3320" d="M313.548,688.628c.639,4.724.283,7.826-.9,9.8-1.1,1.8-2.9,2.678-5.439,2.728-5.268.018-8.626-3.356-10.84-11.455-1.155-4.339-1.257-7.918-.116-10.485a7.252,7.252,0,0,1,6.005-4.259c3.46-.5,6.262,1.02,8.247,4.233a23.994,23.994,0,0,1,3.043,9.434Zm-5.379,7.391c-.766-4.483-1.678-9.308-2.648-14.7a8.957,8.957,0,0,0-1.013-3.219,1.759,1.759,0,0,0-1.8-.687,1.57,1.57,0,0,0-1.481,1.1,7.641,7.641,0,0,0,.2,3.221c1.092,5.262,2.131,10,3.008,14.418a6.491,6.491,0,0,0,.888,2.528,1.8,1.8,0,0,0,1.575.655,1.27,1.27,0,0,0,1.3-.731,5.472,5.472,0,0,0-.032-2.58Z" transform="translate(-273.634 -673.116)" fill="#fff"/>
        <path id="Path_3321" data-name="Path 3321" d="M432.34,692.827q-3.572,0-7.147.018c-.1-2.444-.212-4.989-.337-7.682a5.092,5.092,0,0,0-.668-2.807,2.921,2.921,0,0,0-2.3-.636l-.485.01c.223,3.239.427,6.261.6,9.132l1.67-.014q.05,1.014.1,2.005-4.417.026-8.843.082-.1-.98-.2-1.981c.493-.008.984-.016,1.477-.022-.617-6.4-1.453-13.509-2.368-22.092q-.845.06-1.691.125-.159-1.361-.321-2.771,4.232-.367,8.467-.582c4.149-.21,6.982.379,8.453,1.583s2.2,3.541,2.226,6.709a7.113,7.113,0,0,1-.975,4.212,6.369,6.369,0,0,1-3.481,2.113,6.855,6.855,0,0,1,3.557,1.974,7.524,7.524,0,0,1,.83,4.064q.022,2.343.039,4.549h1.407v2.012Zm-7.882-15.943q-.123-2.517-.252-5.22c-.071-1.463-.313-2.407-.732-2.763s-1.418-.514-3-.442c.27,3.985.528,7.651.767,11.072a9.126,9.126,0,0,0,2.134-.209c.782-.258,1.145-1.05,1.079-2.436Z" transform="translate(-371.321 -665.312)" fill="#fff"/>
        <path id="Path_3322" data-name="Path 3322" d="M567.911,691.616q-3.587-.048-7.165-.08c.166-2.433.358-4.963.572-7.637a4.793,4.793,0,0,0-.31-2.807c-.323-.454-1.063-.7-2.217-.722l-.485-.01c-.2,3.247-.376,6.272-.53,9.148l1.67.015q-.065,1.012-.124,2-4.42-.034-8.831-.04.009-1,.021-2.012c.492,0,.981,0,1.473,0,.125-6.487.294-13.752.485-22.6q-.846-.012-1.689-.019.017-1.414.034-2.882,4.237.038,8.472.227c4.149.188,6.9,1.035,8.22,2.325s1.763,3.59,1.38,6.643a5.871,5.871,0,0,1-5.278,5.919c1.766.634,2.863,1.331,3.308,2.08s.543,2.108.319,3.993q-.27,2.291-.506,4.457l1.411.024q-.118,1-.225,1.974Zm-5.92-15.926q.207-2.493.425-5.167c.119-1.447,0-2.394-.376-2.781s-1.347-.626-2.924-.689c-.238,4-.466,7.672-.676,11.1a9.3,9.3,0,0,0,2.156-.107c.814-.22,1.28-.984,1.394-2.357Z" transform="translate(-487.725 -663.97)" fill="#fff"/>
        <path id="Path_3323" data-name="Path 3323" d="M695.262,690.971c-1.195,4.286-2.714,7.141-4.6,8.959a8.581,8.581,0,0,1-6.365,2.4c-5.238-.18-7.481-3.68-6.237-12.49.686-4.711,2.057-8.562,4.127-10.9a7.7,7.7,0,0,1,7.292-2.606,7.224,7.224,0,0,1,6.365,5.831,17.831,17.831,0,0,1-.588,8.806Zm-8.178,6.372c.918-4.4,2-9.093,3.137-14.3a7.8,7.8,0,0,0,.249-3.208,1.545,1.545,0,0,0-1.46-1.077,1.8,1.8,0,0,0-1.826.687,8.526,8.526,0,0,0-1.055,3.165c-1.016,5.349-1.973,10.14-2.781,14.6a5.389,5.389,0,0,0-.055,2.569c.183.472.626.713,1.328.731a1.787,1.787,0,0,0,1.55-.652,6.5,6.5,0,0,0,.912-2.513Z" transform="translate(-594.531 -674.26)" fill="#fff"/>
        <path id="Path_3324" data-name="Path 3324" d="M802.715,716.087a8.25,8.25,0,0,1-3.55,3.822,9.939,9.939,0,0,1-5.453,1.37,5.348,5.348,0,0,1-1.807-.3,3.93,3.93,0,0,1-1.342-1c-.369.31-.734.618-1.1.93L787,720.831c.591-2.325,1.265-4.7,1.993-7.147q1.937.123,3.881.258-.212.638-.421,1.272c-.923,2.85-.318,4.254,1.675,4.334a2.934,2.934,0,0,0,1.7-.421,2.354,2.354,0,0,0,1.013-1.209c.35-.967.011-2.2-1.076-3.8-1.02-1.466-2.062-2.993-3.136-4.6a7.822,7.822,0,0,1-.768-5.99,7.2,7.2,0,0,1,3.276-4.253,7.107,7.107,0,0,1,5.461-.8,7.464,7.464,0,0,1,2.288.915,9.666,9.666,0,0,1,1.975,1.744q.588-.53,1.172-1.049,1.192.3,2.383.61c-.808,2.068-1.665,4.093-2.536,6.086q-2.069-.349-4.135-.674.3-.773.605-1.556c.817-2.1.218-3.417-1.766-3.836a2.355,2.355,0,0,0-1.546.177,1.812,1.812,0,0,0-.962,1.1c-.369,1.1.042,2.591,1.175,4.331,1.068,1.638,2.1,3.183,3.106,4.657a5.67,5.67,0,0,1,.353,5.108Z" transform="translate(-686.257 -692.753)" fill="#fff"/>
      </g>
      <g id="Group_1314" data-name="Group 1314" transform="translate(39.581 37.795)">
        <path id="Path_3325" data-name="Path 3325" d="M382.806,865.659a5.091,5.091,0,0,1-.756,3.645,3.338,3.338,0,0,1-2.69.97q-1.5,0-3,0c-.013-.251-.025-.5-.04-.75h.578c-.133-2.391-.363-4.793-.671-7.253l-.594,0c-.034-.262-.067-.523-.1-.786q1.626-.017,3.25-.032a3.8,3.8,0,0,1,2.826.955,4.935,4.935,0,0,1,1.2,3.244Zm-2.455.021c-.1-1.238-.194-2-.254-2.27a1.312,1.312,0,0,0-1.386-1.158h-.145c.278,2.47.485,4.877.605,7.271h.308a.812.812,0,0,0,.891-.646,13.4,13.4,0,0,0-.021-3.2Z" transform="translate(-375.53 -861.246)" fill="#fff"/>
        <path id="Path_3326" data-name="Path 3326" d="M433.062,869.884q-2.845,0-5.687,0c-.008-.251-.018-.5-.026-.753h.578c-.088-2.4-.241-4.817-.445-7.306-.2,0-.4,0-.592,0-.023-.265-.047-.53-.069-.8q2.939-.022,5.874-.035.075,1.26.138,2.494c-.509,0-1.02,0-1.529,0q-.048-.841-.1-1.691l-1.384.006q.116,1.633.2,3.227c.225,0,.451,0,.676,0-.015-.286-.031-.572-.047-.859.4,0,.8,0,1.2,0,.043.837.082,1.665.116,2.491-.4,0-.791,0-1.188,0-.013-.292-.027-.584-.04-.878h-.674q.087,1.681.14,3.338h1.347c-.018-.605-.037-1.211-.061-1.819H433c.029.862.053,1.718.072,2.574Z" transform="translate(-418.584 -860.862)" fill="#fff"/>
        <path id="Path_3327" data-name="Path 3327" d="M478.646,869.79h-2.831q-.017-1.392-.043-2.8a1.584,1.584,0,0,0-.22-.962,1.163,1.163,0,0,0-.853-.226h-.181c.029,1.086.051,2.16.069,3.231h.654c0,.252.008.5.01.755h-3.5c0-.251-.01-.5-.016-.753h.577c-.051-2.4-.14-4.83-.259-7.337-.2,0-.395,0-.592,0-.013-.266-.027-.535-.042-.8q1.467-.007,2.934-.011a5.715,5.715,0,0,1,2.926.509,2.251,2.251,0,0,1,.795,1.959,1.954,1.954,0,0,1-.348,1.307,2.421,2.421,0,0,1-1.291.673,2.658,2.658,0,0,1,1.32.661,2.363,2.363,0,0,1,.316,1.4q.01.824.018,1.643h.551c0,.252,0,.5.005.755Zm-2.935-5.535c-.013-.528-.029-1.06-.043-1.593-.013-.432-.092-.7-.235-.811a2.093,2.093,0,0,0-1.045-.157q.063,1.715.111,3.385a3.7,3.7,0,0,0,.79-.053C475.581,864.947,475.722,864.692,475.711,864.255Z" transform="translate(-456.022 -860.769)" fill="#fff"/>
        <path id="Path_3328" data-name="Path 3328" d="M527.963,869.725h-5.688c0-.251,0-.5,0-.755h.576c-.011-2.407-.029-4.838-.054-7.351H522.2c0-.268-.006-.536-.011-.806q2.931,0,5.864,0c-.013.844-.024,1.678-.036,2.5h-1.527c0-.562.008-1.129.011-1.7h-1.381q0,1.645,0,3.247h.674c0-.288,0-.575,0-.864H527c-.007.84-.013,1.671-.018,2.5H525.79c0-.292,0-.586,0-.882h-.673v3.35h1.347q0-.908.006-1.824h1.508q-.012,1.3-.018,2.577Z" transform="translate(-498.64 -860.705)" fill="#fff"/>
        <path id="Path_3329" data-name="Path 3329" d="M572.155,866.445a3.1,3.1,0,0,1-.731,2.065,2.366,2.366,0,0,1-1.845.766c-2.03-.005-3.038-1.49-3-4.543a6.454,6.454,0,0,1,.8-3.46,2.632,2.632,0,0,1,2.341-1.134,2.415,2.415,0,0,1,.827.124,2.485,2.485,0,0,1,.731.459l.31-.454c.268,0,.538,0,.806,0q-.075,1.517-.135,3c-.5,0-.991,0-1.487,0q.017-.465.034-.934a2.063,2.063,0,0,0-.164-1.129.755.755,0,0,0-.665-.283.694.694,0,0,0-.666.333,3.66,3.66,0,0,0-.217,1.418c-.037,1.275-.068,2.531-.092,3.776a3.535,3.535,0,0,0,.241,1.7.746.746,0,0,0,.687.319,1.087,1.087,0,0,0,1-.556,4.008,4.008,0,0,0,.366-1.843h.84c0,.129.01.259.015.387Z" transform="translate(-535.904 -860.14)" fill="#fff"/>
        <path id="Path_3330" data-name="Path 3330" d="M615.816,869.9h-3.294c.006-.25.015-.5.022-.753h.45q.056-1.717.151-3.454-.667,0-1.334,0c-.058,1.161-.1,2.311-.138,3.457h.488c-.008.251-.015.5-.021.753h-3.33c0-.25.011-.5.016-.753h.577c.059-2.4.164-4.828.3-7.33h-.592c.014-.267.029-.533.043-.8q1.72.007,3.438.017c-.019.268-.039.533-.058.8l-.5,0c-.071,1.045-.133,2.076-.188,3.1q.669,0,1.339,0,.089-1.532.206-3.1c-.154,0-.308,0-.461,0,.019-.265.039-.531.059-.8l3.4.022c-.024.267-.048.532-.072.8-.193,0-.387,0-.58,0-.214,2.487-.371,4.9-.463,7.3h.565c-.01.251-.019.5-.027.752Z" transform="translate(-571.351 -860.87)" fill="#fff"/>
        <path id="Path_3331" data-name="Path 3331" d="M667.6,865.386a6.362,6.362,0,0,1-1.119,3.459,2.87,2.87,0,0,1-2.333,1c-2.076,0-3.092-1.477-2.887-4.483a5.89,5.89,0,0,1,1.177-3.526,3.069,3.069,0,0,1,2.452-1.01,2.409,2.409,0,0,1,2.425,1.532,6.357,6.357,0,0,1,.284,3.027Zm-2.645,2.513c.1-1.667.25-3.343.433-5.045a2.277,2.277,0,0,0-.038-1.015.539.539,0,0,0-.544-.275.679.679,0,0,0-.612.271,2.348,2.348,0,0,0-.263,1.008c-.17,1.705-.307,3.385-.4,5.053a2.056,2.056,0,0,0,.1.97.565.565,0,0,0,.552.268.614.614,0,0,0,.565-.267,2.226,2.226,0,0,0,.21-.968Z" transform="translate(-615.36 -860.718)" fill="#fff"/>
      </g>
      <g id="Group_1315" data-name="Group 1315" transform="translate(14.027 21.415)">
        <path id="Path_3332" data-name="Path 3332" d="M278.3,808.126l1.493-.05c-.381-1.461-.79-2.944-1.222-4.456l-1.318.072q.568,1.908,1.082,3.759a1,1,0,0,1-.035.673Z" transform="translate(-267.477 -796.315)" fill="#d8d8d8"/>
        <path id="Path_3333" data-name="Path 3333" d="M799.312,802.524l-1.254-.074q-.728,2.392-1.368,4.7l.637.022.6-.511a1.689,1.689,0,0,1,.991-.4c.027,0,.053,0,.079,0a6.279,6.279,0,0,1,.287-3.668c.008-.024.014-.048.023-.072Z" transform="translate(-703.509 -795.333)" fill="#d8d8d8"/>
        <path id="Path_3334" data-name="Path 3334" d="M838.258,775.96c1.267,1.882,1.6,3.351,1.119,4.631a4.029,4.029,0,0,1-1.559,1.9,8,8,0,0,0,2.049-.843,6.3,6.3,0,0,0,2.786-3.053,4.951,4.951,0,0,0-.366-4.338l-.573-.84q-2.794-.306-5.573-.58,1.079,1.611,2.116,3.12Z" transform="translate(-736.624 -770.478)" fill="#d8d8d8"/>
        <path id="Path_3335" data-name="Path 3335" d="M737.321,765.77c-.546,2.351-1.066,4.605-1.543,6.786a7.641,7.641,0,0,1-1.22,3.107,3.334,3.334,0,0,1-.337.364,6.749,6.749,0,0,0,3.042-1.718c1.646-1.6,3-4.254,4.071-8.234Q739.323,765.914,737.321,765.77Z" transform="translate(-651.069 -764.543)" fill="#d8d8d8"/>
        <path id="Path_3336" data-name="Path 3336" d="M686.153,761.75c-1.179,7.846.758,9.946,2.927,10.792a2.028,2.028,0,0,1-.2-.381,6.244,6.244,0,0,1-.027-3.207c.383-2.237.8-4.557,1.249-6.99Q688.126,761.85,686.153,761.75Z" transform="translate(-610.421 -761.169)" fill="#d8d8d8"/>
        <path id="Path_3337" data-name="Path 3337" d="M617.07,759.208a2.483,2.483,0,0,1,.883.776c.538.772.694,1.961.535,3.772-.194,2.206-.372,4.315-.531,6.352q1.78.019,3.562.045a1.239,1.239,0,0,1-.143-.723q.219-2.175.47-4.469c.236-2.14-.034-2.9-.165-3.113s-.662-.82-2.677-1.53a1.321,1.321,0,0,1-.837-1.225c-.268-.008-.536-.016-.8-.023a2.831,2.831,0,0,1-.292.14Z" transform="translate(-552.731 -758.919)" fill="#d8d8d8"/>
        <path id="Path_3338" data-name="Path 3338" d="M566.253,768.521a1.369,1.369,0,0,1-.233.729q1.866.007,3.735.019a1.286,1.286,0,0,1-.18-.729c.133-2.879.287-5.909.458-9.162a1.624,1.624,0,0,1,.491-1.089,1.284,1.284,0,0,1-.083-.1q-1.943-.036-3.888-.056c-.112,3.724-.214,7.154-.3,10.391Z" transform="translate(-509.878 -758.13)" fill="#d8d8d8"/>
        <path id="Path_3339" data-name="Path 3339" d="M441.629,769.267a1.235,1.235,0,0,1-.151.724q1.871-.024,3.74-.042a1.4,1.4,0,0,1-.263-.724c-.2-2.868-.424-5.884-.674-9.116a1.48,1.48,0,0,1,.35-1.1c-.034-.03-.066-.064-.1-.1q-1.946.05-3.894.115c.369,3.656.7,7.038.988,10.238Z" transform="translate(-404.631 -758.785)" fill="#d8d8d8"/>
        <path id="Path_3340" data-name="Path 3340" d="M488.522,758.477a2.774,2.774,0,0,1,.979.742,6.156,6.156,0,0,1,1.016,3.78c.087,2.23.165,4.358.236,6.41q1.778-.01,3.554-.013a1.355,1.355,0,0,1-.225-.731c-.023-1.472-.047-2.985-.072-4.547-.035-2.184-.4-2.953-.564-3.162s-.763-.812-2.858-1.447a1.5,1.5,0,0,1-.992-1.2l-.8.013a2.224,2.224,0,0,1-.273.152Z" transform="translate(-444.823 -758.281)" fill="#d8d8d8"/>
        <path id="Path_3341" data-name="Path 3341" d="M375.18,761.505c.424,2.449.822,4.783,1.185,7.03a6.285,6.285,0,0,1-.055,3.218,2.158,2.158,0,0,1-.2.384,4.288,4.288,0,0,0,2.372-1.909c1.024-1.737,1.3-4.6.684-8.928Q377.173,761.394,375.18,761.505Z" transform="translate(-349.682 -760.791)" fill="#d8d8d8"/>
        <path id="Path_3342" data-name="Path 3342" d="M309.562,765.421c1.9,7.327,4.512,9.31,6.974,10.033a3.253,3.253,0,0,1-.333-.365,7.615,7.615,0,0,1-1.191-3.125c-.456-2.2-.954-4.464-1.479-6.834q-1.982.137-3.973.291Z" transform="translate(-294.599 -764.006)" fill="#d8d8d8"/>
        <path id="Path_3343" data-name="Path 3343" d="M220.925,772.64q-1.874.183-3.754.382c-.271,3.356-.495,6.476-.78,9.507q2.016-.085,4.022-.162l-.014-.013a1.3,1.3,0,0,1-.474-1.071C220.268,778.536,220.579,775.691,220.925,772.64Z" transform="translate(-216.39 -770.31)" fill="#d8d8d8"/>
      </g>
    </g>
    <path id="Path_3344" data-name="Path 3344" d="M357.092,226.015c-2.531-2.049-18.076-4.9-21.34-5.039-3.783-.164-7.007-1.673-10.272.244a11.446,11.446,0,0,1,5.09,2.287c-2.4,1.219-4.967,2.34-7.364,3.558-2.362,1.2-4.91,2.438-7.539,2.1a1.791,1.791,0,0,0,.313,1.421,16.976,16.976,0,0,1-11.39-4.986,15.25,15.25,0,0,0,1.635-9.031c-.451-.09-.854-.252-1.305-.342a6.572,6.572,0,0,1-1.606,3.049c-.3-.589-.737-1.058-1.034-1.646a5.865,5.865,0,0,1-.878-2.943,13.464,13.464,0,0,1-6.161-8.127c2.221-2.731,4.392-5.512,6.613-8.244-1.651-3.652-3.28-7.189-4.931-10.84,1.309-1.652,2.7-3.391,4.006-5.044a16.409,16.409,0,0,0,2.9-4.649,32.412,32.412,0,0,1-7.741-16.746,32.073,32.073,0,0,1,2.886-18.121c11.2,4.973,21.472,12.226,29.188,21.751h2.21a46.509,46.509,0,0,1,25.082-25.2c3.118,2.516,4.872,6.6,5.676,10.526a57.988,57.988,0,0,1-.866,26.806c1.126,1.121,2.279,2.181,3.406,3.3-1.323.821-2.558,1.556-3.881,2.378a41.3,41.3,0,0,1,7.42,14.238c-.507-.082-1.151,0-1.659-.08,2.386,8.465,2.014,19.752-.451,28.192" transform="translate(2942.035 4562.696)" fill="#060809"/>
    <path id="Path_3345" data-name="Path 3345" d="M330.627,237.994c-1.784-.255-2.8.369-4.417,1.156l4.52-3.852a21.991,21.991,0,0,0,3.5-3.467,10.833,10.833,0,0,0,2.063-5.325,15.233,15.233,0,0,1-4.942-4.228c1.893-3.128,3.879-6.189,5.773-9.318a24.694,24.694,0,0,1-5.986-9.142,53.562,53.562,0,0,1-2.751-10.649,12.482,12.482,0,0,1,.352-7.067,6.155,6.155,0,0,1,3.415,1.48c2.76,1.954,5.525,3.912,8.087,6.118a53.273,53.273,0,0,1,8.565,9.753,18.213,18.213,0,0,0-8.519,6.171,33.745,33.745,0,0,1,20.5-4.215,95.92,95.92,0,0,1,10.842-17.772c2.071-2.686,4.323-5.442,7.268-7.128a7.713,7.713,0,0,1,1.855,5.952,6.059,6.059,0,0,0-1.781-3.992,68.309,68.309,0,0,0-9.736,14.473,11.569,11.569,0,0,1,3.729-.339l-2.405,1.635a4.7,4.7,0,0,0-1.842,1.962,8.4,8.4,0,0,1,4.241-.426,15.01,15.01,0,0,0-2.333,1.75,5.462,5.462,0,0,0-1.631,2.515,3.665,3.665,0,0,1,2.041-.313,7.651,7.651,0,0,0-1.736,3.679,8.954,8.954,0,0,0,5.007-2.283c0,1.529.1,3.234.1,4.764a5.821,5.821,0,0,0,3.289-2.845,15.536,15.536,0,0,0,1.424-4.209,99.25,99.25,0,0,0,2-12.8,55.2,55.2,0,0,1,.207,12.459c-.546,4.127-1.946,8.4-4.862,11.37.556.313,1.055.7,1.611,1.018-.633.442-1.081.992-1.713,1.434a14.9,14.9,0,0,1,5.153,5.951,9.086,9.086,0,0,0-3.141-.17c6.089,5.919,8.313,14.619,8.291,23.11-.011,4.336-.034,8.729-1.074,12.93a27.371,27.371,0,0,0-13.217-15.812,29.205,29.205,0,0,1,5,19.327c-.064-.159-.127-.321-.194-.478a18.548,18.548,0,0,0-4.764-6.831,19.069,19.069,0,0,0-6.868-3.6,59.454,59.454,0,0,0-7.815-1.538,4.465,4.465,0,0,1,2.118,1.578c-3.695.663-6.975,2.7-10.155,4.7a19.807,19.807,0,0,0-3.621,3.211c.5.175.986.519,1.49.694a11.314,11.314,0,0,1-13.435-.043,12.165,12.165,0,0,0,8.506-.5c.522.17,1.146.342,1.668.512-.088-.747-.027-1.513-.116-2.259l6.609-5.1,3.679-2.839c1.864-1.439,3.7-3.237,5.561-4.678a9.942,9.942,0,0,1,2.833.507,22.89,22.89,0,0,0-2.272-2.049,12.6,12.6,0,0,0-7.735-2.531,12.479,12.479,0,0,0-7.6,2.8,9.029,9.029,0,0,1,7.785-.281,9.99,9.99,0,0,0-3.841.353c-.215.525-.372,1.3-.588,1.827-.515-.173-1.318-.241-1.834-.414-1.458.986-3.022,2.359-4.478,3.345a25.811,25.811,0,0,1-.673,4.583,16.679,16.679,0,0,1-2.923-2.6c.867-1.183,1.768-2.388,2.635-3.571a8.675,8.675,0,0,1-4.808,2.2,8.248,8.248,0,0,1-5.013-1.164,8.381,8.381,0,0,0,3.968-6.153c-.418-1.771-3.046-3.078-4.848-3.337Z" transform="translate(2916.039 4528.245)" fill="#fff"/>
    <path id="Path_3346" data-name="Path 3346" d="M330.755,285.126a21.987,21.987,0,0,0,3.5-3.467,10.834,10.834,0,0,0,2.063-5.325,15.234,15.234,0,0,1-4.942-4.228c.14-.231.284-.461.424-.69a10.822,10.822,0,0,0,4.564-1.872,21.194,21.194,0,0,0,4.178-3.96c-.811.021-1.765-.095-2.576-.074a21.878,21.878,0,0,1,16.69-9.347,18.134,18.134,0,0,0-4.47-.435,31.665,31.665,0,0,1,10.625-.488q.434-.922.89-1.837a5.344,5.344,0,0,1,2.29-1.63,16.5,16.5,0,0,0-.9,6.368,3.273,3.273,0,0,1,2.073-2.637,5.528,5.528,0,0,0,1.506,4.565,15.738,15.738,0,0,0,3.973,2.8,6.866,6.866,0,0,1-1.36-5.231c.021-.137.05-.271.083-.406a8.933,8.933,0,0,0,4.967-2.275c0,1.529.1,3.234.1,4.764a5.821,5.821,0,0,0,3.289-2.845,15.543,15.543,0,0,0,1.424-4.209,99.267,99.267,0,0,0,2-12.8,55.207,55.207,0,0,1,.207,12.459c-.546,4.127-1.946,8.4-4.862,11.37.555.313,1.055.7,1.61,1.018-.633.442-1.081.992-1.713,1.434a14.906,14.906,0,0,1,5.153,5.951,9.086,9.086,0,0,0-3.141-.17c6.089,5.919,8.313,14.619,8.29,23.11-.011,4.335-.034,8.729-1.074,12.929-.064-.206-.132-.41-.2-.613a41.884,41.884,0,0,0-3.6-14.561c-2.717-5.553-7.634-10.508-13.744-11.439a7.86,7.86,0,0,1,1.736,4.364,30.486,30.486,0,0,0-18.423-2.446c.41.734.7,1.766,1.108,2.5-2.054-1.087-4.62-.575-6.683.493s-3.83,2.635-5.85,3.786a9.836,9.836,0,0,1-4.477,1.392c.014-.1.029-.193.039-.287-.418-1.771-3.046-3.078-4.848-3.337-1.784-.255-2.8.369-4.417,1.156q2.259-1.927,4.52-3.852Z" transform="translate(2916.014 4478.417)" fill="#d85700"/>
    <path id="Path_3347" data-name="Path 3347" d="M438.279,428.495a4.125,4.125,0,0,0-3.749-1.068,8.182,8.182,0,0,0-3.581,1.839c-1.053.854-2,1.837-3.054,2.687a16.049,16.049,0,0,1-10.532,3.427,12.924,12.924,0,0,1-1.153,2.812,11.414,11.414,0,0,1,5.533-1.538c2.187.112,4.135,1.492,6.311,1.736a6.384,6.384,0,0,0,6.412-3.756,3.518,3.518,0,0,0,1.935,1.575,2.376,2.376,0,0,1-.471-1.765h3.179c-1.345-.964-2.717-1.941-4.063-2.906,1.042.01,2.081-.161,3.123-.151-1.118-.6-2.094-1.493-3.213-2.091a4.266,4.266,0,0,1,3.321-.8Z" transform="translate(2840.492 4321.043)" fill="#060809"/>
    <path id="Path_3348" data-name="Path 3348" d="M481.673,450.45a18.566,18.566,0,0,1-2.126,2.195,9.332,9.332,0,0,1-4.217,1.973,4.481,4.481,0,0,0,3.327,1.029,4.1,4.1,0,0,0,2.942-1.885A3.429,3.429,0,0,0,481.673,450.45Z" transform="translate(2790.863 4301.651)" fill="#fff"/>
    <path id="Path_3349" data-name="Path 3349" d="M578.573,408.7a14.506,14.506,0,0,0-8.967-4.135c.917-.459,1.884-1.116,2.8-1.575a10.468,10.468,0,0,0-5.087-2.33c1.79.153,3.73.127,5.52.281a32.972,32.972,0,0,0,3.3,4.421c.976,1.185,1.458,2.155,2.434,3.34Z" transform="translate(2713.646 4343.445)" fill="#060809"/>
    <path id="Path_3350" data-name="Path 3350" d="M443.533,390.624a16.45,16.45,0,0,0-11.353,7.107c.191-1.015.3-2.009.49-3.024a19.447,19.447,0,0,0-4.6,6.144,11.588,11.588,0,0,1,4.684-10.453c-.453.973-.694,1.765-1.145,2.738a25.9,25.9,0,0,1,7.293-4.156c-.53.829-1.025,1.5-1.554,2.325a11.915,11.915,0,0,1,6.185-.681Z" transform="translate(2830.584 4353.25)" fill="#fff"/>
    <path id="Path_3351" data-name="Path 3351" d="M362.4,466.37a9.613,9.613,0,0,1-3.186-1.94,4.363,4.363,0,0,0,2.123,3.518C361.636,467.383,362.092,466.935,362.4,466.37Z" transform="translate(2888.34 4289.916)" fill="#fff"/>
    <path id="Path_3352" data-name="Path 3352" d="M326.5,562.568a29.194,29.194,0,0,0-7.786.008,7.715,7.715,0,0,0,4.26,1.608A4.087,4.087,0,0,0,326.5,562.568Z" transform="translate(2922.336 4207.752)" fill="#fff"/>
    <path id="Path_3353" data-name="Path 3353" d="M397.871,586.62a43.758,43.758,0,0,1-5.081,3.843c-.512.008-1.1.006-1.617.015-.125.581-.263,1.225-.389,1.807-.451-.04-1-.1-1.447-.139-.114.658-.3,1.355-.419,2.013-1.177.768-2.354,1.5-3.531,2.273-.369-.588-.923-1.158-1.293-1.745-.334,1.171-.694,2.431-1.028,3.6-1.042.04-2.269.111-3.313.149a7.724,7.724,0,0,0-2.033-2.829q-.255,1.621-.512,3.242a11.539,11.539,0,0,0,7.5.036,12.222,12.222,0,0,1,2.6-2.717,53.365,53.365,0,0,0,10.564-9.548Z" transform="translate(2873.227 4187.347)" fill="#fff"/>
    <path id="Path_3354" data-name="Path 3354" d="M396.2,648.048c-1.042.04-2.269.111-3.313.149-.01-.027-.022-.055-.034-.083a3.633,3.633,0,0,1,.914-.767c.842-.5,1.811-.745,2.669-1.217.13-.071.254-.149.376-.23-.205.723-.414,1.452-.612,2.148Z" transform="translate(2860.1 4137.585)" fill="#d85700"/>
    <path id="Path_3355" data-name="Path 3355" d="M431.522,590.289c-.512.008-1.1.006-1.617.014-.125.581-.263,1.225-.388,1.807-.451-.04-1-.1-1.447-.14-.114.658-.3,1.355-.419,2.014-1.177.768-2.354,1.5-3.531,2.274a11.864,11.864,0,0,0-.769-1.028c1.672-1.566,2.678-3.891,4.262-5.622a10.113,10.113,0,0,1,8.894-3.076,43.588,43.588,0,0,1-4.983,3.759Z" transform="translate(2834.496 4187.52)" fill="#d85700"/>
    <path id="Path_3356" data-name="Path 3356" d="M348.65,233.88c1.214-.435,2.543-1.14,3.757-1.575a17.641,17.641,0,0,0-7.505-2.85,3.625,3.625,0,0,1,2.956-1.715,6.412,6.412,0,0,1-4.374-2.621,15.5,15.5,0,0,0,4.816.225,21.739,21.739,0,0,0-8.23-5.667,53.853,53.853,0,0,0,.532,12.946,54.945,54.945,0,0,1-2.585-10.206,12.485,12.485,0,0,1,.352-7.067,6.154,6.154,0,0,1,3.416,1.48c2.76,1.954,5.525,3.912,8.086,6.118a53.268,53.268,0,0,1,8.565,9.753,18.29,18.29,0,0,0-6.1,3.566,5.308,5.308,0,0,0-3.685-2.388Z" transform="translate(2906.41 4499)" fill="#d85700"/>
  </g>
</svg>
