<svg xmlns="http://www.w3.org/2000/svg" width="173" height="174" viewBox="0 0 173 174">
  <g id="Group_3957" data-name="Group 3957" transform="translate(-404 -5790)">
    <rect id="Rectangle_173" data-name="Rectangle 173" width="173" height="174" transform="translate(404 5790)" fill="none"/>
    <path id="Path_1322" data-name="Path 1322" d="M472.109,448.827a.94.94,0,0,0-.48.66c-.006.327.306.557.583.729a1.55,1.55,0,0,0,1.183.336c.4-.116.634-.528.821-.9.251-.5,1.306-1.953.362-2.183-.684-.168-1.98,1-2.471,1.362Z" transform="translate(8.047 5414.175)" fill="#09090a"/>
    <g id="Group_1049" data-name="Group 1049" transform="translate(450.807 5810.528)">
      <path id="Path_1323" data-name="Path 1323" d="M317.379,139.794a21.875,21.875,0,0,0-19.828.451,36.414,36.414,0,0,1,8.921,11.246,24.463,24.463,0,0,1-4.664,3.286,11.176,11.176,0,0,0,2.241,4.323,5.532,5.532,0,0,0,.3,3.576c-2.806,2.222-5.714,4.239-8.52,6.461-1.36,1.077-2.793,2.254-3.317,3.909a5.216,5.216,0,0,0,1.191,4.9,7.756,7.756,0,0,0,4.6,2.359A19.914,19.914,0,0,0,310.36,183.8a5.1,5.1,0,0,0,4.513,1.832,14.657,14.657,0,0,0,4.777-1.476l8.026-3.531c2.611-1.148,5.62-.689,8.447-.317a12.01,12.01,0,0,1,7.536,3.645c.327-.753.771-1.2,1.1-1.956a9.99,9.99,0,0,1,2.119,4.017c2.182-1.056,3.527-3.5,4.157-5.838a25.5,25.5,0,0,0,.52-7.227c.549,1.243,1.088,2.618,1.637,3.861a26.928,26.928,0,0,0,1.317-17.439,11.451,11.451,0,0,0,6.708-4.439c-1.225.19-2.169-.63-3.194-1.327a12.9,12.9,0,0,1-2.634-2.6,63.758,63.758,0,0,1-6.5-9.636c-.784-4.268-1.331-8.341-4.1-11.291a31.771,31.771,0,0,0-10.64,7.464,14.972,14.972,0,0,0-8.573-.708,44.681,44.681,0,0,0-8.2,2.97Z" transform="translate(-292.309 -130.07)" fill="#09090a"/>
      <path id="Path_1324" data-name="Path 1324" d="M338.739,195.783a16.743,16.743,0,0,0,2.629-2.634,5.628,5.628,0,0,0,1.219-3.452,3.421,3.421,0,0,0-1.855-3.014,5.639,5.639,0,0,0-3.577.045l-2.895.676a41.042,41.042,0,0,0,8.37-7.254,16.5,16.5,0,0,0,2.544-3.6,7.606,7.606,0,0,0,.813-4.284,9.9,9.9,0,0,1-3.02,4.4c-.858-1.08-1.8-2.2-2.657-3.284a23.6,23.6,0,0,0,7.718-10.1,47.458,47.458,0,0,1,8.74-5.292,18.392,18.392,0,0,1,10.014-1.4A13.5,13.5,0,0,0,358.1,159.6a10.186,10.186,0,0,1,7.359-.436,6.5,6.5,0,0,0-1.946,5.968,52.458,52.458,0,0,1,15.322-14.39,7.99,7.99,0,0,1,1.523,3.209,61.2,61.2,0,0,1,2.223,15.505,14.806,14.806,0,0,0,1.412-7.254,19.8,19.8,0,0,0,8.5,10.563,5.338,5.338,0,0,1-3.56,1.343,5.1,5.1,0,0,1-3.4-1.5,15.9,15.9,0,0,1,1.508,14.267,10.438,10.438,0,0,0-7.1-6.433c2.558,3.263,5.393,6.689,5.6,10.832.156,3.078-1.043,6.044-2.22,8.893a54.681,54.681,0,0,0-4.068-6.873,19.923,19.923,0,0,0-3.217-3.853A8.994,8.994,0,0,0,371.6,187.2a13.75,13.75,0,0,1,6.253,11.031,19.4,19.4,0,0,0-18.606-1.66c-1.707.757-3.3,1.764-5.02,2.483a8.582,8.582,0,0,1-5.461.655,12.357,12.357,0,0,0,4.736-4.226,40.119,40.119,0,0,1,10.012-3.874,1.463,1.463,0,0,0-.5-.9,4.206,4.206,0,0,0-.85-.588l-1.975-1.14a6.841,6.841,0,0,1,3.383-.343,13.606,13.606,0,0,0-3.5-1.428,4.2,4.2,0,0,0-3.447.7c-1.18.972-1.547,2.722-2.809,3.587a2.639,2.639,0,0,0-.852-2.022,8.93,8.93,0,0,1-3.368,7.182,10.208,10.208,0,0,1-8.327,1.758,5.934,5.934,0,0,0,3.41-1.172c-2.518.5-4.659.1-5.934-1.467Z" transform="translate(-327.506 -147.412)" fill="#57595b"/>
      <path id="Path_1325" data-name="Path 1325" d="M536.27,201.066a28.452,28.452,0,0,1,8.637-7.076A17.537,17.537,0,0,1,547,205.472a11.9,11.9,0,0,0-3.757-5.859,3.248,3.248,0,0,1-.456,3.614,6.3,6.3,0,0,0-2.2-3.836,5.265,5.265,0,0,1-4.318,1.674Z" transform="translate(-496.994 -183.699)" fill="#09090a"/>
      <path id="Path_1326" data-name="Path 1326" d="M465.789,174.115a5.356,5.356,0,0,0,3.559-1.343,19.8,19.8,0,0,1-8.5-10.563,14.791,14.791,0,0,1-1.412,7.254,61.27,61.27,0,0,0-2.223-15.505,8,8,0,0,0-1.523-3.209,51.527,51.527,0,0,0-8.331,6.366,48.521,48.521,0,0,1,8.137-4.722,35.793,35.793,0,0,1,2.28,10.735,109.363,109.363,0,0,1-.008,11.112c-.013.385-.161.805-.187,1.188a19.765,19.765,0,0,0-9.6-8.586,8.67,8.67,0,0,1,2.494,5.64,28.656,28.656,0,0,0-7.27-4.424,19.051,19.051,0,0,0-5.574-1.359,11.461,11.461,0,0,0-5.62.937,1.968,1.968,0,0,1,1.344-1.228,17.022,17.022,0,0,0-6.078,2.355,2.851,2.851,0,0,0-1.406,1.65,5.06,5.06,0,0,1,2.941-.882A7.241,7.241,0,0,0,426.3,176.4c2.194-.024,4.555.195,6.749.171a40.128,40.128,0,0,1,6.57.288,13.447,13.447,0,0,1,6.073,2.367c1.344,1.011,3.014,1.212,4.263,2.336a30.5,30.5,0,0,1,3.35,3.762,6.218,6.218,0,0,0-1.673-5.487,21.96,21.96,0,0,1,8.636,9.582q.742-.594,1.533-1.12c-1.006-2.863-3.08-5.4-5-7.849a10.445,10.445,0,0,1,7.1,6.433,15.9,15.9,0,0,0-1.509-14.267,5.119,5.119,0,0,0,3.4,1.5Z" transform="translate(-404.367 -147.421)" fill="#cfcaca"/>
      <path id="Path_1327" data-name="Path 1327" d="M455.624,182.9a25.321,25.321,0,0,0-2.7-8.621,33.235,33.235,0,0,1,9.1,7.037,21.668,21.668,0,0,0-1.745-14.039,14.805,14.805,0,0,1-.834,2.18,61.278,61.278,0,0,0-2.223-15.505,8,8,0,0,0-1.523-3.209,51.516,51.516,0,0,0-8.331,6.366,48.522,48.522,0,0,1,8.137-4.722,35.788,35.788,0,0,1,2.28,10.735,109.276,109.276,0,0,1-.008,11.112c-.013.385-.161.8-.187,1.188a19.765,19.765,0,0,0-9.6-8.586,8.671,8.671,0,0,1,2.494,5.64,28.66,28.66,0,0,0-7.27-4.424,19.053,19.053,0,0,0-5.574-1.359,11.462,11.462,0,0,0-5.62.937,1.968,1.968,0,0,1,1.344-1.228,17.021,17.021,0,0,0-6.077,2.355,2.851,2.851,0,0,0-1.406,1.65,5.06,5.06,0,0,1,2.942-.882,7.241,7.241,0,0,0-2.516,6.868c2.194-.024,4.554.195,6.749.171a40.133,40.133,0,0,1,6.57.288,13.448,13.448,0,0,1,6.073,2.367c1.344,1.011,3.014,1.212,4.263,2.336a30.524,30.524,0,0,1,3.35,3.762,6.218,6.218,0,0,0-1.673-5.487,24.826,24.826,0,0,1,3.99,3.075Z" transform="translate(-404.376 -147.412)" fill="#fff"/>
      <path id="Path_1328" data-name="Path 1328" d="M398.873,357.607a11.421,11.421,0,0,0-8.008-5.331,4.73,4.73,0,0,1,2.083,2.352,31.211,31.211,0,0,0-9.768-2.716,6.423,6.423,0,0,0-3.42.374c-1.5.732-2.28,2.381-2.932,3.917a4.431,4.431,0,0,0-4.15-2.289,5.54,5.54,0,0,1,3.329-.267,8.518,8.518,0,0,0-6.234-1.926,8.053,8.053,0,0,0-5.624,3.339c-.044.063-.084.127-.126.19a.248.248,0,0,1,.037.016,3.422,3.422,0,0,1,1.855,3.014,5.628,5.628,0,0,1-1.219,3.452,16.868,16.868,0,0,1-2.629,2.634c1.275,1.562,3.416,1.967,5.934,1.467a5.941,5.941,0,0,1-3.41,1.172,10.208,10.208,0,0,0,8.327-1.758,8.933,8.933,0,0,0,3.368-7.182,2.647,2.647,0,0,1,.852,2.022c1.262-.864,1.629-2.615,2.809-3.587a4.207,4.207,0,0,1,3.447-.7,13.527,13.527,0,0,1,3.5,1.428,6.861,6.861,0,0,0-3.382.343l1.975,1.14a4.2,4.2,0,0,1,.85.588,1.47,1.47,0,0,1,.5.9,40.126,40.126,0,0,0-10.012,3.874,12.319,12.319,0,0,1-4.736,4.226,8.581,8.581,0,0,0,5.461-.655c1.723-.72,3.313-1.726,5.02-2.483a19.394,19.394,0,0,1,18.606,1.66,13.75,13.75,0,0,0-6.253-11.031,8.685,8.685,0,0,1,3.943,1.824Z" transform="translate(-350.839 -315.994)" fill="#fff"/>
      <path id="Path_1329" data-name="Path 1329" d="M400.184,383.429a23.3,23.3,0,0,0-10.529-6.35,5.428,5.428,0,0,1,4.3-.455,54.152,54.152,0,0,0-7.525-3.416,10.918,10.918,0,0,0-5.057-.9,4.307,4.307,0,0,0-3.777,3.059,3.875,3.875,0,0,0-3.432-1.777,3.347,3.347,0,0,1,.877,2.987,4.914,4.914,0,0,1-1.452,2.748,11.213,11.213,0,0,1-2.57,1.829,4.97,4.97,0,0,0,1.179-4.2,3.993,3.993,0,0,1-2.329,3.135,6.324,6.324,0,0,1-3.859.366,3.651,3.651,0,0,0,.989-3.463,3.345,3.345,0,0,0-1.1-1.792c.014.118.026.235.031.353a5.629,5.629,0,0,1-1.219,3.452,16.884,16.884,0,0,1-2.629,2.634c1.275,1.562,3.416,1.967,5.934,1.467a5.938,5.938,0,0,1-3.41,1.172,10.207,10.207,0,0,0,8.327-1.758,8.933,8.933,0,0,0,3.368-7.182,2.646,2.646,0,0,1,.852,2.022c1.262-.864,1.629-2.614,2.809-3.587a4.208,4.208,0,0,1,3.447-.7,13.527,13.527,0,0,1,3.5,1.428,6.86,6.86,0,0,0-3.382.343l1.975,1.14a4.2,4.2,0,0,1,.85.588,1.471,1.471,0,0,1,.5.9,40.13,40.13,0,0,0-10.012,3.874,12.318,12.318,0,0,1-4.736,4.226,8.581,8.581,0,0,0,5.461-.655c1.723-.72,3.313-1.726,5.02-2.483a19.5,19.5,0,0,1,17.6,1Z" transform="translate(-350.847 -333.267)" fill="#cfcaca"/>
      <path id="Path_1330" data-name="Path 1330" d="M374.486,206.017a10.137,10.137,0,0,0,2.9-4.062c.106-.467.213-.935.317-1.4-.687.518-1.422.882-2.109,1.4a7.931,7.931,0,0,1,2.37-2.782c-.6.2-1.191.4-1.789.6a11.651,11.651,0,0,0,3.658-6.7,11.424,11.424,0,0,1,6.886-2.661,1.664,1.664,0,0,0-1.647-.612,23.675,23.675,0,0,1,7.169-2.515,13.35,13.35,0,0,1,6.06-1.349,18.392,18.392,0,0,0-10.014,1.4,47.4,47.4,0,0,0-8.74,5.292,23.575,23.575,0,0,1-7.718,10.1C372.688,203.813,373.628,204.936,374.486,206.017Z" transform="translate(-359.027 -176.769)" fill="#fff"/>
      <path id="Path_1331" data-name="Path 1331" d="M460.87,359.147l2.608-3.107a11.425,11.425,0,0,1,6.045,2.476,20.2,20.2,0,0,0-5.553-1.227c-.43.33-1.1.628-1.534.958A4.843,4.843,0,0,1,460.87,359.147Z" transform="translate(-433.732 -319.66)" fill="#09090a"/>
      <path id="Path_1332" data-name="Path 1332" d="M378.338,203.932a11.125,11.125,0,0,0-4.187-5.538,30.726,30.726,0,0,1,9.236.605,28.453,28.453,0,0,0-4.556,2.687C378.732,202.425,378.436,203.193,378.338,203.932Z" transform="translate(-360.974 -187.306)" fill="#57595b"/>
      <path id="Path_1333" data-name="Path 1333" d="M356.514,194.793a31,31,0,0,1,8.836.523,18.257,18.257,0,0,0-12.22-.5,33.725,33.725,0,0,1,3.843,4.147,11.031,11.031,0,0,0-1.331-3.228,6.718,6.718,0,0,1,3.722,2.246,10.433,10.433,0,0,1,1.014,1.513,11.139,11.139,0,0,0-3.862-4.7Z" transform="translate(-343.338 -183.705)" fill="#fff"/>
      <path id="Path_1334" data-name="Path 1334" d="M313.808,391.933q-.848-.833-1.7-1.665a.593.593,0,0,0,.585-.551.774.774,0,0,0-.469-.807,20.422,20.422,0,0,1,5.06-2.462,41.731,41.731,0,0,0-4.824,1.465c-.761.278-1.613.684-1.81,1.471a1.761,1.761,0,0,0,.926,1.823,5.964,5.964,0,0,0,2.23.724Z" transform="translate(-307.669 -345.174)" fill="#fff"/>
      <path id="Path_1335" data-name="Path 1335" d="M456.529,391.489a8.573,8.573,0,0,1,.63,2.091,6,6,0,0,0,1.681-1.067,8.16,8.16,0,0,0-1.251-1.075,2.1,2.1,0,0,0-2.793-.014,16.455,16.455,0,0,0-1.674,1.591c-.636.742-1.145,1.57-1.781,2.312.448-.386,1.533-1.178,1.98-1.567a4.726,4.726,0,0,1,1.394-.987,1.564,1.564,0,0,1,1.594.243,3.879,3.879,0,0,0,.221-1.528Z" transform="translate(-425.737 -348.908)" fill="#fff"/>
      <path id="Path_1336" data-name="Path 1336" d="M457.28,409.051l1.4-1.219a3.822,3.822,0,0,1,1.2-.807,1.307,1.307,0,0,1,1.36.235A38.231,38.231,0,0,1,457.28,409.051Z" transform="translate(-430.72 -362.362)" fill="#fff"/>
      <path id="Path_1337" data-name="Path 1337" d="M414.524,277.2a5.255,5.255,0,0,0-5.252-2.3,6.409,6.409,0,0,1,3.664-.414A16.712,16.712,0,0,1,421.6,278.4a10.577,10.577,0,0,0-3.13-8.459,5.466,5.466,0,0,1,3.679,1.713,11.231,11.231,0,0,0-13.847-5.831,10.6,10.6,0,0,1,2.109.372,3.33,3.33,0,0,1,1.7,1.116,11.516,11.516,0,0,0-6.2.309,11.643,11.643,0,0,0-5.1,3.6,3.314,3.314,0,0,1-2.483-.752,3.452,3.452,0,0,0,.977,2.59,43.2,43.2,0,0,1-4.257,7.482,16.333,16.333,0,0,0,5.464-3.392,24.578,24.578,0,0,1,14.01.063Z" transform="translate(-378.509 -243.449)" fill="#09090a"/>
      <path id="Path_1338" data-name="Path 1338" d="M440.6,265.257a11.515,11.515,0,0,1,6.2-.309,3.306,3.306,0,0,0-1.7-1.116,10.708,10.708,0,0,0-2.109-.372,11.377,11.377,0,0,1,5.406-.481,10.284,10.284,0,0,0-2.959-.58,8.1,8.1,0,0,0-5.063,1.591,7.956,7.956,0,0,1,2.4.179,11.824,11.824,0,0,0-3.73,1.215,5.86,5.86,0,0,0-2.264,1.785,3.451,3.451,0,0,0-.387.726A11.251,11.251,0,0,1,440.6,265.257Z" transform="translate(-413.194 -241.091)" fill="#cfcaca"/>
      <path id="Path_1339" data-name="Path 1339" d="M444.86,296.529c1.481-1.285,2.149-2.676,3.64-3.209a1.518,1.518,0,0,1,.971,1.232,2.158,2.158,0,0,1-.465,1.644,2.48,2.48,0,0,1-1.6.91A4.885,4.885,0,0,1,444.86,296.529Z" transform="translate(-420.3 -267.038)" fill="#fff"/>
    </g>
    <g id="Group_1050" data-name="Group 1050" transform="translate(453.955 5875.226)">
      <path id="Path_1340" data-name="Path 1340" d="M399.282,549.283A22.393,22.393,0,0,1,384.316,575.8c-13.01,4.158-27.53-4-40.6-.034-2.774.842-5.57,2.412-6.718,5.075a6.408,6.408,0,0,0,8.9,8.188,7.539,7.539,0,0,1-7.37,3.205,12.122,12.122,0,0,0,6.486,1.024,36.334,36.334,0,0,0,6.507-1.4A28.493,28.493,0,0,1,338.04,598.8a22.5,22.5,0,0,1-15.1-2.185c-7.047-3.914-11.192-12.126-11.081-20.185s4.128-15.794,10.028-21.285A88.864,88.864,0,0,1,348.181,538.5,81.509,81.509,0,0,1,375.576,532a22.676,22.676,0,0,1,9.687,1.166c2.858,1.164,5.219,3.26,7.518,5.318a22.256,22.256,0,0,1,6.5,10.808Z" transform="translate(-311.857 -531.935)" fill="#09090a"/>
      <path id="Path_1341" data-name="Path 1341" d="M335.269,750.651a16.138,16.138,0,0,0,18.262,10.516,7.3,7.3,0,0,0-2.924,6.367,7.441,7.441,0,0,0,3.836,5.953,4.909,4.909,0,0,1-5.432-2.376,9.709,9.709,0,0,0,3.869,5.736,10.285,10.285,0,0,0,6.86,1.946c-5.768,3.249-13.953,2.331-19.155-1.764a18.858,18.858,0,0,1-3.5-3.658,22.052,22.052,0,0,1-1.814-22.723Z" transform="translate(-329.54 -715.438)" fill="#fff"/>
      <path id="Path_1342" data-name="Path 1342" d="M417.138,831.1a9.711,9.711,0,0,1-3.869-5.736,4.914,4.914,0,0,0,5.432,2.376,7.443,7.443,0,0,1-3.837-5.954,7.3,7.3,0,0,1,2.924-6.367,16.233,16.233,0,0,1-6.527-.108,19.169,19.169,0,0,0-1.7,6.741,9.863,9.863,0,0,0,9.207,11.31,19.263,19.263,0,0,0,4.857-.113c.125-.066.251-.131.373-.2a10.3,10.3,0,0,1-6.86-1.946Z" transform="translate(-393.8 -769.688)" fill="#cfcaca"/>
      <path id="Path_1343" data-name="Path 1343" d="M436.076,828.428a4.134,4.134,0,0,0,.736-.137,7.442,7.442,0,0,1-3.836-5.954,7.294,7.294,0,0,1,2.924-6.367,16.061,16.061,0,0,1-4.345.224,12.241,12.241,0,0,0,.29,7.436,9.237,9.237,0,0,0,1.711,2.684,10.922,10.922,0,0,0,1.178,1.154c.235.2,1.029.99,1.341.961Z" transform="translate(-411.91 -770.242)" fill="#57595b"/>
      <path id="Path_1344" data-name="Path 1344" d="M443.46,653.807a26.725,26.725,0,0,1,16.872-2.978,22.628,22.628,0,0,1,4.962,7.217,11.69,11.69,0,0,1,.219,8.6,19.637,19.637,0,0,1-3.548,5.237,15.012,15.012,0,0,0-9.339,1.676,29.222,29.222,0,0,1-9.165-19.751Z" transform="translate(-422.273 -631.442)" fill="#fff"/>
      <path id="Path_1345" data-name="Path 1345" d="M488.346,725.211a21.386,21.386,0,0,0-18.526,4.48,28.046,28.046,0,0,0,4.923,6.06,15.041,15.041,0,0,1,9.34-1.676,19.574,19.574,0,0,0,3.548-5.237,10.075,10.075,0,0,0,.716-3.627Z" transform="translate(-444.389 -693.634)" fill="#cfcaca"/>
      <path id="Path_1346" data-name="Path 1346" d="M498.838,741.357a29.2,29.2,0,0,0-9.93.373,9.407,9.407,0,0,1,5.718,1.924,21.677,21.677,0,0,0-11.936,2.8,26.949,26.949,0,0,0,2.85,3.078,15.038,15.038,0,0,1,9.339-1.676,19.565,19.565,0,0,0,3.549-5.237,9.339,9.339,0,0,0,.409-1.266Z" transform="translate(-455.187 -707.418)" fill="#57595b"/>
      <path id="Path_1347" data-name="Path 1347" d="M641.336,722.147a59.03,59.03,0,0,1-15.356-.338,15.246,15.246,0,0,0,7.055-4.432,15.769,15.769,0,0,0,3.75-7.6,18.455,18.455,0,0,0,12.955.225,13.235,13.235,0,0,1-2.256,7.121,20.9,20.9,0,0,1-6.148,5.023Z" transform="translate(-575.408 -681.148)" fill="#57595b"/>
      <path id="Path_1348" data-name="Path 1348" d="M677.8,717.3a9.644,9.644,0,0,1-3.455,1.736c2.88.558,5.918-.373,8.667-1.4l3.151-1.174a14.069,14.069,0,0,0,1.8-6.446,18.456,18.456,0,0,1-12.955-.226,15.773,15.773,0,0,1-3.471,7.277,16.019,16.019,0,0,0,6.263.232Z" transform="translate(-613.633 -681.156)" fill="#cfcaca"/>
      <path id="Path_1349" data-name="Path 1349" d="M683.517,715.8a29.919,29.919,0,0,0,10.279-1.125l.024-.006a17.286,17.286,0,0,0,.923-4.654,18.456,18.456,0,0,1-12.955-.226,15.474,15.474,0,0,1-2.169,5.5,29.7,29.7,0,0,0,3.9.512Z" transform="translate(-620.412 -681.156)" fill="#fff"/>
      <path id="Path_1350" data-name="Path 1350" d="M813.269,649.5A13.077,13.077,0,0,1,810.75,662.4a13.253,13.253,0,0,0-.67-6.805,6.888,6.888,0,0,0,1.343-5.881,5.006,5.006,0,0,1,1.845-.208Z" transform="translate(-729.869 -630.568)" fill="#cfcaca"/>
      <path id="Path_1351" data-name="Path 1351" d="M810.881,659.224a22.671,22.671,0,0,0,1.185-2.086,9.893,9.893,0,0,0,.108-7.348,3.2,3.2,0,0,0-.731.169,6.887,6.887,0,0,1-1.343,5.881,13.809,13.809,0,0,1,.784,3.386Z" transform="translate(-729.885 -630.816)" fill="#fff"/>
      <path id="Path_1352" data-name="Path 1352" d="M346.956,679.568c2.322-5.115,6.546-9.178,11.283-12.2a25.12,25.12,0,0,1,8.924-3.779,13.678,13.678,0,0,1,9.43,1.465c-8.274,1.795-16.112,6.227-21.192,13-4.946,6.6-7.084,15.586-4.666,23.579a20.475,20.475,0,0,1-3.779-22.066Z" transform="translate(-339.863 -642.181)" fill="#09090a"/>
    </g>
    <g id="Group_1054" data-name="Group 1054" transform="translate(431.803 5841.592)">
      <path id="Path_1353" data-name="Path 1353" d="M292.023,329.431c0-2.3-.478-3.859-1.492-4.9-2.394-2.5-6.343-1.23-7.641-.813a12.52,12.52,0,0,0-5.377,3.107,2.587,2.587,0,0,0-2.312-.372l-8.732,2.8a2.564,2.564,0,0,1-2.4.768l-4.791,1.536a2.591,2.591,0,0,1-1.971.633l-4.753,1.523a2.584,2.584,0,0,0-1.781,2.182c-2.336-1.171-5.284-.227-6.372.122-3.081.989-5.24,2.5-6.414,4.471-.085.143-.164.291-.24.444-2.412-2.006-6.024-.85-7.254-.456-3.081.989-5.24,2.5-6.414,4.471-.082.137-.156.28-.23.423-2.4-1.684-5.775-.6-6.957-.225l-5.757,1.847a2.589,2.589,0,0,0-1.781,2.183c-2.336-1.171-5.284-.227-6.372.122a12.093,12.093,0,0,0-5.67,3.434c-.055-.047-.108-.1-.167-.138a2.584,2.584,0,0,0-2.315-.374l-6.607,2.119a2.586,2.586,0,0,0-1.756,2.006l-.391,2.173-.09-.446a2.587,2.587,0,0,0-3.325-1.948l-6.607,2.119a2.587,2.587,0,0,0-1.8,2.463v25.77a2.587,2.587,0,0,0,3.378,2.463l4.791-1.536a2.589,2.589,0,0,0,1.161-.765,2.585,2.585,0,0,0,1.389-.053l4.1-1.314a2.586,2.586,0,0,0,1.177-.783,2.586,2.586,0,0,0,1.412-.047l4.753-1.523a2.6,2.6,0,0,0,1.1-.7,2.534,2.534,0,0,0,1.3-.071l4.753-1.525a2.591,2.591,0,0,1,1.97-.633l4.791-1.536a2.58,2.58,0,0,0,1.1-.7,2.535,2.535,0,0,0,1.3-.071l4.753-1.523a2.587,2.587,0,0,0,1.8-2.463v-3.386a13.12,13.12,0,0,0,3.674-2v2.548a2.587,2.587,0,0,0,3.378,2.463l4.753-1.525a2.569,2.569,0,0,0,.919-.522,2.6,2.6,0,0,0,1.051-.109l4.791-1.536a2.592,2.592,0,0,0,1.785-2.22,5.874,5.874,0,0,0,2.635.568c.206,0,.409-.008.61-.022a2.6,2.6,0,0,0-.108.736v17.859a2.587,2.587,0,0,0,3.378,2.463l3.292-1.056a8.77,8.77,0,0,0,3.432-1.877,2.6,2.6,0,0,0,1.159.275,2.556,2.556,0,0,0,.789-.124l1.9-.609a2.585,2.585,0,0,0,1.5-1.253,4.81,4.81,0,0,0,1.327.18,9.926,9.926,0,0,0,6.049-2.439,2.592,2.592,0,0,0,1.021.211,2.556,2.556,0,0,0,.789-.124l5.115-1.639a2.59,2.59,0,0,0,.935-.538,2.763,2.763,0,0,0,.282.018,2.547,2.547,0,0,0,.789-.124l1.713-.549a2.586,2.586,0,0,0,1.454-1.175,2.594,2.594,0,0,0,1.866.111l1.821-.584a2.587,2.587,0,0,0,1.472-1.209,4.821,4.821,0,0,0,1.27.163,8.416,8.416,0,0,0,2.558-.465,7.887,7.887,0,0,0,3.946-2.478c.021-.027.042-.055.061-.082a6.281,6.281,0,0,0,1.083-3.8V357.3a4.708,4.708,0,0,0-1.645-3.985c-.051-.037-.1-.072-.158-.106a3.935,3.935,0,0,0-1.092-.468,8.214,8.214,0,0,0,2.017-2.252,9.438,9.438,0,0,0,1.14-4.938V335.307a2.59,2.59,0,0,1,0-1.971v-3.9Z" transform="translate(-174.26 -323.022)" fill="#09090a"/>
      <path id="Path_1354" data-name="Path 1354" d="M621.842,614.488a5.442,5.442,0,0,1-2.758,1.634l-3.294,1.056V599.319l3.294-1.056c1.34-.43,2.249-.48,2.758-.135.481.354.536,1.114.536,1.918v12.182A3.676,3.676,0,0,1,621.842,614.488Zm-1.393-14.172c0-.75-.616-.874-1.365-.633l-1.392.446v15.021l1.392-.446a1.7,1.7,0,0,0,1.365-1.509Z" transform="translate(-544.706 -553.646)" fill="#fff"/>
      <path id="Path_1355" data-name="Path 1355" d="M669.67,604.109V586.25l1.9-.61V603.5Z" transform="translate(-589.912 -543.36)" fill="#fff"/>
      <path id="Path_1356" data-name="Path 1356" d="M701.028,586.322a3.728,3.728,0,0,1-.589,2.278,5.41,5.41,0,0,1-2.7,1.616c-1.339.43-2.222.445-2.7.118-.509-.346-.589-1.069-.589-1.9v-3.266l1.9-.61v3.614c0,.75.481.916,1.393.625s1.365-.76,1.365-1.509v-6.346l-4.659,1.494v-6.561a3.569,3.569,0,0,1,.589-2.278,5.352,5.352,0,0,1,2.7-1.616c1.34-.43,2.2-.436,2.7-.118a2.28,2.28,0,0,1,.589,1.9v2.357l-1.927.618v-2.7c0-.75-.456-.926-1.365-.633s-1.393.768-1.393,1.519v5.488l4.685-1.5Z" transform="translate(-610.694 -531.613)" fill="#fff"/>
      <path id="Path_1357" data-name="Path 1357" d="M749.731,556.622v6.586l3.186-1.022V563.6l-3.186,1.022v7.015l3.213-1.03v1.418l-5.115,1.641V555.81l5.115-1.64v1.418l-3.213,1.03Z" transform="translate(-655.488 -516.956)" fill="#fff"/>
      <path id="Path_1358" data-name="Path 1358" d="M797.1,540.385l-3.32-11.494v12.558L792.07,542V524.139l1.848-.593,3.294,11.5V522.49l1.713-.549V539.8l-1.821.584Zm-.4-18.695c-1.1.353-1.741-.433-2.249-.269a1.276,1.276,0,0,0-.75,1.177l-.831.266a2.419,2.419,0,0,1,1.606-2.55c.99-.317,1.74.433,2.249.269a1.277,1.277,0,0,0,.75-1.177l.831-.266A2.419,2.419,0,0,1,796.7,521.69Z" transform="translate(-692.606 -487.566)" fill="#fff"/>
      <path id="Path_1359" data-name="Path 1359" d="M853.1,539.658a5.411,5.411,0,0,1-2.7,1.617c-1.34.43-2.222.444-2.7.117-.509-.346-.589-1.069-.589-1.9V526.935a3.568,3.568,0,0,1,.589-2.278,5.352,5.352,0,0,1,2.7-1.616c1.34-.43,2.2-.436,2.7-.117a2.28,2.28,0,0,1,.589,1.9V537.38A3.729,3.729,0,0,1,853.1,539.658Zm-1.339-14.565c0-.75-.456-.926-1.365-.633s-1.393.768-1.393,1.518v13.255c0,.75.482.916,1.393.625s1.365-.76,1.365-1.508V525.095Z" transform="translate(-738.776 -490.552)" fill="#fff"/>
      <path id="Path_1360" data-name="Path 1360" d="M209.118,545.422l-4.753,1.523V530.757l-2.589,17.019-4.1,1.314-2.55-15.372v16.188l-4.791,1.536v-25.77l6.607-2.119,2.782,13.673,2.782-15.457,6.607-2.119v25.77Z" transform="translate(-187.751 -487.994)" fill="#fff"/>
      <path id="Path_1361" data-name="Path 1361" d="M333.364,522.811l-4.791,1.536V512.369L326.6,513v11.978L321.85,526.5V505.56a7.144,7.144,0,0,1,.773-3.648q1.275-2.147,4.984-3.336t4.984.14a4.646,4.646,0,0,1,.773,3.152v20.941Zm-4.791-13.57v-6.955q0-1-.966-.7a1.292,1.292,0,0,0-1,1.327v6.955Z" transform="translate(-298.089 -469.842)" fill="#fff"/>
      <path id="Path_1362" data-name="Path 1362" d="M419.764,486.375a7.053,7.053,0,0,1-.773,3.61q-1.275,2.147-4.984,3.338l-1,.322V498.9l-4.753,1.523v-25.77l5.757-1.845q3.709-1.188,4.984.14a4.646,4.646,0,0,1,.773,3.152v10.278Zm-4.791,2.54v-12.4q0-1-.966-.694l-1,.322v14.372l1-.322A1.242,1.242,0,0,0,414.973,488.915Z" transform="translate(-370.579 -448.221)" fill="#fff"/>
      <path id="Path_1363" data-name="Path 1363" d="M504.234,468.021l-4.791,1.536V457.579l-1.97.631v11.978l-4.753,1.523V450.77a7.148,7.148,0,0,1,.773-3.648q1.275-2.147,4.984-3.336t4.984.14a4.646,4.646,0,0,1,.773,3.152v20.941Zm-4.791-13.57V447.5q0-1-.966-.7a1.293,1.293,0,0,0-1,1.327v6.955Z" transform="translate(-441.45 -423.873)" fill="#fff"/>
      <path id="Path_1364" data-name="Path 1364" d="M590.624,435.508a7.055,7.055,0,0,1-.773,3.61q-1.275,2.147-4.984,3.337t-4.984-.14a4.57,4.57,0,0,1-.773-3.114V423.09a7.145,7.145,0,0,1,.773-3.648q1.275-2.147,4.984-3.336t4.984.14a4.646,4.646,0,0,1,.773,3.152v5.834l-4.791,1.536v-6.955q0-1-.966-.7a1.292,1.292,0,0,0-1,1.327V438.8q0,.966,1,.644a1.242,1.242,0,0,0,.966-1.275V429.9l4.791-1.536v7.148Z" transform="translate(-513.931 -400.649)" fill="#fff"/>
      <path id="Path_1365" data-name="Path 1365" d="M677.024,407.54l-4.791,1.536V397.1l-1.971.631v11.978l-4.753,1.523V385.46l4.753-1.523V394.6l1.971-.631V383.306l4.791-1.536Z" transform="translate(-586.421 -372.312)" fill="#fff"/>
      <path id="Path_1366" data-name="Path 1366" d="M760.632,363.6l-3.98,1.277v6.685l3.941-1.264v3.13l-3.941,1.264v8l3.98-1.277v3.98l-8.732,2.8V362.42l8.732-2.8v3.98Z" transform="translate(-658.903 -353.728)" fill="#fff"/>
      <path id="Path_1367" data-name="Path 1367" d="M829.644,348.823v10.239a7.058,7.058,0,0,1-.773,3.61q-1.275,2.147-4.984,3.337t-4.984-.14a4.567,4.567,0,0,1-.773-3.113V357.5l4.791-1.536v6.375q0,.966.985.65a1.231,1.231,0,0,0,.947-1.27v-8.346l-6.723,2.156v-8.887a7.047,7.047,0,0,1,.773-3.61q1.275-2.147,4.984-3.337t4.984.14a4.574,4.574,0,0,1,.773,3.114v3.9l-4.791,1.536v-5.023q0-.966-.966-.657a1.244,1.244,0,0,0-.966,1.275v6.994l6.723-2.156Z" transform="translate(-714.47 -336.541)" fill="#fff"/>
      <g id="Group_1053" data-name="Group 1053" transform="translate(3.544 14.042)">
        <path id="Path_1368" data-name="Path 1368" d="M622.989,653.264v6.111a2.076,2.076,0,0,1-1.65,1.9l-1.393.446a.409.409,0,0,1-.533-.389v-6.894l-1.083.356V662.8l2.76-.886a5.086,5.086,0,0,0,2.555-1.488,3.342,3.342,0,0,0,.456-2.017V652.9Z" transform="translate(-550.381 -613.833)" fill="#cfcaca"/>
        <path id="Path_1369" data-name="Path 1369" d="M672.21,645.126V653.2l1.083-.348V644.77Z" transform="translate(-595.586 -607.012)" fill="#cfcaca"/>
        <path id="Path_1370" data-name="Path 1370" d="M701.634,627.475c0,.015,0,.029,0,.043v6.346c0,.921-.539,1.542-1.65,1.9a1.663,1.663,0,0,1-1.512-.042,1.127,1.127,0,0,1-.414-.973V631.7l-1.083.348v2.969c0,.667.05,1.317.411,1.562.219.148.813.324,2.351-.169a5.051,5.051,0,0,0,2.508-1.481,3.277,3.277,0,0,0,.5-2.023v-5.79Z" transform="translate(-616.368 -592.195)" fill="#cfcaca"/>
        <path id="Path_1371" data-name="Path 1371" d="M751.45,619.13l-1.09.357v8.162l4.3-1.378v-.56l-2.68.86a.411.411,0,0,1-.365-.06.407.407,0,0,1-.167-.33v-7.014a.229.229,0,0,1,.006-.035Z" transform="translate(-661.155 -585.5)" fill="#cfcaca"/>
        <g id="Group_1051" data-name="Group 1051" transform="translate(96.328 29.676)">
          <path id="Path_1372" data-name="Path 1372" d="M795.5,605.02l-.9.294v8.214l.9-.288Z" transform="translate(-794.6 -603.338)" fill="#cfcaca"/>
          <path id="Path_1373" data-name="Path 1373" d="M813.937,594.861v3.509a.409.409,0,0,1-.8.113l-.879-3.07-.736.241,2.177,7.536,1.137-.364V594.57l-.9.295Z" transform="translate(-808.796 -594.57)" fill="#cfcaca"/>
        </g>
        <path id="Path_1374" data-name="Path 1374" d="M854.316,577.414v6.569c0,.921-.539,1.542-1.649,1.9a2.787,2.787,0,0,1-.839.153,1.1,1.1,0,0,1-.671-.195,1.126,1.126,0,0,1-.414-.972v-6.28l-1.084.356v6.187c0,.666.05,1.317.41,1.562.219.148.815.324,2.351-.169a5.079,5.079,0,0,0,2.5-1.475,3.282,3.282,0,0,0,.507-2.03V577.05l-1.111.364Z" transform="translate(-744.468 -550.195)" fill="#cfcaca"/>
        <g id="Group_1052" data-name="Group 1052" transform="translate(0 30.756)">
          <path id="Path_1375" data-name="Path 1375" d="M199.153,629.77l-2.883.945v11.848l2.883-.924Z" transform="translate(-196.27 -625.183)" fill="#cfcaca"/>
          <path id="Path_1376" data-name="Path 1376" d="M283.38,602.214v11.949l2.846-.913V601.28Z" transform="translate(-269.356 -601.28)" fill="#cfcaca"/>
          <path id="Path_1377" data-name="Path 1377" d="M230.9,625.478l2.483-.8,1.908-12.543-1.747.573-.417,2.318a.953.953,0,0,1-1.872.021l-.3-1.49-1.924.631Z" transform="translate(-223.756 -610.392)" fill="#cfcaca"/>
        </g>
        <path id="Path_1378" data-name="Path 1378" d="M327.78,576.092v12l2.846-.913V575.9a.954.954,0,0,1,.662-.908l1.97-.633a.954.954,0,0,1,1.244.908v10.671l2.885-.926V572.94l-9.608,3.151Z" transform="translate(-306.608 -546.746)" fill="#cfcaca"/>
        <path id="Path_1379" data-name="Path 1379" d="M420.893,545.575v4.107a2.2,2.2,0,0,1-1.628,2.183l-1,.322a.954.954,0,0,1-1.244-.908v-4.434l-2.846.934v12.1l2.846-.913v-4.559a.954.954,0,0,1,.662-.908l1-.322c2.233-.716,3.732-1.7,4.456-2.916a6.188,6.188,0,0,0,.639-3.122V544.63Z" transform="translate(-379.089 -522.994)" fill="#cfcaca"/>
        <path id="Path_1380" data-name="Path 1380" d="M498.65,520.081v12.2l2.846-.913V520.086a.955.955,0,0,1,.662-.908l1.971-.631a.954.954,0,0,1,1.244.908v10.671l2.885-.926V516.93Z" transform="translate(-449.968 -499.753)" fill="#cfcaca"/>
        <path id="Path_1381" data-name="Path 1381" d="M585.04,503.312v8.777c0,1.744.351,2.294.5,2.449.562.586,1.983.547,4.01-.1,2.233-.716,3.732-1.7,4.456-2.916a6.186,6.186,0,0,0,.639-3.122v-5.841l-2.885.926v7.573a2.2,2.2,0,0,1-1.628,2.183,1.744,1.744,0,0,1-1.628-.151,1.62,1.62,0,0,1-.621-1.4V502.38l-2.846.934Z" transform="translate(-522.45 -487.546)" fill="#cfcaca"/>
        <path id="Path_1382" data-name="Path 1382" d="M671.43,463.412v12.4l2.846-.913V463.618a.955.955,0,0,1,.662-.908l1.971-.631a.954.954,0,0,1,1.244.908v10.671l2.885-.926V460.26l-9.607,3.151Z" transform="translate(-594.932 -452.207)" fill="#cfcaca"/>
        <path id="Path_1383" data-name="Path 1383" d="M761.338,439.316l3.28-1.051v-.575l-6.788,2.225v12.5l6.826-2.188v-1.977l-2.735.877a.954.954,0,0,1-1.244-.908v-8A.954.954,0,0,1,761.338,439.316Z" transform="translate(-667.422 -433.271)" fill="#cfcaca"/>
        <path id="Path_1384" data-name="Path 1384" d="M824.052,413.389v.527l5.478-1.756a.954.954,0,0,1,1.244.908v8.346a2.179,2.179,0,0,1-1.61,2.177,1.727,1.727,0,0,1-1.609-.153,1.627,1.627,0,0,1-.621-1.4v-5.068l-2.885.924v4.559c0,1.744.353,2.294.5,2.449.56.584,1.983.546,4.01-.1,2.233-.716,3.732-1.7,4.457-2.916a6.191,6.191,0,0,0,.639-3.122V410.24l-9.608,3.151Z" transform="translate(-722.98 -410.24)" fill="#cfcaca"/>
      </g>
    </g>
  </g>
</svg>
