<svg xmlns="http://www.w3.org/2000/svg" width="166" height="166" viewBox="0 0 166 166">
  <g id="Group_3950" data-name="Group 3950" transform="translate(-3942 -4676)">
    <rect id="Rectangle_190" data-name="Rectangle 190" width="166" height="166" transform="translate(3942 4676)" fill="none"/>
    <g id="Group_1211" data-name="Group 1211" transform="translate(3956.957 4697.159)">
      <path id="Path_2424" data-name="Path 2424" d="M227.749,618.873l-.882-.642a3.582,3.582,0,0,0,2.148-3.283v-5.257a3.579,3.579,0,0,0-1.433-2.865l-5.831-4.373a3.578,3.578,0,0,0-2.15-.717H167.937c-.038,0-.075-.006-.111-.006h0l-7.252.006H96.862a3.582,3.582,0,0,0-3.582,3.582V635.2a3.582,3.582,0,0,0,3.582,3.582h16.345a3.56,3.56,0,0,0,1.327-.257,3.566,3.566,0,0,0,1.327.257h9.312a3.571,3.571,0,0,0-.205,1.187v10.57a3.582,3.582,0,0,0,3.582,3.581h5.691a3.555,3.555,0,0,0,1.59-.376,3.576,3.576,0,0,0,1.6.376h3.13a3.581,3.581,0,0,0,2.158-.723l.6-.452.58.441a3.584,3.584,0,0,0,2.17.732h3.389a3.587,3.587,0,0,0,1.792-.487,3.557,3.557,0,0,0,1.8.487h2.873a3.545,3.545,0,0,0,1.015-.146,3.548,3.548,0,0,0,1.012.146h2.5a3.56,3.56,0,0,0,1.838-.511,3.569,3.569,0,0,0,1.826.511H167.5a3.566,3.566,0,0,0,1.827-.511,3.554,3.554,0,0,0,1.836.511h2.762a3.618,3.618,0,0,1,1.417,0h1.141a3.61,3.61,0,0,1,1.4,0h2.78a3.591,3.591,0,0,0,.9-.119,3.592,3.592,0,0,0,.9.119h3.057a3.814,3.814,0,0,0,.393-.023,3.5,3.5,0,0,0,.4.023h2.984a3.577,3.577,0,0,0,1.132-.183,3.584,3.584,0,0,0,1.132.183h3a3.58,3.58,0,0,0,3.522-4.231l-1.952-10.57a3.681,3.681,0,0,0-.149-.537h6.177a3.579,3.579,0,0,0,3.489-2.783l2.657,2.042a3.588,3.588,0,0,0,2.183.742h9.525a3.579,3.579,0,0,0,2.182-.741l5.622-4.32a3.582,3.582,0,0,0,1.4-2.841V621.77a3.579,3.579,0,0,0-1.474-2.9Zm-127.306,12.74V613.275l1.477,4.758v11.541a3.572,3.572,0,0,0,.638,2.041h-2.113ZM208.57,629.2h1.36v.374a3.6,3.6,0,0,0,.075.729l-1.433-1.1Zm13.125-17.836h-1.01v-.426c0-.116-.006-.231-.017-.344Zm.362,17.746-1.429,1.1a3.63,3.63,0,0,0,.056-.635v-3.952l1.24-.257-.2-2.013.33.24v5.519Z" transform="translate(-93.28 -530.556)" fill="#020304"/>
      <g id="Group_1205" data-name="Group 1205" transform="translate(21.207)">
        <path id="Path_2425" data-name="Path 2425" d="M236.792,174.474a13.745,13.745,0,0,0,9.892,11.822,11.112,11.112,0,0,0-1.779,9.4,27.581,27.581,0,0,0,4.4,8.893c1.166,1.7,2.546,3.557,4.6,3.865a7.527,7.527,0,0,0,4.14-.89c2.438-1,4.831-1.963,7.268-2.975a10.44,10.44,0,0,0,5.367,7.422,52.742,52.742,0,0,0,11.255-5.873c2.546,2.162,4.324,5.72,3.865,9.047a21.5,21.5,0,0,0,10.274-3.91,13.6,13.6,0,0,0,4.478-7.422,42.014,42.014,0,0,0,.966-8.772,23.75,23.75,0,0,1,2.975,12.789,13.232,13.232,0,0,0,8.618-6.333,20.02,20.02,0,0,0,2.669-10.627,40.856,40.856,0,0,0-1.9-10.934,17.476,17.476,0,0,1,7.147,10.78,30.031,30.031,0,0,0,.813-19.8,25.559,25.559,0,0,0-12.329-15.2,8.96,8.96,0,0,1,2.7-.275c2.821.338,5.336,1.809,7.728,3.282A35.856,35.856,0,0,0,295.705,139.1a6.129,6.129,0,0,1,3.174-1.426,13.525,13.525,0,0,0-6-2.009,43.619,43.619,0,0,0-6.486-.2c-1.242.03-2.469.076-3.711.076a2.851,2.851,0,0,1,.767-1.579c-4.831.154-9.784.4-14.261,2.132-4.493,1.733-8.618,4.907-10.6,9.309a11.979,11.979,0,0,0-11.471,8.649,48.216,48.216,0,0,0-10.7,5.182,8.611,8.611,0,0,0-2.975,2.821,8.441,8.441,0,0,0-.736,4.8,12.517,12.517,0,0,0,1.012,4.218,7.452,7.452,0,0,0,3.068,3.4Z" transform="translate(-232.658 -133.96)" fill="#020304"/>
        <path id="Path_2426" data-name="Path 2426" d="M565.631,408.8a27.082,27.082,0,0,1-5.061,15.349,18.132,18.132,0,0,0,5.214-5.26,20.679,20.679,0,0,1,2.162,7.959A23.249,23.249,0,0,0,565.631,408.8Z" transform="translate(-510.676 -366.982)" fill="#ce2121"/>
        <path id="Path_2427" data-name="Path 2427" d="M633.518,424.711a38.071,38.071,0,0,1-.076,12.022,101.424,101.424,0,0,1-2.622,11.792,28.75,28.75,0,0,0,5.873-15.381,12.947,12.947,0,0,1,6.226,4.877,23.812,23.812,0,0,0-9.4-13.31Z" transform="translate(-570.237 -380.471)" fill="#ce2121"/>
        <path id="Path_2428" data-name="Path 2428" d="M594.832,250.928a26.723,26.723,0,0,1,19.138,15.12,21.769,21.769,0,0,0-11.638-7.268,82.555,82.555,0,0,1,3.128,10.273,27.6,27.6,0,0,1,.154,10.52,47.352,47.352,0,0,0-4.523-15.15,25.173,25.173,0,0,0-10.9-11.164,12.534,12.534,0,0,1,3.986-5.8,12.943,12.943,0,0,0-4.37,1.35,4.42,4.42,0,0,1,1.4-2.285,7.275,7.275,0,0,0-5.566,2.591c-.552-.338-.966-.568-1.473-.921a8.142,8.142,0,0,1,5.8-3.757,20.686,20.686,0,0,1,5.137.307,9.018,9.018,0,0,0,5.061-.537,3.755,3.755,0,0,1-.966,2.591,12.41,12.41,0,0,1-2.622,1.655,2.935,2.935,0,0,0-1.733,2.469Z" transform="translate(-530.677 -227.435)" fill="#ce2121"/>
        <path id="Path_2429" data-name="Path 2429" d="M448.865,162.938a7.566,7.566,0,0,0-3.711,3.787,19.218,19.218,0,0,1,11.287-2.285,61.335,61.335,0,0,1,11.408,2.438,43.355,43.355,0,0,0-22.067-9.047,3.8,3.8,0,0,1,1.733-1.978,27.905,27.905,0,0,0-11.792,1.089,6.441,6.441,0,0,1,1.426-2.591,19.538,19.538,0,0,0-10.626,2.162,15.73,15.73,0,0,0-7.453,7.882c1.242-.307,2.591-.583,3.865-.89a6,6,0,0,1,1.7-1.272,39.4,39.4,0,0,1,3.711-1.779,4.093,4.093,0,0,0-1.978,3.02,30.791,30.791,0,0,1,22.5-.537Z" transform="translate(-390.706 -151.191)" fill="#ce2121"/>
        <path id="Path_2430" data-name="Path 2430" d="M356.891,228.8a26.351,26.351,0,0,0-8.664,6.181,1.591,1.591,0,0,1,.076-1.4,3.649,3.649,0,0,1,1.042-1.166,15.466,15.466,0,0,1,7.545-3.618Z" transform="translate(-330.536 -214.37)" fill="#f5c546"/>
        <path id="Path_2431" data-name="Path 2431" d="M350.777,462.01a10.327,10.327,0,0,1-3.833,11.516c-2.392,1.733-5.4,2.316-8.343,2.776-.353.613.154,1.425.767,1.779a3.668,3.668,0,0,0,2.086.307,12.54,12.54,0,0,0,9.554-5.689,9.7,9.7,0,0,0-.23-10.689Z" transform="translate(-322.383 -412.095)" fill="#e99933"/>
        <path id="Path_2432" data-name="Path 2432" d="M336.41,499.057a2.478,2.478,0,0,1-1.012.813,16.062,16.062,0,0,1-4.907,1.625,4.948,4.948,0,0,1-2.208-3.2,4.686,4.686,0,0,0-.613,3.588c-.353.154-.659.384-.966.537.154-.23.383-.537.537-.767a5.4,5.4,0,0,1-1.978-2.285,7.5,7.5,0,0,0,.843,5.183A27.214,27.214,0,0,0,332.254,503a7.9,7.9,0,0,0,4.155-3.941Z" transform="translate(-311.051 -442.855)" fill="#fff"/>
        <path id="Path_2433" data-name="Path 2433" d="M356.48,422.2a8.325,8.325,0,0,1,1.273,12.758,4.236,4.236,0,0,0,2.7-1.35,5.452,5.452,0,0,0,1.319-2.7,7.173,7.173,0,0,0-.921-5.182,8.49,8.49,0,0,0-4.37-3.527Z" transform="translate(-337.64 -378.343)" fill="#e99933"/>
        <path id="Path_2434" data-name="Path 2434" d="M273.332,393.972a17.075,17.075,0,0,0,3.557,7.5,19.384,19.384,0,0,1-.076-5.414c-.429-.307-.936-.492-1.319-.767a11.548,11.548,0,0,1,4.294.076,15.758,15.758,0,0,0,1.978,6.963,15.223,15.223,0,0,1,1.625-6.532,16.4,16.4,0,0,1,5.689,1.625,13.011,13.011,0,0,0-4.877-3.052,20.153,20.153,0,0,0-5.643-.92,27.207,27.207,0,0,0-5.23.522Z" transform="translate(-267.141 -353.948)" fill="#fff"/>
        <path id="Path_2435" data-name="Path 2435" d="M253.962,348.375c-.076-.307-.2-.613-.275-.921a5.929,5.929,0,0,1-.383-2.669,5.831,5.831,0,0,1-1.625-2.316,7.091,7.091,0,0,0,2.285,5.9Z" transform="translate(-248.753 -310.744)" fill="#f5c546"/>
        <path id="Path_2436" data-name="Path 2436" d="M262.824,246.292a26.079,26.079,0,0,1,8.311.076,2.781,2.781,0,0,1,1.35-1.625,2.334,2.334,0,0,0,.89,2.392,2.058,2.058,0,0,1,1.272-1.272,5.475,5.475,0,0,1,1.809-.2H278A8.71,8.71,0,0,0,276.2,243.3a11.8,11.8,0,0,1,7.5,4.877,10.551,10.551,0,0,0-2.669-5.366,15.566,15.566,0,0,0-4.907-3.557A12.107,12.107,0,0,1,283,240.728a11.875,11.875,0,0,1,4.723,5.214,6.86,6.86,0,0,0-1.35-5.843,12.128,12.128,0,0,1,7.453,3.941,34.256,34.256,0,0,1,4.632,7.069c.858-2.469,1.748-4.983,2.591-7.5a13.622,13.622,0,0,1,6.18,6.072,12.793,12.793,0,0,0-.691-8.343,12.49,12.49,0,0,1,7.147,1.733,7.51,7.51,0,0,0-2.361-3.02,23.334,23.334,0,0,0-3.512-2.008,8.34,8.34,0,0,1,3.252-.353,32.277,32.277,0,0,0-11.439-8.542,17.836,17.836,0,0,1,8-5.643,39.631,39.631,0,0,0-26.329,2.669,12.485,12.485,0,0,0-5.6,4.554,2.174,2.174,0,0,1,1.473,1.779,12.1,12.1,0,0,0-7.115-.2,36.368,36.368,0,0,0-6.809,2.868c-1.272.644-2.669,1.38-3.2,2.7a10.873,10.873,0,0,1,5.061-1.012c.429.046.966.154,1.089.583a4.143,4.143,0,0,1-.076.966,1.2,1.2,0,0,0,1.12,1.089,3.533,3.533,0,0,0,1.655-.307,6.25,6.25,0,0,1-3.757,2.438,6.767,6.767,0,0,0-2.054.583,2.319,2.319,0,0,0-1.042,1.779,3.045,3.045,0,0,0,.782,2.3Z" transform="translate(-255.882 -208.936)" fill="#e99933"/>
        <path id="Path_2437" data-name="Path 2437" d="M265.671,293.88a6.059,6.059,0,0,0,2.9-2.208,3.626,3.626,0,0,1-1.655.307,1.241,1.241,0,0,1-1.12-1.089c0-.307.2-.659.076-.966-.123-.429-.659-.537-1.089-.583a10.893,10.893,0,0,0-5.061,1.012c.537-1.3,1.932-2.086,3.2-2.7a40.088,40.088,0,0,1,6.809-2.868,12.226,12.226,0,0,1,7.039.154c0,.031-.046.031-.046.076a15.264,15.264,0,0,0-10.4,3.02,1.007,1.007,0,0,1,.89.736,5.567,5.567,0,0,0,.23,1.165,1.583,1.583,0,0,0,1.779.659,4.131,4.131,0,0,0,1.7-1.12,4.515,4.515,0,0,1-1.12,2.438,4.7,4.7,0,0,1-4.14,1.963Z" transform="translate(-255.602 -261.462)" fill="#f5c546"/>
        <path id="Path_2438" data-name="Path 2438" d="M364.666,249.156a2.085,2.085,0,0,0-1.426-1.625c1.226-2.116,3.388-3.466,5.6-4.554.568-.26,1.15-.537,1.733-.767a14.155,14.155,0,0,0-5.9,6.946Z" transform="translate(-343.371 -225.739)" fill="#f5c546"/>
        <path id="Path_2439" data-name="Path 2439" d="M399.564,265.857a7.161,7.161,0,0,0-4.877-2.361,13.183,13.183,0,0,0-5.444.89,23.217,23.217,0,0,0-6.763,3.757,5.227,5.227,0,0,1,1.579,2.316,3,3,0,0,0,1.012-1.655,3.712,3.712,0,0,1,3.328,1.5,9.367,9.367,0,0,1,8.741.966,9.7,9.7,0,0,0-1.978-2.469,9.429,9.429,0,0,1,5.414,2.669,7.956,7.956,0,0,0-2.132-3.2,16.024,16.024,0,0,0-3.174-2.132c1.426.046,2.821-.23,4.294-.275Z" transform="translate(-359.684 -243.759)" fill="#020304"/>
        <path id="Path_2440" data-name="Path 2440" d="M415.008,286.758a7.013,7.013,0,0,0-5.52,1.7,10.14,10.14,0,0,0-2.208-1.625,8.122,8.122,0,0,1,7.728-.076Z" transform="translate(-380.71 -262.713)" fill="#fff"/>
        <path id="Path_2441" data-name="Path 2441" d="M398.244,263.04a9.367,9.367,0,0,1,8.741.966,9.7,9.7,0,0,0-1.978-2.47,9.431,9.431,0,0,1,5.414,2.669,7.956,7.956,0,0,0-2.132-3.2,16.024,16.024,0,0,0-3.174-2.132c1.426-.03,2.821-.307,4.248-.307a7.162,7.162,0,0,0-4.877-2.361,13.183,13.183,0,0,0-5.444.89,27.193,27.193,0,0,0-4.953,2.392,21.09,21.09,0,0,1,6.027-3.757c3.358-1.242,7.069-.966,10.626-.659a2.516,2.516,0,0,0-1.12,1.579,9.023,9.023,0,0,0-.276,2.008,8.545,8.545,0,0,1,3.588,3.635,7.882,7.882,0,0,1,.737,4.907,32.57,32.57,0,0,0-6.1-2.975,16.737,16.737,0,0,0-9.738-.353,6.974,6.974,0,0,0-1.35-2.208,4.12,4.12,0,0,1,1.763,1.38Z" transform="translate(-369.527 -236.419)" fill="#f5c546"/>
      </g>
      <g id="Group_1206" data-name="Group 1206" transform="translate(3.582 74.756)">
        <path id="Path_2442" data-name="Path 2442" d="M116.82,625.31h8.641v24.257h7.7v5.622H116.82Z" transform="translate(-116.82 -625.304)" fill="#fff"/>
        <path id="Path_2443" data-name="Path 2443" d="M241.68,625.31h15.876v5.622h-7.235v5.622h5.986v5.622h-5.986v7.392h7.443v5.622H241.68V625.311Z" transform="translate(-222.682 -625.304)" fill="#fff"/>
        <path id="Path_2444" data-name="Path 2444" d="M374.274,625.31h9.266l5.777,4.373v21.186l-5.465,4.321h-9.578l-5.674-4.321V629.683Zm2.967,5.622v18.635h3.539V630.932Z" transform="translate(-330.29 -625.304)" fill="#fff"/>
        <path id="Path_2445" data-name="Path 2445" d="M543.671,640.58v14.575H535.55V625.276l7.252-.006,5.657,14.4V625.276h8.016v29.879H549.4l-5.727-14.575Z" transform="translate(-471.838 -625.27)" fill="#fff"/>
        <path id="Path_2446" data-name="Path 2446" d="M703.18,625.31h15.876v5.622h-7.235v5.622h5.986v5.622h-5.986v7.392h7.443v5.622H703.18V625.311Z" transform="translate(-613.962 -625.304)" fill="#fff"/>
        <path id="Path_2447" data-name="Path 2447" d="M838.922,630.932h-3.591v6.1l6.194.412,5.934,4.32v9.107l-5.622,4.32h-9.525l-5.622-4.322v-5.257h8.641v3.956h3.591v-6.246l-6.246-.417-5.986-4.268v-8.953l5.725-4.373h9l5.83,4.373v5.257h-8.329Z" transform="translate(-718.68 -625.304)" fill="#fff"/>
      </g>
      <g id="Group_1207" data-name="Group 1207" transform="translate(35.268 109.407)">
        <path id="Path_2448" data-name="Path 2448" d="M325.07,853.03h5.616v1.988h-2.559v1.989h2.118V859h-2.118v2.616h2.634V863.6H325.07Z" transform="translate(-325.07 -853.027)" fill="#fff"/>
        <path id="Path_2449" data-name="Path 2449" d="M373.6,855.019h-1.325v6.593H373.6v-2.541h2.965v3l-2.025,1.529h-3.13l-2.154-1.529v-7.5l1.989-1.547h3.3l2.025,1.547V857.1H373.6Z" transform="translate(-362.536 -853.027)" fill="#fff"/>
        <path id="Path_2450" data-name="Path 2450" d="M428.978,853.03h3.277l2.044,1.547v7.5l-1.934,1.529h-3.388l-2.007-1.529v-7.5l2.007-1.547Zm1.05,1.988v6.593h1.252v-6.593Z" transform="translate(-411.465 -853.027)" fill="#fff"/>
        <path id="Path_2451" data-name="Path 2451" d="M488.913,858.426v5.157H486.04v-10.57l2.565,0,2,5.094v-5.093h2.836v10.57h-2.5l-2.025-5.156Z" transform="translate(-461.547 -853.01)" fill="#fff"/>
        <path id="Path_2452" data-name="Path 2452" d="M547.587,853.03h3.279l2.043,1.547v7.5l-1.934,1.529h-3.389l-2.007-1.529v-7.5Zm1.05,1.988v6.593h1.252v-6.593Z" transform="translate(-512.028 -853.027)" fill="#fff"/>
        <path id="Path_2453" data-name="Path 2453" d="M610.077,858.132l.952-5.1h3.611V863.6h-2.78v-6.7h-.148l-1.252,6.7H609.32l-1.27-6.7H607.9v6.7H605.14V853.03H608.7l1.079,5.1h.3Z" transform="translate(-562.526 -853.027)" fill="#fff"/>
        <path id="Path_2454" data-name="Path 2454" d="M679.44,853.03H682.5V863.6H679.44Z" transform="translate(-625.52 -853.027)" fill="#fff"/>
        <path id="Path_2455" data-name="Path 2455" d="M709.739,861.648h-1.768l-.257,1.952H704.73l1.879-10.57h4.42l1.952,10.57h-3l-.239-1.952Zm-1.086-6.335-.46,4.345h1.325l-.571-4.345Z" transform="translate(-646.963 -853.027)" fill="#fff"/>
      </g>
      <path id="Path_2456" data-name="Path 2456" d="M713.433,889.03a.51.51,0,0,1-.507.578H711.6a.521.521,0,0,1-.381-.169.507.507,0,0,1-.128-.4l.137-1.292H709.6l-.849,4.775h1.923l.2-1.508a.512.512,0,0,1,.507-.444h1.768a.512.512,0,0,1,.508.449l.184,1.5h1.934l-.882-4.775h-1.627l.167,1.278Z" transform="translate(-615.103 -773.057)" fill="#d7d8d8"/>
      <rect id="Rectangle_191" data-name="Rectangle 191" width="2.033" height="4.775" transform="translate(89.699 114.693)" fill="#d7d8d8"/>
      <g id="Group_1208" data-name="Group 1208" transform="translate(78.392 114.693)">
        <rect id="Rectangle_192" data-name="Rectangle 192" width="1.739" height="4.775" fill="#d7d8d8"/>
        <path id="Path_2457" data-name="Path 2457" d="M630.345,892.524h.294l.892-4.775h-.38a.507.507,0,0,1-.47.33h-.3a.509.509,0,0,1-.469-.33h-.475Z" transform="translate(-626.252 -887.75)" fill="#d7d8d8"/>
        <rect id="Rectangle_193" data-name="Rectangle 193" width="1.757" height="4.775" transform="translate(6.722)" fill="#d7d8d8"/>
      </g>
      <path id="Path_2458" data-name="Path 2458" d="M553.268,887.75v3.3a.511.511,0,0,1-.511.511H551.5a.512.512,0,0,1-.511-.511v-3.3H548.96v3.5l1.667,1.27h3.039l1.6-1.264v-3.51h-2Z" transform="translate(-479.626 -773.057)" fill="#d7d8d8"/>
      <g id="Group_1209" data-name="Group 1209" transform="translate(60.272 114.693)">
        <path id="Path_2459" data-name="Path 2459" d="M491.25,887.881a.532.532,0,0,1,.023-.131H489.4v4.775h1.849v-4.644Z" transform="translate(-489.4 -887.75)" fill="#d7d8d8"/>
        <path id="Path_2460" data-name="Path 2460" d="M509.858,887.75a.506.506,0,0,1-.376.311.512.512,0,0,1-.569-.311h-.723l1.876,4.775h1.643V887.75h-1.853Z" transform="translate(-505.331 -887.75)" fill="#d7d8d8"/>
      </g>
      <path id="Path_2461" data-name="Path 2461" d="M434.658,887.75v3.3a.511.511,0,0,1-.511.511h-1.252a.511.511,0,0,1-.511-.511v-3.3H430.35v3.5l1.668,1.27h3.038l1.6-1.264v-3.51h-2Z" transform="translate(-379.063 -773.057)" fill="#d7d8d8"/>
      <path id="Path_2462" data-name="Path 2462" d="M372.61,887.75v3.494l1.806,1.281h2.8l1.686-1.272v-2.235h-1.942v2.03a.511.511,0,0,1-.511.511h-1.325a.511.511,0,0,1-.511-.511v-3.3h-2Z" transform="translate(-330.108 -773.057)" fill="#d7d8d8"/>
      <path id="Path_2463" data-name="Path 2463" d="M330.984,887.921h1.607v-.171H328.44v4.775h4.667v-.966h-2.121a.511.511,0,0,1-.511-.511v-2.615a.511.511,0,0,1,.511-.511Z" transform="translate(-292.659 -773.057)" fill="#d7d8d8"/>
      <path id="Path_2464" data-name="Path 2464" d="M838.731,725.125l5.957.4a1.025,1.025,0,0,1,.956,1.021v6.246a1.025,1.025,0,0,1-1.024,1.024h-3.591A1.024,1.024,0,0,1,840,732.789v-2.932H833.41v3.729l4.947,3.8h8.83l4.947-3.8V725.5l-2.794-2.034H836.414l2.317,1.652Z" transform="translate(-720.795 -633.773)" fill="#d7d8d8"/>
      <path id="Path_2465" data-name="Path 2465" d="M717.527,724.392h4.963v-.9H709.91v13.916h14.038V733.83h-6.421a1.024,1.024,0,0,1-1.024-1.024v-7.392a1.024,1.024,0,0,1,1.024-1.024Z" transform="translate(-616.086 -633.79)" fill="#d7d8d8"/>
      <g id="Group_1210" data-name="Group 1210" transform="translate(68.318 89.7)">
        <path id="Path_2466" data-name="Path 2466" d="M548.352,723.864a1,1,0,0,1,.068-.364H542.28v13.916h6.074V723.864Z" transform="translate(-542.28 -723.498)" fill="#d7d8d8"/>
        <path id="Path_2467" data-name="Path 2467" d="M599.9,723.49a1.021,1.021,0,0,1-1.728,0H595.2l5.467,13.916h5.357V723.49h-6.13Z" transform="translate(-587.148 -723.49)" fill="#d7d8d8"/>
      </g>
      <path id="Path_2468" data-name="Path 2468" d="M387.5,723.49v9.318a1.024,1.024,0,0,1-1.024,1.024h-3.539a1.024,1.024,0,0,1-1.024-1.024V723.49H375.32V733.6l5,3.8h8.877l4.8-3.793V723.49H387.5Z" transform="translate(-332.406 -633.79)" fill="#d7d8d8"/>
      <path id="Path_2469" data-name="Path 2469" d="M256.027,724.392h4.963v-.9H248.41v13.916h14.038V733.83h-6.419A1.024,1.024,0,0,1,255,732.806v-7.392a1.024,1.024,0,0,1,1.024-1.024Z" transform="translate(-224.806 -633.79)" fill="#d7d8d8"/>
      <path id="Path_2470" data-name="Path 2470" d="M123.532,723.482V737.4h14.3v-3.576h-6.681a1.024,1.024,0,0,1-1.024-1.024V723.48H123.53Z" transform="translate(-118.927 -633.782)" fill="#d7d8d8"/>
      <path id="Path_2471" data-name="Path 2471" d="M427.05,533.867l-1.66,6.645,44.769.269-3.568-13.361-2.546,1.248-4.073,7.6-5.768,2.454Z" transform="translate(-374.858 -467.553)" fill="#020304"/>
    </g>
    <path id="Path_2472" data-name="Path 2472" d="M641.084,550.5l-.375,8.994H646.6l-1.992-7.31Z" transform="translate(3399.541 4210.038)" fill="#020304"/>
  </g>
</svg>
