<svg xmlns="http://www.w3.org/2000/svg" width="173" height="174" viewBox="0 0 173 174">
  <g id="Group_3953" data-name="Group 3953" transform="translate(-1780 -5236)">
    <rect id="Rectangle_172" data-name="Rectangle 172" width="173" height="174" transform="translate(1780 5236)" fill="none"/>
    <g id="Group_1046" data-name="Group 1046" transform="translate(1798.975 5328.432)">
      <path id="Path_1247" data-name="Path 1247" d="M253.816,588.015v-5.352a5.756,5.756,0,0,0-6.078-6.033h-7.349a6.155,6.155,0,0,0-2.739.609,3.617,3.617,0,0,0-1.99-.609H225.627a3.26,3.26,0,0,1-1.856,0H212.084a3.185,3.185,0,0,0-.927.141,3.272,3.272,0,0,0-.929-.141h-3.558a3.551,3.551,0,0,0-2.8,1.475,3.6,3.6,0,0,0-2.814-1.475h-3.2a3.193,3.193,0,0,0-1.294.279,3.228,3.228,0,0,0-1.3-.279H185.23a3.229,3.229,0,0,0-1.5.373,3.229,3.229,0,0,0-1.5-.373h-3.651a3.349,3.349,0,0,0-2.049.728,5.682,5.682,0,0,0-2.837-.728h-9.566a3.422,3.422,0,0,0-2.123.765,5.681,5.681,0,0,0-2.917-.765H149.4a3.4,3.4,0,0,0-1.3.263,3.355,3.355,0,0,0-1.294-.263H136.779a3.629,3.629,0,0,0-2.149.717,6.126,6.126,0,0,0-2.968-.717h-7.349a5.763,5.763,0,0,0-6.062,6.063v5.321a7.155,7.155,0,0,0,2.015,4.966c.087.092.174.183.259.275a3.379,3.379,0,0,0-2.274,3.275v5.7a7.366,7.366,0,0,0,5.975,7.317q3.411.69,6.835,1.3-.019,4.279-.039,8.556a5.346,5.346,0,0,0,3.807,5.082l.844.191a3.081,3.081,0,0,0,1.818-.114,4.242,4.242,0,0,0,1.814.9c.272.057.545.113.816.167a3.171,3.171,0,0,0,1.284.007,3.926,3.926,0,0,0,1.282.5c.281.053.561.108.842.159a3.265,3.265,0,0,0,.89.043,3.743,3.743,0,0,0,.884.283c.283.051.567.1.85.151a3.2,3.2,0,0,0,1.168-.006,3.773,3.773,0,0,0,1.164.4c.3.05.6.1.9.146a3.2,3.2,0,0,0,.959.011,3.607,3.607,0,0,0,.945.288c.268.04.535.082.8.121a3.1,3.1,0,0,0,1.573-.162,3.755,3.755,0,0,0,1.57.609l.805.108a3.191,3.191,0,0,0,.893-.011,3.517,3.517,0,0,0,.892.24l.824.1a3.119,3.119,0,0,0,1.3-.114,3.517,3.517,0,0,0,1.3.408l.85.09a3.129,3.129,0,0,0,1.162-.1,4.269,4.269,0,0,0,1.313.346q1.241.116,2.486.219a3.835,3.835,0,0,0,1.525-.178,3.417,3.417,0,0,0,1.355.4c.286.02.572.04.858.058a3.147,3.147,0,0,0,.931-.082,3.323,3.323,0,0,0,.931.2l.828.047a3.172,3.172,0,0,0,1.3-.2,3.323,3.323,0,0,0,1.3.331q.427.019.853.035a3.517,3.517,0,0,0,3.031-1.657c.021-.032.039-.066.059-.1a3.759,3.759,0,0,0,3.087,1.917l.86.01a3.665,3.665,0,0,0,3.089-1.851,3.626,3.626,0,0,0,3.091,1.824l.829-.016a3.266,3.266,0,0,0,1.3-.3,3.191,3.191,0,0,0,1.3.233l.853-.029a3.24,3.24,0,0,0,.9-.166,3.189,3.189,0,0,0,.9.093q1.545-.068,3.091-.158a3.3,3.3,0,0,0,.927-.2,3.067,3.067,0,0,0,.929.08l.858-.058a3.374,3.374,0,0,0,1.122-.281,3.138,3.138,0,0,0,1.122.114c.27-.021.54-.043.808-.066a3.508,3.508,0,0,0,1.578-.538,3.108,3.108,0,0,0,1.58.254c.268-.026.538-.053.807-.08a3.486,3.486,0,0,0,1.085-.3,3.129,3.129,0,0,0,1.086.071q1.584-.173,3.164-.37a3.531,3.531,0,0,0,.982-.278,3.135,3.135,0,0,0,.984.026l.805-.108a3.655,3.655,0,0,0,1.284-.436,3.143,3.143,0,0,0,1.283.071l.59-.089a3.806,3.806,0,0,0,1.562-.628,3.09,3.09,0,0,0,1.565.137c.284-.047.567-.093.852-.141a3.985,3.985,0,0,0,1.782-.815,3.736,3.736,0,0,0,2,.146q1.338-.248,2.673-.513a4.879,4.879,0,0,0,1.736-.725,3.845,3.845,0,0,0,1.739.01q1.2-.256,2.395-.526a5.583,5.583,0,0,0,2.981-1.893,6.242,6.242,0,0,0,1.49-3.963q0-1.017-.01-2.033a4.945,4.945,0,0,0-.318-1.753,5,5,0,0,0,.3-1.712q0-1.022-.01-2.044c0-.13-.011-.257-.021-.382q3.4-.608,6.784-1.291a7.376,7.376,0,0,0,5.991-7.32v-5.7a5.727,5.727,0,0,0-2.022-4.569c-.077-.066-.154-.13-.233-.2a4.395,4.395,0,0,0,2.255-3.751Z" transform="translate(-118.25 -576.63)" fill="#020303"/>
      <g id="Group_1043" data-name="Group 1043" transform="translate(3.811 4.015)">
        <g id="Group_1041" data-name="Group 1041">
          <path id="Path_1248" data-name="Path 1248" d="M153.631,625.654c-.008,1.6-.747,2.29-2.215,2.06q-3.65-.567-7.285-1.212a2.4,2.4,0,0,1-2.171-2.635q0-2.927.011-5.852,1.81.236,3.622.461-.007,2.558-.016,5.117,2.211.34,4.428.656.012-2.524.022-5.048-3.623-4.069-7.253-7.893a2.843,2.843,0,0,1-.787-2.03q0-2.728.01-5.459,0-2.256,2.2-2.2,3.669.089,7.341.169,2.213.043,2.2,2.425-.015,2.931-.029,5.864-1.822-.111-3.642-.23.01-2.425.021-4.852-2.227-.087-4.453-.182-.007,2.271-.014,4.54,3.633,3.8,7.259,7.851a3.162,3.162,0,0,1,.783,2.2q-.017,3.124-.032,6.248Z" transform="translate(-141.96 -601.614)" fill="#fff"/>
          <path id="Path_1249" data-name="Path 1249" d="M242.577,631.178q-5.062-.562-10.107-1.27.072-13.29.145-26.579,5.014.1,10.03.175-.01,1.829-.021,3.659-3.192-.089-6.38-.195-.022,3.941-.045,7.885,2.743.178,5.488.337-.01,1.789-.021,3.577-2.746-.193-5.488-.411-.024,4.236-.048,8.471,3.23.371,6.469.69Q242.588,629.348,242.577,631.178Z" transform="translate(-217.924 -603.054)" fill="#fff"/>
          <path id="Path_1250" data-name="Path 1250" d="M323.452,633.658q-1.912-.13-3.823-.281-1.987-6.8-3.966-13.485.007-1.276.014-2.549,1.8.084,3.6.161.024-4.525.047-9.051-2.3-.046-4.606-.1-.067,12.294-.137,24.591-1.83-.171-3.656-.36.08-13.951.161-27.9,4.846.07,9.693.122,2.2.022,2.189,2.673-.024,5.233-.048,10.469-.01,1.823-1.059,2.309a6.307,6.307,0,0,1-2.379.164q1.984,6.571,3.976,13.244Z" transform="translate(-283.766 -604.187)" fill="#fff"/>
          <path id="Path_1251" data-name="Path 1251" d="M414.744,621.8c0,1.831-.754,2.732-2.247,2.7q-2.97-.072-5.938-.177-.019,5.277-.039,10.556-1.837-.094-3.671-.207.06-14.479.122-28.957,4.785.041,9.574.064,2.232.01,2.227,2.716-.014,6.654-.027,13.309Zm-3.695-1.106q.014-5.581.032-11.163-2.235-.022-4.469-.051-.019,5.547-.04,11.1,2.24.067,4.479.117Z" transform="translate(-360.922 -605.052)" fill="#fff"/>
          <path id="Path_1252" data-name="Path 1252" d="M496.987,635.773q-1.839-.019-3.677-.058.024-14.737.047-29.475l3.655.008q-.012,14.763-.024,29.526Z" transform="translate(-436.843 -605.496)" fill="#fff"/>
          <path id="Path_1253" data-name="Path 1253" d="M545.169,635.636q-5.1.135-10.2.122,0-14.77,0-29.542,5.022,0,10.043-.016,0,1.948.008,3.894-3.2.022-6.393.027,0,4.313,0,8.624,2.756-.012,5.513-.043,0,1.911.006,3.822-2.758.041-5.516.053,0,4.633,0,9.265,3.259-.024,6.515-.1Q545.166,633.69,545.169,635.636Z" transform="translate(-471.808 -605.463)" fill="#fff"/>
          <path id="Path_1254" data-name="Path 1254" d="M626.126,634.409q-1.606.111-3.214.206-2.977-8.953-5.942-18.117a13.035,13.035,0,0,1,.241,2.107q.024,8.15.05,16.3-1.789.077-3.581.136-.036-14.686-.07-29.372l3.2-.018q2.956,9.006,5.929,17.847a12.819,12.819,0,0,1-.244-2.086q-.031-7.9-.063-15.8,1.779-.014,3.56-.032.065,14.413.132,28.827Z" transform="translate(-537.81 -604.942)" fill="#fff"/>
          <path id="Path_1255" data-name="Path 1255" d="M713.953,608.229q-2.013.055-4.028.1.068,12.215.137,24.43-1.82.174-3.645.33-.065-12.338-.13-24.676-2.015.044-4.029.08-.01-1.9-.017-3.8,5.846-.06,11.692-.148.01,1.839.021,3.677Z" transform="translate(-612.196 -604.078)" fill="#fff"/>
          <path id="Path_1256" data-name="Path 1256" d="M796.807,629.809q-5.041.713-10.1,1.284-.082-13.813-.162-27.627,5.017-.079,10.03-.177.01,1.755.019,3.51-3.187.113-6.377.212.024,3.98.047,7.96,2.744-.171,5.485-.362.01,1.729.019,3.455-2.739.234-5.483.442.024,4.277.05,8.552,3.233-.352,6.459-.757.01,1.755.019,3.508Z" transform="translate(-682.948 -603.021)" fill="#fff"/>
          <path id="Path_1257" data-name="Path 1257" d="M876.528,623.868a2.406,2.406,0,0,1-2.187,2.639q-3.636.644-7.285,1.21c-1.458.228-2.191-.464-2.2-2.063q-.017-3.125-.032-6.249,1.818-.193,3.635-.4.012,2.623.022,5.246,2.215-.316,4.428-.656-.007-2.462-.016-4.924-3.645-3.11-7.312-6.56a2.7,2.7,0,0,1-.8-2.038q-.014-2.915-.029-5.831-.012-2.416,2.186-2.459,3.671-.08,7.34-.169a1.915,1.915,0,0,1,2.216,2.173q.005,2.746.01,5.49-1.818.135-3.635.263-.008-2.365-.015-4.731-2.225.094-4.453.182.01,2.326.021,4.654,3.664,3.4,7.3,6.47a2.347,2.347,0,0,1,.792,1.9q.005,2.926.011,5.851Z" transform="translate(-748.588 -601.613)" fill="#fff"/>
        </g>
        <g id="Group_1042" data-name="Group 1042" transform="translate(12.786 30.625)">
          <path id="Path_1258" data-name="Path 1258" d="M224.631,793.375q-1.111-.176-2.223-.358-.009,1.707-.018,3.415,1.022.186,2.044.362c0,.241,0,.484,0,.725q-1.022-.181-2.044-.37-.012,2.078-.022,4.158l-.844-.174q.024-4.482.047-8.963,1.533.254,3.068.489c0,.238,0,.476,0,.714Z" transform="translate(-221.52 -792.17)" fill="#fff"/>
          <path id="Path_1259" data-name="Path 1259" d="M253.627,807.65q-.422-.072-.842-.146l-.323-2.118q-.95-.159-1.9-.325-.173.993-.347,1.982c-.272-.05-.545-.1-.816-.153v-.024q.875-4.412,1.755-8.9c.278.04.558.08.836.119q.82,4.752,1.638,9.559Zm-1.271-3.009q-.4-2.577-.807-5.138-.436,2.437-.871,4.855Q251.517,804.5,252.355,804.641Z" transform="translate(-244.919 -797.038)" fill="#fff"/>
          <path id="Path_1260" data-name="Path 1260" d="M290.817,811.776c-.3-.044-.6-.088-.9-.134q-.877-2.669-1.752-5.311c.039-.051.079-.1.117-.153q.759.106,1.519.208.01-1.741.021-3.483-1.092-.133-2.186-.275-.027,4.328-.051,8.653l-.85-.138q.027-4.682.055-9.363,1.6.207,3.206.4a.755.755,0,0,1,.488.246.728.728,0,0,1,.187.508q-.01,1.8-.021,3.6c0,.456-.315.644-.935.559-.061-.008-.151-.024-.27-.047s-.2-.037-.257-.045q.812,2.37,1.622,4.772Z" transform="translate(-276.258 -800.236)" fill="#fff"/>
          <path id="Path_1261" data-name="Path 1261" d="M328.7,816.4q-.4-.048-.805-.1.017-3.056.032-6.113c0-.087.031-.336.09-.751q-.8,2.9-1.6,5.773c-.058-.006-.114-.014-.172-.022q-.769-3.068-1.538-6.117.082.639.082.762-.017,3.03-.034,6.06c-.268-.037-.535-.072-.8-.111q.027-4.773.055-9.548l.791.087q.762,3.2,1.524,6.417a2.109,2.109,0,0,1,.022.28,2.347,2.347,0,0,1,.026-.273q.8-3.033,1.593-6.1l.792.075q-.027,4.838-.051,9.675Z" transform="translate(-307.488 -803.979)" fill="#fff"/>
          <path id="Path_1262" data-name="Path 1262" d="M368.894,821.117l-.85-.082-.328-2.21q-.957-.091-1.913-.19-.173,1.065-.349,2.13l-.824-.092v-.024q.882-4.761,1.763-9.569c.281.024.561.047.842.069q.829,4.969,1.659,9.966Zm-1.286-3.072q-.41-2.69-.818-5.371-.436,2.608-.874,5.207l1.692.166Z" transform="translate(-341.63 -808.041)" fill="#fff"/>
          <path id="Path_1263" data-name="Path 1263" d="M406.175,823a.621.621,0,0,1-.7.651q-1.242-.094-2.485-.2a.719.719,0,0,1-.492-.238.749.749,0,0,1-.19-.519q.017-4.224.035-8.445a.642.642,0,0,1,.193-.49.621.621,0,0,1,.493-.161q1.239.084,2.48.159a.717.717,0,0,1,.693.743q0,1.152-.008,2.3l-.863-.055q0-1.114.008-2.226-1.07-.065-2.142-.14-.017,4.153-.034,8.307,1.073.089,2.146.169l.01-2.433q.432.031.863.059,0,1.256-.01,2.512Z" transform="translate(-373.255 -810.152)" fill="#fff"/>
          <path id="Path_1264" data-name="Path 1264" d="M440.768,825.578l-.858-.053q.017-4.968.032-9.935l.857.042Q440.784,820.6,440.768,825.578Z" transform="translate(-404.812 -811.826)" fill="#fff"/>
          <path id="Path_1265" data-name="Path 1265" d="M461.1,826.747l-.852-.032q-.169-1.119-.334-2.237-.96-.037-1.921-.082-.173,1.1-.345,2.2l-.828-.042v-.026q.875-4.939,1.747-9.9l.844.031Q460.254,821.7,461.1,826.747Zm-1.3-3.058q-.417-2.724-.833-5.447-.432,2.691-.865,5.376Q458.954,823.657,459.8,823.689Z" transform="translate(-419.004 -812.699)" fill="#fff"/>
          <path id="Path_1266" data-name="Path 1266" d="M515.333,818q-.586,2.03-1.173,4.058-.222.607-.587,2.03,0,1.943,0,3.888c-.286,0-.572,0-.86-.008q0-1.943,0-3.888a7.424,7.424,0,0,0-.265-1.029q-.3-.926-.32-1.011-.586-2.037-1.168-4.074v-.058c.289,0,.58.008.869.011q.661,2.52,1.323,5.035.658-2.5,1.316-5.016l.863,0V818Z" transform="translate(-464.443 -813.773)" fill="#fff"/>
          <path id="Path_1267" data-name="Path 1267" d="M569.9,827.518l-.852.028q-.171-1.109-.344-2.218-.96.026-1.921.045l-.337,2.237-.829.014V827.6q.858-5.032,1.713-10.062l.845-.016Q569.039,822.527,569.9,827.518Zm-1.308-2.976q-.426-2.7-.853-5.411-.422,2.724-.846,5.451C567.462,824.57,568.029,824.558,568.595,824.542Z" transform="translate(-510.319 -813.446)" fill="#fff"/>
          <path id="Path_1268" data-name="Path 1268" d="M606.408,826.8q-1.543.082-3.087.143-.009-5-.021-10l.857-.029q.01,4.6.021,9.206,1.114-.048,2.229-.106c0,.261,0,.523,0,.783Z" transform="translate(-541.943 -812.934)" fill="#fff"/>
          <path id="Path_1269" data-name="Path 1269" d="M634.879,825.547l-.858.053q-.014-4.973-.03-9.948c.286-.013.57-.027.857-.042Q634.863,820.578,634.879,825.547Z" transform="translate(-567.701 -811.843)" fill="#fff"/>
          <path id="Path_1270" data-name="Path 1270" d="M658.073,822.738l-.807.072q-.012-3.115-.026-6.231c0-.088.027-.347.082-.779q-.774,3.1-1.551,6.211l-.172.015q-.8-2.987-1.6-5.993c.059.431.088.688.09.771q.012,3.131.024,6.265l-.808.059q-.017-4.954-.035-9.906c.265-.014.529-.031.794-.047q.793,3.17,1.589,6.321a2.137,2.137,0,0,1,.026.281,2.585,2.585,0,0,1,.024-.286q.769-3.269,1.538-6.525l.794-.056q.021,4.913.043,9.826Z" transform="translate(-583.882 -809.577)" fill="#fff"/>
          <path id="Path_1271" data-name="Path 1271" d="M699.6,819.96q-1.579.178-3.161.337-.022-4.892-.045-9.783,1.562-.125,3.121-.265c0,.254,0,.509,0,.763q-1.133.1-2.267.2.009,1.822.017,3.643,1.034-.094,2.065-.2c0,.259,0,.518,0,.776q-1.032.1-2.065.2.01,1.9.018,3.806,1.155-.118,2.306-.246c0,.254,0,.51,0,.763Z" transform="translate(-620.072 -807.344)" fill="#fff"/>
          <path id="Path_1272" data-name="Path 1272" d="M732.241,816.114l-.59.08q-1.3-3.348-2.6-6.763.02,3.546.039,7.094l-.805.1q-.026-4.834-.051-9.667l.638-.063q1.277,3.363,2.554,6.668l-.038-6.925.8-.087q.026,4.78.054,9.561Z" transform="translate(-646.795 -804.239)" fill="#fff"/>
          <path id="Path_1273" data-name="Path 1273" d="M766.841,803.308q-.74.1-1.48.188.027,4.351.052,8.7c-.283.043-.567.087-.852.129q-.026-4.364-.051-8.725-.747.092-1.495.178c0-.249,0-.5,0-.747q1.914-.22,3.827-.461C766.837,802.816,766.84,803.062,766.841,803.308Z" transform="translate(-675.985 -800.899)" fill="#fff"/>
          <path id="Path_1274" data-name="Path 1274" d="M801.023,806.778a.734.734,0,0,1-.19.5.832.832,0,0,1-.49.272q-1.335.241-2.674.466a.589.589,0,0,1-.49-.1.547.547,0,0,1-.193-.447q-.024-4.007-.046-8.015a.727.727,0,0,1,.187-.5.772.772,0,0,1,.489-.251q1.337-.181,2.676-.371a.619.619,0,0,1,.492.111.536.536,0,0,1,.195.442q.022,3.946.045,7.891Zm-.849.081q-.022-3.888-.045-7.777-1.169.169-2.34.331.024,3.925.047,7.848Q799.006,807.065,800.175,806.859Z" transform="translate(-704.463 -797.333)" fill="#fff"/>
          <path id="Path_1275" data-name="Path 1275" d="M839,800.963a.747.747,0,0,1-.183.5.829.829,0,0,1-.482.276q-1.2.246-2.4.479a.6.6,0,0,1-.492-.085.506.506,0,0,1-.195-.429q-.007-1.157-.013-2.313l.847-.153q.007,1.116.013,2.234,1.03-.2,2.056-.4,0-1.072-.011-2.144-1.321-1.249-2.647-2.549a.881.881,0,0,1-.278-.647q-.005-.924-.01-1.847a.711.711,0,0,1,.19-.495.805.805,0,0,1,.49-.256q1.2-.185,2.4-.381a.6.6,0,0,1,.485.1.52.52,0,0,1,.188.427c0,.694.008,1.39.011,2.085l-.845.15c0-.675-.006-1.349-.011-2.023-.686.112-1.372.225-2.059.333q0,.957.011,1.916,1.331,1.295,2.657,2.539a.826.826,0,0,1,.265.62q.005,1.037.011,2.073Z" transform="translate(-736.582 -792.644)" fill="#fff"/>
        </g>
      </g>
      <path id="Path_1276" data-name="Path 1276" d="M878.366,684.039a.816.816,0,0,1,.275.624q.008,2.449.014,4.9a1.061,1.061,0,0,1-.847,1.032q-2.211.352-4.428.678a.756.756,0,0,1-.857-.8q-.009-2.172-.019-4.343-.962.113-1.925.222.012,2.642.026,5.286c0,1.07.357,1.4,1.34,1.25q3.649-.55,7.287-1.173a1.364,1.364,0,0,0,1.34-1.6q-.007-2.941-.013-5.884a1.558,1.558,0,0,0-.518-1.291q-1.49-1.254-2.983-2.565-1.3.125-2.6.246,1.955,1.759,3.9,3.421Z" transform="translate(-749.671 -663.698)" fill="#dcdcdc"/>
      <path id="Path_1277" data-name="Path 1277" d="M795.175,687.516q2.314-.166,4.627-.35c0-.162,0-.323,0-.485q-3.7.287-7.418.531.038,6.39.075,12.783,4.2-.468,8.393-1.033,0-.805-.009-1.612-2.8.357-5.6.673a.817.817,0,0,1-.863-.885q-.024-4.291-.05-8.581a1,1,0,0,1,.852-1.041Z" transform="translate(-684.038 -668.993)" fill="#dcdcdc"/>
      <path id="Path_1278" data-name="Path 1278" d="M733.12,692.88q.036,6.583.071,13.169.962-.082,1.924-.169-.036-6.55-.073-13.1C734.4,692.814,733.761,692.847,733.12,692.88Z" transform="translate(-634.302 -674.113)" fill="#dcdcdc"/>
      <g id="Group_1044" data-name="Group 1044" transform="translate(80.509 19.101)">
        <path id="Path_1279" data-name="Path 1279" d="M621.048,697.16q-.923.022-1.848.04.017,6.81.035,13.62.925-.032,1.853-.069Q621.069,703.956,621.048,697.16Z" transform="translate(-619.2 -696.89)" fill="#dcdcdc"/>
        <path id="Path_1280" data-name="Path 1280" d="M652.091,695.546q0,.644,0,1.288a11.694,11.694,0,0,0,.223,1.867,1.119,1.119,0,0,1-.588,1.236.8.8,0,0,1-1.053-.571q-.627-1.861-1.25-3.733l-1.578.047q2.189,6.712,4.384,13.312c.586-.036,1.175-.071,1.761-.108q-.029-6.7-.059-13.4l-1.847.067Z" transform="translate(-643.246 -695.48)" fill="#dcdcdc"/>
      </g>
      <path id="Path_1281" data-name="Path 1281" d="M543.154,698.513q2.327-.012,4.653-.04v-.534q-3.729.046-7.457.045V711.7q4.235,0,8.468-.1,0-.892,0-1.782-2.825.062-5.654.082a.97.97,0,0,1-.865-1.054q0-4.633,0-9.267a.98.98,0,0,1,.861-1.062Z" transform="translate(-472.513 -678.444)" fill="#dcdcdc"/>
      <path id="Path_1282" data-name="Path 1282" d="M498.709,698q-.01,6.844-.019,13.688.974.017,1.948.03.007-6.849.013-13.7-.971-.007-1.943-.017Z" transform="translate(-437.548 -678.494)" fill="#dcdcdc"/>
      <path id="Path_1283" data-name="Path 1283" d="M416.436,696.213v.272a.948.948,0,0,1-.865,1.033q-2.24-.053-4.479-.124a1,1,0,0,1-.857-1.072v-.27q-.971-.029-1.941-.063-.027,6.731-.055,13.461c.648.037,1.3.072,1.945.106q.017-4.749.035-9.5a.93.93,0,0,1,.865-1.014q2.968.1,5.938.169c1.017.022,1.381-.412,1.382-1.659,0-.435,0-.87,0-1.3q-.986-.017-1.974-.039Z" transform="translate(-361.635 -676.807)" fill="#dcdcdc"/>
      <g id="Group_1045" data-name="Group 1045" transform="translate(31.828 18.506)">
        <path id="Path_1284" data-name="Path 1284" d="M318.3,691.889l-1.937-.109q-.036,6.492-.074,12.986.969.094,1.938.185.036-6.531.074-13.063Z" transform="translate(-316.29 -691.78)" fill="#dcdcdc"/>
        <path id="Path_1285" data-name="Path 1285" d="M348.739,693.808a5.54,5.54,0,0,0,2.052-.108.653.653,0,0,0,.172-.113q-2.589-.109-5.178-.238c0,.276,0,.551,0,.828q1.854,6.268,3.714,12.638.988.075,1.978.143-1.777-5.945-3.55-11.809a1.173,1.173,0,0,1,.1-.935.794.794,0,0,1,.709-.407Z" transform="translate(-341.041 -693.098)" fill="#dcdcdc"/>
      </g>
      <path id="Path_1286" data-name="Path 1286" d="M240.684,687.132q2.314.177,4.63.333c0-.166,0-.333,0-.5q-3.712-.246-7.419-.537-.034,6.191-.069,12.383,4.19.559,8.394,1.022,0-.834.01-1.67-2.808-.292-5.61-.625a1.053,1.053,0,0,1-.85-1.069q.024-4.221.048-8.44a.844.844,0,0,1,.863-.9Z" transform="translate(-218.612 -668.784)" fill="#dcdcdc"/>
      <path id="Path_1287" data-name="Path 1287" d="M155.043,684.915a1.068,1.068,0,0,1,.27.71q-.012,2.536-.022,5.072a.756.756,0,0,1-.857.8q-2.215-.326-4.428-.678a1.063,1.063,0,0,1-.847-1.032q0-2.1.011-4.195-.959-.125-1.919-.256,0,2.5-.011,5c0,1.011.344,1.43,1.324,1.6q3.635.624,7.288,1.173c1,.15,1.352-.178,1.356-1.249q.014-3.112.031-6.223a2.082,2.082,0,0,0-.509-1.483q-1.483-1.656-2.967-3.274-1.3-.118-2.6-.244,1.938,2.1,3.876,4.277Z" transform="translate(-142.581 -663.924)" fill="#dcdcdc"/>
    </g>
    <g id="Group_1047" data-name="Group 1047" transform="translate(1800.785 5263.048)">
      <path id="Path_1288" data-name="Path 1288" d="M187.886,237.738a27.2,27.2,0,0,1-7.005,6.15,9.021,9.021,0,0,0-7.134-3.73,13.981,13.981,0,0,1-1.091.886,26.744,26.744,0,0,1-20.6,3.2c-1.887-.485-3.955-1.419-4.51-3.287-.455-1.536.289-3.147,1.014-4.577.689-1.36,1-2.875,1.692-4.235-2.544.967-4.252,3.322-5.808,5.556-1.626,2.334-3.533,4.764-5.159,7.1a4.223,4.223,0,0,1-1.983-2.623,12.407,12.407,0,0,1-.689-3.29,23.156,23.156,0,0,0-7.094,3.581,19.1,19.1,0,0,1,4.461-7.242,56.9,56.9,0,0,1,6.456-5.638c1.233-.972,2.954-1.937,4.442-1.437a32.046,32.046,0,0,1,8.338-4.232c1.479-.5,3.172-.863,4.54-.114a4.215,4.215,0,0,1,1.782,4.4,11.324,11.324,0,0,1-2.21,4.506,8.475,8.475,0,0,0-1.223,2.117,2.69,2.69,0,0,0,.2,2.358c.694,1.008,2.12,1.146,3.34,1.043a15.731,15.731,0,0,0,8.574-3.6,3.166,3.166,0,0,1-.8-1.909,9.41,9.41,0,0,1,.111-2.1c.228-1.789.878-3.264,1.106-5.053a6.359,6.359,0,0,0,4.212,3.828,9.144,9.144,0,0,0,4.158-6.128,9.433,9.433,0,0,0-1.725-7.325,12.9,12.9,0,0,0-1.7,9.394c-2.69-.786-4.375-3.4-5.651-5.9a67.628,67.628,0,0,1-3.578-9.442,7.955,7.955,0,0,0-6.011-1.106,23.086,23.086,0,0,0-3.224,12.65,24.355,24.355,0,0,1-8.41-15.848,18.689,18.689,0,0,1-4.625-13.423c3.695-.717,6.782-3.161,9.707-5.53l9.135-7.394a21.081,21.081,0,0,1,6.48-4.05c2.436-.792,5.792-.863,7.6.947a151.67,151.67,0,0,1,39.058-6.388c6.663-.207,13.53.066,19.646,2.721s12.033,8.217,11.988,14.884a57.864,57.864,0,0,1-2.652,16.909,86.209,86.209,0,0,1-4.259,10.618,169.81,169.81,0,0,1-12.407,22.093c-7.868,2.547-16.226,2.456-24.493,2.244a122.611,122.611,0,0,1-14-1.572Z" transform="translate(-129.52 -169.789)" fill="#020303"/>
      <path id="Path_1289" data-name="Path 1289" d="M254.137,240.779a60.082,60.082,0,0,1,16.124-6.874,16.03,16.03,0,0,1,5.4-.689,12.356,12.356,0,0,1,5.967,2.391,36.71,36.71,0,0,1,4.821,4.354c-.606-.08-1.258.011-1.864-.069,1.075.63,2.086,1.183,3.161,1.813a5.507,5.507,0,0,1,2.713,2.6,4.66,4.66,0,0,1-.26,3.07,15.288,15.288,0,0,1-5.834,7.467,29.188,29.188,0,0,0-21.8,3.306,15.05,15.05,0,0,1-3.378,1.747,9.166,9.166,0,0,1-5.908-.622c-4.706-1.882-10.014-2.972-15.023-2.194a15.4,15.4,0,0,1-1.021-6.194,13.784,13.784,0,0,0-.3,5.744,8.861,8.861,0,0,1-4.14-3.5,8.958,8.958,0,0,1-1.263-5.3,7.018,7.018,0,0,0,3.47.516,7.391,7.391,0,0,1-1.427-3.872c4.3-3.156,8.711-6.292,13.007-9.45a24.572,24.572,0,0,1,4.821-3,8.289,8.289,0,0,1,5.553-.526c-2.208.63-4.1,2.269-5.835,3.775l-4.195,3.645a24.134,24.134,0,0,0-4.389,4.547c2.674-1.763,5.183-3.516,7.857-5.279a54.146,54.146,0,0,1,8.524-4.9,18.11,18.11,0,0,1,9.6-1.524,40.949,40.949,0,0,0-14.4,9.022Z" transform="translate(-215.125 -221.35)" fill="#805da3"/>
      <path id="Path_1290" data-name="Path 1290" d="M298.113,283.721a5.159,5.159,0,0,0,3.682.869,12.807,12.807,0,0,0,3.69-1.139c4.285-1.879,8.29-4.33,12.467-6.436s8.611-3.889,13.272-4.283a8.762,8.762,0,0,1,5.093.786,3.984,3.984,0,0,1,2.065,4.378,15.854,15.854,0,0,0-12,1.911c-2.6,1.617-4.67,3.958-7.176,5.718a19.384,19.384,0,0,1-23.434-.865C296.484,284.266,297.4,284.115,298.113,283.721Z" transform="translate(-269.051 -256.136)" fill="#53306b"/>
      <path id="Path_1291" data-name="Path 1291" d="M372.59,310.406a4.659,4.659,0,0,0,.26-3.07,3.135,3.135,0,0,0-.6-1.006c-1.6,1.589-4.113,2.229-6.437,2.427-2.827.241-5.8.084-8.347,1.326a22.225,22.225,0,0,0-4.3,3.232,32.119,32.119,0,0,1-23.483,7.16,36.265,36.265,0,0,1,5.995,1.829,9.168,9.168,0,0,0,5.908.622,15.18,15.18,0,0,0,3.378-1.747,29.189,29.189,0,0,1,21.8-3.306,15.3,15.3,0,0,0,5.834-7.467Z" transform="translate(-297.512 -284.386)" fill="#53306b"/>
      <path id="Path_1292" data-name="Path 1292" d="M325.39,266.277a15.329,15.329,0,0,0-6.239,1.708A45.781,45.781,0,0,0,313.6,271.4a6.513,6.513,0,0,0-2.105,1.954,10.993,10.993,0,0,1,6.459-6.584,9.7,9.7,0,0,0-6.875,3.139c-.821.911-1.471,1.962-2.21,2.941a7.948,7.948,0,0,1-2.7,2.453,11.559,11.559,0,0,1-4.272.794,7.071,7.071,0,0,0-4.1,1.292,10.374,10.374,0,0,0,5.668.035,17.2,17.2,0,0,1-7.147,1.416A30.851,30.851,0,0,1,289,277.62a12.143,12.143,0,0,1-3.473-1.411,4.906,4.906,0,0,1-2.2-2.938A23.853,23.853,0,0,0,293.4,268.44a14.239,14.239,0,0,1-6.477,5.472,9.34,9.34,0,0,0,9.069.628,3.622,3.622,0,0,1-2.482-1.286,5.521,5.521,0,0,0,6.363-.779q1.661-1.241,3.323-2.481A7.6,7.6,0,0,1,302,267.272a6.557,6.557,0,0,0,5.312.554,19.456,19.456,0,0,0,4.939-2.4,7.046,7.046,0,0,0-1.57-3.459c.466.285.963.495,1.43.781a5.494,5.494,0,0,1,1,.72,1.848,1.848,0,0,1,.577,1.067,43.465,43.465,0,0,1,7.635-.366,5.05,5.05,0,0,0-.937-4.14,2.559,2.559,0,0,1,1.956,1.691,5.742,5.742,0,0,1,.35,2.817,10.772,10.772,0,0,1,2.7,1.744Z" transform="translate(-258.611 -245.527)" fill="#020303"/>
      <path id="Path_1293" data-name="Path 1293" d="M564.679,313.32a8.828,8.828,0,0,1-4.929,8.8,8.3,8.3,0,0,0,2.065-6.261,7.137,7.137,0,0,0,2.862-2.536Z" transform="translate(-490.607 -290.253)" fill="#020303"/>
      <path id="Path_1294" data-name="Path 1294" d="M515.015,306.245a3.184,3.184,0,0,1,3.569,1.654,5.47,5.47,0,0,1,.209,4.151,8.688,8.688,0,0,1-2.325,3.764,51.425,51.425,0,0,0-6.277-.085c.386-.765.636-1.546,1.022-2.311,1.117-.288,2.337-.717,3.454-1a4.911,4.911,0,0,0,3.052-1.651,2.808,2.808,0,0,0-.112-3.068,3.347,3.347,0,0,0-2.592-1.449Z" transform="translate(-449.011 -284.218)" fill="#020303"/>
      <path id="Path_1295" data-name="Path 1295" d="M482.329,319.37a2.72,2.72,0,0,1,2.21,1.733,4.466,4.466,0,0,1,.045,2.9,13.266,13.266,0,0,1-1.229,2.684c-1.262.18-2.583.439-3.844.619.08-.463.053-.881.132-1.344a11.439,11.439,0,0,0,2.2-.495,3.571,3.571,0,0,0,1.776-1.2,3.1,3.1,0,0,0,.411-2.666A4.569,4.569,0,0,0,482.329,319.37Z" transform="translate(-423.262 -295.33)" fill="#020303"/>
      <path id="Path_1296" data-name="Path 1296" d="M441.436,361.582c-.069.445-.137.892-.206,1.337-1.79.743-3.452,1.377-5.241,2.118,1.663-1.165,3.783-2.292,5.447-3.457Z" transform="translate(-386.736 -330.757)" fill="#020303"/>
      <path id="Path_1297" data-name="Path 1297" d="M405.986,323.14a2.593,2.593,0,0,1-.46,1.681,4.36,4.36,0,0,1-1.29,1.205,6.738,6.738,0,0,1-4.246,1.025c1.983-1.26,4.015-2.65,6-3.91Z" transform="translate(-356.522 -298.495)" fill="#fff"/>
      <path id="Path_1298" data-name="Path 1298" d="M546.427,263.852l-1.806-.064a112.479,112.479,0,0,0,13.109-27.035,9.483,9.483,0,0,1-2.327,3.307,38.69,38.69,0,0,0,1.114-16.973,4.322,4.322,0,0,0-1.708-3.155,9.689,9.689,0,0,1-.464,4.654,10.745,10.745,0,0,0-6.989-3.783,8.958,8.958,0,0,0-3.614-5.94,30.6,30.6,0,0,1,2.555,5.622,24.494,24.494,0,0,0-7.595-1.678,34.585,34.585,0,0,1,7.587,4.423,29.613,29.613,0,0,0-11.107-1.816,22.969,22.969,0,0,0-4.093-6.353,37.922,37.922,0,0,0-5.815-6.151,12.747,12.747,0,0,0-7.772-2.978,68.161,68.161,0,0,1,30.945-2.456c4.016.644,8.074,1.694,11.4,4.034s5.821,6.181,5.639,10.244c-.4,8.973-3.952,17.513-7.55,25.741a114.243,114.243,0,0,1-11.509,20.357Z" transform="translate(-455.147 -197.399)" fill="#805da3"/>
      <path id="Path_1299" data-name="Path 1299" d="M360.742,421.252a30.69,30.69,0,0,0,5,12.772,47.73,47.73,0,0,1,2.123-10.974c-.381-.1-.7-.238-1.077-.342a26.214,26.214,0,0,0-1.487,7.656,17.466,17.466,0,0,1-.259-7.968c-1.271-.325-3.028-.821-4.3-1.146Z" transform="translate(-323.58 -380.837)" fill="#fff"/>
      <path id="Path_1300" data-name="Path 1300" d="M262.293,400.292a29.348,29.348,0,0,0-2.33,9.893,31.153,31.153,0,0,1-3.982-12.126c.522.294,1,.612,1.522.907a22.363,22.363,0,0,0,1.527,7.1c.633-2,1.165-4.007,1.8-6,.363.074,1.1.154,1.467.228Z" transform="translate(-235.656 -361.374)" fill="#fff"/>
      <path id="Path_1301" data-name="Path 1301" d="M379.585,537.623a14.4,14.4,0,0,1-2.2-1.268,4.853,4.853,0,0,1-1.61-1.925,6.911,6.911,0,0,0,.529,5.792c.315-.305.644-.6.961-.909-.183-.656-.358-1.424-.542-2.08a3.574,3.574,0,0,0,1.9.992c.252-.172.707-.431.959-.6Z" transform="translate(-335.866 -475.827)" fill="#fff"/>
      <path id="Path_1302" data-name="Path 1302" d="M436.545,548.93a10.389,10.389,0,0,0-.1,2.751,3.518,3.518,0,0,0,1.273,2.369,1.5,1.5,0,0,0,1.027-1.2,2.116,2.116,0,0,1-.62-1.913,2.185,2.185,0,0,0,1.374,1.331.953.953,0,0,0,.625-.662,13.813,13.813,0,0,1-2.338-1.9,3.407,3.407,0,0,1-.979-1.449A3.888,3.888,0,0,0,436.545,548.93Z" transform="translate(-387.072 -487.435)" fill="#fff"/>
      <path id="Path_1303" data-name="Path 1303" d="M459.632,527.345l1.1-2.345A6.856,6.856,0,0,1,461.965,523a2.322,2.322,0,0,1,2.145-.723,11.754,11.754,0,0,1-3.1,6.571c-.351-.35-1.025-1.146-1.377-1.5Z" transform="translate(-406.577 -465.577)" fill="#53306b"/>
      <path id="Path_1304" data-name="Path 1304" d="M446.445,500.472a3.533,3.533,0,0,1,1.679,2.488c-1.152,1.816-2.451,3.806-3.6,5.622a2.66,2.66,0,0,1-1.106-2.107c.13-1.519,1.721-2.751,2.543-4.037a3.228,3.228,0,0,0,.487-1.967Z" transform="translate(-392.965 -447.325)" fill="#53306b"/>
      <path id="Path_1305" data-name="Path 1305" d="M460.173,411.662a8.722,8.722,0,0,0-4.94,2.178,29.758,29.758,0,0,0-5.755,6.2,1.971,1.971,0,0,1,1.893,1.7,5.023,5.023,0,0,0-5.339,1.495,2.921,2.921,0,0,0-.772,1.943,1.793,1.793,0,0,0,1.342,1.588,2,2,0,0,1,1.046-2.83,2.313,2.313,0,0,1,2.34.534,3.1,3.1,0,0,1,.9,2.287,4.387,4.387,0,0,0,.058,1.583,3.592,3.592,0,0,0,.524-4c.382-.119.717-.447,1.1-.566.669-.207.887-1.115.93-1.813a2.188,2.188,0,0,0-.834-1.835,13.784,13.784,0,0,1,7.507-8.465Z" transform="translate(-394.515 -372.788)" fill="#53306b"/>
      <path id="Path_1306" data-name="Path 1306" d="M195.526,522.4q.041,1.651.084,3.3a25.439,25.439,0,0,1-23.572,8.034,5.892,5.892,0,0,1-3.635-1.785,4.432,4.432,0,0,1-.6-3.851,12.324,12.324,0,0,1,1.835-3.579,5.687,5.687,0,0,0,.858-1.641,1.878,1.878,0,0,0-.331-1.752,1.853,1.853,0,0,0-1.859-.392,5,5,0,0,0-1.7,1.03,38.714,38.714,0,0,0-9.4,11.359,13.233,13.233,0,0,1-.214-5.991,16.847,16.847,0,0,0-6.075,2.605,80.884,80.884,0,0,1,7.1-6.671c1.239-.951,2.684-1.917,4.23-1.694a45.931,45.931,0,0,1,9.3-4.794c1.046-.376,2.346-.67,3.164.083a2.152,2.152,0,0,1,.566,1.843,6.344,6.344,0,0,1-.654,1.884l-2.136,4.545c-.644,1.372-1.281,3.039-.479,4.326.778,1.25,2.5,1.451,3.97,1.411A29.964,29.964,0,0,0,195.526,522.4Z" transform="translate(-147.481 -460.52)" fill="#805da3"/>
      <path id="Path_1307" data-name="Path 1307" d="M450.436,410.072q.125,2.2.249,4.4a16.467,16.467,0,0,0-10.72,6.747c-2.583,3.513-4.343,7.552-6.56,11.306s-5.053,7.359-8.993,9.227c0-.048-.2.042-.2-.007a19.889,19.889,0,0,0-4.78-1.144,6.561,6.561,0,0,0,1.765-2.107,7.433,7.433,0,0,0,2.382,1.417,57.14,57.14,0,0,0,6.007-5.342,29.691,29.691,0,0,0,2.7-3.208,20.509,20.509,0,0,0,2.563-4.889,4.981,4.981,0,0,0-1.713,1.864,27.192,27.192,0,0,1,6.761-14.2,6.86,6.86,0,0,1,2.814-2.03,25.777,25.777,0,0,0-4.55,6.739c1.48-1.48,2.9-3.272,4.378-4.752a23.967,23.967,0,0,1,3.552-2.693,8.527,8.527,0,0,1,4.347-1.329Z" transform="translate(-372.838 -371.454)" fill="#805da3"/>
      <path id="Path_1308" data-name="Path 1308" d="M643.226,504.238a29.011,29.011,0,0,0-.056-14.638,42.785,42.785,0,0,1-1.85,15.211C641.95,504.6,642.6,504.453,643.226,504.238Z" transform="translate(-559.067 -438.202)" fill="#805da3"/>
      <path id="Path_1309" data-name="Path 1309" d="M530.971,474.985a30.152,30.152,0,0,0,10.689-2.618c2.129-.961,4.27-2.306,5.21-4.444a13.983,13.983,0,0,0-2.5-3,4.658,4.658,0,0,0-3.64-1.022,6.211,6.211,0,0,0-2.776,1.638,30.042,30.042,0,0,0-6.988,9.443Z" transform="translate(-466.452 -416.579)" fill="#fff"/>
      <path id="Path_1310" data-name="Path 1310" d="M501.54,522.2a2.62,2.62,0,0,0,1.234-1.247l2.681-4.373c2.843-.878,6.078-1.188,8.993-1.782a19.072,19.072,0,0,0,8.182-3.352,24.2,24.2,0,0,1-2.774,11.823c-6.033,1.085-12.307.143-18.315-1.069Z" transform="translate(-441.752 -456.541)" fill="#fff"/>
      <path id="Path_1311" data-name="Path 1311" d="M413.78,430.823l.718-2.154a6.172,6.172,0,0,1,3.283,5.763c-.636-1.548-2.5-2.872-4-3.611Z" transform="translate(-368.096 -387.064)" fill="#53306b"/>
      <path id="Path_1312" data-name="Path 1312" d="M269.541,234.37a13.555,13.555,0,0,1,4.773-2.865,8.29,8.29,0,0,0-5.553.526,24.671,24.671,0,0,0-4.821,3c-3.88,2.851-7.851,5.684-11.75,8.532,3.078-.521,5.893-2.517,8.441-4.461,2.7-2.059,5.628-4.232,8.908-4.731Z" transform="translate(-232.475 -221.358)" fill="#fff"/>
      <path id="Path_1313" data-name="Path 1313" d="M381.036,235.451c1.286-.627,2.6-1.191,3.915-1.691a18.107,18.107,0,0,0-9.6,1.523A38.1,38.1,0,0,0,370.23,238a41.962,41.962,0,0,0,6.241-1.782,14.843,14.843,0,0,1,4.568-.762Z" transform="translate(-331.545 -223.354)" fill="#fff"/>
      <path id="Path_1314" data-name="Path 1314" d="M430.281,245.824a12.342,12.342,0,0,0-5.967-2.391,16.02,16.02,0,0,0-5.4.689,60.048,60.048,0,0,0-10.279,3.727c3.891-.252,7.594-1.98,11.462-2.652a21.594,21.594,0,0,1,10.36.759C430.394,245.914,430.341,245.866,430.281,245.824Z" transform="translate(-363.773 -231.567)" fill="#fff"/>
      <path id="Path_1315" data-name="Path 1315" d="M593.066,269.476a29.61,29.61,0,0,1,11.107,1.816,34.728,34.728,0,0,0-7.587-4.423,24.548,24.548,0,0,1,7.6,1.678,30.622,30.622,0,0,0-2.555-5.622,8.947,8.947,0,0,1,3.614,5.94,10.738,10.738,0,0,1,6.99,3.783,9.706,9.706,0,0,0,.464-4.654,2.731,2.731,0,0,1,.357.26,10.813,10.813,0,0,0-2.4-3.065,20.033,20.033,0,0,0-9.03-4.056,49.24,49.24,0,0,0-15.145-.985c.863.966,1.686,1.97,2.5,2.975A22.974,22.974,0,0,1,593.066,269.476Z" transform="translate(-513.032 -245.461)" fill="#53306b"/>
      <path id="Path_1316" data-name="Path 1316" d="M559.846,207.5c-3.327-2.338-7.386-3.389-11.4-4.034a68.137,68.137,0,0,0-30.945,2.456,10.978,10.978,0,0,1,4.558,1.029,21.024,21.024,0,0,1,15.37,1.12c-1.1-.939-2.153-1.985-3.257-2.923a30.179,30.179,0,0,1,20.335,6.226,8.308,8.308,0,0,0-2.984-4.548,16.437,16.437,0,0,1,13.849,12.659c.052-.579.092-1.16.119-1.742.181-4.063-2.313-7.906-5.64-10.244Z" transform="translate(-455.147 -197.386)" fill="#fff"/>
      <path id="Path_1317" data-name="Path 1317" d="M446.032,474.641a2.932,2.932,0,0,0-.771,1.943,1.793,1.793,0,0,0,1.342,1.588,2,2,0,0,1,1.046-2.83,2.313,2.313,0,0,1,2.34.534,2.672,2.672,0,0,1,.439.558,2.535,2.535,0,0,0,.371-1.487,3.566,3.566,0,0,0-.183-1.453,1.457,1.457,0,0,0-.434-.57A5.034,5.034,0,0,0,446.032,474.641Z" transform="translate(-394.516 -424.196)" fill="#805da3"/>
      <path id="Path_1318" data-name="Path 1318" d="M433.1,443.692a9.264,9.264,0,0,1,.976-4.129,95.52,95.52,0,0,1,6.645-12.862c-.845.95-1.687,1.916-2.549,2.777a25.774,25.774,0,0,1,4.55-6.739,6.86,6.86,0,0,0-2.814,2.03,27.215,27.215,0,0,0-6.763,14.2,4.983,4.983,0,0,1,1.713-1.864A20.56,20.56,0,0,1,432.29,442a29.688,29.688,0,0,1-2.7,3.208,57.288,57.288,0,0,1-6.007,5.342,7.445,7.445,0,0,1-2.382-1.417,6.546,6.546,0,0,1-1.765,2.107,19.962,19.962,0,0,1,4.78,1.144c0,.048.2-.042.2.006C428.176,450.609,430.926,447.252,433.1,443.692Z" transform="translate(-372.846 -382.087)" fill="#53306b"/>
      <path id="Path_1319" data-name="Path 1319" d="M331.347,557.141c-1.422,3.533-4.678,6.172-8.237,7.627a29.707,29.707,0,0,1-7.041,1.784,25.492,25.492,0,0,0,18.148-8.451q-.041-1.651-.083-3.3A29.612,29.612,0,0,1,331.347,557.141Z" transform="translate(-286.089 -492.924)" fill="#53306b"/>
      <path id="Path_1320" data-name="Path 1320" d="M187.553,565.5c-.209.206-.408.424-.6.646.095-.021.19-.046.284-.066a13.232,13.232,0,0,0,.214,5.991c.072-.133.153-.26.227-.392a27.125,27.125,0,0,1,3.777-9.079A27.529,27.529,0,0,0,187.553,565.5Z" transform="translate(-177.72 -499.47)" fill="#fff"/>
      <path id="Path_1321" data-name="Path 1321" d="M171.728,517.48a3.007,3.007,0,0,1,2.242-.106,2.563,2.563,0,0,1,1.159,1.8,3.83,3.83,0,0,0,.161-.683,2.151,2.151,0,0,0-.566-1.843c-.818-.754-2.118-.461-3.164-.084a45.909,45.909,0,0,0-9.3,4.794c-1.546-.223-2.991.741-4.23,1.694a80.906,80.906,0,0,0-7.1,6.671,17.733,17.733,0,0,1,3.714-1.927,13.281,13.281,0,0,1,7.584-5.525c3.442-.924,6.115-3.682,9.5-4.789Z" transform="translate(-147.489 -460.509)" fill="#fff"/>
    </g>
  </g>
</svg>
