<svg xmlns="http://www.w3.org/2000/svg" width="137.76" height="142.083" viewBox="0 0 137.76 142.083">
  <g id="Group_3956" data-name="Group 3956" transform="translate(-3958.722 -5243.32)">
    <path id="Path_2473" data-name="Path 2473" d="M139.261,171.6a15.138,15.138,0,0,0,3.883-3.22,20.729,20.729,0,0,1-2.3,4.136c.122.081.247.161.364.245a5.075,5.075,0,0,1,3.326-.435q3.023.627,6.064,1.128a10.059,10.059,0,0,0,.323-1.924,18.79,18.79,0,0,1,.133,2c1.217.2,2.435.388,3.655.557a5.158,5.158,0,0,1,1.128.29,5.13,5.13,0,0,1,1.164.011q3.935.486,7.885.769c.171.013.34.033.506.062a4.984,4.984,0,0,1,.509.008q5.015.328,10.04.326a4.836,4.836,0,0,0,1.69-.009q5.022-.055,10.036-.437a5.026,5.026,0,0,1,4.063,1.576q.366-.3.745-.579c.106-.245.21-.49.31-.739.051.139.1.282.146.426.087-.059.171-.122.26-.179a15.62,15.62,0,0,1,6.164-2.31,15.744,15.744,0,0,1,10.906,2.175c.052-.1.1-.209.157-.312a11.752,11.752,0,0,1,7.455-5.927,13.565,13.565,0,0,1,4.041-.527,5.174,5.174,0,0,1,1.107-.5q2.06-.66,4.1-1.376a5.2,5.2,0,0,1,2.576-.22c.051-.141.108-.28.157-.422a20.482,20.482,0,0,0,1.057-10.475c-.628-3.294-2.3-6.289-3.3-9.493-.914-2.954-1.766-6.62-.788-9.553a16.918,16.918,0,0,0-4.4-17.3c-4.705-4.4-11.426-5.65-17.468-7.884a51.786,51.786,0,0,1-25.1-20.5c-2.955,3.856-3.308,9.324-1.573,13.861a22.643,22.643,0,0,0,9.452,10.754,48.23,48.23,0,0,0,12.849,5.414,54.418,54.418,0,0,1-23.933-2.457,21.078,21.078,0,0,0,10.545,10.034c4.557,1.949,9.966,2.786,14.689,1.282a18,18,0,0,1-14.035,1.649A6.294,6.294,0,0,0,189.8,135.5a6.561,6.561,0,0,0,3.984,2.128c-.566.865-1.285,1.753-1.851,2.62a16.475,16.475,0,0,0-8.681-8.289,3.243,3.243,0,0,1,3.107-1.051,13.158,13.158,0,0,0-9.393-2.31,3,3,0,0,0,.184-2.753,45.906,45.906,0,0,1-12.116,3.728c.831-1.166,2.038-2.4,2.87-3.563a10.851,10.851,0,0,0-9.668,6.071c-.191-.979-.693-1.986-.884-2.965a32.418,32.418,0,0,0-6.031,11.8,59.125,59.125,0,0,1-46.379-9.1c-.9,3.248.345,6.8,2.5,9.393a25.594,25.594,0,0,0,8.121,5.909,42.338,42.338,0,0,0,7.771,3.253,28.769,28.769,0,0,0,14.842.362,53.5,53.5,0,0,1-26.887,3.6,10.42,10.42,0,0,0,4.615,7.29,17.5,17.5,0,0,0,8.368,2.748,26.469,26.469,0,0,0,14.768-3.273,30.039,30.039,0,0,1-11.565,6.651q3.788,1.251,7.62,2.308a22.626,22.626,0,0,1,4.158,1.543Z" transform="translate(3854.076 5152.34)" fill="#000001"/>
    <path id="Path_2474" data-name="Path 2474" d="M255.915,586.158a11.892,11.892,0,0,0-5.39-6.228,4.323,4.323,0,0,0,.163-3.448q-1.386-3.579-2.77-7.159a4.761,4.761,0,0,0-3.7-2.917,58.149,58.149,0,0,1-4.534,9.121c.44-2.536-.688-4.819-2.354-6.781a20.772,20.772,0,0,1-1.761,11.092,10.358,10.358,0,0,1-3.194,3.688,13.262,13.262,0,0,0-.914-11.355,39.014,39.014,0,0,1-4.474,14.424,8.614,8.614,0,0,0-3.253-7.2,20.985,20.985,0,0,1-8.98,11.7,42.3,42.3,0,0,0-.426-15.488,10.185,10.185,0,0,1-6.355,7.24,13.875,13.875,0,0,0-.524-7.265c-.152.1-.305.205-.454.313a31.964,31.964,0,0,1-15.067,15.774,10.923,10.923,0,0,1-6.414-4.015,37.2,37.2,0,0,1-4.256-7.055,7.568,7.568,0,0,1-2.667,5.11,7.367,7.367,0,0,1-5.537,1.3c.467.047.354-.524.652-.888a3.38,3.38,0,0,0,.584-1.269,10.657,10.657,0,0,0-.672-7.428,14.552,14.552,0,0,1-4.64,8.359,9.343,9.343,0,0,1-9.126,1.992,20.849,20.849,0,0,0,5.718-14.448l-.457-.074a12.155,12.155,0,0,1-3.669,5.876,15,15,0,0,1-18.57,1.062,18.7,18.7,0,0,0,12.485-7.876,14.642,14.642,0,0,0-1.579-.916,20.381,20.381,0,0,1-5.878,2.275,17.816,17.816,0,0,1-11.151-1.147,9.072,9.072,0,0,1-4.432-3.727A27.77,27.77,0,0,0,142,567.548c-1.289-.426-2.576-.862-3.856-1.322a4.942,4.942,0,0,0-6.3,2.646q-.966,2.442-1.933,4.884a4.381,4.381,0,0,0,.239,3.686q-1.628,4.231-3.258,8.461a4.426,4.426,0,0,0-2.783,2.506l-1.941,4.9c-.97,2.408.758,5.371,3.892,6.5q7.559,2.72,15.279,4.781c4.522,1.207,8.447.965,11.505-.581,1.7,2.232,5.06,4.863,11.366,5.754.429.06.853.107,1.272.144q-.133,1-.264,2.006a4.188,4.188,0,0,0,1.376,3.56q-.349,2.839-.7,5.675a4.27,4.27,0,0,0-2.308,3.09q-.14,1.068-.282,2.134c-.356,2.571,2.3,5.061,5.944,5.425q3.263.327,6.533.555a8.232,8.232,0,0,0,3.561-.516,8.225,8.225,0,0,0,3.487.886q3.216.116,6.431.134a8.772,8.772,0,0,0,1.563-.13,8.834,8.834,0,0,0,1.565.125q3.216-.028,6.431-.157c.289-.011.573-.038.85-.076.28.014.565.016.854,0q1.063-.05,2.126-.113c.149-.008.3-.021.441-.036a13.829,13.829,0,0,0,3.258.131,12.129,12.129,0,0,0,8.616-4.056,8.368,8.368,0,0,0,1.832-6.636,8.818,8.818,0,0,0-2.115-4.776,3.833,3.833,0,0,0,.506-2.41l-.6-4.722a3.712,3.712,0,0,0-.1-.5,19.6,19.6,0,0,0,4.958-.139,19.153,19.153,0,0,0,7.634-2.846,16.571,16.571,0,0,0,2.093-1.631,6.21,6.21,0,0,0,5.3,1q2.75-.655,5.484-1.391a7.322,7.322,0,0,0,1.32-.5,18.012,18.012,0,0,0,5.189-.821c5.555-1.718,8.145-4.914,9.282-7.192a11.588,11.588,0,0,0,.168-9.822ZM139.4,591.415a2.276,2.276,0,0,1-.274-1.091,2.194,2.194,0,0,1,.837-.788Q139.686,590.475,139.4,591.415Zm2.78-9.287a2.347,2.347,0,0,1-.233-1.244,2.229,2.229,0,0,1,.872-.893Q142.5,581.06,142.185,582.128Z" transform="translate(3839.555 4752.544)" fill="#000001"/>
    <g id="Group_1215" data-name="Group 1215" transform="translate(3961.459 5318.46)">
      <path id="Path_2475" data-name="Path 2475" d="M251.832,580.732a12.041,12.041,0,0,0-1.272-.81,4.323,4.323,0,0,0,.163-3.447q-1.386-3.579-2.77-7.159a4.938,4.938,0,0,0-6.275-2.7q-2.046.717-4.1,1.377a5.176,5.176,0,0,0-1.107.5,13.572,13.572,0,0,0-4.041.527,11.756,11.756,0,0,0-7.455,5.927c-.055.1-.1.209-.157.312a15.743,15.743,0,0,0-10.906-2.175,15.362,15.362,0,0,0-7.624,3.382,5.026,5.026,0,0,0-4.063-1.576q-5.012.382-10.036.437a4.83,4.83,0,0,1-1.69.009q-5.022,0-10.04-.326c-.171-.011-.342-.013-.509-.008-.166-.029-.334-.049-.506-.062q-3.949-.283-7.885-.769a5.13,5.13,0,0,0-1.164-.011,5.086,5.086,0,0,0-1.128-.29q-5.109-.71-10.176-1.759a5.074,5.074,0,0,0-3.326.435,19,19,0,0,0-6.1-2.7q-5.788-1.585-11.475-3.631a4.942,4.942,0,0,0-6.3,2.647q-.966,2.442-1.933,4.884a4.38,4.38,0,0,0,.239,3.686q-1.628,4.231-3.258,8.461a4.425,4.425,0,0,0-2.783,2.506q-.971,2.451-1.941,4.9c-.97,2.408.758,5.371,3.892,6.5q7.559,2.72,15.279,4.781c4.522,1.207,8.447.965,11.505-.58,1.7,2.232,5.06,4.863,11.366,5.754q.643.09,1.272.144-.133,1-.264,2.006a4.189,4.189,0,0,0,1.376,3.56q-.349,2.838-.7,5.675a4.27,4.27,0,0,0-2.308,3.09q-.14,1.068-.282,2.134c-.356,2.571,2.3,5.061,5.944,5.425q3.263.327,6.533.555a8.23,8.23,0,0,0,3.561-.516,8.221,8.221,0,0,0,3.487.886q3.216.116,6.431.134a8.818,8.818,0,0,0,1.563-.13,8.881,8.881,0,0,0,1.565.125q3.216-.029,6.431-.157c.29-.011.573-.038.85-.076.28.014.565.016.854,0q1.063-.05,2.126-.112c.149-.008.3-.021.441-.037a13.813,13.813,0,0,0,3.258.131,12.128,12.128,0,0,0,8.616-4.057,8.367,8.367,0,0,0,1.832-6.636,8.818,8.818,0,0,0-2.115-4.776,3.832,3.832,0,0,0,.506-2.409l-.6-4.723a3.723,3.723,0,0,0-.1-.5,19.609,19.609,0,0,0,4.958-.139,19.155,19.155,0,0,0,7.634-2.846,16.564,16.564,0,0,0,2.093-1.631,6.209,6.209,0,0,0,5.3,1q2.75-.655,5.484-1.391a7.346,7.346,0,0,0,1.319-.5,18.023,18.023,0,0,0,5.189-.821c5.555-1.718,8.145-4.914,9.282-7.192a11.588,11.588,0,0,0,.168-9.822,12.058,12.058,0,0,0-4.118-5.417ZM139.44,591.407a2.278,2.278,0,0,1-.274-1.092,2.2,2.2,0,0,1,.837-.788Q139.721,590.467,139.44,591.407Zm2.78-9.287a2.347,2.347,0,0,1-.233-1.244,2.229,2.229,0,0,1,.872-.892Q142.539,581.051,142.22,582.12Z" transform="translate(-121.936 -565.907)" fill="#000001"/>
      <g id="Group_1213" data-name="Group 1213" transform="translate(5.753 4.733)">
        <path id="Path_2476" data-name="Path 2476" d="M158.3,620.555l1.785-4.961q.795.287,1.593.565l5.2-14.88q-.729-.254-1.454-.516.89-2.47,1.778-4.943,5.855,2.108,11.823,3.742c2.781.761,4.685,1.777,5.734,3.149s1.335,3.213.824,5.552a6.586,6.586,0,0,1-1.7,3.384,5.274,5.274,0,0,1-3.232,1.44,5.587,5.587,0,0,1,2.718,2.805,6.774,6.774,0,0,1,.318,4.226,6.625,6.625,0,0,1-3.414,4.909c-1.778.885-4.156.972-7.072.193Q165.68,623.209,158.3,620.555Zm14.07-11.72c.419.125.839.25,1.259.372a4.083,4.083,0,0,0,2.677.075,2.458,2.458,0,0,0,1.335-1.775,2.418,2.418,0,0,0-.193-2.1,4.038,4.038,0,0,0-2.2-1.234q-.681-.2-1.362-.4-.759,2.535-1.517,5.069Zm-2.859,9.552q.667.2,1.334.394a4.429,4.429,0,0,0,2.854.1,2.509,2.509,0,0,0,1.407-1.823,2.658,2.658,0,0,0-.193-2.275,4.224,4.224,0,0,0-2.351-1.335q-.721-.209-1.441-.426-.8,2.684-1.607,5.37Z" transform="translate(-158.3 -595.82)" fill="#fff"/>
        <path id="Path_2477" data-name="Path 2477" d="M346.689,651.774a6.719,6.719,0,0,0,.191,3.6,2.451,2.451,0,0,0,2.079,1.425,2.54,2.54,0,0,0,2.432-.834,6.522,6.522,0,0,0,1.136-3.425q.617-5.4,1.232-10.807-.764-.088-1.527-.182.321-2.589.639-5.177,4.054.5,8.126.793-.187,2.6-.373,5.2-.767-.055-1.531-.117-.413,5.078-.824,10.159a26.637,26.637,0,0,1-.658,4.373,8.13,8.13,0,0,1-1.168,2.731,7.724,7.724,0,0,1-3.859,2.791,12.947,12.947,0,0,1-5.794.321c-3.748-.522-6.3-1.881-7.586-3.922s-1.513-5.068-.721-9.045q.985-4.981,1.971-9.963-.75-.149-1.5-.3l1.068-5.144q5.219,1.082,10.486,1.813-.361,2.6-.721,5.2-.754-.1-1.509-.217-.795,5.361-1.588,10.724Z" transform="translate(-309.586 -628.17)" fill="#fff"/>
        <path id="Path_2478" data-name="Path 2478" d="M479.08,678.731q.171-2.63.343-5.261c.555.036,1.109.07,1.665.1q.439-7.867.878-15.736-.759-.043-1.519-.092l.342-5.243q5.166.337,10.345.337v5.254q-.629,0-1.258,0-.019,2.544-.04,5.087,2.224.016,4.449-.024l-.1-5.086q-.629.012-1.258.019-.028-2.627-.057-5.253,5.176-.057,10.342-.45.2,2.62.4,5.238-.759.057-1.519.109.524,7.862,1.051,15.726c.555-.036,1.109-.076,1.664-.118q.2,2.629.4,5.257-6.016.458-12.049.524-.028-2.637-.057-5.272c.459,0,.919-.011,1.378-.021q-.052-2.839-.106-5.678-2.29.043-4.579.025-.021,2.838-.043,5.678c.459,0,.919,0,1.378,0v5.272q-6.031,0-12.053-.392Z" transform="translate(-428.328 -643.431)" fill="#fff"/>
        <path id="Path_2479" data-name="Path 2479" d="M646.461,654.776a17.7,17.7,0,0,1,.356-5.509,13.983,13.983,0,0,1,1.943-4.593,10.974,10.974,0,0,1,3.177-3.213,10.425,10.425,0,0,1,4.161-1.554,10.784,10.784,0,0,1,4.553.22,11.063,11.063,0,0,1,4.077,2.158,13.864,13.864,0,0,1,3.2,3.772,17.719,17.719,0,0,1,1.978,5.1,16.238,16.238,0,0,1,.353,5.465,12.1,12.1,0,0,1-1.59,4.813,10.9,10.9,0,0,1-3.466,3.621,12.568,12.568,0,0,1-4.957,1.818,12.139,12.139,0,0,1-5.147-.261,10.954,10.954,0,0,1-4.34-2.378,12.22,12.22,0,0,1-2.982-4.126,16.249,16.249,0,0,1-1.316-5.335Zm13.019,6.7c1-.154,1.627-.907,1.87-2.248a19.492,19.492,0,0,0-.35-6.169,21.151,21.151,0,0,0-1.667-5.928c-.636-1.195-1.4-1.718-2.309-1.579s-1.464.867-1.71,2.2a21.2,21.2,0,0,0,.2,6.154,19.673,19.673,0,0,0,1.516,5.99c.631,1.206,1.454,1.736,2.452,1.582Z" transform="translate(-569.167 -632.812)" fill="#fff"/>
        <path id="Path_2480" data-name="Path 2480" d="M800.877,628.7q-1.035-4.345-2.068-8.692,2.53-.6,5.046-1.278a5.909,5.909,0,0,0,1.78,2.919,2.734,2.734,0,0,0,2.576.456,2.609,2.609,0,0,0,1.574-1.119,2.048,2.048,0,0,0,.207-1.744,2.209,2.209,0,0,0-1.077-1.3A12.481,12.481,0,0,0,805.8,617q-1.963-.425-3.893-.894a7.3,7.3,0,0,1-3.619-2.016,7.8,7.8,0,0,1-1.938-3.71,8.568,8.568,0,0,1,.527-6.029,6.541,6.541,0,0,1,4.286-3.4,8.075,8.075,0,0,1,3.024-.3,7.33,7.33,0,0,1,2.809.878q-.266-.828-.53-1.656,2.121-.679,4.229-1.419,1.272,3.621,2.543,7.243-2.21.776-4.433,1.487a4.859,4.859,0,0,0-1.685-1.94,2.385,2.385,0,0,0-2-.248,1.847,1.847,0,0,0-1.166.915,1.942,1.942,0,0,0-.115,1.487c.232.805,1.3,1.447,3.232,1.878l.152.032q1.92.427,3.87.81a10.817,10.817,0,0,1,4.539,1.816,7.653,7.653,0,0,1,2.519,3.6,7.8,7.8,0,0,1-.126,6.458,8.635,8.635,0,0,1-5.449,4.074,10.984,10.984,0,0,1-3.452.514,9.962,9.962,0,0,1-3.275-.634l.375,1.394q-2.668.719-5.349,1.356Z" transform="translate(-695.148 -598.042)" fill="#fff"/>
      </g>
      <g id="Group_1214" data-name="Group 1214" transform="translate(47.821 44.669)">
        <path id="Path_2481" data-name="Path 2481" d="M424.19,864.776q.107-1.07.215-2.141.952.1,1.9.182.565-6.192,1.128-12.382-.895-.081-1.789-.171.1-1.013.2-2.025,5.684.572,11.39.8-.1,2.465-.2,4.931c-.614-.026-1.229-.052-1.843-.082q.071-1.448.144-2.9-2.874-.143-5.742-.372-.2,2.518-.4,5.038,2.6.206,5.2.347-.052.992-.106,1.985-2.629-.14-5.254-.349-.214,2.686-.429,5.374,1.056.083,2.112.158-.074,1.073-.149,2.147-3.2-.22-6.387-.543Z" transform="translate(-424.19 -848.24)" fill="#fff"/>
        <path id="Path_2482" data-name="Path 2482" d="M508.113,869.966q.038-1.075.077-2.15c.638.024,1.274.043,1.911.06q.166-6.215.331-12.429-.9-.024-1.8-.057c.024-.677.049-1.356.073-2.033q2.89.1,5.784.12,0,1.018-.011,2.035c-.626,0-1.255-.01-1.881-.021q-.036,2.344-.073,4.69,3.372.052,6.745-.011-.046-2.345-.089-4.69c-.62.011-1.241.021-1.861.025q-.009-1.018-.019-2.034,2.893-.027,5.784-.141.04,1.016.081,2.033-.9.036-1.8.062.188,6.213.375,12.428.956-.028,1.911-.066.043,1.075.085,2.15-3.142.123-6.289.153-.01-1.075-.019-2.151.989-.01,1.979-.027-.055-2.877-.108-5.754-3.406.064-6.813.011-.045,2.876-.089,5.754c.668.009,1.335.018,2,.021q-.007,1.075-.013,2.152-3.145-.017-6.289-.131Z" transform="translate(-494.833 -852.525)" fill="#fff"/>
        <path id="Path_2483" data-name="Path 2483" d="M614.2,866.019q-.135-2.846-.271-5.69,1.011-.047,2.022-.106c.029.493.057.989.085,1.482a4.657,4.657,0,0,0,1.619,1.7,3.457,3.457,0,0,0,2.06.471,2.585,2.585,0,0,0,1.856-.875,2.522,2.522,0,0,0,.565-1.939,2.822,2.822,0,0,0-.672-1.657,3.145,3.145,0,0,0-1.608-.936q-1.433-.382-2.854-.784a4.91,4.91,0,0,1-2.484-1.5,4.171,4.171,0,0,1-.927-2.56,4.6,4.6,0,0,1,1.031-3.285,3.977,3.977,0,0,1,2.911-1.455,4.636,4.636,0,0,1,1.8.224,4.8,4.8,0,0,1,1.593.907q-.047-.549-.095-1.1.876-.075,1.75-.159.228,2.368.456,4.738-.907.088-1.816.167l-.1-1.212a5.158,5.158,0,0,0-1.566-1.209,3.307,3.307,0,0,0-1.688-.343,2.264,2.264,0,0,0-1.607.728,2.214,2.214,0,0,0-.53,1.672,2.184,2.184,0,0,0,.528,1.4,3.4,3.4,0,0,0,1.552.832q1.377.411,2.766.8a5.558,5.558,0,0,1,2.718,1.572,4.872,4.872,0,0,1,1.134,2.823,4.681,4.681,0,0,1-1,3.65,4.889,4.889,0,0,1-3.525,1.628,5.135,5.135,0,0,1-1.943-.209,5.43,5.43,0,0,1-1.737-.941c.02.35.041.7.06,1.05q-1.039.059-2.079.109Z" transform="translate(-583.621 -848.678)" fill="#fff"/>
      </g>
      <path id="Path_2484" data-name="Path 2484" d="M187.082,678.115a8.72,8.72,0,0,1-1.375-.286q-.636-.185-1.27-.375a2.026,2.026,0,0,1-.581-.283q-2.537-.769-5.055-1.62l-2.815,8.339a1.7,1.7,0,0,1-2.111.924q-.354,1.013-.706,2.027,6.417,2.233,12.951,3.979c2.367.633,4.265.595,5.6-.063a6.317,6.317,0,0,0,2.476-7.271,3.694,3.694,0,0,0-1.84-1.919,1.632,1.632,0,0,1-.957-1.693,1.375,1.375,0,0,1,.226-.543q-2.281-.577-4.55-1.217Zm.065,9.322a6.38,6.38,0,0,1-4.224-.035c-.449-.131-.9-.263-1.345-.4a1.744,1.744,0,0,1-1.354-2.052q.831-2.677,1.663-5.352a1.719,1.719,0,0,1,2.2-.97q.714.213,1.429.421a6.028,6.028,0,0,1,3.435,2.087,4.083,4.083,0,0,1,.462,3.5,3.865,3.865,0,0,1-2.264,2.8Z" transform="translate(-165.064 -658.203)" fill="#c6c6c6"/>
      <path id="Path_2485" data-name="Path 2485" d="M364.552,715.991q-.2,1.932-.4,3.862a7.673,7.673,0,0,1-1.414,4.168,4.455,4.455,0,0,1-4.167,1.449,4.359,4.359,0,0,1-3.607-2.487,7.841,7.841,0,0,1-.261-4.367q.3-1.917.609-3.833-2.326-.37-4.642-.8l-.589,3.142c-.682,3.623-.5,6.332.6,8.036,1.006,1.573,3.027,2.6,6.143,3.035a10.9,10.9,0,0,0,4.8-.231,6.066,6.066,0,0,0,3.028-2.194,6.889,6.889,0,0,0,.96-2.25,25.468,25.468,0,0,0,.665-4.144q.145-1.592.291-3.184-1.011-.092-2.019-.2Z" transform="translate(-313.648 -690.553)" fill="#c6c6c6"/>
      <path id="Path_2486" data-name="Path 2486" d="M494.017,730.817q-.2,4.4-.4,8.793a1.691,1.691,0,0,1-1.75,1.473c-.04.713-.078,1.429-.117,2.142q4.068.223,8.14.264c.008-.731.016-1.46.022-2.192a1.633,1.633,0,0,1-1.362-1.533q.052-2.838.1-5.678a1.707,1.707,0,0,1,1.821-1.544q2.269.017,4.538-.025a1.707,1.707,0,0,1,1.838,1.525q.083,2.838.164,5.677a1.632,1.632,0,0,1-1.346,1.547l.048,2.191q4.072-.088,8.138-.354c-.048-.714-.093-1.427-.141-2.141a1.694,1.694,0,0,1-1.767-1.454q-.247-4.4-.5-8.789a171.216,171.216,0,0,1-17.433.1Z" transform="translate(-433.241 -704.644)" fill="#c6c6c6"/>
      <path id="Path_2487" data-name="Path 2487" d="M672.3,710.471a20.371,20.371,0,0,1,.414,6.629,4.1,4.1,0,0,1-7.857,1.206,20.557,20.557,0,0,1-1.59-6.442c-.047-.374-.089-.733-.125-1.081q-2.71.344-5.43.6c.014.317.032.635.063.957a14.984,14.984,0,0,0,1.253,4.887,10.989,10.989,0,0,0,2.664,3.637,9.294,9.294,0,0,0,3.633,1.981,9.894,9.894,0,0,0,4.215.206,10.283,10.283,0,0,0,4.09-1.489,9.241,9.241,0,0,0,2.9-3.03,10.814,10.814,0,0,0,1.429-4.24,15.051,15.051,0,0,0-.278-5.023c-.068-.317-.146-.626-.228-.932q-2.674.575-5.362,1.06c.07.344.139.7.206,1.07Z" transform="translate(-572.943 -685.805)" fill="#c6c6c6"/>
      <path id="Path_2488" data-name="Path 2488" d="M828.731,684.308q1.922.463,3.875.88a13.757,13.757,0,0,1,3.64,1.125,3.641,3.641,0,0,1,1.775,2.1,3.464,3.464,0,0,1-.357,2.917,5.058,5.058,0,0,1-7.118,1.262,6.014,6.014,0,0,1-1.669-2.19q-.828.214-1.657.421.7,2.815,1.4,5.628.792-.2,1.585-.4a1.627,1.627,0,0,1,.751-1.542,2.307,2.307,0,0,1,.726-.339,2.2,2.2,0,0,1,1.315.043,8.132,8.132,0,0,0,2.626.508,8.728,8.728,0,0,0,2.734-.414,5.906,5.906,0,0,0,4.274-8.41,6.264,6.264,0,0,0-2.009-2.975,9.077,9.077,0,0,0-3.8-1.509l-.571-.114q-4.383,1.4-8.822,2.554a6.459,6.459,0,0,0,1.3.459Z" transform="translate(-715.634 -663.043)" fill="#c6c6c6"/>
    </g>
    <path id="Path_2489" data-name="Path 2489" d="M323.43,583.43a14.778,14.778,0,0,1,1.579.916,20.722,20.722,0,0,0,2.3-4.136A15.207,15.207,0,0,1,323.43,583.43Z" transform="translate(3669.904 4740.513)" fill="none"/>
    <path id="Path_2490" data-name="Path 2490" d="M659.761,625.089c.149-.109.3-.21.454-.313-.047-.142-.095-.285-.146-.426-.1.248-.2.494-.31.739Z" transform="translate(3386.789 4703.356)" fill="none"/>
    <path id="Path_2491" data-name="Path 2491" d="M230.821,715.988a2.3,2.3,0,0,0,.274,1.092q.282-.94.563-1.88A2.191,2.191,0,0,0,230.821,715.988Z" transform="translate(3747.863 4626.88)" fill="none"/>
    <path id="Path_2492" data-name="Path 2492" d="M395.06,602.034c.152.025.3.051.457.074a18.793,18.793,0,0,0-.133-2,10.187,10.187,0,0,1-.323,1.924Z" transform="translate(3609.609 4723.761)" fill="none"/>
    <path id="Path_2493" data-name="Path 2493" d="M248.586,655.772a2.345,2.345,0,0,0,.233,1.244q.321-1.068.639-2.136A2.231,2.231,0,0,0,248.586,655.772Z" transform="translate(3732.922 4677.657)" fill="none"/>
    <path id="Path_2494" data-name="Path 2494" d="M696.833,568.824q-2.045.717-4.1,1.376a5.161,5.161,0,0,0-1.107.5,13.573,13.573,0,0,0-4.041.527,11.757,11.757,0,0,0-7.455,5.927c-.055.1-.1.209-.156.312a15.746,15.746,0,0,0-10.906-2.175,15.622,15.622,0,0,0-6.164,2.31c-.088.057-.172.12-.259.179a13.891,13.891,0,0,1,.524,7.265,10.186,10.186,0,0,0,6.356-7.24,42.327,42.327,0,0,1,.426,15.488,20.993,20.993,0,0,0,8.98-11.7,8.613,8.613,0,0,1,3.253,7.2,39,39,0,0,0,4.474-14.424,13.262,13.262,0,0,1,.915,11.355,10.356,10.356,0,0,0,3.194-3.688,20.77,20.77,0,0,0,1.761-11.092c1.664,1.962,2.794,4.245,2.354,6.781a58.159,58.159,0,0,0,4.534-9.121,5.2,5.2,0,0,0-2.576.22Z" transform="translate(3384.363 4750.346)" fill="#000001"/>
    <g id="Group_1218" data-name="Group 1218" transform="translate(3965.59 5253.469)">
      <path id="Path_2495" data-name="Path 2495" d="M186.08,470.767a37.581,37.581,0,0,0,19.359-2.68c3.058-1.3,5.955-3.014,9.143-3.957a11.186,11.186,0,0,1-3.962,5.152,28.807,28.807,0,0,1-6.086,3.156,25.919,25.919,0,0,1-9.5,2.34c-3.281.016-6.983-1.386-8.953-4.009Z" transform="translate(-180.063 -415.242)" fill="#9e4e18"/>
      <path id="Path_2496" data-name="Path 2496" d="M148.053,388.69a29.966,29.966,0,0,0,12.3,5.568,58.085,58.085,0,0,0,13.545,1.077,115.5,115.5,0,0,0,13.326-1.229,5.27,5.27,0,0,0,2.856,4.77c-5.729.43-11.627,1.141-17.372,1.225a59.265,59.265,0,0,1-11.447-.647,20.846,20.846,0,0,1-8.551-3.362,11.306,11.306,0,0,1-4.659-7.4Z" transform="translate(-148.05 -351.738)" fill="#9e4e18"/>
      <path id="Path_2497" data-name="Path 2497" d="M490.176,485.86a5.021,5.021,0,0,1-1.1,4.242,7.859,7.859,0,0,0,3.884-1.166A3.655,3.655,0,0,0,490.176,485.86Z" transform="translate(-435.124 -433.534)" fill="#ffa33e"/>
      <path id="Path_2498" data-name="Path 2498" d="M430.91,450.07a5.906,5.906,0,0,0-2.647,1.068,2.993,2.993,0,0,0-1.208,2.49,6.65,6.65,0,0,1-2.848-4.133,6.392,6.392,0,0,1,1-4.816,5.89,5.89,0,0,0,2.372,3.237,16.63,16.63,0,0,0,3.335,2.152Z" transform="translate(-380.416 -398.869)" fill="#ffa33e"/>
      <path id="Path_2499" data-name="Path 2499" d="M431.3,461.33a2,2,0,0,1-1.547-1.47,3.066,3.066,0,0,0-.258,2.036A2.686,2.686,0,0,0,431.3,461.33Z" transform="translate(-384.887 -411.648)" fill="#000001"/>
      <path id="Path_2500" data-name="Path 2500" d="M472.41,420.186,477,417.08a3.074,3.074,0,0,1-.354,2.359,2.854,2.854,0,0,1-2.028,1.592,2,2,0,0,1-2.2-.847Z" transform="translate(-421.092 -375.636)" fill="#fff"/>
      <path id="Path_2501" data-name="Path 2501" d="M460.931,378.273a12.949,12.949,0,0,0,7.395.924c2.459-.558,4.73-2.489,5.052-4.99a2.879,2.879,0,0,1-2.492,2.16,5.128,5.128,0,0,0,.1-4.911,12.566,12.566,0,0,1,4.659-2.065,4.081,4.081,0,0,1,1.364-.07,1.784,1.784,0,0,1,1.167.65c-.81.375-1.667.854-2.477,1.229a5.032,5.032,0,0,1,1.2,8.96,5.415,5.415,0,0,0,3.917-3.576,5.6,5.6,0,0,0-.794-5.346,2.434,2.434,0,0,1,2.37-1,7.258,7.258,0,0,0-5.389-2.914c1.047-.728,2.049-1.588,3.1-2.315a7.5,7.5,0,0,1,4.943,3.008,7.346,7.346,0,0,1,1.1,5.617,6.9,6.9,0,0,0-3.489-1.416c.94.506,1.08,1.372,1.145,2.438a10.8,10.8,0,0,1-2.206,7.185,17.484,17.484,0,0,0,3.908-1.907c1.122-.913,3.448-2.035,5.707-4.182-1.977,3.278-8.566,9.153-12.488,13.9-.036-1.615-.388-4.12-.424-5.735a43.384,43.384,0,0,0-6.783,12.209,9.2,9.2,0,0,1-2.447-5.75,2.893,2.893,0,0,0,2.652,1.277,7.909,7.909,0,0,1,1.83-6.719,4.129,4.129,0,0,0-2.421,2.016,4.782,4.782,0,0,1,.547-3.009,5.223,5.223,0,0,1,2.465-2.047,6.928,6.928,0,0,1-5.025-.853c.465.672.8,1.315,1.264,1.986a8.679,8.679,0,0,1-8.32-2.058,3.848,3.848,0,0,1-1.138-2.7Z" transform="translate(-411.428 -331.804)" fill="#9e4e18"/>
      <path id="Path_2502" data-name="Path 2502" d="M436.219,334.188a42.4,42.4,0,0,0-10.573,6.439c-3.155,2.623-5.985,5.743-9.654,7.582a16.426,16.426,0,0,1-3.913,1.375,3.816,3.816,0,0,1-1.731.07,1.528,1.528,0,0,1-1.176-1.157A2.182,2.182,0,0,1,408,349.509a1.015,1.015,0,0,1-1.205-.441,1.37,1.37,0,0,1,.019-1.025,4.055,4.055,0,0,1,1.071-1.679,1.447,1.447,0,0,0,.989,1.146,2.353,2.353,0,0,1-.237-2.191,5.7,5.7,0,0,1,1.207-1.849,31.609,31.609,0,0,1,13.546-9.037,28.11,28.11,0,0,1-10.3,12.13,16.849,16.849,0,0,0,8.234-5.379c1.1-1.351,1.994-2.864,3.049-4.251a10.268,10.268,0,0,1,3.927-3.371,7.1,7.1,0,0,0-2.5,4.1,14.061,14.061,0,0,1,10.418-3.47Z" transform="translate(-365.783 -305.33)" fill="#9e4e18"/>
      <path id="Path_2503" data-name="Path 2503" d="M498.621,411.714a7.5,7.5,0,0,0,5.585,5.7,50.554,50.554,0,0,1,3.487-8.934c.084,1.019.334,1.767.419,2.786,3.968-4.166,8.123-8.635,12.092-12.8,3.008-3.156,6.169-6.628,6.708-10.953a16.366,16.366,0,0,0,9.846-1.543,5.976,5.976,0,0,1-5.667,3.446c1.775.627,3.061,1.5,4.836,2.126a11.5,11.5,0,0,0-6.145,2.832,10.673,10.673,0,0,0-2.959,5.808c-.085-2-.668-3.881-.753-5.879A19.9,19.9,0,0,0,526,408.7c.356-6.686,5.322-13.241,11.562-15.669a14.1,14.1,0,0,0,7.789-.577,7.462,7.462,0,0,1-6.349,5.509A23.784,23.784,0,0,0,549.82,403.6a17,17,0,0,1-1.478,6.892,8.44,8.44,0,0,1,3.557,4.371c.517,1.679-.123,3.425-.674,5.094-.737-2.027-3.062-3.276-5.215-3.4.78-2.168.391-5.034-.277-7.24a10.9,10.9,0,0,0-3.909-5.558,12.856,12.856,0,0,1,2.1,14.3c.5-.269,1.244.3,1.527.788a3.007,3.007,0,0,1,.259,1.661,19.812,19.812,0,0,1-2,7.735,31.9,31.9,0,0,0-3.762-6.965c1.479-4.386.088-9.741-2.714-13.426a14.847,14.847,0,0,1,.161,14.063c.453.3.59.442,1.041.744a12.386,12.386,0,0,1-3.3,10.488,24.82,24.82,0,0,0-3.971-14.374,15.785,15.785,0,0,1-4.553,10.594,13.655,13.655,0,0,0-2.421-8.172,9.956,9.956,0,0,1-3.65,5.256,36.277,36.277,0,0,0,2.3-17.367,17.255,17.255,0,0,1-7.571,11.546c-.465-2.388-1.922-4.583-3.161-6.677a42.947,42.947,0,0,1-4.9,9.548,5.458,5.458,0,0,1-6.357-4.8,4.858,4.858,0,0,0-.7,3.867,3.512,3.512,0,0,1-1.5-2.321,17.2,17.2,0,0,1-.028-8.539Z" transform="translate(-442.711 -349.448)" fill="#9e4e18"/>
      <path id="Path_2504" data-name="Path 2504" d="M585.21,155.13a62.483,62.483,0,0,0,21.971,12.342c4.547,1.446,9.3,2.386,13.548,4.552s8.069,5.9,8.779,10.616c.606,4.023-1.111,8.063-.926,12.127.247,5.424,3.807,10.172,4.682,15.53.718,4.4-.016,9.425-2.794,12.909a12.071,12.071,0,0,0-5.732-7.843c2.536-1.52,5.113-4.061,5.847-6.925a8.638,8.638,0,0,1-3.982,3.278c1.323-5.613.453-12.175-1.331-17.66,1.31,4.43.241,9.04-1.967,13.1-1.862-.509-4.117-1.672-4.909-3.432a16.663,16.663,0,0,0,3.826-12.624c-.361,2.52-2.734,4.765-5.088,5.738a7.512,7.512,0,0,1-7.243-.922,9.261,9.261,0,0,0,6.221-3.522,10.035,10.035,0,0,0,2.49-7.028c-2.169,2.7-5.86,4.367-9.238,5.14a15.662,15.662,0,0,1-10.141-1.12c5.761-.307,11.316-3.852,14.937-8.343a31.823,31.823,0,0,1-22.045-2.164,23.926,23.926,0,0,0,7.466-.046c4.987-.585,9.67-2.631,14.266-4.655a45.824,45.824,0,0,1-21.23-8.531c-3.444-2.435-7.479-6.3-7.4-10.516Z" transform="translate(-516.045 -155.13)" fill="#9e4e18"/>
      <path id="Path_2505" data-name="Path 2505" d="M191.528,409.493l-10.122.489c-5.678.275-11.421.544-17-.538a25.98,25.98,0,0,1-11.972-5.483,11.458,11.458,0,0,0,3.968,4.985,20.8,20.8,0,0,0,8.551,3.362,59.255,59.255,0,0,0,11.447.647c5.745-.085,11.643-.794,17.372-1.225A5.184,5.184,0,0,1,191.528,409.493Z" transform="translate(-151.737 -364.592)" fill="#682e07"/>
      <g id="Group_1216" data-name="Group 1216" transform="translate(47.807 28.23)">
        <path id="Path_2506" data-name="Path 2506" d="M450.22,410.906c.184-.032.366-.074.549-.111.03-.022.062-.043.092-.065C450.649,410.795,450.44,410.861,450.22,410.906Z" transform="translate(-450.22 -398.521)" fill="#682e07"/>
        <path id="Path_2507" data-name="Path 2507" d="M477.311,337.072c-.247.191-.5.377-.728.585a7.1,7.1,0,0,1,2.5-4.1,10.254,10.254,0,0,0-3.927,3.37c-1.057,1.388-1.946,2.9-3.05,4.251a16.209,16.209,0,0,1-5.077,4.087A19.188,19.188,0,0,0,477.311,337.072Z" transform="translate(-464.37 -333.56)" fill="#682e07"/>
      </g>
      <path id="Path_2508" data-name="Path 2508" d="M472.446,407.817a6.673,6.673,0,0,0,2.56-3.088,4.208,4.208,0,0,0-2.318-5.208,14.1,14.1,0,0,0-1.671.987,5.137,5.137,0,0,1-.1,4.911,2.881,2.881,0,0,0,2.492-2.16c-.321,2.5-2.595,4.432-5.052,4.988a12.934,12.934,0,0,1-7.395-.924c0,.084.021.171.027.256.1.084.2.164.305.237a10.072,10.072,0,0,0,11.157,0Z" transform="translate(-411.453 -360.854)" fill="#682e07"/>
      <path id="Path_2509" data-name="Path 2509" d="M577.872,383.017a19.135,19.135,0,0,0-3.3-.957,7.2,7.2,0,0,1,3.49,2.533,2.435,2.435,0,0,0-2.37,1c.068.087.123.183.187.275a9.018,9.018,0,0,1,4.872-.328c-.336-1.283-1.642-2.039-2.876-2.525Z" transform="translate(-507.089 -346.157)" fill="#682e07"/>
      <path id="Path_2510" data-name="Path 2510" d="M539.571,437.12a9.93,9.93,0,0,1-2.678,1.392c-2.329,1.677-5.724,1.9-7.465,4.2a9.211,9.211,0,0,0-1.106,2.175q-1.585,3.952-3.172,7.9c.139.177.281.354.432.524a43.375,43.375,0,0,1,6.783-12.209c.036,1.615.388,4.12.424,5.735,3.922-4.748,10.51-10.624,12.488-13.9-2.261,2.147-4.585,3.269-5.707,4.182Z" transform="translate(-465.488 -388.987)" fill="#682e07"/>
      <path id="Path_2511" data-name="Path 2511" d="M545.451,453.587c-.283-.492-1.025-1.057-1.527-.788a12.856,12.856,0,0,0-2.1-14.3,10.9,10.9,0,0,1,3.909,5.558c.666,2.205,1.057,5.072.277,7.24,2.151.125,4.477,1.377,5.215,3.4.55-1.669,1.191-3.416.674-5.094a8.442,8.442,0,0,0-3.557-4.372,17,17,0,0,0,1.478-6.892A23.8,23.8,0,0,1,539,432.695a7.456,7.456,0,0,0,6.333-5.465c-.117.019-.234.046-.353.068-.547.171-1.106.321-1.675.443a19.9,19.9,0,0,0-5.136,2.693c-5.249,3.734-8.559,9.043-10.962,15.021a11.321,11.321,0,0,1-1.168-2.46c-.013.147-.035.293-.043.44a19.285,19.285,0,0,1-1.261-5.738,31.186,31.186,0,0,1-8.613,11.686,6.087,6.087,0,0,0-4.237-3.933c-1.611,3.226-3.652,6.488-5.262,9.713a8.073,8.073,0,0,1-6.678-5.81,7.2,7.2,0,0,1-1.332-2.9,17.184,17.184,0,0,0,.029,8.539,3.5,3.5,0,0,0,1.5,2.321,4.858,4.858,0,0,1,.7-3.867,5.457,5.457,0,0,0,6.357,4.8,43.028,43.028,0,0,0,4.9-9.548c1.239,2.093,2.7,4.289,3.161,6.677a17.253,17.253,0,0,0,7.57-11.546,36.259,36.259,0,0,1-2.3,17.367,9.956,9.956,0,0,0,3.65-5.256,13.66,13.66,0,0,1,2.421,8.172,15.785,15.785,0,0,0,4.553-10.594,24.818,24.818,0,0,1,3.971,14.374,12.392,12.392,0,0,0,3.3-10.488c-.452-.3-.59-.441-1.041-.743a14.851,14.851,0,0,0-.161-14.064c2.8,3.685,4.193,9.04,2.714,13.426a31.884,31.884,0,0,1,3.762,6.964,19.814,19.814,0,0,0,2-7.735,3.008,3.008,0,0,0-.26-1.661Z" transform="translate(-442.708 -384.18)" fill="#682e07"/>
      <g id="Group_1217" data-name="Group 1217" transform="translate(69.546 2.376)">
        <path id="Path_2512" data-name="Path 2512" d="M701.906,327.726a7.277,7.277,0,0,1-3.254,6.333c-.2-2.338-.144-5.053-.342-7.39-1.077,2.061-2.52,3.553-3.6,5.615a15.251,15.251,0,0,0-.259-9.844,18.015,18.015,0,0,1-12.421,5.471c-.168,0-.336,0-.5-.011a18.346,18.346,0,0,1-7.762,2.324,15.663,15.663,0,0,0,10.141,1.12c3.378-.772,7.069-2.436,9.238-5.141a10.034,10.034,0,0,1-2.49,7.028,9.271,9.271,0,0,1-6.221,3.522,7.511,7.511,0,0,0,7.243.922c2.354-.973,4.727-3.218,5.088-5.738a16.661,16.661,0,0,1-3.825,12.624c.793,1.759,3.047,2.922,4.909,3.432,2.209-4.057,3.277-8.669,1.967-13.1,1.783,5.485,2.653,12.046,1.331,17.66a8.64,8.64,0,0,0,3.982-3.278c-.732,2.864-3.311,5.4-5.847,6.925a12.069,12.069,0,0,1,5.732,7.843c2.78-3.484,3.514-8.51,2.794-12.909-.875-5.359-4.435-10.107-4.681-15.53a22.358,22.358,0,0,1,.362-4.5q-.783-1.683-1.587-3.378Z" transform="translate(-660.14 -298.346)" fill="#682e07"/>
        <path id="Path_2513" data-name="Path 2513" d="M635.955,301.081c-.258-.041-.521-.079-.786-.117a21.226,21.226,0,0,1-6.329-.081,31.707,31.707,0,0,0,19.6,2.7,34.853,34.853,0,0,0,4.944-3.516,41.329,41.329,0,0,1-17.424,1.011Z" transform="translate(-622.318 -279.515)" fill="#682e07"/>
        <path id="Path_2514" data-name="Path 2514" d="M594.644,178.289a46.118,46.118,0,0,0,20.626,8.441,4.548,4.548,0,0,0,.805-.489c.658-.516,1.023-.839.973-1.674A51.222,51.222,0,0,1,590.8,173.458a16.536,16.536,0,0,1-3.177-3.308C588.694,173.417,591.862,176.32,594.644,178.289Z" transform="translate(-587.62 -170.15)" fill="#682e07"/>
      </g>
    </g>
  </g>
</svg>
