<svg xmlns="http://www.w3.org/2000/svg" width="147.488" height="136.004" viewBox="0 0 147.488 136.004">
  <g id="Group_3963" data-name="Group 3963" transform="translate(-361.925 -5210.056)">
    <rect id="Rectangle_160" data-name="Rectangle 160" width="38.375" height="14.124" transform="translate(386.533 5307.483)"/>
    <rect id="Rectangle_161" data-name="Rectangle 161" width="0.515" transform="translate(376.141 5283.062)" fill="none"/>
    <g id="Group_880" data-name="Group 880" transform="translate(394.541 5316.404)">
      <g id="Group_879" data-name="Group 879" transform="translate(0 4.052)">
        <g id="Group_873" data-name="Group 873" transform="translate(0 0.408)">
          <path id="Path_810" data-name="Path 810" d="M311.509,844.6a2.417,2.417,0,0,1-2.579-2.579v-1.3a2.385,2.385,0,0,1,1.734-2.468v-7.945a2.384,2.384,0,0,1-1.734-2.469v-1.3a2.417,2.417,0,0,1,2.579-2.579h9.63a2.4,2.4,0,0,1,2.579,2.481v3.66a2.443,2.443,0,0,1-1.154,2.225,3.173,3.173,0,0,1,.094.785V834.7a2.417,2.417,0,0,1-2.579,2.579h-2.02v.9a2.383,2.383,0,0,1,2.095,2.545v1.3a2.417,2.417,0,0,1-2.579,2.579h-6.066Z" transform="translate(-306.856 -821.888)" fill="#fff"/>
          <path id="Path_811" data-name="Path 811" d="M310.453,815.356c.385,0,.505.049.505.409v3.66c0,.434-.12.506-.505.506h-1.589c-.409,0-.505-.073-.505-.506v-1.469H305.3v3.973h4.094c.434,0,.505.073.505.505v1.589c0,.434-.1.506-.505.506H305.3v5.008h1.589c.41,0,.505.071.505.505v1.3c0,.434-.1.506-.505.506h-6.066c-.41,0-.505-.072-.505-.506v-1.3c0-.434.1-.505.505-.505h1.229v-11.87h-1.229c-.41,0-.505-.071-.505-.505v-1.3c0-.434.1-.506.505-.506h9.63m0-4.147h-9.63a4.481,4.481,0,0,0-4.653,4.651v1.3a4.561,4.561,0,0,0,1.375,3.406,4.485,4.485,0,0,0,.359.31v5.447a4.679,4.679,0,0,0-.359.31,4.565,4.565,0,0,0-1.375,3.406v1.3a4.481,4.481,0,0,0,4.653,4.651h6.066a4.479,4.479,0,0,0,4.651-4.651v-1.3a5.036,5.036,0,0,0-.28-1.7,4.358,4.358,0,0,0,1.409-.908,4.565,4.565,0,0,0,1.375-3.406v-1.54a4.7,4.7,0,0,0,1.06-3.057v-3.66a4.49,4.49,0,0,0-1.807-3.687,4.7,4.7,0,0,0-2.844-.869Z" transform="translate(-296.17 -811.21)"/>
        </g>
        <g id="Group_874" data-name="Group 874" transform="translate(12.185 0.408)">
          <path id="Path_812" data-name="Path 812" d="M386.479,844.6a2.417,2.417,0,0,1-2.579-2.579v-1.3a2.385,2.385,0,0,1,1.734-2.468v-7.945a2.384,2.384,0,0,1-1.734-2.469v-1.3a2.417,2.417,0,0,1,2.579-2.579h5.706a2.417,2.417,0,0,1,2.579,2.579v1.3a2.385,2.385,0,0,1-1.734,2.469v7.945a2.383,2.383,0,0,1,1.734,2.468v1.3a2.417,2.417,0,0,1-2.579,2.579Z" transform="translate(-381.828 -821.888)" fill="#fff"/>
          <path id="Path_813" data-name="Path 813" d="M381.507,815.356c.41,0,.505.073.505.505v1.3c0,.434-.1.505-.505.505h-1.229v11.87h1.229c.41,0,.505.071.505.505v1.3c0,.434-.1.506-.505.506H375.8c-.409,0-.505-.072-.505-.506v-1.3c0-.434.1-.505.505-.505h1.229v-11.87H375.8c-.409,0-.505-.071-.505-.505v-1.3c0-.434.1-.505.505-.505h5.706m0-4.146H375.8a4.482,4.482,0,0,0-4.651,4.653v1.3a4.561,4.561,0,0,0,1.375,3.406,4.642,4.642,0,0,0,.359.311v5.447a4.638,4.638,0,0,0-.359.31,4.565,4.565,0,0,0-1.375,3.406v1.3a4.481,4.481,0,0,0,4.653,4.651h5.706a4.481,4.481,0,0,0,4.653-4.651v-1.3a4.49,4.49,0,0,0-1.734-3.716v-5.447a4.494,4.494,0,0,0,1.734-3.717v-1.3a4.484,4.484,0,0,0-4.654-4.653Z" transform="translate(-371.15 -811.21)"/>
        </g>
        <g id="Group_875" data-name="Group 875" transform="translate(21.139)">
          <path id="Path_814" data-name="Path 814" d="M446.043,842.908a15.178,15.178,0,0,1-3.7-.494c-1.52-.414-3.33-1.31-3.33-3.216v-3.635a2.353,2.353,0,0,1,1.983-2.441,5.871,5.871,0,0,1-1.958-4.687c0-4.178,2.961-6.984,7.37-6.984,2.207,0,6.384.765,6.384,3.661v3.25a2.358,2.358,0,0,1-1.615,2.35,6.786,6.786,0,0,1,2.145,5.041A6.979,6.979,0,0,1,446.043,842.908Zm-.286-6.754c.063,0,.127.007.19.007.033,0,.063,0,.088,0,0-.039,0-.084,0-.14a.335.335,0,0,0,0-.042,1.355,1.355,0,0,0-.283-.209v.388Z" transform="translate(-436.936 -819.378)" fill="#fff"/>
          <path id="Path_815" data-name="Path 815" d="M435.718,812.846c1.685,0,4.31.626,4.31,1.589v3.25c0,.336-.1.41-.41.41h-1.781c-.336,0-.41-.073-.41-.41v-1.926a4.415,4.415,0,0,0-1.614-.314c-1.108,0-2.264.434-2.264,1.879,0,1.83,2.816,2.166,4.936,3.731a4.788,4.788,0,0,1,2.07,4.02,4.9,4.9,0,0,1-5.2,5.08c-1.805,0-4.96-.578-4.96-1.636v-3.635c0-.313.072-.409.41-.409h1.781c.336,0,.41.072.41.409v2.191a6.686,6.686,0,0,0,2.264.481,1.969,1.969,0,0,0,2.166-2.215c0-2.143-2.456-2.359-4.911-3.851a3.866,3.866,0,0,1-2.095-3.732c0-3.468,2.506-4.912,5.3-4.912m0-4.146c-5.56,0-9.443,3.725-9.443,9.057a8.57,8.57,0,0,0,.995,4.175,4.527,4.527,0,0,0-1.019,2.953v3.635a4.962,4.962,0,0,0,2.464,4.215,8.814,8.814,0,0,0,2.392,1,17.081,17.081,0,0,0,4.25.567,9.438,9.438,0,0,0,6.616-2.555,9.146,9.146,0,0,0,2.732-6.671,8.844,8.844,0,0,0-1.315-4.749,4.561,4.561,0,0,0,.785-2.642v-3.25c0-1.112-.429-3.833-4.407-5.1a13.938,13.938,0,0,0-4.048-.632Z" transform="translate(-426.25 -808.7)"/>
        </g>
        <g id="Group_876" data-name="Group 876" transform="translate(33.132 0.408)">
          <path id="Path_816" data-name="Path 816" d="M515.379,844.6a2.417,2.417,0,0,1-2.579-2.579v-1.3a2.384,2.384,0,0,1,1.734-2.468v-7.945a2.384,2.384,0,0,1-1.734-2.469v-1.3a2.417,2.417,0,0,1,2.579-2.579h5.706a2.417,2.417,0,0,1,2.579,2.579v1.3a2.385,2.385,0,0,1-1.734,2.469v7.945a2.383,2.383,0,0,1,1.734,2.468v1.3a2.417,2.417,0,0,1-2.579,2.579Z" transform="translate(-510.728 -821.888)" fill="#fff"/>
          <path id="Path_817" data-name="Path 817" d="M510.407,815.356c.409,0,.505.073.505.505v1.3c0,.434-.1.505-.505.505h-1.229v11.87h1.229c.409,0,.505.071.505.505v1.3c0,.434-.1.506-.505.506H504.7c-.41,0-.505-.072-.505-.506v-1.3c0-.434.1-.505.505-.505h1.228v-11.87H504.7c-.41,0-.505-.071-.505-.505v-1.3c0-.434.1-.505.505-.505h5.706m0-4.146H504.7a4.482,4.482,0,0,0-4.651,4.653v1.3a4.561,4.561,0,0,0,1.375,3.406,4.636,4.636,0,0,0,.359.311v5.447a4.632,4.632,0,0,0-.359.31,4.564,4.564,0,0,0-1.375,3.406v1.3a4.481,4.481,0,0,0,4.653,4.651h5.706a4.479,4.479,0,0,0,4.651-4.651v-1.3a4.561,4.561,0,0,0-1.375-3.406,4.623,4.623,0,0,0-.359-.31v-5.447a4.627,4.627,0,0,0,.359-.311,4.564,4.564,0,0,0,1.375-3.406v-1.3a4.482,4.482,0,0,0-4.653-4.653Z" transform="translate(-500.05 -811.21)"/>
        </g>
        <g id="Group_877" data-name="Group 877" transform="translate(41.895)">
          <path id="Path_818" data-name="Path 818" d="M575.328,842.916c-3.921,0-8.6-1.838-8.6-10.6a13.032,13.032,0,0,1,2-7.677,7.69,7.69,0,0,1,6.549-3.184,10.524,10.524,0,0,1,3.351.582c1.034.369,2.766,1.26,2.766,3.081v3.226a2.374,2.374,0,0,1-2.481,2.481h-1.781a2.33,2.33,0,0,1-2.468-2.184,8.552,8.552,0,0,0-.371,3.049,12.014,12.014,0,0,0,.459,3.98,1.888,1.888,0,0,0,.092.192,2.369,2.369,0,0,1,2.482-2.392h1.781a2.376,2.376,0,0,1,2.483,2.483v3.491C581.59,842.185,577.654,842.916,575.328,842.916Z" transform="translate(-564.656 -819.386)" fill="#fff"/>
          <path id="Path_819" data-name="Path 819" d="M564.593,812.846c1.685,0,4.045.7,4.045,1.589v3.226c0,.336-.1.409-.41.409h-1.781c-.336,0-.409-.071-.409-.409v-2a3.828,3.828,0,0,0-1.276-.216c-2.24,0-3.226,1.42-3.226,5.561,0,4.116.554,6.549,3.419,6.549a5.762,5.762,0,0,0,1.276-.12v-2.166c0-.314.071-.41.41-.41h1.781c.337,0,.41.1.41.41v3.491c0,.746-2.143,1.4-4.189,1.4-4.43,0-6.525-2.745-6.525-8.524,0-5.537,2.142-8.787,6.476-8.787m0-4.146a9.811,9.811,0,0,0-8.234,4.05,15.025,15.025,0,0,0-2.389,8.884c0,3.862.8,6.788,2.454,8.948a9.8,9.8,0,0,0,8.216,3.722,13.817,13.817,0,0,0,4.138-.619c3.79-1.225,4.2-3.851,4.2-4.922v-3.491a4.494,4.494,0,0,0-1.222-3.182,4.4,4.4,0,0,0-.839-.687,4.28,4.28,0,0,0,.494-.406,4.46,4.46,0,0,0,1.375-3.333v-3.226c0-1.069-.4-3.7-4.142-5.033a12.449,12.449,0,0,0-4.048-.7Z" transform="translate(-553.97 -808.7)"/>
        </g>
        <g id="Group_878" data-name="Group 878" transform="translate(53.813 0.408)">
          <path id="Path_820" data-name="Path 820" d="M651.075,844.609a2.877,2.877,0,0,0-3.659,0h-4.766a2.417,2.417,0,0,1-2.579-2.579v-1.3a2.382,2.382,0,0,1,1.732-2.467l3.795-12.425a2.393,2.393,0,0,1,2.517-1.867h2.5a2.419,2.419,0,0,1,2.519,1.875l3.7,12.393a2.38,2.38,0,0,1,1.827,2.493v1.3a2.417,2.417,0,0,1-2.579,2.579h-5.008Z" transform="translate(-637.996 -821.896)" fill="#fff"/>
          <path id="Path_821" data-name="Path 821" d="M639.932,815.356c.385,0,.434.049.53.385l4.116,13.8h.819c.409,0,.505.071.505.505v1.3c0,.434-.1.506-.505.506h-5.008c-.41,0-.505-.072-.505-.506v-1.3c0-.434.1-.505.505-.505h.77l-.554-2.095h-4.141l-.53,2.095h.795c.409,0,.505.071.505.505v1.3c0,.434-.1.506-.505.506h-4.766c-.41,0-.506-.072-.506-.506v-1.3c0-.434.1-.505.506-.505h.721l4.214-13.8c.1-.336.12-.385.53-.385h2.5m-3.106,9.919h3.179l-.986-4.141a25.221,25.221,0,0,1-.53-3.37h-.049a25.9,25.9,0,0,1-.554,3.37l-1.06,4.141m3.106-14.065h-2.5a4.639,4.639,0,0,0-2.938.948,4.539,4.539,0,0,0-1.568,2.408l-3.515,11.507a4.4,4.4,0,0,0-.722.562,4.566,4.566,0,0,0-1.375,3.408v1.3A4.481,4.481,0,0,0,631.961,836h4.766a5.386,5.386,0,0,1,3.66,0H645.4a4.479,4.479,0,0,0,4.651-4.651v-1.3a4.562,4.562,0,0,0-1.375-3.406,4.42,4.42,0,0,0-.821-.623l-3.414-11.442a4.48,4.48,0,0,0-4.5-3.364Z" transform="translate(-627.31 -811.21)"/>
        </g>
      </g>
    </g>
    <g id="Group_897" data-name="Group 897" transform="translate(353.785 5277.164)">
      <rect id="Rectangle_162" data-name="Rectangle 162" width="122.754" height="27.948" transform="translate(18.794 10.268)"/>
      <g id="Group_887" data-name="Group 887" transform="translate(8.14 5.321)">
        <g id="Group_881" data-name="Group 881" transform="translate(0 0.801)">
          <path id="Path_822" data-name="Path 822" d="M115.02,629.112a2.761,2.761,0,0,1-3.062-3.061v-2.542a2.761,2.761,0,0,1,3.062-3.062h1.034V606.439c-.033.036-.068.072-.1.106a2.874,2.874,0,0,1-2.059.725h-2.777a2.64,2.64,0,0,1-2.873-2.873v-8.8a2.637,2.637,0,0,1,2.873-2.873H131.5a2.658,2.658,0,0,1,2.873,2.873v8.8a2.658,2.658,0,0,1-2.873,2.873h-2.777a2.872,2.872,0,0,1-2.113-.761c-.018-.018-.034-.034-.05-.052v13.991h1.034a2.761,2.761,0,0,1,3.062,3.062v2.542a2.762,2.762,0,0,1-3.062,3.062H115.02Z" transform="translate(-106.165 -590.648)" fill="#fff"/>
          <path id="Path_823" data-name="Path 823" d="M120.8,584.116c.613,0,.8.141.8.8v8.8c0,.66-.188.8-.8.8h-2.777c-.66,0-.8-.141-.8-.8V589.2h-3.437v22.644h3.107c.8,0,.988.141.988.988v2.541c0,.847-.189.988-.988.988H104.325c-.8,0-.988-.141-.988-.988v-2.541c0-.847.188-.988.988-.988h3.107V589.2H104v4.519c0,.66-.189.8-.8.8h-2.777c-.66,0-.8-.141-.8-.8v-8.8c0-.658.141-.8.8-.8H120.8m0-4.146H100.417a4.694,4.694,0,0,0-4.947,4.945v8.8a4.691,4.691,0,0,0,4.945,4.945h2.87v9.1a4.787,4.787,0,0,0-2.626,1.261,5.085,5.085,0,0,0-1.469,3.8v2.542a6.239,6.239,0,0,0,.146,1.433,4.719,4.719,0,0,0,1.323,2.37,5.14,5.14,0,0,0,3.666,1.331h12.568a5.14,5.14,0,0,0,3.666-1.331,5.086,5.086,0,0,0,1.469-3.8v-2.542a6.24,6.24,0,0,0-.146-1.433,4.655,4.655,0,0,0-3.949-3.63v-9.1H120.8a4.719,4.719,0,0,0,4.947-4.947v-8.8a4.832,4.832,0,0,0-1.458-3.65,4.882,4.882,0,0,0-3.491-1.3Z" transform="translate(-95.47 -579.97)" fill="#010202"/>
        </g>
        <g id="Group_882" data-name="Group 882" transform="translate(24.384 0.801)">
          <path id="Path_824" data-name="Path 824" d="M261.342,629.112a2.762,2.762,0,0,1-3.062-3.062v-2.542a2.762,2.762,0,0,1,3.062-3.062h.328V601.385h-.328a2.761,2.761,0,0,1-3.062-3.062v-2.542a2.762,2.762,0,0,1,3.062-3.062H272.5a2.762,2.762,0,0,1,3.062,3.062v2.542a2.761,2.761,0,0,1-3.062,3.062h-.328v19.062h.328a2.762,2.762,0,0,1,3.062,3.062v2.542a2.762,2.762,0,0,1-3.062,3.062Z" transform="translate(-256.206 -590.648)" fill="#fff"/>
          <path id="Path_825" data-name="Path 825" d="M261.811,584.116c.8,0,.988.141.988.988v2.542c0,.847-.189.988-.988.988h-2.4v23.209h2.4c.8,0,.988.141.988.988v2.541c0,.847-.189.988-.988.988H250.655c-.8,0-.988-.141-.988-.988v-2.541c0-.847.189-.988.988-.988h2.4V588.635h-2.4c-.8,0-.988-.141-.988-.988v-2.541c0-.847.189-.988.988-.988h11.156m0-4.147H250.655a5.139,5.139,0,0,0-3.666,1.331,5.085,5.085,0,0,0-1.469,3.8v2.542a6.249,6.249,0,0,0,.146,1.433,4.722,4.722,0,0,0,1.323,2.37,4.634,4.634,0,0,0,1.921,1.1v15.369a4.651,4.651,0,0,0-1.921,1.1,5.086,5.086,0,0,0-1.469,3.8v2.542a6.245,6.245,0,0,0,.146,1.433,4.72,4.72,0,0,0,1.323,2.37,5.14,5.14,0,0,0,3.666,1.331h11.156a5.139,5.139,0,0,0,3.666-1.331,5.086,5.086,0,0,0,1.469-3.8v-2.542a6.238,6.238,0,0,0-.146-1.433,4.719,4.719,0,0,0-1.323-2.37,4.631,4.631,0,0,0-1.921-1.1V592.553a4.646,4.646,0,0,0,1.921-1.1,5.086,5.086,0,0,0,1.469-3.8V585.1a6.238,6.238,0,0,0-.146-1.433,4.716,4.716,0,0,0-1.323-2.37,5.139,5.139,0,0,0-3.666-1.331Z" transform="translate(-245.52 -579.97)" fill="#010202"/>
        </g>
        <g id="Group_883" data-name="Group 883" transform="translate(41.142)">
          <path id="Path_826" data-name="Path 826" d="M376.089,625.793c-4.84,0-8.559-1.656-11.06-4.919-2.441-3.188-3.629-7.738-3.629-13.912,0-6.019,1.206-10.714,3.585-13.955,2.537-3.455,6.273-5.207,11.1-5.207,2.8,0,10.782.978,10.782,5.321v6.073A2.64,2.64,0,0,1,384,602.067h-3.484a2.615,2.615,0,0,1-2.873-2.873v-2.017a5.165,5.165,0,0,0-1.128-.148c-1.28,0-4.282,0-4.282,9.6,0,9.164,2.091,9.931,4.235,9.931a5.843,5.843,0,0,0,1.316-.148v-3.85h-1.458a2.761,2.761,0,0,1-3.062-3.062V606.96a2.762,2.762,0,0,1,3.062-3.062h11.486a2.762,2.762,0,0,1,3.062,3.062V609.5a2.761,2.761,0,0,1-3.062,3.062h-.234v7.484C387.577,624.431,379.156,625.793,376.089,625.793Z" transform="translate(-359.326 -585.726)" fill="#fff"/>
          <path id="Path_827" data-name="Path 827" d="M365.4,579.186c3.624,0,8.709,1.318,8.709,3.249v6.073c0,.66-.141.8-.8.8h-3.484c-.707,0-.8-.141-.8-.8V584.93a10.773,10.773,0,0,0-3.2-.66c-4.8,0-6.356,4.519-6.356,11.675,0,7.344,1.224,12,6.309,12a8.059,8.059,0,0,0,3.39-.753v-7.391h-3.531c-.8,0-.988-.141-.988-.988v-2.542c0-.847.188-.988.988-.988h11.486c.8,0,.988.141.988.988v2.542c0,.847-.188.988-.988.988h-2.306v9.556c0,1.978-5.554,3.671-9.414,3.671-8.285,0-12.615-5.366-12.615-16.758,0-11.158,4.282-17.089,12.614-17.089m0-4.146c-5.451,0-9.867,2.093-12.775,6.053-2.646,3.6-3.988,8.712-3.988,15.181,0,6.647,1.326,11.61,4.056,15.172a13.961,13.961,0,0,0,5.59,4.373,17.808,17.808,0,0,0,7.116,1.359,23.666,23.666,0,0,0,7.553-1.337,13.058,13.058,0,0,0,3.424-1.758,5.855,5.855,0,0,0,2.582-4.721V603.7a4.612,4.612,0,0,0,1.827-1.076,5.085,5.085,0,0,0,1.469-3.8v-2.542a6.237,6.237,0,0,0-.146-1.433,4.72,4.72,0,0,0-1.323-2.37,4.939,4.939,0,0,0-3.182-1.32,5.209,5.209,0,0,0,.65-2.644v-6.073a5.721,5.721,0,0,0-2.529-4.653,11.776,11.776,0,0,0-3.309-1.63,23.49,23.49,0,0,0-7.017-1.115Zm-1.453,16.309a8.116,8.116,0,0,1,.622-2.106,2.469,2.469,0,0,1,.31-.51,5.093,5.093,0,0,0,.627,2.407,5.911,5.911,0,0,0-1.56.21Z" transform="translate(-348.64 -575.04)" fill="#010202"/>
        </g>
        <g id="Group_884" data-name="Group 884" transform="translate(66.609 0.801)">
          <path id="Path_828" data-name="Path 828" d="M539.625,629.112a2.8,2.8,0,0,1-2.878-1.693l-.044-.083-1.5-2.992v1.706a2.761,2.761,0,0,1-3.061,3.061H521.172a2.762,2.762,0,0,1-3.062-3.061v-2.542a2.762,2.762,0,0,1,3.062-3.062h.328V601.385h-.328a2.762,2.762,0,0,1-3.062-3.062v-2.541a2.761,2.761,0,0,1,3.062-3.061h11.015a17.347,17.347,0,0,1,7.784,1.449c4.345,2.212,5.257,6.5,5.257,9.708,0,5.437-2.537,8.083-4.608,9.477l4.066,7.09h.965a2.762,2.762,0,0,1,3.062,3.062v2.542a2.762,2.762,0,0,1-3.062,3.062h-6.026Zm-7.485-8.665a4.092,4.092,0,0,1,1.185.159L532,617.965v2.48h.14ZM532,606.684a4.462,4.462,0,0,0,2.006-.432c.179-.114.721-.462.721-2.278,0-1.516-.442-1.765-.588-1.846A5.279,5.279,0,0,0,532,601.81Z" transform="translate(-516.036 -590.648)" fill="#fff"/>
          <path id="Path_829" data-name="Path 829" d="M521.5,584.116c3.624,0,10.968.235,10.968,9.086,0,6.073-3.624,7.815-5.366,8.709l5.7,9.933h2.167c.8,0,.988.141.988.988v2.541c0,.847-.188.988-.988.988h-6.026c-.753,0-.753-.047-1.082-.659L521.5,603.038h-2.259v8.8h2.213c.8,0,.988.142.988.988v2.542c0,.847-.188.988-.988.988H510.487c-.8,0-.988-.141-.988-.988v-2.542c0-.847.189-.988.988-.988h2.4V588.635h-2.4c-.8,0-.988-.141-.988-.988v-2.541c0-.847.189-.988.988-.988H521.5m-2.26,13.979h1.224c3.06,0,5.649-.471,5.649-4.8,0-4.1-2.683-4.237-5.132-4.237h-1.742V598.1M521.5,579.97H510.485a5.139,5.139,0,0,0-3.666,1.331,5.085,5.085,0,0,0-1.469,3.8v2.542a6.254,6.254,0,0,0,.146,1.433,4.72,4.72,0,0,0,1.323,2.37,4.633,4.633,0,0,0,1.921,1.1v15.369a4.65,4.65,0,0,0-1.921,1.1,5.085,5.085,0,0,0-1.469,3.8v2.542a6.25,6.25,0,0,0,.146,1.433,4.718,4.718,0,0,0,1.323,2.37,5.14,5.14,0,0,0,3.666,1.331h10.968a5.139,5.139,0,0,0,3.666-1.331l.08-.078a4.525,4.525,0,0,0,.92.726,5.191,5.191,0,0,0,2.82.683h6.026a4.819,4.819,0,0,0,5.135-5.135v-2.542a6.312,6.312,0,0,0-.145-1.431,4.717,4.717,0,0,0-1.323-2.37A5.021,5.021,0,0,0,535.2,607.7l-2.582-4.5a11.713,11.713,0,0,0,1.059-1.109,13.418,13.418,0,0,0,2.937-8.886,14.142,14.142,0,0,0-1.776-7.256,11.094,11.094,0,0,0-4.613-4.3,19.244,19.244,0,0,0-8.727-1.672Z" transform="translate(-505.35 -579.97)" fill="#010202"/>
        </g>
        <g id="Group_885" data-name="Group 885" transform="translate(94.474 0.801)">
          <path id="Path_830" data-name="Path 830" d="M692.642,629.112a2.761,2.761,0,0,1-3.062-3.062v-2.542a2.761,2.761,0,0,1,3.062-3.062h.328V601.385h-.328a2.761,2.761,0,0,1-3.062-3.062v-2.542a2.761,2.761,0,0,1,3.062-3.062h18.83a3.242,3.242,0,0,1,2,.535,2.717,2.717,0,0,1,1.061,2.338v7.155a2.787,2.787,0,0,1-3.061,3.062h-.632a2.709,2.709,0,0,1,1.623,2.823v3.107A2.762,2.762,0,0,1,709.4,614.8h-5.93v5.08H705.3v-1.222a2.745,2.745,0,0,1,3.062-3.062h3.107a2.738,2.738,0,0,1,3.062,3.062v7.391a2.741,2.741,0,0,1-3.014,3.062Zm14.309-23.541a2.735,2.735,0,0,1-1.648-2.823v-.8h-1.833v3.62h3.481Z" transform="translate(-687.506 -590.648)" fill="#fff"/>
          <path id="Path_831" data-name="Path 831" d="M700.785,584.116c.753,0,.988.094.988.8v7.155c0,.847-.236.988-.988.988h-3.107c-.8,0-.988-.141-.988-.988V589.2h-5.978v7.768h8c.847,0,.988.141.988.988v3.107c0,.847-.188.988-.988.988h-8v9.227h5.978v-3.3c0-.8.094-.988.988-.988h3.107c.847,0,.988.141.988.988v7.391c0,.847-.141.988-.941.988H681.955c-.8,0-.988-.141-.988-.988v-2.541c0-.847.189-.989.988-.989h2.4V588.635h-2.4c-.8,0-.988-.141-.988-.988v-2.541c0-.847.189-.988.988-.988h18.83m0-4.147h-18.83a5.139,5.139,0,0,0-3.666,1.331,5.085,5.085,0,0,0-1.469,3.8v2.542a6.24,6.24,0,0,0,.146,1.433,4.72,4.72,0,0,0,1.323,2.37,4.647,4.647,0,0,0,1.921,1.1v15.369a4.651,4.651,0,0,0-1.921,1.1,5.086,5.086,0,0,0-1.469,3.8v2.542a6.236,6.236,0,0,0,.146,1.433,4.719,4.719,0,0,0,1.323,2.37,5.14,5.14,0,0,0,3.666,1.331h18.877a5.026,5.026,0,0,0,3.763-1.454,5.1,5.1,0,0,0,1.323-3.681v-7.391a5.132,5.132,0,0,0-1.391-3.744,4.486,4.486,0,0,0-1.129-.824,5.647,5.647,0,0,0,.449-2.352v-3.107a6.263,6.263,0,0,0-.158-1.5,4.588,4.588,0,0,0,.684-.523,5.016,5.016,0,0,0,1.545-3.858v-7.152a4.778,4.778,0,0,0-1.911-4.013,5.251,5.251,0,0,0-3.223-.933Z" transform="translate(-676.82 -579.97)" fill="#010202"/>
        </g>
        <g id="Group_886" data-name="Group 886" transform="translate(119.33)">
          <path id="Path_832" data-name="Path 832" d="M854.291,625.8a27.479,27.479,0,0,1-6.718-.9c-3.352-.915-5.052-2.387-5.052-4.377V613.42a2.665,2.665,0,0,1,2.873-2.873h3.484a2.64,2.64,0,0,1,2.873,2.873v2.79a8.532,8.532,0,0,0,2.351.362c1.6,0,2.163-.591,2.163-2.257,0-1.273-.53-1.858-4.254-3.549a39.413,39.413,0,0,1-4.352-2.212,9.637,9.637,0,0,1-5.091-9.068c0-7.093,4.879-11.676,12.429-11.676,2.723,0,10.5.952,10.5,5.179v6.356a2.665,2.665,0,0,1-2.873,2.873h-3.484a2.64,2.64,0,0,1-2.873-2.873v-2.212a6.278,6.278,0,0,0-1.081-.094c-2.351,0-2.351,1.081-2.351,1.6,0,.9,1.233,1.588,3.85,2.837a29.491,29.491,0,0,1,4.958,2.792,11.388,11.388,0,0,1,4.89,9.529,11.911,11.911,0,0,1-3.494,8.7A12.466,12.466,0,0,1,854.291,625.8Z" transform="translate(-840.448 -585.735)" fill="#fff"/>
          <path id="Path_833" data-name="Path 833" d="M844.319,579.186c3.3,0,8.426,1.224,8.426,3.107v6.356c0,.66-.188.8-.8.8h-3.484c-.66,0-.8-.142-.8-.8v-3.765a8.61,8.61,0,0,0-3.154-.613c-2.166,0-4.425.847-4.425,3.671,0,3.577,5.508,4.236,9.65,7.3a9.367,9.367,0,0,1,4.048,7.862c0,5.979-4.236,9.932-10.168,9.932-3.531,0-9.7-1.129-9.7-3.2v-7.108c0-.613.141-.8.8-.8H838.2c.66,0,.8.141.8.8v4.284a13.048,13.048,0,0,0,4.425.941c2.636,0,4.237-1.412,4.237-4.331,0-4.189-4.8-4.614-9.6-7.532a7.559,7.559,0,0,1-4.1-7.3c0-6.777,4.9-9.6,10.357-9.6m0-4.146a15.348,15.348,0,0,0-9.845,3.192c-2.124,1.731-4.658,4.968-4.658,10.558a11.587,11.587,0,0,0,3.715,9.1,4.568,4.568,0,0,0-2.465,1.344,4.876,4.876,0,0,0-1.3,3.489v7.108a5.686,5.686,0,0,0,2.963,4.887,13.371,13.371,0,0,0,3.617,1.49,29.694,29.694,0,0,0,7.264.97,14.523,14.523,0,0,0,10.186-3.885,13.961,13.961,0,0,0,4.128-10.193,13.347,13.347,0,0,0-4.1-9.811,4.515,4.515,0,0,0,1.61-.991,4.828,4.828,0,0,0,1.456-3.65v-6.356a5.642,5.642,0,0,0-2.594-4.656,11.909,11.909,0,0,0-3.268-1.554,23.332,23.332,0,0,0-6.71-1.043Zm-1.173,28.754v-.5a2.152,2.152,0,0,1,.369.283c0,.013,0,.028,0,.044,0,.068,0,.13,0,.184h-.086c-.094,0-.187,0-.28-.008Z" transform="translate(-829.77 -575.04)" fill="#010202"/>
        </g>
      </g>
      <g id="Group_896" data-name="Group 896" transform="translate(10.402 9.466)">
        <g id="Group_890" data-name="Group 890" transform="translate(0 0.801)">
          <path id="Path_834" data-name="Path 834" d="M122.376,606.151h0m19.215.71v7.64h-1.614v-3.937a1.381,1.381,0,0,0-1.381-1.381h-3.437a1.381,1.381,0,0,0-1.381,1.381v22.644a1.381,1.381,0,0,0,1.381,1.381h2.714v1.755H126.091v-1.755h2.714a1.381,1.381,0,0,0,1.381-1.381V610.563a1.381,1.381,0,0,0-1.381-1.381h-3.437a1.381,1.381,0,0,0-1.381,1.381V614.5h-1.614v-7.64h19.218m-2.325,7.636h0m3.014,0h0M126.1,633.981h0m16.072-28.5H121.79c-.66,0-.8.141-.8.8v8.8c0,.66.141.8.8.8h2.777c.613,0,.8-.141.8-.8v-4.519H128.8v22.644H125.7c-.8,0-.988.141-.988.988v2.541c0,.847.189.988.988.988h12.568c.8,0,.988-.141.988-.988V634.2c0-.847-.188-.988-.988-.988h-3.107V610.563h3.437v4.519c0,.66.141.8.8.8h2.777c.613,0,.8-.141.8-.8v-8.8c0-.658-.185-.8-.8-.8Z" transform="translate(-120.99 -605.48)" fill="#fff"/>
        </g>
        <g id="Group_891" data-name="Group 891" transform="translate(24.384 0.801)">
          <path id="Path_835" data-name="Path 835" d="M272.431,606.254h0m10.36.608v1.755h-2.007A1.381,1.381,0,0,0,279.4,610v23.209a1.381,1.381,0,0,0,1.381,1.381h2.007v1.755h-10.37v-1.755h2.007a1.381,1.381,0,0,0,1.381-1.381V610a1.381,1.381,0,0,0-1.381-1.381h-2.007v-1.755h10.37m-10.36,27.118h0m10.753-28.5H272.028c-.8,0-.988.141-.988.988v2.542c0,.847.189.988.988.988h2.4v23.209h-2.4c-.8,0-.988.141-.988.988v2.541c0,.847.189.988.988.988h11.156c.8,0,.988-.141.988-.988V634.2c0-.847-.188-.988-.988-.988h-2.4V610h2.4c.8,0,.988-.142.988-.988V606.47c0-.848-.187-.99-.988-.99Z" transform="translate(-271.04 -605.48)" fill="#fff"/>
        </g>
        <g id="Group_892" data-name="Group 892" transform="translate(41.142)">
          <path id="Path_836" data-name="Path 836" d="M386.776,601.933a18.285,18.285,0,0,1,4.856.7,5.012,5.012,0,0,1,2.472,1.229v5.43h-2.321v-3a1.382,1.382,0,0,0-.962-1.316,12.133,12.133,0,0,0-3.621-.725,6.565,6.565,0,0,0-6.219,3.929c-1.02,2.09-1.518,5.075-1.518,9.127,0,4.352.423,7.229,1.37,9.325a6.45,6.45,0,0,0,6.32,4.061,9.356,9.356,0,0,0,3.92-.858l.031-.013a1.383,1.383,0,0,0,.821-1.262v-7.391a1.381,1.381,0,0,0-1.381-1.381h-3.136v-1.755h10.7v1.755h-1.913a1.381,1.381,0,0,0-1.381,1.381v9.5c-.123.213-.822.848-2.75,1.476a18.122,18.122,0,0,1-5.283.876c-3.759,0-6.479-1.167-8.317-3.566-1.936-2.527-2.916-6.5-2.916-11.811,0-5.269.982-9.274,2.916-11.91,1.87-2.556,4.591-3.8,8.314-3.8m.637,15.492h0m-.637-16.875c-8.332,0-12.616,5.932-12.616,17.088,0,11.392,4.331,16.758,12.616,16.758,3.86,0,9.414-1.7,9.414-3.671v-9.555H398.5c.8,0,.988-.141.988-.988v-2.542c0-.847-.189-.988-.988-.988H387.009c-.8,0-.988.141-.988.988v2.542c0,.847.189.988.988.988h3.531v7.391a8.04,8.04,0,0,1-3.39.753c-5.083,0-6.309-4.661-6.309-12,0-7.155,1.554-11.675,6.356-11.675a10.773,10.773,0,0,1,3.2.66v3.577c0,.66.094.8.8.8h3.484c.66,0,.8-.141.8-.8V603.8c0-1.927-5.083-3.247-8.707-3.247Z" transform="translate(-374.16 -600.55)" fill="#fff"/>
        </g>
        <g id="Group_893" data-name="Group 893" transform="translate(66.609 0.801)">
          <path id="Path_837" data-name="Path 837" d="M532.259,606.254h0m10.613.608c4.979,0,9.586.933,9.586,7.7,0,5.114-2.826,6.562-4.516,7.428l-.1.052a1.38,1.38,0,0,0-.567,1.916l5.7,9.933a1.384,1.384,0,0,0,1.2.694h1.771v1.755H550.41l-6.3-12.56a1.382,1.382,0,0,0-1.235-.762h-2.259a1.381,1.381,0,0,0-1.381,1.381v8.8a1.381,1.381,0,0,0,1.381,1.381h1.819v1.755H532.25v-1.755h2.007a1.381,1.381,0,0,0,1.381-1.381V610a1.381,1.381,0,0,0-1.381-1.381H532.25v-1.755h10.623m-2.261,13.981h1.224a8.659,8.659,0,0,0,4.717-.995c1.536-.983,2.314-2.729,2.314-5.189,0-2.35-.791-3.985-2.355-4.861a8.414,8.414,0,0,0-4.158-.759h-1.742a1.381,1.381,0,0,0-1.381,1.381v9.039a1.382,1.382,0,0,0,1.381,1.383m-8.353,13.137h0m10.613-28.5H531.858c-.8,0-.988.141-.988.988v2.542c0,.847.188.988.988.988h2.4v23.209h-2.4c-.8,0-.988.141-.988.988v2.541c0,.847.188.988.988.988h10.967c.8,0,.988-.141.988-.988V634.2c0-.847-.188-.988-.988-.988h-2.213v-8.8h2.259l6.356,12.663c.33.612.33.66,1.082.66h6.026c.8,0,.988-.141.988-.988V634.2c0-.847-.189-.988-.988-.988h-2.166l-5.7-9.932c1.742-.894,5.366-2.636,5.366-8.709,0-8.852-7.342-9.088-10.966-9.088Zm-2.261,13.981v-9.037h1.742c2.447,0,5.132.141,5.132,4.237,0,4.331-2.589,4.8-5.649,4.8h-1.225Z" transform="translate(-530.87 -605.48)" fill="#fff"/>
        </g>
        <g id="Group_894" data-name="Group 894" transform="translate(94.474 0.801)">
          <path id="Path_838" data-name="Path 838" d="M703.731,606.254h0m18.034.608v6.18h-2.319v-2.478a1.381,1.381,0,0,0-1.381-1.381h-5.98a1.381,1.381,0,0,0-1.381,1.381v7.768a1.381,1.381,0,0,0,1.381,1.381h7.609v2.321h-7.609a1.381,1.381,0,0,0-1.381,1.381v9.227a1.381,1.381,0,0,0,1.381,1.381h5.978a1.381,1.381,0,0,0,1.381-1.381v-2.9h2.321v6.6H703.723v-1.755h2.007a1.381,1.381,0,0,0,1.381-1.381V610a1.381,1.381,0,0,0-1.381-1.381h-2.007v-1.755h18.042m-2.311,22.226h0m-15.723,4.892h0m18.427-28.5h-18.83c-.8,0-.988.141-.988.988v2.542c0,.847.188.988.988.988h2.4v23.209h-2.4c-.8,0-.988.141-.988.988v2.541c0,.847.188.988.988.988h18.877c.8,0,.941-.141.941-.988v-7.391c0-.847-.142-.988-.988-.988H719.05c-.894,0-.988.188-.988.988v3.3h-5.978v-9.227h8c.8,0,.988-.141.988-.988v-3.107c0-.847-.141-.988-.988-.988h-8v-7.768h5.978v2.871c0,.847.189.988.988.988h3.107c.752,0,.988-.142.988-.988v-7.155c0-.705-.234-.8-.988-.8Z" transform="translate(-702.34 -605.48)" fill="#fff"/>
        </g>
        <g id="Group_895" data-name="Group 895" transform="translate(119.328)">
          <path id="Path_839" data-name="Path 839" d="M865.684,601.933a18.21,18.21,0,0,1,4.57.645,5.33,5.33,0,0,1,2.473,1.165v5.688h-2.321v-3.183a1.381,1.381,0,0,0-.91-1.3l-.071-.026a9.866,9.866,0,0,0-3.556-.669c-3.582,0-5.806,1.937-5.806,5.054a4.7,4.7,0,0,0,2.012,3.813,20.158,20.158,0,0,0,3.806,2.142,26.477,26.477,0,0,1,4.389,2.449,7.987,7.987,0,0,1,3.492,6.754c0,5.114-3.531,8.551-8.787,8.551a24.383,24.383,0,0,1-5.288-.642c-2.067-.5-2.854-1.048-3.026-1.266v-6.437h2.321v3.7a1.383,1.383,0,0,0,.944,1.312c.083.028.181.062.291.1a13.425,13.425,0,0,0,4.571.91c3.519,0,5.618-2.135,5.618-5.712a5.38,5.38,0,0,0-2.077-4.362,18.866,18.866,0,0,0-4.2-2.332,36.7,36.7,0,0,1-3.99-2.02,6.214,6.214,0,0,1-3.427-6.114,7.652,7.652,0,0,1,2.621-6.273,9.924,9.924,0,0,1,6.354-1.95m7.732,7.495h0m-16.75,14.554h0m9.018-23.432c-5.46,0-10.357,2.824-10.357,9.6a7.559,7.559,0,0,0,4.1,7.3c4.8,2.919,9.6,3.343,9.6,7.532,0,2.919-1.6,4.331-4.237,4.331a13.052,13.052,0,0,1-4.425-.941v-4.284c0-.66-.141-.8-.8-.8H856.08c-.66,0-.8.189-.8.8V631.2c0,2.072,6.167,3.2,9.7,3.2,5.932,0,10.168-3.954,10.168-9.932A9.367,9.367,0,0,0,871.1,616.6c-4.142-3.06-9.65-3.718-9.65-7.3,0-2.824,2.259-3.671,4.425-3.671a8.612,8.612,0,0,1,3.154.612v3.765c0,.66.141.8.8.8h3.484c.613,0,.8-.141.8-.8v-6.356c0-1.882-5.13-3.107-8.426-3.107Z" transform="translate(-855.28 -600.55)" fill="#fff"/>
        </g>
      </g>
    </g>
    <g id="Group_899" data-name="Group 899" transform="translate(376.141 5210.056)">
      <path id="Path_840" data-name="Path 840" d="M228.624,230.081c-1.87-1.908-3.683.6-6.312.234s-2.831-2.516-3.941-.089c-.611,1.389-1.191,1.981-.47,3.333a12.418,12.418,0,0,1-3.778-.7,3.478,3.478,0,0,0,.741,2.166,3.591,3.591,0,0,0,2.093,1.149,9.961,9.961,0,0,1-8.371.629,2.43,2.43,0,0,0,1.222,2.018,21.122,21.122,0,0,1-8.205-.741c-2.537-.871-4.8-3.055-4.908-5.722a4.291,4.291,0,0,0-.426-2.444c-.408-.536-1.2-.686-1.723-1.149a1.875,1.875,0,0,1,.575-3.185,9.653,9.653,0,0,1-2.889-7.186,13.33,13.33,0,0,0,6.668,1.963,11.108,11.108,0,0,0-5.964-7.945,3.339,3.339,0,0,0,.315,2.316,25.926,25.926,0,0,1-7.835-4.094c-2.962-2.316-5.815-5.556-6.242-9.315a3.64,3.64,0,0,1-2.464-4.094c.223-1.074,2.384-4.15,4-5.647,3.417-3.764,10.318-7.336,11.3-7.742a3.872,3.872,0,0,1,3.075-.148c-.018-1.63.622-5.013,1.844-6.088a13.964,13.964,0,0,1,5.486-2.353c4.646-.98,8.268-3.435,12.689-4.126,8.478-1.326,16.106-6.081,23.632-11.008a10.866,10.866,0,0,1,1.185,9.167,143.069,143.069,0,0,0,15-2.334,36.259,36.259,0,0,0,9.094-3.148c.814,4.259-.245,13.844-2.449,17.548.648.666,10.875,8.416,14.091,15.346a99.667,99.667,0,0,1,5.984,17.034c3.422,12.8,3.946,17.962-.179,17.962-4.235,1.93-9.471-6-16.878,0,0,0-3.624,5.166-7.28.8-4.185-3.424-23.338,1.568-25.785-.8Z" transform="translate(-176.645 -160.11)" fill="#030405"/>
      <path id="Path_841" data-name="Path 841" d="M370.895,226.106c2.6,1.326,6.352,6.078,8.1,8.42a72.675,72.675,0,0,1,6.352,11.216c1.719,4.035,4.185,11.3,4.822,15.64a38.1,38.1,0,0,1,.2,7.862,35.062,35.062,0,0,0-2.712-8.441,38.3,38.3,0,0,0-3.934-4.877s1.479,5.387,1.773,7.223a31.069,31.069,0,0,1-.161,8.842s-.744-4.248-1.76-5.758a17.615,17.615,0,0,0-3.089-3.569s1.336,3.187.752,5.594a9.856,9.856,0,0,1-1.755,4.163s-1.394-2.811-2.974-3.843c-2.242-1.464-6.213-1.589-6.213-1.589a26.7,26.7,0,0,1,.993,3.76,11.9,11.9,0,0,0,.5,4.022,18.265,18.265,0,0,0-2.244-1.96A28.613,28.613,0,0,0,364.5,271.3c-1.248-.327-5.031-1.139-5.031-1.139l-12.523-.923-7.1-5.275-6.79-.817-7.238,2.371-3.457,5.046-1.129,1.326-1.76-.128a1.6,1.6,0,0,0-1.1,1.849,2.966,2.966,0,0,0,1.456,2.352h-3.234l-3.582-1.131-1.61.242-1.983.572-.037-6.964,9.055-1.991,4.89-4.268,2.592-7.074.075-6.13-7.557-4.7-3.795-2.353-.926-1.428a20.511,20.511,0,0,0,.159-2.074,11.022,11.022,0,0,0-3.848-8.554c-.751-.553-2.834-2.426-2.834-2.426l1.316-3.278,1.944-3.926,15.355-5.519,12.151-.821,13.417-1.477h10.487l8.28-3.444-2.667,7.136-2.069,6.117.736,2.971S369.826,225.562,370.895,226.106Z" transform="translate(-285.975 -201.239)" fill="#d13517"/>
      <path id="Path_842" data-name="Path 842" d="M628.5,319.358c2.907,2.8,4.454,8.208,5.4,12.1,2.389-3.778,3.361-10.578,2.306-14.894a16.832,16.832,0,0,0-7.815-10.371,16.371,16.371,0,0,1,4.427,9.538,8.358,8.358,0,0,0-4.945-2.111,10.3,10.3,0,0,1,5.7,7.371A8.082,8.082,0,0,0,628.5,319.358Z" transform="translate(-554.542 -282.451)"/>
      <path id="Path_843" data-name="Path 843" d="M339.305,387.937a33.007,33.007,0,0,0,4.844,0c1.5-.289,3.757-1.5,5.746-2.073a24.606,24.606,0,0,1,6.3-.884c4.121,0,15.643,5.2,15.643,5.2l4.584,7.019s1.417,1.983,1.8,2.7a6.051,6.051,0,0,1,.809,2.589,9.23,9.23,0,0,0-1.142-.9,4.061,4.061,0,0,0-1.463-.388l3.262,2.958,4.1-.912,3.525-2.044a10.551,10.551,0,0,1,6.088,3.56c1.963,2.434,3.98,5.412,3.98,5.412s-3.31-2.642-4.81-2.9a7.606,7.606,0,0,0-2.48,0,23.107,23.107,0,0,1,4.235,4.022,17.443,17.443,0,0,1,2.5,6.278c.179,1.037.561,4.4.561,4.4a33.1,33.1,0,0,0-5.654-2.787,42.2,42.2,0,0,0-6.668-1.818c-3.351-.252-10.157,1.233-13.433.486-3.078-.7-8.7-4.384-11.844-5.132-2.035-.484-8.368,0-8.368,0l-3.457,5.046-3.635,1.1-6.569-2.758,5.091-1.779,6.075-4.7,1.11-3.029,1.482-4.045.075-6.13Z" transform="translate(-311.569 -348.437)" fill="#fff"/>
      <path id="Path_844" data-name="Path 844" d="M534.33,447.283a8.085,8.085,0,0,0,4.524,1.5c1.963-.029,5.662-.476,7.233-.275a9.308,9.308,0,0,1,3.739,1.24c.252.413-.151-1.737.645-3.744a8.614,8.614,0,0,1,1.471-2.277,11.448,11.448,0,0,1,1.729.486c.409.149,2.1,1.011,2.1,1.011a8.6,8.6,0,0,1-1.417-2.792,12.537,12.537,0,0,1,1.353-2.706,5.2,5.2,0,0,0-1.322-2.3,9.682,9.682,0,0,0-2.652-1.666s2.2,2.525,1.375,4.207C551.881,442.475,544.417,447.969,534.33,447.283Z" transform="translate(-476.203 -390.965)"/>
      <path id="Path_845" data-name="Path 845" d="M606.67,414.364a21.434,21.434,0,0,1,9.482,7.615,8.573,8.573,0,0,0-3.037-5.891A8.441,8.441,0,0,0,606.67,414.364Z" transform="translate(-536.787 -372.976)"/>
      <path id="Path_846" data-name="Path 846" d="M432.46,432.17a21.862,21.862,0,0,1,3.616,11.863,8.744,8.744,0,0,0,.826-6.707A8.608,8.608,0,0,0,432.46,432.17Z" transform="translate(-390.888 -387.958)"/>
      <path id="Path_847" data-name="Path 847" d="M424.252,321.24a31.533,31.533,0,0,1-13.842,11.4,12.673,12.673,0,0,0,9.406-2.72A12.2,12.2,0,0,0,424.252,321.24Z" transform="translate(-372.421 -295.055)"/>
      <path id="Path_848" data-name="Path 848" d="M385.619,522.433a5.816,5.816,0,0,0-2.927,2.612,3.993,3.993,0,0,0-.11,3.816c-.944-.2-1.87-.315-2.777-.5.018.851.038,2.038.055,2.852a4.823,4.823,0,0,1-1.761-2.99s-.969.655-.969.791c.289-2.194,4.12-3.487,5.1-5.08.962-1.593.892-2.863,2.033-4.316a21.286,21.286,0,0,1,2.719-2.745c.383-.3,1.853-1.422,1.853-1.422l-1.484,3.989s3.045.361,4.037.6a15.8,15.8,0,0,1,2.584,1.68S387.545,521.738,385.619,522.433Z" transform="translate(-344.55 -457.704)" fill="#fff"/>
      <path id="Path_849" data-name="Path 849" d="M473.292,291.684a7.475,7.475,0,0,1,4.256,5.519,15.4,15.4,0,0,1-.79,6.413,4.567,4.567,0,0,0,3.1-4.163,4.259,4.259,0,0,1,.959,3.661,5.721,5.721,0,0,0,.229-5.485,25.363,25.363,0,0,1,8.886,3.861,7.733,7.733,0,0,0-2.363-6.505,8.7,8.7,0,0,1,4.443,1.591,24.817,24.817,0,0,0-5.654-13.288,8.239,8.239,0,0,1,3.918,2.054c-1.59-2.6-3.917-4.185-5.806-6.559-2.371-2.977-1.264-7.418-3.4-8.077-.858-.265-.915,4.576-.861,6.518.088,3.145,3.424,5.13,4.591,8.021a14.487,14.487,0,0,1,.545,9.224,57.491,57.491,0,0,0-12.06-2.789Z" transform="translate(-425.083 -252.725)"/>
      <path id="Path_850" data-name="Path 850" d="M340.745,209.213a96.285,96.285,0,0,0-4,16.223,9.763,9.763,0,0,0-3.445-2.777,4.347,4.347,0,0,0,2.278-2.241,10.977,10.977,0,0,0,.889-3.185c.353-1.833.686-3.648,1.037-5.446a33.827,33.827,0,0,1-9.407,3.723,4.051,4.051,0,0,1,1.685,2.074,13.286,13.286,0,0,1,.686,2.685,26.564,26.564,0,0,0-9.112-3.982c1.518-.111,2.741-.445,4.259-.536a27.782,27.782,0,0,0-15.316-.426,68.955,68.955,0,0,1,12.149,3.019,30.373,30.373,0,0,1,10.7,6.482c-7.63-4.111-15.835-7.444-24.391-8.631-8.556-1.167-17.595-.093-25.225,4.037a9.235,9.235,0,0,0-4.427,4.167c-.8,1.888-.037,4.537,1.926,5.111-.148.185-.26.408-.408.593a11.226,11.226,0,0,0-1.615-.915,13.284,13.284,0,0,0-5.177-1.2,12.377,12.377,0,0,0-1.744.075,7.04,7.04,0,0,1,5.7-.388,4.981,4.981,0,0,1-1.03-4.31,5.269,5.269,0,0,1,2.295-3.2c6.016-3.591,14.718-5.816,22.894-6.653q1.226-.124,2.433-.21,1.289-.09,2.545-.132c1.975-.065,3.874-.042,5.646.07,10.186-.593,18.445-.757,28.168-4.035Z" transform="translate(-256.58 -201.231)" fill="#d13517"/>
      <path id="Path_851" data-name="Path 851" d="M472.77,184.778A10.013,10.013,0,0,0,473.862,178c-1.37,1.63-3.333,2.278-5.26,3.093-3.63,1.463-7.259,2.927-10.872,4.427a43.1,43.1,0,0,0,14.779-4.111,6.183,6.183,0,0,1-1.37,3.483c.37-.037,1.277-.037,1.63-.111Z" transform="translate(-412.051 -175.093)" fill="#d13517"/>
      <path id="Path_852" data-name="Path 852" d="M357.141,300.575a28.436,28.436,0,0,0-5.551-2.407,29.2,29.2,0,0,0-5.08-.463l.913-.629,1.513-.2a7.859,7.859,0,0,0-4.368-.975c-3.533.432-6.825,3.453-6.825,3.453l-5.66,1.786-1.983-1.248a27.416,27.416,0,0,0,3.2,2.985,6.471,6.471,0,0,0,4.519,1.7c2.75,0,3.713-.149,4.945-.617,1.3-.5,5.025-4.191,5.025-4.191l1.994.091Z" transform="translate(-305.162 -273.797)" fill="#030405"/>
      <path id="Path_853" data-name="Path 853" d="M376.37,321.383a3.17,3.17,0,0,0,2.111.018,4.951,4.951,0,0,0,1.537-.982,4.048,4.048,0,0,1,1.074-.722,1.7,1.7,0,0,1,1.277-.13,3.324,3.324,0,0,0-3.408-.463,7.991,7.991,0,0,0-2.592,2.279Z" transform="translate(-343.913 -293.048)" fill="#fff"/>
      <path id="Path_854" data-name="Path 854" d="M330.1,269.032a2.131,2.131,0,0,0,.941,1.082c1.352.7,2.8.253,4.207-.265a16.378,16.378,0,0,0,3.816-2.3,14.154,14.154,0,0,1,3.889-2.2,7.6,7.6,0,0,1,5.982.666,2.881,2.881,0,0,0-2.426.834,17.647,17.647,0,0,1,10.631,2.87c-1.04-2.855-1.086-5.054-2.6-7.277-1.809-2.665-5.317-3.3-6.9-3.4-5.158-.343-10.69,2.65-12.918,4.908C332.663,266.042,330.1,269.032,330.1,269.032Z" transform="translate(-305.162 -242.941)" fill="#f6f6f6"/>
      <path id="Path_855" data-name="Path 855" d="M349.82,322.709c3.055,1.185,6.5,1.775,9.367.219,1.092-.611,3.036-3.118,5.122-3.328a37.883,37.883,0,0,1,9.348.811c-.944.093-4.965.029-7.373.382-1.411.206-3.408,1.648-4.545,2.534C357.51,326.612,351.635,324.987,349.82,322.709Z" transform="translate(-321.678 -293.633)" fill="#f6f6f6"/>
      <path id="Path_856" data-name="Path 856" d="M306.637,403.19c3.092,1.926,6.149,3.851,9.242,5.779a8.234,8.234,0,0,1,3.037,2.7c1.019,1.833.5,4.094-.075,6.13a30.873,30.873,0,0,1-2.592,7.074,10.835,10.835,0,0,1-6.075,4.7c1.037.26,1.908.721,2.927,1.019a5.974,5.974,0,0,1-5.3-.2,3.34,3.34,0,0,0,.463,3.112,6.74,6.74,0,0,1-3.185-2.148c-.018.814.037,1.667.018,2.481a2.323,2.323,0,0,1-1.555-2.223,17.29,17.29,0,0,0-.185,3.8c.037.371-.374-1.337-.207-.986.168.333-1.016-2.88-.627-2.75.26-.778,5.018-.5,5.278-1.282.223.8,4.576.172,3.847,3.721-.493,2.4-.434,2.842,1.1,4.3a13.513,13.513,0,0,1-4.649.11,4.609,4.609,0,0,1-1.259-.315,1.77,1.77,0,0,1-.907-.926,2.648,2.648,0,0,0-.518,2.574,3.886,3.886,0,0,1-3.075-1.76,5.5,5.5,0,0,1-1.037-3.463,7.788,7.788,0,0,1,1-3.5,6,6,0,0,1-1.3.944,1.974,1.974,0,0,1-1.37.24,1.16,1.16,0,0,1-.889-1c-.055-.574.445-1.037.944-1.427a22.576,22.576,0,0,1,4.723-2.7c2.241.629,4.833,1.242,6.981.371,2.408-.964,3.741-3.556,4.537-6.019a31.033,31.033,0,0,0,1.482-8.315,20.665,20.665,0,0,0-11.278-8.759c.223-.5.3-.779.5-1.276Z" transform="translate(-278.902 -363.688)" fill="#d6d6d6"/>
      <path id="Path_857" data-name="Path 857" d="M334.2,517.839c-1.575.574-3.112,1.167-4.685,1.778a8.138,8.138,0,0,1-.167-4.167c1.5.7,3.37,1.667,4.852,2.389Z" transform="translate(-304.37 -457.704)" fill="#fff"/>
      <path id="Path_858" data-name="Path 858" d="M347.31,531.364a14.555,14.555,0,0,0,5.464-2.7,1.07,1.07,0,0,1,.075,1.39,3.065,3.065,0,0,1-1.334.982,7.889,7.889,0,0,1-4.2.333Z" transform="translate(-319.576 -468.768)" fill="#f6f6f6"/>
      <path id="Path_859" data-name="Path 859" d="M284.276,532.265c1.129-.593,2.259-1.149,3.39-1.74.037.408.24.648.278,1.056a7.853,7.853,0,0,0-3.889,2.241A6.817,6.817,0,0,1,281,529.58c1.2.426,2.5.907,3.741,1.352a10.346,10.346,0,0,0-.463,1.334Z" transform="translate(-264.041 -469.538)" fill="#fff"/>
      <path id="Path_860" data-name="Path 860" d="M237.448,442.409a15.878,15.878,0,0,1,7.722-1.648,11.872,11.872,0,0,0,6.185,3.5,8.213,8.213,0,0,1-2.371-5.741c-2.592.26-5.148.5-7.7.759a11.274,11.274,0,0,0-3.759.8,3.983,3.983,0,0,0-2.352,2.889,10.532,10.532,0,0,0,5.519,3.075,3.685,3.685,0,0,1-1.722-3.223c-.519-.093-1.019-.278-1.518-.408Z" transform="translate(-225.659 -393.276)" fill="#fff"/>
      <path id="Path_861" data-name="Path 861" d="M331.59,427.418a4.532,4.532,0,0,1,2.464,1.52,9.587,9.587,0,0,0,1.019-3.3A4.8,4.8,0,0,0,331.59,427.418Z" transform="translate(-306.41 -382.489)" fill="#fff"/>
      <path id="Path_862" data-name="Path 862" d="M206.177,428.241a2.89,2.89,0,0,0,.648-2.316,2.509,2.509,0,0,0-1-1.149,14.063,14.063,0,0,0-2.056-1.185,4.624,4.624,0,0,0-.944-.278,1.092,1.092,0,0,0-.926.3,7.569,7.569,0,0,0,4.279,4.63Z" transform="translate(-197.796 -380.533)" fill="#f6f6f6"/>
      <path id="Path_863" data-name="Path 863" d="M191.027,380.942a3.858,3.858,0,0,0,2.629,1.019,11.792,11.792,0,0,0,.852-4.2,7.834,7.834,0,0,0-6.408,2.13,10.724,10.724,0,0,0,2.87,3.37,5.127,5.127,0,0,0,.055-2.316Z" transform="translate(-186.238 -342.328)" fill="#b63623"/>
      <path id="Path_864" data-name="Path 864" d="M204.97,339.52a21.939,21.939,0,0,1,5.075-4.815,7.2,7.2,0,0,1,6.686-.759c-1.833.353-.444,1.333,1.778,1.445a7.881,7.881,0,0,1,5.889,2.685,8.084,8.084,0,0,1,1.407,3.055,8.732,8.732,0,0,1,.13,4.2,5.429,5.429,0,0,1-2.371,3.408,8.857,8.857,0,0,1-3.926.889c-2.3.148-4.592.315-6.889.519a4.865,4.865,0,0,1-2.131-.185,2.846,2.846,0,0,1-1.5-3,17.472,17.472,0,0,1,1.133-4.277c1.846-3.969,4.9-6.38,7.682-7.1-1.888-.722-6.081,2.81-7.735,3.027-1.211.159-4.318.02-5.226.908Z" transform="translate(-200.367 -305.259)" fill="#f6f6f6"/>
      <path id="Path_865" data-name="Path 865" d="M286.676,359.66a1.719,1.719,0,0,1-.686,1.222,3.826,3.826,0,0,1-1.259.7c-.814.388-1.648.759-2.5,1.149a9.082,9.082,0,0,0,2.815-.388,2.947,2.947,0,0,0,1.667-.926,1.307,1.307,0,0,0-.036-1.76Z" transform="translate(-265.072 -327.232)" fill="#030405"/>
      <path id="Path_866" data-name="Path 866" d="M274.72,382.349a21.8,21.8,0,0,0,6.019-3.889,3.434,3.434,0,0,1-2.186,2.907,11.053,11.053,0,0,1-3.834.982Z" transform="translate(-258.782 -342.976)" fill="#030405"/>
      <path id="Path_867" data-name="Path 867" d="M277.9,398.281a11.569,11.569,0,0,0,6.556-3.982,3.583,3.583,0,0,1-2.316,3.3,10.749,10.749,0,0,1-4.241.686Z" transform="translate(-261.445 -356.242)" fill="#030405"/>
      <path id="Path_868" data-name="Path 868" d="M456.352,429.55a20.358,20.358,0,0,1-.041,6.421,54.152,54.152,0,0,1-1.4,6.3,15.356,15.356,0,0,0,3.136-8.213,6.911,6.911,0,0,1,3.325,2.6,12.7,12.7,0,0,0-5.02-7.108Z" transform="translate(-409.69 -385.764)"/>
      <path id="Path_869" data-name="Path 869" d="M519.282,535.667a16.653,16.653,0,0,1-13.529-.845c.66.811,1.235,1.643,1.895,2.454a19.669,19.669,0,0,1-7.058-3.245,11.726,11.726,0,0,0,9.211,7.04c-.873-.647-1.469-1.235-2.34-1.883a26.229,26.229,0,0,0,8.493.179c-.871-.481-1.633-.837-2.5-1.318a12.09,12.09,0,0,0,5.832-2.381Z" transform="translate(-447.946 -473.265)" fill="#d6d6d6"/>
      <path id="Path_870" data-name="Path 870" d="M504.322,526.106a16.654,16.654,0,0,1-13.529-.845c.66.811,1.235,1.643,1.895,2.454a19.675,19.675,0,0,1-7.058-3.245,11.727,11.727,0,0,0,9.211,7.04c-.873-.647-1.469-1.235-2.34-1.884a26.233,26.233,0,0,0,8.493.179c-.871-.481-1.633-.837-2.5-1.318a12.1,12.1,0,0,0,5.832-2.381Z" transform="translate(-435.417 -465.258)"/>
      <path id="Path_871" data-name="Path 871" d="M204.97,328.435a14.945,14.945,0,0,1,2-2.7,25.7,25.7,0,0,1,3.658-2.828,33.818,33.818,0,0,1,4.435-2c4.6-1.441,6.517-.294,6.517-.294l1.219,1.511s-3-.34-3.931.772a4.885,4.885,0,0,1-2.99,1.836c-1.294.434-3.551,2.077-4.843,2.517-.526.18-2.1.648-2.65.752C207.412,328.2,204.97,328.435,204.97,328.435Z" transform="translate(-200.367 -294.173)" fill="#d13517"/>
      <path id="Path_872" data-name="Path 872" d="M222.789,330.768a8.878,8.878,0,0,0-2.7-.247,12.166,12.166,0,0,0-3.8.934c-1.575.858-3.5,2.571-4.63,3.312a19.248,19.248,0,0,1-6.705,2.3l5.594,1.29a18.331,18.331,0,0,0,2.517-2.262,12.051,12.051,0,0,1,5.488-2.959,5.83,5.83,0,0,1,2.236.182C221.583,333.519,222.789,330.768,222.789,330.768Z" transform="translate(-200.359 -302.81)"/>
      <path id="Path_873" data-name="Path 873" d="M570.713,213.681l2.615-4.451-2.29,7.783-1.708,8.441a1.828,1.828,0,0,1,.691.982,4.143,4.143,0,0,1,.164,1.48,8.892,8.892,0,0,0-1.724-2.02,12.1,12.1,0,0,0-1.528-.782,2.433,2.433,0,0,1,.727,1.183,5.1,5.1,0,0,1-.039,1.617,4.1,4.1,0,0,0-1.884-3.07,15.455,15.455,0,0,1-1.425-1.536A19.188,19.188,0,0,0,562.5,221.6a23.944,23.944,0,0,0-4.584-1.921c-1.945-.575-8.1-.444-8.1-.444l6.45-1.1,7.812-.592Z" transform="translate(-489.167 -201.248)" fill="#f6f6f6"/>
      <path id="Path_874" data-name="Path 874" d="M549.81,242.17c2.769-.249,11.128-.619,13.8-1.384a14.805,14.805,0,0,0,7.1-4.165,22.711,22.711,0,0,1-12.889,3.591c.2-.377,1.609-.842,1.807-1.22C559.634,238.993,550.86,240.332,549.81,242.17Z" transform="translate(-489.168 -224.186)" fill="#020203"/>
      <path id="Path_875" data-name="Path 875" d="M612.454,236.62a45.472,45.472,0,0,1-2.29,6.162,9.915,9.915,0,0,1-2.538,2.832,2.22,2.22,0,0,1-2.213.375c-.913-.465-2.519-1.771-3.411-2.275-.565-.319-2.351-1.1-2.351-1.1a16.061,16.061,0,0,0,3.837.858,10.792,10.792,0,0,0,3.585-1.615A55.527,55.527,0,0,0,612.454,236.62Z" transform="translate(-530.908 -224.186)" fill="#020203"/>
    </g>
    <path id="Path_876" data-name="Path 876" d="M456.815,227.35c-.439.543,1.591,1.412,1.586,2.3a1.58,1.58,0,0,1-.691,1.108c-.608.213-1.934-.45-2.428-.865-.682-.572-.977-2.082-1.682-2.625a9.587,9.587,0,0,0-2.831-.21l4.319-1.786,4.225,1.324S457.309,226.741,456.815,227.35Z" transform="translate(-30.084 4995.375)" fill="#030405"/>
    <path id="Path_877" data-name="Path 877" d="M703.746,320.948c-.782-.156-1.172,4.776-1.693,7.874-.806,4.791-6.475,10.625-7.429,10.11-.738-.4,3.086-7.654,3.6-13.94a31.58,31.58,0,0,0-.313-9.694,10.115,10.115,0,0,0-3.379-4.818l3.013-.219,4.945,3.829,3.582,9.235S704.625,321.124,703.746,320.948Z" transform="translate(-234.229 4924.196)" fill="#030405"/>
    <path id="Path_878" data-name="Path 878" d="M728.355,402.359c-.671-.192-1.351,2.584-2.689,5-2.811,5.069-9.125,7.581-9.344,7.339-.433-.476,4.89-7.259,6.5-10.178a21.539,21.539,0,0,0,2.639-7.67,11.038,11.038,0,0,0-.91-4.749l4.334,5.828,1.14,6.437S729.109,402.575,728.355,402.359Z" transform="translate(-252.459 4855.656)" fill="#030405"/>
    <path id="Path_879" data-name="Path 879" d="M403.794,232.533c-.383.583.726.632.808,1.511.029.325-1.355.988-1.887.624-.734-.5-1.371-1.435-2.127-1.906-.429-.268-2.837.263-2.837.263l4.124-2.4,4.334.905S404.224,231.878,403.794,232.533Z" transform="translate(14.32 4990.886)" fill="#030405"/>
  </g>
</svg>
