<svg xmlns="http://www.w3.org/2000/svg" width="109.009" height="145.715" viewBox="0 0 109.009 145.715">
  <g id="Group_3938" data-name="Group 3938" transform="translate(-2282.32 -2880.486)">
    <path id="Path_22" data-name="Path 22" d="M550.5,198.8l-2.854,6.667a52.024,52.024,0,0,1-20.2-15.11c-7.652-9.415-9.855-16.156-10.947-23.568a20.143,20.143,0,0,0-11.86,11.117c-2.187,5.481-1.049,12.406,2.885,18.177l.061-.063a67.811,67.811,0,0,1,15.291,54.894,100.971,100.971,0,0,1-3.068,11.845l-6.909-2.2a98.079,98.079,0,0,0,2.825-10.812,60.594,60.594,0,0,0-10.614-45.116c-2.674,3.811-5.559,7.531-8.611,11.115a81.353,81.353,0,0,1-16.475,14.867,66.38,66.38,0,0,1-19.165,9,62.066,62.066,0,0,1-10.614,2.005l-.728-7.214a54.5,54.5,0,0,0,9.368-1.761,59.729,59.729,0,0,0,17.083-8.034,74.686,74.686,0,0,0,15-13.56,140.957,140.957,0,0,0,9.521-12.512c-4.466-7.441-5.5-16.05-2.582-23.324a26.3,26.3,0,0,1,13.1-13.94,46.884,46.884,0,0,0-19.877-5.012,48.549,48.549,0,0,0-29.2,9l-4.221-5.892a54.769,54.769,0,0,1,63.945-.182l1.352.941.182,1.641c.775,7.3,1.442,13.621,9.885,24.006A44.889,44.889,0,0,0,550.5,198.8" transform="translate(1833.348 2762.812)" fill="#5a1024" stroke="rgba(0,0,0,0)" stroke-width="1"/>
    <path id="Path_23" data-name="Path 23" d="M486.072,141.688c2.69,6.909,6.528,15.759,9.967,18.414a8.485,8.485,0,0,0,10.37-13.433c-3.439-2.655-12.973-4.128-20.336-4.98m15.119,27.436a15.619,15.619,0,0,1-9.583-3.282c-5.6-4.325-10.155-15.671-14.335-26.921l-2.1-5.644,5.992.6c11.943,1.2,24.069,2.725,29.673,7.052a15.736,15.736,0,0,1-7.606,28.063,15.974,15.974,0,0,1-2.043.131" transform="translate(1857.879 2747.787)" fill="#5a1024" stroke="rgba(0,0,0,0)" stroke-width="1"/>
    <path id="Path_24" data-name="Path 24" d="M504.425,201.1c-.094,0-.19,0-.286.008a5.478,5.478,0,1,0,.286-.008m-.018,18.236a12.781,12.781,0,1,1,.671-.018c-.223.012-.448.018-.671.018" transform="translate(1873.66 2805.703)" fill="#5a1024" stroke="rgba(0,0,0,0)" stroke-width="1"/>
  </g>
</svg>
