<svg xmlns="http://www.w3.org/2000/svg" width="128.413" height="141.213" viewBox="0 0 128.413 141.213">
  <g id="Group_3859" data-name="Group 3859" transform="translate(-1147.693 -2114.731)">
    <path id="Path_101" data-name="Path 101" d="M235.209,317.051a6.4,6.4,0,1,0-6.271-11.163c-2.854,1.6-6.686,7.757-9.488,12.674C225.107,318.727,232.357,318.654,235.209,317.051Z" transform="translate(988.103 1842.907)" fill="none"/>
    <path id="Path_102" data-name="Path 102" d="M208.3,306.272c3.083.884,7.152-2.624,8.708-7.508a11.222,11.222,0,0,0-.289-8.447,4.224,4.224,0,0,0-2.458-2.172,3.558,3.558,0,0,0-.995-.136c-2.91,0-6.319,3.27-7.716,7.643a11.24,11.24,0,0,0,.291,8.448A4.222,4.222,0,0,0,208.3,306.272Z" transform="translate(979.265 1835.765)" fill="none"/>
    <path id="Path_103" data-name="Path 103" d="M257.02,352.285c-7.565-6.147-16.258-7.622-21.991-7.825a72.135,72.135,0,0,1-2.476,7.873c-5.138,13.495-14.133,24.419-25.176,31.108H270.3C270.708,371,265.8,359.422,257.02,352.285Z" transform="translate(980.776 1866.807)" fill="none"/>
    <path id="Path_104" data-name="Path 104" d="M215.766,321.946l-2.32,4.234,4.823.22c2.971.137,5.959.249,8.808.249,6.008,0,11.388-.5,14.629-2.32a12.228,12.228,0,1,0-11.98-21.321C224.952,305.691,220.21,313.836,215.766,321.946Zm16.814-13.86a6.4,6.4,0,1,1,6.271,11.164c-2.852,1.6-10.1,1.676-15.759,1.51C225.895,315.844,229.727,309.69,232.581,308.087Z" transform="translate(984.459 1840.707)" fill="#5a1024"/>
    <path id="Path_105" data-name="Path 105" d="M225.779,302.981a4.677,4.677,0,1,0-4.507-4.841A4.68,4.68,0,0,0,225.779,302.981Z" transform="translate(989.207 1839.176)" fill="#5a1024"/>
    <path id="Path_106" data-name="Path 106" d="M310.608,419.894H291.4c.41-14.176-5.286-27.432-15.433-35.677a42.434,42.434,0,0,0-24.448-9.073,88.674,88.674,0,0,0,.119-28.474c4.676,1.665,11.639,3.4,18.44,1.7a27.46,27.46,0,0,0,19.18-16.249L283.838,330a21.652,21.652,0,0,1-15.167,12.719c-7.409,1.849-15.725-1.706-18.857-3.045-.392-.169-.715-.305-.953-.4l-1.935-.765-1.39,1.629c-2.516,2.952-6.319,7.41-11.225,8.181-8.575,1.346-15.945-4.256-17.531-13.321a16.121,16.121,0,0,1-.228-2.055l7.084-18.532c5.318-.294,10.522-4.873,12.692-11.679a16.854,16.854,0,0,0-.7-12.966,9.961,9.961,0,0,0-5.985-5.023c-6.292-1.807-13.263,3.172-15.868,11.336a16.868,16.868,0,0,0,.7,12.966,10.47,10.47,0,0,0,3.5,3.874L210.7,331.931l.008.557a21.966,21.966,0,0,0,.329,3.519c1.915,10.947,10.558,18.339,20.789,18.339a21.745,21.745,0,0,0,3.384-.267,20.483,20.483,0,0,0,10.773-5.845,82.133,82.133,0,0,1-.384,26.937l-.032,0,.01.128a67.358,67.358,0,0,1-3.2,11.413c-6.384,16.771-19.2,29.154-34.32,33.18H187.819V285.776h-5.624V425.518h27.122l.019.072c.082-.021.162-.051.244-.072H310.608Zm-91.286-122.04c1.4-4.374,4.806-7.643,7.715-7.643a3.558,3.558,0,0,1,.995.137,4.223,4.223,0,0,1,2.458,2.172,11.222,11.222,0,0,1,.289,8.447c-1.557,4.884-5.625,8.392-8.708,7.508a4.223,4.223,0,0,1-2.458-2.172A11.24,11.24,0,0,1,219.322,297.854Zm28.51,90.933a72.157,72.157,0,0,0,2.476-7.873c5.733.2,14.427,1.677,21.991,7.825,8.779,7.137,13.688,18.72,13.281,31.156H222.656C233.7,413.206,242.693,402.281,247.831,388.787Z" transform="translate(965.498 1830.353)" fill="#5a1024"/>
  </g>
</svg>
