<svg xmlns="http://www.w3.org/2000/svg" width="133.172" height="142.199" viewBox="0 0 133.172 142.199">
  <g id="Group_3939" data-name="Group 3939" transform="translate(-2547.69 -2882.54)">
    <path id="Path_97" data-name="Path 97" d="M183.051,375.393a7.579,7.579,0,0,0,9.264-12c-3.073-2.371-11.589-3.687-18.164-4.448C176.553,365.118,179.98,373.022,183.051,375.393Z" transform="translate(2447.367 2541.178)" fill="#fff"/>
    <path id="Path_98" data-name="Path 98" d="M193.947,428.726a4.9,4.9,0,0,0-.248-9.8c-.084,0-.17,0-.255.005a4.9,4.9,0,0,0,.5,9.8Z" transform="translate(2458.307 2585.991)" fill="#fff"/>
    <path id="Path_99" data-name="Path 99" d="M183.259,383.733a13.944,13.944,0,0,0,8.56,2.932,14.3,14.3,0,0,0,1.824-.117,14.056,14.056,0,0,0,6.793-25.065c-5.007-3.865-15.838-5.231-26.5-6.3l-5.353-.536,1.875,5.041C174.188,369.736,178.252,379.87,183.259,383.733Zm13.219-17.124a7.579,7.579,0,0,1-9.264,12c-3.072-2.371-6.5-10.275-8.9-16.446C184.889,362.922,193.405,364.237,196.478,366.608Z" transform="translate(2443.201 2537.965)" fill="#5a1024"/>
    <path id="Path_100" data-name="Path 100" d="M243.407,484.967a11.692,11.692,0,0,0,1.253-1.179,11.382,11.382,0,1,0-16.074.828c.148.131.318.227.47.351H214.866a73.307,73.307,0,0,0,1.821-7.522,60.56,60.56,0,0,0-13.658-49.03l-.054.056c-3.514-5.154-4.53-11.339-2.575-16.235a17.985,17.985,0,0,1,10.591-9.929c.975,6.62,2.942,12.641,9.777,21.05a46.467,46.467,0,0,0,18.04,13.5l2.549-5.954A40.094,40.094,0,0,1,225.8,419.274c-7.541-9.276-8.137-14.918-8.829-21.442l-.162-1.466-1.207-.841a48.918,48.918,0,0,0-57.114.162l3.772,5.263a43.35,43.35,0,0,1,26.08-8.043,41.874,41.874,0,0,1,17.753,4.477,23.493,23.493,0,0,0-11.7,12.451c-2.6,6.5-1.683,14.185,2.306,20.832a125.993,125.993,0,0,1-8.5,11.175,66.709,66.709,0,0,1-13.4,12.112,53.356,53.356,0,0,1-15.258,7.176,48.669,48.669,0,0,1-8.367,1.573l.65,6.444a55.409,55.409,0,0,0,9.48-1.791,59.315,59.315,0,0,0,17.119-8.042,72.6,72.6,0,0,0,14.713-13.279c2.726-3.2,5.3-6.524,7.691-9.928a54.129,54.129,0,0,1,9.482,40.3,81.851,81.851,0,0,1-2.189,8.565h-70.1V348.883H131.9v142.2H265.069v-6.115Zm-10.841-12.089a4.876,4.876,0,0,1,3.39-1.615c.086,0,.171,0,.255,0a4.9,4.9,0,1,1-3.645,1.619Z" transform="translate(2415.793 2533.657)" fill="#5a1024"/>
  </g>
</svg>
