<svg xmlns="http://www.w3.org/2000/svg" width="163" height="160" viewBox="0 0 163 160">
  <g id="Group_3952" data-name="Group 3952" transform="translate(-1084 -5238)">
    <rect id="Rectangle_177" data-name="Rectangle 177" width="163" height="160" transform="translate(1084 5238)" fill="none"/>
    <g id="Group_1087" data-name="Group 1087" transform="translate(1095.947 5318.241)">
      <path id="Path_1597" data-name="Path 1597" d="M206.686,560.55l-.088-.173a3.473,3.473,0,0,0,3.8-3.462l-.012-8.727a3.472,3.472,0,0,0-1.674-2.966,11.447,11.447,0,0,0-6.449-2.042H202.2a8.014,8.014,0,0,0-4.793,1.748,3.465,3.465,0,0,0-2.586-1.182q-6.135-.034-12.274-.06h-.015a3.451,3.451,0,0,0-.584.054,3.376,3.376,0,0,0-.6-.058l-5.978-.022a3.5,3.5,0,0,0-2.488,1.036l0,0a3.487,3.487,0,0,0-2.491-1.057l-5.49-.015h-.007a3.468,3.468,0,0,0-3.067,1.846,8.808,8.808,0,0,0-5.761-2.208H156a8.756,8.756,0,0,0-6.3,2.659,10.921,10.921,0,0,0-1.312,1.622,9.872,9.872,0,0,0-8.042-3.947h-.012l-6.3,0a3.361,3.361,0,0,0-.6.057,3.477,3.477,0,0,0-.6-.055h0l-6.382.009a3.451,3.451,0,0,0-1.645.417,3.471,3.471,0,0,0-1.639-.411h-.007l-6.38.015a3.464,3.464,0,0,0-2.915,1.607,9.355,9.355,0,0,0-5.07-1.583l-6.66.025a3.448,3.448,0,0,0-.941.135,3.516,3.516,0,0,0-.944-.128l-8.143.039c-.1,0-.205.008-.307.017-.092-.008-.183-.013-.277-.013H91.5q-7.9.042-15.8.1A3.473,3.473,0,0,0,72.25,547.3v11.111a3.473,3.473,0,0,0,3.912,3.444q.786-.1,1.572-.2l-.086,14.461A3.477,3.477,0,0,0,76,579.058l-.024,5.612a3.473,3.473,0,0,0,4.8,3.224c2.516-1.042,5.091-2.033,7.65-2.942a3.458,3.458,0,0,0,1.852-1.566,3.406,3.406,0,0,0,2.4.122c2.6-.823,5.255-1.592,7.89-2.281a3.443,3.443,0,0,0,.98-.432l.022,0a3.53,3.53,0,0,0,.858-.107c2.073-.529,4.177-1.02,6.286-1.468a13.238,13.238,0,0,0,4.434-1.93,16.407,16.407,0,0,0-.881,5.787c0,9.443,5.124,10.177,6.694,10.177a5.189,5.189,0,0,0,2.009-.4,3.457,3.457,0,0,0,1.214.222h4.528a3.45,3.45,0,0,0,1.44-.316,5.488,5.488,0,0,0,2.3.49,5.241,5.241,0,0,0,3.454-1.227,5.849,5.849,0,0,0,3.556,1.227,5.189,5.189,0,0,0,2.009-.4,3.457,3.457,0,0,0,1.214.222h2.242a3.47,3.47,0,0,0,.937-.128,3.466,3.466,0,0,0,.935.128h1.611c.03,0,.058,0,.088,0s.058,0,.088,0h1.632a3.457,3.457,0,0,0,1.382-.286,3.456,3.456,0,0,0,1.382.286H152.6c.1,0,.2-.007.3-.017.1.009.207.017.311.017h2.917a3.446,3.446,0,0,0,1.154-.2,3.445,3.445,0,0,0,1.154.2h2.917a3.5,3.5,0,0,0,.356-.018c.113.01.226.018.341.018h1.632a3.456,3.456,0,0,0,1.382-.286,3.456,3.456,0,0,0,1.382.286h1.611a3.473,3.473,0,0,0,3.457-3.815,101.787,101.787,0,0,0-1.9-11.1c.383.067.767.129,1.146.2a3.469,3.469,0,0,0,2.67-.607,3.468,3.468,0,0,0,2.232,1.587c1.252.271,2.51.558,3.739.855a3.46,3.46,0,0,0,.814.1,3.406,3.406,0,0,0,.683-.076,3.435,3.435,0,0,0,1.312.683c3.989,1.057,7.982,2.285,11.869,3.651a3.49,3.49,0,0,0,1.151.2,3.43,3.43,0,0,0,1.115-.189,15.44,15.44,0,0,0,4.491,3.051,7.246,7.246,0,0,0,2.808.581,6.567,6.567,0,0,0,3.657-1.1c2.808-1.866,4.235-5.634,4.241-11.191.022-5.884-2.8-11.358-4.857-15.354Z" transform="translate(-72.25 -543.18)"/>
      <g id="Group_1081" data-name="Group 1081" transform="translate(3.471 3.471)">
        <path id="Path_1598" data-name="Path 1598" d="M107.107,604.677q-3.938,1.4-7.817,3.007.011-2.806.024-5.612.815-.286,1.632-.564.074-12.5.149-25l-2.152.156q-.009,2.162-.016,4.324-1.684.2-3.367.417V570.3q7.9-.056,15.793-.1-.067,4.728-.135,9.458-1.7.163-3.389.337.025-1.972.048-3.944l-2.156.14q-.121,11.918-.243,23.835.844-.264,1.688-.518-.029,2.584-.06,5.168Z" transform="translate(-95.56 -569.648)" fill="#fff"/>
        <path id="Path_1599" data-name="Path 1599" d="M204.532,574.832l-1.681.086q.036-2.474.073-4.949,4.069-.022,8.14-.039-.042,2.3-.085,4.6l-1.683.075q-.194,10.886-.389,21.773c.558-.132,1.117-.264,1.677-.39q-.042,2.325-.085,4.65-4.054,1.061-8.06,2.33.036-2.475.073-4.95.831-.228,1.663-.449.179-11.366.356-22.734Z" transform="translate(-186.526 -569.418)" fill="#fff"/>
        <path id="Path_1600" data-name="Path 1600" d="M269.258,595.38q.84-.183,1.682-.357.2-10.415.4-20.831l-1.684.068q.042-2.262.085-4.525l6.657-.025a6.652,6.652,0,0,1,6.212,6.843,9.788,9.788,0,0,1-2.455,6.61c1.392.805,2.932,2.577,2.862,6.441a9.5,9.5,0,0,1-7.458,8.81q-3.205.681-6.389,1.492.042-2.262.085-4.525Zm8.907-17.39c.046-2.443-1.227-2.96-1.83-2.937l-.322.014q-.06,3.086-.121,6.172l.362-.031c.563-.052,1.864-.868,1.909-3.217Zm.022,11.41c.048-2.487-1.065-3.2-1.989-3.093l-.4.051q-.065,3.348-.13,6.7l.4-.07C277,592.822,278.144,591.7,278.187,589.4Z" transform="translate(-243.32 -569.231)" fill="#fff"/>
        <path id="Path_1601" data-name="Path 1601" d="M377.023,588.214c-.027,1.843.606,2.917,1.624,2.825s1.684-1.226,1.706-3.084q.118-9.3.235-18.6l6.379-.009q-.015,1.91-.03,3.818l-1.69.018q-.067,7.243-.132,14.485c-.043,5.1-3.058,7.847-6.534,8.242s-6.4-1.827-6.3-7.242q.13-7.63.261-15.258l-1.689.043q.036-2.039.073-4.076,3.189-.009,6.379-.015-.138,9.425-.277,18.85Z" transform="translate(-329.86 -568.924)" fill="#fff"/>
        <path id="Path_1602" data-name="Path 1602" d="M499.4,577.118a7.935,7.935,0,0,1-2.652,6.157,23.135,23.135,0,0,1,3.964,11.377q-2.624-.108-5.248-.13c-.7-4.5-1.356-7.148-2.9-9.114q-.007,4.559-.012,9.116-3.261.031-6.519.19.013-1.905.025-3.809.858-.036,1.715-.064.049-8.86.1-17.722l-1.69.012q.013-1.905.025-3.809,3.149,0,6.3,0C496.509,569.316,499.371,572.391,499.4,577.118Zm-6.426,2.954c.77,0,1.945-.756,1.941-2.982,0-2.016-.929-3.067-1.936-3.066h-.4q0,3.025-.008,6.05h.405Z" transform="translate(-427.89 -568.899)" fill="#fff"/>
        <path id="Path_1603" data-name="Path 1603" d="M602.2,580.74c.146,8.92-2.585,13.283-6.967,12.852-4.384-.406-7.244-5.055-7.289-13.5s2.693-13,6.979-13.013c4.287-.033,7.13,4.748,7.278,13.661Zm-7.025,7.945c1.224.094,1.766-1.977,1.684-8.264s-.673-8.419-1.879-8.436-1.748,2.071-1.685,8.274S593.953,588.593,595.177,588.685Z" transform="translate(-514.632 -566.991)" fill="#fff"/>
        <path id="Path_1604" data-name="Path 1604" d="M705.112,583.9q-.139-7.181-.28-14.36l5.975.023q.042,2.256.085,4.513-.843-.036-1.684-.069.244,12.615.485,25.229-1.9-.46-3.82-.874c-1.759-5.164-3.519-10.123-5.272-14.919q.131,6.96.262,13.919-3.017-.554-6.048-.993-.034-2.015-.068-4.029.853.105,1.7.219-.167-9.49-.333-18.978l-1.688-.042q-.033-2.014-.069-4.029l5.5.015c1.745,4.631,3.5,9.409,5.253,14.376Z" transform="translate(-605.201 -569.06)" fill="#fff"/>
        <path id="Path_1605" data-name="Path 1605" d="M819.384,575.923q.054,3.323.107,6.645,1.876.228,3.748.476.045,3.109.088,6.218-1.865-.36-3.737-.692.06,3.75.122,7.5,1.133.281,2.26.574-.024-1.615-.049-3.23,1.785.409,3.563.85.06,4.874.122,9.748-6.008-2.111-12.13-3.731-.043-2.281-.085-4.559.839.188,1.678.381-.2-10.792-.393-21.584-.842-.038-1.682-.073-.042-2.28-.085-4.559,6.135.027,12.269.06.06,4.847.122,9.692-1.794-.181-3.59-.35-.024-1.614-.049-3.23l-2.279-.141Z" transform="translate(-706.099 -569.383)" fill="#fff"/>
        <path id="Path_1606" data-name="Path 1606" d="M911.216,575.915c.049,3.667,6.9,11.493,6.87,19.815-.007,7.811-3.14,9.679-5.89,8.526a16.442,16.442,0,0,1-5.362-4.352q-.042-3.658-.083-7.317,1.478.391,2.95.8c.255,2.259,1.084,3.416,1.982,3.709s1.788-.144,1.778-2.188c0-4.392-6.867-11.435-6.979-19.151-.079-6.44,3.14-9.225,5.789-9.267a8,8,0,0,1,4.655,1.539q.007,4.364.012,8.728-1.387-.154-2.778-.3c-.085-1.506-.409-2.9-1.486-2.975-.956-.067-1.468.743-1.456,2.43Z" transform="translate(-785.737 -566.49)" fill="#fff"/>
      </g>
      <g id="Group_1082" data-name="Group 1082" transform="translate(43.491 33.196)">
        <path id="Path_1607" data-name="Path 1607" d="M367.562,779.548c-1.763,0-3.222-1.806-3.222-6.7s1.394-6.7,3.222-6.7a2.734,2.734,0,0,1,2.046,1.24l-.828,1.175s-.544-.871-1.219-.871c-1,0-1.523,1.894-1.523,5.159s.588,5.245,1.523,5.245c.435,0,.566-.631.566-.631v-3.94h-.914V772.06h2.482V778c-.611.914-1.24,1.545-2.134,1.545Z" transform="translate(-364.34 -766.139)" fill="#fff"/>
        <path id="Path_1608" data-name="Path 1608" d="M409.862,768.75v4.18h1.894v1.458h-1.894v4.506h.957v-1.371h1.328v2.829H407.62v-1.328h.674V768.618h-.674V767.29h4.528V770.1H410.82v-1.35h-.957Z" transform="translate(-401.176 -767.117)" fill="#fff"/>
        <path id="Path_1609" data-name="Path 1609" d="M450.042,772.835c0,4.9-1.154,6.7-2.786,6.7s-2.786-1.806-2.786-6.7,1.154-6.7,2.786-6.7S450.042,767.936,450.042,772.835Zm-2.786,5.137c.762,0,1.088-1.872,1.088-5.137s-.326-5.16-1.088-5.16-1.088,1.894-1.088,5.16S446.493,777.972,447.256,777.972Z" transform="translate(-432.539 -766.13)" fill="#fff"/>
        <path id="Path_1610" data-name="Path 1610" d="M491.841,779.548c-1.763,0-3.221-1.806-3.221-6.7s1.394-6.7,3.221-6.7a2.734,2.734,0,0,1,2.046,1.24l-.828,1.175s-.543-.871-1.219-.871c-1,0-1.523,1.894-1.523,5.159s.588,5.245,1.523,5.245c.436,0,.566-.631.566-.631v-3.94h-.914V772.06h2.482V778c-.611.914-1.24,1.545-2.134,1.545Z" transform="translate(-470.115 -766.139)" fill="#fff"/>
        <path id="Path_1611" data-name="Path 1611" d="M531.89,768.628V767.3h2.591c1.328,0,2.634,1.371,2.634,3.809a4,4,0,0,1-1.589,3.417,14.194,14.194,0,0,1,2.089,5.834H536a14.919,14.919,0,0,0-1.871-5.42v5.42H531.89v-1.328h.674v-10.4h-.674Zm2.482,4.854c.479,0,1.088-1.132,1.088-2.372,0-1.131-.348-2.351-1.088-2.351h-.24v4.723Z" transform="translate(-506.942 -767.126)" fill="#fff"/>
        <path id="Path_1612" data-name="Path 1612" d="M573.521,777.073c-.152,1.109-.283,2.242-.369,3.286H571.52a103.144,103.144,0,0,1,2.394-13.06h1.219a103.1,103.1,0,0,1,2.394,13.06h-1.611c-.088-1.045-.218-2.177-.369-3.286h-2.025Zm1.806-1.458c-.392-2.547-.806-4.637-.806-4.637s-.414,2.089-.806,4.637Z" transform="translate(-540.672 -767.126)" fill="#fff"/>
        <path id="Path_1613" data-name="Path 1613" d="M615.95,768.628V767.3h4.528v2.808H619.15v-1.35h-.957v4.288h1.894V774.5h-1.894v4.528h.674v1.328H615.95v-1.328h.674v-10.4h-.674Z" transform="translate(-578.486 -767.126)" fill="#fff"/>
        <path id="Path_1614" data-name="Path 1614" d="M653.957,768.628h-.674v10.405h.674v1.328H651.04v-1.328h.674V768.628h-.674V767.3h2.917Z" transform="translate(-608.351 -767.126)" fill="#fff"/>
        <path id="Path_1615" data-name="Path 1615" d="M677.321,777.073c-.152,1.109-.283,2.242-.369,3.286H675.32a103.166,103.166,0,0,1,2.394-13.06h1.22a103.1,103.1,0,0,1,2.394,13.06h-1.611c-.088-1.045-.217-2.177-.369-3.286h-2.025Zm1.806-1.458c-.391-2.547-.806-4.637-.806-4.637s-.414,2.089-.805,4.637Z" transform="translate(-629.016 -767.126)" fill="#fff"/>
      </g>
      <g id="Group_1084" data-name="Group 1084" transform="translate(8.545 14.925)">
        <path id="Path_1616" data-name="Path 1616" d="M131.351,704.764l-.063,10.578a1.336,1.336,0,0,1-.905,1.257q-.366.125-.731.252l-.012,2.671c1.706-.682,3.429-1.339,5.147-1.961l.028-2.412a1.336,1.336,0,0,1-1.668-1.307l.1-9.76q-.958.336-1.9.682Z" transform="translate(-129.64 -695.047)" fill="#dbdbdb"/>
        <path id="Path_1617" data-name="Path 1617" d="M213.458,679.908l-.168,10.722a1.334,1.334,0,0,1-.993,1.27l-.685.183-.031,2.1c1.784-.543,3.584-1.059,5.38-1.541l.036-1.927h0a1.335,1.335,0,0,1-1.645-1.322l.179-10.006q-1.043.255-2.073.52Z" transform="translate(-199.379 -674.033)" fill="#dbdbdb"/>
        <path id="Path_1618" data-name="Path 1618" d="M280.106,672.081a1.336,1.336,0,0,1-1.065,1.282c-.213.043-.426.089-.639.134l-.033,1.724c1.571-.383,3.16-.744,4.742-1.081a8.2,8.2,0,0,0,6.4-7.527c.046-2.583-.713-4.4-2.2-5.262a1.338,1.338,0,0,1-.657-.992h0q-3.214.5-6.35,1.109l-.2,10.613Zm3.353-10.015.4-.051a2.779,2.779,0,0,1,2.237.712,4.69,4.69,0,0,1,1.254,3.733c-.058,2.985-1.66,4.6-3.224,4.875l-.409.07a1.238,1.238,0,0,1-.225.02,1.336,1.336,0,0,1-1.336-1.362l.13-6.7a1.337,1.337,0,0,1,1.17-1.3Z" transform="translate(-256.225 -657.837)" fill="#dbdbdb"/>
        <path id="Path_1619" data-name="Path 1619" d="M394.208,660.248c2.56-.29,5.31-2.264,5.348-6.925l.061-6.683q-1.032.069-2.064.147l-.086,6.846c-.039,3.05-1.534,4.271-2.921,4.4a2.459,2.459,0,0,1-1.936-.655,4.581,4.581,0,0,1-1.147-3.518l.1-6.532q-1.03.107-2.055.224l-.116,6.807c-.04,2.287.509,4.013,1.589,4.994a4.03,4.03,0,0,0,3.228.9Z" transform="translate(-350.711 -646.16)" fill="#dbdbdb"/>
        <path id="Path_1620" data-name="Path 1620" d="M503.685,645.1a4.8,4.8,0,0,0,1.266-1.682q-1.108,0-2.217,0a3.028,3.028,0,0,1-2.088.934h-.411a1.321,1.321,0,0,1-1.252-.881q-1.076.024-2.155.061l-.057,10.259a1.337,1.337,0,0,1-1.292,1.328c-.144,0-.289.009-.432.015l-.007,1.126c1.278-.052,2.562-.089,3.84-.112l.01-7.8a1.335,1.335,0,0,1,2.385-.823c1.6,2.035,2.314,4.564,2.99,8.617q1.311.02,2.618.061a21.44,21.44,0,0,0-3.531-9.172,1.337,1.337,0,0,1,.328-1.935Z" transform="translate(-440.633 -643.415)" fill="#dbdbdb"/>
        <path id="Path_1621" data-name="Path 1621" d="M605.835,645.761c.082,6.34-.465,8.107-1.435,9.019a2.156,2.156,0,0,1-1.5.6c-.06,0-.121,0-.182-.007-2.536-.192-3.051-3.573-3.115-9.745-.006-.544,0-1.044,0-1.522-.883-.037-1.767-.071-2.655-.1-.016.466-.027.941-.025,1.431.039,7.384,2.253,11.823,6.077,12.177a3.5,3.5,0,0,0,2.872-.911c1.785-1.645,2.722-5.406,2.637-10.588-.007-.493-.025-.972-.049-1.438q-1.315-.116-2.645-.213c.01.417.02.846.025,1.292Z" transform="translate(-527.343 -643.921)" fill="#dbdbdb"/>
        <g id="Group_1083" data-name="Group 1083" transform="translate(85.837 1.42)">
          <path id="Path_1622" data-name="Path 1622" d="M748.059,657.911a1.336,1.336,0,0,1-2.595.47c-.174-.494-.352-.987-.528-1.481q-.839-.134-1.687-.261a1.351,1.351,0,0,1,.219.383c1.779,4.865,3.429,9.53,5.039,14.233q.717.158,1.431.323l-.267-13.841q-.806-.157-1.621-.307l.009.479Z" transform="translate(-737.723 -656.09)" fill="#dbdbdb"/>
          <path id="Path_1623" data-name="Path 1623" d="M709.517,666.659l-.232-12.293a1.328,1.328,0,0,1,.584-1.122q-1.117-.154-2.245-.293l.184,10.482a1.336,1.336,0,0,1-1.511,1.347l-.167-.022.022,1.353c1.12.17,2.245.353,3.367.548Z" transform="translate(-706.13 -652.95)" fill="#dbdbdb"/>
        </g>
        <path id="Path_1624" data-name="Path 1624" d="M827,685.365a1.337,1.337,0,0,1-1.638,1.327l-.007,0,.034,1.849c3.167.861,6.337,1.826,9.453,2.88l-.085-6.816-.878-.211.022,1.52a1.334,1.334,0,0,1-1.672,1.312q-1.122-.292-2.245-.572a1.337,1.337,0,0,1-1.014-1.274l-.122-7.5a1.335,1.335,0,0,1,1.57-1.336q1.072.19,2.146.39l0-.359q-2.783-.882-5.746-1.639L827,685.366Z" transform="translate(-721.761 -670.238)" fill="#dbdbdb"/>
        <path id="Path_1625" data-name="Path 1625" d="M923.96,729.82c.627-.417,2.087-1.952,2.092-7.2a17.649,17.649,0,0,0-.832-5.176c-1.02-.6-2.088-1.17-3.192-1.724,1.176,2.254,2.071,4.26,2.071,6.081a3.648,3.648,0,0,1-1.221,3.155,2.505,2.505,0,0,1-2.31.3c-.826-.271-2.209-1.139-2.753-3.922l-.4-.112.058,5.058a13.852,13.852,0,0,0,4.54,3.629,1.973,1.973,0,0,0,1.953-.091Z" transform="translate(-800.114 -704.954)" fill="#dbdbdb"/>
      </g>
      <g id="Group_1086" data-name="Group 1086" transform="translate(44.07 40.978)">
        <path id="Path_1626" data-name="Path 1626" d="M452.133,818.39c-.077,3.292-.56,4.663-1.61,4.663s-1.532-1.371-1.61-4.663h-.624c.094,2.549.591,5.162,2.233,5.162s2.14-2.613,2.233-5.162Z" transform="translate(-436.369 -818.39)" fill="#dbdbdb"/>
        <path id="Path_1627" data-name="Path 1627" d="M496.251,818.39V822a.529.529,0,0,1-.01.109,1.2,1.2,0,0,1-1.09,1.057c-1.534,0-1.949-2.655-2.037-4.772h-.624c.158,3.294,1.106,5.162,2.661,5.162.551,0,1.021-.342,1.6-1.175v-3.987h-.5Z" transform="translate(-473.988 -818.39)" fill="#dbdbdb"/>
        <g id="Group_1085" data-name="Group 1085" transform="translate(24.918)">
          <path id="Path_1628" data-name="Path 1628" d="M552.584,823.388h.545a13.65,13.65,0,0,0-1.913-4.988h-.4a15.261,15.261,0,0,1,1.763,4.988Z" transform="translate(-548.551 -818.398)" fill="#dbdbdb"/>
          <path id="Path_1629" data-name="Path 1629" d="M536.755,818.493a.578.578,0,0,1,.016-.1h-.515v4.195a.534.534,0,0,1-.534.534h-.141v.259h1.173v-4.885Z" transform="translate(-535.58 -818.39)" fill="#dbdbdb"/>
        </g>
        <path id="Path_1630" data-name="Path 1630" d="M620.324,818.39v4.195a.534.534,0,0,1-.535.534h-.14v.259H621.5v-.259h-.14a.534.534,0,0,1-.535-.534V818.39Z" transform="translate(-582.214 -818.39)" fill="#dbdbdb"/>
        <path id="Path_1631" data-name="Path 1631" d="M655.415,818.39v4.195a.534.534,0,0,1-.535.534h-.14v.259h1.848v-.259h-.14a.534.534,0,0,1-.535-.534V818.39Z" transform="translate(-612.08 -818.39)" fill="#dbdbdb"/>
        <path id="Path_1632" data-name="Path 1632" d="M683.162,819.087a.533.533,0,0,1-.527.615h-1.611a.533.533,0,0,1-.527-.615c.036-.236.073-.467.11-.7h-.443c-.3,1.667-.567,3.4-.744,4.988h.55c.082-.874.193-1.84.329-2.824a.533.533,0,0,1,.529-.462h2.025a.533.533,0,0,1,.528.462c.136.984.247,1.95.329,2.824h.528c-.177-1.589-.447-3.321-.744-4.988h-.442C683.089,818.618,683.124,818.85,683.162,819.087Z" transform="translate(-633.085 -818.39)" fill="#dbdbdb"/>
        <path id="Path_1633" data-name="Path 1633" d="M579.362,819.087a.533.533,0,0,1-.527.615h-1.611a.533.533,0,0,1-.527-.615c.036-.236.073-.467.11-.7h-.442c-.3,1.667-.567,3.4-.744,4.988h.549c.082-.874.194-1.84.329-2.824a.533.533,0,0,1,.529-.462h2.025a.533.533,0,0,1,.529.462c.135.984.247,1.95.329,2.824h.528c-.177-1.589-.446-3.321-.744-4.988h-.442C579.289,818.618,579.325,818.85,579.362,819.087Z" transform="translate(-544.74 -818.39)" fill="#dbdbdb"/>
        <path id="Path_1634" data-name="Path 1634" d="M411.986,818.39v4.195a.535.535,0,0,1-.534.534h-.142v.259h3.459v-1.761h-.259v.837a.535.535,0,0,1-.534.534h-.957a.534.534,0,0,1-.535-.534V818.39h-.5Z" transform="translate(-404.896 -818.39)" fill="#dbdbdb"/>
        <path id="Path_1635" data-name="Path 1635" d="M371.99,818.39V822a.525.525,0,0,1-.01.109,1.2,1.2,0,0,1-1.089,1.057c-1.534,0-1.949-2.655-2.037-4.772h-.624c.158,3.294,1.106,5.162,2.661,5.162.551,0,1.021-.342,1.6-1.175v-3.987h-.5Z" transform="translate(-368.23 -818.39)" fill="#dbdbdb"/>
      </g>
    </g>
    <g id="Group_1088" data-name="Group 1088" transform="translate(1109.139 5267.216)">
      <path id="Path_1636" data-name="Path 1636" d="M263.85,252.973a38.179,38.179,0,0,0-6.242-9.96,64.935,64.935,0,0,0-9.937-8.88,7.794,7.794,0,0,0-3.521-1.4,24.21,24.21,0,0,0-2.521-5.886c-.3-.511-.555-1.075-1.1-1.3a14.286,14.286,0,0,1,1.909-8.325,4.249,4.249,0,0,0,.8-1.971c.013-.718-.429-1.562-1.126-1.385.791-.021,1.688-.088,2.479-.107,3.463-2.223,6.985-4.955,10.232-7.487a46.371,46.371,0,0,0-34.419,2.491,58.3,58.3,0,0,0-8.115-5.664,19.53,19.53,0,0,0-9.448-2.606c-3.853.057-7.509,1.628-11.3,2.329-8.541,1.58-17.382-1.3-25.984-.1-1.845.258-3.874,1.045-4.7,2.716a24.073,24.073,0,0,0,5.062,13.124c2.906,3.693,6.821,6.437,10.676,9.126a10.13,10.13,0,0,0,3.858,1.967,7,7,0,0,0,3.3,3,6.858,6.858,0,0,0,4.394.342c-.471-.532-.913-.825-1.382-1.356,1.347.649,2.7,1.322,4.05,1.97a42.73,42.73,0,0,0-15.88,19,38.257,38.257,0,0,0,5.941-1l15.013-4.044a13.859,13.859,0,0,0,11.271.4,33.509,33.509,0,0,1,13.448,6.34c12.833-.143,25.761-.146,38.594-.289,1.837-.021,3.417,1.477,4.512,2.953.085-1.428.7-2.68.135-3.995Z" transform="translate(-160.86 -200.49)"/>
      <path id="Path_1637" data-name="Path 1637" d="M255.19,216.9q9.133-.181,18.267-.363a1.244,1.244,0,0,1,.7.124.858.858,0,0,1,.1,1.208,2.5,2.5,0,0,1-1.145.7c.709-.462,1.849-.438,2.558-.9,2.552-1.66,5.293-3.38,8.338-3.4,2.948-.016,5.637,1.569,8.154,3.1l8.589,5.238a79.73,79.73,0,0,1,9.546-3.043,51.835,51.835,0,0,1,20.126-.916,21.4,21.4,0,0,1-5.411,2.99,18.706,18.706,0,0,0-5.146,2.927,6.435,6.435,0,0,0-2.362,5.22,9.515,9.515,0,0,0,.349,1.61q.353,1.266.7,2.534a22.566,22.566,0,0,0-11.477-6.893,32.332,32.332,0,0,1,15.159,17.265,8.289,8.289,0,0,0-5.257.621,24.821,24.821,0,0,1,11.248,3.74,31.307,31.307,0,0,1,4.477,3.55,44.462,44.462,0,0,1,10.132,14.194,23.508,23.508,0,0,0-11.749-7.463,23.88,23.88,0,0,0-14.029.228c2.269,1.017,4.519,1.855,6.788,2.874.075.71,0,1.349.073,2.059-2.159-.068-4.439-.077-6.6-.146-2.1-1.968-4.185-4.121-6.285-6.09a64.226,64.226,0,0,1-5.04-5.089,16.833,16.833,0,0,1-2.1-3.052,9.26,9.26,0,0,1-.5-3.723,31.132,31.132,0,0,0-.2-6.906,13.826,13.826,0,0,0-2.472-6.136c-1.942-2.574-5.4-3.635-8.37-4.893-6-2.54-12.857-1.939-19.181-3.5a60.812,60.812,0,0,1-17.987-7.673Z" transform="translate(-241.145 -212.226)" fill="#125c2b"/>
      <path id="Path_1638" data-name="Path 1638" d="M336.9,252.216a31.327,31.327,0,0,0-4.477-3.55,24.8,24.8,0,0,0-11.248-3.74,8.291,8.291,0,0,1,5.258-.621,32.337,32.337,0,0,0-15.159-17.265c.43.107.856.229,1.279.36a2.268,2.268,0,0,0,.74-.094,5.892,5.892,0,0,0,1.079-.484l4.5-2.39c.834-.442,1.668-.886,2.47-1.382a23.9,23.9,0,0,1,12.674-3.922c.208-.153.41-.311.6-.476a51.81,51.81,0,0,0-20.126.916,79.815,79.815,0,0,0-9.546,3.044l-8.588-5.238c-2.516-1.535-5.205-3.121-8.154-3.1-3.045.016-5.786,1.736-8.338,3.4a8.006,8.006,0,0,1-1.927.619,1.613,1.613,0,0,0,.514-.424.858.858,0,0,0-.1-1.208,1.252,1.252,0,0,0-.7-.124l-17.53.348c6.861,2.165,13.828,7.4,19.83,4.236,2.406-1.267,5.375-2.43,7.8-3.655a9.352,9.352,0,0,0,4.669,4.626c1.992,1.026,4.16,1.669,6.179,2.638A21.294,21.294,0,0,1,310.094,239.6c.433,2.223.5,4.509,1.035,6.711a8.8,8.8,0,0,0,3.545,5.59c2.375,1.467,5.389,1.082,8.18,1.068a28.672,28.672,0,0,1,23.435,12.6c.252.275.5.555.737.846a44.428,44.428,0,0,0-10.132-14.194Z" transform="translate(-245.341 -212.217)" fill="#1e7833"/>
      <path id="Path_1639" data-name="Path 1639" d="M299.066,218c2.268-.8,4.519-1.983,6.919-1.83,2.227.143,4.2,1.416,6.065,2.65A90.791,90.791,0,0,1,321.887,226a45.662,45.662,0,0,1,12.086,16.9,17.874,17.874,0,0,0,2.561,4.984c1.218,1.428,3.215,2.387,4.989,1.779,5.323-1.824,11.026,2.683,15.307,6.334a28.927,28.927,0,0,1,7.42,9.8c.183.2.366.408.54.621a44.431,44.431,0,0,0-10.132-14.194,31.322,31.322,0,0,0-4.477-3.55,24.8,24.8,0,0,0-11.248-3.74,8.289,8.289,0,0,1,5.257-.621,32.337,32.337,0,0,0-15.159-17.265c.11.027.217.062.326.092a30.82,30.82,0,0,1-2.769-1.644,62.274,62.274,0,0,1,19.255-6.23,15.884,15.884,0,0,1,4.576-.1c.451-.027.9-.042,1.355-.033.208-.153.41-.311.6-.476a51.808,51.808,0,0,0-20.126.916,79.833,79.833,0,0,0-9.546,3.043l-8.588-5.238c-2.516-1.535-5.206-3.121-8.154-3.1-3.045.016-5.786,1.736-8.338,3.4a8.009,8.009,0,0,1-1.927.619,1.612,1.612,0,0,0,.514-.424.858.858,0,0,0-.1-1.208,1.253,1.253,0,0,0-.7-.124l-14.422.286A23.366,23.366,0,0,0,299.063,218Z" transform="translate(-263.103 -212.226)" fill="#3e9850"/>
      <path id="Path_1640" data-name="Path 1640" d="M224.655,273.372a23.287,23.287,0,0,1,14.963-2.722,11.667,11.667,0,0,0-7.516-1.815,31.917,31.917,0,0,0-7.53,1.723,36.925,36.925,0,0,1-7.5,1.845,9.591,9.591,0,0,1-3.527-.209,5.039,5.039,0,0,1-2.871-1.964A28.867,28.867,0,0,0,230.2,256.141a6.808,6.808,0,0,0,1.117-3.389,2.76,2.76,0,0,0-1.949-2.716,5.125,5.125,0,0,1,4.315,1.149,20.948,20.948,0,0,0-8.433-5.406c-4.666-1.571-9.723-1.431-14.631-1.021a30.222,30.222,0,0,0-9.284,1.876,11.837,11.837,0,0,0-6.68,6.4,33.669,33.669,0,0,1-15.662-16.593,7.355,7.355,0,0,1-.685-2.262,2.927,2.927,0,0,1,.634-2.219,3.819,3.819,0,0,1,2.484-1.016,17.078,17.078,0,0,1,7.153.916,51.084,51.084,0,0,1,6.653,2.906,70.555,70.555,0,0,0,20.217,6.082c4.175.672,8.456,1.007,12.412,2.5s7.656,4.421,8.785,8.5a28.829,28.829,0,0,1,.622,7.192,12.7,12.7,0,0,0,.774,5.256,14.97,14.97,0,0,0,3.35,4.145c2.458,2.458,4.991,4.845,7.385,7.366q.587.619,1.16,1.255c.162.182.917,1.292,1.117,1.292l-15.332-.1a18.981,18.981,0,0,0-11.065-4.885Z" transform="translate(-175.693 -226.343)" fill="#e4e4e4"/>
      <path id="Path_1641" data-name="Path 1641" d="M243.681,273.809c-1.158-1.144-3.279-3.737-4.421-4.9-3.347-3.4-3.694-6.334-4-10.752-.144-2.071.1-4.157-.073-6.227a15.453,15.453,0,0,0-1.089-4.51,16.521,16.521,0,0,0-6.24-4.071c-3.956-1.5-8.235-1.831-12.412-2.5a70.509,70.509,0,0,1-20.217-6.082,51.061,51.061,0,0,0-6.653-2.906,17.079,17.079,0,0,0-7.153-.916,3.812,3.812,0,0,0-2.484,1.016,2.927,2.927,0,0,0-.634,2.219,7.339,7.339,0,0,0,.685,2.262,34.542,34.542,0,0,0,8.371,11.617c.252.158.508.307.77.438a8.247,8.247,0,0,0,5.666,1.051,15.764,15.764,0,0,0,4.534-2.272A27.748,27.748,0,0,1,222.234,245a22.563,22.563,0,0,1,3.011.777,20.933,20.933,0,0,1,8.434,5.406,5.115,5.115,0,0,0-4.315-1.149,2.761,2.761,0,0,1,1.949,2.716,6.8,6.8,0,0,1-1.117,3.389,28.867,28.867,0,0,1-19.526,14.089,4.154,4.154,0,0,0,.724.817,11.758,11.758,0,0,0,5.954-.124,33.063,33.063,0,0,0,6.483-2.719c2.7-1.364,5.54-2.854,7.1-5.445a3.4,3.4,0,0,1-.509,2.134,6.764,6.764,0,0,1-1.257,1.686c1.091.712,2.053,1.51,3.111,2.244a11.581,11.581,0,0,1,7.341,1.824,23,23,0,0,0-5.007-.223c.171.128.341.259.506.395a26.3,26.3,0,0,1,3.143,3.255q.735.853,1.468,1.706l2.162,2.513,6.7.043c-1.566-1.575-3.318-2.965-4.9-4.531Z" transform="translate(-175.693 -226.343)" fill="#fff"/>
      <path id="Path_1642" data-name="Path 1642" d="M394.111,237.068q-.893-2.175-1.785-4.349c.475.268.974.487,1.449.753a3,3,0,0,0-2.568-2.107,4.839,4.839,0,0,0-3.3.956,14.049,14.049,0,0,0-2.506,2.452,15.152,15.152,0,0,1-2.484,2.478,4.977,4.977,0,0,1-3.276,1.054,6.877,6.877,0,0,0,4.095-.125c1.371-.348,2.692-.889,4.075-1.185a12.6,12.6,0,0,1,6.3.073Z" transform="translate(-347.064 -226.744)"/>
      <path id="Path_1643" data-name="Path 1643" d="M577.787,322.677a17.917,17.917,0,0,0-2.047-15.417,11.8,11.8,0,0,1,4.145,7.254A12.015,12.015,0,0,1,577.787,322.677Z" transform="translate(-513.966 -291.362)"/>
      <path id="Path_1644" data-name="Path 1644" d="M602.459,334.08a11.48,11.48,0,0,1-.719,12.367,21.276,21.276,0,0,0,2.525-2.914A7.1,7.1,0,0,0,605.656,340,6.939,6.939,0,0,0,602.459,334.08Z" transform="translate(-536.094 -314.189)"/>
      <path id="Path_1645" data-name="Path 1645" d="M621.96,364.73a7.519,7.519,0,0,1-2.42,7.253,7.978,7.978,0,0,0,3.076-3.14A3.652,3.652,0,0,0,621.96,364.73Z" transform="translate(-551.244 -340.275)"/>
      <path id="Path_1646" data-name="Path 1646" d="M301.495,380.574a15.238,15.238,0,0,1-2.6-.962,5.091,5.091,0,0,1-2.062-1.811,3.089,3.089,0,0,1-.316-2.664c.207-.532,1.057-.472,1.568-.216a3.179,3.179,0,0,1,1.185,1.206,18.149,18.149,0,0,1,1.556,3.428c.133.354.539.666.672,1.02Z" transform="translate(-276.167 -348.787)" fill="#fff"/>
      <path id="Path_1647" data-name="Path 1647" d="M316.575,357.683a4.692,4.692,0,0,0,1.785,3.95,6.3,6.3,0,0,1-5.3-3.515,2.977,2.977,0,0,1-.305-1.745,1.49,1.49,0,0,1,1.151-1.231,1.853,1.853,0,0,1,1.377.506C315.9,356.15,316.626,356.891,316.575,357.683Z" transform="translate(-290.107 -332.104)" fill="#fff"/>
      <path id="Path_1648" data-name="Path 1648" d="M339.732,346.97a6.485,6.485,0,0,0,.954,4.391,8.873,8.873,0,0,1-4.317-3.81,3.749,3.749,0,0,1-.485-1.352,1.736,1.736,0,0,1,.377-1.352,1.343,1.343,0,0,1,.575-.377,1.835,1.835,0,0,1,1.811.552,6.816,6.816,0,0,1,1.087,1.948Z" transform="translate(-309.813 -322.972)" fill="#fff"/>
      <path id="Path_1649" data-name="Path 1649" d="M365.7,341.519a13.8,13.8,0,0,1-2.909-1.925,4.66,4.66,0,0,1-1.577-3.029,1.573,1.573,0,0,1,.685-1.545,1.526,1.526,0,0,1,1.4.168,3.157,3.157,0,0,1,1.464,1.94c.371,1.473.3,3.011.939,4.389Z" transform="translate(-331.381 -314.898)" fill="#fff"/>
      <path id="Path_1650" data-name="Path 1650" d="M391.144,337.89a15.9,15.9,0,0,1-.287-4.331,1.888,1.888,0,0,0-.791-1.443,1.268,1.268,0,0,0-1.538-.119,1.666,1.666,0,0,0-.5,1.316,5.038,5.038,0,0,0,3.121,4.577Z" transform="translate(-354.2 -312.238)" fill="#fff"/>
      <path id="Path_1651" data-name="Path 1651" d="M412.93,334.585a11.423,11.423,0,0,1,.024-4.044c.072-.386-.338-.852-.658-1.079a1.237,1.237,0,0,0-1.123-.155,1.485,1.485,0,0,0-.875,1,2.447,2.447,0,0,0,.058,1.364A6.24,6.24,0,0,0,412.93,334.585Z" transform="translate(-373.096 -310.066)" fill="#fff"/>
      <path id="Path_1652" data-name="Path 1652" d="M434.86,329.8q.058,1.992.118,3.986a6.292,6.292,0,0,1-1.933-1.946,3.356,3.356,0,0,1-.453-1.164,1.776,1.776,0,0,1,.211-1.212,1.1,1.1,0,0,1,2.056.336Z" transform="translate(-392.11 -309.758)" fill="#fff"/>
      <path id="Path_1653" data-name="Path 1653" d="M453.614,335.67q-.011-1.642-.021-3.285c0-.377-.419-.752-.74-.949a1.074,1.074,0,0,0-1.075-.048,1.133,1.133,0,0,0-.514.874,2.313,2.313,0,0,0,.174,1.029,4.651,4.651,0,0,0,2.177,2.375Z" transform="translate(-408.017 -311.794)" fill="#fff"/>
      <path id="Path_1654" data-name="Path 1654" d="M473.873,333.907a3.021,3.021,0,0,0,.069-1.3,1.041,1.041,0,0,0-.884-.841.969.969,0,0,0-.828.5,1.937,1.937,0,0,0-.219.983,3.917,3.917,0,0,0,1.492,3.033c-.185-.143.074-.9.107-1.063l.264-1.316Z" transform="translate(-425.681 -312.22)" fill="#fff"/>
      <path id="Path_1655" data-name="Path 1655" d="M489.611,337.128a4.307,4.307,0,0,0,.213,1.6,1.7,1.7,0,0,0,1.123,1.078c.127-.451.22-.943.347-1.4a3.526,3.526,0,0,0,.194-1.3,1.2,1.2,0,0,0-.719-1.03.893.893,0,0,0-.823.14,1.3,1.3,0,0,0-.335.913Z" transform="translate(-440.66 -315.846)" fill="#fff"/>
      <path id="Path_1656" data-name="Path 1656" d="M505.338,377.087a2.845,2.845,0,0,0,1.133,1,1.323,1.323,0,0,0,.687.135.746.746,0,0,0,.579-.357.815.815,0,0,0-.168-.9,2.2,2.2,0,0,0-.831-.5,9.618,9.618,0,0,0-2.047-.692,4.038,4.038,0,0,0,.649,1.328Z" transform="translate(-453.495 -349.663)" fill="#fff"/>
      <path id="Path_1657" data-name="Path 1657" d="M497.926,389.7a1.293,1.293,0,0,0,1.1.442.93.93,0,0,0,.6-1.117,1.7,1.7,0,0,0-.893-1.033,12.193,12.193,0,0,0-1.306-.519c-.317-.127-.648-.459-.95-.536-.107.4.292,1.145.48,1.5a4.794,4.794,0,0,0,.968,1.264Z" transform="translate(-446.49 -359.178)" fill="#fff"/>
      <path id="Path_1658" data-name="Path 1658" d="M483.09,395.79a7.406,7.406,0,0,0,1.082,2.893,2.116,2.116,0,0,0,1.376,1.094,1.213,1.213,0,0,0,1.315-1.566c-1.246-.794-2.525-1.626-3.771-2.419Z" transform="translate(-435.111 -366.71)" fill="#fff"/>
      <path id="Path_1659" data-name="Path 1659" d="M467.654,407.13a6.6,6.6,0,0,1,1.126.774,2.2,2.2,0,0,1,.7,1.146,1.231,1.231,0,0,1-1.441,1.549,2.226,2.226,0,0,1-.905-.392,4.267,4.267,0,0,1-1.316-1.534,4.787,4.787,0,0,1-.615-2.964,5.362,5.362,0,0,1,1.2.683l1.246.736Z" transform="translate(-419.839 -375.153)" fill="#fff"/>
      <path id="Path_1660" data-name="Path 1660" d="M445.385,412.3a6.19,6.19,0,0,0,2.3,2.107,8.234,8.234,0,0,1,2.436,1.965,1.349,1.349,0,0,1-.121,1.374,1.4,1.4,0,0,1-1.158.675,2.284,2.284,0,0,1-1.5-.7A6.429,6.429,0,0,1,445.385,412.3Z" transform="translate(-402.988 -380.762)" fill="#fff"/>
      <path id="Path_1661" data-name="Path 1661" d="M418.239,423.44l1.44,1.1a19.907,19.907,0,0,0,3.583,2.344,4.546,4.546,0,0,1,.043,2.154,1.053,1.053,0,0,1-.523.77,1.07,1.07,0,0,1-.806-.1,6.334,6.334,0,0,1-2.935-2.606,5.759,5.759,0,0,1-.8-3.657Z" transform="translate(-379.885 -390.243)" fill="#fff"/>
      <path id="Path_1662" data-name="Path 1662" d="M395.442,438.369a32.351,32.351,0,0,0,4.552,2.749,1.811,1.811,0,0,1,.671,2.023,1.677,1.677,0,0,1-1.61,1.3,1.882,1.882,0,0,1-1.048-.423,4.852,4.852,0,0,1-.789-.829q-.619-.775-1.172-1.6a4.3,4.3,0,0,1-.673-1.428,3.752,3.752,0,0,1-.1-.99,3.622,3.622,0,0,1,.054-.5,2.08,2.08,0,0,1,.11-.292Z" transform="translate(-360.371 -402.95)" fill="#fff"/>
      <path id="Path_1663" data-name="Path 1663" d="M373,447.331a7.466,7.466,0,0,0,.877,3.87,5.382,5.382,0,0,0,1.5,1.434,2.781,2.781,0,0,0,1.03.484,1.178,1.178,0,0,0,1.062-.284,1.207,1.207,0,0,0,.281-.932,3.6,3.6,0,0,0-.265-.963c-.35-.922-1.534-1.255-2.412-1.7A3.829,3.829,0,0,1,373,447.33Z" transform="translate(-341.413 -410.576)" fill="#fff"/>
      <path id="Path_1664" data-name="Path 1664" d="M258.584,279.953a1.735,1.735,0,0,0,.685.091.75.75,0,0,0,.575-.344.786.786,0,0,0-.115-.838,2.307,2.307,0,0,0-.706-.544l-2.64-1.535c-.319-.185-1.12-.527-1.2.085-.049.377.542,1.029.759,1.3a5.379,5.379,0,0,0,2.64,1.785Z" transform="translate(-241.137 -265.199)"/>
      <path id="Path_1665" data-name="Path 1665" d="M218.993,298.879a.537.537,0,0,0,.4.213.356.356,0,0,0,.275-.369.944.944,0,0,0-.176-.468c-.25-.4-1.641-2.321-2.178-1.784C216.709,297.082,218.648,298.535,218.993,298.879Z" transform="translate(-208.812 -282.1)"/>
      <path id="Path_1666" data-name="Path 1666" d="M421.419,248.4s-.006.012-.009.016a11.119,11.119,0,0,1,5.835-.822c.1.013-.034-.9-.06-.972a1.694,1.694,0,0,0-.484-.7,2.1,2.1,0,0,0-1.672-.539,3.709,3.709,0,0,0-1.93.91,6.568,6.568,0,0,0-1.681,2.108Z" transform="translate(-382.615 -238.688)" fill="#fff"/>
      <path id="Path_1667" data-name="Path 1667" d="M292.536,448.391a4.494,4.494,0,0,1-1.386-3.471,9.824,9.824,0,0,1-2.792-7.481,28.38,28.38,0,0,0-13.078,15.065c1.633-.47,4.984-1.459,6.615-1.93a53.934,53.934,0,0,1,10.64-2.186Z" transform="translate(-258.243 -402.159)" fill="#125c2b"/>
      <path id="Path_1668" data-name="Path 1668" d="M289.893,443.349a9.9,9.9,0,0,1-1.535-5.919A28.381,28.381,0,0,0,275.28,452.5l1.952-.567a80.483,80.483,0,0,1,12.662-8.579Z" transform="translate(-258.243 -402.15)" fill="#1e7833"/>
      <path id="Path_1669" data-name="Path 1669" d="M296.939,440.332a9.393,9.393,0,0,1-.258-2.892,28.516,28.516,0,0,0-11.621,11.776,35.991,35.991,0,0,1,11.877-8.885Z" transform="translate(-266.567 -402.159)" fill="#3e9850"/>
    </g>
    <path id="Path_1670" data-name="Path 1670" d="M551.385,558.76H560.5a13.22,13.22,0,0,0-4.616,3.517c-1.4-.858-3.009-1.663-4.412-2.521a1.41,1.41,0,0,1-.533-.467C550.823,559.08,551.178,558.881,551.385,558.76Z" transform="translate(616.301 4761.801)"/>
    <path id="Path_1671" data-name="Path 1671" d="M270.6,516.421l19.021-4.681,7.156,1.254,4.869-.857,5.149,1.944,5.7,3.329-23.6,1.331-6.34,1.239-10.4-1.569Z" transform="translate(854.879 4801.82)"/>
  </g>
</svg>
