<svg id="Group_140" data-name="Group 140" xmlns="http://www.w3.org/2000/svg" width="42.647" height="48.664" viewBox="0 0 42.647 48.664">
  <path id="Path_729" data-name="Path 729" d="M19.289,72.636,12.546,85.315,8.361,78.427H0l7.039-12.7a18.01,18.01,0,0,0,12.25,6.906" transform="translate(0 -36.651)" fill="#e81c1b"/>
  <path id="Path_730" data-name="Path 730" d="M72.089,78.427H63.732l-4.185,6.888L52.8,72.636A18.02,18.02,0,0,0,65.054,65.73Z" transform="translate(-29.441 -36.651)" fill="#e81c1b"/>
  <path id="Path_731" data-name="Path 731" d="M25.45,0A18.051,18.051,0,1,0,43.5,18.05,18.052,18.052,0,0,0,25.45,0M13.063,18.05A12.387,12.387,0,1,1,25.45,30.437,12.389,12.389,0,0,1,13.063,18.05" transform="translate(-4.126)" fill="#fec001"/>
  <path id="Path_732" data-name="Path 732" d="M44.974,25.187A12.387,12.387,0,1,1,32.587,12.8,12.384,12.384,0,0,1,44.974,25.187" transform="translate(-11.264 -7.137)" fill="#fec001"/>
  <path id="Path_733" data-name="Path 733" d="M44.974,25.187A12.387,12.387,0,1,1,32.587,12.8,12.384,12.384,0,0,1,44.974,25.187" transform="translate(-11.264 -7.137)" fill="#ffa401"/>
  <ellipse id="Ellipse_60" data-name="Ellipse 60" cx="12.387" cy="12.387" rx="12.387" ry="12.387" transform="translate(8.936 5.663)" fill="none" stroke="#e09001" stroke-miterlimit="10" stroke-width="1"/>
</svg>
