<svg xmlns="http://www.w3.org/2000/svg" xmlns:xlink="http://www.w3.org/1999/xlink" width="774.959" height="784.903" viewBox="0 0 774.959 784.903">
  <defs>
    <filter id="Ellipse_81" x="378.48" y="0" width="224.519" height="224.519" filterUnits="userSpaceOnUse">
      <feOffset dy="3" input="SourceAlpha"/>
      <feGaussianBlur stdDeviation="3" result="blur"/>
      <feFlood flood-opacity="0.161"/>
      <feComposite operator="in" in2="blur"/>
      <feComposite in="SourceGraphic"/>
    </filter>
    <filter id="Path_3598" x="106.809" y="142.299" width="511.33" height="515.163" filterUnits="userSpaceOnUse">
      <feOffset dy="3" input="SourceAlpha"/>
      <feGaussianBlur stdDeviation="3" result="blur-2"/>
      <feFlood flood-opacity="0.161"/>
      <feComposite operator="in" in2="blur-2"/>
      <feComposite in="SourceGraphic"/>
    </filter>
  </defs>
  <g id="Group_1994" data-name="Group 1994" transform="translate(1.409 6)">
    <path id="Path_3596" data-name="Path 3596" d="M571.3,80.1a349.373,349.373,0,0,0-65.791-43.072A349.264,349.264,0,0,0,27.421,213.109a345.826,345.826,0,0,0-25.193,96A354.042,354.042,0,0,0,0,348.9,347.619,347.619,0,0,0,21.544,469.861c.286.773.572,1.547.866,2.32A345.539,345.539,0,0,0,49.336,527.95l.186.309H61.368l-.186-.309A339.325,339.325,0,0,1,12.922,304.8c21.69-166.085,164.1-294.743,336.012-294.743,83.12,0,161.283,29.663,222.364,83.035.131.108.263.216.387.34V80.415Z" transform="translate(772.142 339.558) rotate(130)" fill="#5a1024" stroke="#5a1024" stroke-width="2"/>
    <g transform="matrix(1, 0, 0, 1, -1.41, -6)" filter="url(#Ellipse_81)">
      <ellipse id="Ellipse_81-2" data-name="Ellipse 81" cx="73.294" cy="73.294" rx="73.294" ry="73.294" transform="translate(594 100.23) rotate(130)" fill="#ffc94d"/>
    </g>
    <g transform="matrix(1, 0, 0, 1, -1.41, -6)" filter="url(#Path_3598)">
      <path id="Path_3598-2" data-name="Path 3598" d="M367.078,80.219v225.7c0,16.04-15.392,29.134-34.763,30.014h-.17q-.94.049-1.9.049H47.7a2.2,2.2,0,0,1-.187-.22,205.042,205.042,0,0,1-45.428-160.4C16.3,76.217,101.581,0,204.64,0A204.2,204.2,0,0,1,366.8,79.84,3.354,3.354,0,0,0,367.078,80.219Z" transform="translate(609.14 364.26) rotate(130)" fill="#fefefe"/>
    </g>
  </g>
</svg>
