<svg xmlns="http://www.w3.org/2000/svg" xmlns:xlink="http://www.w3.org/1999/xlink" width="547.918" height="551.697" viewBox="0 0 547.918 551.697">
  <defs>
    <filter id="Ellipse_81" x="79.165" y="349.409" width="163.794" height="163.794" filterUnits="userSpaceOnUse">
      <feOffset dy="3" input="SourceAlpha"/>
      <feGaussianBlur stdDeviation="3" result="blur"/>
      <feFlood flood-opacity="0.161"/>
      <feComposite operator="in" in2="blur"/>
      <feComposite in="SourceGraphic"/>
    </filter>
    <filter id="Path_3598" x="108.477" y="95.866" width="366.271" height="368.977" filterUnits="userSpaceOnUse">
      <feOffset dy="3" input="SourceAlpha"/>
      <feGaussianBlur stdDeviation="3" result="blur-2"/>
      <feFlood flood-opacity="0.161"/>
      <feComposite operator="in" in2="blur-2"/>
      <feComposite in="SourceGraphic"/>
    </filter>
  </defs>
  <g id="Group_3676" data-name="Group 3676" transform="translate(1.409 1.409)">
    <path id="Path_3596" data-name="Path 3596" d="M403.313,316.383a246.644,246.644,0,0,1-46.445,30.407,246.962,246.962,0,0,1-206.422,6.78A246.215,246.215,0,0,1,1.572,154.709,249.939,249.939,0,0,1,0,126.617a245.4,245.4,0,0,1,15.209-85.39c.2-.546.4-1.092.611-1.638A243.936,243.936,0,0,1,34.829.218L34.96,0h8.363l-.131.218A239.55,239.55,0,0,0,9.122,157.755C24.435,275,124.974,365.831,246.333,365.831a237.37,237.37,0,0,0,156.98-58.619c.093-.076.186-.153.273-.24v9.188Z" transform="translate(285.68 0) rotate(50)" fill="#5a1024" stroke="#5a1024" stroke-width="2"/>
    <g transform="matrix(1, 0, 0, 1, -1.41, -1.41)" filter="url(#Ellipse_81)">
      <ellipse id="Ellipse_81-2" data-name="Ellipse 81" cx="51.743" cy="51.743" rx="51.743" ry="51.743" transform="translate(167.44 355.41) rotate(50)" fill="#ffc94d"/>
    </g>
    <g transform="matrix(1, 0, 0, 1, -1.41, -1.41)" filter="url(#Path_3598)">
      <path id="Path_3598-2" data-name="Path 3598" d="M259.142,180.558V21.224C259.142,9.9,248.276.656,234.6.035h-.12Q233.817,0,233.142,0H33.673a1.555,1.555,0,0,0-.132.155,144.467,144.467,0,1,0,225.407,180.67A2.368,2.368,0,0,1,259.142,180.558Z" transform="translate(299.17 101.87) rotate(50)" fill="#fefefe"/>
    </g>
  </g>
</svg>
