<svg xmlns="http://www.w3.org/2000/svg" width="134.134" height="145.661" viewBox="0 0 134.134 145.661">
  <g id="Group_3934" data-name="Group 3934" transform="translate(-1167.104 -2868.902)">
    <path id="Path_67" data-name="Path 67" d="M530.973,341.716a20.3,20.3,0,0,0,4.942.651A18.184,18.184,0,0,0,535.576,306c-8.148.076-20.157,7.295-31.76,14.681l-6.057,3.856,6.13,3.744C513.441,334.114,523.257,339.829,530.973,341.716Zm4.685-27.052a9.52,9.52,0,0,1,.177,19.039c-4.866.047-14.369-5.054-21.623-9.32C521.385,319.984,530.79,314.708,535.657,314.664Z" transform="translate(704.629 2563.402)" fill="#5a1024" stroke="rgba(0,0,0,0)" stroke-width="1"/>
    <path id="Path_68" data-name="Path 68" d="M534.7,384.958a24.21,24.21,0,0,0-12.946.406c.585-1.644,1.135-3.295,1.632-4.958a110.021,110.021,0,0,0,4.335-22.795l.019-.214-.352-.054c.117.016.235.035.353.053v0s.039,0,.133,0c.3.067.6.135.9.2a117.437,117.437,0,0,0,58.869-2.5l-2.131-6.982a110.508,110.508,0,0,1-56.76,2.036c-.442-.1-.883-.209-1.323-.316l0,0s-2.424-.571-2.548-.65v0a34.493,34.493,0,0,1-5.617-.035c-9.941-1.015-22.644-3.849-35.384-16.15a16.175,16.175,0,1,0-22.139,3.81,16.068,16.068,0,0,0,12.129,2.5c.28-.049.541-.1.817-.164a14.758,14.758,0,0,0,2.525-.853c14.777,14.755,29.625,18.085,41.194,19.265q.408.045.814.077a101.637,101.637,0,0,1-63.152,85.295l3.17,7.827a109.545,109.545,0,0,0,56.5-51.442l2.683-2.478a15.588,15.588,0,1,1,6.868,26.609l-4.108-1-2.006,8.2,4.109,1A24.029,24.029,0,1,0,534.7,384.958ZM472.285,331.02A7.723,7.723,0,0,1,469,315.933l.4-.1a7.728,7.728,0,0,1,2.892,15.183Z" transform="translate(712.965 2563.162)" fill="#5a1024" stroke="rgba(0,0,0,0)" stroke-width="1"/>
  </g>
</svg>
