<svg xmlns="http://www.w3.org/2000/svg" width="173.526" height="175.039" viewBox="0 0 173.526 175.039">
  <g id="Group_3954" data-name="Group 3954" transform="translate(-2481 -5238)">
    <rect id="Rectangle_211" data-name="Rectangle 211" width="173" height="172" transform="translate(2481 5238)" fill="none"/>
    <g id="Group_1312" data-name="Group 1312" transform="translate(2495.08 5261.447)">
      <path id="Path_3276" data-name="Path 3276" d="M363.578,156.22a17.666,17.666,0,0,1-3.016,8.859,3.424,3.424,0,0,0,2.6-1.09,13.072,13.072,0,0,1-4.34,5.118,9.495,9.495,0,0,0,3.876-1.543,27.937,27.937,0,0,1-3.13,3.861,58.386,58.386,0,0,1-8.658,7.548,9.339,9.339,0,0,1,4.605,3.625,18.2,18.2,0,0,1,3.055,6.364,9.128,9.128,0,0,1-3.686-.214,21.674,21.674,0,0,1-4.84,20.825,11.453,11.453,0,0,1,.275,7.773,18.862,18.862,0,0,1-7.051,9.724,9.579,9.579,0,0,0,.251-6.013c-2.258,4.948-6.29,9-10.714,12.16a71.957,71.957,0,0,1-14.419,7.559,12.589,12.589,0,0,0-2.55-13.466,36.968,36.968,0,0,1-5.676,1.406,12.444,12.444,0,0,1-5.822.029,1.97,1.97,0,0,0,1.2,1.565,19.187,19.187,0,0,1-9.139-1.732,5.142,5.142,0,0,0,.026,3.05c-2.621-3.171-4.986-5.785-6.531-9.6s-1.83-8.359.252-11.906a3.986,3.986,0,0,0-.649-4.3,16.032,16.032,0,0,1-10.076-4.856,15.373,15.373,0,0,1-4.192-10.111,9.982,9.982,0,0,1,2.1-5.382,6.251,6.251,0,0,1,1.438-3.823,6.173,6.173,0,0,1,3.413-2.194,4.036,4.036,0,0,1-1.446-3.976,7.182,7.182,0,0,1,2.163-4.008,21.311,21.311,0,0,1,3.707-2.769c-.694-3.77-1.261-7.516-1.956-11.287a72.317,72.317,0,0,0,9.574,7.522,24.252,24.252,0,0,1,8.763-1.877c-.4.657-.569,1.335-.966,1.991a32.305,32.305,0,0,1,17.887-1.321c3.309.68,6.5,1.887,9.831,2.447a34.771,34.771,0,0,0,10.722-.063,51.181,51.181,0,0,0,23.126-9.9Z" transform="translate(-245.215 -156.22)"/>
      <g id="Group_1309" data-name="Group 1309" transform="translate(0 56.257)">
        <path id="Path_3277" data-name="Path 3277" d="M230.273,524.621a5.827,5.827,0,0,0,1.819-4.482,73.175,73.175,0,0,0-1.229-9.664,5.392,5.392,0,0,0-5.742-4.162,38.466,38.466,0,0,0-7.887,1.219c-5.515,1.457-9.663,3.931-12.354,7.042-4.128-2.465-9.243-2.57-13.982-1.957a32.334,32.334,0,0,0-10.093,2.973,8.15,8.15,0,0,0-5.052-1.091,231.9,231.9,0,0,1-24.175.262,9.2,9.2,0,0,0-4.392.784,9.357,9.357,0,0,0-4.263-1.3q-4.093-.323-8.175-.789c-2.724-.317-5.284.437-6.172,2.107-.81,1.523-1.585,3.161-2.324,4.9q.092-1.847.246-3.572c.158-1.827-1.372-3.53-3.809-4.447a69.752,69.752,0,0,0-9.539-2.9c-12.6-3.428-24.921,3.373-24.652,19.332a26.4,26.4,0,0,0,6.312,17.088,21.246,21.246,0,0,0,16.259,7.305,29.2,29.2,0,0,0,7.834-1.009c0,.083,0,.165,0,.249.026.474.05.948.075,1.422a6.233,6.233,0,0,0,2.144,4.325q.07,1.574.13,3.157a5.74,5.74,0,0,0-1.771,4.36c.014.484.026.966.039,1.45a6.07,6.07,0,0,0,6.026,5.957h6.184a6.07,6.07,0,0,0,.768-.055,6.05,6.05,0,0,0,.768.055h5.9a5.935,5.935,0,0,0,2.5-.549,5.949,5.949,0,0,0,2.5.549h3.092a5.948,5.948,0,0,0,1.909-.318,19.411,19.411,0,0,0,4.625.539,12.884,12.884,0,0,0,5.939-1.374,5.919,5.919,0,0,0,3.511,1.154h6.206a5.939,5.939,0,0,0,1.875-.305,5.922,5.922,0,0,0,1.874.305h9.846a5.93,5.93,0,0,0,3.256-.972,14.483,14.483,0,0,0,5.909,1.17,18.463,18.463,0,0,0,5.957-1.006,6.122,6.122,0,0,0,4.088-6.047q-.048-1.1-.09-2.193a5.71,5.71,0,0,0-1.384-3.542,6.2,6.2,0,0,0,1.729-3.969q.094-1.93.194-3.846a5.284,5.284,0,0,0-.95-3.348c.127-.1.257-.191.382-.292a5.556,5.556,0,0,0,3.674,3.1,31.29,31.29,0,0,0,8.446,1.061c10.079-.043,18.533-7.941,19.319-18.711.28-4.7-1.245-7.865-3.3-9.955Z" transform="translate(-88.493 -506.303)"/>
        <g id="Group_1307" data-name="Group 1307" transform="translate(6.308 5.495)">
          <path id="Path_3278" data-name="Path 3278" d="M153.246,572.506c.108,3.523.28,7.178.471,10.924a22.871,22.871,0,0,1-10.085,2.134c-9.333-.088-15.512-7.165-15.877-18.024-.228-11.76,7.715-17.308,17.514-15.4a47.835,47.835,0,0,1,8.07,2.176c-.275,2.579-.424,5.332-.484,8.228q-2.676-.2-5.356-.435a25.427,25.427,0,0,1-.344-3.41,12.817,12.817,0,0,0-2.8-.627c-5.425-.678-9.322,2.527-9.221,9.409.138,6.36,3.378,10.617,8.814,10.75a7.442,7.442,0,0,0,2.751-.378c-.1-1.869-.182-3.714-.244-5.529a18.884,18.884,0,0,1-3.69-.82q-.084-2.446-.109-4.827,6.344.439,12.658.771.022,2.329.092,4.757C154.673,572.318,153.982,572.437,153.246,572.506Z" transform="translate(-127.75 -549.958)" fill="#fff"/>
          <path id="Path_3279" data-name="Path 3279" d="M326.543,603.824c-.042-1.678-.082-3.334-.119-4.961.855-.14,1.965-.373,2.822-.463q-.479-1.5-.959-2.966-4.78-.06-9.568-.154-.412,1.47-.813,2.978c.906.114,1.989.378,2.852.538q.072,2.456.154,4.986-5.72-.048-11.453-.119-.121-2.56-.23-5.059a7.245,7.245,0,0,1,2.092-.411c2.362-9.422,5.076-17.942,8.324-24.4q4.148.364,8.3.615c2.537,6.592,5.6,14.855,8.551,24.1a7.509,7.509,0,0,1,2.062.45c.014,1.614.03,3.259.047,4.927q-6.026-.017-12.06-.056Zm-1.888-19.359A28.632,28.632,0,0,1,323.4,579.8c-.029,0-.058,0-.087,0a40.442,40.442,0,0,1-1.475,4.906c-.562,1.573-1.11,3.207-1.647,4.892q3.184.091,6.367.16-.964-2.721-1.9-5.291Z" transform="translate(-280.067 -568.44)" fill="#fff"/>
          <path id="Path_3280" data-name="Path 3280" d="M504.393,586.449q-2.533.073-5.065.119c-.22-1.073-.4-2.038-.5-2.973q-1.728.039-3.455.063c.035,5.425,0,11.9-.043,18.972a27.689,27.689,0,0,1,3.723.57q-.027,2.423-.056,4.93-7.029.022-14.053.011-.015-2.5-.027-4.922a28.133,28.133,0,0,1,3.727-.58c-.007-7.066-.012-13.532-.007-18.941q-1.726,0-3.453-.021a29.048,29.048,0,0,1-.485,2.961q-2.531-.022-5.062-.069c.011-2.73.042-5.247.1-7.506q12.245.388,24.49-.2c.093,2.292.143,4.837.159,7.589Z" transform="translate(-423.093 -572.695)" fill="#fff"/>
          <path id="Path_3281" data-name="Path 3281" d="M653.632,599.622c-8.905.152-13.068-6.825-13-16.283.109-9.687,6.32-14.182,14.123-15.138,7.476-.781,14,1.943,13.945,13.2-.238,10.625-7.182,18.246-15.072,18.223Zm.935-25.986c-3.506.31-6.725,2.74-6.778,8.951-.056,5.8,1.875,9.921,6.484,9.818,3.16,0,7.1-3,7.236-10.164C661.585,575.945,659,573.325,654.568,573.636Z" transform="translate(-558.216 -563.645)" fill="#fff"/>
          <path id="Path_3282" data-name="Path 3282" d="M837.847,576.107a25.988,25.988,0,0,1-6.857-.784c.2-3.368.395-6.678.537-9.907q2.654-.1,5.313-.205c.111,1.317.169,2.6.232,3.736a5.864,5.864,0,0,0,1.38.113c2.647-.077,4.526-1.408,4.667-3.911.2-5.825-12.034-2.345-12.112-13.012-.14-5.706,3.457-9.581,10.475-11.046a30.291,30.291,0,0,1,6.5-.587,74.523,74.523,0,0,1,1.038,9.165q-2.671.337-5.335.648c-.225-1.055-.439-2.29-.612-3.278a5.528,5.528,0,0,0-.963.038c-2.817.4-3.967,1.829-3.892,3.611.053,5.041,12.667,1.7,12.247,12.946C850.034,570.642,844.98,576.018,837.847,576.107Z" transform="translate(-717.982 -540.498)" fill="#fff"/>
        </g>
        <g id="Group_1308" data-name="Group 1308" transform="translate(36.474 46.121)">
          <path id="Path_3283" data-name="Path 3283" d="M315.984,808.731c-.01-.482-.021-.966-.032-1.448a12.123,12.123,0,0,1,1.907-.283c-.087-3.776-.224-7.535-.376-11.236a13.433,13.433,0,0,1-1.951-.289q-.031-.709-.063-1.416,3.15.022,6.294.038c.018.469.034.939.051,1.409a12.922,12.922,0,0,1-1.927.27c.14,3.694.267,7.451.345,11.226a12.589,12.589,0,0,1,1.919.286q.014.723.026,1.446h-6.2Z" transform="translate(-315.47 -793.939)" fill="#fff"/>
          <path id="Path_3284" data-name="Path 3284" d="M378.606,796.079c.069,4.225.129,8.55.161,12.9h-3.1q-2.63-4.207-5.333-8.369a33.9,33.9,0,0,1-1.739-3.063c.22,2.357.287,5.89.347,9.7a10.522,10.522,0,0,1,1.7.263q.01.733.019,1.467h-5.909q-.012-.723-.024-1.446a12.342,12.342,0,0,1,1.907-.283c-.064-3.772-.167-7.522-.281-11.205a13.367,13.367,0,0,1-1.946-.286q-.024-.706-.048-1.408,2.555.015,5.105.024,2.71,4.052,5.35,8.194c.68,1.064,1.178,2,1.74,3.069-.182-2.356-.236-5.88-.307-9.562a9.607,9.607,0,0,1-1.628-.259c-.01-.476-.021-.95-.031-1.422q2.741.01,5.478.016c.006.473.014.945.021,1.419a10.89,10.89,0,0,1-1.485.252Z" transform="translate(-356.504 -794.182)" fill="#fff"/>
          <path id="Path_3285" data-name="Path 3285" d="M475.87,808.461a13.551,13.551,0,0,1-3.252-.373q-.01-1.849-.026-3.691h1.761c.114.675.228,1.308.275,1.855a6.431,6.431,0,0,0,1.321.152c1.692,0,3.01-.678,3.005-2.267-.011-3.079-6.64-1.753-6.7-6.485-.032-2.486,1.949-4.185,5.4-4.182a15.637,15.637,0,0,1,3.007.3q.005,1.719.01,3.462H478.9a14.539,14.539,0,0,1-.275-1.747,6.945,6.945,0,0,0-1.044-.108c-1.888,0-2.814.825-2.8,2.023.027,2.9,6.7,1.817,6.7,6.392C481.488,806.488,479.338,808.463,475.87,808.461Z" transform="translate(-447.062 -793.444)" fill="#fff"/>
          <path id="Path_3286" data-name="Path 3286" d="M548.135,798.516h-1.729c-.125-.748-.252-1.368-.291-1.9q-1.354,0-2.709,0c-.026,3.591-.05,7.257-.064,10.95a12.617,12.617,0,0,1,1.912.283q0,.721-.006,1.445h-6.216c0-.482,0-.963,0-1.443a12.452,12.452,0,0,1,1.912-.284c.01-3.693.024-7.359.04-10.948h-2.732c-.045.53-.157,1.149-.291,1.9h-1.729q0-1.9,0-3.781,5.975,0,11.954-.011-.024,1.878-.048,3.786Z" transform="translate(-500.755 -794.502)" fill="#fff"/>
          <path id="Path_3287" data-name="Path 3287" d="M615.69,809.116c0-.482.006-.963.01-1.445a12.671,12.671,0,0,1,1.915-.285c.034-3.767.087-7.508.146-11.173a13.156,13.156,0,0,1-1.93-.273q.01-.7.02-1.4,4.977-.012,9.956-.032-.046,1.717-.088,3.457c-.585,0-1.168,0-1.753,0-.1-.6-.195-1.176-.228-1.624l-3.579.01q-.041,2.15-.077,4.332l2.854,0a7.939,7.939,0,0,1,.315-1.337c.5,0,1,0,1.507,0q-.051,2.2-.092,4.416h-1.5a6.938,6.938,0,0,1-.264-1.346l-2.849,0q-.036,2.375-.063,4.768h3.563a15.187,15.187,0,0,1,.312-1.747h1.74q-.031,1.832-.053,3.674-4.932,0-9.862,0Z" transform="translate(-567.446 -794.317)" fill="#fff"/>
          <path id="Path_3288" data-name="Path 3288" d="M700.8,797.527c-.106-.712-.15-1.314-.193-1.894a7.261,7.261,0,0,0-1.906-.206c-2.918.014-4.414,2.219-4.495,5.345-.087,3.344,1.289,5.341,4.763,5.338a8.827,8.827,0,0,0,3.339-.681q.049,1.094.1,2.192a12.564,12.564,0,0,1-4.034.682c-4.654,0-6.955-2.682-6.855-7.135.1-4.645,2.589-7.824,7.75-7.858a16.272,16.272,0,0,1,3.489.384q-.085,1.9-.162,3.829l-1.8.007Z" transform="translate(-631.091 -793.309)" fill="#fff"/>
        </g>
        <path id="Path_3289" data-name="Path 3289" d="M847.754,638.93c2.553.885,5.47,1.912,5.284,5.33-.183,3.171-2.7,5.325-6.319,5.417a7.554,7.554,0,0,1-1.8-.162,1.307,1.307,0,0,1-1.037-1.189c-.019-.352-.04-.717-.061-1.094-.025-.447-.051-.91-.082-1.381q-1.184.044-2.365.082c-.121,2.437-.266,4.917-.421,7.43a25.266,25.266,0,0,0,5.357.469c6.031-.09,10.566-4.557,10.942-10.932.278-5.524-3.1-6.889-6.392-8.06q-4.378.364-8.737.675c1.289,1.919,3.479,2.675,5.632,3.416Z" transform="translate(-720.033 -614.184)" fill="#c3c4c6"/>
        <path id="Path_3290" data-name="Path 3290" d="M671.139,644.109c-.17,8.194-4.97,11.609-8.835,11.6-3.079.157-8.094-1.719-7.987-11.138,0-.614.042-1.186.1-1.726q-2.005.063-4.008.116a19.013,19.013,0,0,0-.153,2.286c-.04,6.288,1.8,14.977,11.5,14.9,7.466-.005,13.281-7.412,13.464-16.726.007-.535,0-1.051-.03-1.551q-2.066.127-4.127.241a19.254,19.254,0,0,1,.073,1.988Z" transform="translate(-559.983 -620.093)" fill="#c3c4c6"/>
        <path id="Path_3291" data-name="Path 3291" d="M525.79,649.974c0,3.81,0,7.959-.007,12.34a1.429,1.429,0,0,1-1.4,1.34,22.45,22.45,0,0,0-2.327.317q0,1.22.008,2.464,5.515.007,11.032-.011.012-1.244.024-2.465a22.416,22.416,0,0,0-2.325-.312,1.415,1.415,0,0,1-1.389-1.337c.021-4.383.039-8.535.042-12.35Q527.621,649.972,525.79,649.974Z" transform="translate(-452.388 -626.875)" fill="#c3c4c6"/>
        <path id="Path_3292" data-name="Path 3292" d="M336.3,650.086a1.051,1.051,0,0,1-.244,1.086,1.631,1.631,0,0,1-1.221.476q-3.179-.062-6.36-.146a1.757,1.757,0,0,1-1.237-.535,1.132,1.132,0,0,1-.285-1.114q.6-1.89,1.228-3.688-1.656-.063-3.315-.135c-1.356,4.077-2.6,8.514-3.781,13.17a1.4,1.4,0,0,1-1.326,1.008,6,6,0,0,0-.686.077q.055,1.3.114,2.611,4.213.058,8.419.1-.041-1.249-.082-2.481c-.524-.107-1.048-.212-1.5-.268a1.654,1.654,0,0,1-1.1-.612,1.286,1.286,0,0,1-.251-1.122q.4-1.506.81-2.976a1.43,1.43,0,0,1,1.462-.956q4.794.1,9.581.172a1.571,1.571,0,0,1,1.5.991q.477,1.461.955,2.953a1.2,1.2,0,0,1-.188,1.1,1.525,1.525,0,0,1-1.062.582c-.431.046-.959.138-1.491.236q.026,1.219.054,2.458,4.52.031,9.035.048-.015-1.288-.029-2.555a6.245,6.245,0,0,0-.652-.087,1.533,1.533,0,0,1-1.363-1c-1.474-4.586-2.96-8.946-4.4-12.986q-1.955-.046-3.908-.1.655,1.808,1.326,3.693Z" transform="translate(-282.017 -623.577)" fill="#c3c4c6"/>
        <path id="Path_3293" data-name="Path 3293" d="M137.7,631.31a21.389,21.389,0,0,0-.158,3.111c.329,10.169,5.923,16.356,14.209,16.452a21.83,21.83,0,0,0,8.6-1.588c-.18-3.449-.341-6.82-.443-10.08a1.289,1.289,0,0,1,1.281-1.262c.284-.026.569-.06.853-.1q-.031-1.231-.05-2.439-4.761-.239-9.541-.532.019,1.207.056,2.434a18.132,18.132,0,0,0,2.253.427,1.594,1.594,0,0,1,1.466,1.414q.094,2.709.236,5.5a1.28,1.28,0,0,1-.866,1.263,8.869,8.869,0,0,1-3.35.489c-6.129-.124-10.289-4.877-10.465-12.284a16.217,16.217,0,0,1,.137-2.435q-2.107-.183-4.22-.376Z" transform="translate(-129.658 -611.222)" fill="#c3c4c6"/>
      </g>
      <g id="Group_1311" data-name="Group 1311" transform="translate(32.43 4.474)">
        <path id="Path_3294" data-name="Path 3294" d="M307.466,217.39a13.494,13.494,0,0,1,8.814-6.921,13.879,13.879,0,0,0-12.93,1.618c-.509-.294-.966-.567-1.475-.863a2.639,2.639,0,0,1-1-.823,1.776,1.776,0,0,1-.066-1.525,5.247,5.247,0,0,1,.836-1.334,5.142,5.142,0,0,1,1.986,1.681,3.642,3.642,0,0,1,.535-3.278,7.691,7.691,0,0,1,2.446-2.038,30.61,30.61,0,0,1,5.348-2.521,6.571,6.571,0,0,1-2.121-4.086,2.359,2.359,0,0,0-.873,1.624,4.427,4.427,0,0,1-2.394-2.007,43.512,43.512,0,0,1,8.1-5.62c1.577-.829,3.349-1.58,5.089-1.2a12.639,12.639,0,0,0-2.067,4.273c3.805-3.648,9.136-5.51,14.4-5.89a31.452,31.452,0,0,1,15.346,3.055,2.537,2.537,0,0,0-1.6,1.326,2.737,2.737,0,0,0-.186,2.156,7.535,7.535,0,0,1,4.58-2.3,30.7,30.7,0,0,1,5.146-.288A49.6,49.6,0,0,0,382,184.06a13.7,13.7,0,0,1-2.034,5.288,31.844,31.844,0,0,1-14.191,12.708,41.832,41.832,0,0,1,5.525,3.163,13.977,13.977,0,0,1,4.193,4.737,31.791,31.791,0,0,1-4.046-.619,13.891,13.891,0,0,1,2.435,4.12,16.512,16.512,0,0,1,.906,3.751,19.851,19.851,0,0,1-1.12,9.481,14.9,14.9,0,0,0-1.549-7.3,33.14,33.14,0,0,0-4.08-6.214c.932-.008,1.809-.063,2.741-.071a40.176,40.176,0,0,0-4.9-4.141,19.583,19.583,0,0,0-9.263-3.179,20.533,20.533,0,0,1,8.514,5.472,5.19,5.19,0,0,0-2.5.292,16.748,16.748,0,0,1,7.117,7.323,5.776,5.776,0,0,0-3.315-.762,24.749,24.749,0,0,1,1.485,9.079c-.548-1.578-2.248-2.64-3.682-3.5l-2.52-1.512a19.576,19.576,0,0,1-1.239,12.357c-.329-2.1-.713-4.315-2.055-5.963a30.477,30.477,0,0,1-4.294,14.453,19.7,19.7,0,0,0-.541-3.543,8.923,8.923,0,0,0-2.079-3.834,4.364,4.364,0,0,0-4.014-1.286,4.572,4.572,0,0,1,3.068,2.709,9.017,9.017,0,0,1,.572,4,22.062,22.062,0,0,1-3.587,11.172,7.061,7.061,0,0,1-2.647,2.627,8.066,8.066,0,0,0,1.088-4.529,22.176,22.176,0,0,0-.125-4.027,8.2,8.2,0,0,0-1.443-3.723,5.062,5.062,0,0,0-3.347-2.05c1.467-.783,2.872-1.578,4.34-2.361a4.434,4.434,0,0,0,1.139-.77,1.506,1.506,0,0,0,.466-1.247,27.949,27.949,0,0,0-10.567,4.1,56.077,56.077,0,0,0-5.26,3.96l-4.422,3.611c.49.321.773.755,1.263,1.077a10.053,10.053,0,0,1-6.3,0,2.91,2.91,0,0,0,1.044,1.4,6.607,6.607,0,0,1-4.644-.922,10.278,10.278,0,0,1-3.506-3.122,7.246,7.246,0,0,1-1.294-4.467,42.7,42.7,0,0,1,12.467,1.368,7.251,7.251,0,0,0,3.718.35c3.011-.837,5.2-4.054,7.165-6.479a21.009,21.009,0,0,0,4.213-8.287,12.4,12.4,0,0,0,.313-4.546,7.664,7.664,0,0,0-1.829-4.127,7.03,7.03,0,0,1,3.081,1.536,12.24,12.24,0,0,0-8.057-5.552,30.131,30.131,0,0,1,6.23,1.261,13.145,13.145,0,0,1,3,1.38,6.2,6.2,0,0,1,2.216,2.4,9.586,9.586,0,0,0-6.026-6.963,38.954,38.954,0,0,1,6.857-2.057,47.5,47.5,0,0,0-20.638,3.7,10.025,10.025,0,0,0-2.965,1.789,16.955,16.955,0,0,1,5.3-1.565,17.193,17.193,0,0,1-3.122,3.42,8.5,8.5,0,0,1-5.716,1.975,16.874,16.874,0,0,1-5.285-1.366c-2.34-.884-4.443-1.761-6.783-2.645Z" transform="translate(-299.007 -184.06)" fill="#00898c"/>
        <path id="Path_3295" data-name="Path 3295" d="M671.444,204.332a31.842,31.842,0,0,1-14.191,12.708l.318.167a8,8,0,0,0-1.681-.217,8.837,8.837,0,0,0,3.577-2.69,16.129,16.129,0,0,1-11.508.027c3.995-.22,7.8-1.809,11.369-3.622a87.019,87.019,0,0,0,10.145-6.4c1.092-.762,2.2-1.539,3.217-2.4a19.65,19.65,0,0,1-1.244,2.423Z" transform="translate(-590.486 -199.042)" fill="#fff"/>
        <path id="Path_3296" data-name="Path 3296" d="M445.921,246.608a3.712,3.712,0,0,0-2.216,1.5,9.815,9.815,0,0,0,7.932,2.455,7.017,7.017,0,0,1-9.7.8,38.737,38.737,0,0,1-6.555,2.87,4.906,4.906,0,0,1-1.716.312,2.566,2.566,0,0,1-1.84-.815c.619-2.351,2.658-4.011,4.582-5.5l3.622-2.806c-.264.656-.382,1.257-.646,1.911a8.241,8.241,0,0,1,6.534-.731Z" transform="translate(-409.087 -235.568)" fill="#fff"/>
        <path id="Path_3297" data-name="Path 3297" d="M444.25,291.314a5.882,5.882,0,0,0,4.316,2.118,12.289,12.289,0,0,0,4.85-.853,7.365,7.365,0,0,0,3.14-1.837,3.055,3.055,0,0,0,.593-3.394c-.681-1.221-2.661-.754-4.043-.54a14.811,14.811,0,0,0-3.95,1.374c-1.843.863-3.13,2.141-4.906,3.134Z" transform="translate(-419.511 -270.071)" fill="#fff"/>
        <path id="Path_3298" data-name="Path 3298" d="M427.077,271.321a6.265,6.265,0,0,1-7.58,1.673c-1.4-.678-2.587-1.888-4.128-2.107a6.233,6.233,0,0,0-3.86,1.114,25.629,25.629,0,0,1-3.193,1.726,5.572,5.572,0,0,1-3.55.34,3.168,3.168,0,0,1-2.274-2.565,2.214,2.214,0,0,0-.3,1.652,6.711,6.711,0,0,0,.336.948,2.142,2.142,0,0,1,.177.982,1.038,1.038,0,0,1-.646.778,7.1,7.1,0,0,1,4.237,1.117,1.957,1.957,0,0,1,.922,1.065,1.52,1.52,0,0,1-.352,1.289,4.469,4.469,0,0,1-1.067.874c1.89-.267,3.42-1.89,5.329-1.893a9.014,9.014,0,0,1,2.2.445,3.481,3.481,0,0,0,2.206,0,4.11,4.11,0,0,0,1.774-2.054l1.417-2.681a5.446,5.446,0,0,1,.072,2.872,4.709,4.709,0,0,1,2.9-2.171c.762-.2,1.567-.18,2.324-.391a4.092,4.092,0,0,0,3.065-3.012Z" transform="translate(-384.101 -256.905)"/>
        <path id="Path_3299" data-name="Path 3299" d="M419.18,437.351a12.154,12.154,0,0,0,2.782,3.257,4.133,4.133,0,0,0,4.056.633c1.285-.6,1.972-1.989,2.582-3.272s1.343-2.658,2.659-3.191a12.16,12.16,0,0,1,2.971-.387c.995-.135,2.089-.709,2.214-1.7a1.97,1.97,0,0,0-1.054-1.83,5.82,5.82,0,0,0-2.14-.6,8.957,8.957,0,0,0-4.205.064,4.559,4.559,0,0,0-2.981,3.907,3.008,3.008,0,0,1-.416-1.273,6.345,6.345,0,0,1,1.1-3.27,3.029,3.029,0,0,0-2.815,1.273,6.741,6.741,0,0,0-.839,2.878,5.239,5.239,0,0,1-1.019,2.8C421.406,437.391,419.9,438.056,419.18,437.351Z" transform="translate(-398.47 -390.202)" fill="#c63f3c"/>
        <path id="Path_3300" data-name="Path 3300" d="M330.836,414.984a20.181,20.181,0,0,0,2.433,4.742,9.265,9.265,0,0,1-5.748-4.127,12.63,12.63,0,0,0-6.516-.593,6.294,6.294,0,0,0,1.506,3.548,6.783,6.783,0,0,1-4.48-5.605,30.856,30.856,0,0,1,12.806,2.033Z" transform="translate(-313.574 -376.151)" fill="#fff"/>
        <path id="Path_3301" data-name="Path 3301" d="M387.648,506.721a13.031,13.031,0,0,1-5.071-6.341,5.3,5.3,0,0,0-.307,3.879c-1.462-.008-2.884.119-4.347.109-1.533-.009-2.476-1.814-3.061-3.231a4.94,4.94,0,0,0,1.491,4.962,23.659,23.659,0,0,1,10.659,1.408c.177-.21.458-.577.635-.787Z" transform="translate(-361.13 -449.549)" fill="#fff"/>
        <path id="Path_3302" data-name="Path 3302" d="M373.265,454.841a8.172,8.172,0,0,0-2.855-9.375,3.984,3.984,0,0,1,3.651,1.784,7.125,7.125,0,0,1,1.11,4.326,17.5,17.5,0,0,1-.9,4.44A2.108,2.108,0,0,1,373.265,454.841Z" transform="translate(-357.537 -403.452)" fill="#fff"/>
        <path id="Path_3303" data-name="Path 3303" d="M486.518,445.89a16.658,16.658,0,0,1-1,4.366,15.625,15.625,0,0,1-1.708,2.841,24.686,24.686,0,0,1-2.833,3.478,10.219,10.219,0,0,1-3.841,2.547,8.438,8.438,0,0,0,2.05-4.5,11.953,11.953,0,0,0,4.467-3.762,30.987,30.987,0,0,0,2.859-4.97Z" transform="translate(-447.116 -403.815)" fill="#c3c4c6"/>
        <path id="Path_3304" data-name="Path 3304" d="M290.948,357.122A10.838,10.838,0,0,0,294,359.956q1.653,1.179,3.307,2.356c-.868.49-1.546,1.1-2.414,1.591a6.535,6.535,0,0,1-1.376.641,2.2,2.2,0,0,1-1.49-.043,2.752,2.752,0,0,1-1.306-1.683,8.018,8.018,0,0,1,.227-5.7Z" transform="translate(-290.302 -329.31)" fill="#fff"/>
        <path id="Path_3305" data-name="Path 3305" d="M327.607,351.36a8.06,8.06,0,0,0-7.337,1.75,5.238,5.238,0,0,0,2.352,2.587,4.146,4.146,0,0,1,1.53-2.779,3.891,3.891,0,0,1,2.97-.782c.146-.338.15-.632.485-.778Z" transform="translate(-315.454 -324.262)" fill="#c3c4c6"/>
        <path id="Path_3306" data-name="Path 3306" d="M335.547,277.78a6.8,6.8,0,0,1,3.076,2.274,1.219,1.219,0,0,1-1.456.678,2.072,2.072,0,0,1-1.474-1.149,3.164,3.164,0,0,1-.146-1.8Z" transform="translate(-328.228 -262.72)" fill="#fff"/>
        <path id="Path_3307" data-name="Path 3307" d="M454.751,283.32c-1.837.983-3.524,1.422-5.361,2.406a1.762,1.762,0,0,0,1.044,1.4,3.349,3.349,0,0,0,1.794.148,4.175,4.175,0,0,0,2.754-1.491A1.816,1.816,0,0,0,454.751,283.32Z" transform="translate(-423.825 -267.369)" fill="#fff"/>
        <path id="Path_3308" data-name="Path 3308" d="M372.114,306.537a3.805,3.805,0,0,0-3.974,3.18c1.365-1.032,2.612-2.147,3.976-3.178Z" transform="translate(-355.632 -286.85)"/>
        <path id="Path_3309" data-name="Path 3309" d="M347.62,190.07c.93,2.11,1.713,4.3,2.643,6.409l2.153-1.226C350.86,193.586,349.177,191.736,347.62,190.07Z" transform="translate(-338.409 -189.104)" fill="#fff"/>
        <path id="Path_3310" data-name="Path 3310" d="M605.763,234.949A8.546,8.546,0,0,0,601.01,240a74.172,74.172,0,0,0,13.714-2.226,24.506,24.506,0,0,0,11.75-6.892,37.6,37.6,0,0,1-21.329,5.944c.329-.625.289-1.25.617-1.875Z" transform="translate(-551.08 -223.356)"/>
        <g id="Group_1310" data-name="Group 1310" transform="translate(8.457 23.007)">
          <path id="Path_3311" data-name="Path 3311" d="M685.89,385.65c.262.072.521.151.774.243Z" transform="translate(-630.778 -376.262)" fill="#fff"/>
          <path id="Path_3312" data-name="Path 3312" d="M545.73,327.553c.6-.12,1.2-.231,1.8-.323C546.929,327.329,546.329,327.443,545.73,327.553Z" transform="translate(-513.141 -327.23)" fill="#fff"/>
          <path id="Path_3313" data-name="Path 3313" d="M351.744,332.317c-.024-.01-.048-.016-.074-.026a93.988,93.988,0,0,1,10.8-1,18.788,18.788,0,0,0-7.678,4.329,84.637,84.637,0,0,1,20.731-6.381,44.36,44.36,0,0,0-18.5,8.708,51.966,51.966,0,0,1,28.154-8.241,49.773,49.773,0,0,0-15.454,3.852,52.2,52.2,0,0,1,21.34-.548,13.672,13.672,0,0,0-8.326,1.941,69.925,69.925,0,0,1,15.308,3.35,9.818,9.818,0,0,0-4.776-.162,13.028,13.028,0,0,1,8.507,7.37,7.173,7.173,0,0,0-3.826-1.025l-.768-.461a19.565,19.565,0,0,1-1.239,12.358c-.329-2.1-.713-4.315-2.055-5.964a30.477,30.477,0,0,1-4.294,14.453,19.683,19.683,0,0,0-.541-3.543,8.924,8.924,0,0,0-2.079-3.834,4.363,4.363,0,0,0-4.014-1.286,4.572,4.572,0,0,1,3.068,2.709,9.019,9.019,0,0,1,.572,4,22.051,22.051,0,0,1-3.587,11.17,7.062,7.062,0,0,1-2.647,2.628,8.068,8.068,0,0,0,1.088-4.529,22.155,22.155,0,0,0-.125-4.027,8.2,8.2,0,0,0-1.443-3.723,5.063,5.063,0,0,0-3.347-2.051c1.467-.782,2.872-1.578,4.34-2.361a4.43,4.43,0,0,0,1.139-.77,1.506,1.506,0,0,0,.466-1.247,27.948,27.948,0,0,0-10.567,4.1,56.119,56.119,0,0,0-5.26,3.96l-4.422,3.611c.49.321.773.755,1.263,1.077a10.051,10.051,0,0,1-6.3,0,2.91,2.91,0,0,0,1.044,1.4,6.609,6.609,0,0,1-4.644-.922,10.28,10.28,0,0,1-3.506-3.122,7.246,7.246,0,0,1-1.294-4.467,42.7,42.7,0,0,1,12.467,1.367,7.253,7.253,0,0,0,3.719.35c3.011-.837,5.2-4.054,7.165-6.479a21.01,21.01,0,0,0,4.214-8.287,12.4,12.4,0,0,0,.313-4.546,7.663,7.663,0,0,0-1.829-4.127,7.03,7.03,0,0,1,3.081,1.536,12.24,12.24,0,0,0-8.057-5.552,30.126,30.126,0,0,1,6.23,1.261,13.138,13.138,0,0,1,3,1.38,6.2,6.2,0,0,1,2.216,2.4,9.587,9.587,0,0,0-6.026-6.963,38.952,38.952,0,0,1,6.857-2.057,47.494,47.494,0,0,0-20.638,3.7,10.024,10.024,0,0,0-2.965,1.789,16.955,16.955,0,0,1,5.3-1.565,17.2,17.2,0,0,1-3.122,3.42A8.5,8.5,0,0,1,355,343.246a16.872,16.872,0,0,1-5.285-1.366c-2.338-.884-4.443-1.761-6.783-2.645a13.5,13.5,0,0,1,8.814-6.921Z" transform="translate(-342.93 -328.917)" fill="#fff"/>
        </g>
        <path id="Path_3314" data-name="Path 3314" d="M569.417,358.351c-.4.08-.8.177-1.2.271a.965.965,0,0,1,.2-.083c-.784-.085-1.57-.142-2.356-.183,1.115-.032,2.235-.035,3.357,0Z" transform="translate(-521.747 -330.325)" fill="none"/>
        <path id="Path_3315" data-name="Path 3315" d="M379.363,389.589a42.712,42.712,0,0,1,12.467,1.368,7.251,7.251,0,0,0,3.718.35c3.011-.837,5.2-4.054,7.166-6.479a21.015,21.015,0,0,0,4.213-8.287,12.405,12.405,0,0,0,.313-4.546,7.664,7.664,0,0,0-1.829-4.127,7.031,7.031,0,0,1,3.081,1.536,12.24,12.24,0,0,0-8.057-5.552,30.123,30.123,0,0,1,6.23,1.261,13.153,13.153,0,0,1,3,1.38,6.2,6.2,0,0,1,2.216,2.4,9.586,9.586,0,0,0-6.026-6.963,39.211,39.211,0,0,1,5.656-1.785,1.449,1.449,0,0,0-.612,1.7,2.428,2.428,0,0,0,1.573,1.409,10.08,10.08,0,0,0,2.155.357,16.033,16.033,0,0,1,8.928,4.218,10.073,10.073,0,0,0-7.006.214,6.374,6.374,0,0,1,3.195,3.715,6.486,6.486,0,0,1-.551,4.909,10.383,10.383,0,0,0-4.966-5.567,11.587,11.587,0,0,1-2.6,7.673,5.813,5.813,0,0,0-2.086-6.047,17.55,17.55,0,0,1-3.185,9.27,31.038,31.038,0,0,1-8.428,8.895,27.4,27.4,0,0,1-5.205,2.822,4.343,4.343,0,0,1-2.451.442c-.826-.165-1.792-.919-1.618-1.745a3.077,3.077,0,0,0,.077,2.33,7.671,7.671,0,0,1-2.777-.326,2.5,2.5,0,0,1-1.8-1.883,5.128,5.128,0,0,0,1.16,3.169,18.015,18.015,0,0,1-4.159-1.952,7.515,7.515,0,0,1-1.253-1.1,6.857,6.857,0,0,1-.538-3.06Z" transform="translate(-365.041 -331.853)" fill="#c3c4c6"/>
        <path id="Path_3316" data-name="Path 3316" d="M351.844,359.068a4.9,4.9,0,0,0-1.573,3.23,7.786,7.786,0,0,1,3.436-.288,2.161,2.161,0,0,0,.151,2.489,42.688,42.688,0,0,1,24.948-6.339,45.9,45.9,0,0,0-17.281,3.693,10.024,10.024,0,0,0-2.965,1.788,16.954,16.954,0,0,1,5.3-1.565,17.193,17.193,0,0,1-3.122,3.42,8.5,8.5,0,0,1-5.716,1.975,16.871,16.871,0,0,1-5.285-1.366c-2.338-.884-4.443-1.761-6.783-2.645a12.853,12.853,0,0,1,1.3-2.044c.373-.223.754-.434,1.146-.619a27.583,27.583,0,0,1,6.449-1.729Z" transform="translate(-334.49 -330.13)" fill="#c3c4c6"/>
        <path id="Path_3317" data-name="Path 3317" d="M297.761,372.089c.4-.167.731-.346,1.126-.513a5.191,5.191,0,0,1-2.341-3.276c.447.366.919.707,1.388,1.041l3.307,2.356c-.868.49-1.546,1.1-2.414,1.591a6.521,6.521,0,0,1-1.376.641,2.194,2.194,0,0,1-1.49-.043,2.17,2.17,0,0,1-.972-.95,9.675,9.675,0,0,0,2.769-.848Z" transform="translate(-294.237 -338.693)" fill="#c3c4c6"/>
      </g>
    </g>
    <g id="Group_3825" data-name="Group 3825" transform="translate(2481.105 5239.618)">
      <path id="Path_18829" data-name="Path 18829" d="M86.71,0A86.71,86.71,0,1,1,0,86.71,86.71,86.71,0,0,1,86.71,0Z" transform="translate(0 0)" fill="#e8e8e8" opacity="0"/>
    </g>
  </g>
</svg>
