<svg xmlns="http://www.w3.org/2000/svg" width="69.156" height="141.212" viewBox="0 0 69.156 141.212">
  <g id="Group_3924" data-name="Group 3924" transform="translate(-2000.078 -2250.435)">
    <g id="Group_2619" data-name="Group 2619" transform="translate(2000.078 2250.435)">
      <path id="Path_34" data-name="Path 34" d="M353.433,142.915c4.789,5.615,11.289,12.68,15.391,14.052a8.446,8.446,0,0,0,5.357-16.019c-4.1-1.372-13.546.362-20.748,1.967m18.084,21.713a15.632,15.632,0,0,1-4.982-.816c-6.684-2.237-14.671-11.413-22.281-20.624l-3.816-4.618,5.827-1.395c11.619-2.78,23.521-5.31,30.2-3.073a15.67,15.67,0,0,1-4.953,30.525" transform="translate(-340.438 -133.244)" fill="#5a1024"/>
      <path id="Path_35" data-name="Path 35" d="M377.186,190.077a23.59,23.59,0,0,1-14.409-5.246c-9.005-7.014-9.131-13.387-9.262-20.131-.026-1.361-.054-2.767-.15-4.254l-.4-6.238,5.6,2.771c8.27,4.091,12.916,5.889,18.623,5.748a12.927,12.927,0,0,0,12.7-11.379l7.181.729a20.161,20.161,0,0,1-19.7,17.866c-5.985.15-11.028-1.425-16.61-3.924.142,5.345.666,8.613,6.45,13.117,5.82,4.535,12.611,4.993,17.3,1.17l4.564,5.593a18.623,18.623,0,0,1-11.889,4.177" transform="translate(-329.477 -117.404)" fill="#5a1024"/>
    </g>
    <path id="Path_36" data-name="Path 36" d="M395.549,236.283l-7.14-1.054a74.77,74.77,0,0,0,.829-8.711c0-17.144-18.8-34.974-33.78-43.342l3.519-6.3c17.266,9.643,37.478,29.888,37.478,49.644a85.158,85.158,0,0,1-.906,9.765" transform="translate(1672.779 2155.363)" fill="#5a1024"/>
    <path id="Path_37" data-name="Path 37" d="M353.009,249.423l-5.643-4.5c11.846-14.855,10.589-32.772,11.587-51.811.028-.523.069-1.133.118-1.841.319-4.669.917-13.359-.435-29.925l7.194-.587c1.4,17.107.774,26.149.441,31.007-.045.664-.084,1.234-.111,1.723-1.076,20.555-.36,39.894-13.151,55.934" transform="translate(1665.701 2141.264)" fill="#5a1024"/>
  </g>
</svg>
