<svg xmlns="http://www.w3.org/2000/svg" width="141.211" height="120.91" viewBox="0 0 141.211 120.91">
  <g id="Group_3925" data-name="Group 3925" transform="translate(-2236.124 -2260.063)">
    <path id="Path_38" data-name="Path 38" d="M579.888,84.771a19.18,19.18,0,0,1-2.019-2.34,8.224,8.224,0,0,1-1.548-4.163,120.93,120.93,0,0,0-55.231-6.756l.826,7.557A115.1,115.1,0,0,1,580.385,88c.551.241,1.091.5,1.631.76-.03-.224-.01-.45-.028-.676A10.24,10.24,0,0,1,579.888,84.771Z" transform="translate(1764.313 2292.211)" fill="#5a1024"/>
    <path id="Path_40" data-name="Path 40" d="M556.417,30.861l-.163.006a8.675,8.675,0,0,0,.7,17.335c4.429-.179,12.847-5.247,19.255-9.457-6.645-3.637-15.31-7.951-19.791-7.884m.428,25.24a16.569,16.569,0,0,1-.908-33.122c7.4-.308,18.674,5.727,29.567,11.926l5.684,3.237-5.407,3.683c-10.359,7.051-21.093,13.964-28.512,14.264-.14.006-.282.011-.424.013" transform="translate(1786.146 2237.095)" fill="#5a1024"/>
    <path id="Path_39" data-name="Path 39" d="M599.683,125.8c3.089.105,5.979,1.6,8.711,3.188-.159-.928-.282-1.857-.476-2.781a74.114,74.114,0,0,0-21.2-38.4c-.269-.26-.555-.521-.839-.781a40.591,40.591,0,0,0,13.971-14,40.009,40.009,0,0,0,5.562-17.989c2.725-.273,6.991-.058,10.312,2.919,1.257,1.121,4.165,4.219,3.982,8.65a10.349,10.349,0,0,1-6.24,9.223,10.508,10.508,0,0,1-8.323-.568l-3.562,7.047a19.539,19.539,0,0,0,8.827,2.032,16.917,16.917,0,0,0,5.932-1.164,18.3,18.3,0,0,0,11.259-16.259c.312-7.791-4.514-12.976-6.61-14.845a19.087,19.087,0,0,0-3.764-2.639,20.922,20.922,0,0,0-8.939-2.368c-3.254-.149-6.3.706-9.511,1.009q-2.925.271-5.863.407a120.138,120.138,0,0,1-25.3-1.528,119.587,119.587,0,0,1-34.795-11.539L529.2,42.453a127.62,127.62,0,0,0,37.1,12.3,127.106,127.106,0,0,0,31.086,1.36A32.209,32.209,0,0,1,593.074,69a32.889,32.889,0,0,1-13.743,12.608,73.917,73.917,0,0,0-34.9-13.816,75.805,75.805,0,0,0-46.241,8.857l3.792,6.9a68.072,68.072,0,0,1,41.458-7.923A65.737,65.737,0,0,1,599.683,125.8Z" transform="translate(1737.93 2251.445)" fill="#5a1024"/>
  </g>
</svg>
