<svg xmlns="http://www.w3.org/2000/svg" width="130.847" height="123.256" viewBox="0 0 130.847 123.256">
  <g id="Group_3937" data-name="Group 3937" transform="translate(-1995.323 -2891.386)">
    <path id="Path_269" data-name="Path 269" d="M160.2,469.129V562.8c8.174-.71,29.721-1.624,39.9,7.25V474.923C191.306,468.155,170.38,468.287,160.2,469.129Z" transform="translate(1857.826 2428.829)" fill="none"/>
    <path id="Path_270" data-name="Path 270" d="M228.348,562.71V469.119c-29.411-.942-37.971,3.9-39.9,5.4v95.128C195.668,563.692,209.05,561.359,228.348,562.71Z" transform="translate(1875.121 2428.997)" fill="none"/>
    <path id="Path_271" data-name="Path 271" d="M164.043,565.331l-3.192.424V474.272H149.932v102h56.085a10.256,10.256,0,0,0-3.307-5.35C192.216,561.726,164.322,565.3,164.043,565.331Z" transform="translate(1851.537 2432.227)" fill="none"/>
    <path id="Path_272" data-name="Path 272" d="M233.98,565.615l-3.066-.269c-27.617-2.419-37.065,3.16-40.248,6.7a8.914,8.914,0,0,0-2.2,4.231H244.9v-102H233.98Z" transform="translate(1875.131 2432.227)" fill="none"/>
    <path id="Path_273" data-name="Path 273" d="M259.718,474.172v-8.163l-2.7-.113c-30.1-1.285-41.534,3.094-45.8,6.1-13.88-9.6-44.364-6.243-45.721-6.086l-2.5.287v7.974h-16.56V587.46H276.279V474.172ZM152.075,581.817v-102h10.917l0,91.483,3.192-.424c.279-.035,28.173-3.605,38.667,5.593a10.254,10.254,0,0,1,3.307,5.349Zm56.459-9.624c-10.178-8.874-31.725-7.96-39.9-7.25V471.275c10.177-.842,31.1-.974,39.9,5.794Zm5.643-95.356c1.927-1.5,10.486-6.346,39.9-5.4v93.592c-19.3-1.352-32.679.982-39.9,6.941Zm56.459,104.979H214.2a8.914,8.914,0,0,1,2.2-4.231c3.183-3.537,12.631-9.116,40.247-6.7l3.067.269V479.815h10.918Z" transform="translate(1849.391 2426.683)" fill="#5a1024" stroke="rgba(0,0,0,0)" stroke-width="1"/>
  </g>
</svg>
