<svg xmlns="http://www.w3.org/2000/svg" width="173" height="174" viewBox="0 0 173 174">
  <g id="Group_3958" data-name="Group 3958" transform="translate(-1105 -5790)">
    <rect id="Rectangle_171" data-name="Rectangle 171" width="173" height="174" transform="translate(1105 5790)" fill="none"/>
    <g id="Group_1038" data-name="Group 1038" transform="translate(1117.613 5872.539)">
      <g id="Group_1029" data-name="Group 1029">
        <g id="Group_1005" data-name="Group 1005">
          <path id="Path_1116" data-name="Path 1116" d="M109.4,572.962v-3.639q.679.273,1.36.541V551.484q-.681-.268-1.36-.541V547.27q4.523,1.821,9.114,3.394a7.707,7.707,0,0,1,4.414,3.112q1.191,2.036,1.191,7.063,0,4.209-1.232,5.445c-.821.819-2.283.9-4.374.179q-1.174-.4-2.344-.821V571.9q.7.251,1.409.5v3.638Q113.464,574.6,109.4,572.962Zm6.77-11.13.343.122q1.2.425,1.673-.237a5.977,5.977,0,0,0,.477-3.006,8.3,8.3,0,0,0-.533-3.571,3.386,3.386,0,0,0-1.958-1.494v8.183Z" transform="translate(-104.973 -542.318)" fill="#020304"/>
          <path id="Path_1117" data-name="Path 1117" d="M94.508,554.833q-4.115-1.434-8.179-3.07a7.58,7.58,0,0,1-4.429-6.456v-3.638a2.989,2.989,0,0,1,1.351-2.738V527.182a7.031,7.031,0,0,1-1.351-3.894v-3.672c0-2.545,1.972-3.747,4.429-2.76q4.523,1.821,9.114,3.394a14.4,14.4,0,0,1,8.095,6.127c1.431,2.4,2.07,5.477,2.07,9.995,0,3.943-.7,6.5-2.191,8.016a5.842,5.842,0,0,1-4.841,1.56,5.688,5.688,0,0,1,.451,2.151v3.638c0,2.544-2.032,3.965-4.521,3.1Zm-2.346-23.1a3.312,3.312,0,0,0,.937.718v-.992a2.158,2.158,0,0,0-.937.071Z" transform="translate(-81.9 -516.512)" fill="#020304"/>
        </g>
        <g id="Group_1006" data-name="Group 1006" transform="translate(14.121 6.094)">
          <path id="Path_1118" data-name="Path 1118" d="M197.75,609.01v-3.639q.546.169,1.093.337,1.459-8.747,2.92-17.518-.548-.157-1.1-.317V584.2q5.759,1.688,11.6,2.993v3.673q-.563-.126-1.125-.256,1.562,9.551,3.128,19.073.572.121,1.146.24v3.639q-3.8-.783-7.578-1.726V608.2q.57.143,1.14.28-.394-2.57-.787-5.141-2.236-.553-4.46-1.164l-.6,4.782c.372.1.744.206,1.116.306V610.9q-3.26-.884-6.493-1.888Zm6.493-10.338q1.659.449,3.325.869-.787-5.1-1.571-10.2l-.217-.057q-.768,4.695-1.536,9.385Z" transform="translate(-193.22 -579.396)" fill="#020304"/>
          <path id="Path_1119" data-name="Path 1119" d="M191.8,593.134q-3.8-.783-7.578-1.726a5.592,5.592,0,0,1-1.8-.824,4.211,4.211,0,0,1-1.793-.111q-3.26-.884-6.493-1.889a6.822,6.822,0,0,1-4.53-6.079v-3.639a3.21,3.21,0,0,1,1.579-2.972q.985-5.924,1.974-11.857a5.843,5.843,0,0,1-.655-2.594v-3.672c0-2.545,2.029-3.949,4.548-3.212q5.76,1.689,11.6,2.993a6.04,6.04,0,0,1,4.629,5.583v3.672a3.912,3.912,0,0,1-.66,2.24q1.063,6.441,2.128,12.868a5.6,5.6,0,0,1,1.692,3.869v3.639a3.7,3.7,0,0,1-4.642,3.714Z" transform="translate(-169.61 -554.363)" fill="#020304"/>
        </g>
        <g id="Group_1007" data-name="Group 1007" transform="translate(33.371 10.207)">
          <path id="Path_1120" data-name="Path 1120" d="M317.94,634.782v-3.638c.473.093.945.184,1.418.272V613.034c-.473-.088-.947-.18-1.418-.272V609.09q3.308.65,6.636,1.177,2.147,7.761,4.3,15.473l.256.034q-.034-5.588-.068-11.178c-.374-.05-.749-.1-1.122-.153v-3.672q3.5.49,7.018.847v3.672c-.49-.05-.977-.1-1.467-.155v22.019q-2.652-.289-5.3-.657-2.007-7.574-4.009-15.19c-.068-.011-.135-.023-.2-.032q.034,5.482.068,10.962c.367.06.736.118,1.1.176v3.639q-3.615-.563-7.213-1.267Z" transform="translate(-313.31 -604.392)" fill="#020304"/>
          <path id="Path_1121" data-name="Path 1121" d="M309.361,617.278q-2.652-.29-5.3-.657a5.119,5.119,0,0,1-1.52-.467,4.457,4.457,0,0,1-1.522.021q-3.615-.562-7.213-1.267a5.96,5.96,0,0,1-4.63-5.577v-3.639a3.642,3.642,0,0,1,1.413-3.007V590.938a5.7,5.7,0,0,1-1.413-3.625V583.64A3.651,3.651,0,0,1,293.81,580q3.308.649,6.636,1.177a5.39,5.39,0,0,1,1.679.567,4.6,4.6,0,0,1,1.684-.066q3.5.49,7.018.847a5.213,5.213,0,0,1,4.693,5.023v3.672a4.184,4.184,0,0,1-1.47,3.231v18.672a4.134,4.134,0,0,1-4.69,4.155Z" transform="translate(-289.18 -579.91)" fill="#020304"/>
        </g>
        <g id="Group_1008" data-name="Group 1008" transform="translate(51.939 12.958)">
          <path id="Path_1122" data-name="Path 1122" d="M444.778,630.108v18.381c.491.016.982.029,1.473.042v3.638q-4.419-.106-8.831-.423v-3.639c.489.035.98.069,1.47.1V629.826c-.422-.027-.844-.055-1.266-.085v3.572q-2.009-.143-4.015-.328V625.74q8.254.766,16.546.791v7.245q-2.038-.007-4.077-.058v-3.572C445.646,630.134,445.211,630.122,444.778,630.108Z" transform="translate(-428.925 -621.112)" fill="#020304"/>
          <path id="Path_1123" data-name="Path 1123" d="M421.836,632.662q-4.419-.106-8.831-.423a5.134,5.134,0,0,1-4.693-5.005v-3.638a4.129,4.129,0,0,1,1.468-3.21v-6.852l-.585-.053a5.264,5.264,0,0,1-4.687-5.1v-7.245a4.122,4.122,0,0,1,4.687-4.113q8.254.765,16.546.791a4.625,4.625,0,0,1,4.706,4.563v7.245a4.69,4.69,0,0,1-4.706,4.653c-.224,0-.448,0-.671,0v6.852a4.564,4.564,0,0,1,1.473,3.352v3.639a4.572,4.572,0,0,1-4.706,4.553Z" transform="translate(-404.51 -596.997)" fill="#020304"/>
        </g>
        <g id="Group_1009" data-name="Group 1009" transform="translate(70.057 13.06)">
          <path id="Path_1124" data-name="Path 1124" d="M546.28,652.741V649.1c.48,0,.96-.006,1.439-.013V630.709q-.719.01-1.439.013v-3.672q7.51-.041,15.008-.689V633.6q-2.219.193-4.443.332v-3.573q-1.635.1-3.268.176v7.145q2.405-.109,4.807-.277v3.672q-2.4.169-4.807.277v7.563q1.634-.072,3.268-.175v-3.606q2.224-.138,4.443-.332v7.245Q553.8,652.7,546.28,652.741Z" transform="translate(-541.574 -621.735)" fill="#020304"/>
          <path id="Path_1125" data-name="Path 1125" d="M536.764,632.559q-7.491.647-15.008.689a4.677,4.677,0,0,1-4.706-4.642v-3.638a4.474,4.474,0,0,1,1.439-3.292V609.927a4.617,4.617,0,0,1-1.439-3.339v-3.672a4.638,4.638,0,0,1,4.706-4.574q7.51-.041,15.008-.689a4.151,4.151,0,0,1,4.688,4.142v7.245a5.223,5.223,0,0,1-2.9,4.563v2.681a4.06,4.06,0,0,1,2.9,3.959v7.245a5.224,5.224,0,0,1-4.688,5.073Z" transform="translate(-517.05 -597.635)" fill="#020304"/>
        </g>
        <g id="Group_1010" data-name="Group 1010" transform="translate(87.451 11.467)">
          <path id="Path_1126" data-name="Path 1126" d="M654.24,643.743V640.1c.478-.048.955-.1,1.433-.148V621.576q-.717.077-1.433.148v-3.672q4.77-.476,9.518-1.2c2.173-.332,3.669-.058,4.493.871s1.235,2.867,1.235,5.831a8.537,8.537,0,0,1-.567,3.508,4.816,4.816,0,0,1-1.99,2.059,3.107,3.107,0,0,1,2.125,1.095,4.829,4.829,0,0,1,.616,2.779v4.914c.4-.074.8-.15,1.2-.227v3.639q-3.371.647-6.759,1.169v-7.663q0-2.045-.459-2.479c-.306-.29-.918-.364-1.835-.235l-.493.069v7.077c.385-.053.771-.108,1.156-.164v3.639q-4.112.6-8.243,1.006Zm7.087-22.863v7.731l.425-.06a2.4,2.4,0,0,0,1.818-.953,7.359,7.359,0,0,0,.475-3.326,5.8,5.8,0,0,0-.484-3.02c-.324-.415-.926-.557-1.81-.431l-.425.06Z" transform="translate(-649.547 -612.054)" fill="#020304"/>
          <path id="Path_1127" data-name="Path 1127" d="M646.416,621.613q-3.371.647-6.759,1.169a4.544,4.544,0,0,1-.814.053,4.975,4.975,0,0,1-.816.19q-4.113.6-8.243,1.006a4.182,4.182,0,0,1-4.693-4.2v-3.638a4.933,4.933,0,0,1,1.436-3.427V601.017a4.192,4.192,0,0,1-1.436-3.2v-3.672a5.2,5.2,0,0,1,4.693-5.015q4.769-.476,9.518-1.2c4.606-.71,6.992.66,8.19,1.994,1.486,1.647,2.176,4.307,2.176,8.4a14.213,14.213,0,0,1-.758,4.968,9.152,9.152,0,0,1,.943,4.468v1.822a3.7,3.7,0,0,1,1.2,2.835v3.639a5.931,5.931,0,0,1-4.633,5.559ZM635.9,600.685a2.626,2.626,0,0,0,.974.4v-1.312a3.872,3.872,0,0,0-.974.674Z" transform="translate(-625.09 -587.735)" fill="#020304"/>
        </g>
        <g id="Group_1011" data-name="Group 1011" transform="translate(105.449 6.466)">
          <path id="Path_1128" data-name="Path 1128" d="M765.73,615.678v-3.638q.558-.111,1.113-.226,1.483-9.5,2.964-19.015l-1.111.245v-3.673q5.842-1.265,11.614-2.911v3.672c-.372.106-.742.211-1.114.314l3.091,17.49c.377-.111.752-.225,1.127-.338v3.638q-3.736,1.135-7.5,2.111V609.71q.568-.147,1.135-.3-.392-2.369-.784-4.741-2.229.582-4.471,1.108-.3,2.545-.6,5.088c.375-.087.75-.174,1.125-.264v3.639q-3.28.78-6.58,1.438Zm6.58-13.664q1.669-.4,3.333-.824-.785-4.695-1.573-9.4l-.217.054q-.77,5.086-1.542,10.167Z" transform="translate(-761.085 -581.665)" fill="#020304"/>
          <path id="Path_1129" data-name="Path 1129" d="M759.209,590.853q-3.736,1.135-7.5,2.11a4.2,4.2,0,0,1-1.8.09,5.5,5.5,0,0,1-1.8.8q-3.28.78-6.58,1.438a3.721,3.721,0,0,1-4.645-3.741v-3.639a5.539,5.539,0,0,1,1.624-3.788q1.012-6.434,2.022-12.877a3.923,3.923,0,0,1-.67-2.257V565.32a5.989,5.989,0,0,1,4.635-5.549q5.841-1.265,11.614-2.911c2.523-.718,4.554.7,4.556,3.246v3.672a5.794,5.794,0,0,1-.647,2.571q1.043,5.9,2.082,11.8a3.216,3.216,0,0,1,1.649,3.017V584.8a6.77,6.77,0,0,1-4.537,6.051Z" transform="translate(-736.88 -556.674)" fill="#020304"/>
        </g>
        <g id="Group_1012" data-name="Group 1012" transform="translate(125.424 0.218)">
          <path id="Path_1130" data-name="Path 1130" d="M889.272,578.752v-7.564q2.287-.727,4.56-1.515v1.694a1.968,1.968,0,0,0,.393,1.372.943.943,0,0,0,1.082.172,1.887,1.887,0,0,0,1.145-1.008,5.847,5.847,0,0,0,.327-2.275,3.116,3.116,0,0,0-2.323-3.36c-.2-.064-.356-.116-.475-.153a11.434,11.434,0,0,1-2.539-1.109,4.481,4.481,0,0,1-1.392-1.314,4.973,4.973,0,0,1-.6-1.728,14.4,14.4,0,0,1-.206-2.61,10.284,10.284,0,0,1,1.278-5.334,6.546,6.546,0,0,1,3.576-2.942,4.367,4.367,0,0,1,1.982-.25,3.8,3.8,0,0,1,1.763.711V550.1q1.99-.741,3.965-1.529v7.564q-2.137.852-4.292,1.65v-1.408a1.56,1.56,0,0,0-.384-1.192.935.935,0,0,0-1.021-.122,1.714,1.714,0,0,0-.924.9,3.61,3.61,0,0,0-.352,1.65,3.249,3.249,0,0,0,.515,2.006,3.74,3.74,0,0,0,2.035,1.064c.153.045.391.1.718.169a5.849,5.849,0,0,1,3.381,1.716,4.354,4.354,0,0,1,.649,1.661,14.229,14.229,0,0,1,.211,2.708,14.009,14.009,0,0,1-1.206,6.242,6.438,6.438,0,0,1-3.587,3.309,5.163,5.163,0,0,1-2.272.356,3.107,3.107,0,0,1-1.787-.733v1.241q-2.1.724-4.215,1.4Z" transform="translate(-884.685 -543.626)" fill="#020304"/>
          <path id="Path_1131" data-name="Path 1131" d="M873.809,555.336a9.435,9.435,0,0,1-3.505.638c-.181.085-.367.161-.554.227q-2.1.724-4.215,1.4a3.267,3.267,0,0,1-4.551-3.225v-7.564a6.451,6.451,0,0,1,2.077-4.482,6.676,6.676,0,0,1-.737-.945l-.024-.037a8.426,8.426,0,0,1-1.069-2.957,18.7,18.7,0,0,1-.28-3.408,15.838,15.838,0,0,1,2.2-8.335,13.774,13.774,0,0,1,7.211-5.929,9.566,9.566,0,0,1,2.845-.556,6.189,6.189,0,0,1,.9-.427q1.99-.741,3.965-1.529c2.458-.979,4.432.227,4.432,2.774v7.564a7,7,0,0,1-1.346,3.882,4.9,4.9,0,0,1,.406.475l.03.041a7.3,7.3,0,0,1,1.151,2.851,18.224,18.224,0,0,1,.288,3.542,20.155,20.155,0,0,1-1.9,9.069,13.613,13.613,0,0,1-7.319,6.937Z" transform="translate(-860.95 -517.864)" fill="#020304"/>
        </g>
        <g id="Group_1013" data-name="Group 1013" transform="translate(9.075 34.761)">
          <path id="Path_1132" data-name="Path 1132" d="M171.123,770.059c.277.087.552.172.829.256v2.228q-2.888-.886-5.752-1.867v-.805q.51.174,1.021.346V763.8l-1.021-.346v-.805q1.664.57,3.336,1.108v.805c-.431-.139-.863-.28-1.294-.422v6.416q1.437.473,2.882.924v-1.423Z" transform="translate(-161.703 -757.784)" fill="#020304"/>
          <path id="Path_1133" data-name="Path 1133" d="M148.519,751.794q-2.888-.887-5.752-1.868a7.078,7.078,0,0,1-4.5-6.213v-.8a3.3,3.3,0,0,1,1.013-2.544v-.581a6.384,6.384,0,0,1-1.013-3.291v-.8c0-2.546,2-3.856,4.5-3q1.664.569,3.336,1.107a6.781,6.781,0,0,1,4.548,6.007v.805a4.372,4.372,0,0,1-.082.852,6.492,6.492,0,0,1,2.513,4.836v2.228a3.307,3.307,0,0,1-4.561,3.273Z" transform="translate(-138.27 -732.425)" fill="#020304"/>
        </g>
        <g id="Group_1014" data-name="Group 1014" transform="translate(15.386 36.863)">
          <path id="Path_1134" data-name="Path 1134" d="M211.448,777.04v2.04q-.418-.111-.836-.225V777.62q-1.447-.394-2.888-.813v2.623q.633.183,1.265.362v-1.029q.4.114.8.224V782l-.8-.224v-1.223q-.633-.179-1.265-.362v3.029q1.517.439,3.04.855v-1.423c.279.076.557.151.837.225v2.228q-2.983-.795-5.941-1.692v-.8q.517.157,1.035.311v-6.416c-.345-.1-.691-.206-1.035-.311v-.805q2.883.875,5.789,1.652Z" transform="translate(-201.122 -770.574)" fill="#020304"/>
          <path id="Path_1135" data-name="Path 1135" d="M187.949,764.62q-2.982-.794-5.941-1.692a6.759,6.759,0,0,1-4.539-6.045v-.805a3.4,3.4,0,0,1,1.029-2.587v-.567a6.167,6.167,0,0,1-1.029-3.262v-.8c0-2.546,2.024-3.93,4.539-3.17q2.883.875,5.789,1.652a6.364,6.364,0,0,1,4.595,5.777v2.04a4.009,4.009,0,0,1-.327,1.629,5.355,5.355,0,0,1,.48,2.165v2.228a3.452,3.452,0,0,1-4.6,3.444Z" transform="translate(-177.47 -745.479)" fill="#020304"/>
        </g>
        <g id="Group_1015" data-name="Group 1015" transform="translate(22.124 38.822)">
          <path id="Path_1136" data-name="Path 1136" d="M255.734,789.172v.805c-.351-.076-.7-.151-1.05-.229v7.222q-.48-.106-.961-.216-1.985-3.644-3.964-7.332V795c.348.087.7.174,1.045.257v.805q-1.524-.372-3.044-.77v-.805c.346.09.691.18,1.037.269v-6.416q-.519-.133-1.037-.269v-.8q1.091.285,2.188.559,1.881,3.511,3.77,6.984v-5.281l-1.043-.24v-.805q1.529.355,3.06.686Z" transform="translate(-243.181 -782.502)" fill="#020304"/>
          <path id="Path_1137" data-name="Path 1137" d="M230.822,776.725q-.48-.106-.961-.216a5.346,5.346,0,0,1-1.459-.573,4.331,4.331,0,0,1-1.46-.114q-1.524-.372-3.044-.77a6.446,6.446,0,0,1-4.577-5.87v-.805a3.519,3.519,0,0,1,1.032-2.622v-.581a5.921,5.921,0,0,1-1.032-3.213v-.805c0-2.545,2.043-4.009,4.577-3.345q1.092.285,2.188.559a5.641,5.641,0,0,1,1.36.539,4.6,4.6,0,0,1,1.367.118q1.529.355,3.061.686a5.979,5.979,0,0,1,4.635,5.543v.8a3.813,3.813,0,0,1-1.055,2.723v4.3a3.632,3.632,0,0,1-4.63,3.645Z" transform="translate(-219.32 -757.65)" fill="#020304"/>
        </g>
        <g id="Group_1016" data-name="Group 1016" transform="translate(30.708 41.511)">
          <path id="Path_1138" data-name="Path 1138" d="M309.461,804.554v2.629l-.85-.142v-.754a4.73,4.73,0,0,0-2.9-1.787,2.8,2.8,0,0,0-2.3.409,2.684,2.684,0,0,0-.971,2.28,3.974,3.974,0,0,0,3.292,3.978,2.752,2.752,0,0,0,2.41-.513,1.823,1.823,0,0,0,.642-1.232q-1.7-.288-3.4-.607v-.8q2.181.411,4.369.768v3.775l-.85-.142V811.16a2.926,2.926,0,0,1-.95.7,3.855,3.855,0,0,1-2.291.182,5.221,5.221,0,0,1-3.02-1.689,5.426,5.426,0,0,1-.987-1.6,4.911,4.911,0,0,1-.349-1.8,3.719,3.719,0,0,1,.349-1.63,3.018,3.018,0,0,1,.993-1.185,3.85,3.85,0,0,1,3.038-.525,5.816,5.816,0,0,1,2.92,1.549v-.754q.425.072.85.141Z" transform="translate(-296.694 -798.824)" fill="#020304"/>
          <path id="Path_1139" data-name="Path 1139" d="M281.614,792.171a10.781,10.781,0,0,1-6.155-3.576,11.755,11.755,0,0,1-2.09-3.423,10.281,10.281,0,0,1-.729-3.732,7.681,7.681,0,0,1,.726-3.36,6.3,6.3,0,0,1,2.106-2.477,8.038,8.038,0,0,1,6.166-1.072,10.782,10.782,0,0,1,2.367.734,4.8,4.8,0,0,1,.554.062c.283.049.567.1.85.142a5.632,5.632,0,0,1,4.666,5.318v2.552a4.871,4.871,0,0,1,.3,1.665v3.776a3.88,3.88,0,0,1-4.666,3.906l-.85-.142a5.236,5.236,0,0,1-.884-.233,9.005,9.005,0,0,1-2.357-.142Z" transform="translate(-272.64 -774.351)" fill="#020304"/>
        </g>
        <g id="Group_1017" data-name="Group 1017" transform="translate(39.97 42.681)">
          <path id="Path_1140" data-name="Path 1140" d="M367.134,811.711v.805l-1.064-.124v4.429a3.87,3.87,0,0,1-.227,1.554,1.874,1.874,0,0,1-1.278,1.011,3.8,3.8,0,0,1-1.468.046,3.565,3.565,0,0,1-2.367-1.173,2.4,2.4,0,0,1-.519-1.09,6.633,6.633,0,0,1-.088-1.161v-4.429q-.526-.08-1.053-.164v-.805q1.582.251,3.168.475v.805c-.354-.05-.707-.1-1.061-.153v4.576a2.276,2.276,0,0,0,.465,1.491,2.2,2.2,0,0,0,1.478.749c1.312.178,1.969-.4,1.969-1.707V812.27q-.529-.066-1.056-.136v-.8q1.548.2,3.1.38Z" transform="translate(-354.417 -805.942)" fill="#020304"/>
          <path id="Path_1141" data-name="Path 1141" d="M338.851,799.716a8.826,8.826,0,0,1-5.768-3.173,8.11,8.11,0,0,1-1.7-3.613,11.27,11.27,0,0,1-.167-2.019V789.4a5.369,5.369,0,0,1-1.05-3.108v-.805a3.811,3.811,0,0,1,4.654-3.807q1.582.251,3.168.475a5.3,5.3,0,0,1,.9.21,4.84,4.84,0,0,1,.9.035q1.548.2,3.1.38a5.293,5.293,0,0,1,4.688,5.083v.8a4.167,4.167,0,0,1-1.066,2.827V793a7.783,7.783,0,0,1-.628,3.384,5.835,5.835,0,0,1-3.82,3.172,8.018,8.018,0,0,1-3.21.163Z" transform="translate(-330.17 -781.618)" fill="#020304"/>
        </g>
        <g id="Group_1018" data-name="Group 1018" transform="translate(47.843 44.031)">
          <path id="Path_1142" data-name="Path 1142" d="M413.642,824.586q-1.546-.13-3.089-.288l-.6,1.673c.367.039.734.076,1.1.113v.8q-1.466-.144-2.93-.314v-.8c.274.03.546.063.819.092q1.145-3.081,2.291-6.178-.488-.048-.976-.1v-.805q1.864.193,3.73.348v.8c-.327-.028-.655-.055-.982-.084q1.186,3.313,2.373,6.61c.274.021.547.04.821.06v.805q-1.514-.106-3.027-.24v-.8c.369.032.739.063,1.108.093q-.316-.894-.634-1.787Zm-.311-.91q-.616-1.768-1.233-3.539-.616,1.657-1.233,3.31,1.232.123,2.466.23Z" transform="translate(-403.443 -814.148)" fill="#020304"/>
          <path id="Path_1143" data-name="Path 1143" d="M391.822,807.791q-1.514-.108-3.027-.24a4.863,4.863,0,0,1-1.059-.214,4.56,4.56,0,0,1-1.059.016q-1.466-.145-2.93-.314a5.407,5.407,0,0,1-4.677-5.207v-.805a3.928,3.928,0,0,1,1.843-3.416c.164-.441.33-.883.494-1.322a4.8,4.8,0,0,1-.208-1.389v-.8a4.069,4.069,0,0,1,4.682-4.063q1.864.193,3.73.348a5.1,5.1,0,0,1,4.7,4.938v.8a4.4,4.4,0,0,1-.195,1.307q.261.717.52,1.433a4.848,4.848,0,0,1,1.89,3.788v.8a4.325,4.325,0,0,1-4.7,4.334Z" transform="translate(-379.07 -790.006)" fill="#020304"/>
        </g>
        <g id="Group_1019" data-name="Group 1019" transform="translate(59.333 44.782)">
          <path id="Path_1144" data-name="Path 1144" d="M485.6,823.536v2.04l-.858-.019v-1.235q-1.485-.036-2.972-.1v2.622c.435.018.868.034,1.3.049v-1.029c.274.01.549.018.823.026v3.017l-.823-.026v-1.224c-.435-.014-.868-.03-1.3-.048v3.028q1.565.063,3.128.1v-1.423l.86.019v2.228q-3.06-.061-6.118-.219v-.8q.533.029,1.067.053v-6.416q-.533-.024-1.067-.053v-.8q2.98.157,5.962.216Z" transform="translate(-474.939 -818.707)" fill="#020304"/>
          <path id="Path_1145" data-name="Path 1145" d="M461.257,812.135q-3.06-.061-6.118-.219a5.016,5.016,0,0,1-4.7-4.914V806.2a4.232,4.232,0,0,1,1.068-2.845v-.567a4.86,4.86,0,0,1-1.068-3v-.805a4.326,4.326,0,0,1,4.7-4.3q2.98.157,5.962.216a4.722,4.722,0,0,1,4.706,4.643v2.04a4.547,4.547,0,0,1-.333,1.71,4.493,4.493,0,0,1,.491,2.048v2.228a4.6,4.6,0,0,1-4.706,4.576Z" transform="translate(-450.44 -794.668)" fill="#020304"/>
        </g>
        <g id="Group_1020" data-name="Group 1020" transform="translate(65.937 44.985)">
          <path id="Path_1146" data-name="Path 1146" d="M525.142,828.4q1.229,1.712,2.457,3.406c.314-.006.628-.013.943-.021v.805q-1.666.043-3.333.055v-.8c.383,0,.765-.007,1.148-.013q-.913-1.261-1.826-2.531-.888,1.278-1.777,2.545c.383,0,.764,0,1.148,0v.8q-1.6,0-3.2-.026v-.805c.3.005.6.01.9.013q1.186-1.659,2.373-3.333-1.094-1.533-2.186-3.081c-.343,0-.684-.008-1.027-.014V824.6q1.644.027,3.291.024v.8h-1.027q.78,1.094,1.562,2.182.763-1.094,1.526-2.195c-.343,0-.684.008-1.027.01v-.805q1.589-.012,3.177-.048v.8l-.985.021q-1.065,1.507-2.131,3Z" transform="translate(-515.993 -819.96)" fill="#020304"/>
          <path id="Path_1147" data-name="Path 1147" d="M504.01,813.169q-1.667.044-3.333.055a5.028,5.028,0,0,0-1.31,0q-1.6,0-3.2-.026a4.8,4.8,0,0,1-4.7-4.746v-.8a4.378,4.378,0,0,1,1.357-3.186,4.716,4.716,0,0,1-1.3-3.228v-.8a4.517,4.517,0,0,1,4.7-4.471q1.645.026,3.291.024a4.969,4.969,0,0,1,.517.026,4.9,4.9,0,0,1,.517-.031q1.589-.012,3.176-.048a4.477,4.477,0,0,1,4.7,4.435v.805a4.74,4.74,0,0,1-1.191,3.12,4.337,4.337,0,0,1,1.473,3.281v.8a4.856,4.856,0,0,1-4.7,4.788Z" transform="translate(-491.46 -795.932)" fill="#020304"/>
        </g>
        <g id="Group_1021" data-name="Group 1021" transform="translate(73.977 44.688)">
          <path id="Path_1148" data-name="Path 1148" d="M574.348,823.7v6.416c.385-.018.768-.037,1.153-.058v.8q-1.681.089-3.362.146v-.8c.382-.013.765-.027,1.146-.043v-6.416c-.6.024-1.2.047-1.8.064v1.423q-.43.014-.86.024v-2.228q3.188-.085,6.374-.278v2.228c-.287.018-.572.034-.858.05V823.6q-.9.051-1.8.094Z" transform="translate(-565.924 -818.135)" fill="#020304"/>
          <path id="Path_1149" data-name="Path 1149" d="M550.976,811.42q-1.681.089-3.362.146a4.517,4.517,0,0,1-4.706-4.5v-.805a4.584,4.584,0,0,1,.227-1.422,4.525,4.525,0,0,1-1.736-3.563v-2.228a4.76,4.76,0,0,1,4.706-4.674q3.188-.084,6.374-.279a4.281,4.281,0,0,1,4.7,4.262v2.228a4.991,4.991,0,0,1-1.731,3.716,4.347,4.347,0,0,1,.227,1.4v.8a5.017,5.017,0,0,1-4.7,4.916Z" transform="translate(-541.4 -794.082)" fill="#020304"/>
        </g>
        <g id="Group_1022" data-name="Group 1022" transform="translate(80.934 44.344)">
          <path id="Path_1150" data-name="Path 1150" d="M615.924,825.149v2.917l1.066-.084v.8q-1.594.13-3.19.232v-.8q.531-.034,1.061-.071v-6.416l-1.061.071v-.805q1.852-.118,3.7-.275a3.111,3.111,0,0,1,1.467.142,1.651,1.651,0,0,1,.861.853,2.145,2.145,0,0,1,.209.95,2.08,2.08,0,0,1-.945,1.837,2.8,2.8,0,0,1-.964.41,6.408,6.408,0,0,1-.652.115q1.036,1.371,2.072,2.73c.382-.037.761-.074,1.143-.113v.8c-.612.063-1.225.121-1.837.177q-1.3-1.741-2.606-3.5l-.33.026Zm0-.8q.524-.039,1.048-.082a3.244,3.244,0,0,0,1.294-.3,1.161,1.161,0,0,0,.467-.488,1.547,1.547,0,0,0,.167-.721,1.372,1.372,0,0,0-.167-.687.9.9,0,0,0-.467-.409,3.086,3.086,0,0,0-1.294-.084q-.524.044-1.048.082Z" transform="translate(-609.101 -816.068)" fill="#020304"/>
          <path id="Path_1151" data-name="Path 1151" d="M596.207,808.935c-.612.063-1.225.121-1.837.177a4.629,4.629,0,0,1-.933-.008,4.79,4.79,0,0,1-.937.171q-1.594.131-3.189.232a4.359,4.359,0,0,1-4.7-4.366v-.805a4.721,4.721,0,0,1,1.063-2.962v-.581a4.36,4.36,0,0,1-1.062-2.874v-.805a4.981,4.981,0,0,1,4.7-4.849q1.852-.118,3.7-.275a7.626,7.626,0,0,1,3.7.477,5.592,5.592,0,0,1,2.909,2.782,6.319,6.319,0,0,1,.617,2.774,7.283,7.283,0,0,1-.349,2.241,4.05,4.05,0,0,1,1,2.722v.8a5.322,5.322,0,0,1-4.683,5.144Z" transform="translate(-584.61 -791.948)" fill="#020304"/>
        </g>
        <g id="Group_1023" data-name="Group 1023" transform="translate(87.878 43.351)">
          <path id="Path_1152" data-name="Path 1152" d="M662.416,820.21q-1.538.2-3.081.382-.3.9-.6,1.8c.367-.04.733-.084,1.1-.126v.805q-1.464.171-2.93.322v-.805c.274-.027.546-.056.819-.085q1.145-3.33,2.289-6.673l-.974.113v-.8q1.862-.212,3.721-.46v.805c-.327.043-.652.087-.979.129q1.181,3.055,2.362,6.1l.817-.117v.8q-1.5.22-3.012.415v-.8l1.1-.147-.633-1.65Zm-.311-.842q-.616-1.636-1.23-3.272l-1.23,3.576Q660.877,819.528,662.1,819.369Z" transform="translate(-652.205 -810.027)" fill="#020304"/>
          <path id="Path_1153" data-name="Path 1153" d="M640.489,802.755q-1.5.22-3.012.415a4.543,4.543,0,0,1-1.056.017,4.974,4.974,0,0,1-1.058.246q-1.463.171-2.93.322a4.171,4.171,0,0,1-4.693-4.191v-.805a5.014,5.014,0,0,1,1.852-3.817q.249-.714.5-1.431a4.368,4.368,0,0,1-.208-1.344v-.805a5.289,5.289,0,0,1,4.688-5.079q1.862-.212,3.721-.461a3.925,3.925,0,0,1,4.669,3.922v.805a4.9,4.9,0,0,1-.193,1.351q.258.662.515,1.32a3.792,3.792,0,0,1,1.872,3.381v.8A5.614,5.614,0,0,1,640.489,802.755Z" transform="translate(-627.74 -785.778)" fill="#020304"/>
        </g>
        <g id="Group_1024" data-name="Group 1024" transform="translate(96.319 41.567)">
          <path id="Path_1154" data-name="Path 1154" d="M717.255,803.88v.805l-1.055.2v7.222q-.483.091-.966.179-2-2.828-4-5.7v5.58c.353-.056.707-.114,1.059-.172v.8q-1.543.256-3.089.485v-.8c.351-.052.7-.1,1.055-.159V805.9c-.351.055-.7.108-1.055.159v-.8q1.111-.164,2.22-.343,1.905,2.736,3.807,5.434v-5.281c-.349.065-.7.128-1.05.189v-.8q1.54-.271,3.077-.569Z" transform="translate(-704.526 -799.182)" fill="#020304"/>
          <path id="Path_1155" data-name="Path 1155" d="M691.844,792.233q-.483.092-.966.179a4.425,4.425,0,0,1-1.47.026,5.15,5.15,0,0,1-1.475.486q-1.543.256-3.09.485a3.949,3.949,0,0,1-4.674-3.975v-.805a5.09,5.09,0,0,1,1.058-3.049V785a4.041,4.041,0,0,1-1.058-2.785v-.8a5.517,5.517,0,0,1,4.674-5.24q1.111-.164,2.22-.343a4.657,4.657,0,0,1,1.378-.021,5.425,5.425,0,0,1,1.38-.444q1.541-.27,3.077-.568a3.661,3.661,0,0,1,4.631,3.65v.8a5.567,5.567,0,0,1-1.049,3.152v4.3A5.9,5.9,0,0,1,691.844,792.233Z" transform="translate(-680.17 -774.701)" fill="#020304"/>
        </g>
        <g id="Group_1025" data-name="Group 1025" transform="translate(104.818 40.666)">
          <path id="Path_1156" data-name="Path 1156" d="M765.709,798.4v.805c-.351.076-.7.151-1.051.225v4.928a6.991,6.991,0,0,1-.082,1.305,2.091,2.091,0,0,1-2.726,1.462c.076-.29.15-.578.226-.868a.982.982,0,0,0,.7.1.9.9,0,0,0,.674-.5,2.684,2.684,0,0,0,.166-1.116v-5.092q-.584.12-1.171.237v-.8q1.637-.326,3.268-.683Z" transform="translate(-757.199 -793.683)" fill="#020304"/>
          <path id="Path_1157" data-name="Path 1157" d="M738.736,787.229a6,6,0,0,1-3.558-.3,3.908,3.908,0,0,1-2.051-4.77c.075-.286.151-.575.225-.861a5.749,5.749,0,0,1,1.288-2.36,3.852,3.852,0,0,1-1.082-2.764v-.8A5.868,5.868,0,0,1,738.2,769.9q1.638-.326,3.268-.683a3.56,3.56,0,0,1,4.614,3.541v.8a5.687,5.687,0,0,1-1.047,3.178v2a10.853,10.853,0,0,1-.2,2.383c0,.016-.008.032-.011.05a7.981,7.981,0,0,1-6.089,6.06Z" transform="translate(-732.963 -769.1)" fill="#020304"/>
        </g>
        <g id="Group_1026" data-name="Group 1026" transform="translate(109.499 39.045)">
          <path id="Path_1158" data-name="Path 1158" d="M796.629,788.61v2.04l-.839.214v-1.235q-1.451.367-2.909.708v2.623q.638-.15,1.277-.3v-1.029c.269-.064.536-.13.805-.2v3.017l-.805.2v-1.224q-.637.154-1.277.3v3.028q1.534-.359,3.061-.747v-1.423c.28-.071.559-.141.839-.214V796.6q-2.988.77-5.991,1.439v-.805c.35-.077.7-.156,1.05-.236v-6.416q-.524.121-1.05.236v-.8Q793.717,789.359,796.629,788.61Z" transform="translate(-786.161 -783.849)" fill="#020304"/>
          <path id="Path_1159" data-name="Path 1159" d="M772.661,776.393q-2.987.77-5.991,1.439a3.626,3.626,0,0,1-4.63-3.638v-.8a5.482,5.482,0,0,1,1.053-3.135v-.567a3.783,3.783,0,0,1-1.053-2.714v-.805a6.033,6.033,0,0,1,4.63-5.577q2.927-.652,5.839-1.4c2.537-.651,4.582.823,4.582,3.368v2.04a5.41,5.41,0,0,1-.323,1.8,3.822,3.822,0,0,1,.476,1.914v2.228a6.414,6.414,0,0,1-4.58,5.852Z" transform="translate(-762.04 -759.037)" fill="#020304"/>
        </g>
        <g id="Group_1027" data-name="Group 1027" transform="translate(116.359 37.579)">
          <path id="Path_1160" data-name="Path 1160" d="M835.291,784.669v2.917q.519-.143,1.038-.29v.8q-1.553.437-3.109.847v-.8q.519-.135,1.035-.275v-6.416c-.344.093-.691.185-1.035.275v-.805q1.809-.476,3.611-.989a2.945,2.945,0,0,1,1.428-.142,1.235,1.235,0,0,1,.837.687,1.956,1.956,0,0,1,.2.91,2.594,2.594,0,0,1-.919,2.019,3.362,3.362,0,0,1-.939.6q-.268.118-.634.242,1.009,1.171,2.014,2.331.556-.164,1.111-.333v.8q-.891.271-1.786.532-1.265-1.49-2.536-3Zm0-.8c.341-.094.681-.189,1.022-.285a3.689,3.689,0,0,0,1.259-.554,1.507,1.507,0,0,0,.454-.578,1.781,1.781,0,0,0,.163-.753,1.221,1.221,0,0,0-.163-.655.673.673,0,0,0-.454-.319,2.957,2.957,0,0,0-1.259.166l-1.022.285Z" transform="translate(-828.621 -774.951)" fill="#020304"/>
          <path id="Path_1161" data-name="Path 1161" d="M815.962,766.635q-.891.271-1.786.531a4.555,4.555,0,0,1-.906.17,5.365,5.365,0,0,1-.911.351q-1.553.438-3.109.847a3.468,3.468,0,0,1-4.6-3.461v-.8a5.677,5.677,0,0,1,1.042-3.165v-.581a3.659,3.659,0,0,1-1.042-2.669v-.8a6.328,6.328,0,0,1,4.6-5.754q1.809-.476,3.611-.989a7.056,7.056,0,0,1,3.595-.237,4.154,4.154,0,0,1,2.819,2.22,5.732,5.732,0,0,1,.6,2.655,8.211,8.211,0,0,1-.338,2.309,3.42,3.42,0,0,1,.968,2.529v.805a6.764,6.764,0,0,1-4.537,6.048Z" transform="translate(-804.65 -749.931)" fill="#020304"/>
        </g>
        <g id="Group_1028" data-name="Group 1028" transform="translate(123.149 34.951)">
          <path id="Path_1162" data-name="Path 1162" d="M880.512,769.416q-1.488.5-2.982.977-.292.962-.584,1.92c.356-.111.71-.225,1.066-.338v.8q-1.418.457-2.841.887v-.805l.8-.243q1.111-3.55,2.219-7.116-.471.152-.943.3V765q1.8-.57,3.6-1.18v.8l-.946.319q1.142,2.828,2.281,5.64l.787-.275v.805q-1.451.512-2.908,1v-.8c.356-.119.711-.238,1.067-.361q-.3-.764-.612-1.528Zm-.3-.781q-.594-1.514-1.19-3.035-.594,1.911-1.191,3.814,1.193-.382,2.381-.781Z" transform="translate(-870.606 -758.956)" fill="#020304"/>
          <path id="Path_1163" data-name="Path 1163" d="M859.178,750.368q-1.451.512-2.907,1a4.581,4.581,0,0,1-1.023.221,5.659,5.659,0,0,1-1.022.45q-1.418.457-2.842.887a3.317,3.317,0,0,1-4.564-3.286v-.805a6.261,6.261,0,0,1,1.8-4.174l.483-1.526a4.078,4.078,0,0,1-.2-1.3v-.8a6.74,6.74,0,0,1,4.553-5.984q1.8-.57,3.6-1.18c2.494-.845,4.5.472,4.5,3.017v.8a5.436,5.436,0,0,1-.187,1.388c.166.407.33.815.5,1.22a3.024,3.024,0,0,1,1.8,3.017v.8a7.16,7.16,0,0,1-4.486,6.254Z" transform="translate(-846.82 -733.605)" fill="#020304"/>
        </g>
      </g>
      <g id="Group_1030" data-name="Group 1030" transform="translate(4.427 4.952)">
        <path id="Path_1164" data-name="Path 1164" d="M109.4,572.962v-3.639q.679.273,1.36.541V551.484q-.681-.268-1.36-.541V547.27q4.523,1.821,9.114,3.394a7.707,7.707,0,0,1,4.414,3.112q1.191,2.036,1.191,7.063,0,4.209-1.232,5.445c-.821.819-2.283.9-4.374.179q-1.174-.4-2.344-.821V571.9q.7.251,1.409.5v3.638Q113.464,574.6,109.4,572.962Zm6.77-11.13.343.122q1.2.425,1.673-.237a5.977,5.977,0,0,0,.477-3.006,8.3,8.3,0,0,0-.533-3.571,3.386,3.386,0,0,0-1.958-1.494v8.183Z" transform="translate(-109.4 -547.27)" fill="#fff"/>
        <path id="Path_1165" data-name="Path 1165" d="M197.75,609.01v-3.639q.546.169,1.093.337,1.459-8.747,2.92-17.518-.548-.157-1.1-.317V584.2q5.759,1.688,11.6,2.993v3.673q-.563-.126-1.125-.256,1.562,9.551,3.128,19.073.572.121,1.146.24v3.639q-3.8-.783-7.578-1.726V608.2q.57.143,1.14.28-.394-2.57-.787-5.141-2.236-.553-4.46-1.164l-.6,4.782c.372.1.744.206,1.116.306V610.9q-3.26-.884-6.493-1.888Zm6.493-10.338q1.659.449,3.325.869-.787-5.1-1.571-10.2l-.217-.057q-.768,4.695-1.536,9.385Z" transform="translate(-183.526 -578.254)" fill="#fff"/>
        <path id="Path_1166" data-name="Path 1166" d="M317.94,634.782v-3.638c.473.093.945.184,1.418.272V613.034c-.473-.088-.947-.18-1.418-.272V609.09q3.308.65,6.636,1.177,2.147,7.761,4.3,15.473l.256.034q-.034-5.588-.068-11.178c-.374-.05-.749-.1-1.122-.153v-3.672q3.5.49,7.018.847v3.672c-.49-.05-.977-.1-1.467-.155v22.019q-2.652-.289-5.3-.657-2.007-7.574-4.009-15.19c-.068-.011-.135-.023-.2-.032q.034,5.482.068,10.962c.367.06.736.118,1.1.176v3.639q-3.615-.563-7.213-1.267Z" transform="translate(-284.366 -599.137)" fill="#fff"/>
        <path id="Path_1167" data-name="Path 1167" d="M444.778,630.108v18.381c.491.016.982.029,1.473.042v3.638q-4.419-.106-8.831-.423v-3.639c.489.035.98.069,1.47.1V629.826c-.422-.027-.844-.055-1.266-.085v3.572q-2.009-.143-4.015-.328V625.74q8.254.766,16.546.791v7.245q-2.038-.007-4.077-.058v-3.572C445.646,630.134,445.211,630.122,444.778,630.108Z" transform="translate(-381.414 -613.107)" fill="#fff"/>
        <path id="Path_1168" data-name="Path 1168" d="M546.28,652.741V649.1c.48,0,.96-.006,1.439-.013V630.709q-.719.01-1.439.013v-3.672q7.51-.041,15.008-.689V633.6q-2.219.193-4.443.332v-3.573q-1.635.1-3.268.176v7.145q2.405-.109,4.807-.277v3.672q-2.4.169-4.807.277v7.563q1.634-.072,3.268-.175v-3.606q2.224-.138,4.443-.332v7.245Q553.8,652.7,546.28,652.741Z" transform="translate(-475.944 -613.627)" fill="#fff"/>
        <path id="Path_1169" data-name="Path 1169" d="M654.24,643.743V640.1c.478-.048.955-.1,1.433-.148V621.576q-.717.077-1.433.148v-3.672q4.77-.476,9.518-1.2c2.173-.332,3.669-.058,4.493.871s1.235,2.867,1.235,5.831a8.537,8.537,0,0,1-.567,3.508,4.816,4.816,0,0,1-1.99,2.059,3.107,3.107,0,0,1,2.125,1.095,4.829,4.829,0,0,1,.616,2.779v4.914c.4-.074.8-.15,1.2-.227v3.639q-3.371.647-6.759,1.169v-7.663q0-2.045-.459-2.479c-.306-.29-.918-.364-1.835-.235l-.493.069v7.077c.385-.053.771-.108,1.156-.164v3.639q-4.112.6-8.243,1.006Zm7.087-22.863v7.731l.425-.06a2.4,2.4,0,0,0,1.818-.953,7.359,7.359,0,0,0,.475-3.326,5.8,5.8,0,0,0-.484-3.02c-.324-.415-.926-.557-1.81-.431l-.425.06Z" transform="translate(-566.523 -605.539)" fill="#fff"/>
        <path id="Path_1170" data-name="Path 1170" d="M765.73,615.678v-3.638q.558-.111,1.113-.226,1.483-9.5,2.964-19.015l-1.111.245v-3.673q5.842-1.265,11.614-2.911v3.672c-.372.106-.742.211-1.114.314l3.091,17.49c.377-.111.752-.225,1.127-.338v3.638q-3.736,1.135-7.5,2.111V609.71q.568-.147,1.135-.3-.392-2.369-.784-4.741-2.229.582-4.471,1.108-.3,2.545-.6,5.088c.375-.087.75-.174,1.125-.264v3.639q-3.28.78-6.58,1.438Zm6.58-13.664q1.669-.4,3.333-.824-.785-4.695-1.573-9.4l-.217.054q-.77,5.086-1.542,10.167Z" transform="translate(-660.064 -580.151)" fill="#fff"/>
        <path id="Path_1171" data-name="Path 1171" d="M889.272,578.752v-7.564q2.287-.727,4.56-1.515v1.694a1.968,1.968,0,0,0,.393,1.372.943.943,0,0,0,1.082.172,1.887,1.887,0,0,0,1.145-1.008,5.847,5.847,0,0,0,.327-2.275,3.116,3.116,0,0,0-2.323-3.36c-.2-.064-.356-.116-.475-.153a11.434,11.434,0,0,1-2.539-1.109,4.481,4.481,0,0,1-1.392-1.314,4.973,4.973,0,0,1-.6-1.728,14.4,14.4,0,0,1-.206-2.61,10.284,10.284,0,0,1,1.278-5.334,6.546,6.546,0,0,1,3.576-2.942,4.367,4.367,0,0,1,1.982-.25,3.8,3.8,0,0,1,1.763.711V550.1q1.99-.741,3.965-1.529v7.564q-2.137.852-4.292,1.65v-1.408a1.56,1.56,0,0,0-.384-1.192.935.935,0,0,0-1.021-.122,1.714,1.714,0,0,0-.924.9,3.61,3.61,0,0,0-.352,1.65,3.249,3.249,0,0,0,.515,2.006,3.74,3.74,0,0,0,2.035,1.064c.153.045.391.1.718.169a5.849,5.849,0,0,1,3.381,1.716,4.354,4.354,0,0,1,.649,1.661,14.229,14.229,0,0,1,.211,2.708,14.009,14.009,0,0,1-1.206,6.242,6.438,6.438,0,0,1-3.587,3.309,5.163,5.163,0,0,1-2.272.356,3.107,3.107,0,0,1-1.787-.733v1.241q-2.1.724-4.215,1.4Z" transform="translate(-763.689 -548.361)" fill="#fff"/>
        <path id="Path_1172" data-name="Path 1172" d="M171.123,770.059c.277.087.552.172.829.256v2.228q-2.888-.886-5.752-1.867v-.805q.51.174,1.021.346V763.8l-1.021-.346v-.805q1.664.57,3.336,1.108v.805c-.431-.139-.863-.28-1.294-.422v6.416q1.437.473,2.882.924v-1.423Z" transform="translate(-157.055 -727.975)" fill="#fff"/>
        <path id="Path_1173" data-name="Path 1173" d="M211.448,777.04v2.04q-.418-.111-.836-.225V777.62q-1.447-.394-2.888-.813v2.623q.633.183,1.265.362v-1.029q.4.114.8.224V782l-.8-.224v-1.223q-.633-.179-1.265-.362v3.029q1.517.439,3.04.855v-1.423c.279.076.557.151.837.225v2.228q-2.983-.795-5.941-1.692v-.8q.517.157,1.035.311v-6.416c-.345-.1-.691-.206-1.035-.311v-.805q2.883.875,5.789,1.652Z" transform="translate(-190.163 -738.664)" fill="#fff"/>
        <path id="Path_1174" data-name="Path 1174" d="M255.734,789.172v.805c-.351-.076-.7-.151-1.05-.229v7.222q-.48-.106-.961-.216-1.985-3.644-3.964-7.332V795c.348.087.7.174,1.045.257v.805q-1.524-.372-3.044-.77v-.805c.346.09.691.18,1.037.269v-6.416q-.519-.133-1.037-.269v-.8q1.091.285,2.188.559,1.881,3.511,3.77,6.984v-5.281l-1.043-.24v-.805q1.529.355,3.06.686Z" transform="translate(-225.485 -748.631)" fill="#fff"/>
        <path id="Path_1175" data-name="Path 1175" d="M309.461,804.554v2.629l-.85-.142v-.754a4.73,4.73,0,0,0-2.9-1.787,2.8,2.8,0,0,0-2.3.409,2.684,2.684,0,0,0-.971,2.28,3.974,3.974,0,0,0,3.292,3.978,2.752,2.752,0,0,0,2.41-.513,1.823,1.823,0,0,0,.642-1.232q-1.7-.288-3.4-.607v-.8q2.181.411,4.369.768v3.775l-.85-.142V811.16a2.926,2.926,0,0,1-.95.7,3.855,3.855,0,0,1-2.291.182,5.221,5.221,0,0,1-3.02-1.689,5.426,5.426,0,0,1-.987-1.6,4.911,4.911,0,0,1-.349-1.8,3.719,3.719,0,0,1,.349-1.63,3.018,3.018,0,0,1,.993-1.185,3.85,3.85,0,0,1,3.038-.525,5.816,5.816,0,0,1,2.92,1.549v-.754q.425.072.85.141Z" transform="translate(-270.413 -762.265)" fill="#fff"/>
        <path id="Path_1176" data-name="Path 1176" d="M367.134,811.711v.805l-1.064-.124v4.429a3.87,3.87,0,0,1-.227,1.554,1.874,1.874,0,0,1-1.278,1.011,3.8,3.8,0,0,1-1.468.046,3.565,3.565,0,0,1-2.367-1.173,2.4,2.4,0,0,1-.519-1.09,6.633,6.633,0,0,1-.088-1.161v-4.429q-.526-.08-1.053-.164v-.805q1.582.251,3.168.475v.805c-.354-.05-.707-.1-1.061-.153v4.576a2.276,2.276,0,0,0,.465,1.491,2.2,2.2,0,0,0,1.478.749c1.312.178,1.969-.4,1.969-1.707V812.27q-.529-.066-1.056-.136v-.8q1.548.2,3.1.38Z" transform="translate(-318.874 -768.213)" fill="#fff"/>
        <path id="Path_1177" data-name="Path 1177" d="M413.642,824.586q-1.546-.13-3.089-.288l-.6,1.673c.367.039.734.076,1.1.113v.8q-1.466-.144-2.93-.314v-.8c.274.03.546.063.819.092q1.145-3.081,2.291-6.178-.488-.048-.976-.1v-.805q1.864.193,3.73.348v.8c-.327-.028-.655-.055-.982-.084q1.186,3.313,2.373,6.61c.274.021.547.04.821.06v.805q-1.514-.106-3.027-.24v-.8c.369.032.739.063,1.108.093q-.316-.894-.634-1.787Zm-.311-.91q-.616-1.768-1.233-3.539-.616,1.657-1.233,3.31,1.232.123,2.466.23Z" transform="translate(-360.027 -775.068)" fill="#fff"/>
        <path id="Path_1178" data-name="Path 1178" d="M485.6,823.536v2.04l-.858-.019v-1.235q-1.485-.036-2.972-.1v2.622c.435.018.868.034,1.3.049v-1.029c.274.01.549.018.823.026v3.017l-.823-.026v-1.224c-.435-.014-.868-.03-1.3-.048v3.028q1.565.063,3.128.1v-1.423l.86.019v2.228q-3.06-.061-6.118-.219v-.8q.533.029,1.067.053v-6.416q-.533-.024-1.067-.053v-.8q2.98.157,5.962.216Z" transform="translate(-420.033 -778.877)" fill="#fff"/>
        <path id="Path_1179" data-name="Path 1179" d="M525.142,828.4q1.229,1.712,2.457,3.406c.314-.006.628-.013.943-.021v.805q-1.666.043-3.333.055v-.8c.383,0,.765-.007,1.148-.013q-.913-1.261-1.826-2.531-.888,1.278-1.777,2.545c.383,0,.764,0,1.148,0v.8q-1.6,0-3.2-.026v-.805c.3.005.6.01.9.013q1.186-1.659,2.373-3.333-1.094-1.533-2.186-3.081c-.343,0-.684-.008-1.027-.014V824.6q1.644.027,3.291.024v.8h-1.027q.78,1.094,1.562,2.182.763-1.094,1.526-2.195c-.343,0-.684.008-1.027.01v-.805q1.589-.012,3.177-.048v.8l-.985.021q-1.065,1.507-2.131,3Z" transform="translate(-454.483 -779.926)" fill="#fff"/>
        <path id="Path_1180" data-name="Path 1180" d="M574.348,823.7v6.416c.385-.018.768-.037,1.153-.058v.8q-1.681.089-3.362.146v-.8c.382-.013.765-.027,1.146-.043v-6.416c-.6.024-1.2.047-1.8.064v1.423q-.43.014-.86.024v-2.228q3.188-.085,6.374-.278v2.228c-.287.018-.572.034-.858.05V823.6q-.9.051-1.8.094Z" transform="translate(-496.374 -778.399)" fill="#fff"/>
        <path id="Path_1181" data-name="Path 1181" d="M615.924,825.149v2.917l1.066-.084v.8q-1.594.13-3.19.232v-.8q.531-.034,1.061-.071v-6.416l-1.061.071v-.805q1.852-.118,3.7-.275a3.111,3.111,0,0,1,1.467.142,1.651,1.651,0,0,1,.861.853,2.145,2.145,0,0,1,.209.95,2.08,2.08,0,0,1-.945,1.837,2.8,2.8,0,0,1-.964.41,6.408,6.408,0,0,1-.652.115q1.036,1.371,2.072,2.73c.382-.037.761-.074,1.143-.113v.8c-.612.063-1.225.121-1.837.177q-1.3-1.741-2.606-3.5l-.33.026Zm0-.8q.524-.039,1.048-.082a3.244,3.244,0,0,0,1.294-.3,1.161,1.161,0,0,0,.467-.488,1.547,1.547,0,0,0,.167-.721,1.372,1.372,0,0,0-.167-.687.9.9,0,0,0-.467-.409,3.086,3.086,0,0,0-1.294-.084q-.524.044-1.048.082Z" transform="translate(-532.594 -776.677)" fill="#fff"/>
        <path id="Path_1182" data-name="Path 1182" d="M662.416,820.21q-1.538.2-3.081.382-.3.9-.6,1.8c.367-.04.733-.084,1.1-.126v.805q-1.464.171-2.93.322v-.805c.274-.027.546-.056.819-.085q1.145-3.33,2.289-6.673l-.974.113v-.8q1.862-.212,3.721-.46v.805c-.327.043-.652.087-.979.129q1.181,3.055,2.362,6.1l.817-.117v.8q-1.5.22-3.012.415v-.8l1.1-.147-.633-1.65Zm-.311-.842q-.616-1.636-1.23-3.272l-1.23,3.576Q660.877,819.528,662.1,819.369Z" transform="translate(-568.755 -771.628)" fill="#fff"/>
        <path id="Path_1183" data-name="Path 1183" d="M717.255,803.88v.805l-1.055.2v7.222q-.483.091-.966.179-2-2.828-4-5.7v5.58c.353-.056.707-.114,1.059-.172v.8q-1.543.256-3.089.485v-.8c.351-.052.7-.1,1.055-.159V805.9c-.351.055-.7.108-1.055.159v-.8q1.111-.164,2.22-.343,1.905,2.736,3.807,5.434v-5.281c-.349.065-.7.128-1.05.189v-.8q1.54-.271,3.077-.569Z" transform="translate(-612.635 -762.567)" fill="#fff"/>
        <path id="Path_1184" data-name="Path 1184" d="M765.709,798.4v.805c-.351.076-.7.151-1.051.225v4.928a6.991,6.991,0,0,1-.082,1.305,2.091,2.091,0,0,1-2.726,1.462c.076-.29.15-.578.226-.868a.982.982,0,0,0,.7.1.9.9,0,0,0,.674-.5,2.684,2.684,0,0,0,.166-1.116v-5.092q-.584.12-1.171.237v-.8q1.637-.326,3.268-.683Z" transform="translate(-656.808 -757.969)" fill="#fff"/>
        <path id="Path_1185" data-name="Path 1185" d="M796.629,788.61v2.04l-.839.214v-1.235q-1.451.367-2.909.708v2.623q.638-.15,1.277-.3v-1.029c.269-.064.536-.13.805-.2v3.017l-.805.2v-1.224q-.637.154-1.277.3v3.028q1.534-.359,3.061-.747v-1.423c.28-.071.559-.141.839-.214V796.6q-2.988.77-5.991,1.439v-.805c.35-.077.7-.156,1.05-.236v-6.416q-.524.121-1.05.236v-.8Q793.717,789.359,796.629,788.61Z" transform="translate(-681.089 -749.755)" fill="#fff"/>
        <path id="Path_1186" data-name="Path 1186" d="M835.291,784.669v2.917q.519-.143,1.038-.29v.8q-1.553.437-3.109.847v-.8q.519-.135,1.035-.275v-6.416c-.344.093-.691.185-1.035.275v-.805q1.809-.476,3.611-.989a2.945,2.945,0,0,1,1.428-.142,1.235,1.235,0,0,1,.837.687,1.956,1.956,0,0,1,.2.91,2.594,2.594,0,0,1-.919,2.019,3.362,3.362,0,0,1-.939.6q-.268.118-.634.242,1.009,1.171,2.014,2.331.556-.164,1.111-.333v.8q-.891.271-1.786.532-1.265-1.49-2.536-3Zm0-.8c.341-.094.681-.189,1.022-.285a3.689,3.689,0,0,0,1.259-.554,1.507,1.507,0,0,0,.454-.578,1.781,1.781,0,0,0,.163-.753,1.221,1.221,0,0,0-.163-.655.673.673,0,0,0-.454-.319,2.957,2.957,0,0,0-1.259.166l-1.022.285Z" transform="translate(-716.688 -742.324)" fill="#fff"/>
        <path id="Path_1187" data-name="Path 1187" d="M880.512,769.416q-1.488.5-2.982.977-.292.962-.584,1.92c.356-.111.71-.225,1.066-.338v.8q-1.418.457-2.841.887v-.805l.8-.243q1.111-3.55,2.219-7.116-.471.152-.943.3V765q1.8-.57,3.6-1.18v.8l-.946.319q1.142,2.828,2.281,5.64l.787-.275v.805q-1.451.512-2.908,1v-.8c.356-.119.711-.238,1.067-.361q-.3-.764-.612-1.528Zm-.3-.781q-.594-1.514-1.19-3.035-.594,1.911-1.191,3.814,1.193-.382,2.381-.781Z" transform="translate(-751.884 -728.956)" fill="#fff"/>
      </g>
      <path id="Path_1188" data-name="Path 1188" d="M118.664,637.36v8.586a.855.855,0,0,1-1.275.821l-.089-.036v1.006q2.8,1.1,5.622,2.11v-1.006l-.122-.044a2.044,2.044,0,0,1-1.283-1.781v-6.255a.88.88,0,0,1,1.283-.851q1.169.417,2.344.821c1.587.544,2.682.554,3.263.071q-4.907-1.582-9.743-3.442Z" transform="translate(-111.601 -617.904)" fill="#dcdcdc"/>
      <path id="Path_1189" data-name="Path 1189" d="M215.34,672.1a1.061,1.061,0,0,1-1,.214q-1.664-.418-3.325-.87a1.822,1.822,0,0,1-.995-.734,1.675,1.675,0,0,1-.307-.94c-.472-.132-.945-.266-1.417-.4q-.7,4.2-1.4,8.386a.9.9,0,0,1-1.077.768v1.022q1.939.587,3.886,1.13v-1.021a1.874,1.874,0,0,1-.786-.65,1.647,1.647,0,0,1-.319-1.122l.6-4.777a.958.958,0,0,1,1.3-.8q2.224.611,4.46,1.164a1.812,1.812,0,0,1,1.3,1.426q.394,2.567.789,5.134a1.1,1.1,0,0,1-.3.992,1.03,1.03,0,0,1-.826.253V682.3q2.463.6,4.939,1.125v-1.017a1.754,1.754,0,0,1-1.125-1.328q-.749-4.569-1.5-9.143-1.3-.3-2.59-.612A1.041,1.041,0,0,1,215.34,672.1Z" transform="translate(-185.869 -644.761)" fill="#dcdcdc"/>
      <g id="Group_1031" data-name="Group 1031" transform="translate(39.328 28.889)">
        <path id="Path_1190" data-name="Path 1190" d="M330.735,706.372a1.625,1.625,0,0,1-1.1-1.471q-.027-4.3-.053-8.6-.99-.166-1.978-.346v8.586a1.07,1.07,0,0,1-1.328,1.073l-.093-.018V706.6q2.273.43,4.555.8Z" transform="translate(-326.18 -695.95)" fill="#dcdcdc"/>
        <path id="Path_1191" data-name="Path 1191" d="M373.574,702.194c0,.456,0,.913.008,1.369a1.153,1.153,0,0,1-.388.887,1.187,1.187,0,0,1-.948.264l-.256-.033a1.589,1.589,0,0,1-1.283-1.132q-.251-.9-.5-1.81l-.872-.129q1.5,5.68,3,11.332,1.468.2,2.936.367V702.4q-.847-.1-1.7-.206Z" transform="translate(-362.383 -700.699)" fill="#dcdcdc"/>
      </g>
      <path id="Path_1192" data-name="Path 1192" d="M467.081,712.442v8.586a1.235,1.235,0,0,1-1.343,1.235l-.129-.008v1.006q3.069.2,6.144.295v-1.006c-.044,0-.085,0-.129,0a1.389,1.389,0,0,1-1.344-1.366v-8.586q-1.6-.062-3.2-.153Z" transform="translate(-403.834 -680.897)" fill="#dcdcdc"/>
      <path id="Path_1193" data-name="Path 1193" d="M559.753,713.362q-1.838.075-3.676.111v8.586a1.356,1.356,0,0,1-1.344,1.339h-.093V724.4q6.166-.077,12.323-.565v-4.613q-.879.071-1.76.131v2.289a1.44,1.44,0,0,1-1.342,1.406q-1.635.1-3.268.175a1.265,1.265,0,0,1-1.344-1.261V714.4a1.362,1.362,0,0,1,.507-1.043Z" transform="translate(-478.531 -681.668)" fill="#dcdcdc"/>
      <path id="Path_1194" data-name="Path 1194" d="M663.991,709.008a1.519,1.519,0,0,1-1.338,1.465l-.094.009v1.006q2.79-.3,5.569-.679v-1.018a1.124,1.124,0,0,1-1.158-1.149v-7.077a1.569,1.569,0,0,1,1.336-1.5c.164-.022.328-.045.493-.069a3.307,3.307,0,0,1,2.826.518c.56.528.8,1.515.8,3.3v6.348q2.053-.331,4.1-.709v-1.013a1.063,1.063,0,0,1-1.2-1.093v-4.914a3.731,3.731,0,0,0-.411-2.116,2.134,2.134,0,0,0-1.428-.681,1.055,1.055,0,0,1-.705-.443q-4.383.715-8.787,1.221v8.586Z" transform="translate(-569.076 -669.788)" fill="#dcdcdc"/>
      <path id="Path_1195" data-name="Path 1195" d="M783.536,673.107a1.8,1.8,0,0,1-1,.723q-1.665.428-3.333.825a1.078,1.078,0,0,1-1-.225,1.049,1.049,0,0,1-.311-.784c-.477.11-.955.218-1.431.324q-.707,4.555-1.417,9.1a1.746,1.746,0,0,1-1.1,1.322v1.022q1.973-.408,3.938-.859v-1.021a1.04,1.04,0,0,1-.794-.249,1.092,1.092,0,0,1-.322-.96q.3-2.54.605-5.084a1.776,1.776,0,0,1,1.309-1.459q2.241-.526,4.471-1.107a.973.973,0,0,1,1.294.766q.391,2.369.784,4.735a1.609,1.609,0,0,1-.3,1.143,1.865,1.865,0,0,1-.821.671v1.018q2.453-.655,4.893-1.377v-1.017a.915.915,0,0,1-1.111-.76q-.741-4.19-1.481-8.385-1.285.36-2.573.7a1.659,1.659,0,0,1-.308.935Z" transform="translate(-662.533 -646.522)" fill="#dcdcdc"/>
      <path id="Path_1196" data-name="Path 1196" d="M901.6,639.735c.109.032.275.085.483.153,1.887.554,2.891,2,2.891,4.234a7.2,7.2,0,0,1-.491,2.985,3.93,3.93,0,0,1-2.262,2.087,1.894,1.894,0,0,1-2.124-.355,2.929,2.929,0,0,1-.641-2.065V646.4q-.985.334-1.975.657v4.931q.816-.266,1.633-.541a2.008,2.008,0,0,1,.843-1.446,1.707,1.707,0,0,1,.444-.234.986.986,0,0,1,.982.124,2.271,2.271,0,0,0,1.32.536,4.057,4.057,0,0,0,1.757-.282,4.407,4.407,0,0,0,2.517-2.288,12.33,12.33,0,0,0,1.006-5.44,13.013,13.013,0,0,0-.189-2.47,3.506,3.506,0,0,0-.5-1.315,2.628,2.628,0,0,0-.9-.71q-2.424.93-4.87,1.789c.029.01.053.019.082.028Z" transform="translate(-766.175 -618.374)" fill="#dcdcdc"/>
      <g id="Group_1037" data-name="Group 1037" transform="translate(13.786 43.837)">
        <path id="Path_1197" data-name="Path 1197" d="M168.551,790.172v3.207a.151.151,0,0,1-.216.147l-.805-.272v.367q2.652.906,5.321,1.727v-1.79l-.4-.122v1.2a.154.154,0,0,1-.216.151q-1.444-.449-2.882-.924a.328.328,0,0,1-.216-.291v-3.207l-.591-.2Z" transform="translate(-167.53 -789.95)" fill="#dcdcdc"/>
        <g id="Group_1032" data-name="Group 1032" transform="translate(6.353 2.227)">
          <path id="Path_1198" data-name="Path 1198" d="M212.1,806.99a.162.162,0,0,1-.217.161q-1.524-.413-3.04-.855a.313.313,0,0,1-.217-.283v-3.028a.15.15,0,0,1,.1-.149c-.232-.068-.464-.135-.7-.2v3.207a.157.157,0,0,1-.217.154c-.272-.08-.546-.162-.818-.245v.367q2.743.829,5.506,1.568v-1.79l-.4-.108v1.2Z" transform="translate(-206.99 -802.63)" fill="#dcdcdc"/>
          <path id="Path_1199" data-name="Path 1199" d="M227.17,806.778v1l.364.1V806.7l-.464-.13A.3.3,0,0,1,227.17,806.778Z" transform="translate(-223.837 -805.936)" fill="#dcdcdc"/>
        </g>
        <g id="Group_1033" data-name="Group 1033" transform="translate(13.132 4.093)">
          <path id="Path_1200" data-name="Path 1200" d="M251.708,818.037c-.275-.068-.551-.135-.826-.2a.3.3,0,0,1-.219-.273v-3.207l-.525-.132v3.207a.165.165,0,0,1-.219.164c-.274-.069-.546-.14-.819-.211v.367q1.3.338,2.607.66v-.367Z" transform="translate(-249.1 -814.22)" fill="#dcdcdc"/>
          <path id="Path_1201" data-name="Path 1201" d="M273.367,818.578v2.074a.168.168,0,0,1-.159.176.276.276,0,0,1-.246-.151q-.679-1.249-1.357-2.5c-.229-.053-.457-.108-.684-.163q1.176,2.178,2.357,4.344c.206.047.412.093.618.138V818.7l-.527-.118Z" transform="translate(-267.407 -817.4)" fill="#dcdcdc"/>
        </g>
        <path id="Path_1202" data-name="Path 1202" d="M303.013,826.872a5.144,5.144,0,0,0,.934,1.51,4.983,4.983,0,0,0,2.871,1.6,3.668,3.668,0,0,0,2.173-.169,2.8,2.8,0,0,0,.9-.657.206.206,0,0,1,.246-.027.272.272,0,0,1,.148.232v1.034l.406.068v-3.336q-1.966-.323-3.927-.691v.367q1.584.3,3.173.565a.267.267,0,0,1,.164.1.244.244,0,0,1,.055.179,2,2,0,0,1-.7,1.351,2.942,2.942,0,0,1-2.568.554,4.251,4.251,0,0,1-3.513-4.239c-.229-.047-.459-.095-.688-.143a4.638,4.638,0,0,0,.332,1.7Z" transform="translate(-280.921 -819.315)" fill="#dcdcdc"/>
        <path id="Path_1203" data-name="Path 1203" d="M371.958,837.456v1.367c0,1.428-.758,2.093-2.193,1.9a2.456,2.456,0,0,1-1.642-.844,2.535,2.535,0,0,1-.523-1.649v-1.367l-.61-.092v1.22a6.5,6.5,0,0,0,.085,1.121,2.127,2.127,0,0,0,.464.971,3.34,3.34,0,0,0,2.2,1.079,3.6,3.6,0,0,0,1.386-.042,1.683,1.683,0,0,0,1.158-.911,3.738,3.738,0,0,0,.208-1.467v-1.22c-.179-.021-.356-.043-.535-.066Z" transform="translate(-334.878 -829.047)" fill="#dcdcdc"/>
        <path id="Path_1204" data-name="Path 1204" d="M414.709,844.571a.211.211,0,0,1-.027.2.2.2,0,0,1-.182.077q-1.234-.107-2.467-.23a.254.254,0,0,1-.182-.111.232.232,0,0,1-.029-.2c.063-.166.124-.333.187-.5l-.52-.053q-.587,1.58-1.172,3.156a.2.2,0,0,1-.211.124c-.2-.023-.4-.044-.6-.068v.367q1.241.142,2.484.266v-.367c-.293-.029-.584-.06-.877-.091a.251.251,0,0,1-.182-.111.222.222,0,0,1-.029-.2l.6-1.671a.2.2,0,0,1,.211-.127q1.543.157,3.09.288a.25.25,0,0,1,.211.162q.316.894.634,1.787a.2.2,0,0,1-.211.277c-.295-.024-.589-.048-.885-.074v.367q1.289.111,2.579.2v-.367l-.6-.043a.245.245,0,0,1-.211-.161q-.606-1.688-1.214-3.379l-.594-.05.187.534Z" transform="translate(-370.552 -834.903)" fill="#dcdcdc"/>
        <g id="Group_1034" data-name="Group 1034" transform="translate(50.47 9.634)">
          <path id="Path_1205" data-name="Path 1205" d="M501.822,849.372v1l.375.011V849.2l-.476-.014A.223.223,0,0,1,501.822,849.372Z" transform="translate(-498.387 -849.102)" fill="#dcdcdc"/>
          <path id="Path_1206" data-name="Path 1206" d="M486.278,851.99a.215.215,0,0,1-.224.214q-1.565-.038-3.128-.1a.233.233,0,0,1-.224-.228v-3.029a.206.206,0,0,1,.1-.175l-.716-.031v3.207a.211.211,0,0,1-.224.21c-.282-.013-.564-.028-.844-.042v.367q2.833.145,5.67.2v-1.79l-.411-.01v1.2Z" transform="translate(-481.02 -848.64)" fill="#dcdcdc"/>
        </g>
        <path id="Path_1207" data-name="Path 1207" d="M522.95,853.126a.222.222,0,0,1-.183.092l-.676-.01v.367q1.377.022,2.753.023v-.367c-.308,0-.615,0-.922,0a.227.227,0,0,1-.2-.118.215.215,0,0,1,.013-.225q.889-1.268,1.777-2.542a.228.228,0,0,1,.185-.1.223.223,0,0,1,.183.094q.913,1.268,1.826,2.527a.214.214,0,0,1,.016.227.226.226,0,0,1-.2.121q-.461.007-.922.01v.367q1.442-.012,2.885-.048v-.367c-.24.006-.48.011-.718.016a.225.225,0,0,1-.184-.09q-1.191-1.645-2.379-3.3c-.3,0-.592,0-.889,0q-1.181,1.668-2.363,3.323Z" transform="translate(-465.007 -839.979)" fill="#dcdcdc"/>
        <path id="Path_1208" data-name="Path 1208" d="M582.546,848.658v3.207a.233.233,0,0,1-.224.229c-.307.013-.615.024-.923.035v.367q1.456-.053,2.912-.127V852c-.309.016-.618.031-.929.045a.209.209,0,0,1-.224-.209V848.63Z" transform="translate(-514.769 -838.998)" fill="#dcdcdc"/>
        <path id="Path_1209" data-name="Path 1209" d="M618.647,845.532c.241-.032.452-.069.629-.111.022-.005.045-.016.068-.021q-1.541.135-3.083.245v3.207a.241.241,0,0,1-.224.235c-.279.019-.558.039-.837.057v.367q1.372-.09,2.742-.2v-.367c-.282.023-.562.045-.844.066a.2.2,0,0,1-.224-.2V845.89a.244.244,0,0,1,.224-.237c.109-.008.221-.016.33-.025a.2.2,0,0,1,.184.08q1.27,1.714,2.539,3.41c.5-.047,1-.094,1.5-.145v-.367c-.306.031-.613.061-.919.09a.207.207,0,0,1-.184-.076q-1.036-1.36-2.072-2.734a.212.212,0,0,1-.018-.22.252.252,0,0,1,.19-.139Z" transform="translate(-543.127 -836.288)" fill="#dcdcdc"/>
        <path id="Path_1210" data-name="Path 1210" d="M663.472,840.21a.23.23,0,0,1-.029.2.265.265,0,0,1-.182.116q-1.229.159-2.46.3a.2.2,0,0,1-.182-.071.212.212,0,0,1-.029-.2c.061-.18.124-.359.185-.539-.172.021-.346.04-.518.06q-.584,1.708-1.171,3.41a.256.256,0,0,1-.211.169l-.6.063v.367q1.244-.128,2.484-.272v-.367c-.293.034-.585.068-.877.1a.2.2,0,0,1-.211-.266q.3-.9.6-1.8a.259.259,0,0,1,.211-.172q1.541-.179,3.082-.382a.191.191,0,0,1,.209.117q.316.826.633,1.649a.229.229,0,0,1-.027.2.261.261,0,0,1-.182.118l-.881.118v.367q1.285-.169,2.566-.354v-.367l-.594.085a.189.189,0,0,1-.209-.114q-.6-1.558-1.209-3.117l-.593.079c.061.164.124.328.185.493Z" transform="translate(-579.271 -831.455)" fill="#dcdcdc"/>
        <g id="Group_1035" data-name="Group 1035" transform="translate(87.427 6.685)">
          <path id="Path_1211" data-name="Path 1211" d="M713.215,838.9c-.279.045-.559.092-.837.135a.184.184,0,0,1-.222-.183V835.64l-.531.084v3.207a.27.27,0,0,1-.222.255q-.415.065-.832.126v.367q1.323-.2,2.645-.415Z" transform="translate(-710.57 -834.783)" fill="#dcdcdc"/>
          <path id="Path_1212" data-name="Path 1212" d="M735.14,830.417v2.073a.274.274,0,0,1-.161.24.193.193,0,0,1-.248-.05l-1.369-1.946-.692.119q1.191,1.7,2.378,3.376l.623-.114V830.32l-.529.1Z" transform="translate(-729.112 -830.32)" fill="#dcdcdc"/>
        </g>
        <path id="Path_1213" data-name="Path 1213" d="M765.166,825.139v1.885a2.872,2.872,0,0,1-.193,1.227,1.181,1.181,0,0,1-.868.655,1.223,1.223,0,0,1-.562-.011c-.034.132-.069.266-.1.4a1.812,1.812,0,0,0,.866.016,1.619,1.619,0,0,0,1.388-1.325,6.905,6.905,0,0,0,.075-1.253V825.01l-.605.127Z" transform="translate(-667.501 -819.18)" fill="#dcdcdc"/>
        <g id="Group_1036" data-name="Group 1036" transform="translate(100.563 4.456)">
          <path id="Path_1214" data-name="Path 1214" d="M797.312,821.816a.3.3,0,0,1-.219.275q-1.529.386-3.06.747a.168.168,0,0,1-.219-.167v-3.028a.286.286,0,0,1,.1-.2c-.233.055-.469.11-.7.163v3.207a.294.294,0,0,1-.221.27l-.829.188v.367q2.784-.623,5.553-1.335v-1.79c-.134.034-.267.068-.4.1Z" transform="translate(-792.16 -818.964)" fill="#dcdcdc"/>
          <path id="Path_1215" data-name="Path 1215" d="M812.56,816.749v1l.367-.09V816.48l-.467.114A.163.163,0,0,1,812.56,816.749Z" transform="translate(-809.192 -816.48)" fill="#dcdcdc"/>
        </g>
        <path id="Path_1216" data-name="Path 1216" d="M837.922,804.926a6.488,6.488,0,0,0,.612-.232c.023-.01.044-.024.066-.034q-1.5.433-3,.839v3.207a.308.308,0,0,1-.219.278q-.408.111-.818.218v.367q1.338-.352,2.674-.728v-.367c-.274.078-.547.153-.821.229a.16.16,0,0,1-.217-.159v-2.917a.308.308,0,0,1,.217-.278l.322-.089a.172.172,0,0,1,.18.045q1.236,1.468,2.471,2.922.727-.213,1.454-.433v-.367l-.894.267a.168.168,0,0,1-.179-.042q-1.007-1.161-2.016-2.333a.207.207,0,0,1-.016-.217.319.319,0,0,1,.185-.174Z" transform="translate(-727.171 -802.107)" fill="#dcdcdc"/>
        <path id="Path_1217" data-name="Path 1217" d="M881.548,789.452a.256.256,0,0,1-.027.209.332.332,0,0,1-.176.151q-1.188.4-2.381.781a.167.167,0,0,1-.177-.035.2.2,0,0,1-.028-.192c.06-.191.121-.383.18-.574l-.5.159q-.568,1.821-1.135,3.637a.327.327,0,0,1-.2.209l-.578.177v.367q1.205-.367,2.409-.752v-.367l-.85.269a.162.162,0,0,1-.175-.037.2.2,0,0,1-.029-.19q.292-.959.586-1.919a.324.324,0,0,1,.2-.212q1.495-.476,2.981-.977a.151.151,0,0,1,.2.077c.2.509.407,1.019.61,1.526a.25.25,0,0,1-.026.209.337.337,0,0,1-.176.153q-.425.145-.852.288v.367q1.242-.415,2.478-.852v-.367l-.573.2a.151.151,0,0,1-.2-.074q-.582-1.44-1.167-2.884l-.572.194.179.457Z" transform="translate(-762.376 -788.8)" fill="#dcdcdc"/>
      </g>
    </g>
    <g id="Group_1039" data-name="Group 1039" transform="translate(1134.484 5817.817)">
      <path id="Path_1218" data-name="Path 1218" d="M268.7,245.774a135.107,135.107,0,0,0,11.376-8.146c7.34-5.944,14-12.807,18.255-21.229a18.7,18.7,0,0,0-5.577-11.853,24.81,24.81,0,0,0-8.422-5.12,72.51,72.51,0,0,0-9.541-2.587,4.947,4.947,0,0,0-1.578-2.5c-.642-.642-1.211-1.23-1.853-1.89a17.226,17.226,0,0,0,1.871-12.182,35.9,35.9,0,0,1-9.009,3.118,141.775,141.775,0,0,1-14.861,2.312,10.764,10.764,0,0,0-1.174-9.082c-11.321,7.412-24.531,10.972-36.9,16.531a15.1,15.1,0,0,0-4.165,2.458,6.152,6.152,0,0,0-2.183,4.366,3.836,3.836,0,0,0-3.046.147,23.871,23.871,0,0,0-2.7,1.6,4.981,4.981,0,0,1-2.935.881c-2.66,2.642-5.3,5.339-7.816,8.092a5.949,5.949,0,0,0-1.707,2.7,3.607,3.607,0,0,0,2.441,4.055c.422,3.724,3.247,6.936,6.184,9.228a25.736,25.736,0,0,0,7.762,4.055,3.307,3.307,0,0,1-.312-2.294,11.008,11.008,0,0,1,5.908,7.871,13.209,13.209,0,0,1-6.606-1.945,9.556,9.556,0,0,0,2.862,7.119,1.857,1.857,0,0,0-.57,3.156c.514.459,1.3.605,1.707,1.138a4.252,4.252,0,0,1,.422,2.421c.109,2.642,2.349,4.807,4.862,5.669a20.924,20.924,0,0,0,8.129.734,2.407,2.407,0,0,1-1.211-2,9.874,9.874,0,0,0,8.293-.623,3.541,3.541,0,0,1-2.074-1.138,3.446,3.446,0,0,1-.734-2.146,12.311,12.311,0,0,0,3.743.7,5.147,5.147,0,0,1-.147-4.4c1.1-2.4,4.036-3.577,6.641-3.21a12.1,12.1,0,0,1,6.733,3.816c2.425,2.346,23.286,3.3,27.925.184Z" transform="translate(-186.675 -176.62)" fill="#020304"/>
      <path id="Path_1219" data-name="Path 1219" d="M687.561,376.36a10.207,10.207,0,0,0-5.651-7.3,8.279,8.279,0,0,1,4.9,2.091,16.214,16.214,0,0,0-4.385-9.449,16.674,16.674,0,0,1,7.742,10.275,17.368,17.368,0,0,1-1.743,13.046,21.426,21.426,0,0,0-5.889-10.275A8,8,0,0,1,687.561,376.36Z" transform="translate(-602.18 -331.903)" fill="#303088"/>
      <path id="Path_1220" data-name="Path 1220" d="M746.286,350.367c3.23,2.22,5.542,6.33,5.063,10.22a6.794,6.794,0,0,0-3.247-3.706,11.133,11.133,0,0,1-2.44,7.027c.9-3.394-.367-7.1-2.513-9.908-2.146-2.771-5.12-4.862-8.018-6.881C739,347.616,743.056,348.147,746.286,350.367Z" transform="translate(-646.831 -319.67)" fill="#303088"/>
      <path id="Path_1221" data-name="Path 1221" d="M620.488,526.727a11.9,11.9,0,0,1-9.468-2.257,29.456,29.456,0,0,0,17.449-3.56A12.105,12.105,0,0,1,620.488,526.727Z" transform="translate(-542.702 -465.481)" fill="#303088"/>
      <path id="Path_1222" data-name="Path 1222" d="M419.006,475.141c-1.56-1.357-2.146-2.257-3.761-3.5A14.066,14.066,0,0,0,400.2,470.5a7.189,7.189,0,0,0-2.9,2.587,3.951,3.951,0,0,0-.109,3.78c-.935-.2-1.853-.312-2.751-.5.018.844.037,2.019.055,2.825a4.823,4.823,0,0,1-1.816-3.852,7.042,7.042,0,0,0,4.165-3.358,20.3,20.3,0,0,0,1.963-5.12c.588-2.146,1.23-4.311,1.816-6.459.66-2.367,1.377-4.991.238-7.174a26.727,26.727,0,0,0,7.34,3.21,3.714,3.714,0,0,0-1.6-2.458,39.822,39.822,0,0,1,8.605,4.331,6.7,6.7,0,0,0-2.2-3.1c1.982.238,4.091.459,6.073.715a3.782,3.782,0,0,0-1.541-2.808,8.693,8.693,0,0,1-2.257-2.66,10.391,10.391,0,0,1,6.862,9.3c-1.486-.422-2.679-.459-4.11-.918.734,1.265,1.578,2.6,2.294,3.872-2.954-1.211-6.018-2.2-8.918-3.394.863.826,1.56,1.724,2.421,2.55-2.294-.973-4.678-1.945-6.973-2.917a7.98,7.98,0,0,1-1.3,3.706c-.642-.972-1.193-1.761-1.8-2.716a60.591,60.591,0,0,1-3.542,8.422,30.992,30.992,0,0,1,22.477.734c-2.238-.109-4.587-.092-6.862-.2a16.068,16.068,0,0,0,6.256,3.8c4.88,1.578,10.183.66,15.211-.258-2.33,1.285-1.285.718-3.54,2-4.439.725-11.545,1.138-14.752.694Z" transform="translate(-359.512 -406.373)" fill="#303088"/>
      <path id="Path_1223" data-name="Path 1223" d="M559.925,370.865A14.344,14.344,0,0,0,557.631,362a13.8,13.8,0,0,0-6.733-5.872,15.46,15.46,0,0,1,12.073,4.917,8.153,8.153,0,0,0-4.2-1.248,24.6,24.6,0,0,1,8.037,11.835,8.623,8.623,0,0,0-4.624-.7,7.663,7.663,0,0,1,3.542,5.871,25.127,25.127,0,0,0-9.376-2.054,5.67,5.67,0,0,1,.826,5.376,4.218,4.218,0,0,0-1.633-3.376,4.522,4.522,0,0,1-2.22,4.641,15.262,15.262,0,0,0-.459-6.385,7.407,7.407,0,0,0-5.192-4.55,57.061,57.061,0,0,1,12.257.4Z" transform="translate(-489.551 -327.214)" fill="#303088"/>
      <path id="Path_1224" data-name="Path 1224" d="M463.225,355.187c-1.3-.568-2.6-1.119-3.853-1.687a29.1,29.1,0,0,1,15.5,5.909,29.113,29.113,0,0,0-17.816-.642,14.1,14.1,0,0,1,6.165-3.577Z" transform="translate(-413.529 -325.023)" fill="#303088"/>
      <path id="Path_1225" data-name="Path 1225" d="M496.05,290.128a62.6,62.6,0,0,1,11.835,2,26.731,26.731,0,0,0-19.063-6.147,14.29,14.29,0,0,1,4.477,1.853,13.5,13.5,0,0,0-5.688,1.1,21.926,21.926,0,0,1,10.954,4.862,3.739,3.739,0,0,0-2.513-3.669Z" transform="translate(-439.161 -268.33)" fill="#303088"/>
      <path id="Path_1226" data-name="Path 1226" d="M320.238,229.85c-10.109.605-20.532,1.853-29.227,7.045a10.49,10.49,0,0,0-3.358,2.972,3.774,3.774,0,0,0,.129,4.165,6.982,6.982,0,0,0-5.651.385,12.851,12.851,0,0,1,8.459,2.019c.147-.184.258-.4.4-.588-1.945-.568-2.7-3.192-1.908-5.063a9.135,9.135,0,0,1,4.386-4.128c7.559-4.091,16.513-5.155,24.99-4,8.476,1.174,16.6,4.477,24.164,8.55a30.088,30.088,0,0,0-10.6-6.422,68.47,68.47,0,0,0-12.036-2.991,27.525,27.525,0,0,1,15.174.422c-1.5.092-2.716.422-4.22.531a26.319,26.319,0,0,1,9.027,3.944,13.155,13.155,0,0,0-.679-2.66,4.015,4.015,0,0,0-1.67-2.054,33.517,33.517,0,0,0,9.32-3.688c-.349,1.779-.679,3.577-1.027,5.395a10.875,10.875,0,0,1-.881,3.156,4.3,4.3,0,0,1-2.257,2.22,9.686,9.686,0,0,1,3.413,2.751,95.068,95.068,0,0,1,3.964-16.072c-9.632,3.247-19.815,3.522-29.907,4.11Z" transform="translate(-266.762 -217.832)" fill="#303088"/>
      <path id="Path_1227" data-name="Path 1227" d="M481.054,201.336a6.114,6.114,0,0,0,1.357-3.45,42.7,42.7,0,0,1-14.641,4.073c3.577-1.486,7.174-2.935,10.771-4.386,1.908-.807,3.853-1.449,5.211-3.064a9.93,9.93,0,0,1-1.082,6.715c-.349.074-1.248.074-1.615.11Z" transform="translate(-422.515 -191.63)" fill="#303088"/>
      <path id="Path_1228" data-name="Path 1228" d="M388.978,335.622a3.293,3.293,0,0,1,3.376.459,1.679,1.679,0,0,0-1.266.129,4.054,4.054,0,0,0-1.064.715,4.9,4.9,0,0,1-1.523.972,3.149,3.149,0,0,1-2.091-.018A7.933,7.933,0,0,1,388.978,335.622Z" transform="translate(-354.254 -309.807)" fill="#fff"/>
      <path id="Path_1229" data-name="Path 1229" d="M335.975,307.77a4.666,4.666,0,0,0,3.468-.33,14.277,14.277,0,0,0,2.88-2.054,12.217,12.217,0,0,1,2.917-2.019,8.439,8.439,0,0,1,5.211-.4,19.934,19.934,0,0,1,4.917,1.945,60.478,60.478,0,0,1,6.11,4.055,17.479,17.479,0,0,0-10.532-2.843,2.859,2.859,0,0,1,2.4-.826,7.531,7.531,0,0,0-5.926-.66,14.064,14.064,0,0,0-3.853,2.183,16.172,16.172,0,0,1-3.78,2.275,5.343,5.343,0,0,1-4.311-.055,3.277,3.277,0,0,1-1.707-3.724c-.184,1.193,1.082,2.074,2.2,2.458Z" transform="translate(-309.985 -282.431)" fill="#303088"/>
      <path id="Path_1230" data-name="Path 1230" d="M370.546,292.3a6.141,6.141,0,0,1,5.284-.349,10.113,10.113,0,0,0-7.779,4.641c.258-1.835.863-3.376,2.5-4.294Z" transform="translate(-338.849 -273.012)" fill="#303088"/>
      <path id="Path_1231" data-name="Path 1231" d="M367.245,342.639a8.858,8.858,0,0,0,6.953-4.128,8.223,8.223,0,0,1-3.964,1.119,14.28,14.28,0,0,1,3.267-2.7,7.63,7.63,0,0,1,2.679-.844,5,5,0,0,0-3.651.476c-1.119.588-2.146,1.339-3.23,1.945a11.483,11.483,0,0,1-9.449.568A8.966,8.966,0,0,0,367.245,342.639Z" transform="translate(-331.97 -310.272)" fill="#303088"/>
      <path id="Path_1232" data-name="Path 1232" d="M367.868,390.944a11.484,11.484,0,0,0-4.183.238,28.488,28.488,0,0,1,10.146,2.66,20.01,20.01,0,0,0-9.816-6.66c1.8.055,3.651.055,5.467.11a8.126,8.126,0,0,0-4.678-1.835,7.949,7.949,0,0,0-4.844,1.377c2.6,1.357,5.284,2.826,7.908,4.11Z" transform="translate(-332.062 -351.825)" fill="#303088"/>
      <path id="Path_1233" data-name="Path 1233" d="M316.089,420.994a20.475,20.475,0,0,1,11.173,8.678,30.682,30.682,0,0,1-1.468,8.238c-.789,2.441-2.111,5.009-4.5,5.963-2.128.863-4.7.258-6.916-.367a22.362,22.362,0,0,0-4.678,2.679c-.5.385-.99.844-.935,1.414a1.147,1.147,0,0,0,.881.99,1.954,1.954,0,0,0,1.357-.238,5.933,5.933,0,0,0,1.285-.935,7.719,7.719,0,0,0-.99,3.468,5.448,5.448,0,0,0,1.027,3.431,3.85,3.85,0,0,0,3.046,1.744,2.624,2.624,0,0,1,.514-2.55,1.761,1.761,0,0,0,.9.918,4.565,4.565,0,0,0,1.248.312,13.421,13.421,0,0,0,4.606-.109,26.108,26.108,0,0,1-5.522-1.578c-.734-.293-1.56-.715-1.779-1.505-.258.771-.789,1.431-1.046,2.2-.385-.129-.568-.642-.734-.972a3.364,3.364,0,0,1-.221-1.119,17.126,17.126,0,0,1,.184-3.761,2.305,2.305,0,0,0,1.541,2.2c.018-.806-.037-1.652-.018-2.458a6.675,6.675,0,0,0,3.155,2.128,3.308,3.308,0,0,1-.459-3.083,5.913,5.913,0,0,0,5.247.2c-1.009-.293-1.871-.752-2.9-1.01a10.719,10.719,0,0,0,6.018-4.661,30.505,30.505,0,0,0,2.568-7.008c.568-2.019,1.082-4.257.074-6.073a8.186,8.186,0,0,0-3.009-2.679c-3.064-1.908-6.092-3.815-9.156-5.725-.2.5-.275.771-.5,1.265Z" transform="translate(-289.108 -380.59)" fill="#303088"/>
      <path id="Path_1234" data-name="Path 1234" d="M339.373,531.97a8.066,8.066,0,0,0,.166,4.128c1.56-.605,3.083-1.193,4.642-1.761C342.712,533.622,340.859,532.667,339.373,531.97Z" transform="translate(-314.63 -474.76)" fill="#fff"/>
      <path id="Path_1235" data-name="Path 1235" d="M361.5,547.529a3.048,3.048,0,0,0,1.322-.972,1.06,1.06,0,0,0-.074-1.377,14.418,14.418,0,0,1-5.412,2.679A7.811,7.811,0,0,0,361.5,547.529Z" transform="translate(-329.864 -485.844)" fill="#303088"/>
      <path id="Path_1236" data-name="Path 1236" d="M294.726,547.439c-1.23-.441-2.513-.918-3.706-1.339a6.758,6.758,0,0,0,3.027,4.2,7.784,7.784,0,0,1,3.853-2.22c-.037-.4-.238-.642-.275-1.046-1.119.587-2.238,1.138-3.358,1.724a10.342,10.342,0,0,1,.459-1.322Z" transform="translate(-274.221 -486.615)" fill="#fff"/>
      <path id="Path_1237" data-name="Path 1237" d="M248.961,459.3a3.651,3.651,0,0,0,1.707,3.193,10.436,10.436,0,0,1-5.467-3.046,3.952,3.952,0,0,1,2.33-2.862,11.173,11.173,0,0,1,3.724-.789c2.533-.258,5.063-.5,7.633-.752a8.136,8.136,0,0,0,2.349,5.688,11.754,11.754,0,0,1-6.127-3.468,15.724,15.724,0,0,0-7.651,1.632C247.953,459.021,248.447,459.205,248.961,459.3Z" transform="translate(-235.778 -410.216)" fill="#fff"/>
      <path id="Path_1238" data-name="Path 1238" d="M345.06,442.16a9.522,9.522,0,0,1-1.009,3.267,4.5,4.5,0,0,0-2.441-1.505A4.756,4.756,0,0,1,345.06,442.16Z" transform="translate(-316.666 -399.409)" fill="#fff"/>
      <path id="Path_1239" data-name="Path 1239" d="M357.36,463.692A11.273,11.273,0,0,1,356,473.709a3.729,3.729,0,0,1-1.816,1.6,3.344,3.344,0,0,1-3.118-.918,5.6,5.6,0,0,1-1.816-4.22,5.514,5.514,0,0,1,2.33-3.907,8.139,8.139,0,0,0,.109,4.679c.2-3.175,2.7-6,5.669-7.248Z" transform="translate(-323.077 -417.473)" fill="#b53623"/>
      <path id="Path_1240" data-name="Path 1240" d="M211.912,440.136a1.077,1.077,0,0,1,.918-.293,4.569,4.569,0,0,1,.935.275,14.1,14.1,0,0,1,2.037,1.174,2.462,2.462,0,0,1,.99,1.138,2.859,2.859,0,0,1-.642,2.294,7.5,7.5,0,0,1-4.239-4.587Z" transform="translate(-207.847 -397.458)" fill="#9897ca"/>
      <path id="Path_1241" data-name="Path 1241" d="M200.983,399.726a10.583,10.583,0,0,1-2.843-3.339,7.766,7.766,0,0,1,6.348-2.111,11.718,11.718,0,0,1-.844,4.165,3.82,3.82,0,0,1-2.6-1.01,5.079,5.079,0,0,1-.055,2.294Z" transform="translate(-196.294 -359.176)" fill="#b53623"/>
      <path id="Path_1242" data-name="Path 1242" d="M218.267,355.574c1.193.074,2.421.349,3.632.33,2.019-.037,4.055-.826,5.926-.11a14.128,14.128,0,0,0-7.119,4.44,6.119,6.119,0,0,0-1.6,3.138,2.82,2.82,0,0,0,1.486,2.972,4.817,4.817,0,0,0,2.111.183c2.275-.2,4.55-.367,6.825-.513a8.774,8.774,0,0,0,3.89-.881,5.378,5.378,0,0,0,2.349-3.376,8.652,8.652,0,0,0-.129-4.165,8.011,8.011,0,0,0-1.394-3.027,7.8,7.8,0,0,0-5.834-2.66,24.691,24.691,0,0,0-6.825.807,12.027,12.027,0,0,1,5.063-2.238,7.14,7.14,0,0,0-6.623.752A21.76,21.76,0,0,0,215,356c.9-.881,2.074-.623,3.266-.422Z" transform="translate(-210.44 -322.051)" fill="#9897ca"/>
      <path id="Path_1243" data-name="Path 1243" d="M296.71,377.914a2.908,2.908,0,0,1-1.652.918,8.953,8.953,0,0,1-2.788.385c.844-.385,1.669-.752,2.478-1.138a3.791,3.791,0,0,0,1.248-.7,1.709,1.709,0,0,0,.679-1.211,1.293,1.293,0,0,1,.037,1.743Z" transform="translate(-275.27 -344.043)" fill="#020304"/>
      <path id="Path_1244" data-name="Path 1244" d="M288.548,397.86a3.4,3.4,0,0,0,2.165-2.88,21.6,21.6,0,0,1-5.963,3.853A10.951,10.951,0,0,0,288.548,397.86Z" transform="translate(-268.96 -359.825)" fill="#020304"/>
      <path id="Path_1245" data-name="Path 1245" d="M292.15,414.087a3.551,3.551,0,0,0,2.294-3.267,11.462,11.462,0,0,1-6.495,3.944,10.653,10.653,0,0,0,4.2-.679Z" transform="translate(-271.645 -373.115)" fill="#020304"/>
    </g>
    <path id="Path_1246" data-name="Path 1246" d="M448.318,574.018a7.856,7.856,0,0,0-6.9.127,5.653,5.653,0,0,0-3.239,4.949l10.455,1.22c1.739.2,4.426.414,3.616-1.975a7.729,7.729,0,0,0-3.935-4.32Z" transform="translate(736.793 5308.396)" fill="#020304"/>
  </g>
</svg>
