<svg xmlns="http://www.w3.org/2000/svg" width="128.042" height="128.041" viewBox="0 0 128.042 128.041">
  <path id="Trazado_18836" data-name="Trazado 18836" d="M105.177,0a22.867,22.867,0,0,1,22.816,21.361l.048,1.5v82.312a22.867,22.867,0,0,1-21.361,22.816l-1.5.048H22.865A22.866,22.866,0,0,1,.049,106.68L0,105.177V22.865A22.866,22.866,0,0,1,21.361.049L22.865,0ZM118.9,36.583H9.146v68.593a13.72,13.72,0,0,0,12.4,13.656l1.321.063h82.313a13.721,13.721,0,0,0,13.656-12.4l.063-1.321ZM36.583,82.312a9.146,9.146,0,1,1-9.146,9.145A9.146,9.146,0,0,1,36.583,82.312Zm27.438,0a9.146,9.146,0,1,1-9.146,9.145A9.146,9.146,0,0,1,64.021,82.312ZM36.583,54.875a9.146,9.146,0,1,1-9.146,9.146A9.146,9.146,0,0,1,36.583,54.875Zm27.438,0a9.146,9.146,0,1,1-9.146,9.146A9.146,9.146,0,0,1,64.021,54.875Zm27.437,0a9.146,9.146,0,1,1-9.146,9.146A9.146,9.146,0,0,1,91.458,54.875ZM105.177,9.146H22.865a13.72,13.72,0,0,0-13.656,12.4l-.063,1.321v4.573H118.9V22.865A13.721,13.721,0,0,0,106.5,9.209Z" fill="#404040"/>
</svg>
