<svg xmlns="http://www.w3.org/2000/svg" width="783.344" height="184.582" viewBox="0 0 783.344 184.582">
  <g id="Group_3882" data-name="Group 3882" transform="translate(-488.373 -8042.602)">
    <g id="logos_caribes-05" data-name="logos caribes-05" transform="translate(747 8094.157)">
      <path id="Path_1013" data-name="Path 1013" d="M465.808,459.21l-1.288.67c.435-.209.87-.435,1.3-.652Z" transform="translate(-143.802 -459.21)" fill="#5a1225"/>
      <path id="Path_1017" data-name="Path 1017" d="M115.02,525.426v44.866c0,7.917-2.436,13.311-8.178,18.618L95.88,583.168a15.008,15.008,0,0,0,6.438-12.876V525.4Z" transform="translate(-95.88 -507.439)" fill="#5a1024"/>
      <path id="Path_1018" data-name="Path 1018" d="M172.638,555.88c0,12.963-9.135,23.49-21.489,23.49s-21.489-10.527-21.489-23.49V525.43h12.528v25.23c0,9.483,1.479,17.052,8.961,17.052s8.961-7.569,8.961-17.052V525.43h12.528Z" transform="translate(-100.271 -507.443)" fill="#5a1024"/>
      <path id="Path_1019" data-name="Path 1019" d="M220.793,565.942V577.6H189.56V525.4h30.363v11.658h-17.8v7.308h15.225v11.658H202.123v9.918Z" transform="translate(-108.058 -507.439)" fill="#5a1024"/>
      <path id="Path_1020" data-name="Path 1020" d="M275.345,531.26l-8.091,8.787c-2.871-3.828-6.525-5.133-11.484-5.133-8,0-11.571,9.222-11.31,17.226.261,7.482,3.828,15.486,11.31,15.486,3.741,0,4.785-.783,7.047-2.523V550.834h12.528v18.7a24.09,24.09,0,0,1-19.575,9.57c-14.094,0-23.577-12.876-24.012-26.97-.435-14.616,9.4-28.536,24.012-28.71C263.948,523.342,269.777,525.343,275.345,531.26Z" transform="translate(-113.542 -507.183)" fill="#5a1024"/>
      <path id="Path_1021" data-name="Path 1021" d="M336.244,551.27c0,14.094-9.048,27.84-23.142,27.84s-23.142-13.746-23.142-27.84,9.048-27.84,23.142-27.84S336.244,537.176,336.244,551.27ZM313.1,567.626c7.569,0,10.44-7.656,10.44-16.356s-2.871-16.356-10.44-16.356-10.44,7.656-10.44,16.356S305.533,567.626,313.1,567.626Z" transform="translate(-121.11 -507.183)" fill="#5a1024"/>
      <path id="Path_1022" data-name="Path 1022" d="M349.63,538.394c0-8.7,9.57-14.964,17.4-14.964,6.264,0,10.7,1.74,14.79,6.09l-6.96,8.265c-2.175-2.175-4.089-3.219-6.96-3.219-3.132,0-6.09.87-6.09,3.828s3.219,4.611,6.525,6.351l4.785,2.61c6.177,3.306,10.44,8.352,10.44,15.225,0,9.4-8.874,16.53-18.27,16.53-5.829,0-12.18-1.74-16.53-7.4l7.4-9.135c2.175,3.045,5.655,5.22,9.135,5.22,2.958,0,6.09-1.827,6.09-5.22,0-3.045-3.045-4.785-6.96-6.96l-4.785-2.61C354.589,550.313,349.63,546.05,349.63,538.394Z" transform="translate(-128.754 -507.183)" fill="#5a1024"/>
      <path id="Path_1023" data-name="Path 1023" d="M462.637,531.26l-7.569,8a11.45,11.45,0,0,0-10.7-4.35c-7.482.783-10.005,8.874-10.005,16.356s2.523,15.834,10.005,16.356a11.155,11.155,0,0,0,10.7-5.22l7.569,8.874c-5.133,5.742-10.527,7.83-18.27,7.83-14.007,0-22.707-13.833-22.707-27.84s9.57-27.84,22.707-27.84C452.11,523.43,457.5,525.518,462.637,531.26Z" transform="translate(-138.23 -507.183)" fill="#5a1024"/>
      <path id="Path_1024" data-name="Path 1024" d="M471.34,576.586l18.705-51.156h10.579l18.705,51.156L506.8,579.37l-3.219-10.527h-16.53l-3.219,10.527Zm19.314-19.4h9.4l-4.7-15.486Z" transform="translate(-144.689 -507.443)" fill="#5a1024"/>
      <path id="Path_1025" data-name="Path 1025" d="M572.981,573.889l-11.049,5.481L547.142,560.4h-1.914V577.63H532.7v-52.2h14.529c10.527,0,20.532,6.96,20.532,17.487a16.183,16.183,0,0,1-8.787,14.268Zm-25.752-25.143c3.828,0,7.83-2,7.83-5.829s-2-5.829-7.83-5.829h-2v11.658Z" transform="translate(-152.665 -507.443)" fill="#5a1024"/>
      <path id="Path_1026" data-name="Path 1026" d="M599.1,577.63H586.4v-52.2h12.7Z" transform="translate(-159.646 -507.443)" fill="#5a1024"/>
      <path id="Path_1027" data-name="Path 1027" d="M649.605,562.405c0,9.918-9.135,15.225-20.445,15.225H613.5v-52.2h14.79c10,0,19.14,3.828,19.14,13.05,0,5.22-2.61,9.135-7.83,11.31C646.125,551.53,649.605,556.228,649.605,562.405Zm-14.355-21.75c0-2.436-2-3.915-6.96-3.915h-2.175v8.7h2.175c4.385,0,6.995-1.3,6.995-4.785Zm1.74,20.445c0-3.915-2.61-5.22-8.265-5.22h-2.61v10.44h2.61c5.69,0,8.3-1.74,8.3-5.22Z" transform="translate(-163.169 -507.443)" fill="#5a1024"/>
      <path id="Path_1028" data-name="Path 1028" d="M694.333,565.942V577.6H663.1V525.4h30.363v11.658H675.628v7.308h15.225v11.658H675.628v9.918Z" transform="translate(-169.617 -507.439)" fill="#5a1024"/>
    </g>
    <g id="logos_caribes-05-2" data-name="logos caribes-05" transform="translate(488.373 8042.602)">
      <path id="Path_1007" data-name="Path 1007" d="M492.238,267.875l-77.408-15.63,64.848-13.056A90.6,90.6,0,0,1,492.238,267.875Z" transform="translate(-310.248 -197.943)" fill="#fff"/>
      <path id="Path_1008" data-name="Path 1008" d="M491.677,300.709a91.562,91.562,0,0,1-.9,12.876l-81.822-43.437L407,266.84l83.094,16.783A91.5,91.5,0,0,1,491.677,300.709Z" transform="translate(-307.094 -208.636)" fill="#fff"/>
      <path id="Path_1009" data-name="Path 1009" d="M494.133,325.107a90.725,90.725,0,0,1-8.845,25.174l-62.472-56.445h0l-5.6-9.556Z" transform="translate(-311.211 -215.211)" fill="#fff"/>
      <path id="Path_1010" data-name="Path 1010" d="M491.809,368.928A91.1,91.1,0,0,1,477.576,387.2L438.75,321Z" transform="translate(-319.882 -228.828)" fill="#fff"/>
      <path id="Path_1011" data-name="Path 1011" d="M473.383,403.688A90.13,90.13,0,0,1,454.086,417h0l.651-.334L436.33,385.012l7.1-26.786,1.021-3.846Z" transform="translate(-319.711 -242.272)" fill="#fff"/>
      <path id="Path_1012" data-name="Path 1012" d="M397.4,394.247a89.571,89.571,0,0,1-37.859,8.337h-1.852a1.945,1.945,0,0,0-.215-.5l-23.113-39.418L304.226,350.72a1.084,1.084,0,0,1-.6-.6,1.061,1.061,0,0,1,0-.842l9.556-21.728-9.884-4.091c1.571-4.18,7.167-14.614,24.206-17.672l1.947-.352-.813-8.958a.288.288,0,0,1,.221-.293l10.249-2.066,22.976,39.543a2.167,2.167,0,0,0,.394.49l.042.089a15.171,15.171,0,0,0,20.766,5.495q.358-.209.7-.43L378.2,361.172Z" transform="translate(-267.652 -218.002)" fill="#fff"/>
      <path id="Path_1013-2" data-name="Path 1013" d="M465.4,459.21l-.884.46c.3-.143.6-.3.89-.448Z" transform="translate(-331.315 -284.494)" fill="#5a1225"/>
      <path id="Path_1014" data-name="Path 1014" d="M403.152,300.307c-.275-.09-.55-.173-.836-.251a15.2,15.2,0,0,0-18.574,10.792,1.634,1.634,0,0,1-.078.317L359.978,270.4a1,1,0,0,1,.663-1.481L382.2,264.58l4.324,7.376,9.556,16.263h0l.173.3h0Z" transform="translate(-290.04 -207.756)" fill="#fff"/>
      <path id="Path_1015" data-name="Path 1015" d="M427.585,344.019a10.87,10.87,0,1,1-10.524-13.659,11.015,11.015,0,0,1,2.8.364A10.876,10.876,0,0,1,427.585,344.019Z" transform="translate(-308.304 -233.74)" fill="#fff"/>
      <path id="Path_1016" data-name="Path 1016" d="M429.821,276.738,346.255,232.63l-1.995-3.36,84.865,17.042q-.452-2.365-1.013-4.676l-79.077-15.878L415.267,212.5q-1.324-2-2.763-3.918a92.3,92.3,0,1,0-81.126,147.106h0c1.707.127,3.428.212,5.166.243a2,2,0,0,0-.219-.51l-23.606-40.027-30.773-12.129a1.108,1.108,0,0,1-.61-.606,1.076,1.076,0,0,1,0-.855l9.76-22.064L281,275.586c1.6-4.245,7.32-14.84,24.722-17.946l1.989-.358-.83-9.1a.292.292,0,0,1,.225-.3l10.467-2.1,23.466,40.155a2.171,2.171,0,0,0,.4.5l.043.091a15.542,15.542,0,0,0,21.209,5.58q.366-.212.714-.437l-5.91,22.2,19.611,33.556c.225-.1.451-.206.677-.321l.8-.376.787-.388.9-.467.665-.34-18.8-32.143,7.253-27.2,1.043-3.906,29.559,50.113c1.122-1,2.22-2.025,3.287-3.087l-39.654-67.2,54.189,48.657c.775-1.286,1.5-2.59,2.208-3.918L356.21,249.55h0l-5.715-9.7,78.552,41.459Q429.5,279.043,429.821,276.738Zm-64.212,4.925a11.094,11.094,0,1,1-10.748-13.87,11.29,11.29,0,0,1,2.861.37A11.038,11.038,0,0,1,365.609,281.663ZM352.464,251.9h0l.177.3h0l7.039,11.936c-.281-.091-.561-.176-.854-.255a15.532,15.532,0,0,0-18.97,10.959,1.651,1.651,0,0,1-.08.321l-24.191-41.392a1.011,1.011,0,0,1,.677-1.5l22.02-4.409,4.416,7.49Z" transform="translate(-246.14 -171.37)" fill="#5a1225"/>
    </g>
  </g>
</svg>
