<svg xmlns="http://www.w3.org/2000/svg" width="156.579" height="122.539" viewBox="0 0 156.579 122.539">
  <g id="Group_3926" data-name="Group 3926" transform="translate(-2559.416 -2258.951)">
    <g id="Group_1777" data-name="Group 1777" transform="translate(2559.416 2258.951)">
      <path id="Path_7093" data-name="Path 7093" d="M125.3,84.754,123,90.126a41.919,41.919,0,0,1-16.275-12.175c-6.166-7.587-7.941-13.019-8.821-18.991a16.225,16.225,0,0,0-9.555,8.958c-1.764,4.417-.846,10,2.323,14.647l.049-.05a54.636,54.636,0,0,1,12.322,44.234,81.363,81.363,0,0,1-2.472,9.544l-5.567-1.773a79.418,79.418,0,0,0,2.278-8.712A48.835,48.835,0,0,0,88.73,89.453c-2.153,3.071-4.48,6.069-6.939,8.956a65.5,65.5,0,0,1-13.274,11.98,53.515,53.515,0,0,1-15.444,7.256,49.983,49.983,0,0,1-8.553,1.616l-.586-5.813a43.91,43.91,0,0,0,7.549-1.419,48.13,48.13,0,0,0,13.766-6.474,60.183,60.183,0,0,0,12.09-10.927A113.637,113.637,0,0,0,85.01,84.546c-3.6-6-4.429-12.933-2.081-18.794a21.2,21.2,0,0,1,10.56-11.233,37.779,37.779,0,0,0-16.017-4.038,39.11,39.11,0,0,0-23.529,7.256l-3.4-4.748a44.133,44.133,0,0,1,51.527-.147l1.089.758.147,1.322c.624,5.886,1.162,10.976,7.965,19.344A36.172,36.172,0,0,0,125.3,84.754" transform="translate(-43.933 -19.847)" fill="#5a1024"/>
      <path id="Path_7094" data-name="Path 7094" d="M78.37,35.681c2.167,5.567,5.259,12.7,8.03,14.838a6.838,6.838,0,0,0,8.357-10.824C91.984,37.555,84.3,36.368,78.37,35.681M90.553,57.789a12.58,12.58,0,0,1-7.722-2.645c-4.518-3.485-8.184-12.628-11.553-21.693L69.587,28.9l4.83.484c9.622.963,19.393,2.2,23.911,5.683A12.68,12.68,0,0,1,92.2,57.683a12.891,12.891,0,0,1-1.646.106" transform="translate(-29.149 -28.903)" fill="#5a1024"/>
    </g>
    <g id="Group_1778" data-name="Group 1778" transform="translate(2634.625 2265.045)">
      <path id="Path_7095" data-name="Path 7095" d="M173.017,88.62l-2.3,5.372a41.92,41.92,0,0,1-16.275-12.175c-6.166-7.587-7.941-13.019-8.821-18.991a16.225,16.225,0,0,0-9.555,8.958c-1.764,4.417-.846,10,2.323,14.647l.049-.05a54.636,54.636,0,0,1,12.322,44.234,81.368,81.368,0,0,1-2.472,9.544l-5.567-1.773A79.413,79.413,0,0,0,145,129.673a48.835,48.835,0,0,0-8.555-36.354c-2.153,3.071-4.48,6.069-6.939,8.956a65.5,65.5,0,0,1-13.274,11.98,53.514,53.514,0,0,1-15.444,7.256,49.98,49.98,0,0,1-8.553,1.616l-.586-5.813a43.908,43.908,0,0,0,7.549-1.419,48.129,48.129,0,0,0,13.766-6.474,60.181,60.181,0,0,0,12.09-10.927,113.637,113.637,0,0,0,7.672-10.082c-3.6-6-4.429-12.933-2.081-18.794A21.2,21.2,0,0,1,141.2,58.385a37.779,37.779,0,0,0-16.017-4.038A39.11,39.11,0,0,0,101.656,61.6l-3.4-4.748a44.133,44.133,0,0,1,51.527-.147l1.089.758.147,1.322c.624,5.886,1.162,10.976,7.965,19.344A36.172,36.172,0,0,0,173.017,88.62" transform="translate(-91.647 -23.713)" fill="#5a1024"/>
      <path id="Path_7096" data-name="Path 7096" d="M126.084,39.547c2.167,5.567,5.258,12.7,8.03,14.838a6.838,6.838,0,0,0,8.357-10.824c-2.773-2.139-10.456-3.326-16.387-4.013m12.183,22.107a12.579,12.579,0,0,1-7.722-2.645c-4.518-3.485-8.184-12.628-11.553-21.693L117.3,32.769l4.83.484c9.622.963,19.393,2.2,23.911,5.683a12.68,12.68,0,0,1-6.129,22.613,12.892,12.892,0,0,1-1.646.106" transform="translate(-76.863 -32.769)" fill="#5a1024"/>
    </g>
  </g>
</svg>
