<svg xmlns="http://www.w3.org/2000/svg" width="175" height="174" viewBox="0 0 175 174">
  <g id="Group_3959" data-name="Group 3959" transform="translate(-1807 -5796)">
    <rect id="Rectangle_215" data-name="Rectangle 215" width="174" height="175" transform="translate(1982 5796) rotate(90)" fill="none"/>
    <g id="Group_1331" data-name="Group 1331" transform="translate(1850.15 5816.447)">
      <path id="Path_3530" data-name="Path 3530" d="M348.052,223.186c3.494-4.273,4.54-9.65,5.452-14.827,1.014-5.756,1.982-11.556,1.777-17.377a30.542,30.542,0,0,0-5.148-16.687,24.7,24.7,0,0,0-16.177-9.847,51.784,51.784,0,0,1-11.846-13.229c-1.79-2.9-3.25-5.946-5.188-8.768a20.207,20.207,0,0,0-7.745-7.055c-3.315-1.589-8-2.269-11.311-.671a8.986,8.986,0,0,0-5.84-2.536,9.294,9.294,0,0,0-6.161,1.879,9.437,9.437,0,0,0-3.162,5.09c-.5,1.908-.217,3.958-.267,5.915a7.025,7.025,0,0,1,5.728-3.04q.34,3.562.682,7.123c-2.779,1.281-5.325,3.262-6.431,5.818a10.03,10.03,0,0,0,.023,8.014,17.671,17.671,0,0,0-9.06,11.337,30.343,30.343,0,0,0,3.558,24.007c3.411,5.523,8.495,10.1,13.514,14.61,3.874,3.479,6.407,8.155,11.238,10.568,7.264,3.628,16.027,3.95,24.4,4.18l18.091.5c1.26.034,2.671.021,3.57-.747,1.035-.884,1.574-3.647.3-4.251Z" transform="translate(-272.312 -132.176)"/>
      <path id="Path_3531" data-name="Path 3531" d="M406.349,243.8c2.614-4.974,1.786-10.842-.339-15.987s-5.445-9.855-7.887-14.9-3.992-10.691-2.339-15.966a12.869,12.869,0,0,1,5.926-7.214,56.76,56.76,0,0,1-10.565-12.772c-1.471-2.446-2.732-4.987-4.337-7.369a19.936,19.936,0,0,0-6.216-6.187,13.893,13.893,0,0,0-9.359-1.824l4.476,4.511a4.317,4.317,0,0,1,3.7-.46,3.1,3.1,0,0,1,2.062,2.525c-.335-.215-.7-.468-1.038-.683a3.417,3.417,0,0,1-1.611,2.235,8.977,8.977,0,0,0,2.461,1.909,5.586,5.586,0,0,1-2.131.019,8.55,8.55,0,0,1,.287,8.676,4.118,4.118,0,0,0-1.343-2.182,14.143,14.143,0,0,1-9.862,4.23,14.313,14.313,0,0,1-.978,5.152,8.031,8.031,0,0,0-1.736-5.178c-.155,2.539-1.965,4.9-4.187,6.563a3.108,3.108,0,0,0,2.08.089,19.121,19.121,0,0,0-.2,11.559,7.537,7.537,0,0,1,2.708-5.014,31.551,31.551,0,0,0,4.368,10.13c.667-1.948,1.488-3.948,2.155-5.9a10.235,10.235,0,0,1,1.867,6.141,27.516,27.516,0,0,0,3.657-8.265,11.275,11.275,0,0,1,2.468,6.663,23.115,23.115,0,0,0,3.761-11.9,13.759,13.759,0,0,1,2.873,5.166,21.932,21.932,0,0,0-.121-13.946,6.22,6.22,0,0,1,2.161,3.872,28.534,28.534,0,0,1-.785,14.984,4.212,4.212,0,0,0-2.208-2.071,27.011,27.011,0,0,1-8.2,9.6,9.263,9.263,0,0,0-.24-4.133,12.148,12.148,0,0,1-7.073,6,21.271,21.271,0,0,0,1.349-5.424,13.109,13.109,0,0,1-2.978,4.409,38.174,38.174,0,0,1-3.521-8.987c-.6,2-1.383,3.806-1.982,5.8a22.961,22.961,0,0,1-3.725-9.225,21.774,21.774,0,0,0-1.2,16.16c.606-.964,1.241-1.867,1.848-2.829a39.191,39.191,0,0,0,.282,7.484,14.413,14.413,0,0,0,3.021,7.071,7.192,7.192,0,0,1,1.2-4.494,49.559,49.559,0,0,0,11.086,16,33.383,33.383,0,0,0,6.522,5.238c.931.557,2.208,1.171,3.119,1.751a36.15,36.15,0,0,1-3.563-19.33,58.223,58.223,0,0,0,7.023,16.824,49.605,49.605,0,0,0,10.733,4.248,8.984,8.984,0,0,0,3.973.222c1.3-.306,2-1.935,2.556-2.995Z" transform="translate(-343.719 -156.651)" fill="#000d14"/>
      <path id="Path_3532" data-name="Path 3532" d="M359.806,198.886a28.684,28.684,0,0,0,2.489,12.458,6.6,6.6,0,0,1,2.734-2.441,26.563,26.563,0,0,0,2.358,7.837,3.791,3.791,0,0,1,1.738-2.883,10.069,10.069,0,0,0-.029,6.073,12.5,12.5,0,0,0,5.061-7.125,18.386,18.386,0,0,1,.24,6.749,20.417,20.417,0,0,0,11.446-13.229,13.914,13.914,0,0,1,2.661,7.063,33.838,33.838,0,0,0,.028-27.9c.034.151.06.3.091.453a5.252,5.252,0,0,0-1.694-2.3,21.92,21.92,0,0,1,.122,13.946,13.773,13.773,0,0,0-2.873-5.166,23.132,23.132,0,0,1-3.761,11.9,11.266,11.266,0,0,0-2.468-6.663,27.518,27.518,0,0,1-3.657,8.265,10.234,10.234,0,0,0-1.867-6.142c-.667,1.948-1.488,3.949-2.156,5.9a31.5,31.5,0,0,1-4.368-10.131,7.545,7.545,0,0,0-2.708,5.014,19.121,19.121,0,0,1,.2-11.559,3.107,3.107,0,0,1-2.079-.089,12.49,12.49,0,0,0,2.8-2.852,11.9,11.9,0,0,1,1.467,6.653,9.545,9.545,0,0,0,2.922-4.951,12.858,12.858,0,0,0,3.017,8.257,22.725,22.725,0,0,1,.9-7.653,14.268,14.268,0,0,1,2.57,5.61,24.021,24.021,0,0,0,.619-8.657,20.578,20.578,0,0,1,3.233,6.92,41.733,41.733,0,0,0,.69-12.126,8.573,8.573,0,0,0-.4-8.464,5.586,5.586,0,0,0,2.131-.019,8.979,8.979,0,0,1-2.462-1.909,3.415,3.415,0,0,0,1.611-2.235c.335.215.7.468,1.038.683a3.1,3.1,0,0,0-2.062-2.525,4.316,4.316,0,0,0-3.7.46l-4.477-4.511a13.893,13.893,0,0,1,9.36,1.824,19.9,19.9,0,0,1,6.216,6.187c1.6,2.381,2.867,4.924,4.337,7.369a56.716,56.716,0,0,0,10.565,12.772,13.754,13.754,0,0,0-1.936,1.351,13.1,13.1,0,0,0-5.785,8.116c-1.54,5.929-.236,12.124,1.493,18.015s3.9,11.766,4.094,17.843a7.744,7.744,0,0,0,3.183-5.094,39.664,39.664,0,0,1-2.068,16.785c-.293-.053-.585-.113-.871-.178a49.6,49.6,0,0,1-10.733-4.248,58.24,58.24,0,0,1-7.023-16.824c-.071,1.028-.1,2.062-.107,3.1a24.974,24.974,0,0,0-2.313,10.34,11.932,11.932,0,0,1-2.713-7.052,13.091,13.091,0,0,0-1.31,5.589,49.277,49.277,0,0,1-10.725-15.629,7.2,7.2,0,0,0-1.2,4.494,14.409,14.409,0,0,1-3.021-7.071,39.191,39.191,0,0,1-.282-7.484c-.607.962-1.241,1.866-1.848,2.829a21.773,21.773,0,0,1,1.2-16.16c.023.139.055.277.081.416Z" transform="translate(-343.694 -156.66)" fill="#226dc6"/>
      <path id="Path_3533" data-name="Path 3533" d="M379.237,244.133a13.114,13.114,0,0,0-1.283,4.852q-3.216-4.956-6.313-9.972a39.387,39.387,0,0,1-4.366-8.4,7.81,7.81,0,0,0-1.163,3.2,31.667,31.667,0,0,1-3.448-6.158c-.026-1.2,0-2.4.04-3.626-.291.463-.589.912-.888,1.36a29.931,29.931,0,0,1-1.547-9.285,24.3,24.3,0,0,1,1.787-5.406c.022.139.055.277.081.416a28.683,28.683,0,0,0,2.489,12.458,6.6,6.6,0,0,1,2.734-2.441,26.563,26.563,0,0,0,2.358,7.837,3.792,3.792,0,0,1,1.738-2.883,10.072,10.072,0,0,0-.029,6.073,12.5,12.5,0,0,0,5.061-7.125,18.384,18.384,0,0,1,.24,6.749,20.416,20.416,0,0,0,11.446-13.229,13.91,13.91,0,0,1,2.661,7.063,33.836,33.836,0,0,0,.028-27.9c.034.151.06.3.091.454a5.25,5.25,0,0,0-1.694-2.3c.029.088.055.177.085.264a5.4,5.4,0,0,0-1.213-.831,9.522,9.522,0,0,1-.353,8.208,4.654,4.654,0,0,0-2.766-2.165,17.881,17.881,0,0,1-2.18,9.711,6.4,6.4,0,0,0-2.531-4.167c-.985,2.162-2.136,4.24-3.121,6.4a17.146,17.146,0,0,0-2.468-3.984,16.6,16.6,0,0,1-2.016,4.485,11.86,11.86,0,0,1-3.989-8.362,14.643,14.643,0,0,0-2.875,2.611q-.185-2.976-.369-5.95c.081-.287.165-.572.259-.855a3.107,3.107,0,0,1-2.079-.089,12.491,12.491,0,0,0,2.8-2.852,11.9,11.9,0,0,1,1.467,6.653A9.543,9.543,0,0,0,370.828,200a12.859,12.859,0,0,0,3.018,8.257,22.726,22.726,0,0,1,.9-7.653,14.27,14.27,0,0,1,2.57,5.609,24.02,24.02,0,0,0,.619-8.657,20.582,20.582,0,0,1,3.233,6.921,41.726,41.726,0,0,0,.69-12.126,8.573,8.573,0,0,0-.4-8.464,5.494,5.494,0,0,0,2.07-.01,5.134,5.134,0,0,0,1.913-.562,10.1,10.1,0,0,1-2.2-.9,6.09,6.09,0,0,0-1.573-.865,3.23,3.23,0,0,0,1.069-1.825c.335.215.7.468,1.038.684a3.1,3.1,0,0,0-2.062-2.525,4.315,4.315,0,0,0-3.7.46q-1.006-1.016-2.013-2.029a7.191,7.191,0,0,1,4.123-.034,10.2,10.2,0,0,1,4.83,3.328,38.986,38.986,0,0,1,3.134,4.7,54.905,54.905,0,0,0,11.128,12.78,58.6,58.6,0,0,0,4.8,4.891,13.747,13.747,0,0,0-1.936,1.351,13.1,13.1,0,0,0-5.785,8.116c-1.54,5.929-.237,12.124,1.493,18.015s3.9,11.766,4.094,17.843a7.744,7.744,0,0,0,3.183-5.094A39.666,39.666,0,0,1,403,258.991c-.293-.053-.585-.113-.871-.178a36.074,36.074,0,0,1-6.833-2.392,64.776,64.776,0,0,1-9.925-20.65c-.241,1.2-.439,2.4-.572,3.594-.147-.539-.295-1.077-.426-1.623-.071,1.028-.1,2.062-.107,3.1a24.97,24.97,0,0,0-2.313,10.34,11.93,11.93,0,0,1-2.713-7.052Z" transform="translate(-346.024 -168.892)" fill="#063351"/>
      <path id="Path_3534" data-name="Path 3534" d="M467.45,194.058l3.021-1.488a3.571,3.571,0,0,1,.246,1.43,1.382,1.382,0,0,1-.946,1.087,1.729,1.729,0,0,1-1.241-.18A5.586,5.586,0,0,1,467.45,194.058Z" transform="translate(-435.846 -182.789)" fill="#fefefe"/>
      <path id="Path_3535" data-name="Path 3535" d="M346.772,153.159a9.234,9.234,0,0,1,3.011-3.934,6.482,6.482,0,0,1,5.141-1.1,9.262,9.262,0,0,1,3.778,2.327q2.925,2.573,5.737,5.243a3.449,3.449,0,0,0,.912,3.068c.776.85,1.754,1.555,2.493,2.431a3.154,3.154,0,0,1,.839,3.046,5.259,5.259,0,0,0-2.471-1.851,5.226,5.226,0,0,1-3.11,5.533,15.333,15.333,0,0,1-4.255.915,63.02,63.02,0,0,0-12.976,3.087,10.8,10.8,0,0,1,6.627-4.9c1.848-.484,3.811-.552,5.665-1.016s3.711-1.458,4.3-3.051c.619-1.67-.319-3.471-1.474-4.911a14.926,14.926,0,0,0-6.138-4.651,11.646,11.646,0,0,0-8.083-.232Z" transform="translate(-333.957 -145.412)" fill="#161b18"/>
      <path id="Path_3536" data-name="Path 3536" d="M633.84,355.526a28.4,28.4,0,0,1,6.725,19.215,54.774,54.774,0,0,1-1.43,10.322,76.327,76.327,0,0,0-4.486-13.869,13.552,13.552,0,0,1-2.455,6.208c-1.347-3.229-2.749-6.326-4.1-9.556a12.664,12.664,0,0,1-.8,5.615,19.579,19.579,0,0,1-9.367-8.738,16.027,16.027,0,0,1-1.059-11.9c.523-1.712,1.728-3.618,3.764-3.744,5.013,1.119,10.176,2.8,13.2,6.444Z" transform="translate(-560.493 -313.95)" fill="#000d14"/>
      <path id="Path_3537" data-name="Path 3537" d="M644.995,502.09q-1.983-3.668-3.966-7.335-1-1.859-2.008-3.716a8.18,8.18,0,0,1,5.246,4.7c.863,2.159.717,4.065.73,6.35Z" transform="translate(-579.628 -432.919)" fill="#000d14"/>
      <path id="Path_3538" data-name="Path 3538" d="M687.812,535.611a92.8,92.8,0,0,1-3.3-21.711,11.609,11.609,0,0,1,3.54,6.707,34.672,34.672,0,0,0,3.566-5.162C691.966,522.291,690.281,529.1,687.812,535.611Z" transform="translate(-617.751 -452.076)" fill="#000d14"/>
      <path id="Path_3539" data-name="Path 3539" d="M700.562,573.909a66.237,66.237,0,0,0,5.309-22.689c1.2,4.368,2.183,8.712,1.482,13.161a15.191,15.191,0,0,1-7.684,11.2c.251-.47.685-1.184.895-1.668Z" transform="translate(-630.455 -483.352)" fill="#000d14"/>
      <path id="Path_3540" data-name="Path 3540" d="M406.282,584.958a25.154,25.154,0,0,1-9.86-11.409c-.355,1.54-.787,2.889-1.142,4.429,1.6,2.953,3,6.075,4.6,9.028.931-.556,2.355-.371,3.484-.434A3.892,3.892,0,0,0,406.282,584.958Z" transform="translate(-375.364 -502.065)" fill="#063351"/>
      <path id="Path_3541" data-name="Path 3541" d="M312.662,435.109q1.691,1.334,3.38,2.669a15.621,15.621,0,0,1,.823-5.278,37.456,37.456,0,0,0,2.382,15.943,4.523,4.523,0,0,1,1.77-4.321,22.683,22.683,0,0,0,3.5,11.774,20.069,20.069,0,0,1-8.3-9.138,54.007,54.007,0,0,1-3.563-11.652Z" transform="translate(-306.125 -383.86)" fill="#226dc6"/>
      <path id="Path_3542" data-name="Path 3542" d="M308.656,494.21a21.185,21.185,0,0,0,6.312,12.519,11.479,11.479,0,0,1-6.316-5.2A8.609,8.609,0,0,1,308.656,494.21Z" transform="translate(-302.082 -435.575)" fill="#063351"/>
      <path id="Path_3543" data-name="Path 3543" d="M301.961,328.03a6.843,6.843,0,0,0-5.408.695,11.711,11.711,0,0,0-3.727,3.664,22.821,22.821,0,0,0-2.015,22.537,20.691,20.691,0,0,1,1.678-12.179,7.236,7.236,0,0,0,2.3,4.81,14.884,14.884,0,0,1,1.406-7.913,7.121,7.121,0,0,0,1.662,3.877,56.509,56.509,0,0,1,4.1-15.49Z" transform="translate(-286.07 -296.07)" fill="#000d14"/>
      <path id="Path_3544" data-name="Path 3544" d="M352.5,167.02c1.848-.484,3.811-.552,5.665-1.015s3.711-1.458,4.3-3.051c.619-1.67-.319-3.471-1.474-4.911a14.925,14.925,0,0,0-6.138-4.651,11.646,11.646,0,0,0-8.083-.232,9.236,9.236,0,0,1,3.011-3.934,6.482,6.482,0,0,1,5.141-1.1,9.267,9.267,0,0,1,3.78,2.327q2.925,2.575,5.737,5.243a3.449,3.449,0,0,0,.912,3.068c.776.85,1.754,1.555,2.492,2.431a3.154,3.154,0,0,1,.839,3.046,4.971,4.971,0,0,0-2.1-1.689,4.881,4.881,0,0,0-.4-.69,5.338,5.338,0,0,1-2.967,3.863,17.808,17.808,0,0,1-5.179,1.649,26.3,26.3,0,0,0-5.288,1.411,10.6,10.6,0,0,0-2.923,1.892c-1.336.374-2.66.787-3.96,1.249a10.8,10.8,0,0,1,6.627-4.9Z" transform="translate(-333.956 -145.412)" fill="#161b18"/>
      <path id="Path_3545" data-name="Path 3545" d="M352.507,167.02c1.848-.484,3.811-.552,5.665-1.015a7.159,7.159,0,0,0,3.681-2.016,4.3,4.3,0,0,0,.552-.517,3.863,3.863,0,0,0,.556-4.373c-.295-.549-.724-1.041-.965-1.61a1.5,1.5,0,0,1,.224-1.714,17.309,17.309,0,0,0-3.688-3.294,8.841,8.841,0,0,0-5.026-1.4,5.77,5.77,0,0,0-3.629,1.472,9.971,9.971,0,0,0-3.1.606,9.235,9.235,0,0,1,3.011-3.934,6.482,6.482,0,0,1,5.141-1.1,9.269,9.269,0,0,1,3.78,2.327q2.925,2.575,5.737,5.243a3.449,3.449,0,0,0,.912,3.068c.776.85,1.754,1.555,2.493,2.431a3.155,3.155,0,0,1,.839,3.046,4.972,4.972,0,0,0-2.1-1.689,4.88,4.88,0,0,0-.4-.69,5.339,5.339,0,0,1-2.967,3.863,17.809,17.809,0,0,1-5.179,1.649,26.3,26.3,0,0,0-5.288,1.411,10.6,10.6,0,0,0-2.923,1.892c-1.336.374-2.66.787-3.96,1.249a10.8,10.8,0,0,1,6.627-4.9Z" transform="translate(-333.965 -145.412)" fill="#515251"/>
      <path id="Path_3546" data-name="Path 3546" d="M511.54,256.63a5.421,5.421,0,0,1-.63,3.493c-.954,1.714.329,3.707,1.148,5.471A8.81,8.81,0,0,0,511.54,256.63Z" transform="translate(-471.983 -236.473)" fill="#226dc6"/>
      <path id="Path_3547" data-name="Path 3547" d="M541.22,254.9a37.814,37.814,0,0,1-7.538-5.769c-2.1-2.275-3.529-5.165-3.186-8.065A55.234,55.234,0,0,0,541.22,254.9Z" transform="translate(-488.638 -223.434)" fill="#226dc6"/>
      <path id="Path_3548" data-name="Path 3548" d="M532.669,484.854c-1.642,6.789,1.273,14.264,7.332,18.792a26.865,26.865,0,0,1-2.685-14.591,12.546,12.546,0,0,1,5.258,8.417,30.362,30.362,0,0,0-.99-8.325q-1.819-6.428-3.638-12.858a21.557,21.557,0,0,0-1.846,14.4A17.5,17.5,0,0,1,532.669,484.854Z" transform="translate(-490.122 -420.557)" fill="#226dc6"/>
      <path id="Path_3549" data-name="Path 3549" d="M468.626,501.14a16.125,16.125,0,0,1-7.842,6.807,17.229,17.229,0,0,0,.061,9.332,12.045,12.045,0,0,1,2.548-8.194,6.57,6.57,0,0,0,.38,5.181c-.494-2.332,1.116-4.47,2.431-6.55s2.609-4.209,2.421-6.576Z" transform="translate(-429.745 -441.383)" fill="#226dc6"/>
      <path id="Path_3550" data-name="Path 3550" d="M649.655,375.677c-.805-3.749-1.982-7.743-4.412-10.921a5.47,5.47,0,0,1-2.12,4.342c.369-1.7-.75-3.362-1.877-4.794-1.651-2.1-3.2-3.9-4.968-5.921-.183,2.07-.584,4.245-.767,6.315-2.666-2.2-4.8-5.022-5.333-8.182a8.4,8.4,0,0,1,2.227-7.215c4.969,1.119,10.066,2.805,13.067,6.412a28.4,28.4,0,0,1,6.725,19.215,54.77,54.77,0,0,1-1.43,10.322c-.032-.149-.069-.3-.1-.445A52.739,52.739,0,0,0,649.655,375.677Z" transform="translate(-572.122 -314.135)" fill="#063351"/>
      <path id="Path_3551" data-name="Path 3551" d="M661.757,374.427a24.2,24.2,0,0,0-10.565-8.271,11.689,11.689,0,0,1-2.3-1.109,2.426,2.426,0,0,1-1.178-1.96c.057-1.16,1.445-2.01,2.781-2.044a7.1,7.1,0,0,1,3.7,1.2,23,23,0,0,1,9.324,10.693,30.087,30.087,0,0,1,2.309,9.794c.029.379.376,2.034.039,2.274-.661.471-.546-1.058-.572-1.3a19.439,19.439,0,0,0-1.077-4.588,20.27,20.27,0,0,0-2.454-4.679Z" transform="translate(-586.909 -323.974)" fill="#226dc6"/>
      <path id="Path_3552" data-name="Path 3552" d="M661.9,516.12a6.223,6.223,0,0,1,1.89,1.828,20.94,20.94,0,0,1,.343,5.16L661.86,518.9C662.367,518.212,661.949,516.834,661.9,516.12Z" transform="translate(-598.769 -453.937)" fill="#063351"/>
      <path id="Path_3553" data-name="Path 3553" d="M702.679,548.223a10.575,10.575,0,0,0,3.8-3.9,54.136,54.136,0,0,1-3.813,16.784c-.152-.552-.289-1.106-.431-1.66a21.14,21.14,0,0,0,.441-11.219Z" transform="translate(-632.609 -477.569)" fill="#063351"/>
      <path id="Path_3554" data-name="Path 3554" d="M722.954,590.407a4.769,4.769,0,0,1,.578-1.441,2.271,2.271,0,0,1,.549-.566,22.738,22.738,0,0,1,.108,7.139,15.873,15.873,0,0,1-4.43,8.809Q721.045,597.327,722.954,590.407Z" transform="translate(-647.292 -514.51)" fill="#063351"/>
      <path id="Path_3555" data-name="Path 3555" d="M297.639,338.737a10.669,10.669,0,0,1-.047-5.84,30.7,30.7,0,0,0-3.765,8.491,15.237,15.237,0,0,1-.418-4.653,55.31,55.31,0,0,0-3.134,10.045,21.437,21.437,0,0,0-.557,5.3,23.01,23.01,0,0,1,3.119-19.693,11.68,11.68,0,0,1,3.727-3.664,6.843,6.843,0,0,1,5.408-.695q-.67,1.642-1.26,3.317a11.672,11.672,0,0,0-3.071,7.388Z" transform="translate(-286.08 -296.07)" fill="#063351"/>
      <path id="Path_3556" data-name="Path 3556" d="M303,332.828a5.957,5.957,0,0,0-4.441,1.189,11.278,11.278,0,0,0-2.812,3.354,32.708,32.708,0,0,0-4,10.019,27.3,27.3,0,0,1,8.006-11.747A39.038,39.038,0,0,0,303,332.828Z" transform="translate(-288.602 -300.272)" fill="#226dc6"/>
      <path id="Path_3557" data-name="Path 3557" d="M318.327,448.654a44.8,44.8,0,0,1-1.84-4.857,18.893,18.893,0,0,0-2.97-5.045c-.3-1.2-.575-2.415-.847-3.642q1.691,1.334,3.38,2.669a15.621,15.621,0,0,1,.823-5.278,37.457,37.457,0,0,0,2.382,15.943,4.524,4.524,0,0,1,1.77-4.321,22.683,22.683,0,0,0,3.5,11.775,21.163,21.163,0,0,1-1.963-1.289c-1.234-2.028-3.124-3.845-4.242-5.955Z" transform="translate(-306.134 -383.86)" fill="#063351"/>
    </g>
    <g id="Group_1334" data-name="Group 1334" transform="translate(1835.586 5893.665)">
      <path id="Path_3558" data-name="Path 3558" d="M294.816,623.261c.007-.012.013-.023.019-.036l2.3-4.318a5.888,5.888,0,0,0-2.677-8.087,18.06,18.06,0,0,0-7.988-1.84,13.967,13.967,0,0,0-8.064,2.3,13.821,13.821,0,0,0-8.03-2.334,15.093,15.093,0,0,0-5.134.845,5.884,5.884,0,0,0-2.447-.534h-5.22a5.884,5.884,0,0,0-2.906.766,5.874,5.874,0,0,0-2.906-.766h-5.343a5.881,5.881,0,0,0-2.637.625,17.032,17.032,0,0,0-4.757-.625h-6.4a5.827,5.827,0,0,1-2.083,0H218.954a5.974,5.974,0,0,0-1.212.124,5.893,5.893,0,0,0-1.211-.124H211.5a5.868,5.868,0,0,0-2.222.434,5.855,5.855,0,0,0-2.222-.434h-5.188a5.816,5.816,0,0,0-1.373.163,18.835,18.835,0,0,0-4.375-.442,12.881,12.881,0,0,0-9.938,4.026c-3.487,3.795-3.78,8.816-3.78,13.635s.321,10.309,4.151,14.076l.021.021a13.2,13.2,0,0,0,9.575,3.565,16.082,16.082,0,0,0,6.457-1.215,15.236,15.236,0,0,0,5.839,1.263v13.436a5.887,5.887,0,0,0,5.887,5.887h1.547a6.008,6.008,0,0,0,1.237-.13,5.867,5.867,0,0,0,1.234.13h1.164a5.851,5.851,0,0,0,1.244-.133,5.862,5.862,0,0,0,1.247.133h1.647a5.841,5.841,0,0,0,.611-.033c.2.019.4.033.594.033h1.667a5.87,5.87,0,0,0,2.46-.538,5.87,5.87,0,0,0,2.46.538h1.767a5.885,5.885,0,0,1,1.908,0h1.788a5.867,5.867,0,0,0,2.789-.7,10.617,10.617,0,0,0,7.858.207,10.767,10.767,0,0,0,7.181.075,5.87,5.87,0,0,0,2.18.418h1.547a6.014,6.014,0,0,0,1.237-.129,5.865,5.865,0,0,0,1.234.129H262.1a5.911,5.911,0,0,1,2.491,0h1.647a5.887,5.887,0,0,0,5.887-5.887V644.212a13.709,13.709,0,0,0,5.165-1.568,17.548,17.548,0,0,0,7.866,1.658,13.884,13.884,0,0,0,9.021-2.912,11.767,11.767,0,0,0,4.044-9.437,12.594,12.594,0,0,0-3.412-8.694Z" transform="translate(-182.4 -608.95)"/>
      <g id="Group_1332" data-name="Group 1332" transform="translate(5.894 5.886)">
        <path id="Path_3559" data-name="Path 3559" d="M221.182,667.144c-1.926-1.895-2.392-5.157-2.392-9.88s.373-7.643,2.237-9.662a7.1,7.1,0,0,1,5.592-2.112,10.965,10.965,0,0,1,4.784.87l-1.989,4.659a5.946,5.946,0,0,0-2.454-.528c-2.175,0-2.92,1.119-2.92,6.9s.777,6.835,2.92,6.835a5.319,5.319,0,0,0,2.7-.714l1.895,4.442a10.153,10.153,0,0,1-4.909,1.087,7.42,7.42,0,0,1-5.468-1.895Z" transform="translate(-218.79 -645.458)" fill="#fff"/>
        <path id="Path_3560" data-name="Path 3560" d="M304.413,668.895c-1.553-1.4-1.8-3.634-1.8-6.213V647.21H307.8v15.222c0,2.609.622,3.356,2.237,3.356s2.206-.684,2.206-3.356V647.21h5.034v15.472c0,2.516-.217,4.753-1.709,6.151-1.087,1.056-2.92,1.709-5.654,1.709S305.53,669.92,304.413,668.895Z" transform="translate(-289.035 -646.899)" fill="#fff"/>
        <path id="Path_3561" data-name="Path 3561" d="M408.112,647.21H419.7v4.909h-6.431v4.287h5.872v4.442h-5.872v4.723h6.523v4.66H408.11V647.21Z" transform="translate(-377.448 -646.899)" fill="#fff"/>
        <path id="Path_3562" data-name="Path 3562" d="M498.929,663.085h-1.4v7.146h-5V647.21h6.4c6.059,0,7.457,3.417,7.457,7.891,0,2.517-.528,5.1-2.828,6.556l2.734,8.574h-5.187l-2.175-7.146Zm-.217-4.131c1.958,0,2.517-.963,2.517-3.573s-.528-3.6-2.517-3.6h-1.181v7.177Z" transform="translate(-448.195 -646.899)" fill="#fff"/>
        <path id="Path_3563" data-name="Path 3563" d="M577.69,647.21h5.343l2.92,14.539,2.89-14.539h5.22l-5.654,23.176h-5.1L577.69,647.21Z" transform="translate(-519.563 -646.899)" fill="#fff"/>
        <path id="Path_3564" data-name="Path 3564" d="M679.293,666.944c-2.175-2.05-2.423-5.562-2.423-9.849s.248-7.581,2.237-9.693a8.63,8.63,0,0,1,11.277-.031c2.019,2.081,2.267,5.562,2.267,9.724s-.248,7.8-2.423,9.849a8.726,8.726,0,0,1-10.936,0Zm8.077-9.724c0-4.754-.155-6.929-2.609-6.929s-2.64,2.175-2.64,6.929.156,6.9,2.64,6.9S687.369,661.973,687.369,657.22Z" transform="translate(-602.68 -645.29)" fill="#fff"/>
        <path id="Path_3565" data-name="Path 3565" d="M777.77,667.406l2.206-4.008a7.731,7.731,0,0,0,3.915,1.056c1.428,0,2.144-.5,2.206-1.895,0-3.137-7.768-4.5-7.768-10.5,0-4.848,3.169-6.587,7.084-6.587a12.29,12.29,0,0,1,5.468,1.275l-2.3,4.318a6.815,6.815,0,0,0-3.076-.808c-1.15,0-1.989.559-1.989,1.771,0,2.92,7.768,4.226,7.768,10.532,0,4.536-2.8,6.462-7.177,6.462a11.531,11.531,0,0,1-6.337-1.615Z" transform="translate(-687.238 -645.441)" fill="#fff"/>
      </g>
      <g id="Group_1333" data-name="Group 1333" transform="translate(31.937 33.773)">
        <path id="Path_3566" data-name="Path 3566" d="M379.59,818.6h2.25l2.41,11.269,2.471-11.269h2.19v14.884h-1.647v-11.43l-2.491,11.43h-1.164l-2.47-11.53v11.53h-1.547V818.6Z" transform="translate(-379.59 -818.419)" fill="#fff"/>
        <path id="Path_3567" data-name="Path 3567" d="M447.923,818.23h1.688l3.335,14.946h-1.767L450.535,830h-3.617l-.663,3.175H444.59l3.335-14.946Zm2.25,10.325-1.446-7.212-1.487,7.212Z" transform="translate(-434.063 -818.109)" fill="#fff"/>
        <path id="Path_3568" data-name="Path 3568" d="M493.941,820.247H491.23V818.6h7.212v1.647h-2.711v13.237h-1.788V820.247Z" transform="translate(-473.149 -818.419)" fill="#fff"/>
        <path id="Path_3569" data-name="Path 3569" d="M538.287,831.771c-1.226-1.2-1.427-3.536-1.427-6.669s.16-5.343,1.365-6.608a3.672,3.672,0,0,1,2.711-1,4.111,4.111,0,0,1,2.751.925l-1.044,1.346a2.443,2.443,0,0,0-1.607-.562c-2.068,0-2.41,1.988-2.41,5.945s.361,5.926,2.41,5.926a2.544,2.544,0,0,0,1.829-.7l1,1.205a3.943,3.943,0,0,1-2.912,1.145,3.644,3.644,0,0,1-2.672-.944Z" transform="translate(-511.389 -817.488)" fill="#fff"/>
        <path id="Path_3570" data-name="Path 3570" d="M583.336,831.763c-1.326-1.246-1.446-3.677-1.446-6.67s.12-5.262,1.326-6.529a3.654,3.654,0,0,1,2.833-1.085,3.752,3.752,0,0,1,2.792,1.025c1.245,1.286,1.365,3.7,1.365,6.589s-.12,5.424-1.446,6.67a4.365,4.365,0,0,1-5.422,0Zm5.1-6.629c0-3.656-.16-5.946-2.39-5.946s-2.391,2.29-2.391,5.946.16,5.967,2.391,5.967S588.438,828.811,588.438,825.134Z" transform="translate(-549.126 -817.48)" fill="#fff"/>
        <path id="Path_3571" data-name="Path 3571" d="M642.54,818.6h2.25l2.41,11.269,2.471-11.269h2.19v14.884h-1.647v-11.43l-2.491,11.43h-1.164l-2.47-11.53v11.53h-1.547V818.6Z" transform="translate(-599.953 -818.419)" fill="#fff"/>
      </g>
      <path id="Path_3572" data-name="Path 3572" d="M796.175,719.72h-4.1c.25.188.5.374.753.558,1.785,1.312,3.471,2.549,3.471,4.506v.057c-.063,1.414-.716,3.1-3.466,3.1a9.133,9.133,0,0,1-3.388-.656l-1,1.823a10.639,10.639,0,0,0,4.609.876c5.3,0,5.915-2.969,5.915-5.2a6.475,6.475,0,0,0-2.79-5.064Z" transform="translate(-690.286 -701.78)" fill="#d7d8d8"/>
      <path id="Path_3573" data-name="Path 3573" d="M695.178,719.72c0,4.15-.039,8.035-3.871,8.035a3.324,3.324,0,0,1-3.458-2.556,20.558,20.558,0,0,1-.444-5.479H684.68c.013,4.3.363,7.115,2.026,8.683l0,0a7.483,7.483,0,0,0,9.2,0c1.665-1.569,2.015-4.381,2.028-8.685Z" transform="translate(-603.331 -701.779)" fill="#d7d8d8"/>
      <path id="Path_3574" data-name="Path 3574" d="M609.267,719.712l-.6,3.042a1.26,1.26,0,0,1-1.236,1.015h0a1.262,1.262,0,0,1-1.237-1.013l-.612-3.045H603.31l2.468,10.171h3.113l2.481-10.171h-2.1Z" transform="translate(-535.139 -701.772)" fill="#d7d8d8"/>
      <path id="Path_3575" data-name="Path 3575" d="M509.4,721.357a4.188,4.188,0,0,0,1.492-1.637H508.2a3.422,3.422,0,0,1-2.97,1.262H504.05a1.262,1.262,0,0,1-1.262-1.262H500.31v10.016h2.478v-5.884a1.262,1.262,0,0,1,1.262-1.261h1.4a1.261,1.261,0,0,1,1.206.894l1.9,6.252h2.526l-2.209-6.931a1.262,1.262,0,0,1,.525-1.448Z" transform="translate(-448.822 -701.78)" fill="#d7d8d8"/>
      <path id="Path_3576" data-name="Path 3576" d="M418.543,726.338v-4.723a1.262,1.262,0,0,1,1.262-1.262h4.611v-.633H415.91v10.016h9.159V727.6h-5.262a1.262,1.262,0,0,1-1.262-1.261Z" transform="translate(-378.091 -701.78)" fill="#d7d8d8"/>
      <path id="Path_3577" data-name="Path 3577" d="M320.04,719.712v3.479c0,1.382,0,4.618-3.468,4.618s-3.5-3.236-3.5-4.618v-3.479H310.41v3.728c0,2.419.235,4.241,1.385,5.275,0,0,.007,0,.008.008.952.873,2.515,1.315,4.647,1.315s3.864-.468,4.775-1.352a.177.177,0,0,0,.016-.016c1.087-1.019,1.31-2.828,1.31-5.231V719.71h-2.51Z" transform="translate(-289.678 -701.772)" fill="#d7d8d8"/>
      <path id="Path_3578" data-name="Path 3578" d="M233.489,727.692c-3.838,0-4.175-3.447-4.182-7.972H226.58c.019,4.805.606,7.345,2.012,8.729a6.261,6.261,0,0,0,4.585,1.535,9.39,9.39,0,0,0,3.254-.49l-.9-2.119a6.067,6.067,0,0,1-2.039.317Z" transform="translate(-219.425 -701.78)" fill="#d7d8d8"/>
    </g>
  </g>
</svg>
