<svg xmlns="http://www.w3.org/2000/svg" width="113.664" height="153.698" viewBox="0 0 113.664 153.698">
  <g id="Group_3923" data-name="Group 3923" transform="translate(-1711.657 -2244.016)">
    <path id="Path_6" data-name="Path 6" d="M415,257.18a34.126,34.126,0,0,0,16.577-9.09,35.226,35.226,0,0,0,9.408-16.6l-6.1-1.522a28.613,28.613,0,0,1-21.247,21.045c-15.343,3.424-26.529-8.219-26.636-8.333a35.008,35.008,0,0,0-16.3-9.826,34.039,34.039,0,0,0-18.885.25c-17.405,5.3-22.652,22.125-23.34,24.617l-.045-.012c-4.377,17.851,4.559,36.386,20.788,43.116a33.855,33.855,0,0,0,12.553,2.53,33.288,33.288,0,0,1,15.555,8.294,38.6,38.6,0,0,1,6.922,8.221,45.117,45.117,0,0,0-17.155,26.038c-4.481,19.728,6.4,34.914,8.625,37.758l4.939-3.906c-1.917-2.447-11.282-15.517-7.435-32.445a38.916,38.916,0,0,1,16.151-23.353c19.826-.085,37.8-14.8,42.107-34.724l-6.141-1.342c-3.631,16.781-18.545,29.249-35.135,29.733a45.338,45.338,0,0,0-16.259-16.234c.9-.3,1.789-.636,2.667-1.012A37.658,37.658,0,0,0,396.985,279.2l-5.858-2.288a31.4,31.4,0,0,1-16.991,17.662,29.133,29.133,0,0,1-22.52.413c-13.282-5.508-20.6-20.7-17.149-35.447l.027.007c.041-.157,4.1-15.817,19.143-20.4a28.454,28.454,0,0,1,28.8,7.869c.553.588,13.785,14.349,32.568,10.161" transform="translate(1384.336 2014.047)" fill="#5a1024"/>
    <path id="Path_7" data-name="Path 7" d="M355.517,269.763a6.9,6.9,0,0,1-8.776-4.311,6.956,6.956,0,0,1,4.289-8.819,11.217,11.217,0,0,1,3.51-.439,72.731,72.731,0,0,1,13.512,1.905c-3.93,4.7-9.2,10.51-12.536,11.663m-6.527-19.1A13.288,13.288,0,0,0,340.8,267.5a13.141,13.141,0,0,0,16.764,8.234c5.589-1.928,12.2-9.688,18.5-17.468l3.289-4.065-5.083-1.178c-9.723-2.255-19.683-4.3-25.273-2.366" transform="translate(1392.715 2027.129)" fill="#5a1024"/>
  </g>
</svg>
