<svg xmlns="http://www.w3.org/2000/svg" width="141.038" height="125.96" viewBox="0 0 141.038 125.96">
  <g id="Group_3922" data-name="Group 3922" transform="translate(-1427.359 -2256.854)">
    <path id="Path_54" data-name="Path 54" d="M681.814,110.958a29.65,29.65,0,0,1-37.85,22.4,23.407,23.407,0,0,1-12.556-8.655,8.008,8.008,0,0,0-1.708-1.825c-4.941-2.2-12.006.3-16.49,3.548-.489.356-.979.742-1.44,1.143a20.857,20.857,0,0,0-6.559,10.449,27.118,27.118,0,0,0-.624,5.787c.43-.013.86-.029,1.292-.029a34.361,34.361,0,0,1,14.9,65.322l-3.086-6.381a27.279,27.279,0,0,0-11.815-51.86c-.461,0-.935.016-1.395.045-.016.815-.076,1.646-.165,2.479-.845,8.4-4.631,17.722-10.36,25.558a51.042,51.042,0,0,1-9.752,10.092,46.539,46.539,0,0,1-28.942,9.947,52.267,52.267,0,0,1-6.753-.446l.92-7.02a40.852,40.852,0,0,0,20.112-2.226,39.829,39.829,0,0,0,10.3-5.835,44.007,44.007,0,0,0,8.386-8.7c5.016-6.858,8.312-14.9,9.04-22.087a52.175,52.175,0,0,0,.193-5.936,43.02,43.02,0,0,1,.86-10.375,28.037,28.037,0,0,1,8.785-14.114c.625-.55,1.277-1.069,1.93-1.558a30.871,30.871,0,0,1,13.21-5.491,31,31,0,0,0-3.412-2.3,34.2,34.2,0,0,0-8.09-3.459,32.2,32.2,0,0,0-33.024,9.737l-5.313-4.676A39.284,39.284,0,0,1,612.691,102.6a41.869,41.869,0,0,1,17.99,10.525c1.01,1.01,1.751,2.24,2.672,3.339,1.707,2.034,3.578,4.052,5.433,5.936a17.288,17.288,0,0,0,7.273,4.186,22.594,22.594,0,0,0,28.807-17.026Z" transform="translate(878.846 2173.718)" fill="#5a1024"/>
    <path id="Path_56" data-name="Path 56" d="M0,0H35.121V35.121H0Z" transform="translate(1532.275 2338.527)" fill="none" stroke="#5a1024" stroke-width="2"/>
    <path id="Path_55" data-name="Path 55" d="M634.353,188.348l35.121-35.121v35.121Z" transform="translate(897.924 2185.301)" fill="#5a1024"/>
    <path id="Path_53" data-name="Path 53" d="M621.112,93.567c3.409,5.98,8.077,13.468,11.548,15.416A7.788,7.788,0,1,0,640.285,95.4c-3.471-1.948-12.293-2.034-19.173-1.833m15.339,23.507a14.8,14.8,0,0,1-7.26-1.91C623.379,111.9,617.61,102,612.2,92.13l-2.827-5.154,5.869-.269c11.241-.52,22.7-.75,28.514,2.512a14.886,14.886,0,0,1-7.305,27.854" transform="translate(892.373 2170.451)" fill="#5a1024"/>
  </g>
</svg>
