<svg xmlns="http://www.w3.org/2000/svg" width="141.212" height="88.188" viewBox="0 0 141.212 88.188">
  <g id="Group_3929" data-name="Group 3929" transform="translate(-3375.861 -2262.873)">
    <path id="Path_9" data-name="Path 9" d="M239.3,490h0a9.371,9.371,0,0,0,3.042-.509c3.38-1.161,8.542-5.908,15.778-14.513l.981-1.165-1.491-.319c-7.4-1.577-12.885-2.345-16.766-2.345a14.441,14.441,0,0,0-4.6.586A9.386,9.386,0,0,0,239.3,490h0a9.387,9.387,0,0,1-3.056-18.265,14.441,14.441,0,0,1,4.6-.586c3.881,0,9.365.767,16.766,2.345l1.491.319-.981,1.165c-7.236,8.6-12.4,13.351-15.778,14.513A9.371,9.371,0,0,1,239.3,490Z" transform="translate(3220.156 1797.604)" fill="#5a1024"/>
    <path id="Path_10" data-name="Path 10" d="M233.274,478.905a9.343,9.343,0,0,1,5.389-4.762,14.491,14.491,0,0,1,4.608-.586c3.886,0,9.373.769,16.784,2.348l1.489.319-.981,1.166c-7.245,8.615-12.411,13.367-15.795,14.53a9.4,9.4,0,0,1-11.494-13.015m8.457,19.411a15.216,15.216,0,0,0,4.947-.83c6.64-2.278,14.661-11.652,22.3-21.058l3.107-3.823-4.8-1.109c-7.985-1.844-17.078-3.81-23.924-3.81a20.792,20.792,0,0,0-6.611.891,15.283,15.283,0,0,0,4.98,29.739" transform="translate(3217.732 1795.187)" fill="#5a1024"/>
    <path id="Path_11" data-name="Path 11" d="M233.274,478.905a9.343,9.343,0,0,1,5.389-4.762,14.491,14.491,0,0,1,4.608-.586c3.886,0,9.373.769,16.784,2.348l1.489.319-.981,1.166c-7.245,8.615-12.411,13.367-15.795,14.53a9.4,9.4,0,0,1-11.494-13.015Zm8.457,19.411a15.216,15.216,0,0,0,4.947-.83c6.64-2.278,14.661-11.652,22.3-21.058l3.107-3.823-4.8-1.109c-7.985-1.844-17.078-3.81-23.924-3.81a20.792,20.792,0,0,0-6.611.891,15.283,15.283,0,0,0,4.98,29.739Z" transform="translate(3217.732 1795.187)" fill="#5a1024"/>
    <path id="Path_14" data-name="Path 14" d="M204.688,480.336a4.665,4.665,0,1,0-4.5-4.829,4.666,4.666,0,0,0,4.5,4.829" transform="translate(3199.424 1797.505)" fill="#5a1024"/>
    <path id="Path_15" data-name="Path 15" d="M204.688,480.336a4.665,4.665,0,1,0-4.5-4.829A4.666,4.666,0,0,0,204.688,480.336Z" transform="translate(3199.424 1797.505)" fill="#5a1024"/>
    <path id="Path_12" data-name="Path 12" d="M201.422,504.717a9.327,9.327,0,0,1-.143-18.652l.143,0h.007a9.368,9.368,0,0,1,9.328,9.18,9.266,9.266,0,0,1-2.627,6.637,9.361,9.361,0,0,1-6.708,2.837M314.5,525.177l3.114,5.01a22.59,22.59,0,0,0,9.1-12.735c2.672-10.172-3.059-18.116-4.238-19.606l-.087-.127-.217-.2a38.158,38.158,0,0,0-18.594-9.533,36.683,36.683,0,0,0-7.036-.681,40.439,40.439,0,0,0-19.615,5.3c-.305.173-.589.339-.83.487l-.01-.048a10.651,10.651,0,0,0-2.355,1.654c-.615.528-1.273,1.132-2.054,1.859-5.239,4.876-14.009,13.041-28.017,14.131-1.129.088-2.272.132-3.4.132a45.837,45.837,0,0,1-24.773-7.526c-.268-.175-.513-.341-.764-.511.149-.268.292-.538.424-.813a15.131,15.131,0,0,0,1.5-6.82,15.287,15.287,0,0,0-15.214-14.978l-.251,0a15.218,15.218,0,0,0,.234,30.435l.25,0a15.124,15.124,0,0,0,8.458-2.727c.261-.182.513-.385.764-.586.255.177.526.358.8.542a51.943,51.943,0,0,0,28.579,8.876c1.273,0,2.565-.051,3.844-.151,14.7-1.143,24.389-9.1,30.126-14.353.289-.263.567-.518.835-.767.041.377.081.755.129,1.131a66.3,66.3,0,0,0,7.847,24.112,109.534,109.534,0,0,0,9.4,13.669c.248.311.494.615.74.917h-99.78v5.891H326.686v-5.891H300.961c-.267-.29-.543-.6-.825-.917A110.108,110.108,0,0,1,288.2,523.8a60.8,60.8,0,0,1-7.537-25.927l-.037-.6.531-.275a33.85,33.85,0,0,1,15.363-3.813,30.982,30.982,0,0,1,5.927.572,32.265,32.265,0,0,1,15.47,7.845l.066.061.054.071c1.16,1.572,4.8,7.243,2.976,14.216a16.59,16.59,0,0,1-6.516,9.221" transform="translate(3189.66 1803.899)" fill="#5a1024"/>
    <path id="Path_13" data-name="Path 13" d="M201.422,504.717a9.327,9.327,0,0,1-.143-18.652l.143,0h.007a9.368,9.368,0,0,1,9.328,9.18,9.266,9.266,0,0,1-2.627,6.637A9.361,9.361,0,0,1,201.422,504.717ZM314.5,525.177l3.114,5.01a22.59,22.59,0,0,0,9.1-12.735c2.672-10.172-3.059-18.116-4.238-19.606l-.087-.127-.217-.2a38.158,38.158,0,0,0-18.594-9.533,36.683,36.683,0,0,0-7.036-.681,40.439,40.439,0,0,0-19.615,5.3c-.305.173-.589.339-.83.487l-.01-.048a10.651,10.651,0,0,0-2.355,1.654c-.615.528-1.273,1.132-2.054,1.859-5.239,4.876-14.009,13.041-28.017,14.131-1.129.088-2.272.132-3.4.132a45.837,45.837,0,0,1-24.773-7.526c-.268-.175-.513-.341-.764-.511.149-.268.292-.538.424-.813a15.131,15.131,0,0,0,1.5-6.82,15.287,15.287,0,0,0-15.214-14.978l-.251,0a15.218,15.218,0,0,0,.234,30.435l.25,0a15.124,15.124,0,0,0,8.458-2.727c.261-.182.513-.385.764-.586.255.177.526.358.8.542a51.943,51.943,0,0,0,28.579,8.876c1.273,0,2.565-.051,3.844-.151,14.7-1.143,24.389-9.1,30.126-14.353.289-.263.567-.518.835-.767.041.377.081.755.129,1.131a66.3,66.3,0,0,0,7.847,24.112,109.534,109.534,0,0,0,9.4,13.669c.248.311.494.615.74.917h-99.78v5.891H326.686v-5.891H300.961c-.267-.29-.543-.6-.825-.917A110.108,110.108,0,0,1,288.2,523.8a60.8,60.8,0,0,1-7.537-25.927l-.037-.6.531-.275a33.85,33.85,0,0,1,15.363-3.813,30.982,30.982,0,0,1,5.927.572,32.265,32.265,0,0,1,15.47,7.845l.066.061.054.071c1.16,1.572,4.8,7.243,2.976,14.216A16.59,16.59,0,0,1,314.5,525.177Z" transform="translate(3189.66 1803.899)" fill="#5a1024"/>
  </g>
</svg>
