<svg xmlns="http://www.w3.org/2000/svg" width="165.877" height="91.385" viewBox="0 0 165.877 91.385">
  <g id="Group_3940" data-name="Group 3940" transform="translate(-2805.798 -2908.314)">
    <path id="Path_274" data-name="Path 274" d="M562.868,225.076a10.8,10.8,0,0,0-7.806-18.363c-5.522.051-16.191,6.035-24.33,11.027,8.23,4.839,19.01,10.627,24.531,10.572A10.728,10.728,0,0,0,562.868,225.076Z" transform="translate(2339.15 2711.932)" fill="none" stroke="rgba(0,0,0,0)" stroke-width="1"/>
    <path id="Path_275" data-name="Path 275" d="M498.911,207.592l-.448.11a8.551,8.551,0,1,0,.448-.11Z" transform="translate(2329.582 2712.109)" fill="none" stroke="rgba(0,0,0,0)" stroke-width="1"/>
    <path id="Path_276" data-name="Path 276" d="M553.428,239.34a22.992,22.992,0,0,0,5.607.737,20.628,20.628,0,0,0-.385-41.255c-9.244.086-22.867,8.275-36.031,16.656l-6.871,4.375L522.7,224.1C533.537,230.716,544.675,237.2,553.428,239.34Zm5.314-30.689a10.8,10.8,0,0,1,.2,21.6c-5.521.055-16.3-5.733-24.531-10.572C542.551,214.686,553.22,208.7,558.742,208.65Z" transform="translate(2335.467 2709.993)" fill="#5a1024" stroke="rgba(0,0,0,0)" stroke-width="1"/>
    <path id="Path_277" data-name="Path 277" d="M641.178,272.434c-.4.156-36.023,13.8-76.467,4.415a123.411,123.411,0,0,0,3.3-19.974l.022-.242-.4-.062c.133.019.267.04.4.061v-.006s.045,0,.151,0c.341.076.684.152,1.026.226A133.238,133.238,0,0,0,636,254.015l-2.417-7.921A125.379,125.379,0,0,1,569.19,248.4c-.5-.113-1-.237-1.5-.359l0,.005s-2.749-.648-2.89-.739h0a39.077,39.077,0,0,1-6.371-.04c-11.278-1.151-25.688-4.367-40.141-18.321a18.35,18.35,0,1,0-25.116,4.322,18.227,18.227,0,0,0,13.759,2.836c.318-.056.614-.108.927-.186a16.627,16.627,0,0,0,2.865-.968c16.765,16.739,33.608,20.517,46.732,21.854q.463.052.924.087a113.7,113.7,0,0,1-2.894,17.421c-1.846-.588-3.694-1.21-5.548-1.906-50.5-18.978-69.3.274-70.078,1.1l6.368,5.957c.15-.159,16.255-15.578,60.642,1.1a135.1,135.1,0,0,0,47.638,8.411c28.026,0,48.592-7.93,49.875-8.437ZM505.124,226.709a8.761,8.761,0,0,1-3.729-17.115l.448-.11a8.767,8.767,0,0,1,3.281,17.225Z" transform="translate(2326.65 2710.218)" fill="#5a1024" stroke="rgba(0,0,0,0)" stroke-width="1"/>
  </g>
</svg>
