<svg xmlns="http://www.w3.org/2000/svg" width="133.401" height="123.987" viewBox="0 0 133.401 123.987">
  <g id="Group_3960" data-name="Group 3960" transform="translate(-2529.001 -5824.083)">
    <path id="Path_2362" data-name="Path 2362" d="M230.894,236.613a18.941,18.941,0,0,0,17.874-13.4c1.785-5.833.666-12.118-.595-18.088a43.751,43.751,0,0,1,5.78,11.372,31.962,31.962,0,0,0-1.149-17.664,12.779,12.779,0,0,0,10.218-1.458c-2.6.167-5.17-1.887-7.077-3.655a70.9,70.9,0,0,1-5.076-5.914,13.276,13.276,0,0,0-6.249-4.473,6.772,6.772,0,0,1,3.979-1.185,22.716,22.716,0,0,0-8.661-5.13,6.5,6.5,0,0,0,2.293-3.88,10.79,10.79,0,0,1-3.971-.236,20.411,20.411,0,0,1-5.992-2.488,37.719,37.719,0,0,0,4.392-11.015,29.555,29.555,0,0,1-13.411,7.813,9.37,9.37,0,0,0,3.9-6.831,5.734,5.734,0,0,1-2.623,2.01,19.232,19.232,0,0,1-3.379,1.105,6.585,6.585,0,0,1,1.048-3.6,58.011,58.011,0,0,0-23.557,5.258,8.236,8.236,0,0,0-2.336-4.514,7.518,7.518,0,0,0-4.392-2.059,7.025,7.025,0,0,1,.811,5.84,12.662,12.662,0,0,1-3.205,4.995c-1.395,1.43-2.971,2.667-4.442,4.019a38.677,38.677,0,0,0-11.182,18.615,35.589,35.589,0,0,0-6.353-10.174c-1.563-1.755-3.338-3.377-4.421-5.464s-1.313-4.84.189-6.648a6.35,6.35,0,0,0-3.764,2.5,5.531,5.531,0,0,0-.871,4.115,21.049,21.049,0,0,0-11.831-1.435c.419.5.671,1.013,1.091,1.515a2.663,2.663,0,0,1-2.235-.4,3.314,3.314,0,0,0,.119,2.643,5.065,5.065,0,0,1-4.4-2.8,6.077,6.077,0,0,0-.978,3.832,6.8,6.8,0,0,0,1.59,3.878,8.929,8.929,0,0,1-5.924,2.5,6.144,6.144,0,0,0,3.564,2.024,5.139,5.139,0,0,0-.912,3.774,6.2,6.2,0,0,0-3.735,3.954c-.655,1.749-.9,3.631-1.594,5.367s-1.981,3.4-3.8,3.8a7.121,7.121,0,0,0,4.97,1.77,15.415,15.415,0,0,0,1.723,10.89,3.719,3.719,0,0,1,1.134-2.646c.28,4.575,1.146,9.336,3.92,12.986a19.661,19.661,0,0,0,7.33,5.637,58.765,58.765,0,0,0,8.8,3.088c13.695,4,28.692.058,42.959-.213,9.646-.184,20.793.187,30.441.065Z" transform="translate(2399.381 5665.493)"/>
    <g id="Group_1199" data-name="Group 1199" transform="translate(2529.4 5883.898)">
      <path id="Path_2363" data-name="Path 2363" d="M254.308,556.391l-.029-.026q-5.4-4.717-10.379-9.713,1.434-6.361,2.448-12.708a6.6,6.6,0,0,0-1.736-5.758,4.906,4.906,0,0,0-4.988-1.36q-2.119.648-4.25,1.233a6.025,6.025,0,0,0-4.1,4.691c-2.282-2.588-4.553-2.57-5.763-2.324q-2.345.482-4.7.892a4.524,4.524,0,0,0-2.267,1.107,4.914,4.914,0,0,0-2.646-.335q-2.06.291-4.127.525a4.916,4.916,0,0,0-3.275,1.739,4.858,4.858,0,0,0-3.509-1.117q-1.88.132-3.763.216a5.261,5.261,0,0,0-4.852,4.184c-.171-.325-.341-.65-.509-.977a5.119,5.119,0,0,0-4.556-3.074q-1.885-.034-3.766-.115a4.914,4.914,0,0,0-3.2.972,5.014,5.014,0,0,0-3.1-1.368q-6.556-.549-13.066-1.65a4.96,4.96,0,0,0-2.979.393,5.065,5.065,0,0,0-2.674-1.459q-6.9-1.436-13.695-3.5c-2.947-.9-5.84.842-7.067,4.362L132.456,558.4c-1.226,3.514.528,6.888,4.3,8.042q1.234.376,2.472.737l.923.266q.851.244,1.7.478,4.679,1.29,9.4,2.346a5.15,5.15,0,0,0-.377,1.086q-1.022,4.561-2.045,9.121c-.655,2.855,1.383,5.679,4.658,6.317.332.065.665.128,1,.192a5.971,5.971,0,0,0,4.965-1.17,9.979,9.979,0,0,0,6.466,3.139,12.163,12.163,0,0,0,3.941-.075,6.468,6.468,0,0,0,2.349.706l1.006.1a6.435,6.435,0,0,0,2.5-.237,12.267,12.267,0,0,0,3.967.9,11.678,11.678,0,0,0,4.723-.562,11.677,11.677,0,0,0,4.632.995,12.187,12.187,0,0,0,4.08-.546,6.354,6.354,0,0,0,2.5.486q2.8-.02,5.6-.112a6.578,6.578,0,0,0,2.035-.4,12.6,12.6,0,0,0,3.5.257,11.58,11.58,0,0,0,4.806-1.256,11.53,11.53,0,0,0,4.96.452,12.371,12.371,0,0,0,3.831-1,6.457,6.457,0,0,0,2.431.125l1-.138a6.774,6.774,0,0,0,1.115-.257,6.614,6.614,0,0,0,1.086-.065l.952-.146a6.434,6.434,0,0,0,2.747-1.1,6.451,6.451,0,0,0,2.957.127c.343-.064.687-.127,1.03-.192A5.934,5.934,0,0,0,237.936,584a4.691,4.691,0,0,0-.164-4.607q-2.435-4.1-4.743-8.255l.055-.011a7.2,7.2,0,0,0,5.609-5.437.126.126,0,0,1,.006-.023c.068.07.135.14.2.208a7.168,7.168,0,0,0,7.291,2.139q2.935-.8,5.853-1.7a6.029,6.029,0,0,0,4.262-4.305,5.779,5.779,0,0,0-2-5.612Z" transform="translate(-132.07 -526.614)"/>
      <g id="Group_1196" data-name="Group 1196" transform="translate(5.103 4.874)">
        <g id="Group_1195" data-name="Group 1195">
          <path id="Path_2364" data-name="Path 2364" d="M188.737,561.849q-.356,1.772-.71,3.545c-.19.954-.629,1.247-1.481,1.07q-4.644-.965-9.242-2.2l-1.56,5.82q4.43,1.187,8.9,2.137c.881.187,1.195.58,1,1.534q-.361,1.77-.723,3.541c-.193.954-.66,1.239-1.575,1.046q-4.635-.983-9.225-2.214-1.5,5.6-3,11.192c-.252.939-.683,1.258-1.653.991q-2.492-.687-4.97-1.443a1.178,1.178,0,0,1-.915-1.737q4.291-13.714,8.58-27.426c.291-.93.722-1.23,1.526-.983q7,2.133,14.131,3.615c.819.171,1.107.556.917,1.511Z" transform="translate(-163.469 -556.634)" fill="#fff"/>
          <path id="Path_2365" data-name="Path 2365" d="M310.746,617.073c-.986-.167-1.289-.647-1.118-1.606q2.5-14.148,5.009-28.3c.171-.959.556-1.312,1.38-1.172q6.709,1.139,13.48,1.7c.83.068,1.162.418,1.089,1.388q-.137,1.8-.275,3.6c-.073.971-.471,1.313-1.334,1.242q-4.232-.354-8.45-.923-.4,2.986-.806,5.971,4.028.544,8.074.9c.894.078,1.251.429,1.173,1.4q-.134,1.687-.27,3.372c-.076.97-.5,1.31-1.429,1.229q-4.186-.365-8.356-.93l-.931,6.89q4.925.665,9.872,1.066c.961.078,1.349.429,1.279,1.4q-.132,1.8-.265,3.6c-.07.97-.525,1.31-1.52,1.23q-8.33-.675-16.6-2.075Z" transform="translate(-285.835 -581.195)" fill="#fff"/>
          <path id="Path_2366" data-name="Path 2366" d="M479.8,627.582c.075.97-.224,1.414-1.219,1.484q-2.321.16-4.645.266a1.229,1.229,0,0,1-1.3-.595q-4.02-6.014-7.555-12.186a24.253,24.253,0,0,1-1.854-4.184q-.09,7.88-.182,15.757c-.011.972-.348,1.388-1.344,1.37q-2.326-.044-4.648-.143c-1-.044-1.355-.481-1.305-1.453q.717-14.35,1.434-28.7c.049-.972.387-1.372,1.219-1.336q1.943.083,3.886.119a.959.959,0,0,1,.985.572q3.282,6.6,7.113,13.053c.544.958,1.157,2.328,1.638,3.423q-.3-7.874-.6-15.748c-.036-.973.265-1.4,1.1-1.437q1.943-.087,3.883-.223c.831-.058,1.139.335,1.214,1.305l2.194,28.652Z" transform="translate(-408.238 -590.949)" fill="#fff"/>
          <path id="Path_2367" data-name="Path 2367" d="M630.395,619.915c.143.962-.125,1.425-1.115,1.567q-2.543.359-5.094.648c-.993.112-1.416-.265-1.518-1.232q-1.521-14.286-3.044-28.575c-.1-.968.169-1.416,1-1.508q2.131-.243,4.257-.543c.826-.117,1.162.253,1.305,1.216q2.1,14.214,4.209,28.427Z" transform="translate(-545.467 -584.782)" fill="#fff"/>
          <path id="Path_2368" data-name="Path 2368" d="M709.31,585.163c.631.578.691,1.243-.273,1.541q-2.843.875-5.706,1.658a2.273,2.273,0,0,1-2.3-.824q-3.384-3.352-6.579-6.815-1.024,4.457-2.233,8.907a2.209,2.209,0,0,1-1.672,1.767q-2.712.546-5.434,1.014c-.939.161-1.13-.7-.834-1.5q2.872-7.958,5.086-15.976-5.01-5.895-9.487-12.05c-.528-.71-.61-1.447.213-1.59q2.431-.421,4.854-.92c.819-.169,1.4.275,1.971,1q2.575,3.235,5.307,6.394.873-4.025,1.586-8.047a1.977,1.977,0,0,1,1.307-1.791q2.2-.6,4.385-1.273c.8-.247,1.1.291.947,1.164q-1.353,7.672-3.325,15.358,5.781,6.175,12.182,11.982Z" transform="translate(-595.613 -556.6)" fill="#fff"/>
        </g>
        <path id="Path_2369" data-name="Path 2369" d="M270.43,813.39q-.314,1.673-.631,3.345c-.037.2-.119.275-.341.233l-.974-.187c-.208-.041-.27-.143-.231-.343q.9-4.585,1.8-9.173c.039-.2.132-.271.33-.234q1.541.3,3.086.577c2.615.462,3.291,1.621,3.1,2.807-.091.572-.184,1.145-.275,1.716-.187,1.18-1.219,2.094-3.925,1.618C271.727,813.633,271.078,813.512,270.43,813.39Zm.931-4.938-.707,3.746q.965.183,1.934.354c1.406.25,2.112-.125,2.241-.9q.105-.627.211-1.253c.13-.779-.4-1.354-1.781-1.6q-.948-.17-1.9-.348Z" transform="translate(-251.213 -766.319)" fill="#fff"/>
        <path id="Path_2370" data-name="Path 2370" d="M330.328,820.39c.1-.784-.356-1.292-1.71-1.472s-1.924.19-2.036.972c-.015.1-.028.193-.042.289a.977.977,0,0,0,.655,1.081q1.348.7,2.711,1.375a2.175,2.175,0,0,1,1.5,2.182c-.047.4-.093.8-.14,1.2-.135,1.187-1.175,2.139-3.865,1.783s-3.459-1.56-3.277-2.74l.127-.837c.031-.2.138-.275.345-.244l.931.138c.2.029.271.128.242.33s-.063.434-.094.65c-.114.781.427,1.32,1.868,1.513s2.119-.184,2.215-.965c.028-.228.057-.454.085-.681.089-.725-.59-1.06-1.177-1.357q-1.27-.644-2.524-1.305a2,2,0,0,1-1.121-2c.042-.275.083-.55.125-.823.182-1.188,1.133-2.094,3.621-1.755s3.2,1.456,3.06,2.651c-.024.213-.05.426-.075.639-.023.188-.111.266-.312.242-.305-.036-.611-.073-.918-.111-.218-.028-.27-.122-.246-.311.018-.149.037-.3.055-.448Z" transform="translate(-297.988 -775.229)" fill="#fff"/>
        <path id="Path_2371" data-name="Path 2371" d="M382.164,832.759c-.02.2-.093.285-.318.262-.328-.032-.655-.065-.983-.1-.21-.021-.281-.117-.26-.32q.49-4.649.978-9.3c.021-.2.107-.283.307-.262q.468.049.936.094c.215.021.268.114.247.319q-.454,4.652-.909,9.3Z" transform="translate(-345.308 -779.735)" fill="#fff"/>
        <path id="Path_2372" data-name="Path 2372" d="M413.365,834.011c-.059,1.193-.9,2.219-3.688,2.033s-3.481-1.326-3.377-2.516q.241-2.824.483-5.646c.1-1.2.948-2.165,3.587-1.98s3.343,1.249,3.283,2.45c-.011.239-.024.476-.036.715-.01.2-.093.287-.3.276-.3-.016-.6-.032-.907-.051-.219-.013-.292-.1-.279-.309.01-.161.02-.32.028-.481.045-.788-.468-1.3-1.859-1.391s-1.954.34-2.016,1.126q-.2,2.592-.4,5.183c-.062.785.446,1.313,1.892,1.412s2.038-.354,2.082-1.141c.013-.229.026-.456.041-.686.011-.188.1-.272.318-.26q.461.027.922.051c.206.011.281.1.273.293-.016.305-.031.613-.047.918Z" transform="translate(-366.824 -782.113)" fill="#fff"/>
        <path id="Path_2373" data-name="Path 2373" d="M461.556,830.605c.052-1.2.959-2.2,3.587-2.132,2.644.059,3.5,1.1,3.5,2.3q-.017,2.833-.036,5.667c0,1.195-.917,2.256-3.706,2.193-2.771-.072-3.631-1.177-3.579-2.37q.119-2.831.237-5.663Zm5.554.388c.01-.79-.6-1.276-2-1.308-1.377-.034-2.014.422-2.041,1.212q-.087,2.6-.177,5.2c-.028.786.6,1.3,2.032,1.331,1.45.034,2.1-.444,2.11-1.23q.037-2.6.073-5.2Z" transform="translate(-412.907 -784.282)" fill="#fff"/>
        <path id="Path_2374" data-name="Path 2374" d="M522.574,838.2q2.058-.027,4.117-.1c.21-.007.307.048.314.252q.013.337.023.671c.007.2-.088.279-.3.287q-2.733.09-5.468.109c-.177,0-.26-.1-.26-.291q-.027-4.674-.052-9.347c0-.2.075-.292.291-.294.314,0,.626,0,.939-.008.2,0,.278.085.281.289q.056,4.213.111,8.427Z" transform="translate(-462.848 -785.128)" fill="#fff"/>
        <path id="Path_2375" data-name="Path 2375" d="M565.16,829.053c-.047-1.2.772-2.272,3.4-2.423s3.582.806,3.676,2q.217,2.825.436,5.65c.094,1.19-.727,2.324-3.513,2.493-2.768.159-3.717-.869-3.764-2.062q-.117-2.83-.234-5.663Zm5.568-.075c-.055-.788-.707-1.222-2.1-1.139-1.375.081-1.971.588-1.934,1.377q.127,2.6.255,5.193c.037.787.7,1.24,2.135,1.157,1.448-.086,2.056-.616,2-1.4q-.181-2.594-.359-5.186Z" transform="translate(-499.871 -782.727)" fill="#fff"/>
        <path id="Path_2376" data-name="Path 2376" d="M629.108,826.562c.2-.025.307.036.33.224q.156,1.275.314,2.552c.148,1.185-.509,2.341-3.285,2.64s-3.66-.707-3.763-1.9q-.249-2.823-.5-5.645c-.1-1.2.559-2.3,3.194-2.569s3.512.653,3.66,1.844q.039.319.078.639c.023.188-.044.284-.247.309q-.451.056-.9.107c-.218.026-.306-.052-.328-.24-.016-.135-.031-.271-.047-.406-.091-.785-.686-1.2-2.074-1.05s-1.866.671-1.793,1.458q.249,2.589.5,5.176c.075.785.666,1.216,2.109,1.065,1.427-.151,1.949-.687,1.858-1.469l-.161-1.393q-.941.11-1.882.208c-.206.021-.309-.04-.33-.244-.023-.223-.047-.445-.07-.668-.019-.189.067-.272.271-.293q1.533-.163,3.064-.349Z" transform="translate(-547.639 -778.711)" fill="#fff"/>
        <path id="Path_2377" data-name="Path 2377" d="M679.191,827.192c.029.2-.023.3-.249.33q-.49.068-.98.135c-.21.028-.3-.047-.328-.25q-.622-4.632-1.245-9.264c-.028-.2.037-.3.237-.327.31-.042.623-.085.933-.129.215-.031.288.049.317.25Q678.534,822.564,679.191,827.192Z" transform="translate(-593.018 -775.246)" fill="#fff"/>
        <path id="Path_2378" data-name="Path 2378" d="M706.517,811.8a.349.349,0,0,1,.413.21q2.287,4.361,4.708,8.673c.1.159.036.276-.188.319l-1.006.187a.331.331,0,0,1-.4-.208q-.578-1.046-1.148-2.093-1.665.3-3.335.567-.183,1.175-.375,2.352a.332.332,0,0,1-.309.33l-.93.143c-.208.031-.3-.058-.266-.241q.858-4.871,1.573-9.742a.347.347,0,0,1,.32-.335Q706.046,811.879,706.517,811.8Zm.519,3.556a15.869,15.869,0,0,1-.777-2.03,20.976,20.976,0,0,1-.083,2.147q-.219,1.4-.452,2.8,1.321-.215,2.641-.449-.671-1.232-1.331-2.466Z" transform="translate(-615.871 -770.312)" fill="#fff"/>
      </g>
      <path id="Path_2379" data-name="Path 2379" d="M642.17,694.97q.726,6.161,1.455,12.323,1.721-.2,3.439-.437-.838-6.149-1.679-12.3-1.6.22-3.213.41Z" transform="translate(-559.263 -667.263)" fill="#c6c6c6"/>
      <g id="Group_1197" data-name="Group 1197" transform="translate(54.786 28.553)">
        <path id="Path_2380" data-name="Path 2380" d="M529.643,702.449c0,.052,0,.1.008.156a2.074,2.074,0,0,1-1.526,2.145,1.991,1.991,0,0,1-2.3-1.183c-.123-.289-.267-.618-.418-.959q-1.617.041-3.234.054c.081.146.161.288.24.417q3.472,5.966,7.4,11.786,1.714-.081,3.428-.192-.4-6.193-.808-12.384Q531.039,702.38,529.643,702.449Z" transform="translate(-513.553 -702.29)" fill="#c6c6c6"/>
        <path id="Path_2381" data-name="Path 2381" d="M472.423,703.866q-1.4-.031-2.794-.086-.239,6.2-.479,12.4,1.494.058,2.989.092Q472.28,710.07,472.423,703.866Z" transform="translate(-469.15 -703.538)" fill="#c6c6c6"/>
      </g>
      <path id="Path_2382" data-name="Path 2382" d="M329.341,690.534q-1.826-.263-3.646-.564-1.012,6.122-2.025,12.244,7.426,1.229,14.914,1.862l.171-2.018q-4.639-.4-9.259-1.018a2.1,2.1,0,0,1-1.8-2.389l1.009-6.878a2.181,2.181,0,0,1,.632-1.237Z" transform="translate(-292.529 -663.419)" fill="#c6c6c6"/>
      <path id="Path_2383" data-name="Path 2383" d="M181.809,658.442l-3.569,11.884q1.675.5,3.355.973,1.465-5.229,2.932-10.459a2.165,2.165,0,0,1,1.045-1.315q-1.887-.521-3.763-1.086Z" transform="translate(-170.736 -637.014)" fill="#c6c6c6"/>
      <g id="Group_1198" data-name="Group 1198" transform="translate(96.385 23.485)">
        <path id="Path_2384" data-name="Path 2384" d="M853.742,741.9l0,0,0,0Z" transform="translate(-832.83 -730.394)" fill="#c6c6c6"/>
        <path id="Path_2385" data-name="Path 2385" d="M729.251,672.342q-1.848,6.765-4.161,13.5,1.58-.29,3.158-.608a1.274,1.274,0,0,0,.091-.244q1.243-4.437,2.3-8.884a2.043,2.043,0,0,1,3.5-.934q3.216,3.433,6.623,6.756a2.276,2.276,0,0,0,.3.262q1.719-.471,3.429-.975-5.244-4.922-10.057-10.108" transform="translate(-725.09 -671.11)" fill="#c6c6c6"/>
      </g>
    </g>
    <g id="Group_1203" data-name="Group 1203" transform="translate(2532.188 5827.215)">
      <path id="Path_2386" data-name="Path 2386" d="M173.747,286.094c-.05-.8.262-1.45.211-2.254,1.121,1.62,2.386,3.156,3.508,4.777a4.527,4.527,0,0,0-.2-5.078,6.242,6.242,0,0,1-3.546-2.126,5.983,5.983,0,0,1-.954-3.943c-.241,1.126-.709,1.95-.949,3.077a17.991,17.991,0,0,1-.1-9.825c.64-2.168,1.9-4.384,4.036-5.131a6.57,6.57,0,0,0-1.778,6.664,5.606,5.606,0,0,1,3.847-4.239,7.1,7.1,0,0,1,5.981.518,8.835,8.835,0,0,1,3.849,4.7c-.242-3.7-2.945-6.664-5.438-9.4s-5.157-5.682-5.669-9.352a11.129,11.129,0,0,0,.369,4.848,16.285,16.285,0,0,0-9.958-2.534,8.4,8.4,0,0,1,3.751,3.13,5.9,5.9,0,0,1-5.838-1.354,5.017,5.017,0,0,0,2.188,3.233,8.35,8.35,0,0,1-7.66-1.52,6.341,6.341,0,0,0,4.036,4,3.926,3.926,0,0,0-2.5.375,15.254,15.254,0,0,0-1.736,1.62,2.456,2.456,0,0,1-2.153.752,2.163,2.163,0,0,0,1.407,1.284,2.655,2.655,0,0,0,2.11-.236,8.71,8.71,0,0,0-2.405,1.6,4.288,4.288,0,0,0-1.135,1.95,5.354,5.354,0,0,1,5.4-1.164,11.96,11.96,0,0,0-6.968,5.112,46.025,46.025,0,0,0-2.522,5.375,9.7,9.7,0,0,1-3.691,4.535,8.111,8.111,0,0,0,5.118-2.716A17.029,17.029,0,0,0,153.3,292.9a22.387,22.387,0,0,1,4.853-11.346,27.62,27.62,0,0,0-2.189,14.1c.25,2.347.252,4.707,1.043,6.93a10.254,10.254,0,0,0,4.208,5.515,41.381,41.381,0,0,1-2.758-10,9.73,9.73,0,0,0,3.86,6.834,45.948,45.948,0,0,1-.922-12.853,29.4,29.4,0,0,0,1.721,8.338,10.193,10.193,0,0,0,5.7,6.162,40.8,40.8,0,0,1-6.363-19.481,25.216,25.216,0,0,1,1.248-10.342,14.6,14.6,0,0,1,6.55-7.9,17.946,17.946,0,0,0,3.5,17.237Z" transform="translate(-149.237 -242.028)" fill="#fecb40"/>
      <path id="Path_2387" data-name="Path 2387" d="M182.221,263.832c-2.493-2.74-5.157-5.682-5.669-9.352a11.13,11.13,0,0,0,.369,4.848c-.046-.029-.093-.054-.138-.083a15.818,15.818,0,0,1,1.757,3.42c-1.118-.7-2.124-1.38-3.242-2.076.47-.029.616-.25,1.086-.281a27.729,27.729,0,0,0-8.424-3.537c-.331,0-.665,0-.995.023a8.4,8.4,0,0,1,3.61,2.931l1.609.1a9.919,9.919,0,0,1-4.762,1.365,13.429,13.429,0,0,1,5.9,1.438,24.436,24.436,0,0,0-7.511.8,8.968,8.968,0,0,0,3.6.427,14.209,14.209,0,0,1-6.2.331c.076.029.15.065.228.091a3.927,3.927,0,0,0-2.5.376,15.23,15.23,0,0,0-1.736,1.62,2.455,2.455,0,0,1-2.153.753,2.164,2.164,0,0,0,1.407,1.284,2.655,2.655,0,0,0,2.11-.236,8.713,8.713,0,0,0-2.405,1.6,4.289,4.289,0,0,0-1.135,1.95,5.354,5.354,0,0,1,5.4-1.164,11.961,11.961,0,0,0-6.968,5.111,46.05,46.05,0,0,0-2.522,5.375,9.7,9.7,0,0,1-3.691,4.535,8.112,8.112,0,0,0,5.118-2.716,17.028,17.028,0,0,0-1.063,10.132,22.388,22.388,0,0,1,4.853-11.346,27.622,27.622,0,0,0-2.189,14.1c.25,2.347.25,4.707,1.044,6.93a10.253,10.253,0,0,0,4.208,5.515,39.416,39.416,0,0,1-2.519-8.613,9.979,9.979,0,0,0,3.621,5.446,45.939,45.939,0,0,1-.922-12.851,29.392,29.392,0,0,0,1.721,8.338,10.193,10.193,0,0,0,5.7,6.162,40.8,40.8,0,0,1-6.363-19.481,25.216,25.216,0,0,1,1.248-10.342,14.6,14.6,0,0,1,6.55-7.9,17.941,17.941,0,0,0,3.506,17.236c-.05-.8.262-1.45.211-2.254,1.121,1.62,2.386,3.156,3.507,4.777a4.528,4.528,0,0,0-.2-5.078,6.24,6.24,0,0,1-3.546-2.126,5.983,5.983,0,0,1-.954-3.943c-.241,1.126-.709,1.95-.949,3.077a17.989,17.989,0,0,1-.1-9.825c.64-2.168,1.9-4.383,4.036-5.131a6.57,6.57,0,0,0-1.778,6.664,5.606,5.606,0,0,1,3.847-4.239,7.1,7.1,0,0,1,5.981.518,8.836,8.836,0,0,1,3.849,4.7c-.242-3.7-2.945-6.664-5.438-9.4Z" transform="translate(-149.245 -242.028)" fill="#fe8930"/>
      <g id="Group_1200" data-name="Group 1200" transform="translate(10.16 15.294)">
        <path id="Path_2388" data-name="Path 2388" d="M264.586,271.989l-.036-.019Z" transform="translate(-255.965 -271.97)" fill="#fecb40"/>
        <path id="Path_2389" data-name="Path 2389" d="M270.56,276.136l-.02-.016A.162.162,0,0,1,270.56,276.136Z" transform="translate(-260.981 -275.445)" fill="#fecb40"/>
        <path id="Path_2390" data-name="Path 2390" d="M215.766,285.37c-.078-.026-.151-.062-.228-.091a14.185,14.185,0,0,0,6.2-.331,9,9,0,0,1-3.6-.427,24.425,24.425,0,0,1,7.511-.8,13.411,13.411,0,0,0-5.9-1.438,9.92,9.92,0,0,0,4.762-1.365l-1.609-.1c.047.067.1.132.141.2a5.9,5.9,0,0,1-5.838-1.354,5.016,5.016,0,0,0,2.188,3.233,8.35,8.35,0,0,1-7.66-1.52A6.342,6.342,0,0,0,215.766,285.37Z" transform="translate(-211.73 -278.41)" fill="#fecb40"/>
        <path id="Path_2391" data-name="Path 2391" d="M275.89,281.11Z" transform="translate(-265.462 -279.624)" fill="#fecb40"/>
      </g>
      <path id="Path_2392" data-name="Path 2392" d="M336.125,220.4a3.18,3.18,0,0,1-.6,2.069c-.395.618-.891,1.169-1.258,1.8a2.833,2.833,0,0,0-.413,2.1.648.648,0,0,1-.749-.584,2.292,2.292,0,0,1,.231-1.108,20.841,20.841,0,0,0,.736-2.329c-.453.705-.9,1.347-1.352,2.053a3.387,3.387,0,0,0-.556,1.173,1.145,1.145,0,0,0,.406,1.165,1,1,0,0,1-1.412-.037,1.854,1.854,0,0,1-.45-1.494,11.8,11.8,0,0,1,.346-1.573,6.949,6.949,0,0,0-1.263-5.706,1.189,1.189,0,0,1,.85.192,3.356,3.356,0,0,1,1.552,2.332,5.668,5.668,0,0,1,1.044-3.5c.465-.668,1.071-1.234,1.51-1.92a4.886,4.886,0,0,0,.5-4.148,5.034,5.034,0,0,1,1.733,4.117,12.968,12.968,0,0,1,5.18-4.835c.66-.333,1.351-.611,1.975-1.008a6,6,0,0,0,2.4-2.987,5.515,5.515,0,0,1-.211,3.689c1.464-1.255,3.649-1.36,5.57-1.188s3.785.743,5.7.99a17.053,17.053,0,0,0,7.294-.652,1.848,1.848,0,0,1-.847,1.344,8.076,8.076,0,0,1-3.98,1.637,9.5,9.5,0,0,0,10.2-.241,8.254,8.254,0,0,1-3.829,3.054,39.888,39.888,0,0,0-4.492,1.937,10.08,10.08,0,0,0-4.782,6.989,11.5,11.5,0,0,1,2.656-3.2c.5-.453.995-.909,1.526-1.321a12.951,12.951,0,0,1,4.624-2.293c2.846-.756,6.1-.216,8.357-2.108a9.751,9.751,0,0,0,3.416-7.811,19.623,19.623,0,0,1,1.173,6.251c1.165-1.681,1.1-3.967.891-6-.325-3.171-.722-6.48-2.5-9.128a12.243,12.243,0,0,0-4.973-4.117,22.291,22.291,0,0,0-6.264-1.776,13.171,13.171,0,0,1,6.683,9.789c-1.466-3.527-5.229-5.968-9-6.57a16.743,16.743,0,0,0-10.974,2.391,21.885,21.885,0,0,0-7.759,7.8,27.363,27.363,0,0,1,10.3-14.721,21.827,21.827,0,0,0,5.411-5.627,11.445,11.445,0,0,0,2.079-7.385,8.544,8.544,0,0,1,.931,7.55,48.4,48.4,0,0,1,20.892-6.686,40.77,40.77,0,0,0-10.249,6.363c2.441-.943,5.2-1.113,7.792-1.5a14.854,14.854,0,0,0,7.281-2.675,3.912,3.912,0,0,1-1.378,2.591,13.6,13.6,0,0,1-2.7,1.8,20.641,20.641,0,0,0,14.573-3.789,13.467,13.467,0,0,1-5.471,6.95c2.118-.491,4.094.294,6.118,1.089s4.11,1.687,6.279,1.538a12.011,12.011,0,0,1-6.4,1.822,22.2,22.2,0,0,1,8.6,3.914,19.489,19.489,0,0,0-12.38-.593,29.873,29.873,0,0,1,20.59,10.512,32.67,32.67,0,0,0,3.038,3.516,19.219,19.219,0,0,0,4.678,2.895,14.6,14.6,0,0,1-9.9-3.093,26.712,26.712,0,0,1,5.5,15.8c0-2.3-1.357-4.265-2.652-6.166a34.99,34.99,0,0,0-5.2-6.467,17.543,17.543,0,0,0-6.573-3.732,27.142,27.142,0,0,1,5.458,31.952,21.065,21.065,0,0,0-1.148-8.866c-.088,5.8-4.349,11.276-9.789,13.3a13.837,13.837,0,0,0,1.8-4.773,77.078,77.078,0,0,0,.764-16.383,50.567,50.567,0,0,1-8.465,15.9,75.393,75.393,0,0,0,3.636-13.989,31.465,31.465,0,0,0-1.039-14.586,24.564,24.564,0,0,0-18.207-15.822,19.206,19.206,0,0,1,3.741,11.593,14.734,14.734,0,0,1-1.146,6.472,7.849,7.849,0,0,1-4.74,4.343c-.052-.827-.4-1.555-.457-2.383a10.748,10.748,0,0,1-9.126,5.677,24.821,24.821,0,0,0,7.06,0,42.618,42.618,0,0,1-12.07,4.757,7.328,7.328,0,0,0,4.128,1.6,7.876,7.876,0,0,1-7.2-.257,7.406,7.406,0,0,1-.65-12.375,5.118,5.118,0,0,0-3.823,1.437,6.252,6.252,0,0,1,3.477-3.355,17.826,17.826,0,0,0-6.773,1.214,11.556,11.556,0,0,1,4.034-2.826,18.179,18.179,0,0,0-9.349,2.766,6.921,6.921,0,0,1,1.6-2.9A31.753,31.753,0,0,0,340.307,215a4.2,4.2,0,0,0-2.357,2.467,2.223,2.223,0,0,1,1.963-.649,4.065,4.065,0,0,0-2.238,1.819,7.62,7.62,0,0,0-.5,4.174c-.353-.8-.7-1.614-1.052-2.415Z" transform="translate(-300.442 -177.904)" fill="#fe8930"/>
      <path id="Path_2393" data-name="Path 2393" d="M358.634,459.644a1.927,1.927,0,0,1,.309-1.461,5.659,5.659,0,0,1,1.039-1.123,2.172,2.172,0,0,1-.039,1.655A2.047,2.047,0,0,1,358.634,459.644Z" transform="translate(-324.562 -411.683)" fill="#f4f4f4"/>
      <path id="Path_2394" data-name="Path 2394" d="M815.253,466.733a15.793,15.793,0,0,0-3.413-14.8,26.983,26.983,0,0,1,2.391,10.366A25.765,25.765,0,0,1,815.253,466.733Z" transform="translate(-704.143 -407.387)" fill="#f2352c"/>
      <path id="Path_2395" data-name="Path 2395" d="M797.829,375.616a21.16,21.16,0,0,0-5.22-9.8,13.33,13.33,0,0,0-3.023-2.461c-2.36-1.346-5.152-1.643-7.855-1.915a8.763,8.763,0,0,1,3.2,1.9,17.536,17.536,0,0,1,6.29,3.636,34.985,34.985,0,0,1,5.2,6.467c.484.71.977,1.43,1.4,2.173Z" transform="translate(-678.927 -331.604)" fill="#f2352c"/>
      <path id="Path_2396" data-name="Path 2396" d="M779.343,307.517A32.729,32.729,0,0,1,776.305,304a29.652,29.652,0,0,0-17.046-10.012c2.937,1.541,5.941,3.231,8.858,4.725a29.688,29.688,0,0,1-9.617-1.892A7.823,7.823,0,0,0,762.18,299c2.136.777,4.515,1.822,6.651,2.6a16.9,16.9,0,0,0-6.319.595,20.183,20.183,0,0,1,12.726,6.7q-.527-.8-1.11-1.576a14.6,14.6,0,0,0,9.9,3.093,19.215,19.215,0,0,1-4.678-2.895Z" transform="translate(-659.473 -275.117)" fill="#fecb40"/>
      <path id="Path_2397" data-name="Path 2397" d="M699.1,247.5a14.612,14.612,0,0,1,7.494.995,24.408,24.408,0,0,1,2.96,1.536,17.465,17.465,0,0,1,1.991.653,22.208,22.208,0,0,0-8.6-3.914,12.026,12.026,0,0,0,6.4-1.822c-2.17.149-4.255-.743-6.279-1.538a11.745,11.745,0,0,0-5.365-1.211,4.919,4.919,0,0,0-1.64.874,4.628,4.628,0,0,1,2.79-.239,4.567,4.567,0,0,1,2.462,1.292,10.129,10.129,0,0,0-5.708.34,26,26,0,0,1,5.807,1.042,33.994,33.994,0,0,0-5.188,1.061,9.362,9.362,0,0,1-5.25-.015,4.32,4.32,0,0,0,3.774,1.562,35.661,35.661,0,0,0,4.348-.614Z" transform="translate(-602.927 -231.722)" fill="#fecb40"/>
      <path id="Path_2398" data-name="Path 2398" d="M618.5,201.446a19.31,19.31,0,0,0,2.428-2.035,13.768,13.768,0,0,0,.977-2.162,20.65,20.65,0,0,1-14.573,3.789,13.655,13.655,0,0,0,2.7-1.8,3.912,3.912,0,0,0,1.378-2.591,14.822,14.822,0,0,1-7.281,2.675c-1.863.28-3.813.45-5.671.873a57,57,0,0,1,7.816.72c-3.855,1-7.585,2.17-11.441,3.176a43.412,43.412,0,0,1,8.4-.678,38.673,38.673,0,0,0,7.59-.14,15.435,15.435,0,0,1-7.163,1.793c3.255.328,6.649.64,9.713-.509A21.432,21.432,0,0,0,618.5,201.446Z" transform="translate(-522.413 -193.598)" fill="#fecb40"/>
      <path id="Path_2399" data-name="Path 2399" d="M453.7,185.259a21.83,21.83,0,0,1-5.411,5.627,27.15,27.15,0,0,0-7.473,8.174,41.854,41.854,0,0,1,8.612-7.844,20.74,20.74,0,0,0,4.616-3.654,12.05,12.05,0,0,0,2.121-4.338,21.753,21.753,0,0,0,.645-3.074,9.657,9.657,0,0,0-1.032-2.28,11.444,11.444,0,0,1-2.079,7.385Z" transform="translate(-393.426 -177.87)" fill="#fecb40"/>
      <path id="Path_2400" data-name="Path 2400" d="M529.093,192.891a8.214,8.214,0,0,0-3.55-.15,67.846,67.846,0,0,1,15.413-6.691,48.537,48.537,0,0,0-16.77,6.046,35.661,35.661,0,0,1-3.166,4.8A50.7,50.7,0,0,1,529.093,192.891Z" transform="translate(-460.591 -184.721)" fill="#fecb40"/>
      <path id="Path_2401" data-name="Path 2401" d="M484.187,311.2c.028-.01.055-.024.083-.034a10.362,10.362,0,0,0,3.155-3.66,19.867,19.867,0,0,0,1.9-7.224,46.438,46.438,0,0,0-2.193-19.629c.343,2.664-.832,5.105-2.332,7.333a40.093,40.093,0,0,0-2.241-19.166,15.621,15.621,0,0,0-2.292-4.413,7.164,7.164,0,0,0-4.093-2.679,7.628,7.628,0,0,1,2.813,4.348,33.291,33.291,0,0,0-20.463-9.6,4.136,4.136,0,0,1,1.406,3.54,5.423,5.423,0,0,0-2.952-2.267,27.263,27.263,0,0,0-10.581-1.893,8.853,8.853,0,0,1,2.175,3.54,11.662,11.662,0,0,0-7.844.351c.411-.566.623-1.16,1.034-1.726A29.975,29.975,0,0,0,429.5,269.39h0a21.94,21.94,0,0,1,2.2-2.661c.01-.01.018-.019.028-.031.2-.206.408-.406.618-.6.107-.1.216-.206.325-.307q.268-.244.543-.478c.156-.133.314-.263.473-.393s.32-.258.484-.382c.208-.158.419-.309.632-.46.13-.093.26-.187.392-.276.354-.239.714-.468,1.081-.684a16.743,16.743,0,0,1,10.974-2.391c3.772.6,7.535,3.042,9,6.569a13.172,13.172,0,0,0-6.683-9.789,22.31,22.31,0,0,1,6.264,1.777A12.262,12.262,0,0,1,460.8,263.4c1.776,2.648,2.173,5.957,2.5,9.128.028.278.054.559.073.844h0a25.169,25.169,0,0,0,.788-9.5q-.32-.6-.686-1.178c-.252-.392-.517-.777-.8-1.148a24.564,24.564,0,0,1,18.207,15.823,31.424,31.424,0,0,1,1.039,14.586,75.4,75.4,0,0,1-3.636,13.989,50.522,50.522,0,0,0,8.465-15.9,76.969,76.969,0,0,1-.764,16.383,13.874,13.874,0,0,1-1.8,4.774Z" transform="translate(-383.946 -243.175)" fill="#f2352c"/>
      <path id="Path_2402" data-name="Path 2402" d="M387.735,385.887c-.125-.98-.367-1.965-.493-2.945a19.817,19.817,0,0,1-14.6,8.725c1.45.756,2.821,1.329,4.271,2.084a10.1,10.1,0,0,1-7.332.954,10.168,10.168,0,0,1,3.327-6.387,11.614,11.614,0,0,1,1.328-.951A12.962,12.962,0,0,0,371.459,389c-.532.413-1.029.868-1.526,1.321a11.5,11.5,0,0,0-2.656,3.2,10.08,10.08,0,0,1,4.782-6.989,39.878,39.878,0,0,1,4.492-1.937,8.28,8.28,0,0,0,3.829-3.054,9.833,9.833,0,0,1-2.293,1.1,11.092,11.092,0,0,1-1.089.811,43.383,43.383,0,0,1-4.967,2.3,7.073,7.073,0,0,0-3.857,3.691c.262-1.936.962-4.045,2.558-5.17-.67.042-1.378.07-2.048.114a3.043,3.043,0,0,1,1.945-1.141,8.292,8.292,0,0,0-4.393-.366c.764-.359,1.406-1.016,2.17-1.375a12.391,12.391,0,0,0-8.052.585,5.273,5.273,0,0,1,2.243-1.411,19.518,19.518,0,0,0-9.623,1.8c.372-.517.692-1.105,1.065-1.622-2.942,1.715-5.88,3.629-7.618,6.558-.069-.78-.275-1.487-.343-2.267-.432,1.039-1.048,2.151-1.481,3.189a6.98,6.98,0,0,0-.5,1.5,2.333,2.333,0,0,0,.216,1.541.864.864,0,0,1-1.02.465c-.034-.327-.117-.779-.151-1.105a4.193,4.193,0,0,1-.414,2.074c-.192.473-.47.909-.657,1.383a2.051,2.051,0,0,0-.094,1.492,1.189,1.189,0,0,0,.466.556,1.284,1.284,0,0,1-.153-.891,3.374,3.374,0,0,1,.556-1.173c.453-.705.9-1.347,1.352-2.053-.131.52-.291,1.032-.461,1.541.164-.2.332-.392.489-.593a7.187,7.187,0,0,0,1.5-4.829,16.006,16.006,0,0,1,1.077,3.2c.166.382.33.764.5,1.143a7.624,7.624,0,0,1,.5-4.174,4.057,4.057,0,0,1,2.238-1.819,2.219,2.219,0,0,0-1.963.649,4.2,4.2,0,0,1,2.357-2.467A31.823,31.823,0,0,1,358,381.814a6.921,6.921,0,0,0-1.6,2.9,18.178,18.178,0,0,1,9.349-2.766,11.554,11.554,0,0,0-4.034,2.826,17.829,17.829,0,0,1,6.773-1.214,6.263,6.263,0,0,0-3.477,3.355,5.116,5.116,0,0,1,3.823-1.437,7.406,7.406,0,0,0,.65,12.375,7.872,7.872,0,0,0,7.2.257,7.328,7.328,0,0,1-4.128-1.6,42.6,42.6,0,0,0,12.07-4.757,24.822,24.822,0,0,1-7.06,0,10.751,10.751,0,0,0,9.126-5.677c.052.827.4,1.556.457,2.383a7.853,7.853,0,0,0,4.739-4.343,11.1,11.1,0,0,0,.614-1.694,14.91,14.91,0,0,1-4.767,3.465Z" transform="translate(-310.565 -347.684)" fill="#f2352c"/>
      <path id="Path_2403" data-name="Path 2403" d="M398.559,354.055a4.529,4.529,0,0,1-.658,2.492,8.224,8.224,0,0,1,4.843-1.144c1.685.057,3.345.413,5.017.623a29.024,29.024,0,0,0,7.005.023,10.5,10.5,0,0,0,2.183-.457,1.414,1.414,0,0,0,.395-.922,17.079,17.079,0,0,1-7.294.652c-1.913-.247-3.777-.818-5.7-.99s-4.106-.067-5.57,1.188a5.514,5.514,0,0,0,.211-3.689,6,6,0,0,1-2.4,2.987c-.624.4-1.315.674-1.975,1.008a12.4,12.4,0,0,0-2.191,1.421,12.094,12.094,0,0,0,3.119-1.424C396.542,355.243,397.566,354.634,398.559,354.055Z" transform="translate(-352.901 -323.556)" fill="#fecb40"/>
      <g id="Group_1201" data-name="Group 1201" transform="translate(29.352 36.553)">
        <path id="Path_2404" data-name="Path 2404" d="M347.446,402.77a4.8,4.8,0,0,1-.31.583c-.439.686-1.045,1.25-1.51,1.92a5.726,5.726,0,0,0-1.045,3.2,6.527,6.527,0,0,1,1.1-2.178,8.822,8.822,0,0,0,1.7-2.93,3.107,3.107,0,0,0,.07-.588Z" transform="translate(-342.179 -402.77)" fill="#fecb40"/>
        <path id="Path_2405" data-name="Path 2405" d="M331.187,431.531a8.318,8.318,0,0,1,.409-2.41,3.743,3.743,0,0,0-.037-2.409c.21.257.441.358.649.614a2.126,2.126,0,0,1-.028-.928,3.362,3.362,0,0,0-1.52-2.176,1.19,1.19,0,0,0-.85-.192,6.95,6.95,0,0,1,1.263,5.706,11.941,11.941,0,0,0-.346,1.573,1.855,1.855,0,0,0,.45,1.494,1.125,1.125,0,0,0,.741.31,2.3,2.3,0,0,1-.731-1.585Z" transform="translate(-329.81 -420.556)" fill="#fecb40"/>
      </g>
      <path id="Path_2406" data-name="Path 2406" d="M383.17,471.207a10.159,10.159,0,0,1,1.138,16.643,8.857,8.857,0,0,0,6.511-5.927,9.07,9.07,0,0,0-1.745-8.744,5.2,5.2,0,0,1,4.557,4,7.262,7.262,0,0,0-3.539-6.392,6.592,6.592,0,0,0-6.922.418Z" transform="translate(-345.146 -422.519)" fill="#f2352c"/>
      <path id="Path_2407" data-name="Path 2407" d="M381.049,426.516a9.907,9.907,0,0,1,1.214-5.583,4.993,4.993,0,0,1,4.876-2.458,3.27,3.27,0,0,0-2.108,2.152,8.238,8.238,0,0,1,7.65-.892,5.969,5.969,0,0,0-2.383.783,7.988,7.988,0,0,1,6.368,2.223c-.889-.133-1.667-.22-2.557-.353a3.745,3.745,0,0,1,2.47,1.526,7.052,7.052,0,0,1,1.367,2.877,10.528,10.528,0,0,1-2.991,10,11.463,11.463,0,0,0,.83-10.342A6.67,6.67,0,0,1,394.9,432a8.4,8.4,0,0,0-3.074-5.3,2.433,2.433,0,0,1,2.089,1.318,10.5,10.5,0,0,0-2.232-3.833,1.658,1.658,0,0,1,1.8-.039,3.639,3.639,0,0,0-3.616-.889,3.465,3.465,0,0,1,2.207-1.009,9.519,9.519,0,0,0-6,.392,10.582,10.582,0,0,0-5.022,3.881Z" transform="translate(-343.362 -379.318)" fill="#f2352c"/>
      <path id="Path_2408" data-name="Path 2408" d="M330.472,476.691a5.754,5.754,0,0,0,.878,7.467,3.594,3.594,0,0,1,.666-3.885,13.11,13.11,0,0,1,1.965-1.542,3.134,3.134,0,0,0,1.368-2.012.717.717,0,0,1,.933.218,1.41,1.41,0,0,1,.106.957,4.682,4.682,0,0,1-3.39,3.7,2.8,2.8,0,0,0,3.441-.836,4.107,4.107,0,0,0,.713-3.683,2.144,2.144,0,0,0-1.211-1.591,2.2,2.2,0,0,0-1.9.5,7.542,7.542,0,0,1-1.687,1.138C331.714,477.353,330.76,477.307,330.472,476.691Z" transform="translate(-300.186 -427.051)" fill="#fecb40"/>
      <path id="Path_2409" data-name="Path 2409" d="M566.67,455.073a41.834,41.834,0,0,0,7.025-10.727c.171,1.963.592,3.772.762,5.736a23.337,23.337,0,0,0,4.371-12.2,23.694,23.694,0,0,1-1.706,13.363,24.926,24.926,0,0,1-9.048,10.451,37.042,37.042,0,0,0,4.228-9.649c-1.568,1.37-3.753,2.119-5.629,3.025Z" transform="translate(-498.821 -395.62)" fill="#fe8930"/>
      <path id="Path_2410" data-name="Path 2410" d="M640.176,317.152a31.235,31.235,0,0,1,4.559,17.992q-.946-2.725-1.894-5.453a6.531,6.531,0,0,0-.731-1.615,1.931,1.931,0,0,0-1.43-.748,24.378,24.378,0,0,1-.649,10.743,7.614,7.614,0,0,0-3.3-3.634,19.894,19.894,0,0,1-3.309,20.731,18.527,18.527,0,0,0,8.762-15.289,17.01,17.01,0,0,1,3.008,6,26.173,26.173,0,0,0,2.256-15.259,25.8,25.8,0,0,0-7.268-13.474Z" transform="translate(-554.722 -294.512)" fill="#fe8930"/>
      <path id="Path_2411" data-name="Path 2411" d="M292.112,462.181a22.12,22.12,0,0,0,3.238,12.71c-4.263-4.487-7.247-10.113-7.629-16.291,1.1,2.784,2.137,5.3,3.234,8.081a7.317,7.317,0,0,1,1.159-4.5Z" transform="translate(-265.209 -412.972)" fill="#fe8930"/>
      <path id="Path_2412" data-name="Path 2412" d="M249.093,370.23a21.282,21.282,0,0,0-.707,12.612,15.378,15.378,0,0,1,1.357-5.75,22.7,22.7,0,0,0,.9,8.013c.413-1.014.9-1.565,1.31-2.579a27.027,27.027,0,0,0,3.229,14.428,19.824,19.824,0,0,1-5.255-10.265c-.179,1.536-.748,3.087-.927,4.621A24.092,24.092,0,0,1,249.093,370.23Z" transform="translate(-230.787 -338.965)" fill="#f2352c"/>
      <path id="Path_2413" data-name="Path 2413" d="M577.121,464.837a22.662,22.662,0,0,0,1.952-10.727,39,39,0,0,1-7.119,16.429,14.751,14.751,0,0,0,.8-8.237,12.642,12.642,0,0,1-5.528,5.723c-.185.214-.366.431-.556.64,1.875-.906,4.062-1.655,5.628-3.025a37.061,37.061,0,0,1-4.227,9.65,24.924,24.924,0,0,0,9.048-10.451Z" transform="translate(-498.821 -409.212)" fill="#f2352c"/>
      <path id="Path_2414" data-name="Path 2414" d="M647.421,356.771a23.227,23.227,0,0,0-3.273-8.4,41.091,41.091,0,0,1,2.548,14.774c-.024,1.772-.049,3.813-1.385,4.978a17,17,0,0,0-.71-3.888,5.329,5.329,0,0,0-2.123-3.015,44.216,44.216,0,0,1-1.807,8.579,2.838,2.838,0,0,0-1.083-1.814,14.641,14.641,0,0,1-5.853,12.91c-.117.138-.226.284-.346.419a18.527,18.527,0,0,0,8.762-15.289,17.014,17.014,0,0,1,3.009,6,26.179,26.179,0,0,0,2.256-15.259Z" transform="translate(-554.697 -320.658)" fill="#f2352c"/>
      <path id="Path_2415" data-name="Path 2415" d="M300.667,503a22.13,22.13,0,0,1-3.122-9.118,9.074,9.074,0,0,0-.325,3.735,36.711,36.711,0,0,1-3.15-5.453A28.384,28.384,0,0,0,300.667,503Z" transform="translate(-270.527 -441.078)" fill="#f2352c"/>
      <path id="Path_2416" data-name="Path 2416" d="M249.345,375.945c.106-.32.213-.639.332-.956a17.8,17.8,0,0,0-.219,6.651,54.1,54.1,0,0,0,1.471,6.573,8.98,8.98,0,0,1,.777-4.268,15.851,15.851,0,0,0,3.748,8.5,27.03,27.03,0,0,1-1.3-9.908c-.413,1.014-.9,1.565-1.31,2.579a22.7,22.7,0,0,1-.9-8.013,15.38,15.38,0,0,0-1.357,5.75,21.284,21.284,0,0,1,.707-12.612,24.41,24.41,0,0,0-1.952,5.706Z" transform="translate(-232.991 -338.974)" fill="#fe8930"/>
      <path id="Path_2417" data-name="Path 2417" d="M300.378,427.232l-.132-.04a3.839,3.839,0,0,1-.385,2.623,4.334,4.334,0,0,0-1.666-2.032,12.01,12.01,0,0,1-1.945-1.723c.114,1.086.115,2.123.151,3.173.151.185.3.374.462.552-.05-.8.262-1.45.211-2.254,1.121,1.62,2.386,3.156,3.508,4.777a4.527,4.527,0,0,0-.2-5.077Z" transform="translate(-272.353 -385.721)" fill="#f2352c"/>
      <path id="Path_2418" data-name="Path 2418" d="M236.937,311.927c.3.505.567.956.866,1.461a7.23,7.23,0,0,0-3.568.193c.322-.733.4-1.477.725-2.212a7.366,7.366,0,0,0-6.274,3.845,6.111,6.111,0,0,1,.263-3.039,19.74,19.74,0,0,0-8.494,8.951,7.946,7.946,0,0,1-.034-2.9,19.478,19.478,0,0,0-2.394,9.113,58.955,58.955,0,0,0,.725,9.545,10.851,10.851,0,0,1-1.521-4.634c.068,3.233-.13,6.425-.063,9.658a32.264,32.264,0,0,0,.333,4.754,16.246,16.246,0,0,0,1.326,4.2,48.517,48.517,0,0,1-.567-11.142,29.394,29.394,0,0,0,1.721,8.338,10.192,10.192,0,0,0,5.7,6.161,40.8,40.8,0,0,1-6.363-19.481,25.217,25.217,0,0,1,1.248-10.342,14.6,14.6,0,0,1,6.55-7.9c-.112.325-.211.655-.3.988a17.4,17.4,0,0,0,1.149,5.95,16.48,16.48,0,0,1,.627-5.074c.64-2.168,1.9-4.384,4.036-5.131a6.57,6.57,0,0,0-1.778,6.664,5.606,5.606,0,0,1,3.847-4.239,7.1,7.1,0,0,1,5.981.519,8.836,8.836,0,0,1,3.849,4.7,8.4,8.4,0,0,0-.117-.91,8.6,8.6,0,0,0-.795-1.586,19.178,19.178,0,0,0-6.678-6.454Z" transform="translate(-206.113 -289.672)" fill="#f2352c"/>
      <path id="Path_2419" data-name="Path 2419" d="M201.777,485.258a17.76,17.76,0,0,1,.154-10.628,3.619,3.619,0,0,0-1.45,1.906,8.926,8.926,0,0,0-.305,2.323,54.743,54.743,0,0,0,.662,10.6,8.993,8.993,0,0,0,3,3.009,39.423,39.423,0,0,1-2.519-8.613,9,9,0,0,0,.46,1.4Z" transform="translate(-191.866 -426.397)" fill="#f2352c"/>
      <g id="Group_1202" data-name="Group 1202" transform="translate(3.728 37.407)">
        <path id="Path_2420" data-name="Path 2420" d="M173.127,415.074a20.49,20.49,0,0,0-.967,3.914,16.855,16.855,0,0,0,.325,3.008,22.387,22.387,0,0,1,4.853-11.346l-.006.016.468-.806a3.009,3.009,0,0,1,1.069-1.23,10.824,10.824,0,0,0-5.742,6.446Z" transform="translate(-172.16 -408.531)" fill="#f2352c"/>
        <path id="Path_2421" data-name="Path 2421" d="M213.45,408.117c.08-.032.156-.068.236-.1A1.3,1.3,0,0,0,213.45,408.117Z" transform="translate(-206.739 -408.02)" fill="#f2352c"/>
      </g>
      <path id="Path_2422" data-name="Path 2422" d="M197.113,317.605a2.163,2.163,0,0,0,1.408,1.284,2.655,2.655,0,0,0,2.11-.236,8.716,8.716,0,0,0-2.405,1.6,4.289,4.289,0,0,0-1.134,1.95,4.463,4.463,0,0,1,1.6-1.043,11.964,11.964,0,0,1,6.893-2.615,6.467,6.467,0,0,0-4.392-.8,4.43,4.43,0,0,0,1.728-1.567,3.024,3.024,0,0,1-2.425.4q.763-.853,1.528-1.7a2.7,2.7,0,0,0-1.017.363,15.243,15.243,0,0,0-1.736,1.62,2.455,2.455,0,0,1-2.154.753Z" transform="translate(-189.31 -292.603)" fill="#fecb40"/>
      <path id="Path_2423" data-name="Path 2423" d="M155.434,365.568a46.055,46.055,0,0,0-2.522,5.375,9.7,9.7,0,0,1-3.691,4.535,8.134,8.134,0,0,0,4.578-2.154,11.194,11.194,0,0,1,5.773-5.907c-1.037.252-2.069.249-3.106.5a9.9,9.9,0,0,1,4.117-4.234c-1.151.631-2.308,1.011-3.459,1.64.661-1.1,1.3-2.256,1.945-3.382a11.994,11.994,0,0,0-3.636,3.626Z" transform="translate(-149.22 -332.023)" fill="#fecb40"/>
    </g>
  </g>
</svg>
