<svg xmlns="http://www.w3.org/2000/svg" xmlns:xlink="http://www.w3.org/1999/xlink" width="152.334" height="128.689" viewBox="0 0 152.334 128.689">
  <defs>
    <clipPath id="clip-path">
      <rect id="Rectangle_149" data-name="Rectangle 149" width="109.206" height="11.454"/>
    </clipPath>
    <clipPath id="clip-path-2">
      <rect id="Rectangle_152" data-name="Rectangle 152" width="152.335" height="19.21"/>
    </clipPath>
  </defs>
  <g id="Group_3961" data-name="Group 3961" transform="translate(-3199.908 -5807.349)">
    <path id="Path_504" data-name="Path 504" d="M308.433,192.81c-2.508,3.9-6,7.743-8.7,11.238a9.117,9.117,0,0,1,4.5,3.54,17.765,17.765,0,0,1,2.983,6.213,8.9,8.9,0,0,1-3.6-.209c2.034,7.027,5.971,17.513,4.607,24.7-.485,2.555-3.586,11.258-4.356,13.742-1.178,3.8-8.347-3.332-11.594-1.029a9.361,9.361,0,0,0,.245-5.871c-2.2,4.83-6.141,8.782-10.459,11.872a70.237,70.237,0,0,1-14.078,7.38,12.288,12.288,0,0,0-2.491-13.147,35.866,35.866,0,0,1-5.541,1.372,12.146,12.146,0,0,1-5.684.028,1.92,1.92,0,0,0,1.169,1.527,18.729,18.729,0,0,1-8.923-1.692,5.017,5.017,0,0,0,.025,2.977c-2.558-3.095-4.868-5.648-6.376-9.37s-1.788-8.162.246-11.624a3.893,3.893,0,0,0-.634-4.2,15.658,15.658,0,0,1-9.838-4.741,15,15,0,0,1-4.094-9.871,9.754,9.754,0,0,1,2.051-5.256,6.105,6.105,0,0,1,1.4-3.732,6.023,6.023,0,0,1,3.333-2.142,3.943,3.943,0,0,1-1.412-3.881,7,7,0,0,1,2.112-3.912,20.791,20.791,0,0,1,3.619-2.7c-.678-3.682-1.232-7.338-1.908-11.019a70.488,70.488,0,0,0,9.348,7.344,45.3,45.3,0,0,1,8.25-1.334c5.019-.488,10.572-.887,16.338.3,3.231.664,6.836,1.7,10.087,2.247,1.164-.479,6.847-3.545,11.948-4.877,3.816-1,8.388-1.157,12.356-1.593.27-.03,2.054-.265,2.367-.315,2.908-.476,5.259-1.27,6.374-2.939C312.557,181.163,311.684,187.748,308.433,192.81Z" transform="translate(3000.934 5625.562)" fill="#020203"/>
    <g id="Group_760" data-name="Group 760" transform="translate(3221.471 5902.863)">
      <g id="Group_748" data-name="Group 748" transform="translate(1.952)">
        <g id="Group_741" data-name="Group 741">
          <path id="Path_505" data-name="Path 505" d="M239.405,837.211a3.1,3.1,0,0,1-1.9-.645,28.012,28.012,0,0,1-3-2.553l-.028-.027c-.505-.505-.981-.981-1.408-1.461-.221-.253-.4-.465-.568-.673a7.411,7.411,0,0,1-1.16-.306,10.732,10.732,0,0,1-7-10.341,10.872,10.872,0,0,1,3.165-7.9,11.961,11.961,0,0,1,15.952,0,10.878,10.878,0,0,1,3.16,7.9,11.024,11.024,0,0,1-2.972,7.694c-.1.1-.19.2-.284.3a3.113,3.113,0,0,1,.56,5.053l-2.45,2.175A3.088,3.088,0,0,1,239.405,837.211Zm-3.915-18.226c-1.28,0-1.855,1.115-1.855,2.22s.573,2.221,1.855,2.221c.844,0,1.831-.582,1.831-2.221C237.323,820.1,236.756,818.985,235.49,818.985Z" transform="translate(-221.225 -807.148)" fill="#fff"/>
          <path id="Path_506" data-name="Path 506" d="M218.755,796.657c4.763,0,8.014,3.159,8.014,7.831a7.926,7.926,0,0,1-2.13,5.565,6.406,6.406,0,0,1-3.252,1.991,3.671,3.671,0,0,0,.847,1.191,10.06,10.06,0,0,0,1.076.938,11.813,11.813,0,0,0,1.809,1.031l-2.45,2.175a24.84,24.84,0,0,1-2.724-2.313c-.48-.48-.917-.917-1.282-1.328a10.7,10.7,0,0,1-1.168-1.557,5.89,5.89,0,0,1-1.877-.3,7.667,7.667,0,0,1-4.9-7.4c0-4.672,3.248-7.831,8.033-7.831m0,13.166a5.349,5.349,0,1,0-4.968-5.336,5.012,5.012,0,0,0,4.968,5.336m0-19.393a14.41,14.41,0,0,0-10.158,3.929,13.953,13.953,0,0,0-4.107,10.13,14.508,14.508,0,0,0,2.4,8.049,13.085,13.085,0,0,0,6.707,5.237c.154.054.306.1.454.146.475.53.968,1.025,1.491,1.547.019.019.039.039.058.057a31.083,31.083,0,0,0,3.28,2.793,6.228,6.228,0,0,0,7.928-.283l2.45-2.175a6.225,6.225,0,0,0,1.431-7.451,14.227,14.227,0,0,0,2.31-7.922,13.966,13.966,0,0,0-4.1-10.125,14.359,14.359,0,0,0-10.139-3.933Z" transform="translate(-204.49 -790.43)"/>
        </g>
        <g id="Group_742" data-name="Group 742" transform="translate(17.656 0.275)">
          <path id="Path_507" data-name="Path 507" d="M346.295,833.665a9.993,9.993,0,0,1-6.032-1.638.129.129,0,0,0-.019-.013c-2.991-2.068-3.4-4.907-3.4-7.667v-9.2a3.113,3.113,0,0,1,3.113-3.113h2.862a3.113,3.113,0,0,1,3.114,3.113v9.364c0,.089,0,.163.009.224a3.061,3.061,0,0,0,.449.028c.1,0,.177,0,.24-.011.006-.063.011-.143.011-.24v-9.364a3.113,3.113,0,0,1,3.113-3.114h2.884a3.113,3.113,0,0,1,3.113,3.114v9.2c0,3.171-.582,5.689-3.419,7.663l-.014.009A10.183,10.183,0,0,1,346.295,833.665Z" transform="translate(-333.727 -808.915)" fill="#fff"/>
          <path id="Path_508" data-name="Path 508" d="M335.91,798.407v9.2c0,2.77-.5,4.006-2.084,5.106a8.849,8.849,0,0,1-8.54,0c-1.557-1.077-2.06-2.335-2.06-5.106v-9.2h2.862v9.364c0,2.244,1.168,3.366,3.572,3.366a3.022,3.022,0,0,0,3.366-3.366v-9.364h2.884m0-6.227h-2.884a6.2,6.2,0,0,0-3.468,1.055,6.2,6.2,0,0,0-3.468-1.055h-2.862A6.227,6.227,0,0,0,317,798.407v9.2c0,3.234.54,7.32,4.747,10.228.012.01.027.017.039.027a14.961,14.961,0,0,0,15.57-.017c.009-.007.019-.013.028-.021a10.393,10.393,0,0,0,3.845-4.686,14.185,14.185,0,0,0,.91-5.531v-9.2a6.229,6.229,0,0,0-6.23-6.227Z" transform="translate(-317 -792.18)"/>
        </g>
        <g id="Group_743" data-name="Group 743" transform="translate(33.225 0.275)">
          <path id="Path_509" data-name="Path 509" d="M439.153,833.359a3.113,3.113,0,0,1-3.113-3.114V815.134a3.113,3.113,0,0,1,3.113-3.114h2.884a3.113,3.113,0,0,1,3.114,3.114v15.112a3.113,3.113,0,0,1-3.114,3.114Z" transform="translate(-432.928 -808.907)" fill="#fff"/>
          <path id="Path_510" data-name="Path 510" d="M425.321,798.407v15.112h-2.884V798.407h2.884m0-6.227h-2.884a6.227,6.227,0,0,0-6.227,6.227v15.112a6.227,6.227,0,0,0,6.227,6.227h2.884a6.227,6.227,0,0,0,6.227-6.227V798.407a6.227,6.227,0,0,0-6.227-6.227Z" transform="translate(-416.21 -792.18)"/>
        </g>
        <g id="Group_744" data-name="Group 744" transform="translate(39.518 0.275)">
          <path id="Path_511" data-name="Path 511" d="M492.234,833.359a3.115,3.115,0,0,0-4.03,0h-2.588a3.111,3.111,0,0,0-3.732,0h-2.611a3.113,3.113,0,0,1-3.113-3.114V815.134a3.113,3.113,0,0,1,3.113-3.114h3.457a3.114,3.114,0,0,1,2.917,2.024l1.45,3.881,1.522-3.918a3.114,3.114,0,0,1,2.9-1.987h3.457a3.113,3.113,0,0,1,3.113,3.114v15.112a3.113,3.113,0,0,1-3.113,3.114Z" transform="translate(-473.045 -808.907)" fill="#fff"/>
          <path id="Path_512" data-name="Path 512" d="M478.247,798.407v15.112H475.5V802.437a6.953,6.953,0,0,1-.573,2.153l-3.457,8.929h-2.588l-3.16-8.769a10.938,10.938,0,0,1-.573-2.4v11.173h-2.61V798.407H466l4.03,10.784a3.962,3.962,0,0,1,.3,1.168,3.764,3.764,0,0,1,.275-1.168l4.19-10.784h3.459m0-6.227H474.79a6.226,6.226,0,0,0-4.4,1.815,6.223,6.223,0,0,0-4.4-1.815h-3.46a6.228,6.228,0,0,0-6.229,6.227v15.112a6.227,6.227,0,0,0,6.229,6.227h2.61a6.239,6.239,0,0,1,3.733,0h2.588a6.239,6.239,0,0,1,4.03,0h2.748a6.227,6.227,0,0,0,6.227-6.227V798.407a6.227,6.227,0,0,0-6.227-6.227Z" transform="translate(-456.31 -792.18)"/>
        </g>
        <g id="Group_745" data-name="Group 745" transform="translate(58.639 0.275)">
          <path id="Path_513" data-name="Path 513" d="M601.1,833.359a3.113,3.113,0,0,1-3.114-3.114V815.134a3.113,3.113,0,0,1,3.114-3.114h2.884a3.113,3.113,0,0,1,3.113,3.114v15.112a3.113,3.113,0,0,1-3.113,3.114Z" transform="translate(-594.878 -808.907)" fill="#fff"/>
          <path id="Path_514" data-name="Path 514" d="M587.271,798.407v15.112h-2.884V798.407h2.884m0-6.227h-2.884a6.227,6.227,0,0,0-6.227,6.227v15.112a6.227,6.227,0,0,0,6.227,6.227h2.884a6.227,6.227,0,0,0,6.227-6.227V798.407a6.227,6.227,0,0,0-6.227-6.227Z" transform="translate(-578.16 -792.18)"/>
        </g>
        <g id="Group_746" data-name="Group 746" transform="translate(63.306)">
          <path id="Path_515" data-name="Path 515" d="M638.878,832.182a10.756,10.756,0,0,1-7.559-2.68,11.2,11.2,0,0,1-3.569-8.355,10.947,10.947,0,0,1,3.242-7.875,10.4,10.4,0,0,1,7.886-3,10.568,10.568,0,0,1,6.614,2.072,3.114,3.114,0,0,1,.932,3.833l-1.1,2.29a3.113,3.113,0,0,1-4.628,1.177,2.712,2.712,0,0,0-1.66-.465,1.679,1.679,0,0,0-1.877,1.81c0,1.525.764,2.266,2.335,2.266a5.371,5.371,0,0,0,2.189-.5,3.115,3.115,0,0,1,4.176,2.239l.527,2.428a3.116,3.116,0,0,1-1.759,3.5,12.33,12.33,0,0,1-2.614.927l-.042.01A14.532,14.532,0,0,1,638.878,832.182Z" transform="translate(-624.635 -807.157)" fill="#fff"/>
          <path id="Path_516" data-name="Path 516" d="M622.143,796.657a7.487,7.487,0,0,1,4.739,1.442l-1.1,2.29a5.8,5.8,0,0,0-3.481-1.053,4.781,4.781,0,0,0-4.992,4.923,5.09,5.09,0,0,0,5.449,5.381,8.441,8.441,0,0,0,3.321-.709l.527,2.428a9.36,9.36,0,0,1-2.038.733,11.313,11.313,0,0,1-2.428.251,7.609,7.609,0,0,1-5.472-1.877,8.163,8.163,0,0,1-2.542-6.045,7.826,7.826,0,0,1,2.313-5.656,7.4,7.4,0,0,1,5.7-2.107m0-6.227a13.639,13.639,0,0,0-10.072,3.9A14.035,14.035,0,0,0,607.9,804.42a14.312,14.312,0,0,0,4.6,10.668,13.731,13.731,0,0,0,9.643,3.481,17.668,17.668,0,0,0,3.759-.4l.085-.019a15.451,15.451,0,0,0,3.19-1.124,6.226,6.226,0,0,0,3.518-6.994l-.527-2.428a6.231,6.231,0,0,0-1.707-3.107,6.284,6.284,0,0,0,.938-1.417l1.1-2.29a6.226,6.226,0,0,0-1.864-7.666,13.737,13.737,0,0,0-8.488-2.7Z" transform="translate(-607.9 -790.43)"/>
        </g>
        <g id="Group_747" data-name="Group 747" transform="translate(75.856 0.275)">
          <path id="Path_517" data-name="Path 517" d="M721.329,833.351a3.111,3.111,0,0,1-2.966-2.167l-.5-1.565h-.536l-.529,1.6a3.114,3.114,0,0,1-2.957,2.134H710.82a3.114,3.114,0,0,1-2.928-4.174l5.472-15.112a3.114,3.114,0,0,1,2.928-2.054h2.588a3.115,3.115,0,0,1,2.928,2.054l5.472,15.112a3.114,3.114,0,0,1-2.929,4.174Z" transform="translate(-704.593 -808.898)" fill="#fff"/>
          <path id="Path_518" data-name="Path 518" d="M702.158,798.407l5.472,15.112h-3.022l-1.191-3.732h-5.061l-1.237,3.732H694.1l5.472-15.112h2.59m-3.023,8.929h3.5l-1.762-5.472-1.74,5.472m3.023-15.156H699.57a6.225,6.225,0,0,0-5.855,4.107L688.243,811.4a6.228,6.228,0,0,0,5.855,8.349h3.023a6.228,6.228,0,0,0,3.744-1.251,6.225,6.225,0,0,0,3.745,1.251h3.022a6.228,6.228,0,0,0,5.855-8.349l-5.472-15.112a6.231,6.231,0,0,0-5.856-4.107Z" transform="translate(-687.871 -792.18)"/>
        </g>
      </g>
      <g id="Group_749" data-name="Group 749" transform="translate(8.184 6.225)">
        <path id="Path_519" data-name="Path 519" d="M258.118,843.5a6.4,6.4,0,0,1-3.251,1.991,3.672,3.672,0,0,0,.847,1.191,10.068,10.068,0,0,0,1.076.938,11.835,11.835,0,0,0,1.809,1.031l-2.45,2.175a24.825,24.825,0,0,1-2.724-2.313c-.48-.48-.916-.916-1.282-1.328a10.67,10.67,0,0,1-1.168-1.557,5.89,5.89,0,0,1-1.877-.3,7.667,7.667,0,0,1-4.9-7.4c0-4.67,3.252-7.831,8.036-7.831,4.763,0,8.014,3.159,8.014,7.831A7.937,7.937,0,0,1,258.118,843.5Zm-5.885-10.9a5.351,5.351,0,1,0,4.946,5.335A5.042,5.042,0,0,0,252.233,832.6Z" transform="translate(-244.2 -830.1)" fill="#fff"/>
        <path id="Path_520" data-name="Path 520" d="M367.27,846.17a8.85,8.85,0,0,1-8.54,0c-1.557-1.077-2.06-2.335-2.06-5.106v-9.2h2.862v9.364c0,2.244,1.167,3.366,3.572,3.366a3.022,3.022,0,0,0,3.366-3.366V831.86h2.884v9.2C369.355,843.835,368.851,845.072,367.27,846.17Z" transform="translate(-339.02 -831.584)" fill="#fff"/>
        <path id="Path_521" data-name="Path 521" d="M455.88,846.972V831.86h2.884v15.112Z" transform="translate(-422.661 -831.584)" fill="#fff"/>
        <path id="Path_522" data-name="Path 522" d="M508.961,846.972V835.89a6.947,6.947,0,0,1-.573,2.153l-3.457,8.93h-2.588l-3.161-8.769a10.945,10.945,0,0,1-.573-2.4v11.173H496V831.86h3.457l4.03,10.784a3.951,3.951,0,0,1,.3,1.167,3.758,3.758,0,0,1,.275-1.167l4.19-10.784h3.457v15.112Z" transform="translate(-456.485 -831.584)" fill="#fff"/>
        <path id="Path_523" data-name="Path 523" d="M617.83,846.972V831.86h2.884v15.112Z" transform="translate(-559.197 -831.584)" fill="#fff"/>
        <path id="Path_524" data-name="Path 524" d="M659.237,833.85a5.8,5.8,0,0,0-3.481-1.053,4.781,4.781,0,0,0-4.992,4.923,5.09,5.09,0,0,0,5.449,5.381,8.441,8.441,0,0,0,3.321-.709l.527,2.428a9.349,9.349,0,0,1-2.039.733,11.3,11.3,0,0,1-2.427.251,7.608,7.608,0,0,1-5.472-1.877,8.162,8.162,0,0,1-2.542-6.045,7.825,7.825,0,0,1,2.313-5.656,7.4,7.4,0,0,1,5.7-2.106,7.486,7.486,0,0,1,4.739,1.442Z" transform="translate(-584.278 -830.117)" fill="#fff"/>
        <path id="Path_525" data-name="Path 525" d="M738.051,846.972l-1.191-3.732H731.8l-1.237,3.732H727.54l5.472-15.112H735.6l5.472,15.112Zm-3.732-11.655-1.74,5.472h3.5Z" transform="translate(-651.69 -831.584)" fill="#fff"/>
      </g>
      <g id="Group_751" data-name="Group 751" transform="translate(0 15.886)">
        <g id="Group_750" data-name="Group 750" clip-path="url(#clip-path)">
          <path id="Path_526" data-name="Path 526" d="M258.118,843.5a6.4,6.4,0,0,1-3.251,1.991,3.672,3.672,0,0,0,.847,1.191,10.068,10.068,0,0,0,1.076.938,11.835,11.835,0,0,0,1.809,1.031l-2.45,2.175a24.825,24.825,0,0,1-2.724-2.313c-.48-.48-.916-.916-1.282-1.328a10.67,10.67,0,0,1-1.168-1.557,5.89,5.89,0,0,1-1.877-.3,7.667,7.667,0,0,1-4.9-7.4c0-4.67,3.252-7.831,8.036-7.831,4.763,0,8.014,3.159,8.014,7.831A7.937,7.937,0,0,1,258.118,843.5Zm-5.885-10.9a5.351,5.351,0,1,0,4.946,5.335A5.042,5.042,0,0,0,252.233,832.6Z" transform="translate(-236.016 -839.761)" fill="#dcdcdc"/>
          <path id="Path_527" data-name="Path 527" d="M367.27,846.17a8.85,8.85,0,0,1-8.54,0c-1.557-1.077-2.06-2.335-2.06-5.106v-9.2h2.862v9.364c0,2.244,1.167,3.366,3.572,3.366a3.022,3.022,0,0,0,3.366-3.366V831.86h2.884v9.2C369.355,843.835,368.851,845.072,367.27,846.17Z" transform="translate(-330.837 -841.244)" fill="#dcdcdc"/>
          <path id="Path_528" data-name="Path 528" d="M455.88,846.972V831.86h2.884v15.112Z" transform="translate(-414.478 -841.244)" fill="#dcdcdc"/>
          <path id="Path_529" data-name="Path 529" d="M508.961,846.972V835.89a6.947,6.947,0,0,1-.573,2.153l-3.457,8.93h-2.588l-3.161-8.769a10.945,10.945,0,0,1-.573-2.4v11.173H496V831.86h3.457l4.03,10.784a3.951,3.951,0,0,1,.3,1.167,3.758,3.758,0,0,1,.275-1.167l4.19-10.784h3.457v15.112Z" transform="translate(-448.302 -841.244)" fill="#dcdcdc"/>
          <path id="Path_530" data-name="Path 530" d="M617.83,846.972V831.86h2.884v15.112Z" transform="translate(-551.013 -841.244)" fill="#dcdcdc"/>
          <path id="Path_531" data-name="Path 531" d="M659.237,833.85a5.8,5.8,0,0,0-3.481-1.053,4.781,4.781,0,0,0-4.992,4.923,5.09,5.09,0,0,0,5.449,5.381,8.441,8.441,0,0,0,3.321-.709l.527,2.428a9.349,9.349,0,0,1-2.039.733,11.3,11.3,0,0,1-2.427.251,7.608,7.608,0,0,1-5.472-1.877,8.162,8.162,0,0,1-2.542-6.045,7.825,7.825,0,0,1,2.313-5.656,7.4,7.4,0,0,1,5.7-2.106,7.486,7.486,0,0,1,4.739,1.442Z" transform="translate(-576.095 -839.777)" fill="#dcdcdc"/>
          <path id="Path_532" data-name="Path 532" d="M738.051,846.972l-1.191-3.732H731.8l-1.237,3.732H727.54l5.472-15.112H735.6l5.472,15.112Zm-3.732-11.655-1.74,5.472h3.5Z" transform="translate(-643.507 -841.244)" fill="#dcdcdc"/>
        </g>
      </g>
      <g id="Group_759" data-name="Group 759" transform="translate(8.181 6.227)">
        <g id="Group_752" data-name="Group 752">
          <path id="Path_533" data-name="Path 533" d="M252.216,831a7.215,7.215,0,0,1,5.172,1.911,6.827,6.827,0,0,1,1.952,5.029,7,7,0,0,1-1.889,4.956,5.562,5.562,0,0,1-2.888,1.758l-.968.326.457.913a4.514,4.514,0,0,0,1.014,1.422,11.053,11.053,0,0,0,1.171,1.022l.008.006.008.006a8.665,8.665,0,0,0,.772.5l-.935.831a21.28,21.28,0,0,1-2.06-1.791c-.48-.48-.895-.895-1.24-1.284a9.755,9.755,0,0,1-1.088-1.451l-.248-.384-.457-.022a5.057,5.057,0,0,1-1.635-.251,6.015,6.015,0,0,1-3.084-2.437,7.418,7.418,0,0,1-1.212-4.116,6.818,6.818,0,0,1,1.955-5.029,7.265,7.265,0,0,1,5.194-1.91m0,13.166a6.237,6.237,0,1,0-5.858-6.225,5.906,5.906,0,0,0,5.858,6.225m0-14.056c-4.785,0-8.036,3.159-8.036,7.831a7.669,7.669,0,0,0,4.9,7.4,5.9,5.9,0,0,0,1.877.3,10.67,10.67,0,0,0,1.168,1.557c.366.413.8.847,1.282,1.328a25.011,25.011,0,0,0,2.724,2.313l2.45-2.175a11.808,11.808,0,0,1-1.809-1.031,10.233,10.233,0,0,1-1.076-.939,3.636,3.636,0,0,1-.847-1.191,6.413,6.413,0,0,0,3.251-1.991,7.92,7.92,0,0,0,2.13-5.565c0-4.67-3.248-7.831-8.011-7.831Zm0,13.166a5.351,5.351,0,1,1,4.946-5.336,5.029,5.029,0,0,1-4.946,5.336Z" transform="translate(-244.18 -830.11)" fill="#fff"/>
        </g>
        <g id="Group_753" data-name="Group 753" transform="translate(17.653 0.275)">
          <path id="Path_534" data-name="Path 534" d="M368.465,832.75v8.314c0,2.73-.526,3.558-1.7,4.374a6.233,6.233,0,0,1-3.755.943,6.158,6.158,0,0,1-3.776-.942c-1.16-.8-1.678-1.622-1.678-4.374v-8.314h1.083v8.476c0,2.745,1.585,4.256,4.461,4.256a3.911,3.911,0,0,0,4.256-4.256v-8.476h1.106m.89-.891H366.47v9.364a3.022,3.022,0,0,1-3.366,3.366c-2.4,0-3.572-1.122-3.572-3.366V831.86H356.67v9.2c0,2.77.5,4.03,2.06,5.106a8.85,8.85,0,0,0,8.54,0c1.58-1.1,2.084-2.335,2.084-5.106v-9.2Z" transform="translate(-356.67 -831.86)" fill="#fff"/>
        </g>
        <g id="Group_754" data-name="Group 754" transform="translate(33.223 0.275)">
          <path id="Path_535" data-name="Path 535" d="M457.885,832.75v13.333h-1.106V832.75h1.106m.89-.89H455.89v15.112h2.884V831.86Z" transform="translate(-455.89 -831.86)" fill="#fff"/>
        </g>
        <g id="Group_755" data-name="Group 755" transform="translate(39.518 0.275)">
          <path id="Path_536" data-name="Path 536" d="M510.819,832.75v13.333h-.968V835.89l-1.77-.128c-.013.091-.025.172-.036.248a5.938,5.938,0,0,1-.486,1.712l-3.134,8.1.245-1.891a2.925,2.925,0,0,1,.2-.9l.022-.06,3.967-10.213h1.96m-11.978,0,3.812,10.2.028.078a2.963,2.963,0,0,1,.22.888l.259,2.164h-.193l-2.95-8.187a8.317,8.317,0,0,1-.46-1.85c-.022-.122-.046-.256-.072-.4l-1.765.157v10.284h-.83V832.75h1.952m12.868-.89h-3.457l-4.19,10.784a3.722,3.722,0,0,0-.275,1.167,3.957,3.957,0,0,0-.3-1.167l-4.03-10.784H496v15.112h2.61V835.8a10.862,10.862,0,0,0,.573,2.4l3.161,8.769h2.588l3.457-8.93a6.986,6.986,0,0,0,.573-2.153v11.083h2.748V831.86Z" transform="translate(-496 -831.86)" fill="#fff"/>
        </g>
        <g id="Group_756" data-name="Group 756" transform="translate(58.638 0.275)">
          <path id="Path_537" data-name="Path 537" d="M619.835,832.75v13.333h-1.106V832.75h1.106m.89-.89H617.84v15.112h2.884V831.86Z" transform="translate(-617.84 -831.86)" fill="#fff"/>
        </g>
        <g id="Group_757" data-name="Group 757" transform="translate(63.306)">
          <path id="Path_538" data-name="Path 538" d="M655.6,831a6.934,6.934,0,0,1,3.6.863l-.343.717a6.953,6.953,0,0,0-3.1-.679,5.656,5.656,0,0,0-5.882,5.813,5.969,5.969,0,0,0,6.338,6.271,8.312,8.312,0,0,0,2.665-.422l.157.726a6.7,6.7,0,0,1-1.21.388,10.317,10.317,0,0,1-2.231.229,6.764,6.764,0,0,1-4.877-1.649,7.291,7.291,0,0,1-2.247-5.383,6.967,6.967,0,0,1,2.048-5.021A6.536,6.536,0,0,1,655.6,831m0-.89a7.4,7.4,0,0,0-5.7,2.106,7.831,7.831,0,0,0-2.313,5.656,8.156,8.156,0,0,0,2.542,6.045,7.611,7.611,0,0,0,5.472,1.877,11.309,11.309,0,0,0,2.428-.251,9.335,9.335,0,0,0,2.038-.733l-.527-2.428a8.412,8.412,0,0,1-3.321.709,5.09,5.09,0,0,1-5.448-5.381,4.781,4.781,0,0,1,4.992-4.923,5.808,5.808,0,0,1,3.481,1.053l1.1-2.29a7.5,7.5,0,0,0-4.741-1.441Z" transform="translate(-647.59 -830.11)" fill="#fff"/>
        </g>
        <g id="Group_758" data-name="Group 758" transform="translate(75.854 0.275)">
          <path id="Path_539" data-name="Path 539" d="M734.985,832.75l4.829,13.333h-1.1l-.993-3.114-.2-.62h-6.352l-.2.611-1.034,3.123h-1.111l4.828-13.333h.564l-.732,2.3-1.74,5.472-.369,1.16h5.94l-.375-1.163-1.762-5.472-.739-2.294h.552m.624-.89h-2.587l-5.472,15.112h3.023l1.237-3.732h5.061l1.191,3.732h3.022L735.61,831.86Zm-3.022,8.929,1.74-5.472,1.762,5.472Z" transform="translate(-727.55 -831.86)" fill="#fff"/>
        </g>
      </g>
    </g>
    <g id="Group_775" data-name="Group 775" transform="translate(3199.908 5869.813)">
      <rect id="Rectangle_150" data-name="Rectangle 150" width="124.317" height="15.122" transform="translate(13.587 24.023)"/>
      <rect id="Rectangle_151" data-name="Rectangle 151" width="27.439" height="24.54" transform="translate(31.15 3.292)" fill="#fff"/>
      <g id="Group_761" data-name="Group 761" transform="translate(32.591 6.436)">
        <path id="Path_540" data-name="Path 540" d="M285.594,622.619v14.419c0,3.539-.89,6-2.718,7.536-1.728,1.447-4.355,2.15-8.028,2.15-3.7,0-6.326-.7-8.043-2.136-1.819-1.522-2.7-3.992-2.7-7.55V622.619h4.805v14.3a7.3,7.3,0,0,0,1.56,5.062,5.8,5.8,0,0,0,4.545,1.777,5.291,5.291,0,0,0,4.245-1.834,7.6,7.6,0,0,0,1.492-5v-14.3h4.846m1.778-1.779h-8.405v16.076c0,3.549-1.55,5.059-3.958,5.059-2.815,0-4.325-1.469-4.325-5.059V620.84H262.32v16.2c0,8.487,4.733,11.465,12.526,11.465,7.752,0,12.526-3.019,12.526-11.465v-16.2Z" transform="translate(-262.32 -620.84)" fill="#fff"/>
      </g>
      <g id="Group_762" data-name="Group 762" transform="translate(26.808 0.653)">
        <path id="Path_541" data-name="Path 541" d="M259.318,635.864c-4.836,0-8.449-1.055-11.041-3.223-2.9-2.431-4.377-6.175-4.377-11.133v-16.2a2.89,2.89,0,0,1,2.892-2.891h8.364a2.892,2.892,0,0,1,2.892,2.891v16.076c0,1.491.333,1.906.37,1.949a1.683,1.683,0,0,0,1.062.218c.24,0,.552-.028.665-.165a3.259,3.259,0,0,0,.4-2V605.311a2.89,2.89,0,0,1,2.892-2.891h8.4a2.892,2.892,0,0,1,2.892,2.891v16.2c0,4.937-1.477,8.677-4.391,11.117C267.74,634.805,264.133,635.864,259.318,635.864Z" transform="translate(-241.008 -599.528)" fill="#fff"/>
        <path id="Path_542" data-name="Path 542" d="M256.3,589.773v16.2c0,8.446-4.774,11.465-12.526,11.465-7.793,0-12.526-2.979-12.526-11.465v-16.2h8.364v16.076c0,3.591,1.51,5.059,4.325,5.059,2.407,0,3.958-1.51,3.958-5.059V589.773H256.3m0-5.783H247.9a5.762,5.762,0,0,0-4.141,1.747,5.762,5.762,0,0,0-4.141-1.747h-8.364a5.783,5.783,0,0,0-5.783,5.783v16.2c0,5.853,1.82,10.345,5.412,13.35,3.134,2.622,7.352,3.9,12.9,3.9,5.522,0,9.736-1.28,12.882-3.914,3.6-3.015,5.427-7.5,5.427-13.334v-16.2a5.781,5.781,0,0,0-5.783-5.783ZM242.06,606.548Z" transform="translate(-225.47 -583.99)"/>
      </g>
      <g id="Group_763" data-name="Group 763" transform="translate(3.022 0.653)">
        <path id="Path_543" data-name="Path 543" d="M95.212,635.13a2.891,2.891,0,0,1-2.892-2.891V605.311a2.891,2.891,0,0,1,2.892-2.891h11.261c8.352,0,13.54,4.642,13.54,12.112,0,5.475-2.545,8.482-4.68,10.042a15.8,15.8,0,0,1-8.826,2.71v4.956a2.891,2.891,0,0,1-2.892,2.891Z" transform="translate(-89.429 -599.528)" fill="#fff"/>
        <path id="Path_544" data-name="Path 544" d="M90.944,589.773c5.753,0,10.649,2.611,10.649,9.221,0,7.385-5.508,9.874-11.424,9.874a9.061,9.061,0,0,1-2.081-.245V616.7H79.683V589.773H90.944m-1.077,13.345c1.62,0,3.157-1.31,3.157-4.043,0-2.57-1.632-3.345-3.387-3.345h-1.55v7.3c.408,0,1.632.082,1.632.082.049,0,.1,0,.148,0m1.077-19.128H79.683a5.783,5.783,0,0,0-5.783,5.783V616.7a5.783,5.783,0,0,0,5.783,5.783h8.405a5.783,5.783,0,0,0,5.783-5.783v-2.327a17.372,17.372,0,0,0,7.639-3,13.769,13.769,0,0,0,4.347-5.221,16.44,16.44,0,0,0,1.521-7.156,15.659,15.659,0,0,0-1.4-6.677,13.327,13.327,0,0,0-4.049-5.012,17.94,17.94,0,0,0-10.987-3.314Z" transform="translate(-73.9 -583.99)"/>
      </g>
      <g id="Group_764" data-name="Group 764" transform="translate(56.552 0.651)">
        <path id="Path_545" data-name="Path 545" d="M459.832,635.138a2.891,2.891,0,0,1-2.884-2.682l-.349.869a2.891,2.891,0,0,1-2.683,1.814h-4.325a2.894,2.894,0,0,1-2.7-1.857l-.078-.2a2.893,2.893,0,0,1-2.77,2.062h-7.711a2.89,2.89,0,0,1-2.891-2.891V605.322a2.89,2.89,0,0,1,2.891-2.891h9.1a2.893,2.893,0,0,1,2.663,1.764l3.8,8.981,3.989-9.023a2.893,2.893,0,0,1,2.644-1.723h9.058a2.89,2.89,0,0,1,2.891,2.891v26.929a2.89,2.89,0,0,1-2.891,2.891h-7.752Z" transform="translate(-430.548 -599.535)" fill="#fff"/>
        <path id="Path_546" data-name="Path 546" d="M452.047,589.764v26.929h-7.752V601.964l-5.916,14.729h-4.325L428.5,602.209v14.484h-7.711V589.764h9.1L436.3,604.9l6.691-15.137h9.058m0-5.783h-9.058a5.781,5.781,0,0,0-5.288,3.445l-1.287,2.909-1.2-2.826a5.783,5.783,0,0,0-5.326-3.529h-9.1a5.783,5.783,0,0,0-5.783,5.783v26.929a5.783,5.783,0,0,0,5.783,5.783H428.5a5.771,5.771,0,0,0,2.776-.708,5.775,5.775,0,0,0,2.773.708h4.325a5.774,5.774,0,0,0,2.956-.813,5.757,5.757,0,0,0,2.958.813h7.752a5.783,5.783,0,0,0,5.783-5.783V589.763a5.781,5.781,0,0,0-5.781-5.781Z" transform="translate(-415.01 -583.98)"/>
      </g>
      <g id="Group_765" data-name="Group 765" transform="translate(89.928 0.653)">
        <path id="Path_547" data-name="Path 547" d="M668.459,635.113a2.892,2.892,0,0,1-2.737-1.958l-1.169-3.427h-3.209l-1.266,3.482a2.893,2.893,0,0,1-2.718,1.9H649a2.892,2.892,0,0,1-2.693-3.945l10.526-26.929a2.891,2.891,0,0,1,2.693-1.839H666.7a2.891,2.891,0,0,1,2.693,1.839l10.527,26.929a2.892,2.892,0,0,1-2.693,3.945Z" transform="translate(-643.214 -599.511)" fill="#fff"/>
        <path id="Path_548" data-name="Path 548" d="M651.182,589.773,661.709,616.7h-8.772l-1.836-5.386h-7.3l-1.958,5.386h-8.364L644,589.773h7.181m-5.876,16.973h4.284l-1.958-7.1-2.326,7.1m5.876-22.756H644a5.783,5.783,0,0,0-5.386,3.677L628.089,614.6a5.783,5.783,0,0,0,5.386,7.889h8.364a5.78,5.78,0,0,0,5.434-3.807l.118-.322.072.212a5.782,5.782,0,0,0,5.474,3.917h8.772a5.783,5.783,0,0,0,5.386-7.889l-10.527-26.929a5.781,5.781,0,0,0-5.386-3.677Z" transform="translate(-627.692 -583.99)"/>
      </g>
      <g id="Group_766" data-name="Group 766" transform="translate(117.14)">
        <path id="Path_549" data-name="Path 549" d="M834.1,632.357c-6.793,0-9.75-1.8-13.174-3.89a2.892,2.892,0,0,1-1.087-3.749l3.182-6.447a2.891,2.891,0,0,1,1.6-1.434,9.2,9.2,0,0,1-3.813-7.486c0-7.62,7.442-11.091,14.355-11.091a23.406,23.406,0,0,1,12.2,2.883,2.893,2.893,0,0,1,1.306,3.82l-3.1,6.528a2.894,2.894,0,0,1-1.69,1.5,10.41,10.41,0,0,1,4.212,8.3,10.615,10.615,0,0,1-3.991,8.083C841.608,631.355,838.245,632.357,834.1,632.357Z" transform="translate(-816.642 -595.368)" fill="#fff"/>
        <path id="Path_550" data-name="Path 550" d="M819.612,585.613a20.605,20.605,0,0,1,10.894,2.57l-3.1,6.528a14.839,14.839,0,0,0-7.915-2.407c-1.51,0-2.326.775-2.326,1.673,0,1.305,4.08,3.182,6.528,4.121,3.3,1.265,6.079,4.325,5.957,7.548-.163,4.774-3.876,8.283-11.1,8.283-5.875,0-8.323-1.428-11.669-3.468l3.182-6.446c2.938,2.04,5.59,3.019,8.16,3.019,1.306,0,2.693-.531,2.693-1.632,0-2.244-6-3.917-7.426-4.692-3.427-1.836-5.345-3.795-5.345-6.9,0-6.038,6.528-8.2,11.465-8.2m0-5.783a21.568,21.568,0,0,0-10.47,2.608,13.785,13.785,0,0,0-4.734,4.379,12.543,12.543,0,0,0-2.043,7,11.666,11.666,0,0,0,2.6,7.47c-.03.057-.06.113-.088.169L801.7,607.9a5.784,5.784,0,0,0,2.175,7.5,30.186,30.186,0,0,0,6,3.026,25.892,25.892,0,0,0,8.678,1.288c4.752,0,8.832-1.248,11.8-3.609a13.472,13.472,0,0,0,5.08-10.252,12.552,12.552,0,0,0-2.964-8.334c.058-.105.113-.212.165-.322l3.1-6.528a5.781,5.781,0,0,0-2.61-7.639,26.2,26.2,0,0,0-13.507-3.2Z" transform="translate(-801.097 -579.83)"/>
      </g>
      <g id="Group_767" data-name="Group 767" transform="translate(32.591 6.436)">
        <path id="Path_551" data-name="Path 551" d="M279.636,652.394c-8.047,0-11.636-3.261-11.636-10.576V626.51h6.585V641.7c0,3.947,1.754,5.949,5.215,5.949,1.811,0,4.847-.772,4.847-5.949V626.51h6.626v15.308C291.272,649.131,287.683,652.394,279.636,652.394Z" transform="translate(-267.109 -625.62)" fill="#fff"/>
        <path id="Path_552" data-name="Path 552" d="M285.594,622.619v14.419c0,3.539-.89,6-2.718,7.536-1.728,1.447-4.355,2.15-8.028,2.15-3.7,0-6.326-.7-8.043-2.136-1.819-1.522-2.7-3.992-2.7-7.55V622.619h4.805v14.3a7.3,7.3,0,0,0,1.56,5.062,5.8,5.8,0,0,0,4.545,1.777,5.291,5.291,0,0,0,4.245-1.834,7.6,7.6,0,0,0,1.492-5v-14.3h4.846m1.778-1.779h-8.405v16.076c0,3.549-1.55,5.059-3.958,5.059-2.815,0-4.325-1.469-4.325-5.059V620.84H262.32v16.2c0,8.487,4.733,11.465,12.526,11.465,7.752,0,12.526-3.019,12.526-11.465v-16.2Z" transform="translate(-262.32 -620.84)" fill="#fff"/>
      </g>
      <g id="Group_769" data-name="Group 769" transform="translate(0 18.922)">
        <g id="Group_768" data-name="Group 768" clip-path="url(#clip-path-2)">
          <path id="Path_553" data-name="Path 553" d="M274.856,648.5c-7.793,0-12.526-2.979-12.526-11.465v-16.2h8.364v16.076c0,3.59,1.51,5.059,4.325,5.059,2.407,0,3.958-1.51,3.958-5.059V620.84h8.405v16.2C287.38,645.484,282.608,648.5,274.856,648.5Z" transform="translate(-229.738 -633.327)" fill="#c4c5c7"/>
          <path id="Path_554" data-name="Path 554" d="M121.236,639.935a9.055,9.055,0,0,1-2.081-.245v8.079H110.75V620.84h11.261c5.753,0,10.649,2.611,10.649,9.221C132.66,637.446,127.152,639.935,121.236,639.935Zm-.53-13.138h-1.55v7.3c.408,0,1.632.082,1.632.082,1.673.082,3.3-1.224,3.3-4.039C124.092,627.572,122.46,626.8,120.706,626.8Z" transform="translate(-101.945 -633.327)" fill="#c4c5c7"/>
          <path id="Path_555" data-name="Path 555" d="M475.362,647.769V633.039l-5.916,14.729H465.12l-5.549-14.485v14.485H451.86V620.84h9.1l6.406,15.137,6.691-15.137h9.058v26.929Z" transform="translate(-389.525 -633.327)" fill="#c4c5c7"/>
          <path id="Path_556" data-name="Path 556" d="M684,647.769l-1.836-5.386h-7.3l-1.958,5.386H664.54l10.527-26.929h7.181l10.527,26.929Zm-5.3-17.055-2.326,7.1h4.284Z" transform="translate(-568.83 -633.327)" fill="#c4c5c7"/>
          <path id="Path_557" data-name="Path 557" d="M858.483,625.779a14.836,14.836,0,0,0-7.915-2.407c-1.51,0-2.326.775-2.326,1.673,0,1.306,4.08,3.182,6.528,4.121,3.3,1.265,6.08,4.325,5.957,7.548-.163,4.774-3.876,8.282-11.1,8.282-5.875,0-8.323-1.428-11.669-3.468l3.183-6.446c2.937,2.04,5.59,3.019,8.16,3.019,1.306,0,2.693-.531,2.693-1.632,0-2.244-6-3.917-7.426-4.692-3.427-1.836-5.345-3.794-5.345-6.9,0-6.038,6.528-8.2,11.465-8.2a20.607,20.607,0,0,1,10.894,2.571Z" transform="translate(-715.035 -629.819)" fill="#c4c5c7"/>
        </g>
      </g>
      <g id="Group_770" data-name="Group 770" transform="translate(32.591 6.436)">
        <path id="Path_558" data-name="Path 558" d="M285.594,622.619v14.419c0,3.539-.89,6-2.718,7.536-1.728,1.447-4.355,2.15-8.028,2.15-3.7,0-6.326-.7-8.043-2.136-1.819-1.522-2.7-3.992-2.7-7.55V622.619h4.805v14.3a7.3,7.3,0,0,0,1.56,5.062,5.8,5.8,0,0,0,4.545,1.777,5.291,5.291,0,0,0,4.245-1.834,7.6,7.6,0,0,0,1.492-5v-14.3h4.846m1.778-1.779h-8.405v16.076c0,3.549-1.55,5.059-3.958,5.059-2.815,0-4.325-1.469-4.325-5.059V620.84H262.32v16.2c0,8.487,4.733,11.465,12.526,11.465,7.752,0,12.526-3.019,12.526-11.465v-16.2Z" transform="translate(-262.32 -620.84)" fill="#fff"/>
      </g>
      <g id="Group_771" data-name="Group 771" transform="translate(8.805 6.436)">
        <path id="Path_559" data-name="Path 559" d="M122.011,622.619a10.544,10.544,0,0,1,6.4,1.769,6.708,6.708,0,0,1,2.465,5.673c0,2.861-.9,4.912-2.763,6.269a11.672,11.672,0,0,1-6.881,1.825,7.268,7.268,0,0,1-1.673-.2l-2.188-.515v8.546H112.53v-23.37h9.482m-4.636,13.26h1.78c.24,0,1.029.045,1.514.077h.031c.078,0,.157.006.234.006a4.635,4.635,0,0,0,3.525-1.6,6.277,6.277,0,0,0,1.412-4.22,4.774,4.774,0,0,0-5.166-5.125h-3.33V635.88m4.636-15.04H110.75v26.929h8.405V639.69a9.061,9.061,0,0,0,2.081.245c5.916,0,11.424-2.489,11.424-9.874,0-6.61-4.9-9.221-10.649-9.221Zm-1.077,13.345c-.049,0-.1,0-.147,0,0,0-1.224-.082-1.632-.082v-7.3h1.55c1.754,0,3.386.775,3.386,3.346,0,2.732-1.538,4.042-3.157,4.042Z" transform="translate(-110.75 -620.84)" fill="#fff"/>
      </g>
      <g id="Group_772" data-name="Group 772" transform="translate(62.335 6.436)">
        <path id="Path_560" data-name="Path 560" d="M481.334,622.619v23.37h-4.193V623.836l-3.431,8.54-5.467,13.614h-1.9l-5.111-13.342-3.441-8.981v22.323h-4.152v-23.37h6.141l5.946,14.051,1.6,3.788,1.663-3.761,6.222-14.077h6.119m1.78-1.781h-9.058l-6.691,15.137-6.406-15.137h-9.1v26.929h7.711V633.284l5.549,14.485h4.325l5.916-14.73v14.73h7.752V620.84Z" transform="translate(-451.86 -620.84)" fill="#fff"/>
      </g>
      <g id="Group_773" data-name="Group 773" transform="translate(95.71 6.436)">
        <path id="Path_561" data-name="Path 561" d="M681.033,622.619l9.135,23.37h-4.893l-1.425-4.18-.411-1.205h-9.822l-.425,1.171-1.533,4.215h-4.512l9.135-23.37h4.752m-7.115,16.973h9.077l-.622-2.252-1.958-7.1-1.57-5.689-1.837,5.607-2.326,7.1-.764,2.333m8.33-18.753h-7.181L664.54,647.769H672.9l1.958-5.386h7.3L684,647.769h8.772L682.248,620.84Zm-5.875,16.973,2.326-7.1,1.959,7.1Z" transform="translate(-664.54 -620.84)" fill="#fff"/>
      </g>
      <g id="Group_774" data-name="Group 774" transform="translate(122.925 5.783)">
        <path id="Path_562" data-name="Path 562" d="M850.69,618.459a18.736,18.736,0,0,1,8.529,1.623l-1.535,3.231a15.751,15.751,0,0,0-7.117-1.721c-2.694,0-4.105,1.737-4.105,3.452,0,.89.369,2.119,3.25,3.747a35.713,35.713,0,0,0,4.422,2.036c2.829,1.083,4.9,3.584,4.814,5.825a5.865,5.865,0,0,1-2.232,4.6c-1.613,1.285-4.064,1.963-7.087,1.963-4.643,0-6.854-.915-9.348-2.37l1.579-3.2a14.745,14.745,0,0,0,7.443,2.232,5.792,5.792,0,0,0,2.669-.611,3.15,3.15,0,0,0,1.8-2.8c0-2.151-2.2-3.426-2.928-3.845a30.333,30.333,0,0,0-4-1.809c-.587-.231-1.193-.469-1.433-.6l0,0,0,0c-3.657-1.958-4.407-3.546-4.407-5.326a5.286,5.286,0,0,1,2.989-4.822,13.806,13.806,0,0,1,6.7-1.6m0-1.779c-4.937,0-11.465,2.163-11.465,8.2,0,3.1,1.918,5.059,5.345,6.9,1.428.775,7.426,2.448,7.426,4.692,0,1.1-1.387,1.632-2.693,1.632-2.571,0-5.223-.979-8.161-3.019l-3.183,6.447c3.346,2.04,5.794,3.468,11.669,3.468,7.222,0,10.935-3.509,11.1-8.283.122-3.223-2.652-6.283-5.957-7.548-2.448-.938-6.528-2.815-6.528-4.121,0-.9.816-1.673,2.326-1.673a14.835,14.835,0,0,1,7.915,2.407l3.1-6.528a20.6,20.6,0,0,0-10.894-2.57Z" transform="translate(-837.96 -616.68)" fill="#fff"/>
      </g>
    </g>
    <g id="Group_776" data-name="Group 776" transform="translate(3229.395 5811.763)">
      <path id="Path_563" data-name="Path 563" d="M259.535,242.451a13.178,13.178,0,0,1,8.6-6.757,13.552,13.552,0,0,0-12.623,1.58c-.5-.287-.943-.554-1.439-.843a2.58,2.58,0,0,1-.973-.8,1.735,1.735,0,0,1-.064-1.489,5.128,5.128,0,0,1,.816-1.3,5.009,5.009,0,0,1,1.938,1.642,3.556,3.556,0,0,1,.523-3.2,7.493,7.493,0,0,1,2.388-1.99,29.976,29.976,0,0,1,5.221-2.461,6.022,6.022,0,0,1-1.5-2.024,5.9,5.9,0,0,1,.436-3.686,26.712,26.712,0,0,0-1.594,2.434,1.99,1.99,0,0,0-.262.874,4.321,4.321,0,0,1-2.338-1.958,42.4,42.4,0,0,1,7.906-5.486c1.538-.81,3.925-1.974,5.624-1.605-.92,1.257-7.244,7.454-6.023,9.758,2.636-4.378,12.272-10.533,17.4-10.9a30.717,30.717,0,0,1,14.984,2.982A2.481,2.481,0,0,0,297,218.5a2.672,2.672,0,0,0-.182,2.106,7.354,7.354,0,0,1,4.471-2.243c.438.124,3.65-2.7,11.986-4.949,8.534-2.3,11.062-2.831,19.032-3.506a13.348,13.348,0,0,1-1.987,5.165,31.1,31.1,0,0,1-13.855,12.407,40.671,40.671,0,0,1,5.394,3.088,13.614,13.614,0,0,1,4.093,4.626,31.059,31.059,0,0,1-3.951-.6,13.547,13.547,0,0,1,2.376,4.022c.26.69,1.863,4.628,3.046,8.528.835,2.746,1.463,5.474,1.268,7.035a45.208,45.208,0,0,0-1.671-5.136,14.471,14.471,0,0,0-3.095-4.243s5.067,15.107,1.912,23.578c-.913-3.771-2.137-7.33-4.683-7.842,0,0,1.561,9.5-1.508,13.039,0,0-1.51-8.308-4.805-13.273-.913-1.378,1.883,7.735-3.693,12.658A26.624,26.624,0,0,0,312,267.03c.085-3.947-.551-8.382-.734-7.642-1.172,4.717-3.162,10.15-9.2,12.54,1.9-2.707,3.512-6.919,3.179-8.019.323-1.029-2.9,3.974-5.858,5.758-2.762,1.665-7.22,2.351-8.515,1.59a16.116,16.116,0,0,0,6.073-7.09,20.127,20.127,0,0,1-3.617,2.694c-2.126,1.07-6.754,2.82-6.754,2.82s4.047-2.694,4.64-3.639c1.078-1.715.882-2.133.882-2.133a28.286,28.286,0,0,0,4.011-2.1,2.856,2.856,0,0,0,.885-1.157,42.534,42.534,0,0,0-9.166,4.127,54.347,54.347,0,0,0-5.135,3.867l-4.319,3.526c.479.314-2.426-1.587-1.948-1.273-1.985.623-2.316,1.571-4.278.876.171.534.532,2.472.985,2.8-1.552.35-1.8-.1-3.192-.882a10.044,10.044,0,0,1-3.423-3.048c-.865-1.276-1.285-1.375-1.186-2.914A38.225,38.225,0,0,1,277,268.907a10.378,10.378,0,0,0,4.429-.174c2.939-.818,4.7-4.73,6.621-7.1a20.531,20.531,0,0,0,4.113-8.091,12.1,12.1,0,0,0,.306-4.438,7.489,7.489,0,0,0-1.786-4.03c1.075.237,3.873,3.642,4.692,4.375-1.761-2.784-2.02-7.522-9.551-8.3a29.3,29.3,0,0,1,6.082,1.232,12.9,12.9,0,0,1,2.928,1.346A6.033,6.033,0,0,1,297,246.083a9.357,9.357,0,0,0-5.883-6.8,38.072,38.072,0,0,1,6.695-2.009,46.394,46.394,0,0,0-20.151,3.609,9.732,9.732,0,0,0-2.894,1.747,16.538,16.538,0,0,1,5.171-1.528c-.84,1.235-3.2,1.252-4.345,2.216a5.486,5.486,0,0,1-4.515,1.5,13.786,13.786,0,0,1-4.675-1.378c-2.283-.863-4.592-.129-6.875-.993Z" transform="translate(-251.277 -209.91)" fill="#b17f4a"/>
      <path id="Path_564" data-name="Path 564" d="M616.606,230.106a31.1,31.1,0,0,1-13.855,12.407l.311.163a7.829,7.829,0,0,0-1.642-.212,8.605,8.605,0,0,0,3.492-2.627c-3.59,1.48-8.766.874-12.432-.41,3.9-.215,7.145-2.45,10.627-4.22s2.919-2.8,6.685-5.467c3.069-2.175,7.032-1.161,8.028-2a19.029,19.029,0,0,1-1.215,2.366Z" transform="translate(-537.564 -224.942)" fill="#fff"/>
      <path id="Path_565" data-name="Path 565" d="M364.951,279.308a95.229,95.229,0,0,1-10.594.962,30.256,30.256,0,0,1-5.419-.428,7.267,7.267,0,0,0-4.21.593c-.537.245-1.188.863-2.1.5s.237-2.555.8-4.268a37.587,37.587,0,0,1-4.639,5.456c-.791.678-4.443,1.149-4.582-.025-.286,1.623,2.4,1.511,2.363,1.836s-4.449,2.6-4.009,5.2c0,0,2.877-3.639,7.214-3.454.973.042,1.072.62.563,1.271-.463.593-2.286,1.133-2.663,1.381,1.845-.261,4.45-1.193,6.313-1.193a16.236,16.236,0,0,1,2.947.388,3.9,3.9,0,0,0,2.155,0,5.271,5.271,0,0,0,2.9-2.93,3.584,3.584,0,0,1,.286,2.271c.54-1.026.516-4.063,2.856-4.179,3.641-.18,7.556-.5,7.556-.5Z" transform="translate(-318.411 -266.193)" fill="#020203"/>
      <path id="Path_566" data-name="Path 566" d="M394.248,466.777c1.254-.587,1.926-1.943,2.52-3.194s1.312-2.6,2.6-3.117a11.85,11.85,0,0,1,2.9-.378c.97-.132,2.039-.692,2.163-1.663a1.926,1.926,0,0,0-1.029-1.788,5.647,5.647,0,0,0-2.09-.584,8.739,8.739,0,0,0-4.105.063,4.454,4.454,0,0,0-2.911,3.813,2.936,2.936,0,0,1-.406-1.243,6.185,6.185,0,0,1,1.075-3.192,2.957,2.957,0,0,0-2.749,1.243,6.574,6.574,0,0,0-.819,2.809c-.141.975-.863,2.9-.8,3.883C390.769,466.328,392.979,467.371,394.248,466.777Z" transform="translate(-367.354 -416.944)" fill="#c7413c"/>
      <path id="Path_567" data-name="Path 567" d="M276.826,435.511c-1.213,1.481-.287,4.509.7,5.938-2.324-.554-4.36-3.512-5.612-5.546a16.683,16.683,0,0,0-7.405-.783c.116,1.237,1.853,4.042,2.69,4.96-2.189-.753-5.766-3.945-6.541-6.392a.47.47,0,0,1,.454-.609c.6,0,1.423.011,1.706.008a32.3,32.3,0,0,1,11.15,1.543Z" transform="translate(-257.8 -398.058)" fill="#fff"/>
      <path id="Path_568" data-name="Path 568" d="M335.359,534.944c-2.134-1.974-2.436-3.944-3.369-6.464-.565,1.18-1.273,3.109-.877,4.355a28.849,28.849,0,0,0-4.978-.323c-1.5-.01-2.418-1.772-2.988-3.154A4.825,4.825,0,0,0,324.6,534.2a21.589,21.589,0,0,1,10.407,1.375c.406.168,1.489.531,1.662.325Z" transform="translate(-310.357 -478.487)" fill="#fff"/>
      <path id="Path_569" data-name="Path 569" d="M243.168,382.94a10.6,10.6,0,0,0,2.98,2.768c1.077.767,2.153,1.769,3.23,2.536-.847.478-1.343.45-2.206.9a8.869,8.869,0,0,1-1.552.6,2.142,2.142,0,0,1-1.455-.042,1.85,1.85,0,0,1-1.216-1.2,7.824,7.824,0,0,1,.22-5.563Z" transform="translate(-242.537 -355.787)" fill="#fff"/>
      <path id="Path_570" data-name="Path 570" d="M279.674,377.174a7.869,7.869,0,0,0-7.164,1.709,5.12,5.12,0,0,0,2.3,2.527A4.041,4.041,0,0,1,276.3,378.7a3.8,3.8,0,0,1,2.9-.764c.143-.33.146-.615.474-.76Z" transform="translate(-267.806 -350.716)" fill="#992e2e"/>
      <path id="Path_571" data-name="Path 571" d="M287.776,303.61a6.655,6.655,0,0,1,3,2.219,1.191,1.191,0,0,1-1.422.662,2.024,2.024,0,0,1-1.439-1.122,3.091,3.091,0,0,1-.143-1.759Z" transform="translate(-280.629 -288.906)" fill="#fff"/>
      <path id="Path_572" data-name="Path 572" d="M392.665,311.447a16.306,16.306,0,0,0-3.656.238c-1.886.521-2.572,1.342-2.659,1.709,0,0,1.43.358,2,.559,1.525.541,3.146-.372,3.97-1.015a6.558,6.558,0,0,1,2.845-1.034S393.143,311.465,392.665,311.447Z" transform="translate(-363.782 -295.503)" fill="#fff"/>
      <path id="Path_573" data-name="Path 573" d="M299.84,215.92c.909,2.06,1.671,4.2,2.58,6.257l2.1-1.2c-1.519-1.627-3.164-3.434-4.683-5.059Z" transform="translate(-290.848 -214.977)" fill="#fff"/>
      <path id="Path_574" data-name="Path 574" d="M496.38,252.014c4.476-.4,16.17-1.364,20.49-2.6s8.923-5.55,11.9-8.913c-6.053,4.014-12.181,8.505-19.442,8.35.322-.61,2.6-1.361,2.92-1.971C512.252,246.879,498.075,249.042,496.38,252.014Z" transform="translate(-456.545 -235.7)" fill="#020203"/>
      <path id="Path_575" data-name="Path 575" d="M521.518,384.162c-.391.079-.782.173-1.172.264a.954.954,0,0,1,.194-.082c-.764-.083-1.532-.138-2.3-.179C519.329,384.133,520.423,384.13,521.518,384.162Z" transform="translate(-474.975 -356.798)" fill="none"/>
      <path id="Path_576" data-name="Path 576" d="M303.756,374.188c-.872.783.159-.3.083.872,1.059-1.7,1.039-.428,2.235-.3-.537.662,2.892.1,3.388.793,1.665,1.3,12.184-.245,20.7.214a44.809,44.809,0,0,0-16.873,3.606,9.734,9.734,0,0,0-2.894,1.747,16.539,16.539,0,0,1,5.171-1.528c-.84,1.235-1.4,1.2-2.924,2.352a8.3,8.3,0,0,1-5.472,1.63,24.138,24.138,0,0,1-6.119-.995c-2.93-1.018-3.614-.774-5.9-1.638a11.84,11.84,0,0,1,4.9-5.24A15.6,15.6,0,0,1,303.756,374.188Z" transform="translate(-286.894 -348.404)" fill="#fff"/>
      <path id="Path_577" data-name="Path 577" d="M356.731,472.51a12.517,12.517,0,0,0,2.305-1.295,5.236,5.236,0,0,0,2.246-3.865,5.562,5.562,0,0,1,.267,3.387,4.5,4.5,0,0,1-1.915,2.677,7.089,7.089,0,0,0,3.969-.135,16.136,16.136,0,0,0,4.11-3.38,11.5,11.5,0,0,1-5.27,7.594c-1.742,1.022-4.563,1.64-6.527,2.677a87.98,87.98,0,0,0-7.737,5.234c-1.152.863-4.157,3.383-4.157,3.383l2.065,1.593a20.284,20.284,0,0,1-7.718-.64s-.14,2.177.237,2.158a5.187,5.187,0,0,1-2.858-.686,17.741,17.741,0,0,1-3.31-2.547c-2.313-2.266-2.271-4.327-2.271-4.327a57.223,57.223,0,0,1,6.338-.174c2.263.24,6.263,1.331,8.421,1.605C348.978,486.288,356.731,472.51,356.731,472.51Z" transform="translate(-316.418 -426.951)" fill="#fff"/>
      <path id="Path_578" data-name="Path 578" d="M347.19,361.909l17.934-1.393s-6.07-.27-11-.3c-2.236-.013-8.3.416-8.3.416a5.134,5.134,0,0,1,1.732-1.031,18.1,18.1,0,0,1,2.748-.675s-4.356-.057-5.406,0c-.931.05-3.735.43-3.735.43l1.2-1.011a18.7,18.7,0,0,1-7.081-.179,4.607,4.607,0,0,1-2.531-2.079s-.025,1.817.356,2.236c.408.449,2.352.606,2.352.606l-2.009,2.228a10.948,10.948,0,0,1,1.717-.8,14.754,14.754,0,0,1,2.944-.378,8.485,8.485,0,0,0-1.8,1.1,10.872,10.872,0,0,0-1.139,1.412,17.653,17.653,0,0,1,4.173-1.353,25.891,25.891,0,0,1,4.848-.154,11.007,11.007,0,0,0-1.329.587,3.108,3.108,0,0,0-1.042.92Z" transform="translate(-318.583 -333.15)"/>
      <path id="Path_579" data-name="Path 579" d="M606.053,335.93a34.985,34.985,0,0,1,5.028,2.021,10.454,10.454,0,0,1,3.907,4.3,53.47,53.47,0,0,1,2.194,5.439,48.83,48.83,0,0,0-3.647-4.579,20.2,20.2,0,0,0-3.587-2.323,22.91,22.91,0,0,1,2.617,4.816c.736,2.261,1.5,6.023,1.5,6.023s-2.2-4.075-3.153-5.552c-1.607-2.487-2.972-2.412-2.972-2.412a5.923,5.923,0,0,1,1.022,2.3c.1.658.262,1.769.262,1.769a8.862,8.862,0,0,0-2.9-4.375c-1.915-1.637-2.936-1.433-2.936-1.433a7.078,7.078,0,0,1,3.043-.185c1.157.242,1.929.413,1.929.413a4.014,4.014,0,0,0-1.1-1.436,12.058,12.058,0,0,0-2.553-1.736,6.4,6.4,0,0,1,3.256-.408,4.083,4.083,0,0,1,2.319.915,3.763,3.763,0,0,0-1.295-1.8C608.416,337.245,606.053,335.93,606.053,335.93Z" transform="translate(-546.762 -316.154)" fill="#020203"/>
      <path id="Path_580" data-name="Path 580" d="M580.31,417.672a21.366,21.366,0,0,0,2.1-11.492,13.184,13.184,0,0,1,2.346,5.136,13.91,13.91,0,0,0,.73-4.667,26.06,26.06,0,0,1-1.458,19.47,60.884,60.884,0,0,0-.816-11.671,3.644,3.644,0,0,1-2.9,3.223Z" transform="translate(-527.304 -375.38)"/>
    </g>
    <path id="Path_581" data-name="Path 581" d="M368.92,447.2a4.375,4.375,0,0,0,2.785-.224,9.286,9.286,0,0,1-.571,3.283A4.641,4.641,0,0,1,368.92,447.2Z" transform="translate(2880.307 5401.986)" fill="#fff"/>
    <path id="Path_582" data-name="Path 582" d="M417.327,557.293c-.138.741-.272,1.174-.689,1.389a3.191,3.191,0,0,1-1.786-.088,9.243,9.243,0,0,1-.763-3.244A4.631,4.631,0,0,1,417.327,557.293Z" transform="translate(2842.225 5310.622)" fill="#fff"/>
    <path id="Path_583" data-name="Path 583" d="M320.689,477.069a7.979,7.979,0,0,0-2.789-9.153,3.885,3.885,0,0,1,3.564,1.742,6.957,6.957,0,0,1,1.085,4.223,17.084,17.084,0,0,1-.88,4.336,2.051,2.051,0,0,1-.979-1.147Z" transform="translate(2923.322 5384.343)" fill="#c7413c"/>
    <path id="Path_584" data-name="Path 584" d="M443.875,470.01a16.287,16.287,0,0,1-.973,4.264,15.279,15.279,0,0,1-1.667,2.773,23.982,23.982,0,0,1-2.767,3.394,10.01,10.01,0,0,1-3.749,2.487,8.224,8.224,0,0,0,2-4.394,11.665,11.665,0,0,0,4.361-3.672,30.181,30.181,0,0,0,2.792-4.852Z" transform="translate(2824.832 5382.57)" fill="#c7413c"/>
  </g>
</svg>
