<svg xmlns="http://www.w3.org/2000/svg" width="135.949" height="135.949" viewBox="0 0 135.949 135.949">
  <path id="Path_18832" data-name="Path 18832" d="M135.949,131.3a5.016,5.016,0,0,1-1.128,3.253,3.793,3.793,0,0,1-3.12,1.394,4.083,4.083,0,0,1-2.987-1.261L76.6,82.645a47.721,47.721,0,0,1-13.973,8.032,46.547,46.547,0,0,1-39.464-3.585A47.7,47.7,0,0,1,6.373,70.3a46.606,46.606,0,0,1,0-47.131A47.7,47.7,0,0,1,23.167,6.373a46.607,46.607,0,0,1,47.131,0A47.7,47.7,0,0,1,87.093,23.167a46.744,46.744,0,0,1,3.585,39.464A47.72,47.72,0,0,1,82.645,76.6q1,1,3.817,3.784t6.771,6.638q3.95,3.85,8.63,8.464t9.426,9.36q4.746,4.746,9.194,9.26t7.9,8.165q3.452,3.651,5.51,6.074T135.949,131.3ZM46.733,84.968A36.992,36.992,0,0,0,61.6,81.948,38.451,38.451,0,0,0,81.948,61.6a38.111,38.111,0,0,0,0-29.739A38.451,38.451,0,0,0,61.6,11.517a38.112,38.112,0,0,0-29.739,0A38.451,38.451,0,0,0,11.517,31.863a38.112,38.112,0,0,0,0,29.739A38.451,38.451,0,0,0,31.863,81.948,36.992,36.992,0,0,0,46.733,84.968Z" fill="#404040"/>
</svg>
