<svg id="Group_141" data-name="Group 141" xmlns="http://www.w3.org/2000/svg" width="42.648" height="48.664" viewBox="0 0 42.648 48.664">
  <path id="Path_734" data-name="Path 734" d="M149.714,72.636l-6.742,12.679-4.185-6.888h-8.361l7.039-12.7a18.01,18.01,0,0,0,12.25,6.906" transform="translate(-130.425 -36.651)" fill="#e81c1b"/>
  <path id="Path_735" data-name="Path 735" d="M202.514,78.427h-8.357l-4.186,6.888-6.747-12.679a18.02,18.02,0,0,0,12.254-6.906Z" transform="translate(-159.866 -36.651)" fill="#e81c1b"/>
  <path id="Path_736" data-name="Path 736" d="M155.876,0a18.051,18.051,0,1,0,18.05,18.05A18.052,18.052,0,0,0,155.876,0M143.489,18.05a12.387,12.387,0,1,1,12.387,12.387A12.389,12.389,0,0,1,143.489,18.05" transform="translate(-134.552)" fill="#dcdcdc"/>
  <path id="Path_737" data-name="Path 737" d="M175.4,25.187A12.387,12.387,0,1,1,163.013,12.8,12.384,12.384,0,0,1,175.4,25.187" transform="translate(-141.689 -7.137)" fill="#fec001"/>
  <path id="Path_738" data-name="Path 738" d="M175.4,25.187A12.387,12.387,0,1,1,163.013,12.8,12.384,12.384,0,0,1,175.4,25.187" transform="translate(-141.689 -7.137)" fill="#c9c9c9"/>
  <ellipse id="Ellipse_61" data-name="Ellipse 61" cx="12.387" cy="12.387" rx="12.387" ry="12.387" transform="translate(8.937 5.663)" fill="none" stroke="#9c9c9c" stroke-miterlimit="10" stroke-width="1"/>
</svg>
