<svg xmlns="http://www.w3.org/2000/svg" width="141.212" height="132.683" viewBox="0 0 141.212 132.683">
  <g id="Group_3931" data-name="Group 3931" transform="translate(-3989.604 -2268.915)">
    <path id="Path_16" data-name="Path 16" d="M233.876,365.165a7.8,7.8,0,1,1-7.635,13.6c-3.475-1.952-8.149-9.447-11.563-15.434,6.889-.2,15.722-.116,19.2,1.834m-11.108,19.788a14.893,14.893,0,1,0,14.582-25.974c-5.817-3.268-17.292-3.036-28.546-2.518l-5.877.271,2.827,5.155c5.419,9.879,11.194,19.8,17.014,23.065" transform="translate(3812.092 1912.758)" fill="#5a1024"/>
    <path id="Path_17" data-name="Path 17" d="M259.428,396.637a30.635,30.635,0,0,1-23.885-8.338,34.053,34.053,0,0,0,7.7.9,33.555,33.555,0,0,0,6.093-.56A35.04,35.04,0,0,0,266,380.443h17.9c-3.443,5.257-11.426,14.862-24.47,16.194m70.728-23.291h-66.8l-.1-.093-.094.093h-.244v.245a28.143,28.143,0,0,1-14.871,8.067c-11.7,2.16-20.644-4.177-23.107-6.173l-.036.047a23.984,23.984,0,0,0-6.529,4.977c-7.071,7.267-9.552,21.624-6.767,38.092l-.1.027c.138.478.236.958.356,1.436.167.9.338,1.794.536,2.7l.073-.016a41.363,41.363,0,0,1-1.656,22.275c-5.164,13.957-17.02,21.069-21.876,23.48l3.154,6.357c5.617-2.787,19.332-11.032,25.377-27.373a47.919,47.919,0,0,0,2.557-22.276,32.98,32.98,0,0,1,15.074,42.181c-.445,1.043-.947,2.07-1.489,3.056l6.211,3.428a40.522,40.522,0,0,0,1.805-3.7,40.123,40.123,0,0,0-21.187-52.638c-.634-.271-1.289-.5-1.936-.734-2.169-13.669-.318-25.924,4.952-31.341.085-.087.2-.2.329-.334,7.327,11.693,19.7,18.759,32.706,18.759a35.69,35.69,0,0,0,3.652-.185c20.424-2.087,30.551-20.5,31.959-23.254h38.047Z" transform="translate(3800.66 1926.738)" fill="#5a1024"/>
  </g>
</svg>
