<svg xmlns="http://www.w3.org/2000/svg" width="157.591" height="74.812" viewBox="0 0 157.591 74.812">
  <g id="Group_3927" data-name="Group 3927" transform="translate(-2830.089 -2280.453)">
    <path id="Path_74" data-name="Path 74" d="M268.975,288.261h0" transform="translate(2654.205 2004.68)" fill="#5a1024" stroke="#ffc132" stroke-linecap="round" stroke-linejoin="round" stroke-width="0"/>
    <path id="Path_76" data-name="Path 76" d="M266.7,284.416l-.013-.023" transform="translate(2655.256 2006.458)" fill="#5a1024" stroke="#ffc132" stroke-linecap="round" stroke-linejoin="round" stroke-width="0"/>
    <path id="Path_78" data-name="Path 78" d="M267.4,280.276h.055" transform="translate(2654.93 2008.352)" fill="#5a1024" stroke="#ffc132" stroke-linecap="round" stroke-linejoin="round" stroke-width="0"/>
    <path id="Path_79" data-name="Path 79" d="M277.008,300.927c.138.2.274.4.41.6" transform="translate(2650.508 1998.854)" fill="#5a1024" stroke="#ffc132" stroke-linecap="round" stroke-linejoin="round" stroke-width="0"/>
    <path id="Path_80" data-name="Path 80" d="M273.263,280.182l.222,0" transform="translate(2652.232 2008.396)" fill="#5a1024" stroke="#ffc132" stroke-linecap="round" stroke-linejoin="round" stroke-width="0"/>
    <path id="Path_81" data-name="Path 81" d="M310.146,283.825l.112.044" transform="translate(2635.27 2006.72)" fill="#5a1024" stroke="#ffc132" stroke-linecap="round" stroke-linejoin="round" stroke-width="0"/>
    <path id="Path_83" data-name="Path 83" d="M322.349,298.511c.006.03.016.061.021.091" transform="translate(2629.654 1999.965)" fill="#5a1024" stroke="#ffc132" stroke-linecap="round" stroke-linejoin="round" stroke-width="0"/>
    <path id="Path_69" data-name="Path 69" d="M280.074,301.246c.272.152.549.287.829.414l.222.1c.273.116.548.223.827.316.057.019.116.034.174.051.235.073.472.138.71.194.088.02.176.042.265.06.284.059.569.11.857.145.057.007.115.011.172.017q.389.041.78.054c.066,0,.133.006.2.007.307,0,.614,0,.922-.026h0c.051,0,.1-.011.153-.016h0c.149-.014.3-.037.445-.057.111-.015.222-.024.332-.043.084-.014.167-.028.251-.043h0c.145-.027.289-.066.434-.1s.31-.063.463-.106l.013,0a10.558,10.558,0,0,0,4.468-2.546c.223-.215.434-.443.639-.677.06-.069.117-.14.175-.211q.223-.269.428-.554c.053-.073.107-.146.159-.221.178-.261.349-.528.506-.806.119-.213.22-.432.324-.65.156-.327.294-.66.416-1l.05-.145c.044-.127.085-.254.124-.381.059-.2.116-.4.164-.606.011-.045.027-.09.037-.136.032-.143.048-.289.074-.433.035-.195.076-.388.1-.583,0-.023,0-.047,0-.07q.056-.5.066-.994t-.029-1c0-.045-.013-.091-.017-.137-.026-.283-.06-.566-.109-.848-.009-.052-.02-.1-.03-.154-.058-.308-.125-.615-.211-.92-.064-.227-.145-.446-.223-.666a10.515,10.515,0,0,0-4.793-5.708l-.034-.017c-.164-.091-.34-.18-.524-.266-.055-.026-.114-.051-.171-.077-.161-.072-.328-.142-.5-.211l-.016-.006-.112-.044-.01,0c-.232-.088-.476-.171-.726-.251-.143-.046-.3-.09-.446-.133-.109-.032-.216-.064-.326-.094-.192-.052-.391-.1-.594-.153l-.218-.053q-.353-.083-.728-.161l-.112-.023a64.886,64.886,0,0,0-10.421-1.027l-.189-.006c-.39-.012-.789-.022-1.191-.031l-.322-.006c-.37-.008-.747-.013-1.128-.017l-.374-.005c-.488,0-.983-.007-1.487-.007h-.063c-.423,0-.853,0-1.286.005h-.075l-.223,0h-.061q-.625.005-1.268.015l-.38.006c-.431.007-.867.015-1.313.025l-.091,0H266l-.139,0c-.448.011-.9.023-1.369.036l-.131,0h0l.011.019q.621,1.09,1.224,2.123l.022.038h0l.013.023h0q.616,1.055,1.212,2.051l.009.015h0l.009.016q.6,1,1.174,1.933l.005.009q.562.913,1.106,1.769l.124.194q.459.719.9,1.4c.1.158.205.312.308.466q.347.525.686,1.024l.021.031c.138.2.274.4.41.6l.029.042.248.355c.157.225.31.438.464.655.116.163.232.327.347.487l.118.161a44.382,44.382,0,0,0,4.431,5.317l.022.022.045.043c.262.256.519.5.771.718.111.1.223.194.332.286l.122.1c.052.044.1.088.155.129l0,0q.3.236.584.438l0,0c.059.042.117.081.175.12l0,0c.21.141.417.274.618.387Z" transform="translate(2656.328 2008.4)" fill="none"/>
    <path id="Path_70" data-name="Path 70" d="M333.764,323.583l0,0" transform="translate(2624.406 1988.434)" fill="#5a1024" stroke="#ffc132" stroke-linecap="round" stroke-linejoin="round" stroke-width="0"/>
    <path id="Path_71" data-name="Path 71" d="M339.183,312.013c.011-.038.024-.076.035-.115" transform="translate(2621.916 1993.808)" fill="#5a1024" stroke="#ffc132" stroke-linecap="round" stroke-linejoin="round" stroke-width="0"/>
    <path id="Path_72" data-name="Path 72" d="M290.6,317.193c.052.044.1.088.155.129" transform="translate(2644.262 1991.373)" fill="#5a1024" stroke="#ffc132" stroke-linecap="round" stroke-linejoin="round" stroke-width="0"/>
    <path id="Path_73" data-name="Path 73" d="M292.154,318.37c-.058-.039-.116-.079-.175-.12" transform="translate(2643.625 1990.887)" fill="#5a1024" stroke="#ffc132" stroke-linecap="round" stroke-linejoin="round" stroke-width="0"/>
    <path id="Path_75" data-name="Path 75" d="M305.219,321.522c-.148.02-.3.044-.446.057" transform="translate(2637.742 1989.382)" fill="#5a1024" stroke="#ffc132" stroke-linecap="round" stroke-linejoin="round" stroke-width="0"/>
    <path id="Path_77" data-name="Path 77" d="M307.117,321.177c-.145.033-.288.072-.434.1" transform="translate(2636.861 1989.54)" fill="#5a1024" stroke="#ffc132" stroke-linecap="round" stroke-linejoin="round" stroke-width="0"/>
    <path id="Path_82" data-name="Path 82" d="M333.681,323.589c-.031.044-.064.086-.1.13" transform="translate(2624.488 1988.431)" fill="#5a1024" stroke="#ffc132" stroke-linecap="round" stroke-linejoin="round" stroke-width="0"/>
    <path id="Path_84" data-name="Path 84" d="M242.125,270.668c7.257,13.23,14.974,26.5,22.525,30.74a18.591,18.591,0,0,0,14.219,1.7q.451-.127.892-.274a18.722,18.722,0,0,0,9.559-28.209q-.237-.351-.488-.69a18.66,18.66,0,0,0-5.861-5.154c-4.42-2.481-11.862-3.637-23.423-3.637-4.942,0-10.13.209-14.555.414l-5.533.254h0ZM268,293.945c-.058-.039-.116-.079-.175-.12l0,0q-.288-.2-.584-.438l0,0c-.051-.04-.1-.085-.155-.128l-.122-.1c-.109-.092-.22-.187-.332-.286-.252-.221-.509-.462-.771-.718l-.045-.043-.022-.022a44.353,44.353,0,0,1-4.431-5.317l-.118-.161c-.116-.16-.232-.324-.347-.487-.154-.217-.307-.43-.464-.655l-.248-.355-.029-.042c-.136-.2-.273-.4-.41-.6l-.021-.031q-.339-.5-.686-1.025c-.1-.154-.2-.308-.308-.466q-.446-.68-.9-1.4l-.124-.194q-.544-.858-1.106-1.769l-.005-.009q-.577-.937-1.174-1.933l-.009-.016h0l-.009-.015q-.6-1-1.212-2.051h0l-.014-.023h0l-.022-.038q-.6-1.034-1.224-2.122l-.011-.019h0l.131,0c.466-.013.921-.025,1.369-.036l.139,0h.055l.091,0c.446-.01.881-.018,1.313-.025l.38-.006q.643-.01,1.268-.015h.062l.223,0h.075c.434,0,.864-.005,1.286-.005h.063c.505,0,1,0,1.487.008l.374.005c.381,0,.758.01,1.128.017l.322.006c.4.009.8.019,1.191.031l.188.006a64.887,64.887,0,0,1,10.421,1.027l.112.023q.376.078.729.162l.218.053c.2.05.4.1.594.153.111.031.218.063.326.094.151.044.3.088.446.133.251.081.495.164.726.251l.01,0,.112.044.016.006c.175.069.342.139.5.211.057.026.115.051.171.077.184.086.36.174.524.266l.034.017a10.517,10.517,0,0,1,4.793,5.708c.077.221.159.44.222.667.086.305.153.612.211.92.01.051.022.1.03.154.049.282.083.565.109.848,0,.046.014.092.017.137q.039.5.029,1t-.066.994c0,.023,0,.046-.005.07-.023.2-.064.389-.1.583-.026.144-.042.29-.074.433-.01.046-.026.09-.037.136-.048.2-.1.405-.164.606q-.058.191-.124.381l-.05.145c-.122.337-.26.67-.416,1-.1.218-.2.438-.324.65-.157.278-.328.545-.506.806-.052.075-.106.148-.159.221q-.206.285-.428.554c-.058.07-.116.142-.175.211-.2.234-.416.462-.639.677a10.554,10.554,0,0,1-4.468,2.546l-.013,0c-.153.043-.309.071-.463.106s-.288.072-.434.1h0c-.084.016-.167.03-.251.043-.11.018-.221.028-.332.043-.148.02-.3.044-.446.057h0c-.051,0-.1.012-.153.016h0c-.307.023-.615.031-.921.027-.066,0-.133,0-.2-.006q-.391-.012-.78-.054c-.057-.007-.115-.01-.172-.017-.287-.036-.573-.086-.857-.145-.089-.018-.177-.04-.265-.06-.238-.057-.475-.121-.71-.195-.058-.018-.117-.032-.174-.051-.279-.093-.554-.2-.827-.316l-.221-.1c-.28-.128-.558-.262-.83-.414h0c-.2-.113-.408-.246-.618-.387Zm16.248-10.69c-.005-.03-.015-.06-.021-.091C284.232,283.194,284.242,283.224,284.247,283.254Z" transform="translate(2667.779 2015.313)" fill="#5a1024"/>
    <path id="Path_85" data-name="Path 85" d="M348.224,401.879l-.479-.071" transform="translate(2617.975 1952.456)" fill="#5a1024" stroke="#ffc132" stroke-linecap="round" stroke-linejoin="round" stroke-width="0"/>
    <path id="Path_86" data-name="Path 86" d="M233.155,343.059h0" transform="translate(2670.68 1979.477)" fill="#5a1024" stroke="#ffc132" stroke-linecap="round" stroke-linejoin="round" stroke-width="0"/>
    <path id="Path_87" data-name="Path 87" d="M197.389,358.782l.063-.05" transform="translate(2687.127 1972.268)" fill="#5a1024" stroke="#ffc132" stroke-linecap="round" stroke-linejoin="round" stroke-width="0"/>
    <path id="Path_88" data-name="Path 88" d="M212.289,312.32l.008,0" transform="translate(2680.273 1993.614)" fill="#5a1024" stroke="#ffc132" stroke-linecap="round" stroke-linejoin="round" stroke-width="0"/>
    <path id="Path_89" data-name="Path 89" d="M201.438,327.826l.005,0" transform="translate(2685.266 1986.482)" fill="#5a1024" stroke="#ffc132" stroke-linecap="round" stroke-linejoin="round" stroke-width="0"/>
    <path id="Path_90" data-name="Path 90" d="M158.234,341.449q.4-.272.833-.543c4.286-2.707,10.34-5.25,16.15-5.25a17.714,17.714,0,0,1,2.337.163c.166.022.338.033.5.06l.1.017.1.03.055.016c.8.245,1.6.478,2.4.7.083.023.169.051.252.073l.266.072.026.008.076.02h0c.174.047.345.09.518.136.39.1.78.208,1.166.306.2.051.4.1.6.146.362.089.725.179,1.085.264.22.051.439.1.658.147.337.076.675.154,1.011.226.247.053.493.1.739.152.307.063.614.129.92.189.282.055.563.106.845.158s.541.1.812.152c.306.055.614.105.92.157.248.042.495.086.743.126.339.055.68.106,1.021.158.217.033.432.068.649.1.386.057.776.11,1.166.163.174.024.347.05.522.073.43.057.864.111,1.3.165l.412.052q.779.094,1.573.181l.164.019c1.76.193,3.573.364,5.467.527s3.871.317,5.958.475c3.777.286,7.611.43,11.395.43a151.462,151.462,0,0,0,29.123-2.837q2.059-.4,4.106-.864l-1.472-6.216a145.07,145.07,0,0,1-31.776,3.537c-3.339,0-6.717-.124-10.056-.357-.28-.019-.562-.035-.843-.056-3.7-.282-6.854-.522-9.854-.86l-.262-.031c-.411-.047-.82-.095-1.227-.146-.433-.055-.864-.114-1.3-.173l-.178-.024a87.725,87.725,0,0,1-12.623-2.768l-.478-.139-.305-.394c-.275-.355-.542-.716-.811-1.077-.123-.166-.248-.333-.374-.5a19.266,19.266,0,0,0-1.748-2.092,55.453,55.453,0,0,0-23.812-13.932,51.91,51.91,0,0,0-52.216,14.58l4.934,4.342a45.322,45.322,0,0,1,45.463-12.581c.653.183,1.3.385,1.95.6a47.977,47.977,0,0,1,7.742,3.325c.564.3,1.125.613,1.68.939.832.489,1.613.98,2.359,1.478.16.106.316.214.473.322.688.473,1.35.952,1.98,1.445l2.83,2.213-3.556.508a33.146,33.146,0,0,0-3.655.743q-.614.16-1.23.342c-.593.176-1.187.363-1.779.569-.145.051-.289.106-.434.159a42.046,42.046,0,0,0-9.2,4.682q-.5.336-.979.686c-.947.711-1.776,1.38-2.539,2.051a36.835,36.835,0,0,0-2.995,2.938c-.533.583-1.055,1.178-1.554,1.8l-.483.6-.77-.031c-5.164-.206-10.078-.311-14.607-.311-2.124,0-4.2.023-6.182.069-16.966.393-24.525,2.317-27.379,3.334l2.476,4.5c2.848-.86,10.213-2.492,25.72-2.808.576-.012,1.161-.022,1.76-.03q1.729-.024,3.635-.024c19.707,0,56.059,2.057,117.554,11.807l.794-4.976h0c-18.162-2.88-35.128-5.248-50.787-7.093-14.446-1.7-27.779-2.961-39.9-3.76l-4.251-.28,3.458-2.49Q157.8,341.74,158.234,341.449Z" transform="translate(2733.324 1994.493)" fill="#5a1024" stroke="#5a1024" stroke-width="0.25"/>
  </g>
</svg>
