<svg xmlns="http://www.w3.org/2000/svg" width="124.192" height="141.213" viewBox="0 0 124.192 141.213">
  <g id="Group_3928" data-name="Group 3928" transform="translate(-3115.902 -2245.151)">
    <path id="Path_19" data-name="Path 19" d="M619.032,140l-.143,0a7.586,7.586,0,1,0,.38,15.168c3.876-.1,11.3-4.416,16.964-8.011-5.761-3.27-13.281-7.158-17.2-7.158m.038,22.076a14.49,14.49,0,0,1-.352-28.975c6.477-.171,16.252,5.257,25.694,10.823l4.928,2.906-4.778,3.147c-9.152,6.029-18.631,11.93-25.121,12.092-.122,0-.247.006-.371.006" transform="translate(2590.754 2112.055)" fill="#5a1024"/>
    <path id="Path_18" data-name="Path 18" d="M675.672,173.851a16,16,0,0,1-10.063,14.067,14.807,14.807,0,0,1-5.2.939,17.1,17.1,0,0,1-7.691-1.894l3.209-6.116a9.192,9.192,0,0,0,7.271.608,9.051,9.051,0,0,0,5.579-7.981,9.943,9.943,0,0,0-3.367-7.618,11.676,11.676,0,0,0-8.977-2.69,35.016,35.016,0,0,1-5.1,15.657,35.5,35.5,0,0,1-12.4,12.056c.245.232.492.463.723.695a64.806,64.806,0,0,1,18.027,33.857,66.564,66.564,0,0,1-3.917,38.339l-6.375-2.645a59.7,59.7,0,0,0,3.512-34.379,57.633,57.633,0,0,0-48.922-46.407,59.525,59.525,0,0,0-36.359,6.375l-3.224-6.086a66.294,66.294,0,0,1,40.553-7.127,64.631,64.631,0,0,1,30.33,12.548,28.755,28.755,0,0,0,12.186-10.842,28.137,28.137,0,0,0,3.948-11.219,111.462,111.462,0,0,1-59.446-12.853l3.253-6.1a104.675,104.675,0,0,0,52.376,12.23q2.57-.076,5.132-.279c2.812-.222,5.487-.928,8.331-.755a18.311,18.311,0,0,1,7.785,2.189,17.28,17.28,0,0,1,8.838,15.428" transform="translate(2553.514 2122.592)" fill="#5a1024"/>
  </g>
</svg>
