<svg xmlns="http://www.w3.org/2000/svg" width="91.178" height="154.05" viewBox="0 0 91.178 154.05">
  <g id="Group_3930" data-name="Group 3930" transform="translate(-3741.629 -2258.233)">
    <path id="Path_41" data-name="Path 41" d="M463.6,249.554c1.523-4.771,5.243-8.338,8.417-8.338a3.879,3.879,0,0,1,1.085.149,4.606,4.606,0,0,1,2.682,2.37c1.278,2.387,1.4,5.833.316,9.214-1.7,5.328-6.136,9.155-9.5,8.191a4.606,4.606,0,0,1-2.682-2.37c-1.276-2.387-1.4-5.833-.317-9.216m61.8,94.214c-9.135-7.425-19.479-9.486-26.669-9.9a96.834,96.834,0,0,0,.13-31.063c5.1,1.816,12.7,3.712,20.115,1.858,9.712-2.424,17.533-9.051,20.923-17.726l-5.919-2.314c-2.643,6.76-8.827,11.947-16.545,13.875-8.082,2.017-17.155-1.862-20.571-3.322-.428-.184-.778-.333-1.039-.435l-2.11-.834-1.516,1.777c-2.745,3.22-6.894,8.084-12.245,8.925-9.355,1.469-17.395-4.643-19.125-14.532a17.614,17.614,0,0,1-.249-2.242l7.728-20.217c5.8-.321,11.479-5.316,13.847-12.741,1.614-5.06,1.334-10.215-.768-14.145a10.874,10.874,0,0,0-6.531-5.479c-6.864-1.972-14.469,3.46-17.31,12.366-1.614,5.06-1.334,10.217.768,14.145a11.421,11.421,0,0,0,3.814,4.226L454.2,286.729l.009.608a23.958,23.958,0,0,0,.359,3.839c2.089,11.942,11.518,20.006,22.679,20.006a23.726,23.726,0,0,0,3.691-.291c4.859-.762,8.75-3.52,11.752-6.377a89.5,89.5,0,0,1-.419,29.385l-.035,0,.01.14a73.633,73.633,0,0,1-3.486,12.45c-7,18.378-21.074,31.934-37.66,36.262l1.606,6.149c18.571-4.845,34.269-19.854,41.995-40.149a78.673,78.673,0,0,0,2.7-8.589c6.254.221,15.738,1.83,23.99,8.536,9.854,8.01,15.258,21.154,14.453,35.164l6.344.365c.924-16.042-5.353-31.168-16.79-40.461" transform="translate(3290.525 2023.38)" fill="#5a1024"/>
    <path id="Path_42" data-name="Path 42" d="M487.255,259.166a6.984,6.984,0,1,1,6.841,12.178c-3.113,1.749-11.021,1.828-17.193,1.648,3.057-5.364,7.239-12.077,10.352-13.826m-18.345,15.12-2.531,4.619,5.264.24c3.241.149,6.5.272,9.607.272,6.555,0,12.424-.545,15.959-2.531a13.339,13.339,0,1,0-13.067-23.26c-5.211,2.927-10.382,11.812-15.232,20.66" transform="translate(3302.025 2036.227)" fill="#5a1024"/>
    <path id="Path_43" data-name="Path 43" d="M479.123,254.306a5.1,5.1,0,1,0-4.917-5.281,5.1,5.1,0,0,0,4.917,5.281" transform="translate(3307.916 2030.344)" fill="#5a1024"/>
  </g>
</svg>
