<svg xmlns="http://www.w3.org/2000/svg" width="152" height="149" viewBox="0 0 152 149">
  <g id="Group_3962" data-name="Group 3962" transform="translate(-3951 -5798)">
    <rect id="Rectangle_174" data-name="Rectangle 174" width="152" height="149" transform="translate(3951 5798)" fill="none"/>
    <g id="Group_1060" data-name="Group 1060" transform="translate(3957.986 5878.946)">
      <path id="Path_1385" data-name="Path 1385" d="M187.276,600.6a4.256,4.256,0,0,0,.536-2.075v-6.87a4.283,4.283,0,0,0-4.282-4.282H173.3a12.3,12.3,0,0,0-4.292.687,4.257,4.257,0,0,0-2.321-.687H149.826a4.251,4.251,0,0,0-.934.105,4.251,4.251,0,0,0-.933-.105h-7.5a4.273,4.273,0,0,0-2.879,1.112,4.283,4.283,0,0,0-2.879-1.112h-7.521a4.27,4.27,0,0,0-2.777,1.025,10.818,10.818,0,0,0-4.866-1.025h-5.621a10.858,10.858,0,0,0-4.762,1.058,4.257,4.257,0,0,0-2.812-1.058H96.932a4.374,4.374,0,0,0-.711.063,4.217,4.217,0,0,0-.711-.063H86.017a4.287,4.287,0,0,0-1.732.364,4.267,4.267,0,0,0-1.729-.364H75.427a4.254,4.254,0,0,0-2.5.811,4.266,4.266,0,0,0-2.5-.811H60.417a4.283,4.283,0,0,0-4.209,3.493l-2.885,15.4a4.216,4.216,0,0,0-.976.7,4.278,4.278,0,0,0-1.317,3.09v4.987a4.283,4.283,0,0,0,4.282,4.282h7.625a4.272,4.272,0,0,0,2.562-.85,4.264,4.264,0,0,0,2.561.85h7.573a4.252,4.252,0,0,0,2.6-.888,4.274,4.274,0,0,0,2.605.888H84.29a4.272,4.272,0,0,0-.225,1.361v3.2a4.282,4.282,0,0,0,3.26,4.159,4.265,4.265,0,0,0-.887,2.609v1.524a4.283,4.283,0,0,0,4.282,4.282h3.754a4.261,4.261,0,0,0,2.743-1,6.718,6.718,0,0,0,3.8,1.08h2.29a6.863,6.863,0,0,0,2.486-.456,4.245,4.245,0,0,0,1.739.371h2.795a4.263,4.263,0,0,0,1.6-.311,4.274,4.274,0,0,0,1.6.311h2.8a3.994,3.994,0,0,0,.433-.023,4.329,4.329,0,0,0,.433.023h3.688a4.28,4.28,0,0,0,.716-.065,4.279,4.279,0,0,0,.716.065h4.294a8.866,8.866,0,0,0,2.28-.245,4.244,4.244,0,0,0,1.414.245h2.677a4.268,4.268,0,0,0,3.073-1.3,4.269,4.269,0,0,0,3.072,1.3h2.7a4.261,4.261,0,0,0,1.411-.243,7.092,7.092,0,0,0,2.074.326h2.989a6.353,6.353,0,0,0,6.47-6.444v-7.173a6.753,6.753,0,0,0-1.005-3.6h13.135a4.023,4.023,0,0,1,1.406,0h10.413c.125,0,.249,0,.373,0a9.464,9.464,0,0,0,6.921-2.5,8.933,8.933,0,0,0,2.491-6.736v-4.583a9.47,9.47,0,0,0-1.239-4.916Zm-45.838,6.736a4.232,4.232,0,0,0,.595-.187v1.469l-.635-1.274a.334.334,0,0,0,.041-.01Zm-8.337-9.3.7,1.4-.037.008a4.219,4.219,0,0,0-.665.215v-1.624Z" transform="translate(-51.03 -587.37)" fill="#020303"/>
      <g id="Group_1056" data-name="Group 1056" transform="translate(4.281 4.282)">
        <path id="Path_1386" data-name="Path 1386" d="M81.481,641.228v-4.987l1.645.069,3.461-18.47H96.594l3.564,18.47,1.645-.069v4.987H94.23l-.772-5.706H89.842l-.737,5.706H81.48Zm8.773-9.767h2.827l-1.456-9.167Z" transform="translate(-81.48 -617.839)" fill="#fff"/>
        <path id="Path_1387" data-name="Path 1387" d="M229.994,641.22l-3.769-18.472-1.645.069V617.83h7.128l2.879,16.792,2.227-11.874-1.645.069V617.83h9.492v4.987l-1.628-.069-4.078,18.472Z" transform="translate(-204.462 -617.83)" fill="#fff"/>
        <path id="Path_1388" data-name="Path 1388" d="M377.53,641.22v-4.987l1.645.069V622.748l-1.645.069V617.83h9.407v4.987l-1.44-.069V636.3l1.44-.069v4.987Z" transform="translate(-335.909 -617.83)" fill="#fff"/>
        <path id="Path_1389" data-name="Path 1389" d="M466.306,617.83h5.569A5.249,5.249,0,0,1,475.9,619.2a6.272,6.272,0,0,1,1.268,4.353V635.5a10.469,10.469,0,0,1-.232,2.484,3.913,3.913,0,0,1-.814,1.593,5.366,5.366,0,0,1-4.25,1.645H466.3a5.249,5.249,0,0,1-4.026-1.371,6.273,6.273,0,0,1-1.268-4.353V623.552a10.479,10.479,0,0,1,.232-2.484,3.92,3.92,0,0,1,.814-1.593A5.365,5.365,0,0,1,466.306,617.83Zm4.541,18.47V622.746h-3.513V636.3Z" transform="translate(-407.653 -617.83)" fill="#fff"/>
        <path id="Path_1390" data-name="Path 1390" d="M592.642,641.22v-4.987l1.645.069V622.748l-1.645.069V617.83h7.521l5.757,11.514V617.83h7.5v4.987l-1.645-.069V636.3l1.645-.069v4.987h-7.5l-5.706-11.429V641.22H592.64Z" transform="translate(-520.778 -617.83)" fill="#fff"/>
        <path id="Path_1391" data-name="Path 1391" d="M753.77,641.22v-4.987l1.645.069V622.748l-1.645.069V617.83h16.86v7.488h-5.363v-2.57h-3.53v4.438h4.884V631.4h-4.884v4.9h3.53V633.32h5.585v7.9Z" transform="translate(-659.255 -617.83)" fill="#fff"/>
        <path id="Path_1392" data-name="Path 1392" d="M883.819,641.22v-7.18H889.8V636.3h3.616v-4.61h-4.644a9.61,9.61,0,0,1-2.227-.205,3.778,3.778,0,0,1-2.622-2.39,8.464,8.464,0,0,1-.343-2.7v-3q0-3.119,1.149-4.344t4.078-1.224h10.229v6.87h-5.621v-1.953H889.8v4.267h4.591q5.346-.137,5.347,4.677v4.61q.067,5.071-5.449,4.918Z" transform="translate(-770.815 -617.83)" fill="#fff"/>
      </g>
      <g id="Group_1057" data-name="Group 1057" transform="translate(37.316 33.222)">
        <path id="Path_1393" data-name="Path 1393" d="M322.59,835.82h-3.754V834.3h1.01v-8.444h-1.651v1.676H316.46v-3.2h8.545v3.2h-1.7v-1.676h-1.642V834.3h.926v1.524Z" transform="translate(-316.46 -824.239)" fill="#fff"/>
        <path id="Path_1394" data-name="Path 1394" d="M391.047,825.845v7.264a4.347,4.347,0,0,1-.135,1.208,2.172,2.172,0,0,1-.463.821,2.307,2.307,0,0,1-1.8.758h-2.29a2.3,2.3,0,0,1-1.767-.648,2.667,2.667,0,0,1-.606-1.885v-7.517h-.935v-1.524h2.82v8.754a1.65,1.65,0,0,0,.228,1.043,1.294,1.294,0,0,0,.952.253h.91a.967.967,0,0,0,1.188-1.188V824.32h2.812v1.524h-.909Z" transform="translate(-373.688 -824.23)" fill="#fff"/>
        <path id="Path_1395" data-name="Path 1395" d="M461.727,835.812h-2.8V831.94a1.183,1.183,0,0,0-.245-.85,1.211,1.211,0,0,0-.867-.245h-2.1v4.967H452.92v-1.524h.926v-8.443h-.926V824.32h5.294a2.2,2.2,0,0,1,2.4,2.5v1.043a3.012,3.012,0,0,1-.257,1.385,1.869,1.869,0,0,1-.9.787,1.66,1.66,0,0,1,.981.5,1.463,1.463,0,0,1,.332,1v2.753h.952v1.524Zm-6.01-6.516H457.6a1.437,1.437,0,0,0,.918-.228.965.965,0,0,0,.27-.775v-1.144a1.594,1.594,0,0,0-.245-1.018,1.107,1.107,0,0,0-.876-.286h-1.953Z" transform="translate(-433.736 -824.23)" fill="#fff"/>
        <path id="Path_1396" data-name="Path 1396" d="M525.408,835.812H521.72v-1.524h.927v-8.443h-.927V824.32h3.688v1.524h-.918v8.443h.918Z" transform="translate(-492.863 -824.23)" fill="#fff"/>
        <path id="Path_1397" data-name="Path 1397" d="M558.122,835.8V832.52h1.742v1.759h2.373a1.071,1.071,0,0,0,.813-.253,1.293,1.293,0,0,0,.232-.876V832.1a4.879,4.879,0,0,0-.029-.7.56.56,0,0,0-.165-.287.666.666,0,0,0-.346-.2,4.607,4.607,0,0,0-.792-.042h-1.364a2.249,2.249,0,0,1-2.466-2.441v-1.735a2.306,2.306,0,0,1,.657-1.763,2.609,2.609,0,0,1,1.86-.619H564.9v3.173h-1.775v-1.65h-2.071a1.193,1.193,0,0,0-.859.24,1.24,1.24,0,0,0-.236.872v1.028a2.6,2.6,0,0,0,.046.593.651.651,0,0,0,.207.317,1.252,1.252,0,0,0,.842.236h1.826a2.115,2.115,0,0,1,1.68.669,2.825,2.825,0,0,1,.585,1.915v1.835a2.168,2.168,0,0,1-.766,1.743,2.057,2.057,0,0,1-.77.416,4.986,4.986,0,0,1-1.2.105H558.12Z" transform="translate(-524.146 -824.222)" fill="#fff"/>
        <path id="Path_1398" data-name="Path 1398" d="M626.493,835.82h-2.7v-8.645l-2.474,5.446h-1.271l-2.4-5.252v8.452H614.97V834.3h1.009v-8.443H614.97V824.33h2.913l2.812,6.213,2.769-6.213H626.5v1.524h-.968V834.3h.968v1.524Z" transform="translate(-573.003 -824.239)" fill="#fff"/>
        <path id="Path_1399" data-name="Path 1399" d="M713.868,826.011v7.173a2.1,2.1,0,0,1-.61,1.562,2.155,2.155,0,0,1-1.579.6h-2.922a2.125,2.125,0,0,1-1.634-.631,2.442,2.442,0,0,1-.564-1.651v-6.894a2.575,2.575,0,0,1,.618-1.831,2.232,2.232,0,0,1,1.713-.661h2.736a2.132,2.132,0,0,1,1.725.766,2.4,2.4,0,0,1,.513,1.566Zm-2.913-.808h-1.423a1.206,1.206,0,0,0-.884.261,1.31,1.31,0,0,0-.253.918V832.6a1.738,1.738,0,0,0,.19.956.787.787,0,0,0,.686.266h1.742a1.042,1.042,0,0,0,.808-.26,1.4,1.4,0,0,0,.228-.91v-6.271a1.3,1.3,0,0,0-.257-.9,1.094,1.094,0,0,0-.838-.278Z" transform="translate(-651.717 -823.68)" fill="#fff"/>
      </g>
      <g id="Group_1059" data-name="Group 1059" transform="translate(5.812 15.976)">
        <path id="Path_1400" data-name="Path 1400" d="M771.1,701.358h3.354v-.348H766.3v6.776a1.53,1.53,0,0,1-1.593,1.528l-.052,0v1.863h14.025v-4.84h-2.528v1.452a1.53,1.53,0,0,1-1.53,1.53H771.1a1.529,1.529,0,0,1-1.53-1.53v-4.9a1.529,1.529,0,0,1,1.53-1.53Z" transform="translate(-670.145 -701.01)" fill="#d3d3d3"/>
        <path id="Path_1401" data-name="Path 1401" d="M896.853,701.048a2.08,2.08,0,0,0,.863.44,7.96,7.96,0,0,0,1.857.16h4.644a1.53,1.53,0,0,1,1.53,1.53v4.61a1.53,1.53,0,0,1-1.53,1.53H900.6a1.529,1.529,0,0,1-1.53-1.53v-.732H896.15v4.12h8.982a4.229,4.229,0,0,0,3.117-.82,3.425,3.425,0,0,0,.76-2.549v-4.63a3.5,3.5,0,0,0-.571-2.168H896.812Z" transform="translate(-783.149 -701.01)" fill="#d3d3d3"/>
        <g id="Group_1058" data-name="Group 1058" transform="translate(71.862)">
          <path id="Path_1402" data-name="Path 1402" d="M663.373,701.01a1.526,1.526,0,0,1-2.882.505l-.252-.505H657.73l5.075,10.166h5.03v-1.863l-.052,0a1.53,1.53,0,0,1-1.593-1.528v-6.776h-2.817Z" transform="translate(-650.11 -701.01)" fill="#d3d3d3"/>
          <path id="Path_1403" data-name="Path 1403" d="M608.045,701.276a1.527,1.527,0,0,1,.024-.266h-2.893v6.776a1.53,1.53,0,0,1-1.593,1.528l-.052,0v1.863h4.516v-9.9Z" transform="translate(-603.53 -701.01)" fill="#d3d3d3"/>
        </g>
        <path id="Path_1404" data-name="Path 1404" d="M481.727,701.01v6.776a1.529,1.529,0,0,1-1.53,1.53h-3.513a1.529,1.529,0,0,1-1.53-1.53V701.01H471.89v5.971a5,5,0,0,0,.86,3.314,3.875,3.875,0,0,0,2.9.88h5.569a3.9,3.9,0,0,0,3.085-1.106,2.393,2.393,0,0,0,.5-.98,8.878,8.878,0,0,0,.184-2.107V701.01h-3.264Z" transform="translate(-418.535 -701.01)" fill="#d3d3d3"/>
        <path id="Path_1405" data-name="Path 1405" d="M390.055,701.01v6.776a1.53,1.53,0,0,1-1.593,1.528l-.052,0v1.863h6.349v-1.861a1.527,1.527,0,0,1-1.44-1.525v-6.776h-3.265Z" transform="translate(-346.791 -701.01)" fill="#d3d3d3"/>
        <path id="Path_1406" data-name="Path 1406" d="M265.132,701.01l-1.009,5.379a1.529,1.529,0,0,1-1.5,1.247h-.013a1.529,1.529,0,0,1-1.5-1.271l-.918-5.355H257.2l2.075,10.166h6.484L268,701.01h-2.874Z" transform="translate(-234.027 -701.01)" fill="#d3d3d3"/>
        <path id="Path_1407" data-name="Path 1407" d="M103.952,702.707a1.53,1.53,0,0,1-1.51,1.77H99.614a1.53,1.53,0,0,1-1.513-1.756l.254-1.7H95.311l-1.323,7.059a1.541,1.541,0,0,1-1.566,1.247l-.052,0v1.863h4.752l.565-4.372a1.529,1.529,0,0,1,1.517-1.333h3.616a1.531,1.531,0,0,1,1.516,1.325l.592,4.382h4.708v-1.863l-.052,0a1.53,1.53,0,0,1-1.565-1.239l-1.364-7.067h-2.969l.269,1.689Z" transform="translate(-92.37 -701.019)" fill="#d3d3d3"/>
      </g>
    </g>
    <g id="Group_1062" data-name="Group 1062" transform="translate(3964.992 5816.458)">
      <path id="Path_1408" data-name="Path 1408" d="M124.714,149.443c-9.754,5.25-9.107,21.624-2.876,26.464-2.427,1.7-4.587,3.564-7.014,5.262a9.335,9.335,0,0,0,3.6,4.444,9.5,9.5,0,0,0,5.5,1.742c-.744-1.191-1.121-2.543-1.864-3.734,1.31-1.158,2.727-2.387,4.038-3.546a24.55,24.55,0,0,0,12.038,2.023c.09.81.136,1.639.226,2.449A6.013,6.013,0,0,0,136.38,190a9.089,9.089,0,0,0,2.827,5.245c-2.373.1-4.884.2-7.258.09-.534-.763-1.139-1.59-1.673-2.353a4.412,4.412,0,0,0-1.066-1.185,2.7,2.7,0,0,0-2.048-.344,4.716,4.716,0,0,0-1.9.938,7.743,7.743,0,0,0-2.611-.212,2.987,2.987,0,0,0-2.113,1.293,1.9,1.9,0,0,0,.252,2.344c-6.153.021-12.384.113-18.538.134a1.351,1.351,0,0,0-1.153.561,1.548,1.548,0,0,0-.186,1.322,3.088,3.088,0,0,0,1.175,1.364l2.6,2.022c3.591,2.791,7.188,5.586,11,8.064,30.768-.075,61.771.3,92.537.224,2.207.015,4.379.1,6.586.118a43.049,43.049,0,0,0,9.048-14.816,5.264,5.264,0,0,0,.3-3.253c-.349-1.053-1.487-1.359-2.6-1.323-4.884.163-17.984,1.674-25.867,2.148a26.349,26.349,0,0,0-1.563-2.533,6.5,6.5,0,0,0-2.135-2.356,2.64,2.64,0,0,0-3.006.12,2.525,2.525,0,0,0-1.061,1.449,6.782,6.782,0,0,0-3.082-1.1,2.286,2.286,0,0,0-2.234,3.413,7.657,7.657,0,0,0,.992,1.457c-.81.063-1.562.222-2.372.287a66.177,66.177,0,0,0-8.14-8.035c-.917-.081-1.9-.249-2.82-.33.053,0-.163-.042-.11-.042-3.249-3.745-6.624-7.384-9.972-11.04a84.476,84.476,0,0,0-6.319-6.518c1.48-11.807-6.09-20.039-15.188-21.594q0-1.331.006-2.663a29.925,29.925,0,0,0-8.064,1.355,9.871,9.871,0,0,0-5.927,5.2Z" transform="translate(-100.846 -142.89)"/>
      <path id="Path_1409" data-name="Path 1409" d="M255.738,510.615c-.577-.011-1.246.045-1.821.035-1.381-2.249-2.9-4.518-4.281-6.768a.877.877,0,0,1-1.248-1.1,1.52,1.52,0,0,1,.777-.7,2.3,2.3,0,0,1,1.05-.287,1.1,1.1,0,0,1,.935.485.739.739,0,0,1-.184.976c1.568,2.405,3.2,4.951,4.77,7.357Z" transform="translate(-227.591 -451.34)" fill="#d3d3d3"/>
      <path id="Path_1410" data-name="Path 1410" d="M549.908,476.04c.211-.306.887-.224,1.161.028a67.5,67.5,0,0,0,20.793-.259c-.378-.945-.765-1.877-1.161-2.788a1.516,1.516,0,0,1-1.029-.032.972.972,0,0,1-.321-1.234,1.926,1.926,0,0,1,1.04-.893,2.294,2.294,0,0,1,1.23-.207,1.257,1.257,0,0,1,.981.707.877.877,0,0,1-.354,1.094c1.4,3.627,2.807,7.343,4.211,10.97-.623.022-1.232.136-1.855.16-.551-1.822-1.185-3.681-1.871-5.518a30.769,30.769,0,0,0-6.994.3,6.983,6.983,0,0,0-3.636,1.493,2.784,2.784,0,0,0-.554,3.586,10.523,10.523,0,0,1-2.954.254,3.431,3.431,0,0,1-2.576-1.15,2.545,2.545,0,0,1,.845-3.859,18.659,18.659,0,0,1-3.085.039,6.8,6.8,0,0,1-3.066-.88,2.17,2.17,0,0,1-.8-.754,1.024,1.024,0,0,1,0-1.057Z" transform="translate(-486.65 -424.56)" fill="#d3d3d3"/>
      <path id="Path_1411" data-name="Path 1411" d="M729.775,467.166a1.533,1.533,0,0,1,1.908.105,1.772,1.772,0,0,1,.323,2q.519,1.516,1.084,3.024l29.61-2.453c.2.72-.4,1.933-1.141,1.994L733.8,474.125c.843,2.138,1.749,4.254,2.741,6.317l-1.943.068c-1.455-3.581-2.8-7.236-4.253-10.816-.34.072-.745-.373-.928-.668A1.463,1.463,0,0,1,729.775,467.166Z" transform="translate(-640.883 -421.333)" fill="#d3d3d3"/>
      <path id="Path_1412" data-name="Path 1412" d="M369.22,283.291a11.039,11.039,0,0,0,3.186-10.711,9.505,9.505,0,0,1,2.663,1.032c.891.615,1.052,2,1.015,3.085a4.373,4.373,0,0,1-1.263,2.909,4.7,4.7,0,0,0,2.362-4.756,8.985,8.985,0,0,1,3.124,2.185l15.656,16.212a7.608,7.608,0,0,1-1.913,4.614,5.267,5.267,0,0,0,3.09-3.429A11.95,11.95,0,0,1,400.2,297.8a3.463,3.463,0,0,0,.8,2.213,9.44,9.44,0,0,0,1.593,1.664l3.585,3.182c-2.292-.014-4.376-.02-6.669-.035a4.058,4.058,0,0,1-4.385-2.545q-1.39-2.248-2.781-4.495a48.033,48.033,0,0,0-4.7-6.191,21.342,21.342,0,0,0-5.867-4.863,16.142,16.142,0,0,0-11.3-1.448c-.387-.661-.866-1.327-1.252-1.988Z" transform="translate(-331.49 -254.347)" fill="#949494"/>
      <g id="Group_1061" data-name="Group 1061" transform="translate(37.728 18.234)">
        <path id="Path_1413" data-name="Path 1413" d="M375.69,278.329a.974.974,0,0,0-1.005-.066,2.8,2.8,0,0,0-.905,1.011,15.017,15.017,0,0,1-4.379,4.336c-.063-.1-.129-.205-.19-.308A11.038,11.038,0,0,0,372.4,272.59a9.5,9.5,0,0,1,2.663,1.032c.891.614,1.052,2,1.015,3.085a4.366,4.366,0,0,1-.384,1.625Z" transform="translate(-369.21 -272.59)" fill="#d3d3d3"/>
        <path id="Path_1414" data-name="Path 1414" d="M571.68,437.56a4.95,4.95,0,0,1-3.461-2.331,7.347,7.347,0,0,1-.633-2.373q-.333-2.233-.667-4.468c.044-.125.091-.249.124-.378a11.972,11.972,0,0,1,3.065,3.364,3.463,3.463,0,0,0,.8,2.213,9.422,9.422,0,0,0,1.593,1.664l2.7,2.391a12.391,12.391,0,0,1-3.512-.084Z" transform="translate(-539.125 -406.16)" fill="#d3d3d3"/>
        <path id="Path_1415" data-name="Path 1415" d="M442.4,310.5c-1.077-.256-1.669-1.389-2.09-2.413s-.614-2.135-1.1-3.129a11.7,11.7,0,0,0-1.944-2.605c-1.542-1.708-3.086-3.418-4.767-4.988-1.618-1.51-3.589-2.966-5.8-2.831a7.943,7.943,0,0,0-.807-4.85,4.343,4.343,0,0,0-.045-.96,8.984,8.984,0,0,1,3.124,2.185l15.609,16.163Z" transform="translate(-417.887 -286.452)" fill="#d3d3d3"/>
      </g>
      <path id="Path_1416" data-name="Path 1416" d="M380.879,411.417a3.793,3.793,0,0,1,.458-2.313,2.591,2.591,0,0,0,1.989,1.629,4.622,4.622,0,0,1,1.925-4.133,3.888,3.888,0,0,0,.877,2.91,4.024,4.024,0,0,1,1.1-2.258c.276.733.72,1.464,1,2.2a1.869,1.869,0,0,0,1.478-.914,7.916,7.916,0,0,1,1.344,2.569c.163-.387.534-.841.7-1.226a3.082,3.082,0,0,1,.4,1.68,3.366,3.366,0,0,0,.067.54c.366-.3.827-.589,1.192-.893a5.065,5.065,0,0,1,.5,2.691,1.913,1.913,0,0,0,1.316-1.089c.058.78.187,1.606.246,2.384.372-.156.836-.367,1.209-.523,0,.6.044,1.182.044,1.783a5.567,5.567,0,0,0,4.008,1.892,5.92,5.92,0,0,1-4.867-1.508,50.745,50.745,0,0,1-3.654-3.8,7.637,7.637,0,0,0-4.514-2.514c-1.961-.18-3.8.837-5.611,1.615-.247.107-.447.222-.689.342a2.3,2.3,0,0,1-.507-1.061Z" transform="translate(-341.469 -369.526)" fill="#f9f9f9"/>
      <path id="Path_1417" data-name="Path 1417" d="M373.921,370.528c3.7-.219,7.267,1.739,9.837,4.414s4.309,6.02,6.011,9.315a24.5,24.5,0,0,1-3.511-4.954,1.38,1.38,0,0,0-.7.81,10.121,10.121,0,0,0-1.109-2.678c-.328-.042-.73-.122-.957.117-.093-.73-.3-1.351-.394-2.081a1.637,1.637,0,0,0-1.471.825,5.273,5.273,0,0,1-.291-2.2,1,1,0,0,0-1.026.825c-.311-.78-.76-1.539-1.07-2.32a1.838,1.838,0,0,0-.391,1.243,8.522,8.522,0,0,1-1.847-2.086,4.2,4.2,0,0,0-1.113,2.59,8.185,8.185,0,0,1-2.141-2.844A3.588,3.588,0,0,0,372,374.457a7.923,7.923,0,0,1-1.853-1.7,6.218,6.218,0,0,0-.976,2.491,2.432,2.432,0,0,1-1.459-2.195c.01-.329.164-.8.209-1.129a19.283,19.283,0,0,1,6-1.4Z" transform="translate(-330.197 -338.51)" fill="#f9f9f9"/>
      <path id="Path_1418" data-name="Path 1418" d="M446.418,511.085a2.868,2.868,0,0,1-1.25-2.955,22.392,22.392,0,0,1,5.162,4.936c-1.265-.723-2.678-1.209-3.914-1.981Z" transform="translate(-396.712 -456.782)" fill="#264cb5"/>
      <path id="Path_1419" data-name="Path 1419" d="M361.311,465.37a11.21,11.21,0,0,0,10.694,9.882c-1.218-.678-2.524-1.423-3.741-2.1a2.207,2.207,0,0,0,.915.1,1.112,1.112,0,0,0,1-.419,1.56,1.56,0,0,0-.205-1.6,10.386,10.386,0,0,0-3.367-3.522,3.427,3.427,0,0,0-1.3-.562,1.481,1.481,0,0,0-1.314.4.962.962,0,0,0-.017,1.292,7.817,7.817,0,0,1-2.664-3.467Z" transform="translate(-324.692 -420.034)" fill="#264cb5"/>
      <path id="Path_1420" data-name="Path 1420" d="M379.03,461.456a2.137,2.137,0,0,1,2-.642,4.915,4.915,0,0,1,1.973.926,14.588,14.588,0,0,1,3.139,3.016,14.516,14.516,0,0,0-7.11-3.3Z" transform="translate(-339.921 -416.089)" fill="#264cb5"/>
      <path id="Path_1421" data-name="Path 1421" d="M332.02,355.105c-1.558-1.073-3.2-2.053-4.76-3.125a6.816,6.816,0,0,0,2.528,3.267l1.3-.132c.233-.024.7-.009.935-.009Z" transform="translate(-295.429 -322.585)" fill="#264cb5"/>
      <path id="Path_1422" data-name="Path 1422" d="M310.1,292.1a10.893,10.893,0,0,1-4.884-9.59,5.278,5.278,0,0,0,1.861,3.631c-.059-.243.207-.479.441-.568a.872.872,0,0,1,.721.09,2.6,2.6,0,0,1,.571.484l1.645,1.693a1.38,1.38,0,0,1,.516.943.93.93,0,0,1-.745.783,2.711,2.711,0,0,1-1.148-.049,5.872,5.872,0,0,0,1.025,2.581Z" transform="translate(-276.474 -262.881)" fill="#264cb5"/>
      <path id="Path_1423" data-name="Path 1423" d="M295.987,151.551a122.408,122.408,0,0,0,.9,16.4,1.8,1.8,0,0,1,1.552.72,3.875,3.875,0,0,1,.686,1.632,9.322,9.322,0,0,1-1.047,5.8,31.153,31.153,0,0,1-8.032-8.787c.935.1,1.908-.114,2.843-.014-.166-4.317-.193-8.618-.358-12.935a14.7,14.7,0,0,0-6.885,1.219,14.229,14.229,0,0,1,10.339-4.031Z" transform="translate(-259.669 -150.329)" fill="#949494"/>
      <path id="Path_1424" data-name="Path 1424" d="M333.637,178.955a13.92,13.92,0,0,0-16.807-5.034A18.314,18.314,0,0,1,333.637,178.955Z" transform="translate(-286.466 -168.662)" fill="#d3d3d3"/>
      <path id="Path_1425" data-name="Path 1425" d="M236.823,223.5a16.106,16.106,0,0,1-5.511-14.208,14.5,14.5,0,0,1,9.646-11.591c4.361-1.376,9.13-.451,13.419,1.137,1.815.673,3.766,1.645,4.42,3.467a17.311,17.311,0,0,0-12.315-3.821,15.243,15.243,0,0,0-9.658,25.015Z" transform="translate(-212.845 -189.422)" fill="#d3d3d3"/>
      <path id="Path_1426" data-name="Path 1426" d="M515.9,393.3a.784.784,0,0,1-.64.361.2.2,0,0,1-.246-.24.967.967,0,0,1,.288-.626c.115-.113.463-.36.628-.233.187.144.068.582-.029.738Z" transform="translate(-456.783 -357.434)"/>
      <path id="Path_1427" data-name="Path 1427" d="M508.726,386.133a.784.784,0,0,1-.64.361.246.246,0,0,1-.218-.084.248.248,0,0,1-.028-.156.967.967,0,0,1,.288-.626c.115-.112.463-.36.628-.233.187.143.068.582-.029.738Z" transform="translate(-450.621 -351.272)"/>
      <path id="Path_1428" data-name="Path 1428" d="M501.556,378.973a.784.784,0,0,1-.64.361.2.2,0,0,1-.246-.24.967.967,0,0,1,.288-.626c.115-.112.463-.36.628-.233.187.143.067.582-.03.738Z" transform="translate(-444.459 -345.119)"/>
      <path id="Path_1429" data-name="Path 1429" d="M492.405,369.522a1.032,1.032,0,0,1-.841.475.327.327,0,0,1-.285-.11.331.331,0,0,1-.038-.205,1.275,1.275,0,0,1,.378-.822c.152-.148.607-.472.824-.3.246.188.089.763-.039.969Z" transform="translate(-436.356 -336.789)"/>
      <path id="Path_1430" data-name="Path 1430" d="M478.357,359.016a1.283,1.283,0,0,1-1.04.589.4.4,0,0,1-.353-.136.406.406,0,0,1-.046-.254,1.571,1.571,0,0,1,.468-1.018c.187-.183.754-.585,1.021-.378.3.233.111.946-.048,1.2Z" transform="translate(-424.045 -327.552)"/>
      <path id="Path_1431" data-name="Path 1431" d="M465.973,346.313a1.748,1.748,0,0,1-1.424.806.553.553,0,0,1-.484-.186.559.559,0,0,1-.063-.349,2.163,2.163,0,0,1,.64-1.393c.256-.25,1.03-.8,1.4-.519C466.455,344.993,466.19,345.966,465.973,346.313Z" transform="translate(-412.944 -316.238)"/>
      <path id="Path_1432" data-name="Path 1432" d="M420.6,327.59a1.262,1.262,0,0,0,.772.976,2.916,2.916,0,0,0,1.278.194,8.36,8.36,0,0,1,1.3.006A2.885,2.885,0,0,1,426,330.108a.959.959,0,0,0-1.029.268,8.054,8.054,0,0,1-.742.787,1.655,1.655,0,0,1-.962.287,3.741,3.741,0,0,1-1-.159,2.563,2.563,0,0,0,1.569-.81c.25-.285.454-.649.81-.779a1.521,1.521,0,0,0-1.308-.366,6.057,6.057,0,0,1-1.434.045,1.78,1.78,0,0,1-1.091-.68A1.4,1.4,0,0,1,420.6,327.59Z" transform="translate(-375.625 -301.624)"/>
      <path id="Path_1433" data-name="Path 1433" d="M420.355,334.82c.02.032.031.063.055.1a1.775,1.775,0,0,0,1.091.68,6.213,6.213,0,0,0,1.434-.045,1.516,1.516,0,0,1,1.307.366c-.357.129-.561.493-.81.779a2.325,2.325,0,0,1-.645.5,4.467,4.467,0,0,1-1.088-.052,2.066,2.066,0,0,1-1.406-.894,1.3,1.3,0,0,1,.062-1.431Z" transform="translate(-375.224 -307.837)" fill="#f9f9f9"/>
      <path id="Path_1434" data-name="Path 1434" d="M416.274,452.171a5.964,5.964,0,0,1-5.858.312,12.037,12.037,0,0,1-4.534-4.049,14.091,14.091,0,0,0-1.686-2.1,5.684,5.684,0,0,0-7.6-.037,6.764,6.764,0,0,1,2.4,1.129q1.885,1.235,3.647,2.649A94.8,94.8,0,0,1,412.858,460.1c.284.309.891-.044,1.137-.384a1.341,1.341,0,0,0,.125-1.206,2.93,2.93,0,0,0-.694-1.039,7.551,7.551,0,0,0-1.776-1.379c.1-.125.181-.366.284-.491a28.614,28.614,0,0,1,6.02,6.18,1.234,1.234,0,0,0,.841-1.085,2.343,2.343,0,0,0-.426-1.226,7.973,7.973,0,0,0-1.386-1.683,7.229,7.229,0,0,1-1.284-1.3,3.208,3.208,0,0,1-.387-2.235,7.407,7.407,0,0,1,.964-2.086Z" transform="translate(-355.021 -402.406)" fill="#d3d3d3"/>
      <path id="Path_1435" data-name="Path 1435" d="M602.712,455.1a9.714,9.714,0,0,1-2.186-1.853,2.119,2.119,0,0,1-.571-1.008.851.851,0,0,1,.494-.957c.408-.128.815.171,1.139.451l2.227,1.932c-.315.461-.786.973-1.1,1.435Z" transform="translate(-529.776 -407.902)" fill="#d3d3d3"/>
      <path id="Path_1436" data-name="Path 1436" d="M629.223,479.631a4.3,4.3,0,0,1-1.593-1.693q.475-.5.948-1c.554.478,1.272.89,1.826,1.368-.34.392-.841.929-1.181,1.322Z" transform="translate(-553.571 -429.977)" fill="#d3d3d3"/>
      <path id="Path_1437" data-name="Path 1437" d="M228.65,349.6c-3.82,2.718-7.708,5.462-11.528,8.18a10.5,10.5,0,0,0,2.076,3.606,5.234,5.234,0,0,1-3.442-1.553,5.791,5.791,0,0,1-1.777-3.557,114.382,114.382,0,0,0,13.564-9.568c.354.866.752,2.029,1.106,2.895Z" transform="translate(-198.075 -318.056)" fill="#d3d3d3"/>
      <path id="Path_1438" data-name="Path 1438" d="M282.691,497.7q2.389,3.986,4.777,7.973c-.635-.007-1.317.094-1.953.086-1.438-2.389-2.9-4.7-4.339-7.093a.863.863,0,0,1-.99-.515,1.075,1.075,0,0,1,.228-1.07,1.919,1.919,0,0,1,.988-.555,1.621,1.621,0,0,1,.811-.03.825.825,0,0,1,.586.524C282.878,497.286,282.95,497.613,282.691,497.7Z" transform="translate(-254.922 -446.752)" fill="#d3d3d3"/>
      <path id="Path_1439" data-name="Path 1439" d="M287.947,501.638a.26.26,0,0,1-.053.257.739.739,0,0,1-.228.225.429.429,0,0,1-.309.056.294.294,0,0,1-.119-.52c.142-.1.616-.2.711-.017Z" transform="translate(-260.933 -451.118)"/>
      <path id="Path_1440" data-name="Path 1440" d="M255.556,506.73a.392.392,0,0,1,.342-.02.25.25,0,0,1,.094.267.527.527,0,0,1-.162.252.688.688,0,0,1-.342.193.378.378,0,0,1-.36-.117c-.274-.337.208-.492.426-.575Z" transform="translate(-233.368 -455.534)"/>
      <path id="Path_1441" data-name="Path 1441" d="M736.256,474.618a.381.381,0,0,1,.343.1.247.247,0,0,1-.041.3.6.6,0,0,1-.281.149,2.041,2.041,0,0,1-.7.075.32.32,0,0,1-.277-.128c-.086-.166.127-.365.263-.433a1.849,1.849,0,0,1,.694-.062Z" transform="translate(-646.086 -427.978)"/>
      <path id="Path_1442" data-name="Path 1442" d="M695.6,477.065a.354.354,0,0,1,.3.089.251.251,0,0,1-.013.3.629.629,0,0,1-.263.183,2.476,2.476,0,0,1-.756.194.462.462,0,0,1-.266-.034c-.249-.139-.1-.409.083-.5a2.267,2.267,0,0,1,.918-.232Z" transform="translate(-611.013 -430.084)"/>
      <path id="Path_1443" data-name="Path 1443" d="M126.073,534.371a45.647,45.647,0,0,1-6.962-5.643q9.8-.23,19.6-.447c-.3-.437-.429-.9-.727-1.337-6.945-.013-13.866.093-20.813.08-.283-.187-.836.149-.985.454a1,1,0,0,0,.115.966,2.882,2.882,0,0,0,.732.7,51.4,51.4,0,0,0,9.041,5.23Z" transform="translate(-113.96 -472.95)" fill="#d3d3d3"/>
      <path id="Path_1444" data-name="Path 1444" d="M305.67,524.544c3.4-.007,6.807-.291,10.2-.067A1.241,1.241,0,0,1,317,525.835l-10.8-.117c-.2-.342-.34-.834-.538-1.175Z" transform="translate(-276.874 -470.757)" fill="#d3d3d3"/>
      <path id="Path_1445" data-name="Path 1445" d="M590.4,516.055a2.586,2.586,0,0,1,.662-1.226,3.409,3.409,0,0,0,2.971,3.078,3.406,3.406,0,0,1,1.168-2.879,7.2,7.2,0,0,1,2.63-1.295A36.068,36.068,0,0,1,607,512.1q.312.8.613,1.6a30.783,30.783,0,0,0-6.994.3,6.985,6.985,0,0,0-3.636,1.493,2.784,2.784,0,0,0-.554,3.586,10.511,10.511,0,0,1-2.954.254,3.43,3.43,0,0,1-2.576-1.15,2.583,2.583,0,0,1-.5-2.13Z" transform="translate(-521.528 -460.194)" fill="#949494"/>
      <path id="Path_1446" data-name="Path 1446" d="M758.83,494.255q14.639-1.641,29.336-2.715c-.081.675-.573,1.442-1.163,1.492l-27.761,2.285q-.209-.529-.411-1.06Z" transform="translate(-666.326 -442.524)" fill="#949494"/>
      <path id="Path_1447" data-name="Path 1447" d="M298.694,172.077a2.987,2.987,0,0,1-2.117-.132,17.093,17.093,0,0,1-3.727-2.417,9.65,9.65,0,0,0-2.185-1.237c-.212-.32-.425-.641-.624-.97.935.1,1.908-.114,2.843-.014-.166-4.317-.193-8.618-.358-12.935a14.7,14.7,0,0,0-6.885,1.219,14.229,14.229,0,0,1,10.339-4.031,122.4,122.4,0,0,0,.9,16.4,1.8,1.8,0,0,1,1.552.72,3.873,3.873,0,0,1,.686,1.632,6.173,6.173,0,0,1,.132,1.393,1.635,1.635,0,0,1-.559.374Z" transform="translate(-259.66 -150.337)" fill="#d3d3d3"/>
      <path id="Path_1448" data-name="Path 1448" d="M398.993,452.229a6.757,6.757,0,0,0-2.4-1.129,4.77,4.77,0,0,1,.86-.649,7.394,7.394,0,0,1,3.62,1.052,19.976,19.976,0,0,1,3.9,3.222c1.846,1.809,3.583,3.651,5.429,5.46a1.01,1.01,0,0,1,.741-.812,2.635,2.635,0,0,1,1.157-.018,15.32,15.32,0,0,1,2.986.768,2.8,2.8,0,0,0,.407,1.177,7.237,7.237,0,0,0,1.284,1.3,7.893,7.893,0,0,1,1.386,1.683,2.342,2.342,0,0,1,.426,1.225,1.234,1.234,0,0,1-.841,1.085,28.605,28.605,0,0,0-6.02-6.18c-.1.125-.181.365-.284.491a7.55,7.55,0,0,1,1.776,1.379,2.945,2.945,0,0,1,.694,1.039,1.342,1.342,0,0,1-.125,1.206c-.246.34-.853.693-1.137.384a94.8,94.8,0,0,0-10.208-10.027q-1.759-1.411-3.647-2.649Z" transform="translate(-355.012 -407.211)" fill="#949494"/>
      <path id="Path_1449" data-name="Path 1449" d="M420.091,333.132a1.664,1.664,0,0,0,.027,1.773,1.063,1.063,0,0,1-.548-.97,3.123,3.123,0,0,1,.28-1.134" transform="translate(-374.761 -306.101)"/>
    </g>
  </g>
</svg>
