<svg xmlns="http://www.w3.org/2000/svg" width="151.347" height="84.427" viewBox="0 0 151.347 84.427">
  <g id="Group_3943" data-name="Group 3943" transform="translate(-3640.593 -2908.815)">
    <path id="Path_28" data-name="Path 28" d="M124,488.874c-.541,9.155,2.188,18.31,8.743,24.789.544.538,1.112,1.048,1.69,1.543a31.492,31.492,0,0,1-3.714-2.077A33.69,33.69,0,0,1,115.975,487.4,18.7,18.7,0,0,1,124,488.874M65.369,498.949a48.759,48.759,0,0,0,16.51,2.845,52.156,52.156,0,0,0,8.66-.74,28.4,28.4,0,0,1-2.449,2.442,42.454,42.454,0,0,1-14,7.809c-14.68,5.1-28.273.271-33.434-2.04l-2.385,5.317a55.944,55.944,0,0,0,22.258,4.8A46.99,46.99,0,0,0,76,516.809,48.232,48.232,0,0,0,91.91,507.9a53.433,53.433,0,0,0,8.28-9.778c1.091-1.526,2.218-3.1,3.4-4.574a16.413,16.413,0,0,1,6.63-4.973A39.158,39.158,0,0,0,127.522,518a37.663,37.663,0,0,0,30.64,4.792l-.778-5.662a26.6,26.6,0,0,1-20.544-7.61c-6.073-6-8.009-15.164-6.663-23.6-4.641-3.967-11.574-4.774-16.516-4.206A21.893,21.893,0,0,0,99.035,489.9c-1.02,1.272-1.963,2.57-2.882,3.85v-.008c-9.6,2.861-19.982,2.885-28.814-.28-14.95-5.362-22.66-17.915-25.279-23.063l-5.2,2.64c2.936,5.768,11.589,19.839,28.507,25.905" transform="translate(3608.049 2446.142)" fill="#5a1024"/>
    <path id="Path_29" data-name="Path 29" d="M120.609,483.672a6.395,6.395,0,1,1-10.928,6.643c-1.7-2.793-2.019-10.03-2.049-15.681,5,2.629,11.279,6.245,12.977,9.038m-8.357,15.189a12.317,12.317,0,0,0,2.916.353,12.222,12.222,0,0,0,10.414-18.565c-2.842-4.676-11.134-9.128-19.382-13.287l-4.31-2.172-.053,4.823c-.105,9.239.03,18.649,2.872,23.325a12.13,12.13,0,0,0,7.543,5.523" transform="translate(3639.395 2443.625)" fill="#5a1024"/>
    <path id="Path_31" data-name="Path 31" d="M33.948,520.225l1.539,5.953a409.86,409.86,0,0,1,70.424-6.292h.965a407.424,407.424,0,0,1,69.8,6.025l1.136-6.025a414.289,414.289,0,0,0-143.865.339" transform="translate(3606.645 2467.064)" fill="#5a1024"/>
    <path id="Path_30" data-name="Path 30" d="M133.015,500.123a3.746,3.746,0,0,1-2.793-.808,3.919,3.919,0,0,1-1.446-2.618,3.86,3.86,0,0,1,3.33-4.316,3.622,3.622,0,0,1,.437-.025,3.9,3.9,0,0,1,.471,7.767m9.425-5.034a9.947,9.947,0,1,0-16.05,9.019,9.83,9.83,0,0,0,6.171,2.179,9.96,9.96,0,0,0,9.88-11.2" transform="translate(3649.43 2453.773)" fill="#5a1024"/>
  </g>
</svg>
